<svg width="364" height="261" xmlns="http://www.w3.org/2000/svg" xmlns:xlink="http://www.w3.org/1999/xlink" overflow="hidden"><defs><clipPath id="clip0"><rect x="50" y="122" width="364" height="261"/></clipPath><clipPath id="clip1"><rect x="50" y="122" width="363" height="260"/></clipPath><clipPath id="clip2"><rect x="50" y="122" width="363" height="260"/></clipPath><clipPath id="clip3"><rect x="130" y="136" width="269" height="147"/></clipPath><clipPath id="clip4"><rect x="50" y="122" width="363" height="260"/></clipPath><clipPath id="clip5"><rect x="130" y="136" width="269" height="147"/></clipPath><clipPath id="clip6"><rect x="50" y="122" width="363" height="260"/></clipPath><clipPath id="clip7"><rect x="50" y="122" width="363" height="260"/></clipPath><clipPath id="clip8"><rect x="50" y="122" width="363" height="260"/></clipPath><clipPath id="clip9"><rect x="50" y="122" width="363" height="260"/></clipPath><clipPath id="clip10"><rect x="50" y="122" width="363" height="260"/></clipPath><clipPath id="clip11"><rect x="50" y="122" width="363" height="260"/></clipPath><clipPath id="clip12"><rect x="50" y="122" width="363" height="260"/></clipPath><clipPath id="clip13"><rect x="50" y="122" width="363" height="260"/></clipPath><clipPath id="clip14"><rect x="50" y="122" width="363" height="260"/></clipPath><clipPath id="clip15"><rect x="50" y="122" width="363" height="260"/></clipPath><clipPath id="clip16"><rect x="50" y="122" width="363" height="260"/></clipPath><clipPath id="clip17"><rect x="50" y="122" width="363" height="260"/></clipPath><clipPath id="clip18"><rect x="50" y="122" width="363" height="260"/></clipPath><clipPath id="clip19"><rect x="50" y="122" width="363" height="260"/></clipPath><clipPath id="clip20"><rect x="50" y="122" width="363" height="260"/></clipPath><clipPath id="clip21"><rect x="50" y="122" width="363" height="260"/></clipPath><clipPath id="clip22"><rect x="50" y="122" width="363" height="260"/></clipPath></defs><g clip-path="url(#clip0)" transform="translate(-50 -122)"><g clip-path="url(#clip1)"><path d="M130.5 237.5 398.5 237.5M130.5 192.5 398.5 192.5M130.5 148.5 398.5 148.5" stroke="#D9D9D9" stroke-linejoin="round" stroke-miterlimit="10" fill="none"/></g><g clip-path="url(#clip2)"><path d="M130.5 282.5 398.5 282.5" stroke="#D9D9D9" stroke-linejoin="round" stroke-miterlimit="10" fill="none" fill-rule="evenodd"/></g><g clip-path="url(#clip3)"><path d="M174.5 149.5 264.5 149.5 353.5 151.5" stroke="#4472C4" stroke-width="3" stroke-linecap="round" stroke-linejoin="round" stroke-miterlimit="10" fill="none"/></g><g clip-path="url(#clip4)"><path d="M178.224 149.518C178.224 151.359 176.732 152.852 174.891 152.852 173.05 152.852 171.558 151.359 171.558 149.518 171.558 147.677 173.05 146.185 174.891 146.185 176.732 146.185 178.224 147.677 178.224 149.518Z" stroke="#4472C4" stroke-linejoin="round" stroke-miterlimit="10" fill="#4472C4"/><path d="M267.724 149.518C267.724 151.359 266.232 152.852 264.391 152.852 262.55 152.852 261.058 151.359 261.058 149.518 261.058 147.677 262.55 146.185 264.391 146.185 266.232 146.185 267.724 147.677 267.724 149.518Z" stroke="#4472C4" stroke-linejoin="round" stroke-miterlimit="10" fill="#4472C4"/><path d="M357.224 151.352C357.224 153.193 355.732 154.685 353.891 154.685 352.05 154.685 350.558 153.193 350.558 151.352 350.558 149.511 352.05 148.018 353.891 148.018 355.732 148.018 357.224 149.511 357.224 151.352Z" stroke="#4472C4" stroke-linejoin="round" stroke-miterlimit="10" fill="#4472C4"/></g><g clip-path="url(#clip5)"><path d="M174.5 249.5 264.5 200.5 353.5 168.5" stroke="#ED7D31" stroke-width="3" stroke-linecap="round" stroke-linejoin="round" stroke-miterlimit="10" fill="none"/></g><g clip-path="url(#clip6)"><path d="M178.224 249.852C178.224 251.693 176.732 253.185 174.891 253.185 173.05 253.185 171.558 251.693 171.558 249.852 171.558 248.011 173.05 246.518 174.891 246.518 176.732 246.518 178.224 248.011 178.224 249.852Z" stroke="#ED7D31" stroke-linejoin="round" stroke-miterlimit="10" fill="#ED7D31"/><path d="M267.724 200.352C267.724 202.193 266.232 203.685 264.391 203.685 262.55 203.685 261.058 202.193 261.058 200.352 261.058 198.511 262.55 197.018 264.391 197.018 266.232 197.018 267.724 198.511 267.724 200.352Z" stroke="#ED7D31" stroke-linejoin="round" stroke-miterlimit="10" fill="#ED7D31"/><path d="M357.224 168.685C357.224 170.526 355.732 172.018 353.891 172.018 352.05 172.018 350.558 170.526 350.558 168.685 350.558 166.844 352.05 165.352 353.891 165.352 355.732 165.352 357.224 166.844 357.224 168.685Z" stroke="#ED7D31" stroke-linejoin="round" stroke-miterlimit="10" fill="#ED7D31"/></g><g clip-path="url(#clip7)"><text fill="#595959" font-family="Yu Gothic,Yu Gothic_MSFontService,sans-serif" font-weight="700" transform="translate(94.4777 286)">0.35</text></g><g clip-path="url(#clip8)"><text fill="#595959" font-family="Yu Gothic,Yu Gothic_MSFontService,sans-serif" font-weight="700" transform="translate(94.4777 241)">0.55</text></g><g clip-path="url(#clip9)"><text fill="#595959" font-family="Yu Gothic,Yu Gothic_MSFontService,sans-serif" font-weight="700" transform="translate(94.4777 196)">0.75</text></g><g clip-path="url(#clip10)"><text fill="#595959" font-family="Yu Gothic,Yu Gothic_MSFontService,sans-serif" font-weight="700" transform="translate(94.4777 151)">0.95</text></g><g clip-path="url(#clip11)"><text fill="#595959" font-family="Yu Gothic,Yu Gothic_MSFontService,sans-serif" font-weight="700" transform="translate(164.558 302)">300</text></g><g clip-path="url(#clip12)"><text fill="#595959" font-family="Yu Gothic,Yu Gothic_MSFontService,sans-serif" font-weight="700" transform="translate(254.031 302)">400</text></g><g clip-path="url(#clip13)"><text fill="#595959" font-family="Yu Gothic,Yu Gothic_MSFontService,sans-serif" font-weight="700" transform="translate(343.504 302)">500</text></g><g clip-path="url(#clip14)"><text fill="#595959" font-family="Yu Gothic,Yu Gothic_MSFontService,sans-serif" font-weight="700" font-size="14" transform="matrix(6.12323e-17 -1 1 6.12323e-17 84.0576 281)">Packet delivery </text></g><g clip-path="url(#clip15)"><text fill="#595959" font-family="Yu Gothic,Yu Gothic_MSFontService,sans-serif" font-weight="700" font-size="14" transform="matrix(6.12323e-17 -1 1 6.12323e-17 84.0576 172)">ratio</text></g><g clip-path="url(#clip16)"><text fill="#595959" font-family="Yu Gothic,Yu Gothic_MSFontService,sans-serif" font-weight="700" font-size="14" transform="translate(182.231 339)">Number of Nodes</text></g><g clip-path="url(#clip17)"><path d="M116.5 362.5 142.5 362.5" stroke="#4472C4" stroke-width="3" stroke-linecap="round" stroke-linejoin="round" stroke-miterlimit="10" fill="none" fill-rule="evenodd"/></g><g clip-path="url(#clip18)"><path d="M132.5 362C132.5 363.933 130.933 365.5 129 365.5 127.067 365.5 125.5 363.933 125.5 362 125.5 360.067 127.067 358.5 129 358.5 130.933 358.5 132.5 360.067 132.5 362Z" stroke="#4472C4" stroke-linejoin="round" stroke-miterlimit="10" fill="#4472C4"/></g><g clip-path="url(#clip19)"><text fill="#595959" font-family="Yu Gothic,Yu Gothic_MSFontService,sans-serif" font-weight="700" font-size="13" transform="translate(144.714 366)">no shadowing</text></g><g clip-path="url(#clip20)"><path d="M253.5 362.5 279.5 362.5" stroke="#ED7D31" stroke-width="3" stroke-linecap="round" stroke-linejoin="round" stroke-miterlimit="10" fill="none" fill-rule="evenodd"/></g><g clip-path="url(#clip21)"><path d="M269.5 362C269.5 363.933 267.933 365.5 266 365.5 264.067 365.5 262.5 363.933 262.5 362 262.5 360.067 264.067 358.5 266 358.5 267.933 358.5 269.5 360.067 269.5 362Z" stroke="#ED7D31" stroke-linejoin="round" stroke-miterlimit="10" fill="#ED7D31"/></g><g clip-path="url(#clip22)"><text fill="#595959" font-family="Yu Gothic,Yu Gothic_MSFontService,sans-serif" font-weight="700" font-size="13" transform="translate(281.757 366)">shadowing</text></g></g></svg>