<svg width="886" height="770" xmlns="http://www.w3.org/2000/svg" xmlns:xlink="http://www.w3.org/1999/xlink" overflow="hidden"><defs><clipPath id="clip0"><rect x="186" y="-49" width="886" height="770"/></clipPath><clipPath id="clip1"><rect x="186" y="-48" width="884" height="768"/></clipPath><clipPath id="clip2"><rect x="186" y="-48" width="884" height="768"/></clipPath><clipPath id="clip3"><rect x="292" y="-26" width="778" height="567"/></clipPath><clipPath id="clip4"><rect x="186" y="-48" width="884" height="768"/></clipPath><clipPath id="clip5"><rect x="292" y="-26" width="778" height="567"/></clipPath><clipPath id="clip6"><rect x="186" y="-48" width="884" height="768"/></clipPath><clipPath id="clip7"><rect x="292" y="-26" width="778" height="567"/></clipPath><clipPath id="clip8"><rect x="186" y="-48" width="884" height="768"/></clipPath><clipPath id="clip9"><rect x="292" y="-26" width="778" height="567"/></clipPath><clipPath id="clip10"><rect x="186" y="-48" width="884" height="768"/></clipPath><clipPath id="clip11"><rect x="292" y="-26" width="778" height="567"/></clipPath><clipPath id="clip12"><rect x="186" y="-48" width="884" height="768"/></clipPath><clipPath id="clip13"><rect x="292" y="-26" width="778" height="567"/></clipPath><clipPath id="clip14"><rect x="186" y="-48" width="884" height="768"/></clipPath><clipPath id="clip15"><rect x="186" y="-48" width="884" height="768"/></clipPath><clipPath id="clip16"><rect x="186" y="-48" width="884" height="768"/></clipPath><clipPath id="clip17"><rect x="186" y="-48" width="884" height="768"/></clipPath><clipPath id="clip18"><rect x="186" y="-48" width="884" height="768"/></clipPath><clipPath id="clip19"><rect x="186" y="-48" width="884" height="768"/></clipPath><clipPath id="clip20"><rect x="186" y="-48" width="884" height="768"/></clipPath><clipPath id="clip21"><rect x="186" y="-48" width="884" height="768"/></clipPath><clipPath id="clip22"><rect x="186" y="-48" width="884" height="768"/></clipPath><clipPath id="clip23"><rect x="186" y="-48" width="884" height="768"/></clipPath><clipPath id="clip24"><rect x="186" y="-48" width="884" height="768"/></clipPath><clipPath id="clip25"><rect x="186" y="-48" width="884" height="768"/></clipPath><clipPath id="clip26"><rect x="186" y="-48" width="884" height="768"/></clipPath><clipPath id="clip27"><rect x="186" y="-48" width="884" height="768"/></clipPath><clipPath id="clip28"><rect x="186" y="-48" width="884" height="768"/></clipPath><clipPath id="clip29"><rect x="186" y="-48" width="884" height="768"/></clipPath><clipPath id="clip30"><rect x="186" y="-48" width="884" height="768"/></clipPath><clipPath id="clip31"><rect x="186" y="-48" width="884" height="768"/></clipPath><clipPath id="clip32"><rect x="186" y="-48" width="884" height="768"/></clipPath><clipPath id="clip33"><rect x="186" y="-48" width="884" height="768"/></clipPath><clipPath id="clip34"><rect x="186" y="-48" width="884" height="768"/></clipPath><clipPath id="clip35"><rect x="186" y="-48" width="884" height="768"/></clipPath><clipPath id="clip36"><rect x="186" y="-48" width="884" height="768"/></clipPath><clipPath id="clip37"><rect x="186" y="-48" width="884" height="768"/></clipPath><clipPath id="clip38"><rect x="186" y="-48" width="884" height="768"/></clipPath><clipPath id="clip39"><rect x="186" y="-48" width="884" height="768"/></clipPath><clipPath id="clip40"><rect x="186" y="-48" width="884" height="768"/></clipPath><clipPath id="clip41"><rect x="186" y="-48" width="884" height="768"/></clipPath><clipPath id="clip42"><rect x="186" y="-48" width="884" height="768"/></clipPath><clipPath id="clip43"><rect x="186" y="-48" width="884" height="768"/></clipPath></defs><g clip-path="url(#clip0)" transform="translate(-186 49)"><g clip-path="url(#clip1)"><path d="M292.5 427.5 1070.5 427.5M292.5 313.5 1070.5 313.5M292.5 200.5 1070.5 200.5M292.5 86.5 1070.5 86.5M292.5-26.5001 1070.5-26.5001" stroke="#D9D9D9" stroke-linejoin="round" stroke-miterlimit="10" fill="none"/></g><g clip-path="url(#clip2)"><path d="M292.5 540.5 1070.5 540.5" stroke="#D9D9D9" stroke-linejoin="round" stroke-miterlimit="10" fill="none" fill-rule="evenodd"/></g><g clip-path="url(#clip3)"><path d="M422.5 176.5 681.5 384.5 941.5 502.5" stroke="#5B9BD5" stroke-width="3" stroke-linecap="round" stroke-linejoin="round" stroke-miterlimit="10" fill="none"/></g><g clip-path="url(#clip4)"><path d="M428.455 176.643C428.455 179.956 425.768 182.643 422.455 182.643 419.141 182.643 416.455 179.956 416.455 176.643 416.455 173.329 419.141 170.643 422.455 170.643 425.768 170.643 428.455 173.329 428.455 176.643Z" stroke="#5B9BD5" stroke-linejoin="round" stroke-miterlimit="10" fill="#5B9BD5"/><path d="M687.788 384.976C687.788 388.29 685.102 390.976 681.788 390.976 678.474 390.976 675.788 388.29 675.788 384.976 675.788 381.662 678.474 378.976 681.788 378.976 685.102 378.976 687.788 381.662 687.788 384.976Z" stroke="#5B9BD5" stroke-linejoin="round" stroke-miterlimit="10" fill="#5B9BD5"/><path d="M947.121 502.476C947.121 505.79 944.435 508.476 941.121 508.476 937.808 508.476 935.121 505.79 935.121 502.476 935.121 499.162 937.808 496.476 941.121 496.476 944.435 496.476 947.121 499.162 947.121 502.476Z" stroke="#5B9BD5" stroke-linejoin="round" stroke-miterlimit="10" fill="#5B9BD5"/></g><g clip-path="url(#clip5)"><path d="M422.5 211.5 681.5 386.5 941.5 513.5" stroke="#5B9BD5" stroke-width="3" stroke-linecap="round" stroke-linejoin="round" stroke-miterlimit="10" stroke-dasharray="9 12" fill="none"/></g><g clip-path="url(#clip6)"><path d="M422.455 205.476 428.455 217.476 416.455 217.476Z" stroke="#5B9BD5" stroke-linejoin="round" stroke-miterlimit="10" stroke-dasharray="4 3" fill="#5B9BD5"/><path d="M681.788 380.976 687.788 392.976 675.788 392.976Z" stroke="#5B9BD5" stroke-linejoin="round" stroke-miterlimit="10" stroke-dasharray="4 3" fill="#5B9BD5"/><path d="M941.121 507.142 947.121 519.142 935.121 519.142Z" stroke="#5B9BD5" stroke-linejoin="round" stroke-miterlimit="10" stroke-dasharray="4 3" fill="#5B9BD5"/></g><g clip-path="url(#clip7)"><path d="M422.5 73.5001 681.5 318.5 941.5 465.5" stroke="#ED7D31" stroke-width="3" stroke-linecap="round" stroke-linejoin="round" stroke-miterlimit="10" fill="none"/></g><g clip-path="url(#clip8)"><path d="M428.455 73.6425C428.455 76.9562 425.768 79.6425 422.455 79.6425 419.141 79.6425 416.455 76.9562 416.455 73.6425 416.455 70.3288 419.141 67.6425 422.455 67.6425 425.768 67.6425 428.455 70.3288 428.455 73.6425Z" stroke="#ED7D31" stroke-linejoin="round" stroke-miterlimit="10" fill="#ED7D31"/><path d="M687.788 318.476C687.788 321.79 685.102 324.476 681.788 324.476 678.474 324.476 675.788 321.79 675.788 318.476 675.788 315.162 678.474 312.476 681.788 312.476 685.102 312.476 687.788 315.162 687.788 318.476Z" stroke="#ED7D31" stroke-linejoin="round" stroke-miterlimit="10" fill="#ED7D31"/><path d="M947.121 465.976C947.121 469.29 944.435 471.976 941.121 471.976 937.808 471.976 935.121 469.29 935.121 465.976 935.121 462.662 937.808 459.976 941.121 459.976 944.435 459.976 947.121 462.662 947.121 465.976Z" stroke="#ED7D31" stroke-linejoin="round" stroke-miterlimit="10" fill="#ED7D31"/></g><g clip-path="url(#clip9)"><path d="M422.5 34.5001 681.5 266.5 941.5 460.5" stroke="#ED7D31" stroke-width="3" stroke-linecap="round" stroke-linejoin="round" stroke-miterlimit="10" stroke-dasharray="9 12 0 12" fill="none"/></g><g clip-path="url(#clip10)"><path d="M422.455 28.6425 428.455 40.6425 416.455 40.6425Z" stroke="#ED7D31" stroke-linejoin="round" stroke-miterlimit="10" fill="#ED7D31"/><path d="M681.788 260.142 687.788 272.142 675.788 272.142Z" stroke="#ED7D31" stroke-linejoin="round" stroke-miterlimit="10" fill="#ED7D31"/><path d="M941.121 454.309 947.121 466.309 935.121 466.309Z" stroke="#ED7D31" stroke-linejoin="round" stroke-miterlimit="10" fill="#ED7D31"/></g><g clip-path="url(#clip11)"><path d="M422.5 56.5001 681.5 312.5 941.5 468.5" stroke="#70AD47" stroke-width="3" stroke-linecap="round" stroke-linejoin="round" stroke-miterlimit="10" fill="none"/></g><g clip-path="url(#clip12)"><path d="M428.455 56.6425C428.455 59.9562 425.768 62.6425 422.455 62.6425 419.141 62.6425 416.455 59.9562 416.455 56.6425 416.455 53.3288 419.141 50.6425 422.455 50.6425 425.768 50.6425 428.455 53.3288 428.455 56.6425Z" stroke="#70AD47" stroke-linejoin="round" stroke-miterlimit="10" fill="#70AD47"/><path d="M687.788 312.643C687.788 315.956 685.102 318.643 681.788 318.643 678.474 318.643 675.788 315.956 675.788 312.643 675.788 309.329 678.474 306.643 681.788 306.643 685.102 306.643 687.788 309.329 687.788 312.643Z" stroke="#70AD47" stroke-linejoin="round" stroke-miterlimit="10" fill="#70AD47"/><path d="M947.121 468.809C947.121 472.123 944.435 474.809 941.121 474.809 937.808 474.809 935.121 472.123 935.121 468.809 935.121 465.495 937.808 462.809 941.121 462.809 944.435 462.809 947.121 465.495 947.121 468.809Z" stroke="#70AD47" stroke-linejoin="round" stroke-miterlimit="10" fill="#70AD47"/></g><g clip-path="url(#clip13)"><path d="M422.5-2.50005 681.5 236.5 941.5 447.5" stroke="#70AD47" stroke-width="3" stroke-linecap="round" stroke-linejoin="round" stroke-miterlimit="10" stroke-dasharray="21 12 0 12" fill="none"/></g><g clip-path="url(#clip14)"><path d="M422.455-7.35748 427.788 3.30919 417.121 3.30919Z" stroke="#70AD47" stroke-linejoin="round" stroke-miterlimit="10" fill="#70AD47"/><path d="M681.788 231.476 687.121 242.142 676.455 242.142Z" stroke="#70AD47" stroke-linejoin="round" stroke-miterlimit="10" fill="#70AD47"/><path d="M941.121 442.309 946.455 452.976 935.788 452.976Z" stroke="#70AD47" stroke-linejoin="round" stroke-miterlimit="10" fill="#70AD47"/></g><g clip-path="url(#clip15)"><text fill="#595959" font-family="Calibri,Calibri_MSFontService,sans-serif" font-weight="700" font-size="27" transform="translate(241.01 548)">18</text></g><g clip-path="url(#clip16)"><text fill="#595959" font-family="Calibri,Calibri_MSFontService,sans-serif" font-weight="700" font-size="27" transform="translate(241.01 435)">23</text></g><g clip-path="url(#clip17)"><text fill="#595959" font-family="Calibri,Calibri_MSFontService,sans-serif" font-weight="700" font-size="27" transform="translate(241.01 321)">28</text></g><g clip-path="url(#clip18)"><text fill="#595959" font-family="Calibri,Calibri_MSFontService,sans-serif" font-weight="700" font-size="27" transform="translate(241.01 208)">33</text></g><g clip-path="url(#clip19)"><text fill="#595959" font-family="Calibri,Calibri_MSFontService,sans-serif" font-weight="700" font-size="27" transform="translate(241.01 94)">38</text></g><g clip-path="url(#clip20)"><text fill="#595959" font-family="Calibri,Calibri_MSFontService,sans-serif" font-weight="700" font-size="27" transform="translate(241.01 -19)">43</text></g><g clip-path="url(#clip21)"><text fill="#595959" font-family="Calibri,Calibri_MSFontService,sans-serif" font-weight="700" font-size="27" transform="translate(402.189 583)">200</text></g><g clip-path="url(#clip22)"><text fill="#595959" font-family="Calibri,Calibri_MSFontService,sans-serif" font-weight="700" font-size="27" transform="translate(661.553 583)">300</text></g><g clip-path="url(#clip23)"><text fill="#595959" font-family="Calibri,Calibri_MSFontService,sans-serif" font-weight="700" font-size="27" transform="translate(920.916 583)">400</text></g><g clip-path="url(#clip24)"><text fill="#595959" font-family="Calibri,Calibri_MSFontService,sans-serif" font-weight="700" font-size="32" transform="matrix(6.12323e-17 -1 1 6.12323e-17 221.648 480)">Routing protocol overhead</text></g><g clip-path="url(#clip25)"><text fill="#595959" font-family="Calibri,Calibri_MSFontService,sans-serif" font-weight="700" font-size="32" transform="translate(564.583 624)">number of  nodes</text></g><g clip-path="url(#clip26)"><path d="M417.5 653.5 450.5 653.5" stroke="#5B9BD5" stroke-width="3" stroke-linecap="round" stroke-linejoin="round" stroke-miterlimit="10" fill="none" fill-rule="evenodd"/></g><g clip-path="url(#clip27)"><path d="M439.5 653.5C439.5 656.814 436.814 659.5 433.5 659.5 430.186 659.5 427.5 656.814 427.5 653.5 427.5 650.186 430.186 647.5 433.5 647.5 436.814 647.5 439.5 650.186 439.5 653.5Z" stroke="#5B9BD5" stroke-linejoin="round" stroke-miterlimit="10" fill="#5B9BD5"/></g><g clip-path="url(#clip28)"><text fill="#595959" font-family="Calibri,Calibri_MSFontService,sans-serif" font-weight="700" font-size="27" transform="translate(454.341 661)">SIGO(10)</text></g><g clip-path="url(#clip29)"><path d="M561.5 653.5 595.5 653.5" stroke="#5B9BD5" stroke-width="3" stroke-linecap="round" stroke-linejoin="round" stroke-miterlimit="10" stroke-dasharray="9 12" fill="none" fill-rule="evenodd"/></g><g clip-path="url(#clip30)"><path d="M578.333 647.5 584.333 659.5 572.333 659.5Z" stroke="#5B9BD5" stroke-linejoin="round" stroke-miterlimit="10" stroke-dasharray="4 3" fill="#5B9BD5"/></g><g clip-path="url(#clip31)"><text fill="#595959" font-family="Calibri,Calibri_MSFontService,sans-serif" font-weight="700" font-size="27" transform="translate(598.888 661)">LSGO(10)</text></g><g clip-path="url(#clip32)"><path d="M706.5 653.5 739.5 653.5" stroke="#ED7D31" stroke-width="3" stroke-linecap="round" stroke-linejoin="round" stroke-miterlimit="10" fill="none" fill-rule="evenodd"/></g><g clip-path="url(#clip33)"><path d="M728.5 653.5C728.5 656.814 725.814 659.5 722.5 659.5 719.186 659.5 716.5 656.814 716.5 653.5 716.5 650.186 719.186 647.5 722.5 647.5 725.814 647.5 728.5 650.186 728.5 653.5Z" stroke="#ED7D31" stroke-linejoin="round" stroke-miterlimit="10" fill="#ED7D31"/></g><g clip-path="url(#clip34)"><text fill="#595959" font-family="Calibri,Calibri_MSFontService,sans-serif" font-weight="700" font-size="27" transform="translate(743.435 661)">SIGO(20)</text></g><g clip-path="url(#clip35)"><path d="M417.5 693.5 450.5 693.5" stroke="#ED7D31" stroke-width="3" stroke-linecap="round" stroke-linejoin="round" stroke-miterlimit="10" stroke-dasharray="9 12 0 12" fill="none" fill-rule="evenodd"/></g><g clip-path="url(#clip36)"><path d="M433.833 687.833 439.833 699.833 427.833 699.833Z" stroke="#ED7D31" stroke-linejoin="round" stroke-miterlimit="10" fill="#ED7D31"/></g><g clip-path="url(#clip37)"><text fill="#595959" font-family="Calibri,Calibri_MSFontService,sans-serif" font-weight="700" font-size="27" transform="translate(454.341 701)">LSGO(20)</text></g><g clip-path="url(#clip38)"><path d="M561.5 693.5 595.5 693.5" stroke="#70AD47" stroke-width="3" stroke-linecap="round" stroke-linejoin="round" stroke-miterlimit="10" fill="none" fill-rule="evenodd"/></g><g clip-path="url(#clip39)"><path d="M584.5 693.5C584.5 696.814 581.814 699.5 578.5 699.5 575.186 699.5 572.5 696.814 572.5 693.5 572.5 690.186 575.186 687.5 578.5 687.5 581.814 687.5 584.5 690.186 584.5 693.5Z" stroke="#70AD47" stroke-linejoin="round" stroke-miterlimit="10" fill="#70AD47"/></g><g clip-path="url(#clip40)"><text fill="#595959" font-family="Calibri,Calibri_MSFontService,sans-serif" font-weight="700" font-size="27" transform="translate(598.888 701)">SIGO(30)</text></g><g clip-path="url(#clip41)"><path d="M706.5 693.5 739.5 693.5" stroke="#70AD47" stroke-width="3" stroke-linecap="round" stroke-linejoin="round" stroke-miterlimit="10" stroke-dasharray="21 12 0 12" fill="none" fill-rule="evenodd"/></g><g clip-path="url(#clip42)"><path d="M722.833 688.5 728.167 699.167 717.5 699.167Z" stroke="#70AD47" stroke-linejoin="round" stroke-miterlimit="10" fill="#70AD47"/></g><g clip-path="url(#clip43)"><text fill="#595959" font-family="Calibri,Calibri_MSFontService,sans-serif" font-weight="700" font-size="27" transform="translate(743.435 701)">LSGO(30)</text></g></g></svg>