<svg width="430" height="510" xmlns="http://www.w3.org/2000/svg" xmlns:xlink="http://www.w3.org/1999/xlink" overflow="hidden"><defs><clipPath id="clip0"><rect x="389" y="41" width="430" height="510"/></clipPath></defs><g clip-path="url(#clip0)" transform="translate(-389 -41)"><path d="M389.883 81.4515 817.883 81.4515" stroke="#000000" stroke-width="1.33333" stroke-linejoin="round" stroke-miterlimit="10" fill="none" fill-rule="evenodd"/><path d="M389.883 120.385 817.883 120.385" stroke="#000000" stroke-width="1.33333" stroke-linejoin="round" stroke-miterlimit="10" fill="none" fill-rule="evenodd"/><path d="M389.883 159.318 817.883 159.318" stroke="#000000" stroke-width="1.33333" stroke-linejoin="round" stroke-miterlimit="10" fill="none" fill-rule="evenodd"/><path d="M389.883 198.252 817.883 198.252" stroke="#000000" stroke-width="1.33333" stroke-linejoin="round" stroke-miterlimit="10" fill="none" fill-rule="evenodd"/><path d="M389.883 237.185 817.883 237.185" stroke="#000000" stroke-width="1.33333" stroke-linejoin="round" stroke-miterlimit="10" fill="none" fill-rule="evenodd"/><path d="M389.883 276.118 817.883 276.118" stroke="#000000" stroke-width="1.33333" stroke-linejoin="round" stroke-miterlimit="10" fill="none" fill-rule="evenodd"/><path d="M389.883 315.052 817.883 315.052" stroke="#000000" stroke-width="1.33333" stroke-linejoin="round" stroke-miterlimit="10" fill="none" fill-rule="evenodd"/><path d="M389.883 353.985 817.883 353.985" stroke="#000000" stroke-width="1.33333" stroke-linejoin="round" stroke-miterlimit="10" fill="none" fill-rule="evenodd"/><path d="M389.883 392.918 817.883 392.918" stroke="#000000" stroke-width="1.33333" stroke-linejoin="round" stroke-miterlimit="10" fill="none" fill-rule="evenodd"/><path d="M389.883 431.852 817.883 431.852" stroke="#000000" stroke-width="1.33333" stroke-linejoin="round" stroke-miterlimit="10" fill="none" fill-rule="evenodd"/><path d="M389.883 470.785 817.883 470.785" stroke="#000000" stroke-width="1.33333" stroke-linejoin="round" stroke-miterlimit="10" fill="none" fill-rule="evenodd"/><path d="M389.883 509.718 817.883 509.718" stroke="#000000" stroke-width="1.33333" stroke-linejoin="round" stroke-miterlimit="10" fill="none" fill-rule="evenodd"/><path d="M390.55 41.8515 390.55 549.318" stroke="#000000" stroke-width="1.33333" stroke-linejoin="round" stroke-miterlimit="10" fill="none" fill-rule="evenodd"/><path d="M817.217 41.8515 817.217 549.318" stroke="#000000" stroke-width="1.33333" stroke-linejoin="round" stroke-miterlimit="10" fill="none" fill-rule="evenodd"/><path d="M389.883 42.5182 817.883 42.5182" stroke="#000000" stroke-width="1.33333" stroke-linejoin="round" stroke-miterlimit="10" fill="none" fill-rule="evenodd"/><path d="M389.883 548.652 817.883 548.652" stroke="#000000" stroke-width="1.33333" stroke-linejoin="round" stroke-miterlimit="10" fill="none" fill-rule="evenodd"/><text font-family="Cambria Math,Cambria Math_MSFontService,sans-serif" font-weight="400" font-size="24" transform="translate(546.633 71)">𝑺𝒐𝒖𝒓𝒄𝒆𝑰𝒅<tspan font-size="24" x="24.1833" y="37">𝑫𝒔𝒕𝑰𝒅</tspan><tspan font-size="24" x="8.51666" y="76">𝑫𝒔𝒕𝑿𝒑𝒐𝒔</tspan><tspan font-size="24" x="9.26331" y="115">𝑫𝒔𝒕𝒀𝒑𝒐𝒔</tspan><tspan font-size="24" x="33.8367" y="154">𝑰</tspan>𝑫<tspan font-size="18" x="62.3367" y="159">𝟏</tspan><tspan font-size="24" x="37.1833" y="193">𝑰</tspan>𝑫<tspan font-size="18" x="65.6833" y="198">𝟐</tspan><tspan font-family="Yu Gothic,Yu Gothic_MSFontService,sans-serif" font-style="oblique" font-weight="700" font-size="24" x="47.1833" y="232">...</tspan><tspan font-size="24" x="35.77" y="271">𝑰</tspan>𝑫<tspan font-size="18" x="64.27" y="276">𝑵</tspan><tspan font-size="24" x="4.66663" y="310">𝑳𝒔𝒏𝑿𝒑𝒐𝒔</tspan><tspan font-size="24" x="5.41663" y="349">𝑳𝒔𝒏𝒀𝒑𝒐𝒔</tspan><tspan font-size="24" x="-2.83337" y="388">𝑷𝑳𝒔𝒏𝒀𝒑𝒐𝒔</tspan><tspan font-size="24" x="-22.2501" y="427">𝑪𝒖𝒓𝒓𝒆𝒏𝒕𝑿𝒑𝒐𝒔</tspan><tspan font-size="24" x="-21.5" y="466">𝑪𝒖𝒓𝒓𝒆𝒏𝒕𝒀𝒑𝒐𝒔</tspan></text></g></svg>