<svg width="960" height="750" xmlns="http://www.w3.org/2000/svg" xmlns:xlink="http://www.w3.org/1999/xlink" overflow="hidden"><defs><clipPath id="clip0"><path d="M160-15 1120-15 1120 735 160 735Z" fill-rule="evenodd" clip-rule="evenodd"/></clipPath><clipPath id="clip1"><path d="M160-14 1119-14 1119 734 160 734Z" fill-rule="evenodd" clip-rule="evenodd"/></clipPath><clipPath id="clip2"><path d="M271 0 1104 0 1104 613 271 613Z" fill-rule="evenodd" clip-rule="evenodd"/></clipPath><clipPath id="clip3"><path d="M271 0 1104 0 1104 613 271 613Z" fill-rule="evenodd" clip-rule="evenodd"/></clipPath><clipPath id="clip4"><path d="M271 0 1104 0 1104 613 271 613Z" fill-rule="evenodd" clip-rule="evenodd"/></clipPath><clipPath id="clip5"><path d="M271 0 1104 0 1104 613 271 613Z" fill-rule="evenodd" clip-rule="evenodd"/></clipPath><clipPath id="clip6"><path d="M271 0 1104 0 1104 613 271 613Z" fill-rule="evenodd" clip-rule="evenodd"/></clipPath><clipPath id="clip7"><path d="M271 0 1104 0 1104 612 271 612Z" fill-rule="evenodd" clip-rule="evenodd"/></clipPath><clipPath id="clip8"><path d="M271 0 1104 0 1104 612 271 612Z" fill-rule="evenodd" clip-rule="evenodd"/></clipPath><clipPath id="clip9"><path d="M271 0 1104 0 1104 612 271 612Z" fill-rule="evenodd" clip-rule="evenodd"/></clipPath><clipPath id="clip10"><path d="M271 0 1104 0 1104 612 271 612Z" fill-rule="evenodd" clip-rule="evenodd"/></clipPath><clipPath id="clip11"><path d="M271 0 1104 0 1104 612 271 612Z" fill-rule="evenodd" clip-rule="evenodd"/></clipPath><clipPath id="clip12"><path d="M271 0 1104 0 1104 612 271 612Z" fill-rule="evenodd" clip-rule="evenodd"/></clipPath><clipPath id="clip13"><path d="M271 0 1104 0 1104 612 271 612Z" fill-rule="evenodd" clip-rule="evenodd"/></clipPath><clipPath id="clip14"><path d="M271 0 1104 0 1104 612 271 612Z" fill-rule="evenodd" clip-rule="evenodd"/></clipPath><clipPath id="clip15"><path d="M271 0 1104 0 1104 612 271 612Z" fill-rule="evenodd" clip-rule="evenodd"/></clipPath><clipPath id="clip16"><path d="M271 0 1104 0 1104 612 271 612Z" fill-rule="evenodd" clip-rule="evenodd"/></clipPath><clipPath id="clip17"><path d="M271 0 1104 0 1104 612 271 612Z" fill-rule="evenodd" clip-rule="evenodd"/></clipPath><clipPath id="clip18"><path d="M271 0 1104 0 1104 612 271 612Z" fill-rule="evenodd" clip-rule="evenodd"/></clipPath><clipPath id="clip19"><path d="M271 0 1104 0 1104 612 271 612Z" fill-rule="evenodd" clip-rule="evenodd"/></clipPath><clipPath id="clip20"><path d="M271 0 1104 0 1104 612 271 612Z" fill-rule="evenodd" clip-rule="evenodd"/></clipPath><clipPath id="clip21"><path d="M271 0 1104 0 1104 612 271 612Z" fill-rule="evenodd" clip-rule="evenodd"/></clipPath><clipPath id="clip22"><path d="M271 0 1104 0 1104 612 271 612Z" fill-rule="evenodd" clip-rule="evenodd"/></clipPath><clipPath id="clip23"><path d="M271 0 1104 0 1104 612 271 612Z" fill-rule="evenodd" clip-rule="evenodd"/></clipPath><clipPath id="clip24"><path d="M271 0 1104 0 1104 612 271 612Z" fill-rule="evenodd" clip-rule="evenodd"/></clipPath><clipPath id="clip25"><path d="M271 0 1104 0 1104 612 271 612Z" fill-rule="evenodd" clip-rule="evenodd"/></clipPath><clipPath id="clip26"><path d="M271 0 1104 0 1104 612 271 612Z" fill-rule="evenodd" clip-rule="evenodd"/></clipPath><clipPath id="clip27"><path d="M271 0 1104 0 1104 612 271 612Z" fill-rule="evenodd" clip-rule="evenodd"/></clipPath><clipPath id="clip28"><path d="M271 0 1104 0 1104 612 271 612Z" fill-rule="evenodd" clip-rule="evenodd"/></clipPath><clipPath id="clip29"><path d="M271 0 1104 0 1104 612 271 612Z" fill-rule="evenodd" clip-rule="evenodd"/></clipPath><clipPath id="clip30"><path d="M271 0 1104 0 1104 612 271 612Z" fill-rule="evenodd" clip-rule="evenodd"/></clipPath><clipPath id="clip31"><path d="M271 0 1104 0 1104 612 271 612Z" fill-rule="evenodd" clip-rule="evenodd"/></clipPath><clipPath id="clip32"><path d="M271 0 1104 0 1104 612 271 612Z" fill-rule="evenodd" clip-rule="evenodd"/></clipPath><clipPath id="clip33"><path d="M271 0 1104 0 1104 612 271 612Z" fill-rule="evenodd" clip-rule="evenodd"/></clipPath><clipPath id="clip34"><path d="M271 0 1104 0 1104 612 271 612Z" fill-rule="evenodd" clip-rule="evenodd"/></clipPath><clipPath id="clip35"><path d="M160-14 1119-14 1119 734 160 734Z" fill-rule="evenodd" clip-rule="evenodd"/></clipPath><clipPath id="clip36"><path d="M160-14 1119-14 1119 734 160 734Z" fill-rule="evenodd" clip-rule="evenodd"/></clipPath><clipPath id="clip37"><path d="M160-14 1119-14 1119 734 160 734Z" fill-rule="evenodd" clip-rule="evenodd"/></clipPath><clipPath id="clip38"><path d="M160-14 1119-14 1119 734 160 734Z" fill-rule="evenodd" clip-rule="evenodd"/></clipPath><clipPath id="clip39"><path d="M160-14 1119-14 1119 734 160 734Z" fill-rule="evenodd" clip-rule="evenodd"/></clipPath><clipPath id="clip40"><path d="M160-14 1119-14 1119 734 160 734Z" fill-rule="evenodd" clip-rule="evenodd"/></clipPath><clipPath id="clip41"><path d="M160-14 1119-14 1119 734 160 734Z" fill-rule="evenodd" clip-rule="evenodd"/></clipPath><clipPath id="clip42"><path d="M160-14 1119-14 1119 734 160 734Z" fill-rule="evenodd" clip-rule="evenodd"/></clipPath><clipPath id="clip43"><path d="M160-14 1119-14 1119 734 160 734Z" fill-rule="evenodd" clip-rule="evenodd"/></clipPath><clipPath id="clip44"><path d="M160-14 1119-14 1119 734 160 734Z" fill-rule="evenodd" clip-rule="evenodd"/></clipPath><clipPath id="clip45"><path d="M160-14 1119-14 1119 734 160 734Z" fill-rule="evenodd" clip-rule="evenodd"/></clipPath><clipPath id="clip46"><path d="M160-14 1119-14 1119 734 160 734Z" fill-rule="evenodd" clip-rule="evenodd"/></clipPath><clipPath id="clip47"><path d="M160-14 1119-14 1119 734 160 734Z" fill-rule="evenodd" clip-rule="evenodd"/></clipPath><clipPath id="clip48"><path d="M160-14 1119-14 1119 734 160 734Z" fill-rule="evenodd" clip-rule="evenodd"/></clipPath><clipPath id="clip49"><path d="M160-14 1119-14 1119 734 160 734Z" fill-rule="evenodd" clip-rule="evenodd"/></clipPath><clipPath id="clip50"><path d="M160-14 1119-14 1119 734 160 734Z" fill-rule="evenodd" clip-rule="evenodd"/></clipPath><clipPath id="clip51"><path d="M160-14 1119-14 1119 734 160 734Z" fill-rule="evenodd" clip-rule="evenodd"/></clipPath><clipPath id="clip52"><path d="M160-14 1119-14 1119 734 160 734Z" fill-rule="evenodd" clip-rule="evenodd"/></clipPath><clipPath id="clip53"><path d="M160-14 1119-14 1119 734 160 734Z" fill-rule="evenodd" clip-rule="evenodd"/></clipPath><clipPath id="clip54"><path d="M-116 690 902 690 902 727-116 727Z" fill-rule="evenodd" clip-rule="evenodd"/></clipPath><clipPath id="clip55"><path d="M160-14 1119-14 1119 734 160 734Z" fill-rule="evenodd" clip-rule="evenodd"/></clipPath><clipPath id="clip56"><path d="M-116 690 902 690 902 727-116 727Z" fill-rule="evenodd" clip-rule="evenodd"/></clipPath><clipPath id="clip57"><path d="M160-14 1119-14 1119 734 160 734Z" fill-rule="evenodd" clip-rule="evenodd"/></clipPath><clipPath id="clip58"><path d="M160-14 1119-14 1119 734 160 734Z" fill-rule="evenodd" clip-rule="evenodd"/></clipPath><clipPath id="clip59"><path d="M34 690 1146 690 1146 727 34 727Z" fill-rule="evenodd" clip-rule="evenodd"/></clipPath><clipPath id="clip60"><path d="M160-14 1119-14 1119 734 160 734Z" fill-rule="evenodd" clip-rule="evenodd"/></clipPath><clipPath id="clip61"><path d="M34 690 1146 690 1146 727 34 727Z" fill-rule="evenodd" clip-rule="evenodd"/></clipPath><clipPath id="clip62"><path d="M160-14 1119-14 1119 734 160 734Z" fill-rule="evenodd" clip-rule="evenodd"/></clipPath><clipPath id="clip63"><path d="M160-14 1119-14 1119 734 160 734Z" fill-rule="evenodd" clip-rule="evenodd"/></clipPath><clipPath id="clip64"><path d="M258 690 1323 690 1323 727 258 727Z" fill-rule="evenodd" clip-rule="evenodd"/></clipPath><clipPath id="clip65"><path d="M160-14 1119-14 1119 734 160 734Z" fill-rule="evenodd" clip-rule="evenodd"/></clipPath><clipPath id="clip66"><path d="M258 690 1323 690 1323 727 258 727Z" fill-rule="evenodd" clip-rule="evenodd"/></clipPath><clipPath id="clip67"><path d="M160-14 1119-14 1119 734 160 734Z" fill-rule="evenodd" clip-rule="evenodd"/></clipPath><clipPath id="clip68"><path d="M160-14 1119-14 1119 734 160 734Z" fill-rule="evenodd" clip-rule="evenodd"/></clipPath><clipPath id="clip69"><path d="M455 690 1520 690 1520 727 455 727Z" fill-rule="evenodd" clip-rule="evenodd"/></clipPath><clipPath id="clip70"><path d="M160-14 1119-14 1119 734 160 734Z" fill-rule="evenodd" clip-rule="evenodd"/></clipPath><clipPath id="clip71"><path d="M455 690 1520 690 1520 727 455 727Z" fill-rule="evenodd" clip-rule="evenodd"/></clipPath></defs><g clip-path="url(#clip0)" transform="translate(-160 15)"><g clip-path="url(#clip1)"><path d="M271.5 510.5 1103.5 510.5M271.5 408.5 1103.5 408.5M271.5 306.5 1103.5 306.5M271.5 204.5 1103.5 204.5M271.5 102.5 1103.5 102.5M271.5 0.500053 1103.5 0.500053" stroke="#D9D9D9" stroke-linejoin="round" stroke-miterlimit="10" fill="none"/></g><g clip-path="url(#clip2)"><rect x="290" y="216" width="17" height="396" fill="#5B9BD5"/></g><g clip-path="url(#clip3)"><path d="M409 109 426 109 426 612 409 612ZM528 118 545 118 545 612 528 612ZM646 111 663 111 663 612 646 612ZM765 127 782 127 782 612 765 612ZM884 155 901 155 901 612 884 612ZM1003 135 1020 135 1020 612 1003 612Z" fill="#5B9BD5"/></g><g clip-path="url(#clip4)"><path d="M311 216 328 216 328 612 311 612ZM430 104 447 104 447 612 430 612ZM549 92 566 92 566 612 549 612ZM668 97 685 97 685 612 668 612ZM787 114 804 114 804 612 787 612ZM906 112 923 112 923 612 906 612ZM1025 103 1041 103 1041 612 1025 612Z" fill="#ED7D31"/></g><g clip-path="url(#clip5)"><path d="M333 216 350 216 350 612 333 612ZM452 104 469 104 469 612 452 612ZM571 112 588 112 588 612 571 612ZM690 97 706 97 706 612 690 612ZM808 114 825 114 825 612 808 612ZM927 116 944 116 944 612 927 612ZM1046 103 1063 103 1063 612 1046 612Z" fill="#A5A5A5" fill-opacity="0.2"/></g><g clip-path="url(#clip6)"><path d="M355 262 372 262 372 612 355 612ZM473 176 490 176 490 612 473 612ZM592 192 609 192 609 612 592 612ZM711 126 728 126 728 612 711 612ZM830 139 847 139 847 612 830 612ZM949 134 966 134 966 612 949 612ZM1068 158 1085 158 1085 612 1068 612Z" fill="#FFC000" fill-opacity="0.2"/></g><g clip-path="url(#clip7)"><path d="M298.5 215.5 298.5 260.5M298.5 215.5 298.5 171.5M295.5 260.5 301.5 260.5M295.5 171.5 301.5 171.5" stroke="#595959" stroke-linejoin="round" stroke-miterlimit="10" fill="none"/></g><g clip-path="url(#clip8)"><path d="M417.5 109.5 417.5 141.5M417.5 109.5 417.5 77.5001M414.5 141.5 420.5 141.5M414.5 77.5001 420.5 77.5001" stroke="#595959" stroke-linejoin="round" stroke-miterlimit="10" fill="none"/></g><g clip-path="url(#clip9)"><path d="M536.5 118.5 536.5 159.5M536.5 118.5 536.5 77.5001M533.5 159.5 539.5 159.5M533.5 77.5001 539.5 77.5001" stroke="#595959" stroke-linejoin="round" stroke-miterlimit="10" fill="none"/></g><g clip-path="url(#clip10)"><path d="M654.5 110.5 654.5 139.5M654.5 110.5 654.5 81.5001M651.5 139.5 657.5 139.5M651.5 81.5001 657.5 81.5001" stroke="#595959" stroke-linejoin="round" stroke-miterlimit="10" fill="none"/></g><g clip-path="url(#clip11)"><path d="M773.5 127.5 773.5 153.5M773.5 127.5 773.5 100.5M770.5 153.5 776.5 153.5M770.5 100.5 776.5 100.5" stroke="#595959" stroke-linejoin="round" stroke-miterlimit="10" fill="none"/></g><g clip-path="url(#clip12)"><path d="M892.5 154.5 892.5 182.5M892.5 154.5 892.5 127.5M889.5 182.5 895.5 182.5M889.5 127.5 895.5 127.5" stroke="#595959" stroke-linejoin="round" stroke-miterlimit="10" fill="none"/></g><g clip-path="url(#clip13)"><path d="M1011.5 134.5 1011.5 151.5M1011.5 134.5 1011.5 117.5M1008.5 151.5 1014.5 151.5M1008.5 117.5 1014.5 117.5" stroke="#595959" stroke-linejoin="round" stroke-miterlimit="10" fill="none"/></g><g clip-path="url(#clip14)"><path d="M319.5 215.5 319.5 260.5M319.5 215.5 319.5 171.5M316.5 260.5 322.5 260.5M316.5 171.5 322.5 171.5" stroke="#595959" stroke-linejoin="round" stroke-miterlimit="10" fill="none"/></g><g clip-path="url(#clip15)"><path d="M438.5 103.5 438.5 134.5M438.5 103.5 438.5 72.5001M435.5 134.5 441.5 134.5M435.5 72.5001 441.5 72.5001" stroke="#595959" stroke-linejoin="round" stroke-miterlimit="10" fill="none"/></g><g clip-path="url(#clip16)"><path d="M557.5 91.5001 557.5 141.5M557.5 91.5001 557.5 41.5001M554.5 141.5 560.5 141.5M554.5 41.5001 560.5 41.5001" stroke="#595959" stroke-linejoin="round" stroke-miterlimit="10" fill="none"/></g><g clip-path="url(#clip17)"><path d="M676.5 96.5001 676.5 127.5M676.5 96.5001 676.5 66.5001M673.5 127.5 679.5 127.5M673.5 66.5001 679.5 66.5001" stroke="#595959" stroke-linejoin="round" stroke-miterlimit="10" fill="none"/></g><g clip-path="url(#clip18)"><path d="M795.5 114.5 795.5 144.5M795.5 114.5 795.5 84.5001M792.5 144.5 798.5 144.5M792.5 84.5001 798.5 84.5001" stroke="#595959" stroke-linejoin="round" stroke-miterlimit="10" fill="none"/></g><g clip-path="url(#clip19)"><path d="M914.5 111.5 914.5 143.5M914.5 111.5 914.5 79.5001M911.5 143.5 917.5 143.5M911.5 79.5001 917.5 79.5001" stroke="#595959" stroke-linejoin="round" stroke-miterlimit="10" fill="none"/></g><g clip-path="url(#clip20)"><path d="M1033.5 102.5 1033.5 117.5M1033.5 102.5 1033.5 88.5001M1030.5 117.5 1036.5 117.5M1030.5 88.5001 1036.5 88.5001" stroke="#595959" stroke-linejoin="round" stroke-miterlimit="10" fill="none"/></g><g clip-path="url(#clip21)"><path d="M341.5 215.5 341.5 246.5M341.5 215.5 341.5 185.5M338.5 246.5 344.5 246.5M338.5 185.5 344.5 185.5" stroke="#595959" stroke-linejoin="round" stroke-miterlimit="10" fill="none"/></g><g clip-path="url(#clip22)"><path d="M460.5 103.5 460.5 134.5M460.5 103.5 460.5 73.5001M457.5 134.5 463.5 134.5M457.5 73.5001 463.5 73.5001" stroke="#595959" stroke-linejoin="round" stroke-miterlimit="10" fill="none"/></g><g clip-path="url(#clip23)"><path d="M579.5 112.5 579.5 137.5M579.5 112.5 579.5 86.5001M576.5 137.5 582.5 137.5M576.5 86.5001 582.5 86.5001" stroke="#595959" stroke-linejoin="round" stroke-miterlimit="10" fill="none"/></g><g clip-path="url(#clip24)"><path d="M698.5 96.5001 698.5 127.5M698.5 96.5001 698.5 66.5001M695.5 127.5 701.5 127.5M695.5 66.5001 701.5 66.5001" stroke="#595959" stroke-linejoin="round" stroke-miterlimit="10" fill="none"/></g><g clip-path="url(#clip25)"><path d="M816.5 114.5 816.5 141.5M816.5 114.5 816.5 87.5001M813.5 141.5 819.5 141.5M813.5 87.5001 819.5 87.5001" stroke="#595959" stroke-linejoin="round" stroke-miterlimit="10" fill="none"/></g><g clip-path="url(#clip26)"><path d="M935.5 115.5 935.5 148.5M935.5 115.5 935.5 82.5001M932.5 148.5 938.5 148.5M932.5 82.5001 938.5 82.5001" stroke="#595959" stroke-linejoin="round" stroke-miterlimit="10" fill="none"/></g><g clip-path="url(#clip27)"><path d="M1054.5 102.5 1054.5 122.5M1054.5 102.5 1054.5 83.5001M1051.5 122.5 1057.5 122.5M1051.5 83.5001 1057.5 83.5001" stroke="#595959" stroke-linejoin="round" stroke-miterlimit="10" fill="none"/></g><g clip-path="url(#clip28)"><path d="M363.5 262.5 363.5 291.5M363.5 262.5 363.5 233.5M360.5 291.5 366.5 291.5M360.5 233.5 366.5 233.5" stroke="#595959" stroke-linejoin="round" stroke-miterlimit="10" fill="none"/></g><g clip-path="url(#clip29)"><path d="M481.5 176.5 481.5 206.5M481.5 176.5 481.5 145.5M478.5 206.5 484.5 206.5M478.5 145.5 484.5 145.5" stroke="#595959" stroke-linejoin="round" stroke-miterlimit="10" fill="none"/></g><g clip-path="url(#clip30)"><path d="M600.5 192.5 600.5 213.5M600.5 192.5 600.5 170.5M597.5 213.5 603.5 213.5M597.5 170.5 603.5 170.5" stroke="#595959" stroke-linejoin="round" stroke-miterlimit="10" fill="none"/></g><g clip-path="url(#clip31)"><path d="M719.5 126.5 719.5 155.5M719.5 126.5 719.5 96.5001M716.5 155.5 722.5 155.5M716.5 96.5001 722.5 96.5001" stroke="#595959" stroke-linejoin="round" stroke-miterlimit="10" fill="none"/></g><g clip-path="url(#clip32)"><path d="M838.5 139.5 838.5 163.5M838.5 139.5 838.5 114.5M835.5 163.5 841.5 163.5M835.5 114.5 841.5 114.5" stroke="#595959" stroke-linejoin="round" stroke-miterlimit="10" fill="none"/></g><g clip-path="url(#clip33)"><path d="M957.5 134.5 957.5 164.5M957.5 134.5 957.5 103.5M954.5 164.5 960.5 164.5M954.5 103.5 960.5 103.5" stroke="#595959" stroke-linejoin="round" stroke-miterlimit="10" fill="none"/></g><g clip-path="url(#clip34)"><path d="M1076.5 157.5 1076.5 177.5M1076.5 157.5 1076.5 138.5M1073.5 177.5 1079.5 177.5M1073.5 138.5 1079.5 138.5" stroke="#595959" stroke-linejoin="round" stroke-miterlimit="10" fill="none"/></g><g clip-path="url(#clip35)"><path d="M271.5 612.5 1103.5 612.5" stroke="#D9D9D9" stroke-linejoin="round" stroke-miterlimit="10" fill="none" fill-rule="evenodd"/></g><g clip-path="url(#clip36)"><text fill="#595959" font-family="Arial,Arial_MSFontService,sans-serif" font-weight="400" font-size="24" transform="translate(237.245 620)">0</text></g><g clip-path="url(#clip37)"><text fill="#595959" font-family="Arial,Arial_MSFontService,sans-serif" font-weight="400" font-size="24" transform="translate(203.885 518)">0.05</text></g><g clip-path="url(#clip38)"><text fill="#595959" font-family="Arial,Arial_MSFontService,sans-serif" font-weight="400" font-size="24" transform="translate(217.231 416)">0.1</text></g><g clip-path="url(#clip39)"><text fill="#595959" font-family="Arial,Arial_MSFontService,sans-serif" font-weight="400" font-size="24" transform="translate(203.885 314)">0.15</text></g><g clip-path="url(#clip40)"><text fill="#595959" font-family="Arial,Arial_MSFontService,sans-serif" font-weight="400" font-size="24" transform="translate(217.231 212)">0.2</text></g><g clip-path="url(#clip41)"><text fill="#595959" font-family="Arial,Arial_MSFontService,sans-serif" font-weight="400" font-size="24" transform="translate(203.885 111)">0.25</text></g><g clip-path="url(#clip42)"><text fill="#595959" font-family="Arial,Arial_MSFontService,sans-serif" font-weight="400" font-size="24" transform="translate(217.231 9)">0.3</text></g><g clip-path="url(#clip43)"><text fill="#595959" font-family="Arial,Arial_MSFontService,sans-serif" font-weight="400" font-size="24" transform="translate(310.647 649)">400</text></g><g clip-path="url(#clip44)"><text fill="#595959" font-family="Arial,Arial_MSFontService,sans-serif" font-weight="400" font-size="24" transform="translate(429.499 649)">500</text></g><g clip-path="url(#clip45)"><text fill="#595959" font-family="Arial,Arial_MSFontService,sans-serif" font-weight="400" font-size="24" transform="translate(548.352 649)">600</text></g><g clip-path="url(#clip46)"><text fill="#595959" font-family="Arial,Arial_MSFontService,sans-serif" font-weight="400" font-size="24" transform="translate(667.205 649)">700</text></g><g clip-path="url(#clip47)"><text fill="#595959" font-family="Arial,Arial_MSFontService,sans-serif" font-weight="400" font-size="24" transform="translate(786.058 649)">800</text></g><g clip-path="url(#clip48)"><text fill="#595959" font-family="Arial,Arial_MSFontService,sans-serif" font-weight="400" font-size="24" transform="translate(904.911 649)">900</text></g><g clip-path="url(#clip49)"><text fill="#595959" font-family="Arial,Arial_MSFontService,sans-serif" font-weight="400" font-size="24" transform="translate(1017.09 649)">1000</text></g><g clip-path="url(#clip50)"><text fill="#595959" font-family="Arial,Arial_MSFontService,sans-serif" font-weight="400" font-size="27" transform="matrix(6.12323e-17 -1 1 6.12323e-17 194.218 424)">End to End delay(s)</text></g><g clip-path="url(#clip51)"><text fill="#595959" font-family="Arial,Arial_MSFontService,sans-serif" font-weight="400" font-size="27" transform="translate(588.042 688)">Number of Nodes</text></g><g clip-path="url(#clip52)"><rect x="303" y="704" width="12" height="12" fill="#5B9BD5"/></g><g clip-path="url(#clip53)"><g clip-path="url(#clip54)"><text fill="#595959" font-family="Arial,Arial_MSFontService,sans-serif" font-weight="400" font-size="24" transform="translate(320.463 717)">SIGO  </text></g></g><g clip-path="url(#clip55)"><g clip-path="url(#clip56)"><text fill="#595959" font-family="MS PGothic,MS PGothic_MSFontService,sans-serif" font-weight="400" font-size="24" transform="translate(393.803 717)">建物多</text></g></g><g clip-path="url(#clip57)"><rect x="493" y="704" width="12" height="12" fill="#ED7D31"/></g><g clip-path="url(#clip58)"><g clip-path="url(#clip59)"><text fill="#595959" font-family="Arial,Arial_MSFontService,sans-serif" font-weight="400" font-size="24" transform="translate(510.685 717)">LSGO   </text></g></g><g clip-path="url(#clip60)"><g clip-path="url(#clip61)"><text fill="#595959" font-family="MS PGothic,MS PGothic_MSFontService,sans-serif" font-weight="400" font-size="24" transform="translate(597.372 717)">建物多</text></g></g><g clip-path="url(#clip62)"><rect x="697" y="704" width="12" height="12" fill="#A5A5A5" fill-opacity="0.2"/></g><g clip-path="url(#clip63)"><g clip-path="url(#clip64)"><text fill="#595959" font-family="Arial,Arial_MSFontService,sans-serif" font-weight="400" font-size="24" transform="translate(714.253 717)">SIGO   </text></g></g><g clip-path="url(#clip65)"><g clip-path="url(#clip66)"><text fill="#595959" font-family="MS PGothic,MS PGothic_MSFontService,sans-serif" font-weight="400" font-size="24" transform="translate(794.26 717)">建物少</text></g></g><g clip-path="url(#clip67)"><rect x="894" y="704" width="12" height="12" fill="#FFC000" fill-opacity="0.2"/></g><g clip-path="url(#clip68)"><g clip-path="url(#clip69)"><text fill="#595959" font-family="Arial,Arial_MSFontService,sans-serif" font-weight="400" font-size="24" transform="translate(911.141 717)">LSGO  </text></g></g><g clip-path="url(#clip70)"><g clip-path="url(#clip71)"><text fill="#595959" font-family="MS PGothic,MS PGothic_MSFontService,sans-serif" font-weight="400" font-size="24" transform="translate(991.161 717)">建物少</text></g></g></g></svg>