<svg width="960" height="748" xmlns="http://www.w3.org/2000/svg" xmlns:xlink="http://www.w3.org/1999/xlink" overflow="hidden"><defs><clipPath id="clip0"><path d="M160-14 1120-14 1120 734 160 734Z" fill-rule="evenodd" clip-rule="evenodd"/></clipPath><clipPath id="clip1"><path d="M161-13 1118-13 1118 733 161 733Z" fill-rule="evenodd" clip-rule="evenodd"/></clipPath><clipPath id="clip2"><path d="M255 3 1103 3 1103 613 255 613Z" fill-rule="evenodd" clip-rule="evenodd"/></clipPath><clipPath id="clip3"><path d="M255 3 1103 3 1103 613 255 613Z" fill-rule="evenodd" clip-rule="evenodd"/></clipPath><clipPath id="clip4"><path d="M255 3 1103 3 1103 613 255 613Z" fill-rule="evenodd" clip-rule="evenodd"/></clipPath><clipPath id="clip5"><path d="M255 3 1103 3 1103 613 255 613Z" fill-rule="evenodd" clip-rule="evenodd"/></clipPath><clipPath id="clip6"><path d="M255 3 1103 3 1103 612 255 612Z" fill-rule="evenodd" clip-rule="evenodd"/></clipPath><clipPath id="clip7"><path d="M255 3 1103 3 1103 612 255 612Z" fill-rule="evenodd" clip-rule="evenodd"/></clipPath><clipPath id="clip8"><path d="M255 3 1103 3 1103 612 255 612Z" fill-rule="evenodd" clip-rule="evenodd"/></clipPath><clipPath id="clip9"><path d="M255 3 1103 3 1103 612 255 612Z" fill-rule="evenodd" clip-rule="evenodd"/></clipPath><clipPath id="clip10"><path d="M255 3 1103 3 1103 612 255 612Z" fill-rule="evenodd" clip-rule="evenodd"/></clipPath><clipPath id="clip11"><path d="M255 3 1103 3 1103 612 255 612Z" fill-rule="evenodd" clip-rule="evenodd"/></clipPath><clipPath id="clip12"><path d="M255 3 1103 3 1103 612 255 612Z" fill-rule="evenodd" clip-rule="evenodd"/></clipPath><clipPath id="clip13"><path d="M255 3 1103 3 1103 612 255 612Z" fill-rule="evenodd" clip-rule="evenodd"/></clipPath><clipPath id="clip14"><path d="M255 3 1103 3 1103 612 255 612Z" fill-rule="evenodd" clip-rule="evenodd"/></clipPath><clipPath id="clip15"><path d="M255 3 1103 3 1103 612 255 612Z" fill-rule="evenodd" clip-rule="evenodd"/></clipPath><clipPath id="clip16"><path d="M255 3 1103 3 1103 612 255 612Z" fill-rule="evenodd" clip-rule="evenodd"/></clipPath><clipPath id="clip17"><path d="M255 3 1103 3 1103 612 255 612Z" fill-rule="evenodd" clip-rule="evenodd"/></clipPath><clipPath id="clip18"><path d="M255 3 1103 3 1103 612 255 612Z" fill-rule="evenodd" clip-rule="evenodd"/></clipPath><clipPath id="clip19"><path d="M255 3 1103 3 1103 612 255 612Z" fill-rule="evenodd" clip-rule="evenodd"/></clipPath><clipPath id="clip20"><path d="M255 3 1103 3 1103 612 255 612Z" fill-rule="evenodd" clip-rule="evenodd"/></clipPath><clipPath id="clip21"><path d="M255 3 1103 3 1103 612 255 612Z" fill-rule="evenodd" clip-rule="evenodd"/></clipPath><clipPath id="clip22"><path d="M255 3 1103 3 1103 612 255 612Z" fill-rule="evenodd" clip-rule="evenodd"/></clipPath><clipPath id="clip23"><path d="M255 3 1103 3 1103 612 255 612Z" fill-rule="evenodd" clip-rule="evenodd"/></clipPath><clipPath id="clip24"><path d="M255 3 1103 3 1103 612 255 612Z" fill-rule="evenodd" clip-rule="evenodd"/></clipPath><clipPath id="clip25"><path d="M255 3 1103 3 1103 612 255 612Z" fill-rule="evenodd" clip-rule="evenodd"/></clipPath><clipPath id="clip26"><path d="M255 3 1103 3 1103 612 255 612Z" fill-rule="evenodd" clip-rule="evenodd"/></clipPath><clipPath id="clip27"><path d="M255 3 1103 3 1103 612 255 612Z" fill-rule="evenodd" clip-rule="evenodd"/></clipPath><clipPath id="clip28"><path d="M255 3 1103 3 1103 612 255 612Z" fill-rule="evenodd" clip-rule="evenodd"/></clipPath><clipPath id="clip29"><path d="M255 3 1103 3 1103 612 255 612Z" fill-rule="evenodd" clip-rule="evenodd"/></clipPath><clipPath id="clip30"><path d="M255 3 1103 3 1103 612 255 612Z" fill-rule="evenodd" clip-rule="evenodd"/></clipPath><clipPath id="clip31"><path d="M255 3 1103 3 1103 612 255 612Z" fill-rule="evenodd" clip-rule="evenodd"/></clipPath><clipPath id="clip32"><path d="M255 3 1103 3 1103 612 255 612Z" fill-rule="evenodd" clip-rule="evenodd"/></clipPath><clipPath id="clip33"><path d="M255 3 1103 3 1103 612 255 612Z" fill-rule="evenodd" clip-rule="evenodd"/></clipPath><clipPath id="clip34"><path d="M161-13 1118-13 1118 733 161 733Z" fill-rule="evenodd" clip-rule="evenodd"/></clipPath><clipPath id="clip35"><path d="M161-13 1118-13 1118 733 161 733Z" fill-rule="evenodd" clip-rule="evenodd"/></clipPath><clipPath id="clip36"><path d="M161-13 1118-13 1118 733 161 733Z" fill-rule="evenodd" clip-rule="evenodd"/></clipPath><clipPath id="clip37"><path d="M161-13 1118-13 1118 733 161 733Z" fill-rule="evenodd" clip-rule="evenodd"/></clipPath><clipPath id="clip38"><path d="M161-13 1118-13 1118 733 161 733Z" fill-rule="evenodd" clip-rule="evenodd"/></clipPath><clipPath id="clip39"><path d="M161-13 1118-13 1118 733 161 733Z" fill-rule="evenodd" clip-rule="evenodd"/></clipPath><clipPath id="clip40"><path d="M161-13 1118-13 1118 733 161 733Z" fill-rule="evenodd" clip-rule="evenodd"/></clipPath><clipPath id="clip41"><path d="M161-13 1118-13 1118 733 161 733Z" fill-rule="evenodd" clip-rule="evenodd"/></clipPath><clipPath id="clip42"><path d="M161-13 1118-13 1118 733 161 733Z" fill-rule="evenodd" clip-rule="evenodd"/></clipPath><clipPath id="clip43"><path d="M161-13 1118-13 1118 733 161 733Z" fill-rule="evenodd" clip-rule="evenodd"/></clipPath><clipPath id="clip44"><path d="M161-13 1118-13 1118 733 161 733Z" fill-rule="evenodd" clip-rule="evenodd"/></clipPath><clipPath id="clip45"><path d="M161-13 1118-13 1118 733 161 733Z" fill-rule="evenodd" clip-rule="evenodd"/></clipPath><clipPath id="clip46"><path d="M161-13 1118-13 1118 733 161 733Z" fill-rule="evenodd" clip-rule="evenodd"/></clipPath><clipPath id="clip47"><path d="M161-13 1118-13 1118 733 161 733Z" fill-rule="evenodd" clip-rule="evenodd"/></clipPath><clipPath id="clip48"><path d="M161-13 1118-13 1118 733 161 733Z" fill-rule="evenodd" clip-rule="evenodd"/></clipPath><clipPath id="clip49"><path d="M161-13 1118-13 1118 733 161 733Z" fill-rule="evenodd" clip-rule="evenodd"/></clipPath><clipPath id="clip50"><path d="M161-13 1118-13 1118 733 161 733Z" fill-rule="evenodd" clip-rule="evenodd"/></clipPath><clipPath id="clip51"><path d="M161-13 1118-13 1118 733 161 733Z" fill-rule="evenodd" clip-rule="evenodd"/></clipPath><clipPath id="clip52"><path d="M161-13 1118-13 1118 733 161 733Z" fill-rule="evenodd" clip-rule="evenodd"/></clipPath><clipPath id="clip53"><path d="M161-13 1118-13 1118 733 161 733Z" fill-rule="evenodd" clip-rule="evenodd"/></clipPath><clipPath id="clip54"><path d="M161-13 1118-13 1118 733 161 733Z" fill-rule="evenodd" clip-rule="evenodd"/></clipPath><clipPath id="clip55"><path d="M161-13 1118-13 1118 733 161 733Z" fill-rule="evenodd" clip-rule="evenodd"/></clipPath><clipPath id="clip56"><path d="M161-13 1118-13 1118 733 161 733Z" fill-rule="evenodd" clip-rule="evenodd"/></clipPath><clipPath id="clip57"><path d="M161-13 1118-13 1118 733 161 733Z" fill-rule="evenodd" clip-rule="evenodd"/></clipPath><clipPath id="clip58"><path d="M161-13 1118-13 1118 733 161 733Z" fill-rule="evenodd" clip-rule="evenodd"/></clipPath><clipPath id="clip59"><path d="M161-13 1118-13 1118 733 161 733Z" fill-rule="evenodd" clip-rule="evenodd"/></clipPath><clipPath id="clip60"><path d="M161-13 1118-13 1118 733 161 733Z" fill-rule="evenodd" clip-rule="evenodd"/></clipPath><clipPath id="clip61"><path d="M161-13 1118-13 1118 733 161 733Z" fill-rule="evenodd" clip-rule="evenodd"/></clipPath><clipPath id="clip62"><path d="M161-13 1118-13 1118 733 161 733Z" fill-rule="evenodd" clip-rule="evenodd"/></clipPath></defs><g clip-path="url(#clip0)" transform="translate(-160 14)"><g clip-path="url(#clip1)"><path d="M255.5 510.5 1102.5 510.5M255.5 409.5 1102.5 409.5M255.5 307.5 1102.5 307.5M255.5 206.5 1102.5 206.5M255.5 105.5 1102.5 105.5M255.5 3.50005 1102.5 3.50005" stroke="#D9D9D9" stroke-linejoin="round" stroke-miterlimit="10" fill="none"/></g><g clip-path="url(#clip2)"><path d="M274 137 292 137 292 612 274 612ZM395 117 413 117 413 612 395 612ZM517 236 534 236 534 612 517 612ZM638 163 655 163 655 612 638 612ZM759 239 776 239 776 612 759 612ZM880 203 897 203 897 612 880 612ZM1001 281 1018 281 1018 612 1001 612Z" fill="#5B9BD5"/></g><g clip-path="url(#clip3)"><path d="M296 147 314 147 314 612 296 612ZM417 92 435 92 435 612 417 612ZM539 215 556 215 556 612 539 612ZM660 216 677 216 677 612 660 612ZM781 218 798 218 798 612 781 612ZM902 167 919 167 919 612 902 612ZM1023 266 1040 266 1040 612 1023 612Z" fill="#ED7D31"/></g><g clip-path="url(#clip4)"><path d="M318 167 336 167 336 612 318 612ZM439 92 457 92 457 612 439 612ZM560 225 578 225 578 612 560 612ZM682 216 699 216 699 612 682 612ZM803 218 820 218 820 612 803 612ZM924 167 941 167 941 612 924 612ZM1045 266 1062 266 1062 612 1045 612Z" fill="#A5A5A5"/></g><g clip-path="url(#clip5)"><path d="M340 167 358 167 358 612 340 612ZM461 297 479 297 479 612 461 612ZM582 356 600 356 600 612 582 612ZM704 303 721 303 721 612 704 612ZM825 372 842 372 842 612 825 612ZM946 392 963 392 963 612 946 612ZM1067 358 1084 358 1084 612 1067 612Z" fill="#FFC000"/></g><g clip-path="url(#clip6)"><path d="M283.5 136.5 283.5 182.5M283.5 136.5 283.5 90.5001M280.5 182.5 286.5 182.5M280.5 90.5001 286.5 90.5001" stroke="#595959" stroke-linejoin="round" stroke-miterlimit="10" fill="none"/></g><g clip-path="url(#clip7)"><path d="M404.5 116.5 404.5 160.5M404.5 116.5 404.5 72.5001M401.5 160.5 407.5 160.5M401.5 72.5001 407.5 72.5001" stroke="#595959" stroke-linejoin="round" stroke-miterlimit="10" fill="none"/></g><g clip-path="url(#clip8)"><path d="M525.5 236.5 525.5 287.5M525.5 236.5 525.5 184.5M522.5 287.5 528.5 287.5M522.5 184.5 528.5 184.5" stroke="#595959" stroke-linejoin="round" stroke-miterlimit="10" fill="none"/></g><g clip-path="url(#clip9)"><path d="M646.5 162.5 646.5 215.5M646.5 162.5 646.5 109.5M643.5 215.5 649.5 215.5M643.5 109.5 649.5 109.5" stroke="#595959" stroke-linejoin="round" stroke-miterlimit="10" fill="none"/></g><g clip-path="url(#clip10)"><path d="M767.5 239.5 767.5 277.5M767.5 239.5 767.5 201.5M764.5 277.5 770.5 277.5M764.5 201.5 770.5 201.5" stroke="#595959" stroke-linejoin="round" stroke-miterlimit="10" fill="none"/></g><g clip-path="url(#clip11)"><path d="M888.5 202.5 888.5 242.5M888.5 202.5 888.5 163.5M885.5 242.5 891.5 242.5M885.5 163.5 891.5 163.5" stroke="#595959" stroke-linejoin="round" stroke-miterlimit="10" fill="none"/></g><g clip-path="url(#clip12)"><path d="M1009.5 280.5 1009.5 325.5M1009.5 280.5 1009.5 235.5M1006.5 325.5 1012.5 325.5M1006.5 235.5 1012.5 235.5" stroke="#595959" stroke-linejoin="round" stroke-miterlimit="10" fill="none"/></g><g clip-path="url(#clip13)"><path d="M305.5 146.5 305.5 192.5M305.5 146.5 305.5 100.5M302.5 192.5 308.5 192.5M302.5 100.5 308.5 100.5" stroke="#595959" stroke-linejoin="round" stroke-miterlimit="10" fill="none"/></g><g clip-path="url(#clip14)"><path d="M426.5 92.5001 426.5 144.5M426.5 92.5001 426.5 40.5001M423.5 144.5 429.5 144.5M423.5 40.5001 429.5 40.5001" stroke="#595959" stroke-linejoin="round" stroke-miterlimit="10" fill="none"/></g><g clip-path="url(#clip15)"><path d="M547.5 214.5 547.5 275.5M547.5 214.5 547.5 154.5M544.5 275.5 550.5 275.5M544.5 154.5 550.5 154.5" stroke="#595959" stroke-linejoin="round" stroke-miterlimit="10" fill="none"/></g><g clip-path="url(#clip16)"><path d="M668.5 216.5 668.5 267.5M668.5 216.5 668.5 165.5M665.5 267.5 671.5 267.5M665.5 165.5 671.5 165.5" stroke="#595959" stroke-linejoin="round" stroke-miterlimit="10" fill="none"/></g><g clip-path="url(#clip17)"><path d="M789.5 217.5 789.5 279.5M789.5 217.5 789.5 156.5M786.5 279.5 792.5 279.5M786.5 156.5 792.5 156.5" stroke="#595959" stroke-linejoin="round" stroke-miterlimit="10" fill="none"/></g><g clip-path="url(#clip18)"><path d="M910.5 166.5 910.5 213.5M910.5 166.5 910.5 120.5M907.5 213.5 913.5 213.5M907.5 120.5 913.5 120.5" stroke="#595959" stroke-linejoin="round" stroke-miterlimit="10" fill="none"/></g><g clip-path="url(#clip19)"><path d="M1031.5 265.5 1031.5 310.5M1031.5 265.5 1031.5 221.5M1028.5 310.5 1034.5 310.5M1028.5 221.5 1034.5 221.5" stroke="#595959" stroke-linejoin="round" stroke-miterlimit="10" fill="none"/></g><g clip-path="url(#clip20)"><path d="M326.5 167.5 326.5 218.5M326.5 167.5 326.5 115.5M323.5 218.5 329.5 218.5M323.5 115.5 329.5 115.5" stroke="#595959" stroke-linejoin="round" stroke-miterlimit="10" fill="none"/></g><g clip-path="url(#clip21)"><path d="M448.5 92.5001 448.5 109.5M448.5 92.5001 448.5 75.5001M445.5 109.5 451.5 109.5M445.5 75.5001 451.5 75.5001" stroke="#595959" stroke-linejoin="round" stroke-miterlimit="10" fill="none"/></g><g clip-path="url(#clip22)"><path d="M569.5 224.5 569.5 236.5M569.5 224.5 569.5 213.5M566.5 236.5 572.5 236.5M566.5 213.5 572.5 213.5" stroke="#595959" stroke-linejoin="round" stroke-miterlimit="10" fill="none"/></g><g clip-path="url(#clip23)"><path d="M690.5 216.5 690.5 235.5M690.5 216.5 690.5 196.5M687.5 235.5 693.5 235.5M687.5 196.5 693.5 196.5" stroke="#595959" stroke-linejoin="round" stroke-miterlimit="10" fill="none"/></g><g clip-path="url(#clip24)"><path d="M811.5 217.5 811.5 232.5M811.5 217.5 811.5 203.5M808.5 232.5 814.5 232.5M808.5 203.5 814.5 203.5" stroke="#595959" stroke-linejoin="round" stroke-miterlimit="10" fill="none"/></g><g clip-path="url(#clip25)"><path d="M932.5 166.5 932.5 180.5M932.5 166.5 932.5 153.5M929.5 180.5 935.5 180.5M929.5 153.5 935.5 153.5" stroke="#595959" stroke-linejoin="round" stroke-miterlimit="10" fill="none"/></g><g clip-path="url(#clip26)"><path d="M1053.5 265.5 1053.5 282.5M1053.5 265.5 1053.5 249.5M1050.5 282.5 1056.5 282.5M1050.5 249.5 1056.5 249.5" stroke="#595959" stroke-linejoin="round" stroke-miterlimit="10" fill="none"/></g><g clip-path="url(#clip27)"><path d="M348.5 167.5 348.5 216.5M348.5 167.5 348.5 118.5M345.5 216.5 351.5 216.5M345.5 118.5 351.5 118.5" stroke="#595959" stroke-linejoin="round" stroke-miterlimit="10" fill="none"/></g><g clip-path="url(#clip28)"><path d="M470.5 297.5 470.5 315.5M470.5 297.5 470.5 279.5M467.5 315.5 473.5 315.5M467.5 279.5 473.5 279.5" stroke="#595959" stroke-linejoin="round" stroke-miterlimit="10" fill="none"/></g><g clip-path="url(#clip29)"><path d="M591.5 356.5 591.5 372.5M591.5 356.5 591.5 339.5M588.5 372.5 594.5 372.5M588.5 339.5 594.5 339.5" stroke="#595959" stroke-linejoin="round" stroke-miterlimit="10" fill="none"/></g><g clip-path="url(#clip30)"><path d="M712.5 303.5 712.5 328.5M712.5 303.5 712.5 277.5M709.5 328.5 715.5 328.5M709.5 277.5 715.5 277.5" stroke="#595959" stroke-linejoin="round" stroke-miterlimit="10" fill="none"/></g><g clip-path="url(#clip31)"><path d="M833.5 372.5 833.5 389.5M833.5 372.5 833.5 355.5M830.5 389.5 836.5 389.5M830.5 355.5 836.5 355.5" stroke="#595959" stroke-linejoin="round" stroke-miterlimit="10" fill="none"/></g><g clip-path="url(#clip32)"><path d="M954.5 391.5 954.5 404.5M954.5 391.5 954.5 378.5M951.5 404.5 957.5 404.5M951.5 378.5 957.5 378.5" stroke="#595959" stroke-linejoin="round" stroke-miterlimit="10" fill="none"/></g><g clip-path="url(#clip33)"><path d="M1075.5 357.5 1075.5 375.5M1075.5 357.5 1075.5 340.5M1072.5 375.5 1078.5 375.5M1072.5 340.5 1078.5 340.5" stroke="#595959" stroke-linejoin="round" stroke-miterlimit="10" fill="none"/></g><g clip-path="url(#clip34)"><path d="M255.5 612.5 1102.5 612.5" stroke="#D9D9D9" stroke-linejoin="round" stroke-miterlimit="10" fill="none" fill-rule="evenodd"/></g><g clip-path="url(#clip35)"><text fill="#595959" font-family="Arial,Arial_MSFontService,sans-serif" font-weight="400" font-size="24" transform="translate(221.481 620)">0</text></g><g clip-path="url(#clip36)"><text fill="#595959" font-family="Arial,Arial_MSFontService,sans-serif" font-weight="400" font-size="24" transform="translate(208.134 519)">10</text></g><g clip-path="url(#clip37)"><text fill="#595959" font-family="Arial,Arial_MSFontService,sans-serif" font-weight="400" font-size="24" transform="translate(208.134 417)">20</text></g><g clip-path="url(#clip38)"><text fill="#595959" font-family="Arial,Arial_MSFontService,sans-serif" font-weight="400" font-size="24" transform="translate(208.134 316)">30</text></g><g clip-path="url(#clip39)"><text fill="#595959" font-family="Arial,Arial_MSFontService,sans-serif" font-weight="400" font-size="24" transform="translate(208.134 214)">40</text></g><g clip-path="url(#clip40)"><text fill="#595959" font-family="Arial,Arial_MSFontService,sans-serif" font-weight="400" font-size="24" transform="translate(208.134 113)">50</text></g><g clip-path="url(#clip41)"><text fill="#595959" font-family="Arial,Arial_MSFontService,sans-serif" font-weight="400" font-size="24" transform="translate(208.134 12)">60</text></g><g clip-path="url(#clip42)"><text fill="#595959" font-family="Arial,Arial_MSFontService,sans-serif" font-weight="400" font-size="24" transform="translate(295.993 649)">400</text></g><g clip-path="url(#clip43)"><text fill="#595959" font-family="Arial,Arial_MSFontService,sans-serif" font-weight="400" font-size="24" transform="translate(417.066 649)">500</text></g><g clip-path="url(#clip44)"><text fill="#595959" font-family="Arial,Arial_MSFontService,sans-serif" font-weight="400" font-size="24" transform="translate(538.138 649)">600</text></g><g clip-path="url(#clip45)"><text fill="#595959" font-family="Arial,Arial_MSFontService,sans-serif" font-weight="400" font-size="24" transform="translate(659.211 649)">700</text></g><g clip-path="url(#clip46)"><text fill="#595959" font-family="Arial,Arial_MSFontService,sans-serif" font-weight="400" font-size="24" transform="translate(780.284 649)">800</text></g><g clip-path="url(#clip47)"><text fill="#595959" font-family="Arial,Arial_MSFontService,sans-serif" font-weight="400" font-size="24" transform="translate(901.356 649)">900</text></g><g clip-path="url(#clip48)"><text fill="#595959" font-family="Arial,Arial_MSFontService,sans-serif" font-weight="400" font-size="24" transform="translate(1015.76 649)">1000</text></g><g clip-path="url(#clip49)"><text fill="#595959" font-family="Arial,Arial_MSFontService,sans-serif" font-weight="400" font-size="27" transform="matrix(6.12323e-17 -1 1 6.12323e-17 195.953 526)">Routing protocol overhead</text></g><g clip-path="url(#clip50)"><text fill="#595959" font-family="Arial,Arial_MSFontService,sans-serif" font-weight="400" font-size="27" transform="translate(591.693 681)">Number of Nodes</text></g><g clip-path="url(#clip51)"><rect x="252" y="702" width="13" height="12" fill="#5B9BD5"/></g><g clip-path="url(#clip52)"><text fill="#595959" font-family="Arial,Arial_MSFontService,sans-serif" font-weight="400" font-size="24" transform="translate(270.066 716)">SIGO  </text></g><g clip-path="url(#clip53)"><text fill="#595959" font-family="MS PGothic,MS PGothic_MSFontService,sans-serif" font-weight="400" font-size="24" transform="translate(343.406 716)">建物多</text></g><g clip-path="url(#clip54)"><rect x="450" y="702" width="12" height="12" fill="#ED7D31"/></g><g clip-path="url(#clip55)"><text fill="#595959" font-family="Arial,Arial_MSFontService,sans-serif" font-weight="400" font-size="24" transform="translate(467.721 716)">LSGO   </text></g><g clip-path="url(#clip56)"><text fill="#595959" font-family="MS PGothic,MS PGothic_MSFontService,sans-serif" font-weight="400" font-size="24" transform="translate(554.408 716)">建物多</text></g><g clip-path="url(#clip57)"><rect x="661" y="702" width="12" height="12" fill="#A5A5A5"/></g><g clip-path="url(#clip58)"><text fill="#595959" font-family="Arial,Arial_MSFontService,sans-serif" font-weight="400" font-size="24" transform="translate(678.723 716)">SIGO   </text></g><g clip-path="url(#clip59)"><text fill="#595959" font-family="MS PGothic,MS PGothic_MSFontService,sans-serif" font-weight="400" font-size="24" transform="translate(758.73 716)">建物少</text></g><g clip-path="url(#clip60)"><rect x="865" y="702" width="13" height="12" fill="#FFC000"/></g><g clip-path="url(#clip61)"><text fill="#595959" font-family="Arial,Arial_MSFontService,sans-serif" font-weight="400" font-size="24" transform="translate(883.045 716)">LSGO  </text></g><g clip-path="url(#clip62)"><text fill="#595959" font-family="MS PGothic,MS PGothic_MSFontService,sans-serif" font-weight="400" font-size="24" transform="translate(963.065 716)">建物少</text></g></g></svg>