<svg width="962" height="750" xmlns="http://www.w3.org/2000/svg" xmlns:xlink="http://www.w3.org/1999/xlink" overflow="hidden"><defs><clipPath id="clip0"><path d="M159-15 1121-15 1121 735 159 735Z" fill-rule="evenodd" clip-rule="evenodd"/></clipPath><clipPath id="clip1"><path d="M159-14 1120-14 1120 734 159 734Z" fill-rule="evenodd" clip-rule="evenodd"/></clipPath><clipPath id="clip2"><path d="M282 0 1120 0 1120 615 282 615Z" fill-rule="evenodd" clip-rule="evenodd"/></clipPath><clipPath id="clip3"><path d="M282 0 1120 0 1120 615 282 615Z" fill-rule="evenodd" clip-rule="evenodd"/></clipPath><clipPath id="clip4"><path d="M282 0 1120 0 1120 615 282 615Z" fill-rule="evenodd" clip-rule="evenodd"/></clipPath><clipPath id="clip5"><path d="M282 0 1120 0 1120 615 282 615Z" fill-rule="evenodd" clip-rule="evenodd"/></clipPath><clipPath id="clip6"><path d="M282 0 1120 0 1120 614 282 614Z" fill-rule="evenodd" clip-rule="evenodd"/></clipPath><clipPath id="clip7"><path d="M282 0 1120 0 1120 614 282 614Z" fill-rule="evenodd" clip-rule="evenodd"/></clipPath><clipPath id="clip8"><path d="M282 0 1120 0 1120 614 282 614Z" fill-rule="evenodd" clip-rule="evenodd"/></clipPath><clipPath id="clip9"><path d="M282 0 1120 0 1120 614 282 614Z" fill-rule="evenodd" clip-rule="evenodd"/></clipPath><clipPath id="clip10"><path d="M282 0 1120 0 1120 614 282 614Z" fill-rule="evenodd" clip-rule="evenodd"/></clipPath><clipPath id="clip11"><path d="M282 0 1120 0 1120 614 282 614Z" fill-rule="evenodd" clip-rule="evenodd"/></clipPath><clipPath id="clip12"><path d="M282 0 1120 0 1120 614 282 614Z" fill-rule="evenodd" clip-rule="evenodd"/></clipPath><clipPath id="clip13"><path d="M282 0 1120 0 1120 614 282 614Z" fill-rule="evenodd" clip-rule="evenodd"/></clipPath><clipPath id="clip14"><path d="M282 0 1120 0 1120 614 282 614Z" fill-rule="evenodd" clip-rule="evenodd"/></clipPath><clipPath id="clip15"><path d="M282 0 1120 0 1120 614 282 614Z" fill-rule="evenodd" clip-rule="evenodd"/></clipPath><clipPath id="clip16"><path d="M282 0 1120 0 1120 614 282 614Z" fill-rule="evenodd" clip-rule="evenodd"/></clipPath><clipPath id="clip17"><path d="M282 0 1120 0 1120 614 282 614Z" fill-rule="evenodd" clip-rule="evenodd"/></clipPath><clipPath id="clip18"><path d="M282 0 1120 0 1120 614 282 614Z" fill-rule="evenodd" clip-rule="evenodd"/></clipPath><clipPath id="clip19"><path d="M282 0 1120 0 1120 614 282 614Z" fill-rule="evenodd" clip-rule="evenodd"/></clipPath><clipPath id="clip20"><path d="M282 0 1120 0 1120 614 282 614Z" fill-rule="evenodd" clip-rule="evenodd"/></clipPath><clipPath id="clip21"><path d="M282 0 1120 0 1120 614 282 614Z" fill-rule="evenodd" clip-rule="evenodd"/></clipPath><clipPath id="clip22"><path d="M282 0 1120 0 1120 614 282 614Z" fill-rule="evenodd" clip-rule="evenodd"/></clipPath><clipPath id="clip23"><path d="M282 0 1120 0 1120 614 282 614Z" fill-rule="evenodd" clip-rule="evenodd"/></clipPath><clipPath id="clip24"><path d="M282 0 1120 0 1120 614 282 614Z" fill-rule="evenodd" clip-rule="evenodd"/></clipPath><clipPath id="clip25"><path d="M282 0 1120 0 1120 614 282 614Z" fill-rule="evenodd" clip-rule="evenodd"/></clipPath><clipPath id="clip26"><path d="M282 0 1120 0 1120 614 282 614Z" fill-rule="evenodd" clip-rule="evenodd"/></clipPath><clipPath id="clip27"><path d="M282 0 1120 0 1120 614 282 614Z" fill-rule="evenodd" clip-rule="evenodd"/></clipPath><clipPath id="clip28"><path d="M282 0 1120 0 1120 614 282 614Z" fill-rule="evenodd" clip-rule="evenodd"/></clipPath><clipPath id="clip29"><path d="M282 0 1120 0 1120 614 282 614Z" fill-rule="evenodd" clip-rule="evenodd"/></clipPath><clipPath id="clip30"><path d="M282 0 1120 0 1120 614 282 614Z" fill-rule="evenodd" clip-rule="evenodd"/></clipPath><clipPath id="clip31"><path d="M282 0 1120 0 1120 614 282 614Z" fill-rule="evenodd" clip-rule="evenodd"/></clipPath><clipPath id="clip32"><path d="M282 0 1120 0 1120 614 282 614Z" fill-rule="evenodd" clip-rule="evenodd"/></clipPath><clipPath id="clip33"><path d="M282 0 1120 0 1120 614 282 614Z" fill-rule="evenodd" clip-rule="evenodd"/></clipPath><clipPath id="clip34"><path d="M159-14 1120-14 1120 734 159 734Z" fill-rule="evenodd" clip-rule="evenodd"/></clipPath><clipPath id="clip35"><path d="M159-14 1120-14 1120 734 159 734Z" fill-rule="evenodd" clip-rule="evenodd"/></clipPath><clipPath id="clip36"><path d="M159-14 1120-14 1120 734 159 734Z" fill-rule="evenodd" clip-rule="evenodd"/></clipPath><clipPath id="clip37"><path d="M159-14 1120-14 1120 734 159 734Z" fill-rule="evenodd" clip-rule="evenodd"/></clipPath><clipPath id="clip38"><path d="M159-14 1120-14 1120 734 159 734Z" fill-rule="evenodd" clip-rule="evenodd"/></clipPath><clipPath id="clip39"><path d="M159-14 1120-14 1120 734 159 734Z" fill-rule="evenodd" clip-rule="evenodd"/></clipPath><clipPath id="clip40"><path d="M159-14 1120-14 1120 734 159 734Z" fill-rule="evenodd" clip-rule="evenodd"/></clipPath><clipPath id="clip41"><path d="M159-14 1120-14 1120 734 159 734Z" fill-rule="evenodd" clip-rule="evenodd"/></clipPath><clipPath id="clip42"><path d="M159-14 1120-14 1120 734 159 734Z" fill-rule="evenodd" clip-rule="evenodd"/></clipPath><clipPath id="clip43"><path d="M159-14 1120-14 1120 734 159 734Z" fill-rule="evenodd" clip-rule="evenodd"/></clipPath><clipPath id="clip44"><path d="M159-14 1120-14 1120 734 159 734Z" fill-rule="evenodd" clip-rule="evenodd"/></clipPath><clipPath id="clip45"><path d="M159-14 1120-14 1120 734 159 734Z" fill-rule="evenodd" clip-rule="evenodd"/></clipPath><clipPath id="clip46"><path d="M159-14 1120-14 1120 734 159 734Z" fill-rule="evenodd" clip-rule="evenodd"/></clipPath><clipPath id="clip47"><path d="M159-14 1120-14 1120 734 159 734Z" fill-rule="evenodd" clip-rule="evenodd"/></clipPath><clipPath id="clip48"><path d="M159-14 1120-14 1120 734 159 734Z" fill-rule="evenodd" clip-rule="evenodd"/></clipPath><clipPath id="clip49"><path d="M159-14 1120-14 1120 734 159 734Z" fill-rule="evenodd" clip-rule="evenodd"/></clipPath><clipPath id="clip50"><path d="M159-14 1120-14 1120 734 159 734Z" fill-rule="evenodd" clip-rule="evenodd"/></clipPath><clipPath id="clip51"><path d="M159-14 1120-14 1120 734 159 734Z" fill-rule="evenodd" clip-rule="evenodd"/></clipPath><clipPath id="clip52"><path d="M159-14 1120-14 1120 734 159 734Z" fill-rule="evenodd" clip-rule="evenodd"/></clipPath><clipPath id="clip53"><path d="M159-14 1120-14 1120 734 159 734Z" fill-rule="evenodd" clip-rule="evenodd"/></clipPath><clipPath id="clip54"><path d="M159-14 1120-14 1120 734 159 734Z" fill-rule="evenodd" clip-rule="evenodd"/></clipPath><clipPath id="clip55"><path d="M159-14 1120-14 1120 734 159 734Z" fill-rule="evenodd" clip-rule="evenodd"/></clipPath><clipPath id="clip56"><path d="M-98 689 920 689 920 727-98 727Z" fill-rule="evenodd" clip-rule="evenodd"/></clipPath><clipPath id="clip57"><path d="M159-14 1120-14 1120 734 159 734Z" fill-rule="evenodd" clip-rule="evenodd"/></clipPath><clipPath id="clip58"><path d="M-98 689 920 689 920 727-98 727Z" fill-rule="evenodd" clip-rule="evenodd"/></clipPath><clipPath id="clip59"><path d="M159-14 1120-14 1120 734 159 734Z" fill-rule="evenodd" clip-rule="evenodd"/></clipPath><clipPath id="clip60"><path d="M159-14 1120-14 1120 734 159 734Z" fill-rule="evenodd" clip-rule="evenodd"/></clipPath><clipPath id="clip61"><path d="M40 689 1151 689 1151 727 40 727Z" fill-rule="evenodd" clip-rule="evenodd"/></clipPath><clipPath id="clip62"><path d="M159-14 1120-14 1120 734 159 734Z" fill-rule="evenodd" clip-rule="evenodd"/></clipPath><clipPath id="clip63"><path d="M40 689 1151 689 1151 727 40 727Z" fill-rule="evenodd" clip-rule="evenodd"/></clipPath><clipPath id="clip64"><path d="M159-14 1120-14 1120 734 159 734Z" fill-rule="evenodd" clip-rule="evenodd"/></clipPath><clipPath id="clip65"><path d="M159-14 1120-14 1120 734 159 734Z" fill-rule="evenodd" clip-rule="evenodd"/></clipPath><clipPath id="clip66"><path d="M251 689 1316 689 1316 727 251 727Z" fill-rule="evenodd" clip-rule="evenodd"/></clipPath><clipPath id="clip67"><path d="M159-14 1120-14 1120 734 159 734Z" fill-rule="evenodd" clip-rule="evenodd"/></clipPath><clipPath id="clip68"><path d="M251 689 1316 689 1316 727 251 727Z" fill-rule="evenodd" clip-rule="evenodd"/></clipPath><clipPath id="clip69"><path d="M159-14 1120-14 1120 734 159 734Z" fill-rule="evenodd" clip-rule="evenodd"/></clipPath><clipPath id="clip70"><path d="M159-14 1120-14 1120 734 159 734Z" fill-rule="evenodd" clip-rule="evenodd"/></clipPath><clipPath id="clip71"><path d="M436 689 1501 689 1501 727 436 727Z" fill-rule="evenodd" clip-rule="evenodd"/></clipPath><clipPath id="clip72"><path d="M159-14 1120-14 1120 734 159 734Z" fill-rule="evenodd" clip-rule="evenodd"/></clipPath><clipPath id="clip73"><path d="M436 689 1501 689 1501 727 436 727Z" fill-rule="evenodd" clip-rule="evenodd"/></clipPath></defs><g clip-path="url(#clip0)" transform="translate(-159 15)"><g clip-path="url(#clip1)"><path d="M282.5 546.5 1119.5 546.5M282.5 477.5 1119.5 477.5M282.5 409.5 1119.5 409.5M282.5 341.5 1119.5 341.5M282.5 273.5 1119.5 273.5M282.5 204.5 1119.5 204.5M282.5 136.5 1119.5 136.5M282.5 68.5 1119.5 68.5M282.5-0.500053 1119.5-0.500053" stroke="#D9D9D9" stroke-linejoin="round" stroke-miterlimit="10" fill="none"/></g><g clip-path="url(#clip2)"><path d="M302 575 319 575 319 615 302 615ZM421 460 438 460 438 615 421 615ZM541 246 558 246 558 615 541 615ZM660 177 677 177 677 615 660 615ZM780 142 797 142 797 615 780 615ZM899 206 916 206 916 615 899 615ZM1019 135 1036 135 1036 615 1019 615Z" fill="#5B9BD5" fill-opacity="0.2"/></g><g clip-path="url(#clip3)"><path d="M323 575 340 575 340 615 323 615ZM443 467 460 467 460 615 443 615ZM562 259 579 259 579 615 562 615ZM682 184 699 184 699 615 682 615ZM801 162 818 162 818 615 801 615ZM921 220 938 220 938 615 921 615ZM1040 149 1057 149 1057 615 1040 615Z" fill="#ED7D31" fill-opacity="0.2"/></g><g clip-path="url(#clip4)"><path d="M345 524 362 524 362 615 345 615ZM464 287 482 287 482 615 464 615ZM584 225 601 225 601 615 584 615ZM703 176 721 176 721 615 703 615ZM823 108 840 108 840 615 823 615ZM943 156 960 156 960 615 943 615ZM1062 120 1079 120 1079 615 1062 615Z" fill="#A5A5A5"/></g><g clip-path="url(#clip5)"><path d="M367 524 384 524 384 615 367 615ZM486 287 503 287 503 615 486 615ZM606 239 623 239 623 615 606 615ZM725 169 742 169 742 615 725 615ZM845 108 862 108 862 615 845 615ZM964 190 981 190 981 615 964 615ZM1084 134 1101 134 1101 615 1084 615Z" fill="#FFC000"/></g><g clip-path="url(#clip6)"><path d="M310.5 575.5 310.5 611.5M310.5 575.5 310.5 538.5M307.5 611.5 313.5 611.5M307.5 538.5 313.5 538.5" stroke="#595959" stroke-linejoin="round" stroke-miterlimit="10" fill="none"/></g><g clip-path="url(#clip7)"><path d="M429.5 460.5 429.5 486.5M429.5 460.5 429.5 434.5M426.5 486.5 432.5 486.5M426.5 434.5 432.5 434.5" stroke="#595959" stroke-linejoin="round" stroke-miterlimit="10" fill="none"/></g><g clip-path="url(#clip8)"><path d="M549.5 245.5 549.5 283.5M549.5 245.5 549.5 208.5M546.5 283.5 552.5 283.5M546.5 208.5 552.5 208.5" stroke="#595959" stroke-linejoin="round" stroke-miterlimit="10" fill="none"/></g><g clip-path="url(#clip9)"><path d="M668.5 177.5 668.5 214.5M668.5 177.5 668.5 140.5M665.5 214.5 671.5 214.5M665.5 140.5 671.5 140.5" stroke="#595959" stroke-linejoin="round" stroke-miterlimit="10" fill="none"/></g><g clip-path="url(#clip10)"><path d="M788.5 141.5 788.5 197.5M788.5 141.5 788.5 85.5001M785.5 197.5 791.5 197.5M785.5 85.5001 791.5 85.5001" stroke="#595959" stroke-linejoin="round" stroke-miterlimit="10" fill="none"/></g><g clip-path="url(#clip11)"><path d="M907.5 206.5 907.5 244.5M907.5 206.5 907.5 168.5M904.5 244.5 910.5 244.5M904.5 168.5 910.5 168.5" stroke="#595959" stroke-linejoin="round" stroke-miterlimit="10" fill="none"/></g><g clip-path="url(#clip12)"><path d="M1027.5 135.5 1027.5 169.5M1027.5 135.5 1027.5 100.5M1024.5 169.5 1030.5 169.5M1024.5 100.5 1030.5 100.5" stroke="#595959" stroke-linejoin="round" stroke-miterlimit="10" fill="none"/></g><g clip-path="url(#clip13)"><path d="M331.5 575.5 331.5 611.5M331.5 575.5 331.5 538.5M328.5 611.5 334.5 611.5M328.5 538.5 334.5 538.5" stroke="#595959" stroke-linejoin="round" stroke-miterlimit="10" fill="none"/></g><g clip-path="url(#clip14)"><path d="M451.5 467.5 451.5 490.5M451.5 467.5 451.5 443.5M448.5 490.5 454.5 490.5M448.5 443.5 454.5 443.5" stroke="#595959" stroke-linejoin="round" stroke-miterlimit="10" fill="none"/></g><g clip-path="url(#clip15)"><path d="M570.5 259.5 570.5 294.5M570.5 259.5 570.5 223.5M567.5 294.5 573.5 294.5M567.5 223.5 573.5 223.5" stroke="#595959" stroke-linejoin="round" stroke-miterlimit="10" fill="none"/></g><g clip-path="url(#clip16)"><path d="M690.5 184.5 690.5 220.5M690.5 184.5 690.5 148.5M687.5 220.5 693.5 220.5M687.5 148.5 693.5 148.5" stroke="#595959" stroke-linejoin="round" stroke-miterlimit="10" fill="none"/></g><g clip-path="url(#clip17)"><path d="M809.5 162.5 809.5 213.5M809.5 162.5 809.5 110.5M806.5 213.5 812.5 213.5M806.5 110.5 812.5 110.5" stroke="#595959" stroke-linejoin="round" stroke-miterlimit="10" fill="none"/></g><g clip-path="url(#clip18)"><path d="M929.5 219.5 929.5 258.5M929.5 219.5 929.5 180.5M926.5 258.5 932.5 258.5M926.5 180.5 932.5 180.5" stroke="#595959" stroke-linejoin="round" stroke-miterlimit="10" fill="none"/></g><g clip-path="url(#clip19)"><path d="M1048.5 148.5 1048.5 187.5M1048.5 148.5 1048.5 110.5M1045.5 187.5 1051.5 187.5M1045.5 110.5 1051.5 110.5" stroke="#595959" stroke-linejoin="round" stroke-miterlimit="10" fill="none"/></g><g clip-path="url(#clip20)"><path d="M353.5 524.5 353.5 560.5M353.5 524.5 353.5 487.5M350.5 560.5 356.5 560.5M350.5 487.5 356.5 487.5" stroke="#595959" stroke-linejoin="round" stroke-miterlimit="10" fill="none"/></g><g clip-path="url(#clip21)"><path d="M472.5 286.5 472.5 311.5M472.5 286.5 472.5 261.5M469.5 311.5 475.5 311.5M469.5 261.5 475.5 261.5" stroke="#595959" stroke-linejoin="round" stroke-miterlimit="10" fill="none"/></g><g clip-path="url(#clip22)"><path d="M592.5 225.5 592.5 254.5M592.5 225.5 592.5 196.5M589.5 254.5 595.5 254.5M589.5 196.5 595.5 196.5" stroke="#595959" stroke-linejoin="round" stroke-miterlimit="10" fill="none"/></g><g clip-path="url(#clip23)"><path d="M712.5 175.5 712.5 225.5M712.5 175.5 712.5 126.5M709.5 225.5 715.5 225.5M709.5 126.5 715.5 126.5" stroke="#595959" stroke-linejoin="round" stroke-miterlimit="10" fill="none"/></g><g clip-path="url(#clip24)"><path d="M831.5 107.5 831.5 157.5M831.5 107.5 831.5 58.5001M828.5 157.5 834.5 157.5M828.5 58.5001 834.5 58.5001" stroke="#595959" stroke-linejoin="round" stroke-miterlimit="10" fill="none"/></g><g clip-path="url(#clip25)"><path d="M951.5 155.5 951.5 192.5M951.5 155.5 951.5 119.5M948.5 192.5 954.5 192.5M948.5 119.5 954.5 119.5" stroke="#595959" stroke-linejoin="round" stroke-miterlimit="10" fill="none"/></g><g clip-path="url(#clip26)"><path d="M1070.5 120.5 1070.5 175.5M1070.5 120.5 1070.5 64.5001M1067.5 175.5 1073.5 175.5M1067.5 64.5001 1073.5 64.5001" stroke="#595959" stroke-linejoin="round" stroke-miterlimit="10" fill="none"/></g><g clip-path="url(#clip27)"><path d="M375.5 524.5 375.5 560.5M375.5 524.5 375.5 490.5M372.5 560.5 378.5 560.5M372.5 490.5 378.5 490.5" stroke="#595959" stroke-linejoin="round" stroke-miterlimit="10" fill="none"/></g><g clip-path="url(#clip28)"><path d="M494.5 286.5 494.5 311.5M494.5 286.5 494.5 249.5M491.5 311.5 497.5 311.5M491.5 249.5 497.5 249.5" stroke="#595959" stroke-linejoin="round" stroke-miterlimit="10" fill="none"/></g><g clip-path="url(#clip29)"><path d="M614.5 238.5 614.5 266.5M614.5 238.5 614.5 213.5M611.5 266.5 617.5 266.5M611.5 213.5 617.5 213.5" stroke="#595959" stroke-linejoin="round" stroke-miterlimit="10" fill="none"/></g><g clip-path="url(#clip30)"><path d="M733.5 169.5 733.5 224.5M733.5 169.5 733.5 141.5M730.5 224.5 736.5 224.5M730.5 141.5 736.5 141.5" stroke="#595959" stroke-linejoin="round" stroke-miterlimit="10" fill="none"/></g><g clip-path="url(#clip31)"><path d="M853.5 107.5 853.5 161.5M853.5 107.5 853.5 51.5001M850.5 161.5 856.5 161.5M850.5 51.5001 856.5 51.5001" stroke="#595959" stroke-linejoin="round" stroke-miterlimit="10" fill="none"/></g><g clip-path="url(#clip32)"><path d="M972.5 189.5 972.5 229.5M972.5 189.5 972.5 135.5M969.5 229.5 975.5 229.5M969.5 135.5 975.5 135.5" stroke="#595959" stroke-linejoin="round" stroke-miterlimit="10" fill="none"/></g><g clip-path="url(#clip33)"><path d="M1092.5 133.5 1092.5 189.5M1092.5 133.5 1092.5 93.5001M1089.5 189.5 1095.5 189.5M1089.5 93.5001 1095.5 93.5001" stroke="#595959" stroke-linejoin="round" stroke-miterlimit="10" fill="none"/></g><g clip-path="url(#clip34)"><path d="M282.5 614.5 1119.5 614.5" stroke="#D9D9D9" stroke-linejoin="round" stroke-miterlimit="10" fill="none" fill-rule="evenodd"/></g><g clip-path="url(#clip35)"><text fill="#595959" font-family="Arial,Arial_MSFontService,sans-serif" font-weight="400" font-size="24" transform="translate(215.536 623)">0.25</text></g><g clip-path="url(#clip36)"><text fill="#595959" font-family="Arial,Arial_MSFontService,sans-serif" font-weight="400" font-size="24" transform="translate(228.882 554)">0.3</text></g><g clip-path="url(#clip37)"><text fill="#595959" font-family="Arial,Arial_MSFontService,sans-serif" font-weight="400" font-size="24" transform="translate(215.536 486)">0.35</text></g><g clip-path="url(#clip38)"><text fill="#595959" font-family="Arial,Arial_MSFontService,sans-serif" font-weight="400" font-size="24" transform="translate(228.882 418)">0.4</text></g><g clip-path="url(#clip39)"><text fill="#595959" font-family="Arial,Arial_MSFontService,sans-serif" font-weight="400" font-size="24" transform="translate(215.536 349)">0.45</text></g><g clip-path="url(#clip40)"><text fill="#595959" font-family="Arial,Arial_MSFontService,sans-serif" font-weight="400" font-size="24" transform="translate(228.882 281)">0.5</text></g><g clip-path="url(#clip41)"><text fill="#595959" font-family="Arial,Arial_MSFontService,sans-serif" font-weight="400" font-size="24" transform="translate(215.536 213)">0.55</text></g><g clip-path="url(#clip42)"><text fill="#595959" font-family="Arial,Arial_MSFontService,sans-serif" font-weight="400" font-size="24" transform="translate(228.882 144)">0.6</text></g><g clip-path="url(#clip43)"><text fill="#595959" font-family="Arial,Arial_MSFontService,sans-serif" font-weight="400" font-size="24" transform="translate(215.536 76)">0.65</text></g><g clip-path="url(#clip44)"><text fill="#595959" font-family="Arial,Arial_MSFontService,sans-serif" font-weight="400" font-size="24" transform="translate(228.882 8)">0.7</text></g><g clip-path="url(#clip45)"><text fill="#595959" font-family="Arial,Arial_MSFontService,sans-serif" font-weight="400" font-size="24" transform="translate(322.627 651)">400</text></g><g clip-path="url(#clip46)"><text fill="#595959" font-family="Arial,Arial_MSFontService,sans-serif" font-weight="400" font-size="24" transform="translate(442.137 651)">500</text></g><g clip-path="url(#clip47)"><text fill="#595959" font-family="Arial,Arial_MSFontService,sans-serif" font-weight="400" font-size="24" transform="translate(561.648 651)">600</text></g><g clip-path="url(#clip48)"><text fill="#595959" font-family="Arial,Arial_MSFontService,sans-serif" font-weight="400" font-size="24" transform="translate(681.158 651)">700</text></g><g clip-path="url(#clip49)"><text fill="#595959" font-family="Arial,Arial_MSFontService,sans-serif" font-weight="400" font-size="24" transform="translate(800.668 651)">800</text></g><g clip-path="url(#clip50)"><text fill="#595959" font-family="Arial,Arial_MSFontService,sans-serif" font-weight="400" font-size="24" transform="translate(920.179 651)">900</text></g><g clip-path="url(#clip51)"><text fill="#595959" font-family="Arial,Arial_MSFontService,sans-serif" font-weight="400" font-size="24" transform="translate(1033.02 651)">1000</text></g><g clip-path="url(#clip52)"><text fill="#595959" font-family="Arial,Arial_MSFontService,sans-serif" font-weight="400" font-size="27" transform="matrix(6.12323e-17 -1 1 6.12323e-17 205.869 427)">Packet delivery ratio</text></g><g clip-path="url(#clip53)"><text fill="#595959" font-family="Arial,Arial_MSFontService,sans-serif" font-weight="400" font-size="27" transform="translate(637.504 687)">Number of  Nodes</text></g><g clip-path="url(#clip54)"><rect x="321" y="702" width="12" height="12" fill="#5B9BD5" fill-opacity="0.2"/></g><g clip-path="url(#clip55)"><g clip-path="url(#clip56)"><text fill="#595959" font-family="Arial,Arial_MSFontService,sans-serif" font-weight="400" font-size="24" transform="translate(338.122 716)">SIGO  </text></g></g><g clip-path="url(#clip57)"><g clip-path="url(#clip58)"><text fill="#595959" font-family="MS PGothic,MS PGothic_MSFontService,sans-serif" font-weight="400" font-size="24" transform="translate(411.462 716)">建物多</text></g></g><g clip-path="url(#clip59)"><rect x="499" y="702" width="12" height="12" fill="#ED7D31" fill-opacity="0.2"/></g><g clip-path="url(#clip60)"><g clip-path="url(#clip61)"><text fill="#595959" font-family="Arial,Arial_MSFontService,sans-serif" font-weight="400" font-size="24" transform="translate(516.169 716)">LSGO   </text></g></g><g clip-path="url(#clip62)"><g clip-path="url(#clip63)"><text fill="#595959" font-family="MS PGothic,MS PGothic_MSFontService,sans-serif" font-weight="400" font-size="24" transform="translate(602.855 716)">建物多</text></g></g><g clip-path="url(#clip64)"><rect x="690" y="702" width="12" height="12" fill="#A5A5A5"/></g><g clip-path="url(#clip65)"><g clip-path="url(#clip66)"><text fill="#595959" font-family="Arial,Arial_MSFontService,sans-serif" font-weight="400" font-size="24" transform="translate(707.562 716)">SIGO   </text></g></g><g clip-path="url(#clip67)"><g clip-path="url(#clip68)"><text fill="#595959" font-family="MS PGothic,MS PGothic_MSFontService,sans-serif" font-weight="400" font-size="24" transform="translate(787.569 716)">建物少</text></g></g><g clip-path="url(#clip69)"><rect x="875" y="702" width="12" height="12" fill="#FFC000"/></g><g clip-path="url(#clip70)"><g clip-path="url(#clip71)"><text fill="#595959" font-family="Arial,Arial_MSFontService,sans-serif" font-weight="400" font-size="24" transform="translate(892.276 716)">LSGO  </text></g></g><g clip-path="url(#clip72)"><g clip-path="url(#clip73)"><text fill="#595959" font-family="MS PGothic,MS PGothic_MSFontService,sans-serif" font-weight="400" font-size="24" transform="translate(972.295 716)">建物少</text></g></g></g></svg>