<svg width="886" height="769" xmlns="http://www.w3.org/2000/svg" xmlns:xlink="http://www.w3.org/1999/xlink" overflow="hidden"><defs><clipPath id="clip0"><rect x="186" y="-49" width="886" height="769"/></clipPath><clipPath id="clip1"><rect x="186" y="-48" width="884" height="767"/></clipPath><clipPath id="clip2"><rect x="186" y="-48" width="884" height="767"/></clipPath><clipPath id="clip3"><rect x="322" y="-22" width="740" height="568"/></clipPath><clipPath id="clip4"><rect x="186" y="-48" width="884" height="767"/></clipPath><clipPath id="clip5"><rect x="322" y="-22" width="740" height="568"/></clipPath><clipPath id="clip6"><rect x="186" y="-48" width="884" height="767"/></clipPath><clipPath id="clip7"><rect x="322" y="-22" width="740" height="568"/></clipPath><clipPath id="clip8"><rect x="186" y="-48" width="884" height="767"/></clipPath><clipPath id="clip9"><rect x="322" y="-22" width="740" height="568"/></clipPath><clipPath id="clip10"><rect x="186" y="-48" width="884" height="767"/></clipPath><clipPath id="clip11"><rect x="322" y="-22" width="740" height="568"/></clipPath><clipPath id="clip12"><rect x="186" y="-48" width="884" height="767"/></clipPath><clipPath id="clip13"><rect x="322" y="-22" width="740" height="568"/></clipPath><clipPath id="clip14"><rect x="186" y="-48" width="884" height="767"/></clipPath><clipPath id="clip15"><rect x="186" y="-48" width="884" height="767"/></clipPath><clipPath id="clip16"><rect x="186" y="-48" width="884" height="767"/></clipPath><clipPath id="clip17"><rect x="186" y="-48" width="884" height="767"/></clipPath><clipPath id="clip18"><rect x="186" y="-48" width="884" height="767"/></clipPath><clipPath id="clip19"><rect x="186" y="-48" width="884" height="767"/></clipPath><clipPath id="clip20"><rect x="186" y="-48" width="884" height="767"/></clipPath><clipPath id="clip21"><rect x="186" y="-48" width="884" height="767"/></clipPath><clipPath id="clip22"><rect x="186" y="-48" width="884" height="767"/></clipPath><clipPath id="clip23"><rect x="186" y="-48" width="884" height="767"/></clipPath><clipPath id="clip24"><rect x="186" y="-48" width="884" height="767"/></clipPath><clipPath id="clip25"><rect x="186" y="-48" width="884" height="767"/></clipPath><clipPath id="clip26"><rect x="186" y="-48" width="884" height="767"/></clipPath><clipPath id="clip27"><rect x="186" y="-48" width="884" height="767"/></clipPath><clipPath id="clip28"><rect x="186" y="-48" width="884" height="767"/></clipPath><clipPath id="clip29"><rect x="186" y="-48" width="884" height="767"/></clipPath><clipPath id="clip30"><rect x="186" y="-48" width="884" height="767"/></clipPath><clipPath id="clip31"><rect x="186" y="-48" width="884" height="767"/></clipPath><clipPath id="clip32"><rect x="186" y="-48" width="884" height="767"/></clipPath><clipPath id="clip33"><rect x="186" y="-48" width="884" height="767"/></clipPath><clipPath id="clip34"><rect x="186" y="-48" width="884" height="767"/></clipPath><clipPath id="clip35"><rect x="186" y="-48" width="884" height="767"/></clipPath><clipPath id="clip36"><rect x="186" y="-48" width="884" height="767"/></clipPath><clipPath id="clip37"><rect x="186" y="-48" width="884" height="767"/></clipPath><clipPath id="clip38"><rect x="186" y="-48" width="884" height="767"/></clipPath><clipPath id="clip39"><rect x="186" y="-48" width="884" height="767"/></clipPath><clipPath id="clip40"><rect x="186" y="-48" width="884" height="767"/></clipPath><clipPath id="clip41"><rect x="186" y="-48" width="884" height="767"/></clipPath><clipPath id="clip42"><rect x="186" y="-48" width="884" height="767"/></clipPath><clipPath id="clip43"><rect x="186" y="-48" width="884" height="767"/></clipPath><clipPath id="clip44"><rect x="186" y="-48" width="884" height="767"/></clipPath><clipPath id="clip45"><rect x="186" y="-48" width="884" height="767"/></clipPath><clipPath id="clip46"><rect x="186" y="-48" width="884" height="767"/></clipPath><clipPath id="clip47"><rect x="186" y="-48" width="884" height="767"/></clipPath><clipPath id="clip48"><rect x="186" y="-48" width="884" height="767"/></clipPath></defs><g clip-path="url(#clip0)" transform="translate(-186 49)"><g clip-path="url(#clip1)"><path d="M322.5 481.5 1061.5 481.5M322.5 418.5 1061.5 418.5M322.5 355.5 1061.5 355.5M322.5 292.5 1061.5 292.5M322.5 229.5 1061.5 229.5M322.5 166.5 1061.5 166.5M322.5 103.5 1061.5 103.5M322.5 40.5 1061.5 40.5M322.5-22.5001 1061.5-22.5001" stroke="#D9D9D9" stroke-linejoin="round" stroke-miterlimit="10" fill="none"/></g><g clip-path="url(#clip2)"><path d="M322.5 545.5 1061.5 545.5" stroke="#D9D9D9" stroke-linejoin="round" stroke-miterlimit="10" fill="none" fill-rule="evenodd"/></g><g clip-path="url(#clip3)"><path d="M445.5 315.5 692.5 161.5 938.5 57.5001" stroke="#5B9BD5" stroke-width="3" stroke-linecap="round" stroke-linejoin="round" stroke-miterlimit="10" fill="none"/></g><g clip-path="url(#clip4)"><path d="M451.788 315.476C451.788 318.79 449.102 321.476 445.788 321.476 442.474 321.476 439.788 318.79 439.788 315.476 439.788 312.162 442.474 309.476 445.788 309.476 449.102 309.476 451.788 312.162 451.788 315.476Z" stroke="#5B9BD5" stroke-linejoin="round" stroke-miterlimit="10" fill="#5B9BD5"/><path d="M697.955 161.643C697.955 164.956 695.268 167.643 691.955 167.643 688.641 167.643 685.955 164.956 685.955 161.643 685.955 158.329 688.641 155.643 691.955 155.643 695.268 155.643 697.955 158.329 697.955 161.643Z" stroke="#5B9BD5" stroke-linejoin="round" stroke-miterlimit="10" fill="#5B9BD5"/><path d="M944.288 57.8092C944.288 61.1229 941.602 63.8092 938.288 63.8092 934.974 63.8092 932.288 61.1229 932.288 57.8092 932.288 54.4955 934.974 51.8092 938.288 51.8092 941.602 51.8092 944.288 54.4955 944.288 57.8092Z" stroke="#5B9BD5" stroke-linejoin="round" stroke-miterlimit="10" fill="#5B9BD5"/></g><g clip-path="url(#clip5)"><path d="M445.5 360.5 692.5 123.5 938.5 67.5001" stroke="#5B9BD5" stroke-width="3" stroke-linecap="round" stroke-linejoin="round" stroke-miterlimit="10" stroke-dasharray="9 12" fill="none"/></g><g clip-path="url(#clip6)"><path d="M445.788 354.643 451.788 366.643 439.788 366.643Z" stroke="#5B9BD5" stroke-linejoin="round" stroke-miterlimit="10" stroke-dasharray="4 3" fill="#5B9BD5"/><path d="M691.955 116.976 697.955 128.976 685.955 128.976Z" stroke="#5B9BD5" stroke-linejoin="round" stroke-miterlimit="10" stroke-dasharray="4 3" fill="#5B9BD5"/><path d="M938.288 61.4759 944.288 73.4759 932.288 73.4759Z" stroke="#5B9BD5" stroke-linejoin="round" stroke-miterlimit="10" stroke-dasharray="4 3" fill="#5B9BD5"/></g><g clip-path="url(#clip7)"><path d="M445.5 522.5 692.5 109.5 938.5 48.5001" stroke="#ED7D31" stroke-width="3" stroke-linecap="round" stroke-linejoin="round" stroke-miterlimit="10" fill="none"/></g><g clip-path="url(#clip8)"><path d="M451.788 522.809C451.788 526.123 449.102 528.809 445.788 528.809 442.474 528.809 439.788 526.123 439.788 522.809 439.788 519.496 442.474 516.809 445.788 516.809 449.102 516.809 451.788 519.496 451.788 522.809Z" stroke="#ED7D31" stroke-linejoin="round" stroke-miterlimit="10" fill="#ED7D31"/><path d="M697.955 108.976C697.955 112.29 695.268 114.976 691.955 114.976 688.641 114.976 685.955 112.29 685.955 108.976 685.955 105.662 688.641 102.976 691.955 102.976 695.268 102.976 697.955 105.662 697.955 108.976Z" stroke="#ED7D31" stroke-linejoin="round" stroke-miterlimit="10" fill="#ED7D31"/><path d="M944.288 48.976C944.288 52.2897 941.602 54.976 938.288 54.976 934.974 54.976 932.288 52.2897 932.288 48.976 932.288 45.6623 934.974 42.976 938.288 42.976 941.602 42.976 944.288 45.6623 944.288 48.976Z" stroke="#ED7D31" stroke-linejoin="round" stroke-miterlimit="10" fill="#ED7D31"/></g><g clip-path="url(#clip9)"><path d="M445.5 394.5 692.5 143.5 938.5 74.5001" stroke="#ED7D31" stroke-width="3" stroke-linecap="round" stroke-linejoin="round" stroke-miterlimit="10" stroke-dasharray="9 12 0 12" fill="none"/></g><g clip-path="url(#clip10)"><path d="M445.788 388.643 451.788 400.643 439.788 400.643Z" stroke="#ED7D31" stroke-linejoin="round" stroke-miterlimit="10" fill="#ED7D31"/><path d="M691.955 137.476 697.955 149.476 685.955 149.476Z" stroke="#ED7D31" stroke-linejoin="round" stroke-miterlimit="10" fill="#ED7D31"/><path d="M938.288 68.8092 944.288 80.8092 932.288 80.8092Z" stroke="#ED7D31" stroke-linejoin="round" stroke-miterlimit="10" fill="#ED7D31"/></g><g clip-path="url(#clip11)"><path d="M445.5 494.5 692.5 194.5 938.5 18.5001" stroke="#70AD47" stroke-width="3" stroke-linecap="round" stroke-linejoin="round" stroke-miterlimit="10" fill="none"/></g><g clip-path="url(#clip12)"><path d="M451.788 494.643C451.788 497.956 449.102 500.643 445.788 500.643 442.474 500.643 439.788 497.956 439.788 494.643 439.788 491.329 442.474 488.643 445.788 488.643 449.102 488.643 451.788 491.329 451.788 494.643Z" stroke="#70AD47" stroke-linejoin="round" stroke-miterlimit="10" fill="#70AD47"/><path d="M697.955 194.476C697.955 197.79 695.268 200.476 691.955 200.476 688.641 200.476 685.955 197.79 685.955 194.476 685.955 191.162 688.641 188.476 691.955 188.476 695.268 188.476 697.955 191.162 697.955 194.476Z" stroke="#70AD47" stroke-linejoin="round" stroke-miterlimit="10" fill="#70AD47"/><path d="M944.288 18.6426C944.288 21.9563 941.602 24.6426 938.288 24.6426 934.974 24.6426 932.288 21.9563 932.288 18.6426 932.288 15.3289 934.974 12.6426 938.288 12.6426 941.602 12.6426 944.288 15.3289 944.288 18.6426Z" stroke="#70AD47" stroke-linejoin="round" stroke-miterlimit="10" fill="#70AD47"/></g><g clip-path="url(#clip13)"><path d="M445.5 409.5 692.5 191.5 938.5 67.5001" stroke="#70AD47" stroke-width="3" stroke-linecap="round" stroke-linejoin="round" stroke-miterlimit="10" stroke-dasharray="21 12 0 12" fill="none"/></g><g clip-path="url(#clip14)"><path d="M445.788 404.476 451.121 415.143 440.455 415.143Z" stroke="#70AD47" stroke-linejoin="round" stroke-miterlimit="10" fill="#70AD47"/><path d="M691.955 186.143 697.288 196.809 686.621 196.809Z" stroke="#70AD47" stroke-linejoin="round" stroke-miterlimit="10" fill="#70AD47"/><path d="M938.288 61.976 943.621 72.6426 932.955 72.6426Z" stroke="#70AD47" stroke-linejoin="round" stroke-miterlimit="10" fill="#70AD47"/></g><g clip-path="url(#clip15)"><text fill="#595959" font-family="Calibri,Calibri_MSFontService,sans-serif" font-weight="700" font-size="27" transform="translate(236.82 552)">0.022</text></g><g clip-path="url(#clip16)"><text fill="#595959" font-family="Calibri,Calibri_MSFontService,sans-serif" font-weight="700" font-size="27" transform="translate(236.82 489)">0.023</text></g><g clip-path="url(#clip17)"><text fill="#595959" font-family="Calibri,Calibri_MSFontService,sans-serif" font-weight="700" font-size="27" transform="translate(236.82 426)">0.024</text></g><g clip-path="url(#clip18)"><text fill="#595959" font-family="Calibri,Calibri_MSFontService,sans-serif" font-weight="700" font-size="27" transform="translate(236.82 363)">0.025</text></g><g clip-path="url(#clip19)"><text fill="#595959" font-family="Calibri,Calibri_MSFontService,sans-serif" font-weight="700" font-size="27" transform="translate(236.82 300)">0.026</text></g><g clip-path="url(#clip20)"><text fill="#595959" font-family="Calibri,Calibri_MSFontService,sans-serif" font-weight="700" font-size="27" transform="translate(236.82 237)">0.027</text></g><g clip-path="url(#clip21)"><text fill="#595959" font-family="Calibri,Calibri_MSFontService,sans-serif" font-weight="700" font-size="27" transform="translate(236.82 174)">0.028</text></g><g clip-path="url(#clip22)"><text fill="#595959" font-family="Calibri,Calibri_MSFontService,sans-serif" font-weight="700" font-size="27" transform="translate(236.82 111)">0.029</text></g><g clip-path="url(#clip23)"><text fill="#595959" font-family="Calibri,Calibri_MSFontService,sans-serif" font-weight="700" font-size="27" transform="translate(250.333 48)">0.03</text></g><g clip-path="url(#clip24)"><text fill="#595959" font-family="Calibri,Calibri_MSFontService,sans-serif" font-weight="700" font-size="27" transform="translate(236.82 -15)">0.031</text></g><g clip-path="url(#clip25)"><text fill="#595959" font-family="Calibri,Calibri_MSFontService,sans-serif" font-weight="700" font-size="27" transform="translate(425.571 587)">200</text></g><g clip-path="url(#clip26)"><text fill="#595959" font-family="Calibri,Calibri_MSFontService,sans-serif" font-weight="700" font-size="27" transform="translate(671.784 587)">300</text></g><g clip-path="url(#clip27)"><text fill="#595959" font-family="Calibri,Calibri_MSFontService,sans-serif" font-weight="700" font-size="27" transform="translate(917.997 587)">400</text></g><g clip-path="url(#clip28)"><text fill="#595959" font-family="Calibri,Calibri_MSFontService,sans-serif" font-weight="700" font-size="32" transform="matrix(6.12323e-17 -1 1 6.12323e-17 221.648 427)">End to End delay</text></g><g clip-path="url(#clip29)"><text fill="#595959" font-family="Calibri,Calibri_MSFontService,sans-serif" font-weight="700" font-size="32" transform="matrix(6.12323e-17 -1 1 6.12323e-17 221.648 206)">(s)</text></g><g clip-path="url(#clip30)"><text fill="#595959" font-family="Calibri,Calibri_MSFontService,sans-serif" font-weight="700" font-size="32" transform="translate(574.814 629)">number of  nodes</text></g><g clip-path="url(#clip31)"><path d="M417.5 653.5 450.5 653.5" stroke="#5B9BD5" stroke-width="3" stroke-linecap="round" stroke-linejoin="round" stroke-miterlimit="10" fill="none" fill-rule="evenodd"/></g><g clip-path="url(#clip32)"><path d="M439.5 653.5C439.5 656.814 436.814 659.5 433.5 659.5 430.186 659.5 427.5 656.814 427.5 653.5 427.5 650.186 430.186 647.5 433.5 647.5 436.814 647.5 439.5 650.186 439.5 653.5Z" stroke="#5B9BD5" stroke-linejoin="round" stroke-miterlimit="10" fill="#5B9BD5"/></g><g clip-path="url(#clip33)"><text fill="#595959" font-family="Calibri,Calibri_MSFontService,sans-serif" font-weight="700" font-size="27" transform="translate(454.341 660)">SIGO(10)</text></g><g clip-path="url(#clip34)"><path d="M561.5 653.5 595.5 653.5" stroke="#5B9BD5" stroke-width="3" stroke-linecap="round" stroke-linejoin="round" stroke-miterlimit="10" stroke-dasharray="9 12" fill="none" fill-rule="evenodd"/></g><g clip-path="url(#clip35)"><path d="M578.333 647.167 584.333 659.167 572.333 659.167Z" stroke="#5B9BD5" stroke-linejoin="round" stroke-miterlimit="10" stroke-dasharray="4 3" fill="#5B9BD5"/></g><g clip-path="url(#clip36)"><text fill="#595959" font-family="Calibri,Calibri_MSFontService,sans-serif" font-weight="700" font-size="27" transform="translate(598.888 660)">LSGO(10)</text></g><g clip-path="url(#clip37)"><path d="M706.5 653.5 739.5 653.5" stroke="#ED7D31" stroke-width="3" stroke-linecap="round" stroke-linejoin="round" stroke-miterlimit="10" fill="none" fill-rule="evenodd"/></g><g clip-path="url(#clip38)"><path d="M728.5 653.5C728.5 656.814 725.814 659.5 722.5 659.5 719.186 659.5 716.5 656.814 716.5 653.5 716.5 650.186 719.186 647.5 722.5 647.5 725.814 647.5 728.5 650.186 728.5 653.5Z" stroke="#ED7D31" stroke-linejoin="round" stroke-miterlimit="10" fill="#ED7D31"/></g><g clip-path="url(#clip39)"><text fill="#595959" font-family="Calibri,Calibri_MSFontService,sans-serif" font-weight="700" font-size="27" transform="translate(743.435 660)">SIGO(20)</text></g><g clip-path="url(#clip40)"><path d="M417.5 693.5 450.5 693.5" stroke="#ED7D31" stroke-width="3" stroke-linecap="round" stroke-linejoin="round" stroke-miterlimit="10" stroke-dasharray="9 12 0 12" fill="none" fill-rule="evenodd"/></g><g clip-path="url(#clip41)"><path d="M433.833 687.333 439.833 699.333 427.833 699.333Z" stroke="#ED7D31" stroke-linejoin="round" stroke-miterlimit="10" fill="#ED7D31"/></g><g clip-path="url(#clip42)"><text fill="#595959" font-family="Calibri,Calibri_MSFontService,sans-serif" font-weight="700" font-size="27" transform="translate(454.341 701)">LSGO(20)</text></g><g clip-path="url(#clip43)"><path d="M561.5 693.5 595.5 693.5" stroke="#70AD47" stroke-width="3" stroke-linecap="round" stroke-linejoin="round" stroke-miterlimit="10" fill="none" fill-rule="evenodd"/></g><g clip-path="url(#clip44)"><path d="M584.5 693.5C584.5 696.814 581.814 699.5 578.5 699.5 575.186 699.5 572.5 696.814 572.5 693.5 572.5 690.186 575.186 687.5 578.5 687.5 581.814 687.5 584.5 690.186 584.5 693.5Z" stroke="#70AD47" stroke-linejoin="round" stroke-miterlimit="10" fill="#70AD47"/></g><g clip-path="url(#clip45)"><text fill="#595959" font-family="Calibri,Calibri_MSFontService,sans-serif" font-weight="700" font-size="27" transform="translate(598.888 701)">SIGO(30)</text></g><g clip-path="url(#clip46)"><path d="M706.5 693.5 739.5 693.5" stroke="#70AD47" stroke-width="3" stroke-linecap="round" stroke-linejoin="round" stroke-miterlimit="10" stroke-dasharray="21 12 0 12" fill="none" fill-rule="evenodd"/></g><g clip-path="url(#clip47)"><path d="M722.833 688 728.167 698.667 717.5 698.667Z" stroke="#70AD47" stroke-linejoin="round" stroke-miterlimit="10" fill="#70AD47"/></g><g clip-path="url(#clip48)"><text fill="#595959" font-family="Calibri,Calibri_MSFontService,sans-serif" font-weight="700" font-size="27" transform="translate(743.435 701)">LSGO(30)</text></g></g></svg>