<svg width="364" height="287" xmlns="http://www.w3.org/2000/svg" xmlns:xlink="http://www.w3.org/1999/xlink" overflow="hidden"><defs><clipPath id="clip0"><rect x="844" y="126" width="364" height="287"/></clipPath><clipPath id="clip1"><rect x="844" y="126" width="362" height="285"/></clipPath><clipPath id="clip2"><rect x="844" y="126" width="362" height="285"/></clipPath><clipPath id="clip3"><rect x="913" y="141" width="280" height="171"/></clipPath><clipPath id="clip4"><rect x="844" y="126" width="362" height="285"/></clipPath><clipPath id="clip5"><rect x="913" y="141" width="280" height="171"/></clipPath><clipPath id="clip6"><rect x="844" y="126" width="362" height="285"/></clipPath><clipPath id="clip7"><rect x="844" y="126" width="362" height="285"/></clipPath><clipPath id="clip8"><rect x="844" y="126" width="362" height="285"/></clipPath><clipPath id="clip9"><rect x="844" y="126" width="362" height="285"/></clipPath><clipPath id="clip10"><rect x="844" y="126" width="362" height="285"/></clipPath><clipPath id="clip11"><rect x="844" y="126" width="362" height="285"/></clipPath><clipPath id="clip12"><rect x="844" y="126" width="362" height="285"/></clipPath><clipPath id="clip13"><rect x="844" y="126" width="362" height="285"/></clipPath><clipPath id="clip14"><rect x="844" y="126" width="362" height="285"/></clipPath><clipPath id="clip15"><rect x="844" y="126" width="362" height="285"/></clipPath><clipPath id="clip16"><rect x="844" y="126" width="362" height="285"/></clipPath><clipPath id="clip17"><rect x="844" y="126" width="362" height="285"/></clipPath><clipPath id="clip18"><rect x="844" y="126" width="362" height="285"/></clipPath><clipPath id="clip19"><rect x="844" y="126" width="362" height="285"/></clipPath><clipPath id="clip20"><rect x="844" y="126" width="362" height="285"/></clipPath><clipPath id="clip21"><rect x="844" y="126" width="362" height="285"/></clipPath><clipPath id="clip22"><rect x="844" y="126" width="362" height="285"/></clipPath><clipPath id="clip23"><rect x="844" y="126" width="362" height="285"/></clipPath><clipPath id="clip24"><rect x="844" y="126" width="362" height="285"/></clipPath><clipPath id="clip25"><rect x="844" y="126" width="362" height="285"/></clipPath></defs><g clip-path="url(#clip0)" transform="translate(-844 -126)"><g clip-path="url(#clip1)"><path d="M913.5 287.5 1192.5 287.5M913.5 262.5 1192.5 262.5M913.5 238.5 1192.5 238.5M913.5 214.5 1192.5 214.5M913.5 189.5 1192.5 189.5M913.5 165.5 1192.5 165.5M913.5 141.5 1192.5 141.5" stroke="#D9D9D9" stroke-linejoin="round" stroke-miterlimit="10" fill="none"/></g><g clip-path="url(#clip2)"><path d="M913.5 311.5 1192.5 311.5" stroke="#D9D9D9" stroke-linejoin="round" stroke-miterlimit="10" fill="none" fill-rule="evenodd"/></g><g clip-path="url(#clip3)"><path d="M960.5 298.5 1052.5 300.5 1145.5 299.5" stroke="#4472C4" stroke-width="3" stroke-linecap="round" stroke-linejoin="round" stroke-miterlimit="10" fill="none"/></g><g clip-path="url(#clip4)"><path d="M963.262 298.422C963.262 300.263 961.77 301.756 959.929 301.756 958.088 301.756 956.595 300.263 956.595 298.422 956.595 296.581 958.088 295.089 959.929 295.089 961.77 295.089 963.262 296.581 963.262 298.422Z" stroke="#4472C4" stroke-linejoin="round" stroke-miterlimit="10" fill="#4472C4"/><path d="M1056.26 300.422C1056.26 302.263 1054.77 303.756 1052.93 303.756 1051.09 303.756 1049.6 302.263 1049.6 300.422 1049.6 298.581 1051.09 297.089 1052.93 297.089 1054.77 297.089 1056.26 298.581 1056.26 300.422Z" stroke="#4472C4" stroke-linejoin="round" stroke-miterlimit="10" fill="#4472C4"/><path d="M1149.1 299.422C1149.1 301.263 1147.6 302.756 1145.76 302.756 1143.92 302.756 1142.43 301.263 1142.43 299.422 1142.43 297.581 1143.92 296.089 1145.76 296.089 1147.6 296.089 1149.1 297.581 1149.1 299.422Z" stroke="#4472C4" stroke-linejoin="round" stroke-miterlimit="10" fill="#4472C4"/></g><g clip-path="url(#clip5)"><path d="M960.5 161.5 1052.5 209.5 1145.5 234.5" stroke="#ED7D31" stroke-width="3" stroke-linecap="round" stroke-linejoin="round" stroke-miterlimit="10" fill="none"/></g><g clip-path="url(#clip6)"><path d="M963.262 161.922C963.262 163.763 961.77 165.256 959.929 165.256 958.088 165.256 956.595 163.763 956.595 161.922 956.595 160.081 958.088 158.589 959.929 158.589 961.77 158.589 963.262 160.081 963.262 161.922Z" stroke="#ED7D31" stroke-linejoin="round" stroke-miterlimit="10" fill="#ED7D31"/><path d="M1056.26 209.256C1056.26 211.097 1054.77 212.589 1052.93 212.589 1051.09 212.589 1049.6 211.097 1049.6 209.256 1049.6 207.415 1051.09 205.922 1052.93 205.922 1054.77 205.922 1056.26 207.415 1056.26 209.256Z" stroke="#ED7D31" stroke-linejoin="round" stroke-miterlimit="10" fill="#ED7D31"/><path d="M1149.1 234.422C1149.1 236.263 1147.6 237.756 1145.76 237.756 1143.92 237.756 1142.43 236.263 1142.43 234.422 1142.43 232.581 1143.92 231.089 1145.76 231.089 1147.6 231.089 1149.1 232.581 1149.1 234.422Z" stroke="#ED7D31" stroke-linejoin="round" stroke-miterlimit="10" fill="#ED7D31"/></g><g clip-path="url(#clip7)"><text fill="#595959" font-family="Yu Gothic,Yu Gothic_MSFontService,sans-serif" font-weight="700" transform="translate(888.182 315)">10</text></g><g clip-path="url(#clip8)"><text fill="#595959" font-family="Yu Gothic,Yu Gothic_MSFontService,sans-serif" font-weight="700" transform="translate(888.182 291)">15</text></g><g clip-path="url(#clip9)"><text fill="#595959" font-family="Yu Gothic,Yu Gothic_MSFontService,sans-serif" font-weight="700" transform="translate(888.182 266)">20</text></g><g clip-path="url(#clip10)"><text fill="#595959" font-family="Yu Gothic,Yu Gothic_MSFontService,sans-serif" font-weight="700" transform="translate(888.182 242)">25</text></g><g clip-path="url(#clip11)"><text fill="#595959" font-family="Yu Gothic,Yu Gothic_MSFontService,sans-serif" font-weight="700" transform="translate(888.182 218)">30</text></g><g clip-path="url(#clip12)"><text fill="#595959" font-family="Yu Gothic,Yu Gothic_MSFontService,sans-serif" font-weight="700" transform="translate(888.182 193)">35</text></g><g clip-path="url(#clip13)"><text fill="#595959" font-family="Yu Gothic,Yu Gothic_MSFontService,sans-serif" font-weight="700" transform="translate(888.182 169)">40</text></g><g clip-path="url(#clip14)"><text fill="#595959" font-family="Yu Gothic,Yu Gothic_MSFontService,sans-serif" font-weight="700" transform="translate(888.182 145)">45</text></g><g clip-path="url(#clip15)"><text fill="#595959" font-family="Yu Gothic,Yu Gothic_MSFontService,sans-serif" font-weight="700" transform="translate(949.74 331)">300</text></g><g clip-path="url(#clip16)"><text fill="#595959" font-family="Yu Gothic,Yu Gothic_MSFontService,sans-serif" font-weight="700" transform="translate(1042.62 331)">400</text></g><g clip-path="url(#clip17)"><text fill="#595959" font-family="Yu Gothic,Yu Gothic_MSFontService,sans-serif" font-weight="700" transform="translate(1135.5 331)">500</text></g><g clip-path="url(#clip18)"><text fill="#595959" font-family="Yu Gothic,Yu Gothic_MSFontService,sans-serif" font-weight="700" font-size="14" transform="matrix(6.12323e-17 -1 1 6.12323e-17 877.762 325)">Routing protocol overhead</text></g><g clip-path="url(#clip19)"><text fill="#595959" font-family="Yu Gothic,Yu Gothic_MSFontService,sans-serif" font-weight="700" font-size="14" transform="translate(984.692 365)">Number of Nodes</text></g><g clip-path="url(#clip20)"><path d="M910.5 391.5 935.5 391.5" stroke="#4472C4" stroke-width="3" stroke-linecap="round" stroke-linejoin="round" stroke-miterlimit="10" fill="none" fill-rule="evenodd"/></g><g clip-path="url(#clip21)"><path d="M926.5 391.5C926.5 393.157 924.933 394.5 923 394.5 921.067 394.5 919.5 393.157 919.5 391.5 919.5 389.843 921.067 388.5 923 388.5 924.933 388.5 926.5 389.843 926.5 391.5Z" stroke="#4472C4" stroke-linejoin="round" stroke-miterlimit="10" fill="#4472C4"/></g><g clip-path="url(#clip22)"><text fill="#595959" font-family="Yu Gothic,Yu Gothic_MSFontService,sans-serif" font-weight="700" font-size="13" transform="translate(938.419 395)">no shadowing</text></g><g clip-path="url(#clip23)"><path d="M1047.5 391.5 1072.5 391.5" stroke="#ED7D31" stroke-width="3" stroke-linecap="round" stroke-linejoin="round" stroke-miterlimit="10" fill="none" fill-rule="evenodd"/></g><g clip-path="url(#clip24)"><path d="M1063.5 391.5C1063.5 393.157 1061.93 394.5 1060 394.5 1058.07 394.5 1056.5 393.157 1056.5 391.5 1056.5 389.843 1058.07 388.5 1060 388.5 1061.93 388.5 1063.5 389.843 1063.5 391.5Z" stroke="#ED7D31" stroke-linejoin="round" stroke-miterlimit="10" fill="#ED7D31"/></g><g clip-path="url(#clip25)"><text fill="#595959" font-family="Yu Gothic,Yu Gothic_MSFontService,sans-serif" font-weight="700" font-size="13" transform="translate(1075.46 395)">shadowing</text></g></g></svg>