<svg width="380" height="283" xmlns="http://www.w3.org/2000/svg" xmlns:xlink="http://www.w3.org/1999/xlink" overflow="hidden"><defs><clipPath id="clip0"><rect x="442" y="126" width="380" height="283"/></clipPath><clipPath id="clip1"><rect x="442" y="126" width="379" height="282"/></clipPath><clipPath id="clip2"><rect x="442" y="126" width="379" height="282"/></clipPath><clipPath id="clip3"><rect x="529" y="141" width="278" height="167"/></clipPath><clipPath id="clip4"><rect x="442" y="126" width="379" height="282"/></clipPath><clipPath id="clip5"><rect x="529" y="141" width="278" height="167"/></clipPath><clipPath id="clip6"><rect x="442" y="126" width="379" height="282"/></clipPath><clipPath id="clip7"><rect x="442" y="126" width="379" height="282"/></clipPath><clipPath id="clip8"><rect x="442" y="126" width="379" height="282"/></clipPath><clipPath id="clip9"><rect x="442" y="126" width="379" height="282"/></clipPath><clipPath id="clip10"><rect x="442" y="126" width="379" height="282"/></clipPath><clipPath id="clip11"><rect x="442" y="126" width="379" height="282"/></clipPath><clipPath id="clip12"><rect x="442" y="126" width="379" height="282"/></clipPath><clipPath id="clip13"><rect x="442" y="126" width="379" height="282"/></clipPath><clipPath id="clip14"><rect x="442" y="126" width="379" height="282"/></clipPath><clipPath id="clip15"><rect x="442" y="126" width="379" height="282"/></clipPath><clipPath id="clip16"><rect x="442" y="126" width="379" height="282"/></clipPath><clipPath id="clip17"><rect x="442" y="126" width="379" height="282"/></clipPath><clipPath id="clip18"><rect x="442" y="126" width="379" height="282"/></clipPath><clipPath id="clip19"><rect x="442" y="126" width="379" height="282"/></clipPath><clipPath id="clip20"><rect x="442" y="126" width="379" height="282"/></clipPath><clipPath id="clip21"><rect x="442" y="126" width="379" height="282"/></clipPath><clipPath id="clip22"><rect x="442" y="126" width="379" height="282"/></clipPath><clipPath id="clip23"><rect x="442" y="126" width="379" height="282"/></clipPath><clipPath id="clip24"><rect x="442" y="126" width="379" height="282"/></clipPath></defs><g clip-path="url(#clip0)" transform="translate(-442 -126)"><g clip-path="url(#clip1)"><path d="M529.5 280.5 806.5 280.5M529.5 252.5 806.5 252.5M529.5 224.5 806.5 224.5M529.5 196.5 806.5 196.5M529.5 169.5 806.5 169.5M529.5 141.5 806.5 141.5" stroke="#D9D9D9" stroke-linejoin="round" stroke-miterlimit="10" fill="none"/></g><g clip-path="url(#clip2)"><path d="M529.5 307.5 806.5 307.5" stroke="#D9D9D9" stroke-linejoin="round" stroke-miterlimit="10" fill="none" fill-rule="evenodd"/></g><g clip-path="url(#clip3)"><path d="M575.5 260.5 668.5 214.5 760.5 196.5" stroke="#4472C4" stroke-width="3" stroke-linecap="round" stroke-linejoin="round" stroke-miterlimit="10" fill="none"/></g><g clip-path="url(#clip4)"><path d="M579.007 259.922C579.007 261.763 577.515 263.256 575.674 263.256 573.833 263.256 572.34 261.763 572.34 259.922 572.34 258.081 573.833 256.589 575.674 256.589 577.515 256.589 579.007 258.081 579.007 259.922Z" stroke="#4472C4" stroke-linejoin="round" stroke-miterlimit="10" fill="#4472C4"/><path d="M671.507 214.756C671.507 216.597 670.015 218.089 668.174 218.089 666.333 218.089 664.84 216.597 664.84 214.756 664.84 212.915 666.333 211.422 668.174 211.422 670.015 211.422 671.507 212.915 671.507 214.756Z" stroke="#4472C4" stroke-linejoin="round" stroke-miterlimit="10" fill="#4472C4"/><path d="M763.84 196.422C763.84 198.263 762.348 199.756 760.507 199.756 758.666 199.756 757.174 198.263 757.174 196.422 757.174 194.581 758.666 193.089 760.507 193.089 762.348 193.089 763.84 194.581 763.84 196.422Z" stroke="#4472C4" stroke-linejoin="round" stroke-miterlimit="10" fill="#4472C4"/></g><g clip-path="url(#clip5)"><path d="M575.5 199.5 668.5 175.5 760.5 171.5" stroke="#ED7D31" stroke-width="3" stroke-linecap="round" stroke-linejoin="round" stroke-miterlimit="10" fill="none"/></g><g clip-path="url(#clip6)"><path d="M579.007 199.589C579.007 201.43 577.515 202.922 575.674 202.922 573.833 202.922 572.34 201.43 572.34 199.589 572.34 197.748 573.833 196.256 575.674 196.256 577.515 196.256 579.007 197.748 579.007 199.589Z" stroke="#ED7D31" stroke-linejoin="round" stroke-miterlimit="10" fill="#ED7D31"/><path d="M671.507 175.089C671.507 176.93 670.015 178.422 668.174 178.422 666.333 178.422 664.84 176.93 664.84 175.089 664.84 173.248 666.333 171.756 668.174 171.756 670.015 171.756 671.507 173.248 671.507 175.089Z" stroke="#ED7D31" stroke-linejoin="round" stroke-miterlimit="10" fill="#ED7D31"/><path d="M763.84 171.589C763.84 173.43 762.348 174.922 760.507 174.922 758.666 174.922 757.174 173.43 757.174 171.589 757.174 169.748 758.666 168.256 760.507 168.256 762.348 168.256 763.84 169.748 763.84 171.589Z" stroke="#ED7D31" stroke-linejoin="round" stroke-miterlimit="10" fill="#ED7D31"/></g><g clip-path="url(#clip7)"><text fill="#595959" font-family="Yu Gothic,Yu Gothic_MSFontService,sans-serif" font-weight="700" transform="translate(486.927 311)">0.025</text></g><g clip-path="url(#clip8)"><text fill="#595959" font-family="Yu Gothic,Yu Gothic_MSFontService,sans-serif" font-weight="700" transform="translate(486.927 284)">0.027</text></g><g clip-path="url(#clip9)"><text fill="#595959" font-family="Yu Gothic,Yu Gothic_MSFontService,sans-serif" font-weight="700" transform="translate(486.927 256)">0.029</text></g><g clip-path="url(#clip10)"><text fill="#595959" font-family="Yu Gothic,Yu Gothic_MSFontService,sans-serif" font-weight="700" transform="translate(486.927 228)">0.031</text></g><g clip-path="url(#clip11)"><text fill="#595959" font-family="Yu Gothic,Yu Gothic_MSFontService,sans-serif" font-weight="700" transform="translate(486.927 200)">0.033</text></g><g clip-path="url(#clip12)"><text fill="#595959" font-family="Yu Gothic,Yu Gothic_MSFontService,sans-serif" font-weight="700" transform="translate(486.927 172)">0.035</text></g><g clip-path="url(#clip13)"><text fill="#595959" font-family="Yu Gothic,Yu Gothic_MSFontService,sans-serif" font-weight="700" transform="translate(486.927 145)">0.037</text></g><g clip-path="url(#clip14)"><text fill="#595959" font-family="Yu Gothic,Yu Gothic_MSFontService,sans-serif" font-weight="700" transform="translate(565.364 328)">300</text></g><g clip-path="url(#clip15)"><text fill="#595959" font-family="Yu Gothic,Yu Gothic_MSFontService,sans-serif" font-weight="700" transform="translate(657.791 328)">400</text></g><g clip-path="url(#clip16)"><text fill="#595959" font-family="Yu Gothic,Yu Gothic_MSFontService,sans-serif" font-weight="700" transform="translate(750.218 328)">500</text></g><g clip-path="url(#clip17)"><text fill="#595959" font-family="Yu Gothic,Yu Gothic_MSFontService,sans-serif" font-weight="700" font-size="14" transform="matrix(6.12323e-17 -1 1 6.12323e-17 476.507 291)">End to End delay(s)</text></g><g clip-path="url(#clip18)"><text fill="#595959" font-family="Yu Gothic,Yu Gothic_MSFontService,sans-serif" font-weight="700" font-size="14" transform="translate(576.861 366)">Number of Nodes</text></g><g clip-path="url(#clip19)"><path d="M516.5 387.5 542.5 387.5" stroke="#4472C4" stroke-width="3" stroke-linecap="round" stroke-linejoin="round" stroke-miterlimit="10" fill="none" fill-rule="evenodd"/></g><g clip-path="url(#clip20)"><path d="M532.5 388C532.5 389.933 531.157 391.5 529.5 391.5 527.843 391.5 526.5 389.933 526.5 388 526.5 386.067 527.843 384.5 529.5 384.5 531.157 384.5 532.5 386.067 532.5 388Z" stroke="#4472C4" stroke-linejoin="round" stroke-miterlimit="10" fill="#4472C4"/></g><g clip-path="url(#clip21)"><text fill="#595959" font-family="Yu Gothic,Yu Gothic_MSFontService,sans-serif" font-weight="700" font-size="13" transform="translate(545.035 391)">no shadowing</text></g><g clip-path="url(#clip22)"><path d="M653.5 387.5 679.5 387.5" stroke="#ED7D31" stroke-width="3" stroke-linecap="round" stroke-linejoin="round" stroke-miterlimit="10" fill="none" fill-rule="evenodd"/></g><g clip-path="url(#clip23)"><path d="M669.5 388C669.5 389.933 668.157 391.5 666.5 391.5 664.843 391.5 663.5 389.933 663.5 388 663.5 386.067 664.843 384.5 666.5 384.5 668.157 384.5 669.5 386.067 669.5 388Z" stroke="#ED7D31" stroke-linejoin="round" stroke-miterlimit="10" fill="#ED7D31"/></g><g clip-path="url(#clip24)"><text fill="#595959" font-family="Yu Gothic,Yu Gothic_MSFontService,sans-serif" font-weight="700" font-size="13" transform="translate(682.077 391)">shadowing</text></g></g></svg>