<svg width="886" height="776" xmlns="http://www.w3.org/2000/svg" xmlns:xlink="http://www.w3.org/1999/xlink" overflow="hidden"><defs><clipPath id="clip0"><rect x="197" y="-49" width="886" height="776"/></clipPath><clipPath id="clip1"><rect x="197" y="-48" width="885" height="774"/></clipPath><clipPath id="clip2"><rect x="197" y="-48" width="885" height="774"/></clipPath><clipPath id="clip3"><rect x="309" y="-24" width="768" height="562"/></clipPath><clipPath id="clip4"><rect x="197" y="-48" width="885" height="774"/></clipPath><clipPath id="clip5"><rect x="309" y="-24" width="768" height="562"/></clipPath><clipPath id="clip6"><rect x="197" y="-48" width="885" height="774"/></clipPath><clipPath id="clip7"><rect x="309" y="-24" width="768" height="562"/></clipPath><clipPath id="clip8"><rect x="197" y="-48" width="885" height="774"/></clipPath><clipPath id="clip9"><rect x="309" y="-24" width="768" height="562"/></clipPath><clipPath id="clip10"><rect x="197" y="-48" width="885" height="774"/></clipPath><clipPath id="clip11"><rect x="309" y="-24" width="768" height="562"/></clipPath><clipPath id="clip12"><rect x="197" y="-48" width="885" height="774"/></clipPath><clipPath id="clip13"><rect x="309" y="-24" width="768" height="562"/></clipPath><clipPath id="clip14"><rect x="197" y="-48" width="885" height="774"/></clipPath><clipPath id="clip15"><rect x="197" y="-48" width="885" height="774"/></clipPath><clipPath id="clip16"><rect x="197" y="-48" width="885" height="774"/></clipPath><clipPath id="clip17"><rect x="197" y="-48" width="885" height="774"/></clipPath><clipPath id="clip18"><rect x="197" y="-48" width="885" height="774"/></clipPath><clipPath id="clip19"><rect x="197" y="-48" width="885" height="774"/></clipPath><clipPath id="clip20"><rect x="197" y="-48" width="885" height="774"/></clipPath><clipPath id="clip21"><rect x="197" y="-48" width="885" height="774"/></clipPath><clipPath id="clip22"><rect x="197" y="-48" width="885" height="774"/></clipPath><clipPath id="clip23"><rect x="197" y="-48" width="885" height="774"/></clipPath><clipPath id="clip24"><rect x="197" y="-48" width="885" height="774"/></clipPath><clipPath id="clip25"><rect x="197" y="-48" width="885" height="774"/></clipPath><clipPath id="clip26"><rect x="197" y="-48" width="885" height="774"/></clipPath><clipPath id="clip27"><rect x="197" y="-48" width="885" height="774"/></clipPath><clipPath id="clip28"><rect x="197" y="-48" width="885" height="774"/></clipPath><clipPath id="clip29"><rect x="197" y="-48" width="885" height="774"/></clipPath><clipPath id="clip30"><rect x="197" y="-48" width="885" height="774"/></clipPath><clipPath id="clip31"><rect x="197" y="-48" width="885" height="774"/></clipPath><clipPath id="clip32"><rect x="197" y="-48" width="885" height="774"/></clipPath><clipPath id="clip33"><rect x="197" y="-48" width="885" height="774"/></clipPath><clipPath id="clip34"><rect x="197" y="-48" width="885" height="774"/></clipPath><clipPath id="clip35"><rect x="197" y="-48" width="885" height="774"/></clipPath><clipPath id="clip36"><rect x="197" y="-48" width="885" height="774"/></clipPath><clipPath id="clip37"><rect x="197" y="-48" width="885" height="774"/></clipPath><clipPath id="clip38"><rect x="197" y="-48" width="885" height="774"/></clipPath><clipPath id="clip39"><rect x="197" y="-48" width="885" height="774"/></clipPath><clipPath id="clip40"><rect x="197" y="-48" width="885" height="774"/></clipPath><clipPath id="clip41"><rect x="197" y="-48" width="885" height="774"/></clipPath><clipPath id="clip42"><rect x="197" y="-48" width="885" height="774"/></clipPath><clipPath id="clip43"><rect x="197" y="-48" width="885" height="774"/></clipPath><clipPath id="clip44"><rect x="197" y="-48" width="885" height="774"/></clipPath></defs><g clip-path="url(#clip0)" transform="translate(-197 49)"><g clip-path="url(#clip1)"><path d="M309.5 450.5 1076.5 450.5M309.5 364.5 1076.5 364.5M309.5 277.5 1076.5 277.5M309.5 191.5 1076.5 191.5M309.5 104.5 1076.5 104.5M309.5 18.5001 1076.5 18.5001" stroke="#D9D9D9" stroke-linejoin="round" stroke-miterlimit="10" fill="none"/></g><g clip-path="url(#clip2)"><path d="M309.5 537.5 1076.5 537.5" stroke="#D9D9D9" stroke-linejoin="round" stroke-miterlimit="10" fill="none" fill-rule="evenodd"/></g><g clip-path="url(#clip3)"><path d="M437.5 443.5 693.5 228.5 948.5 3.50005" stroke="#4472C4" stroke-width="3" stroke-linecap="round" stroke-linejoin="round" stroke-miterlimit="10" fill="none"/></g><g clip-path="url(#clip4)"><path d="M443.46 442.976C443.46 446.29 440.774 448.976 437.46 448.976 434.146 448.976 431.46 446.29 431.46 442.976 431.46 439.662 434.146 436.976 437.46 436.976 440.774 436.976 443.46 439.662 443.46 442.976Z" stroke="#4472C4" stroke-linejoin="round" stroke-miterlimit="10" fill="#4472C4"/><path d="M698.96 227.976C698.96 231.29 696.274 233.976 692.96 233.976 689.646 233.976 686.96 231.29 686.96 227.976 686.96 224.662 689.646 221.976 692.96 221.976 696.274 221.976 698.96 224.662 698.96 227.976Z" stroke="#4472C4" stroke-linejoin="round" stroke-miterlimit="10" fill="#4472C4"/><path d="M954.46 3.4758C954.46 6.78951 951.774 9.4758 948.46 9.4758 945.146 9.4758 942.46 6.78951 942.46 3.4758 942.46 0.162092 945.146-2.5242 948.46-2.5242 951.774-2.5242 954.46 0.162092 954.46 3.4758Z" stroke="#4472C4" stroke-linejoin="round" stroke-miterlimit="10" fill="#4472C4"/></g><g clip-path="url(#clip5)"><path d="M437.5 450.5 693.5 239.5 948.5 34.5001" stroke="#4472C4" stroke-width="3" stroke-linecap="round" stroke-linejoin="round" stroke-miterlimit="10" stroke-dasharray="21 12" fill="none"/></g><g clip-path="url(#clip6)"><path d="M437.46 444.809 443.46 456.809 431.46 456.809Z" stroke="#4472C4" stroke-linejoin="round" stroke-miterlimit="10" stroke-dasharray="4 3" fill="#4472C4"/><path d="M692.96 233.643 698.96 245.643 686.96 245.643Z" stroke="#4472C4" stroke-linejoin="round" stroke-miterlimit="10" stroke-dasharray="4 3" fill="#4472C4"/><path d="M948.46 28.6425 954.46 40.6425 942.46 40.6425Z" stroke="#4472C4" stroke-linejoin="round" stroke-miterlimit="10" stroke-dasharray="4 3" fill="#4472C4"/></g><g clip-path="url(#clip7)"><path d="M437.5 494.5 693.5 312.5 948.5 93.5001" stroke="#ED7D31" stroke-width="3" stroke-linecap="round" stroke-linejoin="round" stroke-miterlimit="10" fill="none"/></g><g clip-path="url(#clip8)"><path d="M443.46 494.476C443.46 497.79 440.774 500.476 437.46 500.476 434.146 500.476 431.46 497.79 431.46 494.476 431.46 491.162 434.146 488.476 437.46 488.476 440.774 488.476 443.46 491.162 443.46 494.476Z" stroke="#ED7D31" stroke-linejoin="round" stroke-miterlimit="10" fill="#ED7D31"/><path d="M698.96 312.309C698.96 315.623 696.274 318.309 692.96 318.309 689.646 318.309 686.96 315.623 686.96 312.309 686.96 308.995 689.646 306.309 692.96 306.309 696.274 306.309 698.96 308.995 698.96 312.309Z" stroke="#ED7D31" stroke-linejoin="round" stroke-miterlimit="10" fill="#ED7D31"/><path d="M954.46 92.9759C954.46 96.2896 951.774 98.9759 948.46 98.9759 945.146 98.9759 942.46 96.2896 942.46 92.9759 942.46 89.6621 945.146 86.9759 948.46 86.9759 951.774 86.9759 954.46 89.6621 954.46 92.9759Z" stroke="#ED7D31" stroke-linejoin="round" stroke-miterlimit="10" fill="#ED7D31"/></g><g clip-path="url(#clip9)"><path d="M437.5 508.5 693.5 334.5 948.5 125.5" stroke="#ED7D31" stroke-width="3" stroke-linecap="round" stroke-linejoin="round" stroke-miterlimit="10" stroke-dasharray="21 12 0 12" fill="none"/></g><g clip-path="url(#clip10)"><path d="M437.46 502.309 443.46 514.309 431.46 514.309Z" stroke="#ED7D31" stroke-linejoin="round" stroke-miterlimit="10" fill="#ED7D31"/><path d="M692.96 328.476 698.96 340.476 686.96 340.476Z" stroke="#ED7D31" stroke-linejoin="round" stroke-miterlimit="10" fill="#ED7D31"/><path d="M948.46 118.976 954.46 130.976 942.46 130.976Z" stroke="#ED7D31" stroke-linejoin="round" stroke-miterlimit="10" fill="#ED7D31"/></g><g clip-path="url(#clip11)"><path d="M437.5 500.5 693.5 319.5 948.5 88.5001" stroke="#70AD47" stroke-width="3" stroke-linecap="round" stroke-linejoin="round" stroke-miterlimit="10" fill="none"/></g><g clip-path="url(#clip12)"><path d="M443.46 500.142C443.46 503.456 440.774 506.142 437.46 506.142 434.146 506.142 431.46 503.456 431.46 500.142 431.46 496.829 434.146 494.142 437.46 494.142 440.774 494.142 443.46 496.829 443.46 500.142Z" stroke="#70AD47" stroke-linejoin="round" stroke-miterlimit="10" fill="#70AD47"/><path d="M698.96 319.809C698.96 323.123 696.274 325.809 692.96 325.809 689.646 325.809 686.96 323.123 686.96 319.809 686.96 316.495 689.646 313.809 692.96 313.809 696.274 313.809 698.96 316.495 698.96 319.809Z" stroke="#70AD47" stroke-linejoin="round" stroke-miterlimit="10" fill="#70AD47"/><path d="M954.46 88.6425C954.46 91.9562 951.774 94.6425 948.46 94.6425 945.146 94.6425 942.46 91.9562 942.46 88.6425 942.46 85.3288 945.146 82.6425 948.46 82.6425 951.774 82.6425 954.46 85.3288 954.46 88.6425Z" stroke="#70AD47" stroke-linejoin="round" stroke-miterlimit="10" fill="#70AD47"/></g><g clip-path="url(#clip13)"><path d="M437.5 514.5 693.5 350.5 948.5 137.5" stroke="#70AD47" stroke-width="3" stroke-linecap="round" stroke-linejoin="round" stroke-miterlimit="10" stroke-dasharray="21 12 0 12 0 12" fill="none"/></g><g clip-path="url(#clip14)"><path d="M437.46 509.142 442.793 519.809 432.127 519.809Z" stroke="#70AD47" stroke-linejoin="round" stroke-miterlimit="10" fill="#70AD47"/><path d="M692.96 344.976 698.293 355.643 687.627 355.643Z" stroke="#70AD47" stroke-linejoin="round" stroke-miterlimit="10" fill="#70AD47"/><path d="M948.46 132.476 953.793 143.142 943.127 143.142Z" stroke="#70AD47" stroke-linejoin="round" stroke-miterlimit="10" fill="#70AD47"/></g><g clip-path="url(#clip15)"><text fill="#595959" font-family="Yu Gothic,Yu Gothic_MSFontService,sans-serif" font-weight="700" font-size="27" transform="translate(245.832 544)">0.2</text></g><g clip-path="url(#clip16)"><text fill="#595959" font-family="Yu Gothic,Yu Gothic_MSFontService,sans-serif" font-weight="700" font-size="27" transform="translate(245.832 458)">0.3</text></g><g clip-path="url(#clip17)"><text fill="#595959" font-family="Yu Gothic,Yu Gothic_MSFontService,sans-serif" font-weight="700" font-size="27" transform="translate(245.832 371)">0.4</text></g><g clip-path="url(#clip18)"><text fill="#595959" font-family="Yu Gothic,Yu Gothic_MSFontService,sans-serif" font-weight="700" font-size="27" transform="translate(245.832 285)">0.5</text></g><g clip-path="url(#clip19)"><text fill="#595959" font-family="Yu Gothic,Yu Gothic_MSFontService,sans-serif" font-weight="700" font-size="27" transform="translate(245.832 198)">0.6</text></g><g clip-path="url(#clip20)"><text fill="#595959" font-family="Yu Gothic,Yu Gothic_MSFontService,sans-serif" font-weight="700" font-size="27" transform="translate(245.832 112)">0.7</text></g><g clip-path="url(#clip21)"><text fill="#595959" font-family="Yu Gothic,Yu Gothic_MSFontService,sans-serif" font-weight="700" font-size="27" transform="translate(245.832 25)">0.8</text></g><g clip-path="url(#clip22)"><text fill="#595959" font-family="Yu Gothic,Yu Gothic_MSFontService,sans-serif" font-weight="700" font-size="27" transform="translate(414.612 581)">200</text></g><g clip-path="url(#clip23)"><text fill="#595959" font-family="Yu Gothic,Yu Gothic_MSFontService,sans-serif" font-weight="700" font-size="27" transform="translate(670.131 581)">300</text></g><g clip-path="url(#clip24)"><text fill="#595959" font-family="Yu Gothic,Yu Gothic_MSFontService,sans-serif" font-weight="700" font-size="27" transform="translate(925.65 581)">400</text></g><g clip-path="url(#clip25)"><text fill="#595959" font-family="Yu Gothic,Yu Gothic_MSFontService,sans-serif" font-weight="700" font-size="32" transform="matrix(6.12323e-17 -1 1 6.12323e-17 239.062 452)">Packet delivery  ratio</text></g><g clip-path="url(#clip26)"><text fill="#595959" font-family="Yu Gothic,Yu Gothic_MSFontService,sans-serif" font-weight="700" font-size="32" transform="translate(553.078 624)">number of  nodes</text></g><g clip-path="url(#clip27)"><path d="M391.5 657.5 425.5 657.5" stroke="#4472C4" stroke-width="3" stroke-linecap="round" stroke-linejoin="round" stroke-miterlimit="10" fill="none" fill-rule="evenodd"/></g><g clip-path="url(#clip28)"><path d="M414.5 657.5C414.5 660.814 411.814 663.5 408.5 663.5 405.186 663.5 402.5 660.814 402.5 657.5 402.5 654.186 405.186 651.5 408.5 651.5 411.814 651.5 414.5 654.186 414.5 657.5Z" stroke="#4472C4" stroke-linejoin="round" stroke-miterlimit="10" fill="#4472C4"/></g><g clip-path="url(#clip29)"><text fill="#595959" font-family="Yu Gothic,Yu Gothic_MSFontService,sans-serif" font-weight="700" font-size="27" transform="translate(428.989 664)">SIGO(10)</text></g><g clip-path="url(#clip30)"><path d="M560.5 657.5 594.5 657.5" stroke="#4472C4" stroke-width="3" stroke-linecap="round" stroke-linejoin="round" stroke-miterlimit="10" stroke-dasharray="21 12" fill="none" fill-rule="evenodd"/></g><g clip-path="url(#clip31)"><path d="M577.333 651.167 583.333 663.167 571.333 663.167Z" stroke="#4472C4" stroke-linejoin="round" stroke-miterlimit="10" stroke-dasharray="4 3" fill="#4472C4"/></g><g clip-path="url(#clip32)"><text fill="#595959" font-family="Yu Gothic,Yu Gothic_MSFontService,sans-serif" font-weight="700" font-size="27" transform="translate(597.996 664)">LSGO(10)</text></g><g clip-path="url(#clip33)"><path d="M729.5 657.5 763.5 657.5" stroke="#ED7D31" stroke-width="3" stroke-linecap="round" stroke-linejoin="round" stroke-miterlimit="10" fill="none" fill-rule="evenodd"/></g><g clip-path="url(#clip34)"><path d="M752.5 657.5C752.5 660.814 749.814 663.5 746.5 663.5 743.186 663.5 740.5 660.814 740.5 657.5 740.5 654.186 743.186 651.5 746.5 651.5 749.814 651.5 752.5 654.186 752.5 657.5Z" stroke="#ED7D31" stroke-linejoin="round" stroke-miterlimit="10" fill="#ED7D31"/></g><g clip-path="url(#clip35)"><text fill="#595959" font-family="Yu Gothic,Yu Gothic_MSFontService,sans-serif" font-weight="700" font-size="27" transform="translate(767.003 664)">SIGO(20)</text></g><g clip-path="url(#clip36)"><path d="M391.5 699.5 425.5 699.5" stroke="#ED7D31" stroke-width="3" stroke-linecap="round" stroke-linejoin="round" stroke-miterlimit="10" stroke-dasharray="21 12 0 12" fill="none" fill-rule="evenodd"/></g><g clip-path="url(#clip37)"><path d="M408.333 693.167 414.333 705.167 402.333 705.167Z" stroke="#ED7D31" stroke-linejoin="round" stroke-miterlimit="10" fill="#ED7D31"/></g><g clip-path="url(#clip38)"><text fill="#595959" font-family="Yu Gothic,Yu Gothic_MSFontService,sans-serif" font-weight="700" font-size="27" transform="translate(428.989 706)">LSGO(20)</text></g><g clip-path="url(#clip39)"><path d="M560.5 699.5 594.5 699.5" stroke="#70AD47" stroke-width="3" stroke-linecap="round" stroke-linejoin="round" stroke-miterlimit="10" fill="none" fill-rule="evenodd"/></g><g clip-path="url(#clip40)"><path d="M583.5 699.5C583.5 702.814 580.814 705.5 577.5 705.5 574.186 705.5 571.5 702.814 571.5 699.5 571.5 696.186 574.186 693.5 577.5 693.5 580.814 693.5 583.5 696.186 583.5 699.5Z" stroke="#70AD47" stroke-linejoin="round" stroke-miterlimit="10" fill="#70AD47"/></g><g clip-path="url(#clip41)"><text fill="#595959" font-family="Yu Gothic,Yu Gothic_MSFontService,sans-serif" font-weight="700" font-size="27" transform="translate(597.996 706)">SIGO(30)</text></g><g clip-path="url(#clip42)"><path d="M729.5 699.5 763.5 699.5" stroke="#70AD47" stroke-width="3" stroke-linecap="round" stroke-linejoin="round" stroke-miterlimit="10" stroke-dasharray="21 12 0 12 0 12" fill="none" fill-rule="evenodd"/></g><g clip-path="url(#clip43)"><path d="M746.5 693.833 751.833 704.5 741.167 704.5Z" stroke="#70AD47" stroke-linejoin="round" stroke-miterlimit="10" fill="#70AD47"/></g><g clip-path="url(#clip44)"><text fill="#595959" font-family="Yu Gothic,Yu Gothic_MSFontService,sans-serif" font-weight="700" font-size="27" transform="translate(767.003 706)">LSGO(30)</text></g></g></svg>