<svg width="462" height="474" xmlns="http://www.w3.org/2000/svg" xmlns:xlink="http://www.w3.org/1999/xlink" overflow="hidden"><defs><clipPath id="clip0"><rect x="774" y="135" width="462" height="474"/></clipPath></defs><g clip-path="url(#clip0)" transform="translate(-774 -135)"><path d="M981.5 340.5C981.5 321.722 997.394 306.5 1017 306.5 1036.61 306.5 1052.5 321.722 1052.5 340.5 1052.5 359.278 1036.61 374.5 1017 374.5 997.394 374.5 981.5 359.278 981.5 340.5Z" stroke="#000000" stroke-width="1.33333" stroke-miterlimit="8" fill="#FFFFFF" fill-rule="evenodd"/><text font-family="Cambria Math,Cambria Math_MSFontService,sans-serif" font-weight="400" font-size="37" transform="translate(988.05 352)">𝑵<tspan font-size="27" x="28.3333" y="8">𝟏</tspan></text><path d="M925.5 216.5C925.5 197.722 941.394 182.5 961 182.5 980.606 182.5 996.5 197.722 996.5 216.5 996.5 235.278 980.606 250.5 961 250.5 941.394 250.5 925.5 235.278 925.5 216.5Z" stroke="#000000" stroke-width="1.33333" stroke-miterlimit="8" fill="#FFFFFF" fill-rule="evenodd"/><text font-family="Cambria Math,Cambria Math_MSFontService,sans-serif" font-weight="400" font-size="37" transform="translate(931.863 229)">𝑵<tspan font-size="27" x="28.3334" y="7">𝟐</tspan></text><path d="M1163.5 339.5C1163.5 320.722 1179.62 305.5 1199.5 305.5 1219.38 305.5 1235.5 320.722 1235.5 339.5 1235.5 358.278 1219.38 373.5 1199.5 373.5 1179.62 373.5 1163.5 358.278 1163.5 339.5Z" stroke="#000000" stroke-width="1.33333" stroke-miterlimit="8" fill="#FFFFFF" fill-rule="evenodd"/><text font-family="Cambria Math,Cambria Math_MSFontService,sans-serif" font-weight="400" font-size="37" transform="translate(1169.9 352)">𝑵<tspan font-size="27" x="28.3334" y="8">𝒅</tspan></text><path d="M939.5 528.5C939.5 509.722 955.618 494.5 975.5 494.5 995.382 494.5 1011.5 509.722 1011.5 528.5 1011.5 547.278 995.382 562.5 975.5 562.5 955.618 562.5 939.5 547.278 939.5 528.5Z" stroke="#000000" stroke-width="1.33333" stroke-miterlimit="8" fill="#FFFFFF" fill-rule="evenodd"/><text font-family="Cambria Math,Cambria Math_MSFontService,sans-serif" font-weight="400" font-size="37" transform="translate(946.057 540)">𝑵<tspan font-size="27" x="28.3333" y="8">𝒏</tspan></text><path d="M1065.5 337.5 1146.5 337.5 1146.5 334.5 1152.5 340.5 1146.5 346.5 1146.5 343.5 1065.5 343.5Z" stroke="#000000" stroke-width="1.33333" stroke-miterlimit="8" fill-rule="evenodd"/><path d="M1019.88 380.896 1000.79 486.145 1003.69 486.67 996.847 491.41 992.107 484.571 995.002 485.096 1014.09 379.846Z" stroke="#000000" stroke-width="1.33333" stroke-miterlimit="8" fill-rule="evenodd"/><path d="M1013.5 300.526 978.094 259.723 975.931 261.599 976.503 253.523 984.58 254.094 982.418 255.971 1017.82 296.773Z" stroke="#000000" stroke-width="1.33333" stroke-miterlimit="8" fill-rule="evenodd"/><path d="M775.5 341.5C775.5 322.722 791.618 307.5 811.5 307.5 831.382 307.5 847.5 322.722 847.5 341.5 847.5 360.278 831.382 375.5 811.5 375.5 791.618 375.5 775.5 360.278 775.5 341.5Z" stroke="#000000" stroke-width="1.33333" stroke-miterlimit="8" fill="#FFFFFF" fill-rule="evenodd"/><text font-family="Cambria Math,Cambria Math_MSFontService,sans-serif" font-weight="400" font-size="37" transform="translate(784.155 353)">𝑵<tspan font-size="27" x="28.3333" y="8">𝒔</tspan><tspan fill="#FF0000" font-family="Yu Gothic,Yu Gothic_MSFontService,sans-serif" font-weight="700" font-size="48" x="166.68" y="195">×</tspan><tspan fill="#FF0000" font-family="Yu Gothic,Yu Gothic_MSFontService,sans-serif" font-weight="700" font-size="21" x="56.8581" y="237">再ブロードキャストキャンセル</tspan><tspan fill="#FF0000" font-family="Yu Gothic,Yu Gothic_MSFontService,sans-serif" font-weight="700" font-size="24" x="50.0477" y="-188">再ブロードキャストキャンセル</tspan></text><path d="M996.993 218.023 1021.26 229.43 1022.46 226.867 1025.18 234.401 1017.65 237.116 1018.85 234.554 994.584 223.148Z" stroke="#000000" stroke-width="1.33333" stroke-miterlimit="8" fill-rule="evenodd"/><path d="M1006.24 520.408 1029.4 506.901 1027.98 504.455 1035.72 506.495 1033.68 514.239 1032.25 511.793 1009.09 525.3Z" stroke="#000000" stroke-width="1.33333" stroke-miterlimit="8" fill-rule="evenodd"/><text fill="#FF0000" font-family="Yu Gothic,Yu Gothic_MSFontService,sans-serif" font-weight="700" font-size="59" transform="translate(983.082 541)">×<tspan font-size="59" x="-10.3885" y="-295">×</tspan></text></g></svg>