<svg width="910" height="512" xmlns="http://www.w3.org/2000/svg" xmlns:xlink="http://www.w3.org/1999/xlink" overflow="hidden"><defs><clipPath id="clip0"><rect x="163" y="63" width="910" height="512"/></clipPath></defs><g clip-path="url(#clip0)" transform="translate(-163 -63)"><path d="M549.677 247.867C570.487 153.493 633.787 87.2263 691.06 99.8559 748.334 112.485 777.892 199.229 757.082 293.603 736.271 387.977 672.971 454.243 615.698 441.614 558.424 428.984 528.866 342.241 549.677 247.867Z" stroke="#2E75B6" stroke-width="2.66667" stroke-linejoin="round" stroke-miterlimit="10" stroke-dasharray="2.66667 2.66667" fill="none" fill-rule="evenodd"/><path d="M419.5 261C419.5 245.26 432.26 232.5 448 232.5 463.74 232.5 476.5 245.26 476.5 261 476.5 276.74 463.74 289.5 448 289.5 432.26 289.5 419.5 276.74 419.5 261Z" stroke="#000000" stroke-width="1.33333" stroke-miterlimit="8" fill="#FFFFFF" fill-rule="evenodd"/><text font-family="Cambria Math,Cambria Math_MSFontService,sans-serif" font-weight="400" font-size="27" transform="translate(436.178 270)">𝑺</text><path d="M227.167 260.167 412.611 260.167 412.611 262.833 227.167 262.833ZM228.5 265.5 220.5 261.5 228.5 257.5ZM411.278 257.5 419.278 261.5 411.278 265.5Z" fill="#767171"/><path d="M164.5 261C164.5 245.26 177.036 232.5 192.5 232.5 207.964 232.5 220.5 245.26 220.5 261 220.5 276.74 207.964 289.5 192.5 289.5 177.036 289.5 164.5 276.74 164.5 261Z" stroke="#000000" stroke-width="1.33333" stroke-miterlimit="8" fill="#FFFFFF" fill-rule="evenodd"/><text font-family="Cambria Math,Cambria Math_MSFontService,sans-serif" font-weight="400" font-size="27" transform="translate(179.124 270)">𝑷</text><path d="M617.5 153C617.5 137.26 630.26 124.5 646 124.5 661.74 124.5 674.5 137.26 674.5 153 674.5 168.74 661.74 181.5 646 181.5 630.26 181.5 617.5 168.74 617.5 153Z" stroke="#000000" stroke-width="1.33333" stroke-miterlimit="8" fill="#FFFFFF" fill-rule="evenodd"/><text font-family="Cambria Math,Cambria Math_MSFontService,sans-serif" font-weight="400" font-size="27" transform="translate(634.919 162)">𝒛</text><path d="M685.5 267C685.5 251.26 698.26 238.5 714 238.5 729.74 238.5 742.5 251.26 742.5 267 742.5 282.74 729.74 295.5 714 295.5 698.26 295.5 685.5 282.74 685.5 267Z" stroke="#000000" stroke-width="1.33333" stroke-miterlimit="8" fill="#FFFFFF" fill-rule="evenodd"/><text font-family="Cambria Math,Cambria Math_MSFontService,sans-serif" font-weight="400" font-size="27" transform="translate(701.868 275)">𝒚</text><path d="M348.5 422.5C348.5 407.036 361.036 394.5 376.5 394.5 391.964 394.5 404.5 407.036 404.5 422.5 404.5 437.964 391.964 450.5 376.5 450.5 361.036 450.5 348.5 437.964 348.5 422.5Z" stroke="#000000" stroke-width="1.33333" stroke-miterlimit="8" fill="#FFFFFF" fill-rule="evenodd"/><text font-family="Cambria Math,Cambria Math_MSFontService,sans-serif" font-weight="400" font-size="27" transform="translate(361.75 431)">𝒘</text><path d="M561.5 357.5C561.5 342.036 574.036 329.5 589.5 329.5 604.964 329.5 617.5 342.036 617.5 357.5 617.5 372.964 604.964 385.5 589.5 385.5 574.036 385.5 561.5 372.964 561.5 357.5Z" stroke="#000000" stroke-width="1.33333" stroke-miterlimit="8" fill="#FFFFFF" fill-rule="evenodd"/><text font-family="Cambria Math,Cambria Math_MSFontService,sans-serif" font-weight="400" font-size="27" transform="translate(577.476 366)">𝒙<tspan font-family="Yu Gothic,Yu Gothic_MSFontService,sans-serif" font-weight="700" font-size="21" x="165.351" y="76">: </tspan><tspan font-family="Yu Gothic,Yu Gothic_MSFontService,sans-serif" font-weight="700" font-size="21" x="178.018" y="76">送信ノード</tspan><tspan font-size="24" x="140.934" y="77">𝑺</tspan><tspan font-family="Yu Gothic,Yu Gothic_MSFontService,sans-serif" font-weight="700" font-size="21" x="165.351" y="116">: 1</tspan><tspan font-family="Yu Gothic,Yu Gothic_MSFontService,sans-serif" font-weight="700" font-size="21" x="190.184" y="116">ホップ前のノード</tspan><tspan font-size="24" x="139.517" y="116">𝑷</tspan><tspan font-family="Yu Gothic,Yu Gothic_MSFontService,sans-serif" font-weight="700" font-size="21" x="165.351" y="156">: RCS</tspan><tspan font-family="Yu Gothic,Yu Gothic_MSFontService,sans-serif" font-weight="700" font-size="21" x="222.351" y="156">の条件を満たすノード</tspan><tspan font-size="24" x="99.148" y="153">𝒙</tspan><tspan font-size="24" x="112.981" y="153">,</tspan><tspan font-size="24" x="121.981" y="153">𝒚</tspan><tspan font-size="24" x="136.315" y="153">,</tspan><tspan font-size="24" x="145.315" y="153">𝒛</tspan><tspan font-family="Yu Gothic,Yu Gothic_MSFontService,sans-serif" font-weight="700" font-size="21" x="166.61" y="189">: RCS</tspan><tspan font-family="Yu Gothic,Yu Gothic_MSFontService,sans-serif" font-weight="700" font-size="21" x="223.61" y="189">の条件を満たさないノード</tspan><tspan font-size="24" x="138.612" y="187">𝒘</tspan><tspan font-size="24" x="-283.609" y="-117">𝒄𝒍𝒅𝒊𝒔</tspan></text><path d="M481.513 263.673 565.304 331.836 563.621 333.904 479.83 265.741ZM479.182 268.651 475.5 260.5 484.23 262.446ZM565.952 328.926 569.634 337.077 560.904 335.131Z" fill="#767171"/><text font-family="Cambria Math,Cambria Math_MSFontService,sans-serif" font-weight="400" font-size="24" transform="matrix(0.790846 0.612016 -0.612016 0.790846 504.327 272)">𝒎𝒏𝒅𝒊<tspan font-size="24" x="62.1379" y="-0.0371647">𝒔</tspan><tspan font-size="18" x="74.0037" y="4.68938">𝒙</tspan></text><text fill="#2E75B6" font-family="Yu Gothic,Yu Gothic_MSFontService,sans-serif" font-weight="700" font-size="21" transform="translate(630.7 90)">RCS<tspan font-size="21" x="44.3333" y="0">候補</tspan></text><path d="M219.297 281.624 554.735 355.105 554.164 357.71 218.726 284.229ZM219.459 287.119 212.5 281.5 221.171 279.305ZM554.003 352.215 560.962 357.834 552.291 360.03Z" fill="#767171"/><text font-family="Cambria Math,Cambria Math_MSFontService,sans-serif" font-weight="400" font-size="24" transform="matrix(0.976903 0.213682 -0.213682 0.976903 350.534 339)">𝒏𝒍𝒅𝒊<tspan font-size="24" x="48.5813" y="-0.389968">𝒔</tspan><tspan font-size="18" x="60.72" y="5.14403">𝒙</tspan></text></g></svg>