<svg width="486" height="315" xmlns="http://www.w3.org/2000/svg" xmlns:xlink="http://www.w3.org/1999/xlink" overflow="hidden"><defs><clipPath id="clip0"><rect x="412" y="155" width="486" height="315"/></clipPath></defs><g clip-path="url(#clip0)" transform="translate(-412 -155)"><rect x="644.5" y="211.5" width="252" height="133" stroke="#787878" stroke-width="1.33333" stroke-miterlimit="8" fill="#A5A5A5"/><rect x="416.5" y="211.5" width="151" height="133" stroke="#787878" stroke-width="1.33333" stroke-miterlimit="8" fill="#A5A5A5"/><rect x="653.5" y="419.5" width="240" height="46" stroke="#787878" stroke-width="1.33333" stroke-miterlimit="8" fill="#A5A5A5"/><rect x="413.5" y="419.5" width="147" height="46" stroke="#787878" stroke-width="1.33333" stroke-miterlimit="8" fill="#A5A5A5"/><path d="M416 379 895.764 385.086" stroke="#A6A6A6" stroke-width="2.33333" stroke-miterlimit="8" stroke-dasharray="18.6667 7" fill="none" fill-rule="evenodd"/><path d="M416 175 895.764 175" stroke="#A6A6A6" stroke-width="2.33333" stroke-miterlimit="8" stroke-dasharray="18.6667 7" fill="none" fill-rule="evenodd"/><path d="M0 0 1.36556 311.773" stroke="#A6A6A6" stroke-width="2.33333" stroke-miterlimit="8" stroke-dasharray="18.6667 7" fill="none" fill-rule="evenodd" transform="matrix(-1 0 0 1 604.366 156)"/><text font-family="Yu Gothic,Yu Gothic_MSFontService,sans-serif" font-weight="700" font-size="24" transform="translate(760.547 201)">D</text><path d="M726 190.5C726 183.044 731.82 177 739 177 746.18 177 752 183.044 752 190.5 752 197.956 746.18 204 739 204 731.82 204 726 197.956 726 190.5Z" stroke="#000000" stroke-width="2" stroke-miterlimit="8" fill="#FF0000" fill-rule="evenodd"/><path d="M416 398.5C416 391.044 421.82 385 429 385 436.18 385 442 391.044 442 398.5 442 405.956 436.18 412 429 412 421.82 412 416 405.956 416 398.5Z" stroke="#000000" stroke-width="2" stroke-miterlimit="8" fill="#FFFFFF" fill-rule="evenodd"/><path d="M572 397C572 389.82 577.82 384 585 384 592.18 384 598 389.82 598 397 598 404.18 592.18 410 585 410 577.82 410 572 404.18 572 397Z" stroke="#000000" stroke-width="2" stroke-miterlimit="8" fill="#FF0000" fill-rule="evenodd"/><path d="M500 404.5C500 397.044 505.82 391 513 391 520.18 391 526 397.044 526 404.5 526 411.956 520.18 418 513 418 505.82 418 500 411.956 500 404.5Z" stroke="#000000" stroke-width="2" stroke-miterlimit="8" fill="#FFFFFF" fill-rule="evenodd"/><path d="M627 403C627 395.82 632.82 390 640 390 647.18 390 653 395.82 653 403 653 410.18 647.18 416 640 416 632.82 416 627 410.18 627 403Z" stroke="#000000" stroke-width="2" stroke-miterlimit="8" fill="#FFFFFF" fill-rule="evenodd"/><path d="M738 365.5C738 358.044 743.82 352 751 352 758.18 352 764 358.044 764 365.5 764 372.956 758.18 379 751 379 743.82 379 738 372.956 738 365.5Z" stroke="#000000" stroke-width="2" stroke-miterlimit="8" fill="#5B9BD5" fill-rule="evenodd"/><path d="M613 305.5C613 298.044 618.82 292 626 292 633.18 292 639 298.044 639 305.5 639 312.956 633.18 319 626 319 618.82 319 613 312.956 613 305.5Z" stroke="#000000" stroke-width="2" stroke-miterlimit="8" fill="#5B9BD5" fill-rule="evenodd"/><path d="M613 197.5C613 190.044 618.82 184 626 184 633.18 184 639 190.044 639 197.5 639 204.956 633.18 211 626 211 618.82 211 613 204.956 613 197.5Z" stroke="#000000" stroke-width="2" stroke-miterlimit="8" fill="#FFFFFF" fill-rule="evenodd"/><path d="M833 364.5C833 357.044 838.82 351 846 351 853.18 351 859 357.044 859 364.5 859 371.956 853.18 378 846 378 838.82 378 833 371.956 833 364.5Z" stroke="#000000" stroke-width="2" stroke-miterlimit="8" fill="#FFFFFF" fill-rule="evenodd"/><path d="M666 366.5C666 359.044 671.82 353 679 353 686.18 353 692 359.044 692 366.5 692 373.956 686.18 380 679 380 671.82 380 666 373.956 666 366.5Z" stroke="#000000" stroke-width="2" stroke-miterlimit="8" fill="#5B9BD5" fill-rule="evenodd"/><path d="M0.480943-1.06292 62.3948 26.9514 61.4329 29.0772-0.480943 1.06292ZM62.348 23.8203 67.9877 30.7625 59.0502 31.1089Z" fill="#FF0000" transform="matrix(1 0 0 -1 598 396.763)"/><path d="M1.05835-0.490929 30.226 62.389 28.1093 63.3708-1.05835 0.490929ZM32.2353 59.9872 31.973 68.9277 24.978 63.3536Z" fill="#FF0000" transform="matrix(1 0 0 -1 594 387.928)"/><path d="M0.250164-1.13953 130.929 27.5487 130.428 29.8278-0.250164 1.13953ZM130.234 24.4954 137.19 30.1178 128.519 32.3093Z" fill="#FF0000" transform="matrix(1 0 0 -1 601 396.118)"/><text fill="#FF0000" font-family="Yu Gothic,Yu Gothic_MSFontService,sans-serif" font-weight="700" font-size="24" transform="translate(599.945 319)">1<tspan font-size="24" x="84.0665" y="83">2</tspan><tspan font-size="24" x="171.979" y="49">3</tspan></text><path d="M574 245C574 237.82 579.82 232 587 232 594.18 232 600 237.82 600 245 600 252.18 594.18 258 587 258 579.82 258 574 252.18 574 245Z" stroke="#000000" stroke-width="2" stroke-miterlimit="8" fill="#FFFFFF" fill-rule="evenodd"/><path d="M616.526 296.055 594.791 264.166 596.719 262.852 618.454 294.741ZM593.2 266.863 592 258 599.811 262.358Z" fill="#5B9BD5"/><path d="M625.014 292.304 623.931 218.683 626.265 218.649 627.347 292.27ZM621.118 220.058 625 212 629.117 219.94Z" fill="#5B9BD5"/><path d="M637.932 312.299 666.731 350.603 664.866 352.005 636.068 313.701ZM668.195 347.835 669.805 356.633 661.8 352.642Z" fill="#5B9BD5"/><path d="M639.452 303.925 745.127 348.359 744.223 350.51 638.548 306.075ZM744.996 345.23 750.82 352.018 741.895 352.605Z" fill="#5B9BD5"/><text font-family="Yu Gothic,Yu Gothic_MSFontService,sans-serif" font-weight="700" font-size="24" transform="translate(551.131 411)">S<tspan fill="#FFC000" font-size="37" x="81.3645" y="-59">×</tspan><tspan fill="#FFC000" font-size="37" x="132.29" y="-67">×</tspan></text></g></svg>