<svg width="645" height="730" xmlns="http://www.w3.org/2000/svg" xmlns:xlink="http://www.w3.org/1999/xlink" overflow="hidden"><defs><clipPath id="clip0"><rect x="344" y="20" width="645" height="730"/></clipPath><clipPath id="clip1"><rect x="345" y="20" width="598" height="344"/></clipPath><clipPath id="clip2"><rect x="345" y="20" width="598" height="345"/></clipPath><clipPath id="clip3"><rect x="345" y="20" width="598" height="345"/></clipPath><clipPath id="clip4"><rect x="345" y="20" width="598" height="345"/></clipPath><clipPath id="clip5"><rect x="345" y="405" width="644" height="344"/></clipPath><clipPath id="clip6"><rect x="345" y="405" width="644" height="344"/></clipPath><clipPath id="clip7"><rect x="345" y="405" width="644" height="344"/></clipPath><clipPath id="clip8"><rect x="345" y="405" width="644" height="344"/></clipPath></defs><g clip-path="url(#clip0)" transform="translate(-344 -20)"><g clip-path="url(#clip1)"><g clip-path="url(#clip2)"><g clip-path="url(#clip3)"><g clip-path="url(#clip4)"><path d="M122.481 166.995C122.481 92.6593 136.632 32.3982 154.089 32.3982 171.545 32.3982 185.697 92.6593 185.697 166.995 185.697 241.332 171.545 301.593 154.089 301.593 136.632 301.593 122.481 241.332 122.481 166.995Z" stroke="#2E75B6" stroke-width="1.4048" stroke-linejoin="round" stroke-miterlimit="10" fill="none" fill-rule="evenodd" transform="matrix(1.00014 0 0 1 316.022 11.0444)"/><path d="M29.7642 165.415C29.7642 157.123 36.4861 150.401 44.778 150.401 53.0698 150.401 59.7917 157.123 59.7917 165.415 59.7917 173.707 53.0698 180.429 44.778 180.429 36.4861 180.429 29.7642 173.707 29.7642 165.415Z" stroke="#000000" stroke-width="0.702398" stroke-miterlimit="8" fill="#FFFFFF" fill-rule="evenodd" transform="matrix(1.00014 0 0 1 316.022 11.0444)"/><text font-family="Cambria Math,Cambria Math_MSFontService,sans-serif" font-weight="400" font-size="27" transform="matrix(0.526872 0 0 0.526799 350.277 181)">ğ‘µ<tspan font-size="20" x="20.3333" y="5.69477">ğ’”</tspan></text><path d="M62.9525 161.815 130.655 161.815 130.655 163.22 62.9525 163.22ZM129.953 160.41 134.167 162.518 129.953 164.625Z" fill="#70AD47" transform="matrix(1.00014 0 0 1 316.022 11.0444)"/><path d="M137.231 84.8147C137.231 76.5229 143.953 69.8009 152.245 69.8009 160.537 69.8009 167.259 76.5229 167.259 84.8147 167.259 93.1065 160.537 99.8285 152.245 99.8285 143.953 99.8285 137.231 93.1065 137.231 84.8147Z" stroke="#000000" stroke-width="0.702398" stroke-miterlimit="8" fill="#FFFFFF" fill-rule="evenodd" transform="matrix(1.00014 0 0 1 316.022 11.0444)"/><path d="M137.231 165.415C137.231 157.123 143.953 150.401 152.245 150.401 160.537 150.401 167.259 157.123 167.259 165.415 167.259 173.707 160.537 180.429 152.245 180.429 143.953 180.429 137.231 173.707 137.231 165.415Z" stroke="#000000" stroke-width="0.702398" stroke-miterlimit="8" fill="#FFFFFF" fill-rule="evenodd" transform="matrix(1.00014 0 0 1 316.022 11.0444)"/><path d="M137.231 255.761C137.231 247.615 143.953 241.011 152.245 241.011 160.537 241.011 167.259 247.615 167.259 255.761 167.259 263.908 160.537 270.511 152.245 270.511 143.953 270.511 137.231 263.908 137.231 255.761Z" stroke="#000000" stroke-width="0.702398" stroke-miterlimit="8" fill="#FFFFFF" fill-rule="evenodd" transform="matrix(1.00014 0 0 1 316.022 11.0444)"/><path d="M59.7917 165.678 137.444 165.678" stroke="#767171" stroke-width="1.5804" stroke-miterlimit="8" stroke-dasharray="1.5804 1.5804" fill="none" fill-rule="evenodd" transform="matrix(1.00014 0 0 1 316.022 11.0444)"/><path d="M524.429 177.531C524.429 169.24 531.151 162.518 539.443 162.518 547.734 162.518 554.456 169.24 554.456 177.531 554.456 185.823 547.734 192.545 539.443 192.545 531.151 192.545 524.429 185.823 524.429 177.531Z" stroke="#000000" stroke-width="0.702398" stroke-miterlimit="8" fill="#FFFFFF" fill-rule="evenodd" transform="matrix(1.00014 0 0 1 316.022 11.0444)"/><text font-family="Cambria Math,Cambria Math_MSFontService,sans-serif" font-weight="400" font-size="27" transform="matrix(0.526872 0 0 0.526799 844.412 193)">ğ‘µ<tspan font-size="20" x="20.3333" y="5.69477">ğ’…</tspan></text><path d="M376.398 99.8285C376.398 91.6821 383.002 85.0781 391.149 85.0781 399.295 85.0781 405.899 91.6821 405.899 99.8285 405.899 107.975 399.295 114.579 391.149 114.579 383.002 114.579 376.398 107.975 376.398 99.8285Z" stroke="#000000" stroke-width="0.702398" stroke-miterlimit="8" fill="#FFFFFF" fill-rule="evenodd" transform="matrix(1.00014 0 0 1 316.022 11.0444)"/><path d="M495.982 93.7703C495.982 85.4785 502.586 78.7565 510.732 78.7565 518.878 78.7565 525.482 85.4785 525.482 93.7703 525.482 102.062 518.878 108.784 510.732 108.784 502.586 108.784 495.982 102.062 495.982 93.7703Z" stroke="#000000" stroke-width="0.702398" stroke-miterlimit="8" fill="#FFFFFF" fill-rule="evenodd" transform="matrix(1.00014 0 0 1 316.022 11.0444)"/><path d="M412.221 270.775C412.221 262.483 418.942 255.761 427.234 255.761 435.526 255.761 442.248 262.483 442.248 270.775 442.248 279.067 435.526 285.789 427.234 285.789 418.942 285.789 412.221 279.067 412.221 270.775Z" stroke="#000000" stroke-width="0.702398" stroke-miterlimit="8" fill="#FFFFFF" fill-rule="evenodd" transform="matrix(1.00014 0 0 1 316.022 11.0444)"/><path d="M432.239 177.531C432.239 169.24 438.961 162.518 447.253 162.518 455.544 162.518 462.266 169.24 462.266 177.531 462.266 185.823 455.544 192.545 447.253 192.545 438.961 192.545 432.239 185.823 432.239 177.531Z" stroke="#000000" stroke-width="0.702398" stroke-miterlimit="8" fill="#FFFFFF" fill-rule="evenodd" transform="matrix(1.00014 0 0 1 316.022 11.0444)"/><path d="M61.3721 165.678 141.825 245.36" stroke="#767171" stroke-width="1.5804" stroke-miterlimit="8" stroke-dasharray="1.5804 1.5804" fill="none" fill-rule="evenodd" transform="matrix(1.00014 0 0 1 316.022 11.0444)"/><path d="M0 0 80.4533 70.0791" stroke="#767171" stroke-width="1.5804" stroke-miterlimit="8" stroke-dasharray="1.5804 1.5804" fill="none" fill-rule="evenodd" transform="matrix(1.00014 0 0 -1 377.403 176.738)"/><path d="M0 0 98.8339 24.4803" stroke="#767171" stroke-width="1.5804" stroke-miterlimit="8" stroke-dasharray="1.5804 1.5804" fill="none" fill-rule="evenodd" transform="matrix(1.00014 0 0 -1 479.089 165.908)"/><path d="M297.378 55.0505C297.378 46.9042 304.1 40.3002 312.392 40.3002 320.684 40.3002 327.406 46.9042 327.406 55.0505 327.406 63.197 320.684 69.8009 312.392 69.8009 304.1 69.8009 297.378 63.197 297.378 55.0505Z" stroke="#000000" stroke-width="0.702398" stroke-miterlimit="8" fill="#FFFFFF" fill-rule="evenodd" transform="matrix(1.00014 0 0 1 316.022 11.0444)"/><path d="M261.556 130.383C261.556 122.236 268.278 115.632 276.57 115.632 284.861 115.632 291.583 122.236 291.583 130.383 291.583 138.529 284.861 145.133 276.57 145.133 268.278 145.133 261.556 138.529 261.556 130.383Z" stroke="#000000" stroke-width="0.702398" stroke-miterlimit="8" fill="#FFFFFF" fill-rule="evenodd" transform="matrix(1.00014 0 0 1 316.022 11.0444)"/><path d="M295.271 213.354C295.271 205.062 301.993 198.34 310.285 198.34 318.577 198.34 325.299 205.062 325.299 213.354 325.299 221.646 318.577 228.368 310.285 228.368 301.993 228.368 295.271 221.646 295.271 213.354Z" stroke="#000000" stroke-width="0.702398" stroke-miterlimit="8" fill="#FFFFFF" fill-rule="evenodd" transform="matrix(1.00014 0 0 1 316.022 11.0444)"/><path d="M257.341 285.789C257.341 277.642 264.063 271.038 272.355 271.038 280.647 271.038 287.369 277.642 287.369 285.789 287.369 293.935 280.647 300.539 272.355 300.539 264.063 300.539 257.341 293.935 257.341 285.789Z" stroke="#000000" stroke-width="0.702398" stroke-miterlimit="8" fill="#FFFFFF" fill-rule="evenodd" transform="matrix(1.00014 0 0 1 316.022 11.0444)"/><path d="M169.366 165.678 295.356 213.464" stroke="#767171" stroke-width="1.5804" stroke-miterlimit="8" stroke-dasharray="1.5804 1.5804" fill="none" fill-rule="evenodd" transform="matrix(1.00014 0 0 1 316.022 11.0444)"/><path d="M163.044 176.214 261.878 275.433" stroke="#767171" stroke-width="1.5804" stroke-miterlimit="8" stroke-dasharray="1.5804 1.5804" fill="none" fill-rule="evenodd" transform="matrix(1.00014 0 0 1 316.022 11.0444)"/><path d="M0 0 20.6015 50.703" stroke="#767171" stroke-width="1.5804" stroke-miterlimit="8" stroke-dasharray="1.5804 1.5804" fill="none" fill-rule="evenodd" transform="matrix(1.00014 0 0 -1 603.431 131.021)"/><path d="M0 0 84.7357 30.6657" stroke="#767171" stroke-width="1.5804" stroke-miterlimit="8" stroke-dasharray="1.5804 1.5804" fill="none" fill-rule="evenodd" transform="matrix(1.00014 0 0 -1 607.646 141.539)"/><path d="M327.406 57.1577 380.886 88.9585" stroke="#767171" stroke-width="1.5804" stroke-miterlimit="8" stroke-dasharray="1.5804 1.5804" fill="none" fill-rule="evenodd" transform="matrix(1.00014 0 0 1 316.022 11.0444)"/><path d="M167.259 255.761 257.345 285.858" stroke="#767171" stroke-width="1.5804" stroke-miterlimit="8" stroke-dasharray="1.5804 1.5804" fill="none" fill-rule="evenodd" transform="matrix(1.00014 0 0 1 316.022 11.0444)"/><path d="M152.508 99.8285 152.508 150.601" stroke="#767171" stroke-width="1.5804" stroke-miterlimit="8" stroke-dasharray="1.5804 1.5804" fill="none" fill-rule="evenodd" transform="matrix(1.00014 0 0 1 316.022 11.0444)"/><path d="M152.508 180.956 152.508 240.871" stroke="#767171" stroke-width="1.5804" stroke-miterlimit="8" stroke-dasharray="1.5804 1.5804" fill="none" fill-rule="evenodd" transform="matrix(1.00014 0 0 1 316.022 11.0444)"/><path d="M167.259 85.0781 266.093 120.118" stroke="#767171" stroke-width="1.5804" stroke-miterlimit="8" stroke-dasharray="1.5804 1.5804" fill="none" fill-rule="evenodd" transform="matrix(1.00014 0 0 1 316.022 11.0444)"/><path d="M0 0 130.089 29.8658" stroke="#767171" stroke-width="1.5804" stroke-miterlimit="8" stroke-dasharray="1.5804 1.5804" fill="none" fill-rule="evenodd" transform="matrix(1.00014 0 0 -1 483.304 95.9608)"/><path d="M287.369 140.919 310.613 198.251" stroke="#767171" stroke-width="1.5804" stroke-miterlimit="8" stroke-dasharray="1.5804 1.5804" fill="none" fill-rule="evenodd" transform="matrix(1.00014 0 0 1 316.022 11.0444)"/><path d="M0 0 27.6172 47.06" stroke="#767171" stroke-width="1.5804" stroke-miterlimit="8" stroke-dasharray="1.5804 1.5804" fill="none" fill-rule="evenodd" transform="matrix(-1.00014 0 0 1 626.31 239.412)"/><path d="M0 0 124.948 15.1639" stroke="#767171" stroke-width="1.5804" stroke-miterlimit="8" stroke-dasharray="1.5804 1.5804" fill="none" fill-rule="evenodd" transform="matrix(-1.00014 0 0 1 728.396 281.556)"/><path d="M0 0 19.1836 64.5334" stroke="#767171" stroke-width="1.5804" stroke-miterlimit="8" stroke-dasharray="1.5804 1.5804" fill="none" fill-rule="evenodd" transform="matrix(-1.00014 0 0 1 762.238 202.009)"/><path d="M327.406 220.992 416.725 260.034" stroke="#767171" stroke-width="1.5804" stroke-miterlimit="8" stroke-dasharray="1.5804 1.5804" fill="none" fill-rule="evenodd" transform="matrix(1.00014 0 0 1 316.022 11.0444)"/><path d="M0 0 107.15 35.8391" stroke="#767171" stroke-width="1.5804" stroke-miterlimit="8" stroke-dasharray="1.5804 1.5804" fill="none" fill-rule="evenodd" transform="matrix(1.00014 0 0 -1 641.366 224.152)"/><path d="M0 0 59.6806 92.3722" stroke="#767171" stroke-width="1.5804" stroke-miterlimit="8" stroke-dasharray="1.5804 1.5804" fill="none" fill-rule="evenodd" transform="matrix(1.00014 0 0 -1 637.151 213.781)"/><path d="M436.783 166.898 401.685 110.364" stroke="#767171" stroke-width="1.5804" stroke-miterlimit="8" stroke-dasharray="1.5804 1.5804" fill="none" fill-rule="evenodd" transform="matrix(1.00014 0 0 1 316.022 11.0444)"/><path d="M0 0 89.598 5.97306" stroke="#767171" stroke-width="1.5804" stroke-miterlimit="8" stroke-dasharray="1.5804 1.5804" fill="none" fill-rule="evenodd" transform="matrix(-1.00014 0 0 1 811.588 105.078)"/><path d="M0 0 42.1286 62.5063" stroke="#767171" stroke-width="1.5804" stroke-miterlimit="8" stroke-dasharray="1.5804 1.5804" fill="none" fill-rule="evenodd" transform="matrix(-1.00014 0 0 1 816.272 115.614)"/><path d="M0 0 62.2408 5.53071e-05" stroke="#767171" stroke-width="1.5804" stroke-miterlimit="8" stroke-dasharray="1.5804 1.5804" fill="none" fill-rule="evenodd" transform="matrix(-1.00014 0 0 1 840.602 188.312)"/><path d="M0 0 86.992 82.668" stroke="#767171" stroke-width="1.5804" stroke-miterlimit="8" stroke-dasharray="1.5804 1.5804" fill="none" fill-rule="evenodd" transform="matrix(-1.00014 0 0 1 845.334 198.848)"/><path d="M521.268 104.57 539.569 162.702" stroke="#767171" stroke-width="1.5804" stroke-miterlimit="8" stroke-dasharray="1.5804 1.5804" fill="none" fill-rule="evenodd" transform="matrix(1.00014 0 0 1 316.022 11.0444)"/><text fill="#2E75B6" font-family="Yu Gothic,Yu Gothic_MSFontService,sans-serif" font-weight="700" font-size="24" transform="matrix(0.526872 0 0 0.526799 455.014 36)">RCS<tspan font-size="24" x="50" y="0">1</tspan></text><path d="M240.484 207.032C240.484 139.097 260.532 84.0245 285.262 84.0245 309.992 84.0245 330.04 139.097 330.04 207.032 330.04 274.967 309.992 330.04 285.262 330.04 260.532 330.04 240.484 274.967 240.484 207.032Z" stroke="#2E75B6" stroke-width="1.4048" stroke-linejoin="round" stroke-miterlimit="10" fill="none" fill-rule="evenodd" transform="matrix(1.00014 0 0 1 316.022 11.0444)"/><text fill="#2E75B6" font-family="Yu Gothic,Yu Gothic_MSFontService,sans-serif" font-weight="700" font-size="24" transform="matrix(0.526872 0 0 0.526799 608.458 352)">RCS<tspan font-size="24" x="50" y="0">2</tspan></text><path d="M412.726 215.793C423.841 173.233 444.666 141.818 459.24 145.624 473.814 149.43 476.618 187.017 465.503 229.577 454.387 272.136 433.562 303.551 418.988 299.745 404.414 295.939 401.611 258.352 412.726 215.793Z" stroke="#2E75B6" stroke-width="1.4048" stroke-linejoin="round" stroke-miterlimit="10" fill="none" fill-rule="evenodd" transform="matrix(1.00014 0 0 1 316.022 11.0444)"/><text fill="#2E75B6" font-family="Yu Gothic,Yu Gothic_MSFontService,sans-serif" font-weight="700" font-size="24" transform="matrix(0.526872 0 0 0.526799 751.438 314)">RCS<tspan font-size="24" x="50" y="0">3</tspan></text><path d="M497.695 143.22C484.51 95.1863 486.586 52.7432 502.332 48.4203 518.079 44.0976 541.534 79.5325 554.72 127.566 567.906 175.6 565.83 218.043 550.084 222.366 534.338 226.689 510.881 191.254 497.695 143.22Z" stroke="#2E75B6" stroke-width="1.4048" stroke-linejoin="round" stroke-miterlimit="10" fill="none" fill-rule="evenodd" transform="matrix(1.00014 0 0 1 316.022 11.0444)"/><text fill="#2E75B6" font-family="Yu Gothic,Yu Gothic_MSFontService,sans-serif" font-weight="700" font-size="24" transform="matrix(0.526872 0 0 0.526799 858.279 246)">RCS<tspan font-size="24" x="50" y="0">4</tspan></text><path d="M67.1306 166.756 139.518 237.369 138.537 238.375 66.1497 167.761ZM139.996 235.873 141.542 240.324 137.054 238.89Z" fill="#70AD47" transform="matrix(1.00014 0 0 1 316.022 11.0444)"/><path d="M0.465694-0.525827 70.2176 61.2494 69.2862 62.3014-0.465694 0.525827ZM70.6233 59.7322 72.3812 64.1041 67.8291 62.8872Z" fill="#70AD47" transform="matrix(1.00014 0 0 -1 380.037 169.182)"/><path d="M0.175642-0.680082 94.2365 23.6126 93.8857 24.9728-0.175642 0.680082ZM93.9078 22.0768 97.4616 25.1709 92.8542 26.1573Z" fill="#70AD47" transform="matrix(1.00014 0 0 -1 476.982 163.437)"/><path d="M170.657 162.91 290.974 206.165 290.499 207.487 170.182 164.232ZM290.789 204.605 294.042 208.014 289.363 208.571Z" fill="#70AD47" transform="matrix(1.00014 0 0 1 316.022 11.0444)"/><path d="M165.119 174.135 260.083 268.073 259.096 269.072 164.131 175.133ZM260.572 266.58 262.086 271.042 257.608 269.576Z" fill="#70AD47" transform="matrix(1.00014 0 0 1 316.022 11.0444)"/><path d="M0.223944-0.665743 100.04 32.9104 99.5914 34.2419-0.223944 0.665743ZM99.8216 31.355 103.144 34.6959 98.4783 35.3495Z" fill="#70AD47" transform="matrix(1.00014 0 0 -1 643.473 219.848)"/><path d="M327.686 216.66 411.848 253.248 411.288 254.536 327.126 217.949ZM411.763 251.679 414.788 255.292 410.083 255.544Z" fill="#70AD47" transform="matrix(1.00014 0 0 1 316.022 11.0444)"/><path d="M0.579759-0.396537 38.5938 55.1822 37.4343 55.9751-0.579759 0.396537ZM39.3568 53.8094 39.9968 58.4779 35.8783 56.1889Z" fill="#70AD47" transform="matrix(1.00014 0 0 -1 770.976 173.565)"/><path d="M463.32 171.298 521.179 171.298 521.179 172.702 463.32 172.702ZM520.477 169.893 524.691 172 520.477 174.107Z" fill="#70AD47" transform="matrix(1.00014 0 0 1 316.022 11.0444)"/><path d="M133.544 143.026 173.58 143.026 173.58 185.697 133.544 185.697Z" stroke="#FF0000" stroke-width="1.4048" stroke-linejoin="round" stroke-miterlimit="10" fill="none" transform="matrix(1.00014 0 0 1 316.022 11.0444)"/><path d="M291.057 189.911 331.093 189.911 331.093 232.582 291.057 232.582Z" stroke="#FF0000" stroke-width="1.4048" stroke-linejoin="round" stroke-miterlimit="10" fill="none" transform="matrix(1.00014 0 0 1 316.022 11.0444)"/><path d="M428.551 153.562 468.061 153.562 468.061 195.706 428.551 195.706Z" stroke="#FF0000" stroke-width="1.4048" stroke-linejoin="round" stroke-miterlimit="10" fill="none" transform="matrix(1.00014 0 0 1 316.022 11.0444)"/></g></g></g></g><g clip-path="url(#clip5)"><g clip-path="url(#clip6)"><g clip-path="url(#clip7)"><g clip-path="url(#clip8)"><path d="M39.6301 172C39.6301 163.513 46.51 156.633 54.9969 156.633 63.4836 156.633 70.3636 163.513 70.3636 172 70.3636 180.487 63.4836 187.367 54.9969 187.367 46.51 187.367 39.6301 180.487 39.6301 172Z" stroke="#000000" stroke-width="0.718911" stroke-miterlimit="8" fill="#FFFFFF" fill-rule="evenodd" transform="matrix(1.00033 0 0 1 306.166 362.404)"/><text font-family="Cambria Math,Cambria Math_MSFontService,sans-serif" font-weight="400" font-size="27" transform="matrix(0.539364 0 0 0.539185 350.364 539)">ğ‘µ<tspan font-size="20" x="20.3333" y="5.56395">ğ’”</tspan></text><path d="M73.5987 168.316 142.893 168.316 142.893 169.753 73.5987 169.753ZM142.174 166.878 146.488 169.034 142.174 171.191Z" fill="#2E75B6" transform="matrix(1.00033 0 0 1 306.166 362.404)"/><path d="M149.624 89.2351C149.624 80.8971 156.504 74.1379 164.991 74.1379 173.477 74.1379 180.357 80.8971 180.357 89.2351 180.357 97.5731 173.477 104.332 164.991 104.332 156.504 104.332 149.624 97.5731 149.624 89.2351Z" stroke="#000000" stroke-width="0.718911" stroke-miterlimit="8" fill="#FFFFFF" fill-rule="evenodd" transform="matrix(1.00033 0 0 1 306.166 362.404)"/><path d="M149.624 172C149.624 163.513 156.504 156.633 164.991 156.633 173.477 156.633 180.357 163.513 180.357 172 180.357 180.487 173.477 187.367 164.991 187.367 156.504 187.367 149.624 180.487 149.624 172Z" stroke="#000000" stroke-width="0.718911" stroke-miterlimit="8" fill="#FFFFFF" fill-rule="evenodd" transform="matrix(1.00033 0 0 1 306.166 362.404)"/><path d="M149.624 264.201C149.624 255.714 156.504 248.834 164.991 248.834 173.477 248.834 180.357 255.714 180.357 264.201 180.357 272.687 173.477 279.567 164.991 279.567 156.504 279.567 149.624 272.687 149.624 264.201Z" stroke="#000000" stroke-width="0.718911" stroke-miterlimit="8" fill="#FFFFFF" fill-rule="evenodd" transform="matrix(1.00033 0 0 1 306.166 362.404)"/><path d="M70.3636 171.73 149.841 171.73" stroke="#767171" stroke-width="1.61755" stroke-miterlimit="8" stroke-dasharray="1.61755 1.61755" fill="none" fill-rule="evenodd" transform="matrix(1.00033 0 0 1 306.166 362.404)"/><path d="M545.925 184.132C545.925 175.794 552.805 169.034 561.292 169.034 569.778 169.034 576.658 175.794 576.658 184.132 576.658 192.47 569.778 199.229 561.292 199.229 552.805 199.229 545.925 192.47 545.925 184.132Z" stroke="#000000" stroke-width="0.718911" stroke-miterlimit="8" fill="#FFFFFF" fill-rule="evenodd" transform="matrix(1.00033 0 0 1 306.166 362.404)"/><text font-family="Cambria Math,Cambria Math_MSFontService,sans-serif" font-weight="400" font-size="27" transform="matrix(0.539364 0 0 0.539185 856.214 551)">ğ‘µ<tspan font-size="20" x="20.3334" y="5.56395">ğ’…</tspan></text><path d="M394.414 104.602C394.414 96.1151 401.173 89.2351 409.511 89.2351 417.849 89.2351 424.608 96.1151 424.608 104.602 424.608 113.089 417.849 119.969 409.511 119.969 401.173 119.969 394.414 113.089 394.414 104.602Z" stroke="#000000" stroke-width="0.718911" stroke-miterlimit="8" fill="#FFFFFF" fill-rule="evenodd" transform="matrix(1.00033 0 0 1 306.166 362.404)"/><path d="M516.27 98.4013C516.27 90.0633 523.15 83.3041 531.636 83.3041 540.123 83.3041 547.003 90.0633 547.003 98.4013 547.003 106.739 540.123 113.498 531.636 113.498 523.15 113.498 516.27 106.739 516.27 98.4013Z" stroke="#000000" stroke-width="0.718911" stroke-miterlimit="8" fill="#FFFFFF" fill-rule="evenodd" transform="matrix(1.00033 0 0 1 306.166 362.404)"/><path d="M431.078 279.567C431.078 271.229 437.838 264.47 446.176 264.47 454.513 264.47 461.273 271.229 461.273 279.567 461.273 287.905 454.513 294.665 446.176 294.665 437.838 294.665 431.078 287.905 431.078 279.567Z" stroke="#000000" stroke-width="0.718911" stroke-miterlimit="8" fill="#FFFFFF" fill-rule="evenodd" transform="matrix(1.00033 0 0 1 306.166 362.404)"/><path d="M451.567 184.132C451.567 175.794 458.447 169.034 466.934 169.034 475.421 169.034 482.301 175.794 482.301 184.132 482.301 192.47 475.421 199.229 466.934 199.229 458.447 199.229 451.567 192.47 451.567 184.132Z" stroke="#000000" stroke-width="0.718911" stroke-miterlimit="8" fill="#FFFFFF" fill-rule="evenodd" transform="matrix(1.00033 0 0 1 306.166 362.404)"/><path d="M71.9812 171.73 154.326 253.285" stroke="#767171" stroke-width="1.61755" stroke-miterlimit="8" stroke-dasharray="1.61755 1.61755" fill="none" fill-rule="evenodd" transform="matrix(1.00033 0 0 1 306.166 362.404)"/><path d="M0 0 82.3449 71.7267" stroke="#767171" stroke-width="1.61755" stroke-miterlimit="8" stroke-dasharray="1.61755 1.61755" fill="none" fill-rule="evenodd" transform="matrix(1.00033 0 0 -1 378.171 534.15)"/><path d="M0 0 101.158 25.0558" stroke="#767171" stroke-width="1.61755" stroke-miterlimit="8" stroke-dasharray="1.61755 1.61755" fill="none" fill-rule="evenodd" transform="matrix(1.00033 0 0 -1 482.268 523.604)"/><path d="M313.536 58.7712C313.536 50.2843 320.295 43.4044 328.633 43.4044 336.971 43.4044 343.73 50.2843 343.73 58.7712 343.73 67.2579 336.971 74.1379 328.633 74.1379 320.295 74.1379 313.536 67.2579 313.536 58.7712Z" stroke="#000000" stroke-width="0.718911" stroke-miterlimit="8" fill="#FFFFFF" fill-rule="evenodd" transform="matrix(1.00033 0 0 1 306.166 362.404)"/><path d="M276.871 135.875C276.871 127.388 283.751 120.508 292.238 120.508 300.725 120.508 307.605 127.388 307.605 135.875 307.605 144.361 300.725 151.241 292.238 151.241 283.751 151.241 276.871 144.361 276.871 135.875Z" stroke="#000000" stroke-width="0.718911" stroke-miterlimit="8" fill="#FFFFFF" fill-rule="evenodd" transform="matrix(1.00033 0 0 1 306.166 362.404)"/><path d="M311.379 220.796C311.379 212.458 318.259 205.699 326.746 205.699 335.233 205.699 342.113 212.458 342.113 220.796 342.113 229.134 335.233 235.893 326.746 235.893 318.259 235.893 311.379 229.134 311.379 220.796Z" stroke="#000000" stroke-width="0.718911" stroke-miterlimit="8" fill="#FFFFFF" fill-rule="evenodd" transform="matrix(1.00033 0 0 1 306.166 362.404)"/><path d="M272.558 294.934C272.558 286.447 279.438 279.567 287.925 279.567 296.412 279.567 303.292 286.447 303.292 294.934 303.292 303.421 296.412 310.301 287.925 310.301 279.438 310.301 272.558 303.421 272.558 294.934Z" stroke="#000000" stroke-width="0.718911" stroke-miterlimit="8" fill="#FFFFFF" fill-rule="evenodd" transform="matrix(1.00033 0 0 1 306.166 362.404)"/><path d="M182.514 171.73 311.466 220.639" stroke="#767171" stroke-width="1.61755" stroke-miterlimit="8" stroke-dasharray="1.61755 1.61755" fill="none" fill-rule="evenodd" transform="matrix(1.00033 0 0 1 306.166 362.404)"/><path d="M176.044 182.514 277.201 284.066" stroke="#767171" stroke-width="1.61755" stroke-miterlimit="8" stroke-dasharray="1.61755 1.61755" fill="none" fill-rule="evenodd" transform="matrix(1.00033 0 0 1 306.166 362.404)"/><path d="M0 0 21.0859 51.8951" stroke="#767171" stroke-width="1.61755" stroke-miterlimit="8" stroke-dasharray="1.61755 1.61755" fill="none" fill-rule="evenodd" transform="matrix(1.00033 0 0 -1 609.558 487.359)"/><path d="M0 0 86.7279 31.3867" stroke="#767171" stroke-width="1.61755" stroke-miterlimit="8" stroke-dasharray="1.61755 1.61755" fill="none" fill-rule="evenodd" transform="matrix(1.00033 0 0 -1 613.873 498.124)"/><path d="M343.73 61.1975 398.468 93.7459" stroke="#767171" stroke-width="1.61755" stroke-miterlimit="8" stroke-dasharray="1.61755 1.61755" fill="none" fill-rule="evenodd" transform="matrix(1.00033 0 0 1 306.166 362.404)"/><path d="M180.357 264.47 272.562 295.274" stroke="#767171" stroke-width="1.61755" stroke-miterlimit="8" stroke-dasharray="1.61755 1.61755" fill="none" fill-rule="evenodd" transform="matrix(1.00033 0 0 1 306.166 362.404)"/><path d="M165.26 104.332 165.26 156.298" stroke="#767171" stroke-width="1.61755" stroke-miterlimit="8" stroke-dasharray="1.61755 1.61755" fill="none" fill-rule="evenodd" transform="matrix(1.00033 0 0 1 306.166 362.404)"/><path d="M165.26 187.367 165.26 248.691" stroke="#767171" stroke-width="1.61755" stroke-miterlimit="8" stroke-dasharray="1.61755 1.61755" fill="none" fill-rule="evenodd" transform="matrix(1.00033 0 0 1 306.166 362.404)"/><path d="M180.357 89.2351 281.515 125.098" stroke="#767171" stroke-width="1.61755" stroke-miterlimit="8" stroke-dasharray="1.61755 1.61755" fill="none" fill-rule="evenodd" transform="matrix(1.00033 0 0 1 306.166 362.404)"/><path d="M0 0 133.148 30.568" stroke="#767171" stroke-width="1.61755" stroke-miterlimit="8" stroke-dasharray="1.61755 1.61755" fill="none" fill-rule="evenodd" transform="matrix(1.00033 0 0 -1 486.583 451.474)"/><path d="M303.292 146.928 327.081 205.608" stroke="#767171" stroke-width="1.61755" stroke-miterlimit="8" stroke-dasharray="1.61755 1.61755" fill="none" fill-rule="evenodd" transform="matrix(1.00033 0 0 1 306.166 362.404)"/><path d="M0 0 28.2666 48.1664" stroke="#767171" stroke-width="1.61755" stroke-miterlimit="8" stroke-dasharray="1.61755 1.61755" fill="none" fill-rule="evenodd" transform="matrix(-1.00033 0 0 1 632.98 598.298)"/><path d="M0 0 127.886 15.5204" stroke="#767171" stroke-width="1.61755" stroke-miterlimit="8" stroke-dasharray="1.61755 1.61755" fill="none" fill-rule="evenodd" transform="matrix(-1.00033 0 0 1 737.486 641.972)"/><path d="M0 0 19.6346 66.0507" stroke="#767171" stroke-width="1.61755" stroke-miterlimit="8" stroke-dasharray="1.61755 1.61755" fill="none" fill-rule="evenodd" transform="matrix(-1.00033 0 0 1 772.13 560.555)"/><path d="M343.73 228.884 435.15 268.844" stroke="#767171" stroke-width="1.61755" stroke-miterlimit="8" stroke-dasharray="1.61755 1.61755" fill="none" fill-rule="evenodd" transform="matrix(1.00033 0 0 1 306.166 362.404)"/><path d="M0 0 109.669 36.6817" stroke="#767171" stroke-width="1.61755" stroke-miterlimit="8" stroke-dasharray="1.61755 1.61755" fill="none" fill-rule="evenodd" transform="matrix(1.00033 0 0 -1 648.392 583.218)"/><path d="M0 0 61.0837 94.5439" stroke="#767171" stroke-width="1.61755" stroke-miterlimit="8" stroke-dasharray="1.61755 1.61755" fill="none" fill-rule="evenodd" transform="matrix(1.00033 0 0 -1 644.077 572.604)"/><path d="M456.218 173.518 420.295 115.655" stroke="#767171" stroke-width="1.61755" stroke-miterlimit="8" stroke-dasharray="1.61755 1.61755" fill="none" fill-rule="evenodd" transform="matrix(1.00033 0 0 1 306.166 362.404)"/><path d="M0 0 91.7046 6.11349" stroke="#767171" stroke-width="1.61755" stroke-miterlimit="8" stroke-dasharray="1.61755 1.61755" fill="none" fill-rule="evenodd" transform="matrix(-1.00033 0 0 1 822.65 460.806)"/><path d="M0 0 43.1191 63.9759" stroke="#767171" stroke-width="1.61755" stroke-miterlimit="8" stroke-dasharray="1.61755 1.61755" fill="none" fill-rule="evenodd" transform="matrix(-1.00033 0 0 1 827.445 471.589)"/><path d="M0 0 63.7042 5.66074e-05" stroke="#767171" stroke-width="1.61755" stroke-miterlimit="8" stroke-dasharray="1.61755 1.61755" fill="none" fill-rule="evenodd" transform="matrix(-1.00033 0 0 1 852.352 546.536)"/><path d="M0 0 89.0372 84.6116" stroke="#767171" stroke-width="1.61755" stroke-miterlimit="8" stroke-dasharray="1.61755 1.61755" fill="none" fill-rule="evenodd" transform="matrix(-1.00033 0 0 1 856.656 557.32)"/><path d="M542.69 109.185 561.421 168.684" stroke="#767171" stroke-width="1.61755" stroke-miterlimit="8" stroke-dasharray="1.61755 1.61755" fill="none" fill-rule="evenodd" transform="matrix(1.00033 0 0 1 306.166 362.404)"/><path d="M182.763 167.821 304.314 212.735 303.816 214.084 182.265 169.17ZM304.138 211.138 307.437 214.655 302.643 215.184Z" fill="#2E75B6" transform="matrix(1.00033 0 0 1 306.166 362.404)"/><path d="M0.227441-0.681988 104.355 34.0442 103.9 35.4082-0.227441 0.681988ZM104.127 32.4527 107.537 35.8633 102.763 36.5447Z" fill="#2E75B6" transform="matrix(1.00033 0 0 -1 648.931 578.625)"/><path d="M482.306 180.178 543.062 180.617 543.051 182.055 482.296 181.615ZM542.355 179.174 546.653 181.362 542.323 183.487Z" fill="#2E75B6" transform="matrix(1.00033 0 0 1 306.166 362.404)"/><text font-family="Yu Gothic,Yu Gothic_MSFontService,sans-serif" font-weight="700" font-size="19" transform="matrix(0.539364 0 0 0.539185 863.479 654)">Opportunisti<tspan font-size="19" x="113.667" y="0">c</tspan><tspan font-size="19" x="129.333" y="0">Route</tspan></text><path d="M0.000249164-0.718911 26.295-0.709799 26.2945 0.728029-0.000249164 0.718911ZM25.5766-2.14788 29.8893 0.0103591 25.5751 2.1656Z" fill="#70AD47" transform="matrix(1.00033 0 0 -1 829.079 651.687)"/><path d="M525.975 302.213 545.386 302.213 545.386 320.545 525.975 320.545Z" stroke="#FF0000" stroke-width="1.43783" stroke-linejoin="round" stroke-miterlimit="10" fill="none" transform="matrix(1.00033 0 0 1 306.166 362.404)"/><text font-family="Yu Gothic,Yu Gothic_MSFontService,sans-serif" font-weight="700" font-size="19" transform="matrix(0.539364 0 0 0.539185 863.479 678)">Opportunisti<tspan font-size="19" x="113.667" y="0">c</tspan><tspan font-size="19" x="129.333" y="0">Relay</tspan></text><path d="M0 0 27.3292 5.66074e-05" stroke="#767171" stroke-width="1.61755" stroke-miterlimit="8" stroke-dasharray="1.61755 1.61755" fill="none" fill-rule="evenodd" transform="matrix(-1.00033 0 0 1 855.88 697.508)"/><text font-family="Yu Gothic,Yu Gothic_MSFontService,sans-serif" font-weight="700" font-size="19" transform="matrix(0.539364 0 0 0.539185 863.938 701)">Wireless<tspan font-size="19" x="82.3332" y="0">Lin</tspan>k<tspan font-size="19" x="0" y="-126.116">Gegraphic</tspan><tspan font-size="19" x="98.3332" y="-126.116">Route</tspan></text><path d="M0.000249164-0.718911 26.295-0.709799 26.2945 0.728029-0.000249164 0.718911ZM25.5766-2.14788 29.8893 0.0103591 25.5751 2.1656Z" fill="#2E75B6" transform="matrix(1.00033 0 0 -1 829.618 630.12)"/><text font-family="Yu Gothic,Yu Gothic_MSFontService,sans-serif" font-weight="700" font-size="19" transform="matrix(0.539364 0 0 0.539185 863.938 720)">Source<tspan font-size="19" x="68.8333" y="0">Node</tspan><tspan font-size="19" x="0.843392" y="37.093">Destination</tspan><tspan font-size="19" x="111.343" y="37.093">Nod</tspan><tspan font-size="19" x="149.343" y="37.093">e</tspan></text><path d="M529.21 352.897C529.21 347.834 533.314 343.73 538.376 343.73 543.439 343.73 547.542 347.834 547.542 352.897 547.542 357.959 543.439 362.063 538.376 362.063 533.314 362.063 529.21 357.959 529.21 352.897Z" stroke="#000000" stroke-width="0.718911" stroke-miterlimit="8" fill="#FFFFFF" fill-rule="evenodd" transform="matrix(1.00033 0 0 1 306.166 362.404)"/><text font-family="Cambria Math,Cambria Math_MSFontService,sans-serif" font-weight="400" font-size="19" transform="matrix(0.539364 0 0 0.539185 836.953 718)">ğ‘µ<tspan font-size="14" x="14.1667" y="3.7093">ğ’”</tspan></text><path d="M529.21 374.464C529.21 369.402 533.314 365.298 538.376 365.298 543.439 365.298 547.542 369.402 547.542 374.464 547.542 379.526 543.439 383.63 538.376 383.63 533.314 383.63 529.21 379.526 529.21 374.464Z" stroke="#000000" stroke-width="0.718911" stroke-miterlimit="8" fill="#FFFFFF" fill-rule="evenodd" transform="matrix(1.00033 0 0 1 306.166 362.404)"/><text font-family="Cambria Math,Cambria Math_MSFontService,sans-serif" font-weight="400" font-size="19" transform="matrix(0.539364 0 0 0.539185 836.527 740)">ğ‘µ<tspan font-size="14" x="14.1667" y="3.7093">ğ’…</tspan></text></g></g></g></g></g></svg>