<svg width="888" height="633" xmlns="http://www.w3.org/2000/svg" xmlns:xlink="http://www.w3.org/1999/xlink" overflow="hidden"><defs><clipPath id="clip0"><rect x="185" y="87" width="888" height="633"/></clipPath></defs><g clip-path="url(#clip0)" transform="translate(-185 -87)"><path d="M186.5 175.335C186.5 127.377 225.377 88.5001 273.335 88.5001L916.665 88.5001C964.623 88.5001 1003.5 127.377 1003.5 175.335L1003.5 522.665C1003.5 570.623 964.623 609.5 916.665 609.5L273.335 609.5C225.377 609.5 186.5 570.623 186.5 522.665Z" stroke="#000000" stroke-width="1.33333" stroke-miterlimit="8" fill="#FFFFFF" fill-rule="evenodd"/><rect x="638.5" y="111.5" width="274" height="204" stroke="#000000" stroke-width="1.33333" stroke-miterlimit="8" fill="#B4C7E7"/><text font-family="Yu Gothic,Yu Gothic_MSFontService,sans-serif" font-weight="700" font-size="19" transform="translate(762.986 128)">Geocast<tspan font-size="19" x="80" y="0">Region</tspan></text><path d="M0.742952-0.899518 56.3077 44.9939 54.8218 46.7929-0.742952 0.899518ZM57.0839 41.9602 60.7048 50.1388 51.9894 48.1283Z" fill="#FF0000" transform="matrix(1 0 0 -1 303 492.139)"/><text font-family="Cambria Math,Cambria Math_MSFontService,sans-serif" font-weight="400" font-size="24" transform="translate(270.759 522)">ğ‘º</text><path d="M290.5 497.5C290.5 493.082 294.082 489.5 298.5 489.5 302.918 489.5 306.5 493.082 306.5 497.5 306.5 501.918 302.918 505.5 298.5 505.5 294.082 505.5 290.5 501.918 290.5 497.5Z" stroke="#000000" stroke-width="1.33333" stroke-miterlimit="8" fill-rule="evenodd"/><path d="M357.5 434.5C357.5 430.082 360.858 426.5 365 426.5 369.142 426.5 372.5 430.082 372.5 434.5 372.5 438.918 369.142 442.5 365 442.5 360.858 442.5 357.5 438.918 357.5 434.5Z" stroke="#000000" stroke-width="1.33333" stroke-miterlimit="8" fill-rule="evenodd"/><path d="M256.5 414C256.5 409.858 259.858 406.5 264 406.5 268.142 406.5 271.5 409.858 271.5 414 271.5 418.142 268.142 421.5 264 421.5 259.858 421.5 256.5 418.142 256.5 414Z" stroke="#000000" stroke-width="1.33333" stroke-miterlimit="8" fill-rule="evenodd"/><path d="M1.07448-0.454529 31.3145 71.0314 29.1656 71.9405-1.07448 0.454529ZM33.4046 68.6997 32.8374 77.6259 26.0367 71.8164Z" fill="#FF0000" transform="matrix(1 0 0 -1 298 489.626)"/><path d="M396.5 474C396.5 469.858 399.858 466.5 404 466.5 408.142 466.5 411.5 469.858 411.5 474 411.5 478.142 408.142 481.5 404 481.5 399.858 481.5 396.5 478.142 396.5 474Z" stroke="#000000" stroke-width="1.33333" stroke-miterlimit="8" fill-rule="evenodd"/><path d="M274.5 356C274.5 351.858 277.858 348.5 282 348.5 286.142 348.5 289.5 351.858 289.5 356 289.5 360.142 286.142 363.5 282 363.5 277.858 363.5 274.5 360.142 274.5 356Z" stroke="#000000" stroke-width="1.33333" stroke-miterlimit="8" fill-rule="evenodd"/><text font-family="Yu Gothic,Yu Gothic_MSFontService,sans-serif" font-weight="700" font-size="19" transform="translate(732.195 599)">Network Space</text><path d="M491.5 467C491.5 462.858 495.082 459.5 499.5 459.5 503.918 459.5 507.5 462.858 507.5 467 507.5 471.142 503.918 474.5 499.5 474.5 495.082 474.5 491.5 471.142 491.5 467Z" stroke="#000000" stroke-width="1.33333" stroke-miterlimit="8" fill-rule="evenodd"/><path d="M767.5 213C767.5 208.858 771.082 205.5 775.5 205.5 779.918 205.5 783.5 208.858 783.5 213 783.5 217.142 779.918 220.5 775.5 220.5 771.082 220.5 767.5 217.142 767.5 213Z" stroke="#000000" stroke-width="1.33333" stroke-miterlimit="8" fill="#FF0000" fill-rule="evenodd"/><text font-family="Yu Gothic,Yu Gothic_MSFontService,sans-serif" font-weight="700" font-size="19" transform="translate(797.747 234)">Center Coordinates</text><path d="M436.5 408C436.5 403.858 439.858 400.5 444 400.5 448.142 400.5 451.5 403.858 451.5 408 451.5 412.142 448.142 415.5 444 415.5 439.858 415.5 436.5 412.142 436.5 408Z" stroke="#000000" stroke-width="1.33333" stroke-miterlimit="8" fill-rule="evenodd"/><path d="M341.5 277C341.5 272.858 345.082 269.5 349.5 269.5 353.918 269.5 357.5 272.858 357.5 277 357.5 281.142 353.918 284.5 349.5 284.5 345.082 284.5 341.5 281.142 341.5 277Z" stroke="#000000" stroke-width="1.33333" stroke-miterlimit="8" fill-rule="evenodd"/><path d="M318.5 407C318.5 402.858 321.858 399.5 326 399.5 330.142 399.5 333.5 402.858 333.5 407 333.5 411.142 330.142 414.5 326 414.5 321.858 414.5 318.5 411.142 318.5 407Z" stroke="#000000" stroke-width="1.33333" stroke-miterlimit="8" fill-rule="evenodd"/><path d="M0.290056-1.13003 84.1634 20.3985 83.5833 22.6585-0.290056 1.13003ZM83.5763 17.3226 90.3306 23.1859 81.5873 25.0714Z" fill="#FF0000" transform="matrix(1 0 0 -1 306 497.186)"/><path d="M371.5 330C371.5 325.858 375.082 322.5 379.5 322.5 383.918 322.5 387.5 325.858 387.5 330 387.5 334.142 383.918 337.5 379.5 337.5 375.082 337.5 371.5 334.142 371.5 330Z" stroke="#000000" stroke-width="1.33333" stroke-miterlimit="8" fill-rule="evenodd"/><path d="M398.5 387C398.5 382.858 401.858 379.5 406 379.5 410.142 379.5 413.5 382.858 413.5 387 413.5 391.142 410.142 394.5 406 394.5 401.858 394.5 398.5 391.142 398.5 387Z" stroke="#000000" stroke-width="1.33333" stroke-miterlimit="8" fill-rule="evenodd"/><path d="M419.5 339C419.5 334.858 423.082 331.5 427.5 331.5 431.918 331.5 435.5 334.858 435.5 339 435.5 343.142 431.918 346.5 427.5 346.5 423.082 346.5 419.5 343.142 419.5 339Z" stroke="#000000" stroke-width="1.33333" stroke-miterlimit="8" fill-rule="evenodd"/><path d="M502.5 292.5C502.5 288.082 505.858 284.5 510 284.5 514.142 284.5 517.5 288.082 517.5 292.5 517.5 296.918 514.142 300.5 510 300.5 505.858 300.5 502.5 296.918 502.5 292.5Z" stroke="#000000" stroke-width="1.33333" stroke-miterlimit="8" fill-rule="evenodd"/><path d="M451.5 277C451.5 272.858 454.858 269.5 459 269.5 463.142 269.5 466.5 272.858 466.5 277 466.5 281.142 463.142 284.5 459 284.5 454.858 284.5 451.5 281.142 451.5 277Z" stroke="#000000" stroke-width="1.33333" stroke-miterlimit="8" fill-rule="evenodd"/><path d="M509.5 358C509.5 353.858 512.858 350.5 517 350.5 521.142 350.5 524.5 353.858 524.5 358 524.5 362.142 521.142 365.5 517 365.5 512.858 365.5 509.5 362.142 509.5 358Z" stroke="#000000" stroke-width="1.33333" stroke-miterlimit="8" fill-rule="evenodd"/><path d="M524.5 406C524.5 401.858 527.858 398.5 532 398.5 536.142 398.5 539.5 401.858 539.5 406 539.5 410.142 536.142 413.5 532 413.5 527.858 413.5 524.5 410.142 524.5 406Z" stroke="#000000" stroke-width="1.33333" stroke-miterlimit="8" fill-rule="evenodd"/><path d="M466.5 359C466.5 354.858 469.858 351.5 474 351.5 478.142 351.5 481.5 354.858 481.5 359 481.5 363.142 478.142 366.5 474 366.5 469.858 366.5 466.5 363.142 466.5 359Z" stroke="#000000" stroke-width="1.33333" stroke-miterlimit="8" fill-rule="evenodd"/><path d="M0.358423-1.11024 60.478 18.2983 59.7612 20.5188-0.358423 1.11024ZM60.0796 15.1924 66.4638 21.4567 57.6218 22.8055Z" fill="#FF0000" transform="matrix(1 0 0 -1 372 434.457)"/><path d="M0.821039-0.828858 31.2965 29.3591 29.6544 31.0168-0.821039 0.828858ZM32.3432 26.4078 35.2118 34.8796 26.7132 32.0914Z" fill="#FF0000" transform="matrix(1 0 0 -1 369 428.88)"/><path d="M0.671008-0.95439 57.9035 39.2844 56.5614 41.1931-0.671008 0.95439ZM58.4423 36.1997 62.6861 44.0731 53.8411 42.7441Z" fill="#FF0000" transform="matrix(1 0 0 -1 449 407.073)"/><path d="M0.0294827-1.16629 66.593 0.516362 66.534 2.84895-0.0294827 1.16629ZM65.3317-2.34976 73.228 1.85113 65.1295 5.64768Z" fill="#FF0000" transform="matrix(1 0 0 -1 451 406.851)"/><path d="M1.00117-0.598976 20.2556 31.5842 18.2533 32.7822-1.00117 0.598976ZM22.0025 28.9854 22.6772 37.9041 15.1373 33.0926Z" fill="#FF0000" transform="matrix(1 0 0 -1 451 404.904)"/><path d="M564.5 338C564.5 333.858 567.858 330.5 572 330.5 576.142 330.5 579.5 333.858 579.5 338 579.5 342.142 576.142 345.5 572 345.5 567.858 345.5 564.5 342.142 564.5 338Z" stroke="#000000" stroke-width="1.33333" stroke-miterlimit="8" fill-rule="evenodd"/><path d="M603.5 372C603.5 367.858 606.858 364.5 611 364.5 615.142 364.5 618.5 367.858 618.5 372 618.5 376.142 615.142 379.5 611 379.5 606.858 379.5 603.5 376.142 603.5 372Z" stroke="#000000" stroke-width="1.33333" stroke-miterlimit="8" fill-rule="evenodd"/><path d="M587.5 198C587.5 193.858 590.858 190.5 595 190.5 599.142 190.5 602.5 193.858 602.5 198 602.5 202.142 599.142 205.5 595 205.5 590.858 205.5 587.5 202.142 587.5 198Z" stroke="#000000" stroke-width="1.33333" stroke-miterlimit="8" fill-rule="evenodd"/><path d="M755.5 343C755.5 338.858 758.858 335.5 763 335.5 767.142 335.5 770.5 338.858 770.5 343 770.5 347.142 767.142 350.5 763 350.5 758.858 350.5 755.5 347.142 755.5 343Z" stroke="#000000" stroke-width="1.33333" stroke-miterlimit="8" fill-rule="evenodd"/><path d="M505.5 234C505.5 229.858 508.858 226.5 513 226.5 517.142 226.5 520.5 229.858 520.5 234 520.5 238.142 517.142 241.5 513 241.5 508.858 241.5 505.5 238.142 505.5 234Z" stroke="#000000" stroke-width="1.33333" stroke-miterlimit="8" fill-rule="evenodd"/><path d="M581.5 265.5C581.5 261.082 584.858 257.5 589 257.5 593.142 257.5 596.5 261.082 596.5 265.5 596.5 269.918 593.142 273.5 589 273.5 584.858 273.5 581.5 269.918 581.5 265.5Z" stroke="#000000" stroke-width="1.33333" stroke-miterlimit="8" fill-rule="evenodd"/><path d="M403.5 222C403.5 217.858 407.082 214.5 411.5 214.5 415.918 214.5 419.5 217.858 419.5 222 419.5 226.142 415.918 229.5 411.5 229.5 407.082 229.5 403.5 226.142 403.5 222Z" stroke="#000000" stroke-width="1.33333" stroke-miterlimit="8" fill-rule="evenodd"/><path d="M588.5 303.5C588.5 299.082 591.858 295.5 596 295.5 600.142 295.5 603.5 299.082 603.5 303.5 603.5 307.918 600.142 311.5 596 311.5 591.858 311.5 588.5 307.918 588.5 303.5Z" stroke="#000000" stroke-width="1.33333" stroke-miterlimit="8" fill-rule="evenodd"/><path d="M678.5 380C678.5 375.858 681.858 372.5 686 372.5 690.142 372.5 693.5 375.858 693.5 380 693.5 384.142 690.142 387.5 686 387.5 681.858 387.5 678.5 384.142 678.5 380Z" stroke="#000000" stroke-width="1.33333" stroke-miterlimit="8" fill-rule="evenodd"/><path d="M725.5 173C725.5 168.858 728.858 165.5 733 165.5 737.142 165.5 740.5 168.858 740.5 173 740.5 177.142 737.142 180.5 733 180.5 728.858 180.5 725.5 177.142 725.5 173Z" stroke="#000000" stroke-width="1.33333" stroke-miterlimit="8" fill-rule="evenodd"/><path d="M710.5 245C710.5 240.858 714.082 237.5 718.5 237.5 722.918 237.5 726.5 240.858 726.5 245 726.5 249.142 722.918 252.5 718.5 252.5 714.082 252.5 710.5 249.142 710.5 245Z" stroke="#000000" stroke-width="1.33333" stroke-miterlimit="8" fill-rule="evenodd"/><path d="M806.5 264C806.5 259.858 809.858 256.5 814 256.5 818.142 256.5 821.5 259.858 821.5 264 821.5 268.142 818.142 271.5 814 271.5 809.858 271.5 806.5 268.142 806.5 264Z" stroke="#000000" stroke-width="1.33333" stroke-miterlimit="8" fill-rule="evenodd"/><path d="M747.5 285C747.5 280.858 750.858 277.5 755 277.5 759.142 277.5 762.5 280.858 762.5 285 762.5 289.142 759.142 292.5 755 292.5 750.858 292.5 747.5 289.142 747.5 285Z" stroke="#000000" stroke-width="1.33333" stroke-miterlimit="8" fill-rule="evenodd"/><path d="M830.5 290C830.5 285.858 833.858 282.5 838 282.5 842.142 282.5 845.5 285.858 845.5 290 845.5 294.142 842.142 297.5 838 297.5 833.858 297.5 830.5 294.142 830.5 290Z" stroke="#000000" stroke-width="1.33333" stroke-miterlimit="8" fill-rule="evenodd"/><path d="M671.5 157C671.5 152.858 674.858 149.5 679 149.5 683.142 149.5 686.5 152.858 686.5 157 686.5 161.142 683.142 164.5 679 164.5 674.858 164.5 671.5 161.142 671.5 157Z" stroke="#000000" stroke-width="1.33333" stroke-miterlimit="8" fill-rule="evenodd"/><path d="M819.5 174C819.5 169.858 823.082 166.5 827.5 166.5 831.918 166.5 835.5 169.858 835.5 174 835.5 178.142 831.918 181.5 827.5 181.5 823.082 181.5 819.5 178.142 819.5 174Z" stroke="#000000" stroke-width="1.33333" stroke-miterlimit="8" fill-rule="evenodd"/><path d="M655.5 225C655.5 220.858 659.082 217.5 663.5 217.5 667.918 217.5 671.5 220.858 671.5 225 671.5 229.142 667.918 232.5 663.5 232.5 659.082 232.5 655.5 229.142 655.5 225Z" stroke="#000000" stroke-width="1.33333" stroke-miterlimit="8" fill-rule="evenodd"/><path d="M645.5 279C645.5 274.858 648.858 271.5 653 271.5 657.142 271.5 660.5 274.858 660.5 279 660.5 283.142 657.142 286.5 653 286.5 648.858 286.5 645.5 283.142 645.5 279Z" stroke="#000000" stroke-width="1.33333" stroke-miterlimit="8" fill-rule="evenodd"/><path d="M678.5 299C678.5 294.858 681.858 291.5 686 291.5 690.142 291.5 693.5 294.858 693.5 299 693.5 303.142 690.142 306.5 686 306.5 681.858 306.5 678.5 303.142 678.5 299Z" stroke="#000000" stroke-width="1.33333" stroke-miterlimit="8" fill-rule="evenodd"/><path d="M873.5 335C873.5 330.858 877.082 327.5 881.5 327.5 885.918 327.5 889.5 330.858 889.5 335 889.5 339.142 885.918 342.5 881.5 342.5 877.082 342.5 873.5 339.142 873.5 335Z" stroke="#000000" stroke-width="1.33333" stroke-miterlimit="8" fill-rule="evenodd"/><path d="M621.5 455C621.5 450.858 624.858 447.5 629 447.5 633.142 447.5 636.5 450.858 636.5 455 636.5 459.142 633.142 462.5 629 462.5 624.858 462.5 621.5 459.142 621.5 455Z" stroke="#000000" stroke-width="1.33333" stroke-miterlimit="8" fill-rule="evenodd"/><path d="M0.695739-0.936514 61.2989 44.0858 59.9075 45.9588-0.695739 0.936514ZM61.9183 41.0163 65.9548 48.998 57.1475 47.4381Z" fill="#FF0000" transform="matrix(1 0 0 -1 524 356.998)"/><path d="M0.361911-1.10911 39.1351 11.5428 38.4113 13.7611-0.361911 1.10911ZM38.7465 8.43565 45.111 14.72 36.2648 16.041Z" fill="#FF0000" transform="matrix(1 0 0 -1 521 357.72)"/><path d="M695.5 194C695.5 189.858 698.858 186.5 703 186.5 707.142 186.5 710.5 189.858 710.5 194 710.5 198.142 707.142 201.5 703 201.5 698.858 201.5 695.5 198.142 695.5 194Z" stroke="#000000" stroke-width="1.33333" stroke-miterlimit="8" fill-rule="evenodd"/><path d="M0.453697-1.07483 38.7486 15.0898 37.8412 17.2395-0.453697 1.07483ZM38.6221 11.961 44.4368 18.7572 35.511 19.3312Z" fill="#FF0000" transform="matrix(1 0 0 -1 603 302.757)"/><path d="M0.141414-1.15806 70.829 7.47375 70.5462 9.78988-0.141414 1.15806ZM69.8489 4.49969 77.3051 9.43989 68.8792 12.4407Z" fill="#FF0000" transform="matrix(1 0 0 -1 601 308.44)"/><path d="M300.075 390.628C309.268 376.746 347.119 385.622 384.618 410.455 422.116 435.287 445.062 466.671 435.869 480.554 426.675 494.436 388.824 485.56 351.326 460.727 313.828 435.895 290.882 404.511 300.075 390.628Z" fill="#4472C4" fill-rule="evenodd" fill-opacity="0.501961"/><path d="M383.914 374.494C388.953 365.931 411.956 370.122 435.292 383.855 458.628 397.587 473.46 415.661 468.421 424.224 463.383 432.787 440.38 428.596 417.044 414.863 393.708 401.131 378.875 383.057 383.914 374.494Z" fill="#4472C4" fill-rule="evenodd" fill-opacity="0.501961"/><path d="M457.787 331.301C470.788 316.803 503.354 324.802 530.526 349.168 557.697 373.533 569.185 405.039 556.184 419.537 543.183 434.035 510.616 426.035 483.445 401.67 456.274 377.304 444.786 345.799 457.787 331.301Z" fill="#4472C4" fill-rule="evenodd" fill-opacity="0.501961"/><path d="M612.58 280.663C620.579 286.557 615.063 307.621 600.261 327.712 585.458 347.803 566.974 359.312 558.975 353.419 550.976 347.526 556.492 326.461 571.295 306.37 586.097 286.279 604.582 274.77 612.58 280.663Z" fill="#4472C4" fill-rule="evenodd" fill-opacity="0.501961"/><path d="M0.343667-1.28828 47.1332 11.1935 46.4459 13.7701-0.343667 1.28828ZM46.5323 8.27326 53.231 14.2001 44.4703 16.0029Z" fill="#70AD47" transform="matrix(1 0 0 -1 693.5 299.7)"/><path d="M1.11567-0.730109 24.3214 34.7303 22.0901 36.1905-1.11567 0.730109ZM25.8226 32.1544 26.8563 41.0387 19.1286 36.535Z" fill="#70AD47" transform="matrix(1 0 0 -1 691.5 293.539)"/><path d="M680.162 295.047 664.13 288.311 665.163 285.853 681.195 292.588ZM664.326 291.286 658.5 284.5 667.425 283.911Z" fill="#70AD47"/><path d="M755.806 292.233 763.125 328.103 760.513 328.636 753.194 292.767ZM765.472 326.264 763.152 334.902 757.633 327.863Z" fill="#70AD47"/><path d="M762.594 284.17 824.25 288.513 824.063 291.173 762.406 286.83ZM823.107 285.759 830.807 290.311 822.545 293.739Z" fill="#70AD47"/><path d="M0.346167-1.28761 45.435 10.8343 44.7427 13.4095-0.346167 1.28761ZM44.8398 7.91286 51.5269 13.8527 42.7628 15.6385Z" fill="#70AD47" transform="matrix(1 0 0 -1 762.5 285.353)"/><path d="M844.365 294.486 877.39 322.65 875.659 324.679 842.635 296.515ZM878.105 319.756 881.597 327.99 872.914 325.843Z" fill="#70AD47"/><path d="M832.147 285.913 822.899 275.388 824.902 273.628 834.15 284.152ZM821.776 278.15 819.5 269.5 827.785 272.869Z" fill="#70AD47"/><path d="M1.29459-0.319086 13.866 50.6853 11.2768 51.3235-1.29459 0.319086ZM16.1361 48.7526 14.1668 57.4774 8.36854 50.6671Z" fill="#70AD47" transform="matrix(1 0 0 -1 718.5 237.977)"/><path d="M711.602 240.37 707.895 206.272 710.546 205.984 714.253 240.082ZM705.388 207.886 708.5 199.5 713.341 207.021Z" fill="#70AD47"/><path d="M710.07 247.091 674.306 234.038 675.22 231.533 710.984 244.586ZM674.644 237 668.5 230.5 677.387 229.485Z" fill="#70AD47"/><path d="M684.884 292.392 665.492 238.226 668.002 237.327 687.395 291.493ZM663.431 240.38 664.5 231.5 670.963 237.684Z" fill="#70AD47"/><path d="M647.455 277.736 600.978 272.563 601.273 269.912 647.75 275.085ZM602.008 275.361 594.5 270.5 602.893 267.41Z" fill="#70AD47"/><path d="M772.5 151C772.5 146.858 775.858 143.5 780 143.5 784.142 143.5 787.5 146.858 787.5 151 787.5 155.142 784.142 158.5 780 158.5 775.858 158.5 772.5 155.142 772.5 151Z" stroke="#000000" stroke-width="1.33333" stroke-miterlimit="8" fill-rule="evenodd"/><path d="M697.274 189.444 686.444 169.015 688.801 167.766 699.63 188.195ZM684.713 171.442 684.5 162.5 691.781 167.695Z" fill="#70AD47"/><path d="M0.6551-1.1613 13.4433 6.05265 12.1331 8.37525-0.6551 1.1613ZM13.5922 3.07494 18.5947 10.4894 9.66164 10.0428Z" fill="#70AD47" transform="matrix(1 0 0 -1 708.5 188.99)"/><path d="M0.576819-1.20211 29.0528 12.4618 27.8992 14.866-0.576819 1.20211ZM29.0043 9.4808 34.4865 16.548 25.5434 16.6934Z" fill="#70AD47" transform="matrix(1 0 0 -1 740.5 173.048)"/><path d="M785.963 153.25 816.732 164.632 815.807 167.133 785.037 155.751ZM816.406 161.668 822.522 168.195 813.631 169.171Z" fill="#70AD47"/><path d="M0.766789-1.09079 24.4354 15.5475 22.9018 17.7291-0.766789 1.09079ZM24.8782 12.5991 29.1225 20.4722 20.2774 19.1439Z" fill="#70AD47" transform="matrix(1 0 0 -1 668.5 219.972)"/><path d="M1.31243-0.23515 9.96198 48.0402 7.33712 48.5105-1.31243 0.23515ZM12.3517 46.2574 9.8253 54.8375 4.4771 47.6683Z" fill="#70AD47" transform="matrix(1 0 0 -1 663.5 217.338)"/><path d="M1.43824e-06-1.16667 78.496-1.16657 78.496 1.16676-1.43824e-06 1.16667ZM77.1626-3.99991 85.1626 0.000104987 77.1626 4.0001Z" fill="#FF0000" transform="matrix(1 0 0 -1 788 632)"/><text font-family="Yu Gothic,Yu Gothic_MSFontService,sans-serif" font-weight="700" font-size="19" transform="translate(887.628 637)">SIGO forwarding<tspan font-size="19" x="1.76642" y="33">Flooding</tspan></text><path d="M1.43824e-06-1.16667 78.496-1.16657 78.496 1.16676-1.43824e-06 1.16667ZM77.1626-3.99991 85.1626 0.000104987 77.1626 4.0001Z" fill="#70AD47" transform="matrix(1 0 0 -1 788 664)"/><path d="M861 699C861 706.18 847.121 712 830 712 812.879 712 799 706.18 799 699 799 691.82 812.879 686 830 686 847.121 686 861 691.82 861 699Z" fill="#4472C4" fill-rule="evenodd" fill-opacity="0.501961"/><text font-family="Yu Gothic,Yu Gothic_MSFontService,sans-serif" font-weight="700" font-size="19" transform="translate(889.394 702)">RCS</text></g></svg>