<svg width="483" height="305" xmlns="http://www.w3.org/2000/svg" xmlns:xlink="http://www.w3.org/1999/xlink" overflow="hidden"><defs><clipPath id="clip0"><rect x="50" y="56" width="483" height="305"/></clipPath><clipPath id="clip1"><rect x="50" y="56" width="481" height="304"/></clipPath><clipPath id="clip2"><rect x="50" y="56" width="481" height="304"/></clipPath><clipPath id="clip3"><rect x="122" y="72" width="396" height="195"/></clipPath><clipPath id="clip4"><rect x="50" y="56" width="481" height="304"/></clipPath><clipPath id="clip5"><rect x="122" y="72" width="396" height="195"/></clipPath><clipPath id="clip6"><rect x="50" y="56" width="481" height="304"/></clipPath><clipPath id="clip7"><rect x="50" y="56" width="481" height="304"/></clipPath><clipPath id="clip8"><rect x="50" y="56" width="481" height="304"/></clipPath><clipPath id="clip9"><rect x="50" y="56" width="481" height="304"/></clipPath><clipPath id="clip10"><rect x="50" y="56" width="481" height="304"/></clipPath><clipPath id="clip11"><rect x="50" y="56" width="481" height="304"/></clipPath><clipPath id="clip12"><rect x="50" y="56" width="481" height="304"/></clipPath><clipPath id="clip13"><rect x="50" y="56" width="481" height="304"/></clipPath><clipPath id="clip14"><rect x="50" y="56" width="481" height="304"/></clipPath><clipPath id="clip15"><rect x="50" y="56" width="481" height="304"/></clipPath><clipPath id="clip16"><rect x="50" y="56" width="481" height="304"/></clipPath><clipPath id="clip17"><rect x="50" y="56" width="481" height="304"/></clipPath><clipPath id="clip18"><rect x="50" y="56" width="481" height="304"/></clipPath><clipPath id="clip19"><rect x="50" y="56" width="481" height="304"/></clipPath><clipPath id="clip20"><rect x="50" y="56" width="481" height="304"/></clipPath><clipPath id="clip21"><rect x="50" y="56" width="481" height="304"/></clipPath><clipPath id="clip22"><rect x="50" y="56" width="481" height="304"/></clipPath><clipPath id="clip23"><rect x="50" y="56" width="481" height="304"/></clipPath><clipPath id="clip24"><rect x="50" y="56" width="481" height="304"/></clipPath><clipPath id="clip25"><rect x="50" y="56" width="481" height="304"/></clipPath></defs><g clip-path="url(#clip0)" transform="translate(-50 -56)"><rect x="50" y="56" width="482" height="304" fill="#FFFFFF"/><g clip-path="url(#clip1)"><path d="M122.5 234.5 517.5 234.5M122.5 202.5 517.5 202.5M122.5 169.5 517.5 169.5M122.5 137.5 517.5 137.5M122.5 105.5 517.5 105.5M122.5 72.5001 517.5 72.5001" stroke="#D9D9D9" stroke-linejoin="round" stroke-miterlimit="10" fill="none"/></g><g clip-path="url(#clip2)"><path d="M122.5 266.5 517.5 266.5" stroke="#D9D9D9" stroke-linejoin="round" stroke-miterlimit="10" fill="none" fill-rule="evenodd"/></g><g clip-path="url(#clip3)"><path d="M187.5 229.5 319.5 191.5 451.5 86.5001" stroke="#ED7D31" stroke-width="3" stroke-linecap="round" stroke-linejoin="round" stroke-miterlimit="10" stroke-opacity="0.941176" fill="none"/></g><g clip-path="url(#clip4)"><path d="M187.891 225.958 191.224 229.292 187.891 232.625 184.558 229.292Z" stroke="#ED7D31" stroke-linejoin="round" stroke-miterlimit="10" fill="#ED7D31"/><path d="M319.724 187.958 323.058 191.292 319.724 194.625 316.391 191.292Z" stroke="#ED7D31" stroke-linejoin="round" stroke-miterlimit="10" fill="#ED7D31"/><path d="M451.391 83.2915 454.724 86.6249 451.391 89.9582 448.058 86.6249Z" stroke="#ED7D31" stroke-linejoin="round" stroke-miterlimit="10" fill="#ED7D31"/></g><g clip-path="url(#clip5)"><path d="M187.5 242.5 319.5 212.5 451.5 120.5" stroke="#4472C4" stroke-width="3" stroke-linecap="round" stroke-linejoin="round" stroke-miterlimit="10" fill="none"/></g><g clip-path="url(#clip6)"><path d="M187.891 238.958 191.224 245.625 184.558 245.625Z" stroke="#4472C4" stroke-linejoin="round" stroke-miterlimit="10" fill="#4472C4"/><path d="M319.724 209.292 323.058 215.958 316.391 215.958Z" stroke="#4472C4" stroke-linejoin="round" stroke-miterlimit="10" fill="#4472C4"/><path d="M451.391 117.292 454.724 123.958 448.058 123.958Z" stroke="#4472C4" stroke-linejoin="round" stroke-miterlimit="10" fill="#4472C4"/></g><g clip-path="url(#clip7)"><text fill="#595959" font-family="Calibri,Calibri_MSFontService,sans-serif" font-weight="700" font-size="15" transform="translate(93.5848 271)">25</text></g><g clip-path="url(#clip8)"><text fill="#595959" font-family="Calibri,Calibri_MSFontService,sans-serif" font-weight="700" font-size="15" transform="translate(93.5848 239)">35</text></g><g clip-path="url(#clip9)"><text fill="#595959" font-family="Calibri,Calibri_MSFontService,sans-serif" font-weight="700" font-size="15" transform="translate(93.5848 206)">45</text></g><g clip-path="url(#clip10)"><text fill="#595959" font-family="Calibri,Calibri_MSFontService,sans-serif" font-weight="700" font-size="15" transform="translate(93.5848 174)">55</text></g><g clip-path="url(#clip11)"><text fill="#595959" font-family="Calibri,Calibri_MSFontService,sans-serif" font-weight="700" font-size="15" transform="translate(93.5848 142)">65</text></g><g clip-path="url(#clip12)"><text fill="#595959" font-family="Calibri,Calibri_MSFontService,sans-serif" font-weight="700" font-size="15" transform="translate(93.5848 109)">75</text></g><g clip-path="url(#clip13)"><text fill="#595959" font-family="Calibri,Calibri_MSFontService,sans-serif" font-weight="700" font-size="15" transform="translate(93.5848 77)">85</text></g><g clip-path="url(#clip14)"><text fill="#595959" font-family="Calibri,Calibri_MSFontService,sans-serif" font-weight="700" font-size="15" transform="translate(176.753 290)">200</text></g><g clip-path="url(#clip15)"><text fill="#595959" font-family="Calibri,Calibri_MSFontService,sans-serif" font-weight="700" font-size="15" transform="translate(308.438 290)">300</text></g><g clip-path="url(#clip16)"><text fill="#595959" font-family="Calibri,Calibri_MSFontService,sans-serif" font-weight="700" font-size="15" transform="translate(440.123 290)">400</text></g><g clip-path="url(#clip17)"><text fill="#595959" font-family="Yu Gothic,Yu Gothic_MSFontService,sans-serif" font-weight="700" font-size="13" transform="matrix(6.12323e-17 -1 1 6.12323e-17 83.2714 226)">パケット到達率</text></g><g clip-path="url(#clip18)"><text fill="#595959" font-family="Calibri,Calibri_MSFontService,sans-serif" font-weight="700" font-size="13" transform="matrix(6.12323e-17 -1 1 6.12323e-17 83.2714 132)">(%)</text></g><g clip-path="url(#clip19)"><text fill="#595959" font-family="Yu Gothic,Yu Gothic_MSFontService,sans-serif" font-weight="700" font-size="16" transform="translate(287.588 317)">ノード数</text></g><g clip-path="url(#clip20)"><path d="M217.5 339.5 243.5 339.5" stroke="#ED7D31" stroke-width="3" stroke-linecap="round" stroke-linejoin="round" stroke-miterlimit="10" stroke-opacity="0.941176" fill="none" fill-rule="evenodd"/></g><g clip-path="url(#clip21)"><path d="M230.5 335.667 233.833 339 230.5 342.333 227.167 339Z" stroke="#ED7D31" stroke-linejoin="round" stroke-miterlimit="10" fill="#ED7D31"/></g><g clip-path="url(#clip22)"><text fill="#595959" font-family="Calibri,Calibri_MSFontService,sans-serif" font-weight="700" font-size="15" transform="translate(246.165 343)">GSIGO</text></g><g clip-path="url(#clip23)"><path d="M299.5 339.5 324.5 339.5" stroke="#4472C4" stroke-width="3" stroke-linecap="round" stroke-linejoin="round" stroke-miterlimit="10" fill="none" fill-rule="evenodd"/></g><g clip-path="url(#clip24)"><path d="M311.667 335.667 315 342.333 308.333 342.333Z" stroke="#4472C4" stroke-linejoin="round" stroke-miterlimit="10" fill="#4472C4"/></g><g clip-path="url(#clip25)"><text fill="#595959" font-family="Calibri,Calibri_MSFontService,sans-serif" font-weight="700" font-size="15" transform="translate(327.306 343)">GLSGO</text></g></g></svg>