<svg width="477" height="314" xmlns="http://www.w3.org/2000/svg" xmlns:xlink="http://www.w3.org/1999/xlink" overflow="hidden"><defs><clipPath id="clip0"><rect x="617" y="376" width="477" height="314"/></clipPath><clipPath id="clip1"><rect x="617" y="376" width="476" height="312"/></clipPath><clipPath id="clip2"><rect x="617" y="376" width="476" height="312"/></clipPath><clipPath id="clip3"><rect x="679" y="391" width="399" height="211"/></clipPath><clipPath id="clip4"><rect x="617" y="376" width="476" height="312"/></clipPath><clipPath id="clip5"><rect x="679" y="391" width="399" height="211"/></clipPath><clipPath id="clip6"><rect x="617" y="376" width="476" height="312"/></clipPath><clipPath id="clip7"><rect x="617" y="376" width="476" height="312"/></clipPath><clipPath id="clip8"><rect x="617" y="376" width="476" height="312"/></clipPath><clipPath id="clip9"><rect x="617" y="376" width="476" height="312"/></clipPath><clipPath id="clip10"><rect x="617" y="376" width="476" height="312"/></clipPath><clipPath id="clip11"><rect x="617" y="376" width="476" height="312"/></clipPath><clipPath id="clip12"><rect x="617" y="376" width="476" height="312"/></clipPath><clipPath id="clip13"><rect x="617" y="376" width="476" height="312"/></clipPath><clipPath id="clip14"><rect x="617" y="376" width="476" height="312"/></clipPath><clipPath id="clip15"><rect x="617" y="376" width="476" height="312"/></clipPath><clipPath id="clip16"><rect x="617" y="376" width="476" height="312"/></clipPath><clipPath id="clip17"><rect x="617" y="376" width="476" height="312"/></clipPath><clipPath id="clip18"><rect x="617" y="376" width="476" height="312"/></clipPath><clipPath id="clip19"><rect x="617" y="376" width="476" height="312"/></clipPath><clipPath id="clip20"><rect x="617" y="376" width="476" height="312"/></clipPath><clipPath id="clip21"><rect x="617" y="376" width="476" height="312"/></clipPath><clipPath id="clip22"><rect x="617" y="376" width="476" height="312"/></clipPath></defs><g clip-path="url(#clip0)" transform="translate(-617 -376)"><rect x="617" y="377" width="477" height="312" fill="#FFFFFF"/><g clip-path="url(#clip1)"><path d="M679.5 549.5 1077.5 549.5M679.5 496.5 1077.5 496.5M679.5 444.5 1077.5 444.5M679.5 391.5 1077.5 391.5" stroke="#D9D9D9" stroke-linejoin="round" stroke-miterlimit="10" fill="none"/></g><g clip-path="url(#clip2)"><path d="M679.5 601.5 1077.5 601.5" stroke="#D9D9D9" stroke-linejoin="round" stroke-miterlimit="10" fill="none" fill-rule="evenodd"/></g><g clip-path="url(#clip3)"><path d="M746.5 527.5 878.5 519.5 1011.5 500.5" stroke="#ED7D31" stroke-width="3" stroke-linecap="round" stroke-linejoin="round" stroke-miterlimit="10" stroke-opacity="0.941176" fill="none"/></g><g clip-path="url(#clip4)"><path d="M746.156 524.506 749.489 527.839 746.156 531.172 742.823 527.839Z" stroke="#ED7D31" stroke-linejoin="round" stroke-miterlimit="10" fill="#ED7D31"/><path d="M878.656 515.839 881.989 519.172 878.656 522.506 875.323 519.172Z" stroke="#ED7D31" stroke-linejoin="round" stroke-miterlimit="10" fill="#ED7D31"/><path d="M1011.16 497.339 1014.49 500.673 1011.16 504.006 1007.82 500.673Z" stroke="#ED7D31" stroke-linejoin="round" stroke-miterlimit="10" fill="#ED7D31"/></g><g clip-path="url(#clip5)"><path d="M746.5 536.5 878.5 513.5 1011.5 513.5" stroke="#4472C4" stroke-width="3" stroke-linecap="round" stroke-linejoin="round" stroke-miterlimit="10" fill="none"/></g><g clip-path="url(#clip6)"><path d="M746.156 533.339 749.489 540.006 742.823 540.006Z" stroke="#4472C4" stroke-linejoin="round" stroke-miterlimit="10" fill="#4472C4"/><path d="M878.656 509.839 881.989 516.506 875.323 516.506Z" stroke="#4472C4" stroke-linejoin="round" stroke-miterlimit="10" fill="#4472C4"/><path d="M1011.16 510.172 1014.49 516.839 1007.82 516.839Z" stroke="#4472C4" stroke-linejoin="round" stroke-miterlimit="10" fill="#4472C4"/></g><g clip-path="url(#clip7)"><text fill="#595959" font-family="Calibri,Calibri_MSFontService,sans-serif" font-weight="700" font-size="15" transform="translate(647.497 606)">2.3</text></g><g clip-path="url(#clip8)"><text fill="#595959" font-family="Calibri,Calibri_MSFontService,sans-serif" font-weight="700" font-size="15" transform="translate(640.064 554)">2.35</text></g><g clip-path="url(#clip9)"><text fill="#595959" font-family="Calibri,Calibri_MSFontService,sans-serif" font-weight="700" font-size="15" transform="translate(647.497 501)">2.4</text></g><g clip-path="url(#clip10)"><text fill="#595959" font-family="Calibri,Calibri_MSFontService,sans-serif" font-weight="700" font-size="15" transform="translate(640.064 449)">2.45</text></g><g clip-path="url(#clip11)"><text fill="#595959" font-family="Calibri,Calibri_MSFontService,sans-serif" font-weight="700" font-size="15" transform="translate(647.497 396)">2.5</text></g><g clip-path="url(#clip12)"><text fill="#595959" font-family="Calibri,Calibri_MSFontService,sans-serif" font-weight="700" font-size="15" transform="translate(738.726 625)">10</text></g><g clip-path="url(#clip13)"><text fill="#595959" font-family="Calibri,Calibri_MSFontService,sans-serif" font-weight="700" font-size="15" transform="translate(871.259 625)">20</text></g><g clip-path="url(#clip14)"><text fill="#595959" font-family="Calibri,Calibri_MSFontService,sans-serif" font-weight="700" font-size="15" transform="translate(1003.79 625)">30</text></g><g clip-path="url(#clip15)"><text fill="#595959" font-family="Yu Gothic,Yu Gothic_MSFontService,sans-serif" font-weight="700" font-size="13" transform="matrix(6.12323e-17 -1 1 6.12323e-17 635.323 544)">オーバーヘッド</text></g><g clip-path="url(#clip16)"><text fill="#595959" font-family="Yu Gothic,Yu Gothic_MSFontService,sans-serif" font-weight="700" font-size="13" transform="translate(798.692 649)">シャドウイングパラメータ</text></g><g clip-path="url(#clip17)"><path d="M796.5 665.5 822.5 665.5" stroke="#ED7D31" stroke-width="3" stroke-linecap="round" stroke-linejoin="round" stroke-miterlimit="10" stroke-opacity="0.941176" fill="none" fill-rule="evenodd"/></g><g clip-path="url(#clip18)"><path d="M809.667 661.667 813 665 809.667 668.333 806.333 665Z" stroke="#ED7D31" stroke-linejoin="round" stroke-miterlimit="10" fill="#ED7D31"/></g><g clip-path="url(#clip19)"><text fill="#595959" font-family="Calibri,Calibri_MSFontService,sans-serif" font-weight="400" font-size="12" transform="translate(825.203 668)">GSIGO</text></g><g clip-path="url(#clip20)"><path d="M874.5 665.5 900.5 665.5" stroke="#4472C4" stroke-width="3" stroke-linecap="round" stroke-linejoin="round" stroke-miterlimit="10" fill="none" fill-rule="evenodd"/></g><g clip-path="url(#clip21)"><path d="M887.333 661.667 890.667 668.333 884 668.333Z" stroke="#4472C4" stroke-linejoin="round" stroke-miterlimit="10" fill="#4472C4"/></g><g clip-path="url(#clip22)"><text fill="#595959" font-family="Calibri,Calibri_MSFontService,sans-serif" font-weight="400" font-size="12" transform="translate(902.835 668)">GLSGO</text></g></g></svg>