<svg width="572" height="366" xmlns="http://www.w3.org/2000/svg" xmlns:xlink="http://www.w3.org/1999/xlink" overflow="hidden"><defs><clipPath id="clip0"><rect x="4" y="42" width="572" height="366"/></clipPath><clipPath id="clip1"><rect x="5" y="42" width="570" height="365"/></clipPath><clipPath id="clip2"><rect x="5" y="42" width="570" height="365"/></clipPath><clipPath id="clip3"><rect x="85" y="57" width="476" height="267"/></clipPath><clipPath id="clip4"><rect x="5" y="42" width="570" height="365"/></clipPath><clipPath id="clip5"><rect x="85" y="57" width="476" height="267"/></clipPath><clipPath id="clip6"><rect x="5" y="42" width="570" height="365"/></clipPath><clipPath id="clip7"><rect x="5" y="42" width="570" height="365"/></clipPath><clipPath id="clip8"><rect x="5" y="42" width="570" height="365"/></clipPath><clipPath id="clip9"><rect x="5" y="42" width="570" height="365"/></clipPath><clipPath id="clip10"><rect x="5" y="42" width="570" height="365"/></clipPath><clipPath id="clip11"><rect x="5" y="42" width="570" height="365"/></clipPath><clipPath id="clip12"><rect x="5" y="42" width="570" height="365"/></clipPath><clipPath id="clip13"><rect x="5" y="42" width="570" height="365"/></clipPath><clipPath id="clip14"><rect x="5" y="42" width="570" height="365"/></clipPath><clipPath id="clip15"><rect x="5" y="42" width="570" height="365"/></clipPath><clipPath id="clip16"><rect x="5" y="42" width="570" height="365"/></clipPath><clipPath id="clip17"><rect x="5" y="42" width="570" height="365"/></clipPath><clipPath id="clip18"><rect x="5" y="42" width="570" height="365"/></clipPath><clipPath id="clip19"><rect x="5" y="42" width="570" height="365"/></clipPath><clipPath id="clip20"><rect x="5" y="42" width="570" height="365"/></clipPath><clipPath id="clip21"><rect x="5" y="42" width="570" height="365"/></clipPath><clipPath id="clip22"><rect x="5" y="42" width="570" height="365"/></clipPath><clipPath id="clip23"><rect x="5" y="42" width="570" height="365"/></clipPath><clipPath id="clip24"><rect x="5" y="42" width="570" height="365"/></clipPath><clipPath id="clip25"><rect x="5" y="42" width="570" height="365"/></clipPath><clipPath id="clip26"><rect x="5" y="42" width="570" height="365"/></clipPath><clipPath id="clip27"><rect x="5" y="42" width="570" height="365"/></clipPath><clipPath id="clip28"><rect x="5" y="42" width="570" height="365"/></clipPath><clipPath id="clip29"><rect x="5" y="42" width="570" height="365"/></clipPath><clipPath id="clip30"><rect x="5" y="42" width="570" height="365"/></clipPath><clipPath id="clip31"><rect x="5" y="42" width="570" height="365"/></clipPath></defs><g clip-path="url(#clip0)" transform="translate(-4 -42)"><g clip-path="url(#clip1)"><path d="M85.5001 296.5 560.5 296.5M85.5001 270.5 560.5 270.5M85.5001 243.5 560.5 243.5M85.5001 216.5 560.5 216.5M85.5001 190.5 560.5 190.5M85.5001 163.5 560.5 163.5M85.5001 137.5 560.5 137.5M85.5001 110.5 560.5 110.5M85.5001 83.5001 560.5 83.5001M85.5001 57.5001 560.5 57.5001" stroke="#D9D9D9" stroke-linejoin="round" stroke-miterlimit="10" fill="none"/></g><g clip-path="url(#clip2)"><path d="M85.5001 323.5 560.5 323.5" stroke="#D9D9D9" stroke-linejoin="round" stroke-miterlimit="10" fill="none" fill-rule="evenodd"/></g><g clip-path="url(#clip3)"><path d="M164.5 240.5 322.5 175.5 481.5 115.5" stroke="#5B9BD5" stroke-width="3" stroke-linecap="round" stroke-linejoin="round" stroke-miterlimit="10" fill="none"/></g><g clip-path="url(#clip4)"><path d="M167.703 240.351C167.703 242.192 166.211 243.685 164.37 243.685 162.529 243.685 161.036 242.192 161.036 240.351 161.036 238.511 162.529 237.018 164.37 237.018 166.211 237.018 167.703 238.511 167.703 240.351Z" stroke="#5B9BD5" stroke-linejoin="round" stroke-miterlimit="10" fill="#5B9BD5"/><path d="M326.036 175.851C326.036 177.692 324.544 179.185 322.703 179.185 320.862 179.185 319.37 177.692 319.37 175.851 319.37 174.01 320.862 172.518 322.703 172.518 324.544 172.518 326.036 174.01 326.036 175.851Z" stroke="#5B9BD5" stroke-linejoin="round" stroke-miterlimit="10" fill="#5B9BD5"/><path d="M484.536 115.518C484.536 117.359 483.044 118.851 481.203 118.851 479.362 118.851 477.87 117.359 477.87 115.518 477.87 113.677 479.362 112.185 481.203 112.185 483.044 112.185 484.536 113.677 484.536 115.518Z" stroke="#5B9BD5" stroke-linejoin="round" stroke-miterlimit="10" fill="#5B9BD5"/></g><g clip-path="url(#clip5)"><path d="M164.5 78.5001 322.5 69.5001 481.5 66.5001" stroke="#ED7D31" stroke-width="3" stroke-linecap="round" stroke-linejoin="round" stroke-miterlimit="10" fill="none"/></g><g clip-path="url(#clip6)"><path d="M167.703 78.3515C167.703 80.1924 166.211 81.6848 164.37 81.6848 162.529 81.6848 161.036 80.1924 161.036 78.3515 161.036 76.5106 162.529 75.0182 164.37 75.0182 166.211 75.0182 167.703 76.5106 167.703 78.3515Z" stroke="#ED7D31" stroke-linejoin="round" stroke-miterlimit="10" fill="#ED7D31"/><path d="M326.036 69.5181C326.036 71.3591 324.544 72.8514 322.703 72.8514 320.862 72.8514 319.37 71.3591 319.37 69.5181 319.37 67.6772 320.862 66.1848 322.703 66.1848 324.544 66.1848 326.036 67.6772 326.036 69.5181Z" stroke="#ED7D31" stroke-linejoin="round" stroke-miterlimit="10" fill="#ED7D31"/><path d="M484.536 66.8514C484.536 68.6924 483.044 70.1848 481.203 70.1848 479.362 70.1848 477.87 68.6924 477.87 66.8514 477.87 65.0105 479.362 63.5181 481.203 63.5181 483.044 63.5181 484.536 65.0105 484.536 66.8514Z" stroke="#ED7D31" stroke-linejoin="round" stroke-miterlimit="10" fill="#ED7D31"/></g><g clip-path="url(#clip7)"><text fill="#595959" font-family="Calibri,Calibri_MSFontService,sans-serif" font-weight="700" font-size="13" transform="translate(65.9898 327)">0</text></g><g clip-path="url(#clip8)"><text fill="#595959" font-family="Calibri,Calibri_MSFontService,sans-serif" font-weight="700" font-size="13" transform="translate(59.2298 301)">10</text></g><g clip-path="url(#clip9)"><text fill="#595959" font-family="Calibri,Calibri_MSFontService,sans-serif" font-weight="700" font-size="13" transform="translate(59.2298 274)">20</text></g><g clip-path="url(#clip10)"><text fill="#595959" font-family="Calibri,Calibri_MSFontService,sans-serif" font-weight="700" font-size="13" transform="translate(59.2298 248)">30</text></g><g clip-path="url(#clip11)"><text fill="#595959" font-family="Calibri,Calibri_MSFontService,sans-serif" font-weight="700" font-size="13" transform="translate(59.2298 221)">40</text></g><g clip-path="url(#clip12)"><text fill="#595959" font-family="Calibri,Calibri_MSFontService,sans-serif" font-weight="700" font-size="13" transform="translate(59.2298 194)">50</text></g><g clip-path="url(#clip13)"><text fill="#595959" font-family="Calibri,Calibri_MSFontService,sans-serif" font-weight="700" font-size="13" transform="translate(59.2298 168)">60</text></g><g clip-path="url(#clip14)"><text fill="#595959" font-family="Calibri,Calibri_MSFontService,sans-serif" font-weight="700" font-size="13" transform="translate(59.2298 141)">70</text></g><g clip-path="url(#clip15)"><text fill="#595959" font-family="Calibri,Calibri_MSFontService,sans-serif" font-weight="700" font-size="13" transform="translate(59.2298 115)">80</text></g><g clip-path="url(#clip16)"><text fill="#595959" font-family="Calibri,Calibri_MSFontService,sans-serif" font-weight="700" font-size="13" transform="translate(59.2298 88)">90</text></g><g clip-path="url(#clip17)"><text fill="#595959" font-family="Calibri,Calibri_MSFontService,sans-serif" font-weight="700" font-size="13" transform="translate(52.4698 61)">100</text></g><g clip-path="url(#clip18)"><text fill="#595959" font-family="Calibri,Calibri_MSFontService,sans-serif" font-weight="700" font-size="13" transform="translate(154.186 345)">200</text></g><g clip-path="url(#clip19)"><text fill="#595959" font-family="Calibri,Calibri_MSFontService,sans-serif" font-weight="700" font-size="13" transform="translate(312.604 345)">300</text></g><g clip-path="url(#clip20)"><text fill="#595959" font-family="Calibri,Calibri_MSFontService,sans-serif" font-weight="700" font-size="13" transform="translate(471.021 345)">400</text></g><g clip-path="url(#clip21)"><text fill="#595959" font-family="Yu Gothic,Yu Gothic_MSFontService,sans-serif" font-weight="700" font-size="16" transform="matrix(6.12323e-17 -1 1 6.12323e-17 40.7032 257)">パケット到達率</text></g><g clip-path="url(#clip22)"><text fill="#595959" font-family="Calibri,Calibri_MSFontService,sans-serif" font-weight="700" font-size="16" transform="matrix(6.12323e-17 -1 1 6.12323e-17 40.7032 145)">(%)</text></g><g clip-path="url(#clip23)"><text fill="#595959" font-family="Yu Gothic,Yu Gothic_MSFontService,sans-serif" font-weight="700" font-size="16" transform="translate(290.744 371)">ノード数</text></g><g clip-path="url(#clip24)"><path d="M167.5 387.5 193.5 387.5" stroke="#5B9BD5" stroke-width="3" stroke-linecap="round" stroke-linejoin="round" stroke-miterlimit="10" fill="none" fill-rule="evenodd"/></g><g clip-path="url(#clip25)"><path d="M183.5 387.5C183.5 389.157 182.157 390.5 180.5 390.5 178.843 390.5 177.5 389.157 177.5 387.5 177.5 385.843 178.843 384.5 180.5 384.5 182.157 384.5 183.5 385.843 183.5 387.5Z" stroke="#5B9BD5" stroke-linejoin="round" stroke-miterlimit="10" fill="#5B9BD5"/></g><g clip-path="url(#clip26)"><text fill="#595959" font-family="Calibri,Calibri_MSFontService,sans-serif" font-weight="700" font-size="13" transform="translate(195.902 392)">shadowing</text></g><g clip-path="url(#clip27)"><text fill="#595959" font-family="Yu Gothic,Yu Gothic_MSFontService,sans-serif" font-weight="700" font-size="13" transform="translate(255.955 392)">あり</text></g><g clip-path="url(#clip28)"><path d="M302.5 387.5 327.5 387.5" stroke="#ED7D31" stroke-width="3" stroke-linecap="round" stroke-linejoin="round" stroke-miterlimit="10" fill="none" fill-rule="evenodd"/></g><g clip-path="url(#clip29)"><path d="M318.5 387.5C318.5 389.157 316.933 390.5 315 390.5 313.067 390.5 311.5 389.157 311.5 387.5 311.5 385.843 313.067 384.5 315 384.5 316.933 384.5 318.5 385.843 318.5 387.5Z" stroke="#ED7D31" stroke-linejoin="round" stroke-miterlimit="10" fill="#ED7D31"/></g><g clip-path="url(#clip30)"><text fill="#595959" font-family="Calibri,Calibri_MSFontService,sans-serif" font-weight="700" font-size="13" transform="translate(330.451 392)">shadowing</text></g><g clip-path="url(#clip31)"><text fill="#595959" font-family="Yu Gothic,Yu Gothic_MSFontService,sans-serif" font-weight="700" font-size="13" transform="translate(390.504 392)">なし</text></g></g></svg>