<svg width="1135" height="653" xmlns="http://www.w3.org/2000/svg" xmlns:xlink="http://www.w3.org/1999/xlink" overflow="hidden"><defs><clipPath id="clip0"><rect x="55" y="17" width="1135" height="653"/></clipPath></defs><g clip-path="url(#clip0)" transform="translate(-55 -17)"><path d="M232.5 317C232.5 175.891 259.363 61.5001 292.5 61.5001 325.637 61.5001 352.5 175.891 352.5 317 352.5 458.109 325.637 572.5 292.5 572.5 259.363 572.5 232.5 458.109 232.5 317Z" stroke="#2E75B6" stroke-width="2.66667" stroke-linejoin="round" stroke-miterlimit="10" fill="none" fill-rule="evenodd"/><path d="M56.5001 314C56.5001 298.26 69.2599 285.5 85.0001 285.5 100.74 285.5 113.5 298.26 113.5 314 113.5 329.74 100.74 342.5 85.0001 342.5 69.2599 342.5 56.5001 329.74 56.5001 314Z" stroke="#000000" stroke-width="1.33333" stroke-miterlimit="8" fill="#FFFFFF" fill-rule="evenodd"/><text font-family="Cambria Math,Cambria Math_MSFontService,sans-serif" font-weight="400" font-size="27" transform="translate(65.0156 323)">𝑵<tspan font-size="20" x="20.3333" y="5">𝒔</tspan></text><path d="M119.5 307.167 248.017 307.167 248.017 309.833 119.5 309.833ZM246.684 304.5 254.684 308.5 246.684 312.5Z" fill="#70AD47"/><path d="M260.5 161C260.5 145.26 273.26 132.5 289 132.5 304.74 132.5 317.5 145.26 317.5 161 317.5 176.74 304.74 189.5 289 189.5 273.26 189.5 260.5 176.74 260.5 161Z" stroke="#000000" stroke-width="1.33333" stroke-miterlimit="8" fill="#FFFFFF" fill-rule="evenodd"/><path d="M260.5 314C260.5 298.26 273.26 285.5 289 285.5 304.74 285.5 317.5 298.26 317.5 314 317.5 329.74 304.74 342.5 289 342.5 273.26 342.5 260.5 329.74 260.5 314Z" stroke="#000000" stroke-width="1.33333" stroke-miterlimit="8" fill="#FFFFFF" fill-rule="evenodd"/><path d="M260.5 485.5C260.5 470.036 273.26 457.5 289 457.5 304.74 457.5 317.5 470.036 317.5 485.5 317.5 500.964 304.74 513.5 289 513.5 273.26 513.5 260.5 500.964 260.5 485.5Z" stroke="#000000" stroke-width="1.33333" stroke-miterlimit="8" fill="#FFFFFF" fill-rule="evenodd"/><path d="M113.5 314.5 260.903 314.5" stroke="#767171" stroke-width="3" stroke-miterlimit="8" stroke-dasharray="3 3" fill="none" fill-rule="evenodd"/><path d="M995.5 337C995.5 321.26 1008.26 308.5 1024 308.5 1039.74 308.5 1052.5 321.26 1052.5 337 1052.5 352.74 1039.74 365.5 1024 365.5 1008.26 365.5 995.5 352.74 995.5 337Z" stroke="#000000" stroke-width="1.33333" stroke-miterlimit="8" fill="#FFFFFF" fill-rule="evenodd"/><text font-family="Cambria Math,Cambria Math_MSFontService,sans-serif" font-weight="400" font-size="27" transform="translate(1002.88 345)">𝑵<tspan font-size="20" x="20.3334" y="6">𝒅</tspan></text><path d="M714.5 189.5C714.5 174.036 727.036 161.5 742.5 161.5 757.964 161.5 770.5 174.036 770.5 189.5 770.5 204.964 757.964 217.5 742.5 217.5 727.036 217.5 714.5 204.964 714.5 189.5Z" stroke="#000000" stroke-width="1.33333" stroke-miterlimit="8" fill="#FFFFFF" fill-rule="evenodd"/><path d="M941.5 178C941.5 162.26 954.036 149.5 969.5 149.5 984.964 149.5 997.5 162.26 997.5 178 997.5 193.74 984.964 206.5 969.5 206.5 954.036 206.5 941.5 193.74 941.5 178Z" stroke="#000000" stroke-width="1.33333" stroke-miterlimit="8" fill="#FFFFFF" fill-rule="evenodd"/><path d="M782.5 514C782.5 498.26 795.26 485.5 811 485.5 826.74 485.5 839.5 498.26 839.5 514 839.5 529.74 826.74 542.5 811 542.5 795.26 542.5 782.5 529.74 782.5 514Z" stroke="#000000" stroke-width="1.33333" stroke-miterlimit="8" fill="#FFFFFF" fill-rule="evenodd"/><path d="M820.5 337C820.5 321.26 833.26 308.5 849 308.5 864.74 308.5 877.5 321.26 877.5 337 877.5 352.74 864.74 365.5 849 365.5 833.26 365.5 820.5 352.74 820.5 337Z" stroke="#000000" stroke-width="1.33333" stroke-miterlimit="8" fill="#FFFFFF" fill-rule="evenodd"/><path d="M116.5 314.5 269.221 465.756" stroke="#767171" stroke-width="3" stroke-miterlimit="8" stroke-dasharray="3 3" fill="none" fill-rule="evenodd"/><path d="M0 0 152.721 133.028" stroke="#767171" stroke-width="3" stroke-miterlimit="8" stroke-dasharray="3 3" fill="none" fill-rule="evenodd" transform="matrix(1 0 0 -1 116.5 314.528)"/><path d="M0 0 187.612 46.4698" stroke="#767171" stroke-width="3" stroke-miterlimit="8" stroke-dasharray="3 3" fill="none" fill-rule="evenodd" transform="matrix(1 0 0 -1 309.5 293.97)"/><path d="M564.5 104.5C564.5 89.0361 577.26 76.5001 593 76.5001 608.74 76.5001 621.5 89.0361 621.5 104.5 621.5 119.964 608.74 132.5 593 132.5 577.26 132.5 564.5 119.964 564.5 104.5Z" stroke="#000000" stroke-width="1.33333" stroke-miterlimit="8" fill="#FFFFFF" fill-rule="evenodd"/><path d="M496.5 247.5C496.5 232.036 509.26 219.5 525 219.5 540.74 219.5 553.5 232.036 553.5 247.5 553.5 262.964 540.74 275.5 525 275.5 509.26 275.5 496.5 262.964 496.5 247.5Z" stroke="#000000" stroke-width="1.33333" stroke-miterlimit="8" fill="#FFFFFF" fill-rule="evenodd"/><path d="M560.5 405C560.5 389.26 573.26 376.5 589 376.5 604.74 376.5 617.5 389.26 617.5 405 617.5 420.74 604.74 433.5 589 433.5 573.26 433.5 560.5 420.74 560.5 405Z" stroke="#000000" stroke-width="1.33333" stroke-miterlimit="8" fill="#FFFFFF" fill-rule="evenodd"/><path d="M488.5 542.5C488.5 527.036 501.26 514.5 517 514.5 532.74 514.5 545.5 527.036 545.5 542.5 545.5 557.964 532.74 570.5 517 570.5 501.26 570.5 488.5 557.964 488.5 542.5Z" stroke="#000000" stroke-width="1.33333" stroke-miterlimit="8" fill="#FFFFFF" fill-rule="evenodd"/><path d="M321.5 314.5 560.661 405.209" stroke="#767171" stroke-width="3" stroke-miterlimit="8" stroke-dasharray="3 3" fill="none" fill-rule="evenodd"/><path d="M309.5 334.5 497.112 522.843" stroke="#767171" stroke-width="3" stroke-miterlimit="8" stroke-dasharray="3 3" fill="none" fill-rule="evenodd"/><path d="M0 0 39.107 96.2473" stroke="#767171" stroke-width="3" stroke-miterlimit="8" stroke-dasharray="3 3" fill="none" fill-rule="evenodd" transform="matrix(1 0 0 -1 545.5 227.747)"/><path d="M0 0 160.85 58.2114" stroke="#767171" stroke-width="3" stroke-miterlimit="8" stroke-dasharray="3 3" fill="none" fill-rule="evenodd" transform="matrix(1 0 0 -1 553.5 247.712)"/><path d="M621.5 108.5 723.019 168.866" stroke="#767171" stroke-width="3" stroke-miterlimit="8" stroke-dasharray="3 3" fill="none" fill-rule="evenodd"/><path d="M317.5 485.5 488.507 542.631" stroke="#767171" stroke-width="3" stroke-miterlimit="8" stroke-dasharray="3 3" fill="none" fill-rule="evenodd"/><path d="M289.5 189.5 289.5 285.879" stroke="#767171" stroke-width="3" stroke-miterlimit="8" stroke-dasharray="3 3" fill="none" fill-rule="evenodd"/><path d="M289.5 343.5 289.5 457.235" stroke="#767171" stroke-width="3" stroke-miterlimit="8" stroke-dasharray="3 3" fill="none" fill-rule="evenodd"/><path d="M317.5 161.5 505.112 228.014" stroke="#767171" stroke-width="3" stroke-miterlimit="8" stroke-dasharray="3 3" fill="none" fill-rule="evenodd"/><path d="M0 0 246.943 56.6929" stroke="#767171" stroke-width="3" stroke-miterlimit="8" stroke-dasharray="3 3" fill="none" fill-rule="evenodd" transform="matrix(1 0 0 -1 317.5 161.193)"/><path d="M545.5 267.5 589.622 376.332" stroke="#767171" stroke-width="3" stroke-miterlimit="8" stroke-dasharray="3 3" fill="none" fill-rule="evenodd"/><path d="M0 0 52.4246 89.3319" stroke="#767171" stroke-width="3" stroke-miterlimit="8" stroke-dasharray="3 3" fill="none" fill-rule="evenodd" transform="matrix(-1 0 0 1 588.925 433.5)"/><path d="M0 0 237.184 28.785" stroke="#767171" stroke-width="3" stroke-miterlimit="8" stroke-dasharray="3 3" fill="none" fill-rule="evenodd" transform="matrix(-1 0 0 1 782.684 513.5)"/><path d="M0 0 36.4153 122.501" stroke="#767171" stroke-width="3" stroke-miterlimit="8" stroke-dasharray="3 3" fill="none" fill-rule="evenodd" transform="matrix(-1 0 0 1 846.915 362.5)"/><path d="M621.5 419.5 791.051 493.611" stroke="#767171" stroke-width="3" stroke-miterlimit="8" stroke-dasharray="3 3" fill="none" fill-rule="evenodd"/><path d="M0 0 203.398 68.0318" stroke="#767171" stroke-width="3" stroke-miterlimit="8" stroke-dasharray="3 3" fill="none" fill-rule="evenodd" transform="matrix(1 0 0 -1 617.5 404.532)"/><path d="M0 0 113.289 175.346" stroke="#767171" stroke-width="3" stroke-miterlimit="8" stroke-dasharray="3 3" fill="none" fill-rule="evenodd" transform="matrix(1 0 0 -1 609.5 384.846)"/><path d="M829.126 316.815 762.5 209.5" stroke="#767171" stroke-width="3" stroke-miterlimit="8" stroke-dasharray="3 3" fill="none" fill-rule="evenodd"/><path d="M0 0 170.08 11.3384" stroke="#767171" stroke-width="3" stroke-miterlimit="8" stroke-dasharray="3 3" fill="none" fill-rule="evenodd" transform="matrix(-1 0 0 1 940.58 178.5)"/><path d="M0 0 79.9709 118.653" stroke="#767171" stroke-width="3" stroke-miterlimit="8" stroke-dasharray="3 3" fill="none" fill-rule="evenodd" transform="matrix(-1 0 0 1 949.471 198.5)"/><path d="M0 0 118.149 0.000104987" stroke="#767171" stroke-width="3" stroke-miterlimit="8" stroke-dasharray="3 3" fill="none" fill-rule="evenodd" transform="matrix(-1 0 0 1 995.649 336.5)"/><path d="M0 0 165.133 156.925" stroke="#767171" stroke-width="3" stroke-miterlimit="8" stroke-dasharray="3 3" fill="none" fill-rule="evenodd" transform="matrix(-1 0 0 1 1004.63 356.5)"/><path d="M989.5 198.5 1024.24 308.85" stroke="#767171" stroke-width="3" stroke-miterlimit="8" stroke-dasharray="3 3" fill="none" fill-rule="evenodd"/><text fill="#2E75B6" font-family="Yu Gothic,Yu Gothic_MSFontService,sans-serif" font-weight="700" font-size="24" transform="translate(263.805 47)">RCS1</text><path d="M456.5 393C456.5 264.042 494.556 159.5 541.5 159.5 588.444 159.5 626.5 264.042 626.5 393 626.5 521.958 588.444 626.5 541.5 626.5 494.556 626.5 456.5 521.958 456.5 393Z" stroke="#2E75B6" stroke-width="2.66667" stroke-linejoin="round" stroke-miterlimit="10" fill="none" fill-rule="evenodd"/><text fill="#2E75B6" font-family="Yu Gothic,Yu Gothic_MSFontService,sans-serif" font-weight="700" font-size="24" transform="translate(555.041 648)">RCS2</text><path d="M783.459 409.63C804.559 328.841 844.09 269.206 871.755 276.432 899.42 283.657 904.742 355.006 883.643 435.795 862.543 516.583 823.012 576.218 795.347 568.993 767.682 561.768 762.36 490.418 783.459 409.63Z" stroke="#2E75B6" stroke-width="2.66667" stroke-linejoin="round" stroke-miterlimit="10" fill="none" fill-rule="evenodd"/><text fill="#2E75B6" font-family="Yu Gothic,Yu Gothic_MSFontService,sans-serif" font-weight="700" font-size="24" transform="translate(826.416 575)">RCS3</text><path d="M944.753 271.868C919.723 180.688 923.664 100.12 953.555 91.9141 983.447 83.7086 1027.97 150.973 1053 242.153 1078.03 333.334 1074.09 413.902 1044.2 422.108 1014.31 430.313 969.782 363.049 944.753 271.868Z" stroke="#2E75B6" stroke-width="2.66667" stroke-linejoin="round" stroke-miterlimit="10" fill="none" fill-rule="evenodd"/><text fill="#2E75B6" font-family="Yu Gothic,Yu Gothic_MSFontService,sans-serif" font-weight="700" font-size="24" transform="translate(1029.2 446)">RCS4</text><path d="M127.431 316.546 264.841 450.587 262.979 452.496 125.569 318.454ZM265.749 447.747 268.682 456.196 260.163 453.474Z" fill="#70AD47"/><path d="M0.884006-0.998154 133.291 116.267 131.523 118.264-0.884006 0.998154ZM134.061 113.387 137.398 121.686 128.757 119.376Z" fill="#70AD47" transform="matrix(1 0 0 -1 121.5 300.186)"/><path d="M0.333414-1.29097 178.885 44.8228 178.219 47.4048-0.333414 1.29097ZM178.261 41.9075 185.007 47.7809 176.261 49.6533Z" fill="#70AD47" transform="matrix(1 0 0 -1 305.5 289.281)"/><path d="M323.951 309.245 552.344 391.354 551.442 393.863 323.049 311.755ZM551.992 388.393 558.167 394.864 549.285 395.921Z" fill="#70AD47"/><path d="M313.438 330.552 493.705 508.871 491.83 510.767 311.562 332.448ZM494.632 506.037 497.507 514.507 489.006 511.725Z" fill="#70AD47"/><path d="M0.425103-1.26375 189.901 62.4723 189.05 64.9999-0.425103 1.26375ZM189.487 59.5198 195.794 65.8616 186.937 67.1023Z" fill="#70AD47" transform="matrix(1 0 0 -1 621.5 396.362)"/><path d="M622.032 411.277 781.792 480.729 780.729 483.174 620.969 413.723ZM781.632 477.751 787.374 484.609 778.443 485.088Z" fill="#70AD47"/><path d="M1.10053-0.752729 73.2609 104.75 71.0598 106.255-1.10053 0.752729ZM74.7093 102.144 75.9241 111.006 68.1061 106.661Z" fill="#70AD47" transform="matrix(1 0 0 -1 863.5 308.506)"/><path d="M879.5 325.167 989.331 325.167 989.331 327.833 879.5 327.833ZM987.998 322.5 995.998 326.5 987.998 330.5Z" fill="#70AD47"/><rect x="253.5" y="271.5" width="76" height="81" stroke="#FF0000" stroke-width="2.66667" stroke-linejoin="round" stroke-miterlimit="10" fill="none"/><rect x="552.5" y="360.5" width="76" height="81" stroke="#FF0000" stroke-width="2.66667" stroke-linejoin="round" stroke-miterlimit="10" fill="none"/><rect x="813.5" y="291.5" width="75" height="80" stroke="#FF0000" stroke-width="2.66667" stroke-linejoin="round" stroke-miterlimit="10" fill="none"/></g></svg>