<svg width="651" height="562" xmlns="http://www.w3.org/2000/svg" xmlns:xlink="http://www.w3.org/1999/xlink" overflow="hidden"><defs><clipPath id="clip0"><rect x="44" y="59" width="651" height="562"/></clipPath></defs><g clip-path="url(#clip0)" transform="translate(-44 -59)"><path d="M50.8975 17.9962 48.3344 13.4972 50.0894 13.4972C47.1883 5.55153 37.0534 2.98538e-05 25.4488 2.98538e-05L25.4488 0C37.0534 0 47.1883 5.5515 50.0894 13.4972L51.8444 13.4972Z" fill="#4472C4" fill-rule="evenodd" transform="matrix(-0.648933 -0.760846 -0.760846 0.648933 149.97 384.767)"/><path d="M25.4488 0C11.3938-3.35169e-15 0 8.05718 0 17.9962L0 17.9962C-3.35168e-15 8.05718 11.3938 0 25.4488 0Z" fill="#375C9E" fill-rule="evenodd" transform="matrix(-0.648933 -0.760846 -0.760846 0.648933 149.97 384.767)"/><path d="M25.4488 0C11.3938-3.35169e-15 0 8.05718 0 17.9962L0 17.9962C-3.35168e-15 8.05718 11.3938 0 25.4488 0L25.4488 0C37.0534 0 47.1883 5.5515 50.0894 13.4972L51.8444 13.4972 50.8975 17.9962 48.3344 13.4972 50.0894 13.4972C47.1883 5.55153 37.0534 2.98538e-05 25.4488 2.98538e-05" stroke="#FF0000" stroke-width="2" stroke-miterlimit="8" fill="none" fill-rule="evenodd" transform="matrix(-0.648933 -0.760846 -0.760846 0.648933 149.97 384.767)"/><path d="M45.3591 14.0048 43.2732 10.5036 44.6389 10.5036C42.0535 4.32024 33.0214 1.05197e-05 22.6796 1.05197e-05L22.6795 0C33.0214-2.97435e-15 42.0534 4.32023 44.6389 10.5036L46.0046 10.5036Z" fill="#4472C4" fill-rule="evenodd" transform="matrix(-0.864208 0.503135 0.503135 0.864208 212.237 375.565)"/><path d="M22.6795 0C10.154-2.97435e-15 0 6.27018-2.97435e-15 14.0048L0 14.0048C-5.94869e-15 6.27018 10.154 0 22.6795 0Z" fill="#375C9E" fill-rule="evenodd" transform="matrix(-0.864208 0.503135 0.503135 0.864208 212.237 375.565)"/><path d="M22.6795 0C10.154-2.97435e-15 0 6.27018-2.97435e-15 14.0048L0 14.0048C-5.94869e-15 6.27018 10.154 0 22.6795 0L22.6795 0C33.0214-2.97435e-15 42.0534 4.32023 44.6389 10.5036L46.0046 10.5036 45.3591 14.0048 43.2732 10.5036 44.6389 10.5036C42.0535 4.32024 33.0214 1.05197e-05 22.6796 1.05197e-05" stroke="#FF0000" stroke-width="2" stroke-miterlimit="8" fill="none" fill-rule="evenodd" transform="matrix(-0.864208 0.503135 0.503135 0.864208 212.237 375.565)"/><path d="M45.3591 14.0048 43.2731 10.5036 44.6389 10.5036C42.0535 4.32024 33.0214 1.05197e-05 22.6796 1.05197e-05L22.6795 0C33.0214-2.97435e-15 42.0534 4.32023 44.6389 10.5036L46.0046 10.5036Z" fill="#4472C4" fill-rule="evenodd" transform="matrix(0.641046 -0.767502 -0.767502 -0.641046 133.235 319.335)"/><path d="M22.6795 0C10.154-2.97435e-15 0 6.27018-2.97435e-15 14.0048L0 14.0048C-5.94869e-15 6.27018 10.154 0 22.6795 0Z" fill="#375C9E" fill-rule="evenodd" transform="matrix(0.641046 -0.767502 -0.767502 -0.641046 133.235 319.335)"/><path d="M22.6795 0C10.154-2.97435e-15 0 6.27018-2.97435e-15 14.0048L0 14.0048C-5.94869e-15 6.27018 10.154 0 22.6795 0L22.6795 0C33.0214-2.97435e-15 42.0534 4.32023 44.6389 10.5036L46.0046 10.5036 45.3591 14.0048 43.2731 10.5036 44.6389 10.5036C42.0535 4.32024 33.0214 1.05197e-05 22.6796 1.05197e-05" stroke="#FF0000" stroke-width="2" stroke-miterlimit="8" fill="none" fill-rule="evenodd" transform="matrix(0.641046 -0.767502 -0.767502 -0.641046 133.235 319.335)"/><path d="M45.5001 242C45.5001 141.76 126.76 60.5001 227 60.5001 327.24 60.5001 408.5 141.76 408.5 242 408.5 342.24 327.24 423.5 227 423.5 126.76 423.5 45.5001 342.24 45.5001 242Z" stroke="#000000" stroke-linejoin="round" stroke-miterlimit="10" fill="none" fill-rule="evenodd"/><path d="M0 0 1.04409 274.891" stroke="#000000" stroke-width="2.33333" stroke-miterlimit="8" fill="none" fill-rule="evenodd" transform="matrix(-1 0 0 1 228.044 135)"/><path d="M214 235C214 227.82 219.82 222 227 222 234.18 222 240 227.82 240 235 240 242.18 234.18 248 227 248 219.82 248 214 242.18 214 235Z" stroke="#000000" stroke-width="2" stroke-miterlimit="8" fill="#4472C4" fill-rule="evenodd"/><path d="M213.922 424.709 206.258 422.418 207.022 419.863 214.686 422.155ZM203.703 421.654 196.038 419.362 196.802 416.808 204.467 419.099ZM193.483 418.599 185.818 416.307 186.582 413.752 194.247 416.044ZM183.263 415.543 175.599 413.252 176.362 410.697 184.027 412.988ZM173.044 412.488 165.379 410.196 166.143 407.641 173.808 409.933ZM162.824 409.432 155.159 407.141 155.923 404.586 163.588 406.877ZM152.604 406.377 144.94 404.085 145.703 401.53 153.368 403.822ZM142.385 403.321 134.72 401.03 135.484 398.475 143.148 400.766ZM132.165 400.266 124.5 397.974 125.264 395.419 132.929 397.711ZM121.945 397.21 114.28 394.919 115.044 392.364 122.709 394.656ZM114.019 397.624 107.5 391.5 116.311 389.959Z" fill="#4472C4"/><path d="M214 423C214 415.82 219.82 410 227 410 234.18 410 240 415.82 240 423 240 430.18 234.18 436 227 436 219.82 436 214 430.18 214 423Z" stroke="#000000" stroke-width="2" stroke-miterlimit="8" fill="#FF0000" fill-rule="evenodd"/><text font-family="Yu Gothic,Yu Gothic_MSFontService,sans-serif" font-weight="700" font-size="24" transform="translate(239.817 454)">S</text><path d="M81 391C81 383.82 86.8203 378 94 378 101.18 378 107 383.82 107 391 107 398.18 101.18 404 94 404 86.8203 404 81 398.18 81 391Z" stroke="#000000" stroke-width="2" stroke-miterlimit="8" fill="#FFC000" fill-rule="evenodd"/><text font-family="Yu Gothic,Yu Gothic_MSFontService,sans-serif" font-weight="700" font-size="24" transform="translate(242.308 266)">D</text><path d="M349 391C349 383.82 354.82 378 362 378 369.18 378 375 383.82 375 391 375 398.18 369.18 404 362 404 354.82 404 349 398.18 349 391Z" stroke="#000000" stroke-width="2" stroke-miterlimit="8" fill="#FFC000" fill-rule="evenodd"/><path d="M323 282.5C323 275.044 328.82 269 336 269 343.18 269 349 275.044 349 282.5 349 289.956 343.18 296 336 296 328.82 296 323 289.956 323 282.5Z" stroke="#000000" stroke-width="2" stroke-miterlimit="8" fill="#FFC000" fill-rule="evenodd"/><path d="M107 282.5C107 275.044 112.82 269 120 269 127.18 269 133 275.044 133 282.5 133 289.956 127.18 296 120 296 112.82 296 107 289.956 107 282.5Z" stroke="#000000" stroke-width="2" stroke-miterlimit="8" fill="#FFC000" fill-rule="evenodd"/><path d="M76.5001 424C76.5001 340.329 144.105 272.5 227.5 272.5 310.895 272.5 378.5 340.329 378.5 424 378.5 507.671 310.895 575.5 227.5 575.5 144.105 575.5 76.5001 507.671 76.5001 424Z" stroke="#000000" stroke-width="1.33333" stroke-linejoin="round" stroke-miterlimit="10" stroke-dasharray="4 1.33333" fill="none" fill-rule="evenodd"/><path d="M1.11565-0.341216 3.16295 6.3527 0.931644 7.03514-1.11565 0.341216ZM3.84538 8.58401 5.89268 15.2779 3.66137 15.9604 1.61408 9.26644ZM6.57511 17.5092 8.62241 24.2032 6.3911 24.8856 4.34381 18.1917ZM9.30484 26.4345 11.3521 33.1284 9.12083 33.8108 7.07354 27.1169ZM12.0346 35.3597 14.0819 42.0536 11.8506 42.736 9.80327 36.0421ZM14.7643 44.2849 16.8116 50.9788 14.5803 51.6613 12.533 44.9674ZM17.494 53.2101 19.5413 59.9041 17.31 60.5865 15.2627 53.8926ZM20.2238 62.1354 22.2711 68.8293 20.0398 69.5117 17.9925 62.8178ZM22.9535 71.0606 23.4038 72.5328 21.1725 73.2152 20.7222 71.743ZM25.7232 70.4291 24.2379 79.2491 18.073 72.7688Z" fill="#4472C4" fill-opacity="0.988235" transform="matrix(1 0 0 -1 94 378.249)"/><path d="M0.377372-1.10395 7.00106 1.16028 6.24632 3.36818-0.377372 1.10395ZM9.20896 1.91503 15.8326 4.17926 15.0779 6.38716 8.45421 4.12292ZM18.0405 4.93401 24.6642 7.19824 23.9095 9.40613 17.2858 7.1419ZM26.8721 7.95298 33.4958 10.2172 32.7411 12.4251 26.1174 10.1609ZM35.7037 10.972 42.3274 13.2362 41.5727 15.4441 34.949 13.1799ZM44.5353 13.9909 51.159 16.2552 50.4042 18.4631 43.7806 16.1988ZM53.3669 17.0099 59.9906 19.2741 59.2358 21.482 52.6121 19.2178ZM62.1985 20.0289 68.8222 22.2931 68.0674 24.501 61.4437 22.2368ZM71.0301 23.0479 77.6537 25.3121 76.899 27.52 70.2753 25.2558ZM79.8616 26.0668 82.4705 26.9586 81.7157 29.1665 79.1069 28.2747ZM82.1253 23.8463 88.4014 30.219 79.5376 31.4163Z" fill="#4472C4" fill-opacity="0.988235" transform="matrix(1 0 0 -1 129 273.219)"/><path d="M423.5 501C423.5 488.574 433.574 478.5 446 478.5 458.426 478.5 468.5 488.574 468.5 501 468.5 513.426 458.426 523.5 446 523.5 433.574 523.5 423.5 513.426 423.5 501Z" stroke="#000000" stroke-width="1.33333" stroke-linejoin="round" stroke-miterlimit="10" stroke-dasharray="4 1.33333" fill="none" fill-rule="evenodd"/><text font-family="Yu Gothic,Yu Gothic_MSFontService,sans-serif" font-weight="700" font-size="19" transform="translate(477.913 510)">T<tspan font-size="19" x="12.3333" y="0">ransmission range</tspan></text><path d="M419.012 547.833 426.012 547.906 425.987 550.24 418.988 550.167ZM428.345 547.931 435.345 548.004 435.32 550.337 428.321 550.264ZM437.678 548.028 444.677 548.102 444.653 550.435 437.653 550.362ZM447.011 548.126 454.01 548.199 453.986 550.532 446.986 550.459ZM456.343 548.223 461.48 548.277 461.455 550.61 456.319 550.557ZM460.176 545.43 468.134 549.513 460.092 553.43Z" fill="#4472C4"/><text font-family="Yu Gothic,Yu Gothic_MSFontService,sans-serif" font-weight="700" font-size="19" transform="translate(477.913 556)">Perimeter forwarding<tspan font-size="24" x="-387.969" y="-128">x</tspan><tspan font-size="24" x="-368.249" y="-293">y</tspan></text><path d="M45.6347 14 43.5449 10.5 44.9102 10.5C42.309 4.31877 33.222 2.61233e-05 22.8174 2.61233e-05L22.8174 0C33.222-2.99187e-15 42.309 4.31874 44.9102 10.5L46.2755 10.5Z" fill="#4472C4" fill-rule="evenodd" transform="matrix(-1 0 0 1 466 585)"/><path d="M22.8174 0C10.2157-2.99187e-15-2.99186e-15 6.26801-2.99186e-15 14L0 14C0 6.26801 10.2157 0 22.8174 0Z" fill="#375C9E" fill-rule="evenodd" transform="matrix(-1 0 0 1 466 585)"/><path d="M22.8174 0C10.2157-2.99187e-15-2.99186e-15 6.26801-2.99186e-15 14L0 14C0 6.26801 10.2157 0 22.8174 0L22.8174 0C33.222-2.99187e-15 42.309 4.31874 44.9102 10.5L46.2755 10.5 45.6347 14 43.5449 10.5 44.9102 10.5C42.309 4.31877 33.222 2.61233e-05 22.8174 2.61233e-05" stroke="#FF0000" stroke-width="2" stroke-miterlimit="8" fill="none" fill-rule="evenodd" transform="matrix(-1 0 0 1 466 585)"/><text font-family="Yu Gothic,Yu Gothic_MSFontService,sans-serif" font-weight="700" font-size="19" transform="translate(477.5 604)">Right<tspan font-size="19" x="47.8333" y="0">-</tspan>hand rule</text></g></svg>