<svg width="574" height="367" xmlns="http://www.w3.org/2000/svg" xmlns:xlink="http://www.w3.org/1999/xlink" overflow="hidden"><defs><clipPath id="clip0"><rect x="4" y="19" width="574" height="367"/></clipPath><clipPath id="clip1"><rect x="5" y="19" width="572" height="365"/></clipPath><clipPath id="clip2"><rect x="78" y="34" width="485" height="279"/></clipPath><clipPath id="clip3"><rect x="5" y="19" width="572" height="365"/></clipPath><clipPath id="clip4"><rect x="5" y="19" width="572" height="365"/></clipPath><clipPath id="clip5"><rect x="5" y="19" width="572" height="365"/></clipPath><clipPath id="clip6"><rect x="5" y="19" width="572" height="365"/></clipPath><clipPath id="clip7"><rect x="5" y="19" width="572" height="365"/></clipPath><clipPath id="clip8"><rect x="5" y="19" width="572" height="365"/></clipPath><clipPath id="clip9"><rect x="5" y="19" width="572" height="365"/></clipPath><clipPath id="clip10"><rect x="5" y="19" width="572" height="365"/></clipPath><clipPath id="clip11"><rect x="5" y="19" width="572" height="365"/></clipPath><clipPath id="clip12"><rect x="5" y="19" width="572" height="365"/></clipPath><clipPath id="clip13"><rect x="5" y="19" width="572" height="365"/></clipPath><clipPath id="clip14"><rect x="5" y="19" width="572" height="365"/></clipPath><clipPath id="clip15"><rect x="5" y="19" width="572" height="365"/></clipPath><clipPath id="clip16"><rect x="5" y="19" width="572" height="365"/></clipPath><clipPath id="clip17"><rect x="5" y="19" width="572" height="365"/></clipPath><clipPath id="clip18"><rect x="5" y="19" width="572" height="365"/></clipPath><clipPath id="clip19"><rect x="5" y="19" width="572" height="365"/></clipPath><clipPath id="clip20"><rect x="5" y="19" width="572" height="365"/></clipPath><clipPath id="clip21"><rect x="5" y="19" width="572" height="365"/></clipPath><clipPath id="clip22"><rect x="5" y="19" width="572" height="365"/></clipPath><clipPath id="clip23"><rect x="5" y="19" width="572" height="365"/></clipPath></defs><g clip-path="url(#clip0)" transform="translate(-4 -19)"><g clip-path="url(#clip1)"><path d="M78.5001 277.5 562.5 277.5M78.5001 243.5 562.5 243.5M78.5001 208.5 562.5 208.5M78.5001 173.5 562.5 173.5M78.5001 138.5 562.5 138.5M78.5001 104.5 562.5 104.5M78.5001 69.5001 562.5 69.5001M78.5001 34.5001 562.5 34.5001" stroke="#D9D9D9" stroke-linejoin="round" stroke-miterlimit="10" fill="none"/></g><g clip-path="url(#clip2)"><path d="M102 297 124 297 124 313 102 313ZM171 311 193 311 193 313 171 313ZM240 251 262 251 262 313 240 313ZM310 137 331 137 331 313 310 313ZM379 62 400 62 400 313 379 313ZM448 41 469 41 469 313 448 313ZM517 41 539 41 539 313 517 313Z" fill="#5B9BD5"/></g><g clip-path="url(#clip3)"><path d="M78.5001 312.5 562.5 312.5" stroke="#D9D9D9" stroke-linejoin="round" stroke-miterlimit="10" fill="none" fill-rule="evenodd"/></g><g clip-path="url(#clip4)"><text fill="#595959" font-family="Calibri,Calibri_MSFontService,sans-serif" font-weight="700" font-size="13" transform="translate(59.2298 317)">0</text></g><g clip-path="url(#clip5)"><text fill="#595959" font-family="Calibri,Calibri_MSFontService,sans-serif" font-weight="700" font-size="13" transform="translate(52.4698 282)">10</text></g><g clip-path="url(#clip6)"><text fill="#595959" font-family="Calibri,Calibri_MSFontService,sans-serif" font-weight="700" font-size="13" transform="translate(52.4698 247)">20</text></g><g clip-path="url(#clip7)"><text fill="#595959" font-family="Calibri,Calibri_MSFontService,sans-serif" font-weight="700" font-size="13" transform="translate(52.4698 213)">30</text></g><g clip-path="url(#clip8)"><text fill="#595959" font-family="Calibri,Calibri_MSFontService,sans-serif" font-weight="700" font-size="13" transform="translate(52.4698 178)">40</text></g><g clip-path="url(#clip9)"><text fill="#595959" font-family="Calibri,Calibri_MSFontService,sans-serif" font-weight="700" font-size="13" transform="translate(52.4698 143)">50</text></g><g clip-path="url(#clip10)"><text fill="#595959" font-family="Calibri,Calibri_MSFontService,sans-serif" font-weight="700" font-size="13" transform="translate(52.4698 108)">60</text></g><g clip-path="url(#clip11)"><text fill="#595959" font-family="Calibri,Calibri_MSFontService,sans-serif" font-weight="700" font-size="13" transform="translate(52.4698 74)">70</text></g><g clip-path="url(#clip12)"><text fill="#595959" font-family="Calibri,Calibri_MSFontService,sans-serif" font-weight="700" font-size="13" transform="translate(52.4698 39)">80</text></g><g clip-path="url(#clip13)"><text fill="#595959" font-family="Calibri,Calibri_MSFontService,sans-serif" font-weight="700" font-size="13" transform="translate(84.4498 334)">RCS_LSGO</text></g><g clip-path="url(#clip14)"><text fill="#595959" font-family="Calibri,Calibri_MSFontService,sans-serif" font-weight="700" font-size="13" transform="translate(164.941 334)">RCS_1</text></g><g clip-path="url(#clip15)"><text fill="#595959" font-family="Calibri,Calibri_MSFontService,sans-serif" font-weight="700" font-size="13" transform="translate(234.086 334)">RCS_2</text></g><g clip-path="url(#clip16)"><text fill="#595959" font-family="Calibri,Calibri_MSFontService,sans-serif" font-weight="700" font-size="13" transform="translate(303.23 334)">RCS_3</text></g><g clip-path="url(#clip17)"><text fill="#595959" font-family="Calibri,Calibri_MSFontService,sans-serif" font-weight="700" font-size="13" transform="translate(372.375 334)">RCS_4</text></g><g clip-path="url(#clip18)"><text fill="#595959" font-family="Calibri,Calibri_MSFontService,sans-serif" font-weight="700" font-size="13" transform="translate(441.519 334)">RCS_5</text></g><g clip-path="url(#clip19)"><text fill="#595959" font-family="Calibri,Calibri_MSFontService,sans-serif" font-weight="700" font-size="13" transform="translate(510.664 334)">RCS_6</text></g><g clip-path="url(#clip20)"><text fill="#595959" font-family="Yu Gothic,Yu Gothic_MSFontService,sans-serif" font-weight="700" font-size="16" transform="matrix(6.12323e-17 -1 1 6.12323e-17 40.7031 240)">パケット到達率</text></g><g clip-path="url(#clip21)"><text fill="#595959" font-family="Calibri,Calibri_MSFontService,sans-serif" font-weight="700" font-size="16" transform="matrix(6.12323e-17 -1 1 6.12323e-17 40.7031 128)">(%)</text></g><g clip-path="url(#clip22)"><text fill="#595959" font-family="Calibri,Calibri_MSFontService,sans-serif" font-weight="700" font-size="16" transform="translate(299.907 360)">RCS</text></g><g clip-path="url(#clip23)"><text fill="#595959" font-family="Yu Gothic,Yu Gothic_MSFontService,sans-serif" font-weight="700" font-size="16" transform="translate(324.82 360)">数</text></g></g></svg>