<svg width="826" height="650" xmlns="http://www.w3.org/2000/svg" xmlns:xlink="http://www.w3.org/1999/xlink" overflow="hidden"><defs><clipPath id="clip0"><rect x="227" y="35" width="826" height="650"/></clipPath><clipPath id="clip1"><rect x="227" y="35" width="825" height="649"/></clipPath><clipPath id="clip2"><rect x="227" y="35" width="825" height="649"/></clipPath><clipPath id="clip3"><rect x="315" y="54" width="723" height="526"/></clipPath><clipPath id="clip4"><rect x="227" y="35" width="825" height="649"/></clipPath><clipPath id="clip5"><rect x="315" y="54" width="723" height="526"/></clipPath><clipPath id="clip6"><rect x="227" y="35" width="825" height="649"/></clipPath><clipPath id="clip7"><rect x="315" y="54" width="723" height="526"/></clipPath><clipPath id="clip8"><rect x="227" y="35" width="825" height="649"/></clipPath><clipPath id="clip9"><rect x="315" y="54" width="723" height="526"/></clipPath><clipPath id="clip10"><rect x="227" y="35" width="825" height="649"/></clipPath><clipPath id="clip11"><rect x="315" y="54" width="723" height="526"/></clipPath><clipPath id="clip12"><rect x="227" y="35" width="825" height="649"/></clipPath><clipPath id="clip13"><rect x="315" y="54" width="723" height="526"/></clipPath><clipPath id="clip14"><rect x="227" y="35" width="825" height="649"/></clipPath><clipPath id="clip15"><rect x="227" y="35" width="825" height="649"/></clipPath><clipPath id="clip16"><rect x="227" y="35" width="825" height="649"/></clipPath><clipPath id="clip17"><rect x="227" y="35" width="825" height="649"/></clipPath><clipPath id="clip18"><rect x="227" y="35" width="825" height="649"/></clipPath><clipPath id="clip19"><rect x="227" y="35" width="825" height="649"/></clipPath><clipPath id="clip20"><rect x="227" y="35" width="825" height="649"/></clipPath><clipPath id="clip21"><rect x="227" y="35" width="825" height="649"/></clipPath><clipPath id="clip22"><rect x="227" y="35" width="825" height="649"/></clipPath><clipPath id="clip23"><rect x="227" y="35" width="825" height="649"/></clipPath><clipPath id="clip24"><rect x="227" y="35" width="825" height="649"/></clipPath><clipPath id="clip25"><rect x="227" y="35" width="825" height="649"/></clipPath><clipPath id="clip26"><rect x="227" y="35" width="825" height="649"/></clipPath><clipPath id="clip27"><rect x="227" y="35" width="825" height="649"/></clipPath><clipPath id="clip28"><rect x="227" y="35" width="825" height="649"/></clipPath><clipPath id="clip29"><rect x="227" y="35" width="825" height="649"/></clipPath><clipPath id="clip30"><rect x="227" y="35" width="825" height="649"/></clipPath><clipPath id="clip31"><rect x="227" y="35" width="825" height="649"/></clipPath><clipPath id="clip32"><rect x="227" y="35" width="825" height="649"/></clipPath><clipPath id="clip33"><rect x="227" y="35" width="825" height="649"/></clipPath><clipPath id="clip34"><rect x="227" y="35" width="825" height="649"/></clipPath><clipPath id="clip35"><rect x="227" y="35" width="825" height="649"/></clipPath><clipPath id="clip36"><rect x="227" y="35" width="825" height="649"/></clipPath><clipPath id="clip37"><rect x="227" y="35" width="825" height="649"/></clipPath><clipPath id="clip38"><rect x="227" y="35" width="825" height="649"/></clipPath><clipPath id="clip39"><rect x="227" y="35" width="825" height="649"/></clipPath><clipPath id="clip40"><rect x="227" y="35" width="825" height="649"/></clipPath><clipPath id="clip41"><rect x="227" y="35" width="825" height="649"/></clipPath><clipPath id="clip42"><rect x="227" y="35" width="825" height="649"/></clipPath><clipPath id="clip43"><rect x="227" y="35" width="825" height="649"/></clipPath><clipPath id="clip44"><rect x="227" y="35" width="825" height="649"/></clipPath><clipPath id="clip45"><rect x="227" y="35" width="825" height="649"/></clipPath></defs><g clip-path="url(#clip0)" transform="translate(-227 -35)"><g clip-path="url(#clip1)"><path d="M315.5 498.5 1037.5 498.5M315.5 417.5 1037.5 417.5M315.5 337.5 1037.5 337.5M315.5 256.5 1037.5 256.5M315.5 175.5 1037.5 175.5M315.5 95.5001 1037.5 95.5001" stroke="#D9D9D9" stroke-linejoin="round" stroke-miterlimit="10" fill="none"/></g><g clip-path="url(#clip2)"><path d="M315.5 579.5 1037.5 579.5" stroke="#D9D9D9" stroke-linejoin="round" stroke-miterlimit="10" fill="none" fill-rule="evenodd"/></g><g clip-path="url(#clip3)"><path d="M436.5 491.5 676.5 290.5 917.5 81.5001" stroke="#5B9BD5" stroke-width="3" stroke-linecap="round" stroke-linejoin="round" stroke-miterlimit="10" fill="none"/></g><g clip-path="url(#clip4)"><path d="M441.941 491.214C441.941 494.528 439.254 497.214 435.941 497.214 432.627 497.214 429.941 494.528 429.941 491.214 429.941 487.9 432.627 485.214 435.941 485.214 439.254 485.214 441.941 487.9 441.941 491.214Z" stroke="#5B9BD5" stroke-linejoin="round" stroke-miterlimit="10" fill="#5B9BD5"/><path d="M682.607 290.881C682.607 294.195 679.921 296.881 676.607 296.881 673.294 296.881 670.607 294.195 670.607 290.881 670.607 287.567 673.294 284.881 676.607 284.881 679.921 284.881 682.607 287.567 682.607 290.881Z" stroke="#5B9BD5" stroke-linejoin="round" stroke-miterlimit="10" fill="#5B9BD5"/><path d="M923.274 81.5475C923.274 84.8612 920.588 87.5475 917.274 87.5475 913.96 87.5475 911.274 84.8612 911.274 81.5475 911.274 78.2338 913.96 75.5475 917.274 75.5475 920.588 75.5475 923.274 78.2338 923.274 81.5475Z" stroke="#5B9BD5" stroke-linejoin="round" stroke-miterlimit="10" fill="#5B9BD5"/></g><g clip-path="url(#clip5)"><path d="M436.5 498.5 676.5 301.5 917.5 110.5" stroke="#5B9BD5" stroke-width="3" stroke-linecap="round" stroke-linejoin="round" stroke-miterlimit="10" stroke-dasharray="21 12" fill="none"/></g><g clip-path="url(#clip6)"><path d="M435.941 492.548 441.941 504.548 429.941 504.548Z" stroke="#5B9BD5" stroke-linejoin="round" stroke-miterlimit="10" stroke-dasharray="4 3" fill="#5B9BD5"/><path d="M676.607 295.714 682.607 307.714 670.607 307.714Z" stroke="#5B9BD5" stroke-linejoin="round" stroke-miterlimit="10" stroke-dasharray="4 3" fill="#5B9BD5"/><path d="M917.274 104.548 923.274 116.548 911.274 116.548Z" stroke="#5B9BD5" stroke-linejoin="round" stroke-miterlimit="10" stroke-dasharray="4 3" fill="#5B9BD5"/></g><g clip-path="url(#clip7)"><path d="M436.5 539.5 676.5 369.5 917.5 164.5" stroke="#ED7D31" stroke-width="3" stroke-linecap="round" stroke-linejoin="round" stroke-miterlimit="10" fill="none"/></g><g clip-path="url(#clip8)"><path d="M441.941 539.381C441.941 542.695 439.254 545.381 435.941 545.381 432.627 545.381 429.941 542.695 429.941 539.381 429.941 536.067 432.627 533.381 435.941 533.381 439.254 533.381 441.941 536.067 441.941 539.381Z" stroke="#ED7D31" stroke-linejoin="round" stroke-miterlimit="10" fill="#ED7D31"/><path d="M682.607 369.548C682.607 372.861 679.921 375.548 676.607 375.548 673.294 375.548 670.607 372.861 670.607 369.548 670.607 366.234 673.294 363.548 676.607 363.548 679.921 363.548 682.607 366.234 682.607 369.548Z" stroke="#ED7D31" stroke-linejoin="round" stroke-miterlimit="10" fill="#ED7D31"/><path d="M923.274 165.048C923.274 168.361 920.588 171.048 917.274 171.048 913.96 171.048 911.274 168.361 911.274 165.048 911.274 161.734 913.96 159.048 917.274 159.048 920.588 159.048 923.274 161.734 923.274 165.048Z" stroke="#ED7D31" stroke-linejoin="round" stroke-miterlimit="10" fill="#ED7D31"/></g><g clip-path="url(#clip9)"><path d="M436.5 552.5 676.5 390.5 917.5 194.5" stroke="#ED7D31" stroke-width="3" stroke-linecap="round" stroke-linejoin="round" stroke-miterlimit="10" stroke-dasharray="21 12 0 12" fill="none"/></g><g clip-path="url(#clip10)"><path d="M435.941 546.214 441.941 558.214 429.941 558.214Z" stroke="#ED7D31" stroke-linejoin="round" stroke-miterlimit="10" fill="#ED7D31"/><path d="M676.607 384.048 682.607 396.048 670.607 396.048Z" stroke="#ED7D31" stroke-linejoin="round" stroke-miterlimit="10" fill="#ED7D31"/><path d="M917.274 188.881 923.274 200.881 911.274 200.881Z" stroke="#ED7D31" stroke-linejoin="round" stroke-miterlimit="10" fill="#ED7D31"/></g><g clip-path="url(#clip11)"><path d="M436.5 544.5 676.5 376.5 917.5 160.5" stroke="#70AD47" stroke-width="3" stroke-linecap="round" stroke-linejoin="round" stroke-miterlimit="10" fill="none"/></g><g clip-path="url(#clip12)"><path d="M441.941 544.547C441.941 547.861 439.254 550.547 435.941 550.547 432.627 550.547 429.941 547.861 429.941 544.547 429.941 541.234 432.627 538.547 435.941 538.547 439.254 538.547 441.941 541.234 441.941 544.547Z" stroke="#70AD47" stroke-linejoin="round" stroke-miterlimit="10" fill="#70AD47"/><path d="M682.607 376.381C682.607 379.695 679.921 382.381 676.607 382.381 673.294 382.381 670.607 379.695 670.607 376.381 670.607 373.067 673.294 370.381 676.607 370.381 679.921 370.381 682.607 373.067 682.607 376.381Z" stroke="#70AD47" stroke-linejoin="round" stroke-miterlimit="10" fill="#70AD47"/><path d="M923.274 160.881C923.274 164.195 920.588 166.881 917.274 166.881 913.96 166.881 911.274 164.195 911.274 160.881 911.274 157.567 913.96 154.881 917.274 154.881 920.588 154.881 923.274 157.567 923.274 160.881Z" stroke="#70AD47" stroke-linejoin="round" stroke-miterlimit="10" fill="#70AD47"/></g><g clip-path="url(#clip13)"><path d="M436.5 557.5 676.5 404.5 917.5 206.5" stroke="#70AD47" stroke-width="3" stroke-linecap="round" stroke-linejoin="round" stroke-miterlimit="10" stroke-dasharray="21 12 0 12 0 12" fill="none"/></g><g clip-path="url(#clip14)"><path d="M435.941 552.547 441.274 563.214 430.607 563.214Z" stroke="#70AD47" stroke-linejoin="round" stroke-miterlimit="10" fill="#70AD47"/><path d="M676.607 399.548 681.941 410.214 671.274 410.214Z" stroke="#70AD47" stroke-linejoin="round" stroke-miterlimit="10" fill="#70AD47"/><path d="M917.274 201.381 922.607 212.048 911.941 212.048Z" stroke="#70AD47" stroke-linejoin="round" stroke-miterlimit="10" fill="#70AD47"/></g><g clip-path="url(#clip15)"><text fill="#595959" font-family="Calibri,Calibri_MSFontService,sans-serif" font-weight="700" font-size="19" transform="translate(279.522 585)">20</text></g><g clip-path="url(#clip16)"><text fill="#595959" font-family="Calibri,Calibri_MSFontService,sans-serif" font-weight="700" font-size="19" transform="translate(279.522 504)">30</text></g><g clip-path="url(#clip17)"><text fill="#595959" font-family="Calibri,Calibri_MSFontService,sans-serif" font-weight="700" font-size="19" transform="translate(279.522 423)">40</text></g><g clip-path="url(#clip18)"><text fill="#595959" font-family="Calibri,Calibri_MSFontService,sans-serif" font-weight="700" font-size="19" transform="translate(279.522 343)">50</text></g><g clip-path="url(#clip19)"><text fill="#595959" font-family="Calibri,Calibri_MSFontService,sans-serif" font-weight="700" font-size="19" transform="translate(279.522 262)">60</text></g><g clip-path="url(#clip20)"><text fill="#595959" font-family="Calibri,Calibri_MSFontService,sans-serif" font-weight="700" font-size="19" transform="translate(279.522 182)">70</text></g><g clip-path="url(#clip21)"><text fill="#595959" font-family="Calibri,Calibri_MSFontService,sans-serif" font-weight="700" font-size="19" transform="translate(279.522 101)">80</text></g><g clip-path="url(#clip22)"><text fill="#595959" font-family="Calibri,Calibri_MSFontService,sans-serif" font-weight="700" font-size="19" transform="translate(421.882 609)">200</text></g><g clip-path="url(#clip23)"><text fill="#595959" font-family="Calibri,Calibri_MSFontService,sans-serif" font-weight="700" font-size="19" transform="translate(662.507 609)">300</text></g><g clip-path="url(#clip24)"><text fill="#595959" font-family="Calibri,Calibri_MSFontService,sans-serif" font-weight="700" font-size="19" transform="translate(903.133 609)">400</text></g><g clip-path="url(#clip25)"><text fill="#595959" font-family="Yu Gothic,Yu Gothic_MSFontService,sans-serif" font-weight="700" font-size="24" transform="matrix(6.12323e-17 -1 1 6.12323e-17 266.982 437)">パケット到達率</text></g><g clip-path="url(#clip26)"><text fill="#595959" font-family="Calibri,Calibri_MSFontService,sans-serif" font-weight="700" font-size="24" transform="matrix(6.12323e-17 -1 1 6.12323e-17 266.982 269)">(%)</text></g><g clip-path="url(#clip27)"><text fill="#595959" font-family="Yu Gothic,Yu Gothic_MSFontService,sans-serif" font-weight="700" font-size="24" transform="translate(628.697 639)">ノード数</text></g><g clip-path="url(#clip28)"><path d="M275.5 659.5 308.5 659.5" stroke="#5B9BD5" stroke-width="3" stroke-linecap="round" stroke-linejoin="round" stroke-miterlimit="10" fill="none" fill-rule="evenodd"/></g><g clip-path="url(#clip29)"><path d="M297.5 659.5C297.5 662.814 294.814 665.5 291.5 665.5 288.186 665.5 285.5 662.814 285.5 659.5 285.5 656.186 288.186 653.5 291.5 653.5 294.814 653.5 297.5 656.186 297.5 659.5Z" stroke="#5B9BD5" stroke-linejoin="round" stroke-miterlimit="10" fill="#5B9BD5"/></g><g clip-path="url(#clip30)"><text fill="#595959" font-family="Calibri,Calibri_MSFontService,sans-serif" font-weight="700" font-size="21" transform="translate(312.493 665)">SIGO(10)</text></g><g clip-path="url(#clip31)"><path d="M397.5 659.5 430.5 659.5" stroke="#5B9BD5" stroke-width="3" stroke-linecap="round" stroke-linejoin="round" stroke-miterlimit="10" stroke-dasharray="21 12" fill="none" fill-rule="evenodd"/></g><g clip-path="url(#clip32)"><path d="M413.833 653.333 419.833 665.333 407.833 665.333Z" stroke="#5B9BD5" stroke-linejoin="round" stroke-miterlimit="10" stroke-dasharray="4 3" fill="#5B9BD5"/></g><g clip-path="url(#clip33)"><text fill="#595959" font-family="Calibri,Calibri_MSFontService,sans-serif" font-weight="700" font-size="21" transform="translate(434.353 665)">LSGO(10)</text></g><g clip-path="url(#clip34)"><path d="M522.5 659.5 555.5 659.5" stroke="#ED7D31" stroke-width="3" stroke-linecap="round" stroke-linejoin="round" stroke-miterlimit="10" fill="none" fill-rule="evenodd"/></g><g clip-path="url(#clip35)"><path d="M545.5 659.5C545.5 662.814 542.814 665.5 539.5 665.5 536.186 665.5 533.5 662.814 533.5 659.5 533.5 656.186 536.186 653.5 539.5 653.5 542.814 653.5 545.5 656.186 545.5 659.5Z" stroke="#ED7D31" stroke-linejoin="round" stroke-miterlimit="10" fill="#ED7D31"/></g><g clip-path="url(#clip36)"><text fill="#595959" font-family="Calibri,Calibri_MSFontService,sans-serif" font-weight="700" font-size="21" transform="translate(559.546 665)">SIGO(20)</text></g><g clip-path="url(#clip37)"><path d="M644.5 659.5 677.5 659.5" stroke="#ED7D31" stroke-width="3" stroke-linecap="round" stroke-linejoin="round" stroke-miterlimit="10" stroke-dasharray="21 12 0 12" fill="none" fill-rule="evenodd"/></g><g clip-path="url(#clip38)"><path d="M660.833 653.333 666.833 665.333 654.833 665.333Z" stroke="#ED7D31" stroke-linejoin="round" stroke-miterlimit="10" fill="#ED7D31"/></g><g clip-path="url(#clip39)"><text fill="#595959" font-family="Calibri,Calibri_MSFontService,sans-serif" font-weight="700" font-size="21" transform="translate(681.406 665)">LSGO(20)</text></g><g clip-path="url(#clip40)"><path d="M769.5 659.5 802.5 659.5" stroke="#70AD47" stroke-width="3" stroke-linecap="round" stroke-linejoin="round" stroke-miterlimit="10" fill="none" fill-rule="evenodd"/></g><g clip-path="url(#clip41)"><path d="M792.5 659.5C792.5 662.814 789.814 665.5 786.5 665.5 783.186 665.5 780.5 662.814 780.5 659.5 780.5 656.186 783.186 653.5 786.5 653.5 789.814 653.5 792.5 656.186 792.5 659.5Z" stroke="#70AD47" stroke-linejoin="round" stroke-miterlimit="10" fill="#70AD47"/></g><g clip-path="url(#clip42)"><text fill="#595959" font-family="Calibri,Calibri_MSFontService,sans-serif" font-weight="700" font-size="21" transform="translate(806.6 665)">SIGO(30)</text></g><g clip-path="url(#clip43)"><path d="M891.5 659.5 924.5 659.5" stroke="#70AD47" stroke-width="3" stroke-linecap="round" stroke-linejoin="round" stroke-miterlimit="10" stroke-dasharray="21 12 0 12 0 12" fill="none" fill-rule="evenodd"/></g><g clip-path="url(#clip44)"><path d="M907.833 654 913.167 664.667 902.5 664.667Z" stroke="#70AD47" stroke-linejoin="round" stroke-miterlimit="10" fill="#70AD47"/></g><g clip-path="url(#clip45)"><text fill="#595959" font-family="Calibri,Calibri_MSFontService,sans-serif" font-weight="700" font-size="21" transform="translate(928.46 665)">LSGO(30)</text></g></g></svg>