<svg width="818" height="654" xmlns="http://www.w3.org/2000/svg" xmlns:xlink="http://www.w3.org/1999/xlink" overflow="hidden"><defs><clipPath id="clip0"><rect x="231" y="33" width="818" height="654"/></clipPath><clipPath id="clip1"><rect x="231" y="33" width="817" height="653"/></clipPath><clipPath id="clip2"><rect x="231" y="33" width="817" height="653"/></clipPath><clipPath id="clip3"><rect x="345" y="50" width="703" height="520"/></clipPath><clipPath id="clip4"><rect x="231" y="33" width="817" height="653"/></clipPath><clipPath id="clip5"><rect x="345" y="50" width="703" height="520"/></clipPath><clipPath id="clip6"><rect x="231" y="33" width="817" height="653"/></clipPath><clipPath id="clip7"><rect x="345" y="50" width="703" height="520"/></clipPath><clipPath id="clip8"><rect x="231" y="33" width="817" height="653"/></clipPath><clipPath id="clip9"><rect x="345" y="50" width="703" height="520"/></clipPath><clipPath id="clip10"><rect x="231" y="33" width="817" height="653"/></clipPath><clipPath id="clip11"><rect x="345" y="50" width="703" height="520"/></clipPath><clipPath id="clip12"><rect x="231" y="33" width="817" height="653"/></clipPath><clipPath id="clip13"><rect x="345" y="50" width="703" height="520"/></clipPath><clipPath id="clip14"><rect x="231" y="33" width="817" height="653"/></clipPath><clipPath id="clip15"><rect x="231" y="33" width="817" height="653"/></clipPath><clipPath id="clip16"><rect x="231" y="33" width="817" height="653"/></clipPath><clipPath id="clip17"><rect x="231" y="33" width="817" height="653"/></clipPath><clipPath id="clip18"><rect x="231" y="33" width="817" height="653"/></clipPath><clipPath id="clip19"><rect x="231" y="33" width="817" height="653"/></clipPath><clipPath id="clip20"><rect x="231" y="33" width="817" height="653"/></clipPath><clipPath id="clip21"><rect x="231" y="33" width="817" height="653"/></clipPath><clipPath id="clip22"><rect x="231" y="33" width="817" height="653"/></clipPath><clipPath id="clip23"><rect x="231" y="33" width="817" height="653"/></clipPath><clipPath id="clip24"><rect x="231" y="33" width="817" height="653"/></clipPath><clipPath id="clip25"><rect x="231" y="33" width="817" height="653"/></clipPath><clipPath id="clip26"><rect x="231" y="33" width="817" height="653"/></clipPath><clipPath id="clip27"><rect x="231" y="33" width="817" height="653"/></clipPath><clipPath id="clip28"><rect x="231" y="33" width="817" height="653"/></clipPath><clipPath id="clip29"><rect x="231" y="33" width="817" height="653"/></clipPath><clipPath id="clip30"><rect x="231" y="33" width="817" height="653"/></clipPath><clipPath id="clip31"><rect x="231" y="33" width="817" height="653"/></clipPath><clipPath id="clip32"><rect x="231" y="33" width="817" height="653"/></clipPath><clipPath id="clip33"><rect x="231" y="33" width="817" height="653"/></clipPath><clipPath id="clip34"><rect x="231" y="33" width="817" height="653"/></clipPath><clipPath id="clip35"><rect x="231" y="33" width="817" height="653"/></clipPath><clipPath id="clip36"><rect x="231" y="33" width="817" height="653"/></clipPath><clipPath id="clip37"><rect x="231" y="33" width="817" height="653"/></clipPath><clipPath id="clip38"><rect x="231" y="33" width="817" height="653"/></clipPath><clipPath id="clip39"><rect x="231" y="33" width="817" height="653"/></clipPath><clipPath id="clip40"><rect x="231" y="33" width="817" height="653"/></clipPath><clipPath id="clip41"><rect x="231" y="33" width="817" height="653"/></clipPath><clipPath id="clip42"><rect x="231" y="33" width="817" height="653"/></clipPath><clipPath id="clip43"><rect x="231" y="33" width="817" height="653"/></clipPath><clipPath id="clip44"><rect x="231" y="33" width="817" height="653"/></clipPath><clipPath id="clip45"><rect x="231" y="33" width="817" height="653"/></clipPath><clipPath id="clip46"><rect x="231" y="33" width="817" height="653"/></clipPath><clipPath id="clip47"><rect x="231" y="33" width="817" height="653"/></clipPath><clipPath id="clip48"><rect x="231" y="33" width="817" height="653"/></clipPath><clipPath id="clip49"><rect x="231" y="33" width="817" height="653"/></clipPath><clipPath id="clip50"><rect x="231" y="33" width="817" height="653"/></clipPath></defs><g clip-path="url(#clip0)" transform="translate(-231 -33)"><g clip-path="url(#clip1)"><path d="M345.5 512.5 1047.5 512.5M345.5 454.5 1047.5 454.5M345.5 396.5 1047.5 396.5M345.5 339.5 1047.5 339.5M345.5 281.5 1047.5 281.5M345.5 223.5 1047.5 223.5M345.5 165.5 1047.5 165.5M345.5 108.5 1047.5 108.5M345.5 50.5001 1047.5 50.5001" stroke="#D9D9D9" stroke-linejoin="round" stroke-miterlimit="10" fill="none"/></g><g clip-path="url(#clip2)"><path d="M345.5 569.5 1047.5 569.5" stroke="#D9D9D9" stroke-linejoin="round" stroke-miterlimit="10" fill="none" fill-rule="evenodd"/></g><g clip-path="url(#clip3)"><path d="M462.5 359.5 696.5 218.5 930.5 123.5" stroke="#5B9BD5" stroke-width="3" stroke-linecap="round" stroke-linejoin="round" stroke-miterlimit="10" fill="none"/></g><g clip-path="url(#clip4)"><path d="M468.643 359.786C468.643 363.099 465.957 365.786 462.643 365.786 459.329 365.786 456.643 363.099 456.643 359.786 456.643 356.472 459.329 353.786 462.643 353.786 465.957 353.786 468.643 356.472 468.643 359.786Z" stroke="#5B9BD5" stroke-linejoin="round" stroke-miterlimit="10" fill="#5B9BD5"/><path d="M702.31 218.786C702.31 222.099 699.623 224.786 696.31 224.786 692.996 224.786 690.31 222.099 690.31 218.786 690.31 215.472 692.996 212.786 696.31 212.786 699.623 212.786 702.31 215.472 702.31 218.786Z" stroke="#5B9BD5" stroke-linejoin="round" stroke-miterlimit="10" fill="#5B9BD5"/><path d="M936.143 123.786C936.143 127.099 933.457 129.786 930.143 129.786 926.829 129.786 924.143 127.099 924.143 123.786 924.143 120.472 926.829 117.786 930.143 117.786 933.457 117.786 936.143 120.472 936.143 123.786Z" stroke="#5B9BD5" stroke-linejoin="round" stroke-miterlimit="10" fill="#5B9BD5"/></g><g clip-path="url(#clip5)"><path d="M462.5 401.5 696.5 183.5 930.5 132.5" stroke="#5B9BD5" stroke-width="3" stroke-linecap="round" stroke-linejoin="round" stroke-miterlimit="10" stroke-dasharray="9 12" fill="none"/></g><g clip-path="url(#clip6)"><path d="M462.643 394.952 468.643 406.952 456.643 406.952Z" stroke="#5B9BD5" stroke-linejoin="round" stroke-miterlimit="10" stroke-dasharray="4 3" fill="#5B9BD5"/><path d="M696.31 177.452 702.31 189.452 690.31 189.452Z" stroke="#5B9BD5" stroke-linejoin="round" stroke-miterlimit="10" stroke-dasharray="4 3" fill="#5B9BD5"/><path d="M930.143 126.619 936.143 138.619 924.143 138.619Z" stroke="#5B9BD5" stroke-linejoin="round" stroke-miterlimit="10" stroke-dasharray="4 3" fill="#5B9BD5"/></g><g clip-path="url(#clip7)"><path d="M462.5 549.5 696.5 170.5 930.5 115.5" stroke="#ED7D31" stroke-width="3" stroke-linecap="round" stroke-linejoin="round" stroke-miterlimit="10" fill="none"/></g><g clip-path="url(#clip8)"><path d="M468.643 549.452C468.643 552.766 465.957 555.452 462.643 555.452 459.329 555.452 456.643 552.766 456.643 549.452 456.643 546.139 459.329 543.452 462.643 543.452 465.957 543.452 468.643 546.139 468.643 549.452Z" stroke="#ED7D31" stroke-linejoin="round" stroke-miterlimit="10" fill="#ED7D31"/><path d="M702.31 170.619C702.31 173.933 699.623 176.619 696.31 176.619 692.996 176.619 690.31 173.933 690.31 170.619 690.31 167.305 692.996 164.619 696.31 164.619 699.623 164.619 702.31 167.305 702.31 170.619Z" stroke="#ED7D31" stroke-linejoin="round" stroke-miterlimit="10" fill="#ED7D31"/><path d="M936.143 115.619C936.143 118.933 933.457 121.619 930.143 121.619 926.829 121.619 924.143 118.933 924.143 115.619 924.143 112.305 926.829 109.619 930.143 109.619 933.457 109.619 936.143 112.305 936.143 115.619Z" stroke="#ED7D31" stroke-linejoin="round" stroke-miterlimit="10" fill="#ED7D31"/></g><g clip-path="url(#clip9)"><path d="M462.5 432.5 696.5 202.5 930.5 139.5" stroke="#ED7D31" stroke-width="3" stroke-linecap="round" stroke-linejoin="round" stroke-miterlimit="10" stroke-dasharray="9 12 0 12" fill="none"/></g><g clip-path="url(#clip10)"><path d="M462.643 426.286 468.643 438.286 456.643 438.286Z" stroke="#ED7D31" stroke-linejoin="round" stroke-miterlimit="10" fill="#ED7D31"/><path d="M696.31 196.119 702.31 208.119 690.31 208.119Z" stroke="#ED7D31" stroke-linejoin="round" stroke-miterlimit="10" fill="#ED7D31"/><path d="M930.143 133.286 936.143 145.286 924.143 145.286Z" stroke="#ED7D31" stroke-linejoin="round" stroke-miterlimit="10" fill="#ED7D31"/></g><g clip-path="url(#clip11)"><path d="M462.5 523.5 696.5 248.5 930.5 87.5001" stroke="#70AD47" stroke-width="3" stroke-linecap="round" stroke-linejoin="round" stroke-miterlimit="10" fill="none"/></g><g clip-path="url(#clip12)"><path d="M468.643 523.619C468.643 526.933 465.957 529.619 462.643 529.619 459.329 529.619 456.643 526.933 456.643 523.619 456.643 520.305 459.329 517.619 462.643 517.619 465.957 517.619 468.643 520.305 468.643 523.619Z" stroke="#70AD47" stroke-linejoin="round" stroke-miterlimit="10" fill="#70AD47"/><path d="M702.31 248.786C702.31 252.099 699.623 254.786 696.31 254.786 692.996 254.786 690.31 252.099 690.31 248.786 690.31 245.472 692.996 242.786 696.31 242.786 699.623 242.786 702.31 245.472 702.31 248.786Z" stroke="#70AD47" stroke-linejoin="round" stroke-miterlimit="10" fill="#70AD47"/><path d="M936.143 87.7857C936.143 91.0994 933.457 93.7857 930.143 93.7857 926.829 93.7857 924.143 91.0994 924.143 87.7857 924.143 84.472 926.829 81.7857 930.143 81.7857 933.457 81.7857 936.143 84.472 936.143 87.7857Z" stroke="#70AD47" stroke-linejoin="round" stroke-miterlimit="10" fill="#70AD47"/></g><g clip-path="url(#clip13)"><path d="M462.5 446.5 696.5 246.5 930.5 132.5" stroke="#70AD47" stroke-width="3" stroke-linecap="round" stroke-linejoin="round" stroke-miterlimit="10" stroke-dasharray="21 12 0 12" fill="none"/></g><g clip-path="url(#clip14)"><path d="M462.643 440.786 467.976 451.452 457.31 451.452Z" stroke="#70AD47" stroke-linejoin="round" stroke-miterlimit="10" fill="#70AD47"/><path d="M696.31 240.786 701.643 251.452 690.976 251.452Z" stroke="#70AD47" stroke-linejoin="round" stroke-miterlimit="10" fill="#70AD47"/><path d="M930.143 127.119 935.476 137.786 924.81 137.786Z" stroke="#70AD47" stroke-linejoin="round" stroke-miterlimit="10" fill="#70AD47"/></g><g clip-path="url(#clip15)"><text fill="#595959" font-family="Calibri,Calibri_MSFontService,sans-serif" font-weight="700" font-size="19" transform="translate(285.561 575)">0.022</text></g><g clip-path="url(#clip16)"><text fill="#595959" font-family="Calibri,Calibri_MSFontService,sans-serif" font-weight="700" font-size="19" transform="translate(285.561 518)">0.023</text></g><g clip-path="url(#clip17)"><text fill="#595959" font-family="Calibri,Calibri_MSFontService,sans-serif" font-weight="700" font-size="19" transform="translate(285.561 460)">0.024</text></g><g clip-path="url(#clip18)"><text fill="#595959" font-family="Calibri,Calibri_MSFontService,sans-serif" font-weight="700" font-size="19" transform="translate(285.561 402)">0.025</text></g><g clip-path="url(#clip19)"><text fill="#595959" font-family="Calibri,Calibri_MSFontService,sans-serif" font-weight="700" font-size="19" transform="translate(285.561 345)">0.026</text></g><g clip-path="url(#clip20)"><text fill="#595959" font-family="Calibri,Calibri_MSFontService,sans-serif" font-weight="700" font-size="19" transform="translate(285.561 287)">0.027</text></g><g clip-path="url(#clip21)"><text fill="#595959" font-family="Calibri,Calibri_MSFontService,sans-serif" font-weight="700" font-size="19" transform="translate(285.561 229)">0.028</text></g><g clip-path="url(#clip22)"><text fill="#595959" font-family="Calibri,Calibri_MSFontService,sans-serif" font-weight="700" font-size="19" transform="translate(285.561 171)">0.029</text></g><g clip-path="url(#clip23)"><text fill="#595959" font-family="Calibri,Calibri_MSFontService,sans-serif" font-weight="700" font-size="19" transform="translate(295.021 114)">0.03</text></g><g clip-path="url(#clip24)"><text fill="#595959" font-family="Calibri,Calibri_MSFontService,sans-serif" font-weight="700" font-size="19" transform="translate(285.561 56)">0.031</text></g><g clip-path="url(#clip25)"><text fill="#595959" font-family="Calibri,Calibri_MSFontService,sans-serif" font-weight="700" font-size="19" transform="translate(448.412 600)">200</text></g><g clip-path="url(#clip26)"><text fill="#595959" font-family="Calibri,Calibri_MSFontService,sans-serif" font-weight="700" font-size="19" transform="translate(682.205 600)">300</text></g><g clip-path="url(#clip27)"><text fill="#595959" font-family="Calibri,Calibri_MSFontService,sans-serif" font-weight="700" font-size="19" transform="translate(915.999 600)">400</text></g><g clip-path="url(#clip28)"><text fill="#595959" font-family="Yu Gothic,Yu Gothic_MSFontService,sans-serif" font-weight="700" font-size="24" transform="matrix(6.12323e-17 -1 1 6.12323e-17 269.62 503)">エンドツーエンド遅延</text></g><g clip-path="url(#clip29)"><text fill="#595959" font-family="Calibri,Calibri_MSFontService,sans-serif" font-weight="700" font-size="24" transform="matrix(6.12323e-17 -1 1 6.12323e-17 269.62 263)">(</text></g><g clip-path="url(#clip30)"><text fill="#595959" font-family="Yu Gothic,Yu Gothic_MSFontService,sans-serif" font-weight="700" font-size="24" transform="matrix(6.12323e-17 -1 1 6.12323e-17 269.62 255)">秒</text></g><g clip-path="url(#clip31)"><text fill="#595959" font-family="Calibri,Calibri_MSFontService,sans-serif" font-weight="700" font-size="24" transform="matrix(6.12323e-17 -1 1 6.12323e-17 269.62 231)">)</text></g><g clip-path="url(#clip32)"><text fill="#595959" font-family="Yu Gothic,Yu Gothic_MSFontService,sans-serif" font-weight="700" font-size="24" transform="translate(651.109 636)">ノード数</text></g><g clip-path="url(#clip33)"><path d="M277.5 661.5 311.5 661.5" stroke="#5B9BD5" stroke-width="3" stroke-linecap="round" stroke-linejoin="round" stroke-miterlimit="10" fill="none" fill-rule="evenodd"/></g><g clip-path="url(#clip34)"><path d="M300.5 661.5C300.5 664.814 297.814 667.5 294.5 667.5 291.186 667.5 288.5 664.814 288.5 661.5 288.5 658.186 291.186 655.5 294.5 655.5 297.814 655.5 300.5 658.186 300.5 661.5Z" stroke="#5B9BD5" stroke-linejoin="round" stroke-miterlimit="10" fill="#5B9BD5"/></g><g clip-path="url(#clip35)"><text fill="#595959" font-family="Calibri,Calibri_MSFontService,sans-serif" font-weight="700" font-size="21" transform="translate(315.087 667)">SIGO(10)</text></g><g clip-path="url(#clip36)"><path d="M398.5 661.5 432.5 661.5" stroke="#5B9BD5" stroke-width="3" stroke-linecap="round" stroke-linejoin="round" stroke-miterlimit="10" stroke-dasharray="9 12" fill="none" fill-rule="evenodd"/></g><g clip-path="url(#clip37)"><path d="M415.333 655.167 421.333 667.167 409.333 667.167Z" stroke="#5B9BD5" stroke-linejoin="round" stroke-miterlimit="10" stroke-dasharray="4 3" fill="#5B9BD5"/></g><g clip-path="url(#clip38)"><text fill="#595959" font-family="Calibri,Calibri_MSFontService,sans-serif" font-weight="700" font-size="21" transform="translate(435.909 667)">LSGO(10)</text></g><g clip-path="url(#clip39)"><path d="M522.5 661.5 556.5 661.5" stroke="#ED7D31" stroke-width="3" stroke-linecap="round" stroke-linejoin="round" stroke-miterlimit="10" fill="none" fill-rule="evenodd"/></g><g clip-path="url(#clip40)"><path d="M545.5 661.5C545.5 664.814 542.814 667.5 539.5 667.5 536.186 667.5 533.5 664.814 533.5 661.5 533.5 658.186 536.186 655.5 539.5 655.5 542.814 655.5 545.5 658.186 545.5 661.5Z" stroke="#ED7D31" stroke-linejoin="round" stroke-miterlimit="10" fill="#ED7D31"/></g><g clip-path="url(#clip41)"><text fill="#595959" font-family="Calibri,Calibri_MSFontService,sans-serif" font-weight="700" font-size="21" transform="translate(560.065 667)">SIGO(20)</text></g><g clip-path="url(#clip42)"><path d="M643.5 661.5 677.5 661.5" stroke="#ED7D31" stroke-width="3" stroke-linecap="round" stroke-linejoin="round" stroke-miterlimit="10" stroke-dasharray="9 12 0 12" fill="none" fill-rule="evenodd"/></g><g clip-path="url(#clip43)"><path d="M660.333 655.167 666.333 667.167 654.333 667.167Z" stroke="#ED7D31" stroke-linejoin="round" stroke-miterlimit="10" fill="#ED7D31"/></g><g clip-path="url(#clip44)"><text fill="#595959" font-family="Calibri,Calibri_MSFontService,sans-serif" font-weight="700" font-size="21" transform="translate(680.887 667)">LSGO(20)</text></g><g clip-path="url(#clip45)"><path d="M767.5 661.5 801.5 661.5" stroke="#70AD47" stroke-width="3" stroke-linecap="round" stroke-linejoin="round" stroke-miterlimit="10" fill="none" fill-rule="evenodd"/></g><g clip-path="url(#clip46)"><path d="M790.5 661.5C790.5 664.814 787.814 667.5 784.5 667.5 781.186 667.5 778.5 664.814 778.5 661.5 778.5 658.186 781.186 655.5 784.5 655.5 787.814 655.5 790.5 658.186 790.5 661.5Z" stroke="#70AD47" stroke-linejoin="round" stroke-miterlimit="10" fill="#70AD47"/></g><g clip-path="url(#clip47)"><text fill="#595959" font-family="Calibri,Calibri_MSFontService,sans-serif" font-weight="700" font-size="21" transform="translate(805.043 667)">SIGO(30)</text></g><g clip-path="url(#clip48)"><path d="M888.5 661.5 922.5 661.5" stroke="#70AD47" stroke-width="3" stroke-linecap="round" stroke-linejoin="round" stroke-miterlimit="10" stroke-dasharray="21 12 0 12" fill="none" fill-rule="evenodd"/></g><g clip-path="url(#clip49)"><path d="M905.333 655.833 910.667 666.5 900 666.5Z" stroke="#70AD47" stroke-linejoin="round" stroke-miterlimit="10" fill="#70AD47"/></g><g clip-path="url(#clip50)"><text fill="#595959" font-family="Calibri,Calibri_MSFontService,sans-serif" font-weight="700" font-size="21" transform="translate(925.865 667)">LSGO(30)</text></g></g></svg>