<svg width="696" height="590" xmlns="http://www.w3.org/2000/svg" xmlns:xlink="http://www.w3.org/1999/xlink" overflow="hidden"><defs><clipPath id="clip0"><rect x="292" y="65" width="696" height="590"/></clipPath><clipPath id="clip1"><rect x="292" y="66" width="695" height="587"/></clipPath><clipPath id="clip2"><rect x="292" y="66" width="695" height="587"/></clipPath><clipPath id="clip3"><rect x="381" y="84" width="592" height="445"/></clipPath><clipPath id="clip4"><rect x="292" y="66" width="695" height="587"/></clipPath><clipPath id="clip5"><rect x="381" y="84" width="592" height="445"/></clipPath><clipPath id="clip6"><rect x="292" y="66" width="695" height="587"/></clipPath><clipPath id="clip7"><rect x="381" y="84" width="592" height="445"/></clipPath><clipPath id="clip8"><rect x="292" y="66" width="695" height="587"/></clipPath><clipPath id="clip9"><rect x="381" y="84" width="592" height="445"/></clipPath><clipPath id="clip10"><rect x="292" y="66" width="695" height="587"/></clipPath><clipPath id="clip11"><rect x="292" y="66" width="695" height="587"/></clipPath><clipPath id="clip12"><rect x="292" y="66" width="695" height="587"/></clipPath><clipPath id="clip13"><rect x="292" y="66" width="695" height="587"/></clipPath><clipPath id="clip14"><rect x="292" y="66" width="695" height="587"/></clipPath><clipPath id="clip15"><rect x="292" y="66" width="695" height="587"/></clipPath><clipPath id="clip16"><rect x="292" y="66" width="695" height="587"/></clipPath><clipPath id="clip17"><rect x="292" y="66" width="695" height="587"/></clipPath><clipPath id="clip18"><rect x="292" y="66" width="695" height="587"/></clipPath><clipPath id="clip19"><rect x="292" y="66" width="695" height="587"/></clipPath><clipPath id="clip20"><rect x="292" y="66" width="695" height="587"/></clipPath><clipPath id="clip21"><rect x="292" y="66" width="695" height="587"/></clipPath><clipPath id="clip22"><rect x="292" y="66" width="695" height="587"/></clipPath><clipPath id="clip23"><rect x="292" y="66" width="695" height="587"/></clipPath><clipPath id="clip24"><rect x="292" y="66" width="695" height="587"/></clipPath><clipPath id="clip25"><rect x="292" y="66" width="695" height="587"/></clipPath><clipPath id="clip26"><rect x="292" y="66" width="695" height="587"/></clipPath><clipPath id="clip27"><rect x="292" y="66" width="695" height="587"/></clipPath><clipPath id="clip28"><rect x="292" y="66" width="695" height="587"/></clipPath><clipPath id="clip29"><rect x="292" y="66" width="695" height="587"/></clipPath><clipPath id="clip30"><rect x="292" y="66" width="695" height="587"/></clipPath><clipPath id="clip31"><rect x="292" y="66" width="695" height="587"/></clipPath><clipPath id="clip32"><rect x="292" y="66" width="695" height="587"/></clipPath><clipPath id="clip33"><rect x="292" y="66" width="695" height="587"/></clipPath><clipPath id="clip34"><rect x="292" y="66" width="695" height="587"/></clipPath></defs><g clip-path="url(#clip0)" transform="translate(-292 -65)"><rect x="293" y="66" width="694" height="588" fill="#FFFFFF"/><g clip-path="url(#clip1)"><path d="M381.5 439.5 972.5 439.5M381.5 350.5 972.5 350.5M381.5 262.5 972.5 262.5M381.5 173.5 972.5 173.5M381.5 84.5001 972.5 84.5001" stroke="#D9D9D9" stroke-linejoin="round" stroke-miterlimit="10" fill="none"/></g><g clip-path="url(#clip2)"><path d="M381.5 528.5 972.5 528.5" stroke="#D9D9D9" stroke-linejoin="round" stroke-miterlimit="10" fill="none" fill-rule="evenodd"/></g><g clip-path="url(#clip3)"><path d="M479.5 171.5 676.5 321.5 873.5 347.5" stroke="#ED7D31" stroke-width="3" stroke-linecap="round" stroke-linejoin="round" stroke-miterlimit="10" stroke-opacity="0.941176" fill="none"/></g><g clip-path="url(#clip4)"><path d="M479.644 167.975 482.977 171.308 479.644 174.641 476.31 171.308Z" stroke="#ED7D31" stroke-linejoin="round" stroke-miterlimit="10" fill="#ED7D31"/><path d="M676.644 318.475 679.977 321.808 676.644 325.141 673.31 321.808Z" stroke="#ED7D31" stroke-linejoin="round" stroke-miterlimit="10" fill="#ED7D31"/><path d="M873.81 343.975 877.144 347.308 873.81 350.641 870.477 347.308Z" stroke="#ED7D31" stroke-linejoin="round" stroke-miterlimit="10" fill="#ED7D31"/></g><g clip-path="url(#clip5)"><path d="M479.5 185.5 676.5 387.5 873.5 421.5" stroke="#4472C4" stroke-width="3" stroke-linecap="round" stroke-linejoin="round" stroke-miterlimit="10" fill="none"/></g><g clip-path="url(#clip6)"><path d="M479.644 182.475 482.977 189.141 476.31 189.141Z" stroke="#4472C4" stroke-linejoin="round" stroke-miterlimit="10" fill="#4472C4"/><path d="M676.644 383.808 679.977 390.475 673.31 390.475Z" stroke="#4472C4" stroke-linejoin="round" stroke-miterlimit="10" fill="#4472C4"/><path d="M873.81 418.308 877.144 424.975 870.477 424.975Z" stroke="#4472C4" stroke-linejoin="round" stroke-miterlimit="10" fill="#4472C4"/></g><g clip-path="url(#clip7)"><path d="M479.5 118.5 676.5 292.5 873.5 314.5" stroke="#FF0000" stroke-width="3" stroke-linecap="round" stroke-linejoin="round" stroke-miterlimit="10" fill="none"/></g><g clip-path="url(#clip8)"><path d="M482.977 118.641C482.977 120.482 481.485 121.975 479.644 121.975 477.803 121.975 476.31 120.482 476.31 118.641 476.31 116.8 477.803 115.308 479.644 115.308 481.485 115.308 482.977 116.8 482.977 118.641Z" stroke="#FF0000" stroke-linejoin="round" stroke-miterlimit="10" fill="#FF0000"/><path d="M679.977 292.808C679.977 294.649 678.485 296.141 676.644 296.141 674.803 296.141 673.31 294.649 673.31 292.808 673.31 290.967 674.803 289.475 676.644 289.475 678.485 289.475 679.977 290.967 679.977 292.808Z" stroke="#FF0000" stroke-linejoin="round" stroke-miterlimit="10" fill="#FF0000"/><path d="M877.144 314.641C877.144 316.482 875.651 317.975 873.81 317.975 871.969 317.975 870.477 316.482 870.477 314.641 870.477 312.8 871.969 311.308 873.81 311.308 875.651 311.308 877.144 312.8 877.144 314.641Z" stroke="#FF0000" stroke-linejoin="round" stroke-miterlimit="10" fill="#FF0000"/></g><g clip-path="url(#clip9)"><path d="M479.5 162.5 676.5 313.5 873.5 338.5" stroke="#7F7F7F" stroke-width="3" stroke-linecap="round" stroke-linejoin="round" stroke-miterlimit="10" fill="none"/></g><g clip-path="url(#clip10)"><path d="M476.31 158.975 482.977 158.975 482.977 165.641 476.31 165.641Z" stroke="#7F7F7F" stroke-linejoin="round" stroke-miterlimit="10" fill="#7F7F7F"/><path d="M673.31 309.641 679.977 309.641 679.977 316.308 673.31 316.308Z" stroke="#7F7F7F" stroke-linejoin="round" stroke-miterlimit="10" fill="#7F7F7F"/><path d="M870.477 334.975 877.144 334.975 877.144 341.641 870.477 341.641Z" stroke="#7F7F7F" stroke-linejoin="round" stroke-miterlimit="10" fill="#7F7F7F"/></g><g clip-path="url(#clip11)"><text fill="#595959" font-family="Calibri,Calibri_MSFontService,sans-serif" font-weight="700" font-size="19" transform="translate(344.884 534)">60</text></g><g clip-path="url(#clip12)"><text fill="#595959" font-family="Calibri,Calibri_MSFontService,sans-serif" font-weight="700" font-size="19" transform="translate(344.884 445)">65</text></g><g clip-path="url(#clip13)"><text fill="#595959" font-family="Calibri,Calibri_MSFontService,sans-serif" font-weight="700" font-size="19" transform="translate(344.884 357)">70</text></g><g clip-path="url(#clip14)"><text fill="#595959" font-family="Calibri,Calibri_MSFontService,sans-serif" font-weight="700" font-size="19" transform="translate(344.884 268)">75</text></g><g clip-path="url(#clip15)"><text fill="#595959" font-family="Calibri,Calibri_MSFontService,sans-serif" font-weight="700" font-size="19" transform="translate(344.884 179)">80</text></g><g clip-path="url(#clip16)"><text fill="#595959" font-family="Calibri,Calibri_MSFontService,sans-serif" font-weight="700" font-size="19" transform="translate(344.884 90)">85</text></g><g clip-path="url(#clip17)"><text fill="#595959" font-family="Calibri,Calibri_MSFontService,sans-serif" font-weight="700" font-size="19" transform="translate(470.201 559)">10</text></g><g clip-path="url(#clip18)"><text fill="#595959" font-family="Calibri,Calibri_MSFontService,sans-serif" font-weight="700" font-size="19" transform="translate(667.279 559)">20</text></g><g clip-path="url(#clip19)"><text fill="#595959" font-family="Calibri,Calibri_MSFontService,sans-serif" font-weight="700" font-size="19" transform="translate(864.357 559)">30</text></g><g clip-path="url(#clip20)"><text fill="#595959" font-family="Yu Gothic,Yu Gothic_MSFontService,sans-serif" font-weight="700" font-size="19" transform="matrix(6.12323e-17 -1 1 6.12323e-17 331.644 384)">パケット到達率</text></g><g clip-path="url(#clip21)"><text fill="#595959" font-family="Calibri,Calibri_MSFontService,sans-serif" font-weight="700" font-size="19" transform="matrix(6.12323e-17 -1 1 6.12323e-17 331.644 254)">(%)</text></g><g clip-path="url(#clip22)"><text fill="#595959" font-family="Yu Gothic,Yu Gothic_MSFontService,sans-serif" font-weight="700" font-size="19" transform="translate(564.739 589)">シャドウイングパラメータ</text></g><g clip-path="url(#clip23)"><path d="M432.5 630.5 457.5 630.5" stroke="#ED7D31" stroke-width="3" stroke-linecap="round" stroke-linejoin="round" stroke-miterlimit="10" stroke-opacity="0.941176" fill="none" fill-rule="evenodd"/></g><g clip-path="url(#clip24)"><path d="M444.833 627.167 448.167 630.5 444.833 633.833 441.5 630.5Z" stroke="#ED7D31" stroke-linejoin="round" stroke-miterlimit="10" fill="#ED7D31"/></g><g clip-path="url(#clip25)"><text fill="#595959" font-family="Calibri,Calibri_MSFontService,sans-serif" font-weight="700" font-size="19" transform="translate(460.394 636)">SIGO</text></g><g clip-path="url(#clip26)"><path d="M517.5 630.5 543.5 630.5" stroke="#4472C4" stroke-width="3" stroke-linecap="round" stroke-linejoin="round" stroke-miterlimit="10" fill="none" fill-rule="evenodd"/></g><g clip-path="url(#clip27)"><path d="M530.333 627.167 533.667 633.833 527 633.833Z" stroke="#4472C4" stroke-linejoin="round" stroke-miterlimit="10" fill="#4472C4"/></g><g clip-path="url(#clip28)"><text fill="#595959" font-family="Calibri,Calibri_MSFontService,sans-serif" font-weight="700" font-size="19" transform="translate(545.858 636)">LSGO</text></g><g clip-path="url(#clip29)"><path d="M605.5 630.5 631.5 630.5" stroke="#FF0000" stroke-width="3" stroke-linecap="round" stroke-linejoin="round" stroke-miterlimit="10" fill="none" fill-rule="evenodd"/></g><g clip-path="url(#clip30)"><path d="M622.5 630.5C622.5 632.157 620.933 633.5 619 633.5 617.067 633.5 615.5 632.157 615.5 630.5 615.5 628.843 617.067 627.5 619 627.5 620.933 627.5 622.5 628.843 622.5 630.5Z" stroke="#FF0000" stroke-linejoin="round" stroke-miterlimit="10" fill="#FF0000"/></g><g clip-path="url(#clip31)"><text fill="#595959" font-family="Calibri,Calibri_MSFontService,sans-serif" font-weight="700" font-size="19" transform="translate(634.241 636)">SIGO + ORS</text></g><g clip-path="url(#clip32)"><path d="M741.5 630.5 766.5 630.5" stroke="#7F7F7F" stroke-width="3" stroke-linecap="round" stroke-linejoin="round" stroke-miterlimit="10" fill="none" fill-rule="evenodd"/></g><g clip-path="url(#clip33)"><path d="M750.5 627.5 757.5 627.5 757.5 633.5 750.5 633.5Z" stroke="#7F7F7F" stroke-linejoin="round" stroke-miterlimit="10" fill="#7F7F7F"/></g><g clip-path="url(#clip34)"><text fill="#595959" font-family="Calibri,Calibri_MSFontService,sans-serif" font-weight="700" font-size="19" transform="translate(769.398 636)">SIGO + JBR</text></g></g></svg>