<svg width="694" height="594" xmlns="http://www.w3.org/2000/svg" xmlns:xlink="http://www.w3.org/1999/xlink" overflow="hidden"><defs><clipPath id="clip0"><rect x="293" y="63" width="694" height="594"/></clipPath><clipPath id="clip1"><rect x="293" y="63" width="693" height="593"/></clipPath><clipPath id="clip2"><rect x="293" y="63" width="693" height="593"/></clipPath><clipPath id="clip3"><rect x="381" y="81" width="591" height="451"/></clipPath><clipPath id="clip4"><rect x="293" y="63" width="693" height="593"/></clipPath><clipPath id="clip5"><rect x="381" y="81" width="591" height="451"/></clipPath><clipPath id="clip6"><rect x="293" y="63" width="693" height="593"/></clipPath><clipPath id="clip7"><rect x="381" y="81" width="591" height="451"/></clipPath><clipPath id="clip8"><rect x="293" y="63" width="693" height="593"/></clipPath><clipPath id="clip9"><rect x="381" y="81" width="591" height="451"/></clipPath><clipPath id="clip10"><rect x="293" y="63" width="693" height="593"/></clipPath><clipPath id="clip11"><rect x="293" y="63" width="693" height="593"/></clipPath><clipPath id="clip12"><rect x="293" y="63" width="693" height="593"/></clipPath><clipPath id="clip13"><rect x="293" y="63" width="693" height="593"/></clipPath><clipPath id="clip14"><rect x="293" y="63" width="693" height="593"/></clipPath><clipPath id="clip15"><rect x="293" y="63" width="693" height="593"/></clipPath><clipPath id="clip16"><rect x="293" y="63" width="693" height="593"/></clipPath><clipPath id="clip17"><rect x="293" y="63" width="693" height="593"/></clipPath><clipPath id="clip18"><rect x="293" y="63" width="693" height="593"/></clipPath><clipPath id="clip19"><rect x="293" y="63" width="693" height="593"/></clipPath><clipPath id="clip20"><rect x="293" y="63" width="693" height="593"/></clipPath><clipPath id="clip21"><rect x="293" y="63" width="693" height="593"/></clipPath><clipPath id="clip22"><rect x="293" y="63" width="693" height="593"/></clipPath><clipPath id="clip23"><rect x="293" y="63" width="693" height="593"/></clipPath><clipPath id="clip24"><rect x="293" y="63" width="693" height="593"/></clipPath><clipPath id="clip25"><rect x="293" y="63" width="693" height="593"/></clipPath><clipPath id="clip26"><rect x="293" y="63" width="693" height="593"/></clipPath><clipPath id="clip27"><rect x="293" y="63" width="693" height="593"/></clipPath><clipPath id="clip28"><rect x="293" y="63" width="693" height="593"/></clipPath><clipPath id="clip29"><rect x="293" y="63" width="693" height="593"/></clipPath><clipPath id="clip30"><rect x="293" y="63" width="693" height="593"/></clipPath><clipPath id="clip31"><rect x="293" y="63" width="693" height="593"/></clipPath><clipPath id="clip32"><rect x="293" y="63" width="693" height="593"/></clipPath><clipPath id="clip33"><rect x="293" y="63" width="693" height="593"/></clipPath><clipPath id="clip34"><rect x="293" y="63" width="693" height="593"/></clipPath><clipPath id="clip35"><rect x="293" y="63" width="693" height="593"/></clipPath><clipPath id="clip36"><rect x="293" y="63" width="693" height="593"/></clipPath></defs><g clip-path="url(#clip0)" transform="translate(-293 -63)"><rect x="294" y="63" width="692" height="594" fill="#FFFFFF"/><g clip-path="url(#clip1)"><path d="M381.5 475.5 971.5 475.5M381.5 418.5 971.5 418.5M381.5 362.5 971.5 362.5M381.5 306.5 971.5 306.5M381.5 250.5 971.5 250.5M381.5 193.5 971.5 193.5M381.5 137.5 971.5 137.5M381.5 81.5001 971.5 81.5001" stroke="#D9D9D9" stroke-linejoin="round" stroke-miterlimit="10" fill="none"/></g><g clip-path="url(#clip2)"><path d="M381.5 531.5 971.5 531.5" stroke="#D9D9D9" stroke-linejoin="round" stroke-miterlimit="10" fill="none" fill-rule="evenodd"/></g><g clip-path="url(#clip3)"><path d="M480.5 204.5 676.5 378.5 873.5 453.5" stroke="#ED7D31" stroke-width="3" stroke-linecap="round" stroke-linejoin="round" stroke-miterlimit="10" stroke-opacity="0.941176" fill="none"/></g><g clip-path="url(#clip4)"><path d="M480.182 201.621 483.515 204.955 480.182 208.288 476.848 204.955Z" stroke="#ED7D31" stroke-linejoin="round" stroke-miterlimit="10" fill="#ED7D31"/><path d="M676.682 374.788 680.015 378.121 676.682 381.455 673.348 378.121Z" stroke="#ED7D31" stroke-linejoin="round" stroke-miterlimit="10" fill="#ED7D31"/><path d="M873.348 450.288 876.682 453.621 873.348 456.955 870.015 453.621Z" stroke="#ED7D31" stroke-linejoin="round" stroke-miterlimit="10" fill="#ED7D31"/></g><g clip-path="url(#clip5)"><path d="M480.5 224.5 676.5 353.5 873.5 449.5" stroke="#4472C4" stroke-width="3" stroke-linecap="round" stroke-linejoin="round" stroke-miterlimit="10" fill="none"/></g><g clip-path="url(#clip6)"><path d="M480.182 220.788 483.515 227.455 476.848 227.455Z" stroke="#4472C4" stroke-linejoin="round" stroke-miterlimit="10" fill="#4472C4"/><path d="M676.682 350.288 680.015 356.955 673.348 356.955Z" stroke="#4472C4" stroke-linejoin="round" stroke-miterlimit="10" fill="#4472C4"/><path d="M873.348 446.455 876.682 453.121 870.015 453.121Z" stroke="#4472C4" stroke-linejoin="round" stroke-miterlimit="10" fill="#4472C4"/></g><g clip-path="url(#clip7)"><path d="M480.5 157.5 676.5 329.5 873.5 428.5" stroke="#FF0000" stroke-width="3" stroke-linecap="round" stroke-linejoin="round" stroke-miterlimit="10" fill="none"/></g><g clip-path="url(#clip8)"><path d="M483.515 157.621C483.515 159.462 482.023 160.955 480.182 160.955 478.341 160.955 476.848 159.462 476.848 157.621 476.848 155.78 478.341 154.288 480.182 154.288 482.023 154.288 483.515 155.78 483.515 157.621Z" stroke="#FF0000" stroke-linejoin="round" stroke-miterlimit="10" fill="#FF0000"/><path d="M680.015 329.621C680.015 331.462 678.523 332.955 676.682 332.955 674.841 332.955 673.348 331.462 673.348 329.621 673.348 327.78 674.841 326.288 676.682 326.288 678.523 326.288 680.015 327.78 680.015 329.621Z" stroke="#FF0000" stroke-linejoin="round" stroke-miterlimit="10" fill="#FF0000"/><path d="M876.682 428.121C876.682 429.962 875.189 431.455 873.348 431.455 871.507 431.455 870.015 429.962 870.015 428.121 870.015 426.28 871.507 424.788 873.348 424.788 875.189 424.788 876.682 426.28 876.682 428.121Z" stroke="#FF0000" stroke-linejoin="round" stroke-miterlimit="10" fill="#FF0000"/></g><g clip-path="url(#clip9)"><path d="M480.5 142.5 676.5 304.5 873.5 419.5" stroke="#7F7F7F" stroke-width="3" stroke-linecap="round" stroke-linejoin="round" stroke-miterlimit="10" fill="none"/></g><g clip-path="url(#clip10)"><path d="M476.848 138.788 483.515 138.788 483.515 145.455 476.848 145.455Z" stroke="#7F7F7F" stroke-linejoin="round" stroke-miterlimit="10" fill="#7F7F7F"/><path d="M673.348 301.288 680.015 301.288 680.015 307.955 673.348 307.955Z" stroke="#7F7F7F" stroke-linejoin="round" stroke-miterlimit="10" fill="#7F7F7F"/><path d="M870.015 415.788 876.682 415.788 876.682 422.455 870.015 422.455Z" stroke="#7F7F7F" stroke-linejoin="round" stroke-miterlimit="10" fill="#7F7F7F"/></g><g clip-path="url(#clip11)"><text fill="#595959" font-family="Calibri,Calibri_MSFontService,sans-serif" font-weight="700" font-size="19" transform="translate(345.588 537)">15</text></g><g clip-path="url(#clip12)"><text fill="#595959" font-family="Calibri,Calibri_MSFontService,sans-serif" font-weight="700" font-size="19" transform="translate(345.588 481)">20</text></g><g clip-path="url(#clip13)"><text fill="#595959" font-family="Calibri,Calibri_MSFontService,sans-serif" font-weight="700" font-size="19" transform="translate(345.588 425)">25</text></g><g clip-path="url(#clip14)"><text fill="#595959" font-family="Calibri,Calibri_MSFontService,sans-serif" font-weight="700" font-size="19" transform="translate(345.588 368)">30</text></g><g clip-path="url(#clip15)"><text fill="#595959" font-family="Calibri,Calibri_MSFontService,sans-serif" font-weight="700" font-size="19" transform="translate(345.588 312)">35</text></g><g clip-path="url(#clip16)"><text fill="#595959" font-family="Calibri,Calibri_MSFontService,sans-serif" font-weight="700" font-size="19" transform="translate(345.588 256)">40</text></g><g clip-path="url(#clip17)"><text fill="#595959" font-family="Calibri,Calibri_MSFontService,sans-serif" font-weight="700" font-size="19" transform="translate(345.588 200)">45</text></g><g clip-path="url(#clip18)"><text fill="#595959" font-family="Calibri,Calibri_MSFontService,sans-serif" font-weight="700" font-size="19" transform="translate(345.588 143)">50</text></g><g clip-path="url(#clip19)"><text fill="#595959" font-family="Calibri,Calibri_MSFontService,sans-serif" font-weight="700" font-size="19" transform="translate(345.588 87)">55</text></g><g clip-path="url(#clip20)"><text fill="#595959" font-family="Calibri,Calibri_MSFontService,sans-serif" font-weight="700" font-size="19" transform="translate(465.94 561)">200</text></g><g clip-path="url(#clip21)"><text fill="#595959" font-family="Calibri,Calibri_MSFontService,sans-serif" font-weight="700" font-size="19" transform="translate(662.549 561)">300</text></g><g clip-path="url(#clip22)"><text fill="#595959" font-family="Calibri,Calibri_MSFontService,sans-serif" font-weight="700" font-size="19" transform="translate(859.157 561)">400</text></g><g clip-path="url(#clip23)"><text fill="#595959" font-family="Yu Gothic,Yu Gothic_MSFontService,sans-serif" font-weight="700" font-size="19" transform="matrix(6.12323e-17 -1 1 6.12323e-17 332.348 372)">オーバーヘッド</text></g><g clip-path="url(#clip24)"><text fill="#595959" font-family="Yu Gothic,Yu Gothic_MSFontService,sans-serif" font-weight="700" font-size="19" transform="translate(639.405 592)">ノード数</text></g><g clip-path="url(#clip25)"><path d="M432.5 633.5 457.5 633.5" stroke="#ED7D31" stroke-width="3" stroke-linecap="round" stroke-linejoin="round" stroke-miterlimit="10" stroke-opacity="0.941176" fill="none" fill-rule="evenodd"/></g><g clip-path="url(#clip26)"><path d="M444.833 629.833 448.167 633.167 444.833 636.5 441.5 633.167Z" stroke="#ED7D31" stroke-linejoin="round" stroke-miterlimit="10" fill="#ED7D31"/></g><g clip-path="url(#clip27)"><text fill="#595959" font-family="Calibri,Calibri_MSFontService,sans-serif" font-weight="700" font-size="19" transform="translate(460.394 639)">SIGO</text></g><g clip-path="url(#clip28)"><path d="M517.5 633.5 543.5 633.5" stroke="#4472C4" stroke-width="3" stroke-linecap="round" stroke-linejoin="round" stroke-miterlimit="10" fill="none" fill-rule="evenodd"/></g><g clip-path="url(#clip29)"><path d="M530.333 629.833 533.667 636.5 527 636.5Z" stroke="#4472C4" stroke-linejoin="round" stroke-miterlimit="10" fill="#4472C4"/></g><g clip-path="url(#clip30)"><text fill="#595959" font-family="Calibri,Calibri_MSFontService,sans-serif" font-weight="700" font-size="19" transform="translate(545.857 639)">LSGO</text></g><g clip-path="url(#clip31)"><path d="M605.5 633.5 631.5 633.5" stroke="#FF0000" stroke-width="3" stroke-linecap="round" stroke-linejoin="round" stroke-miterlimit="10" fill="none" fill-rule="evenodd"/></g><g clip-path="url(#clip32)"><path d="M622.5 633C622.5 634.933 620.933 636.5 619 636.5 617.067 636.5 615.5 634.933 615.5 633 615.5 631.067 617.067 629.5 619 629.5 620.933 629.5 622.5 631.067 622.5 633Z" stroke="#FF0000" stroke-linejoin="round" stroke-miterlimit="10" fill="#FF0000"/></g><g clip-path="url(#clip33)"><text fill="#595959" font-family="Calibri,Calibri_MSFontService,sans-serif" font-weight="700" font-size="19" transform="translate(634.241 639)">SIGO + ORS</text></g><g clip-path="url(#clip34)"><path d="M741.5 633.5 766.5 633.5" stroke="#7F7F7F" stroke-width="3" stroke-linecap="round" stroke-linejoin="round" stroke-miterlimit="10" fill="none" fill-rule="evenodd"/></g><g clip-path="url(#clip35)"><path d="M750.5 629.5 757.5 629.5 757.5 636.5 750.5 636.5Z" stroke="#7F7F7F" stroke-linejoin="round" stroke-miterlimit="10" fill="#7F7F7F"/></g><g clip-path="url(#clip36)"><text fill="#595959" font-family="Calibri,Calibri_MSFontService,sans-serif" font-weight="700" font-size="19" transform="translate(769.398 639)">SIGO + JBR</text></g></g></svg>