<svg width="366" height="524" xmlns="http://www.w3.org/2000/svg" xmlns:xlink="http://www.w3.org/1999/xlink" overflow="hidden"><defs><clipPath id="clip0"><rect x="49" y="19" width="366" height="524"/></clipPath></defs><g clip-path="url(#clip0)" transform="translate(-49 -19)"><path d="M49.7243 58.2409 413.894 58.2409" stroke="#000000" stroke-width="1.33333" stroke-linejoin="round" stroke-miterlimit="10" fill="none" fill-rule="evenodd"/><path d="M49.7243 96.6409 413.894 96.6409" stroke="#000000" stroke-width="1.33333" stroke-linejoin="round" stroke-miterlimit="10" fill="none" fill-rule="evenodd"/><path d="M49.7243 135.041 413.894 135.041" stroke="#000000" stroke-width="1.33333" stroke-linejoin="round" stroke-miterlimit="10" fill="none" fill-rule="evenodd"/><path d="M49.7243 176.088 413.894 176.088" stroke="#000000" stroke-width="1.33333" stroke-linejoin="round" stroke-miterlimit="10" fill="none" fill-rule="evenodd"/><path d="M49.7243 214.488 413.894 214.488" stroke="#000000" stroke-width="1.33333" stroke-linejoin="round" stroke-miterlimit="10" fill="none" fill-rule="evenodd"/><path d="M49.7243 252.888 413.894 252.888" stroke="#000000" stroke-width="1.33333" stroke-linejoin="round" stroke-miterlimit="10" fill="none" fill-rule="evenodd"/><path d="M49.7243 291.288 413.894 291.288" stroke="#000000" stroke-width="1.33333" stroke-linejoin="round" stroke-miterlimit="10" fill="none" fill-rule="evenodd"/><path d="M49.7243 329.688 413.894 329.688" stroke="#000000" stroke-width="1.33333" stroke-linejoin="round" stroke-miterlimit="10" fill="none" fill-rule="evenodd"/><path d="M50.391 19.1743 50.391 541.554" stroke="#000000" stroke-width="1.33333" stroke-linejoin="round" stroke-miterlimit="10" fill="none" fill-rule="evenodd"/><path d="M413.227 19.1743 413.227 541.554" stroke="#000000" stroke-width="1.33333" stroke-linejoin="round" stroke-miterlimit="10" fill="none" fill-rule="evenodd"/><path d="M49.7243 19.8409 413.894 19.8409" stroke="#000000" stroke-width="1.33333" stroke-linejoin="round" stroke-miterlimit="10" fill="none" fill-rule="evenodd"/><path d="M49.7243 540.888 413.894 540.888" stroke="#000000" stroke-width="1.33333" stroke-linejoin="round" stroke-miterlimit="10" fill="none" fill-rule="evenodd"/><text font-family="Cambria Math,Cambria Math_MSFontService,sans-serif" font-weight="400" font-size="24" transform="translate(174.559 49)">𝑺𝒐𝒖𝒓𝒄𝒆𝑰𝒅<tspan font-size="24" x="24.1785" y="36">𝑫𝒔𝒕𝑰𝒅</tspan><tspan font-size="24" x="11.2652" y="74">𝑫𝒔</tspan>𝒕<tspan font-size="18" x="51.2652" y="79">𝒙</tspan><tspan font-size="24" x="62.4252" y="74">𝒑𝒐𝒔</tspan><tspan font-size="24" x="11.0985" y="114">𝑫𝒔</tspan>𝒕<tspan font-size="18" x="51.0985" y="119">𝒚</tspan><tspan font-size="24" x="62.5919" y="114">𝒑𝒐𝒔</tspan><tspan font-size="24" x="33.8366" y="154">𝑰</tspan>𝑫<tspan font-size="18" x="62.3366" y="159">𝟏</tspan><tspan font-size="24" x="37.1852" y="192">𝑰</tspan>𝑫<tspan font-size="18" x="65.6852" y="197">𝟐</tspan><tspan font-family="Yu Gothic,Yu Gothic_MSFontService,sans-serif" font-style="oblique" font-weight="700" font-size="24" x="47.1785" y="231">...</tspan><tspan font-size="24" x="35.7652" y="269">𝑰</tspan>𝑫<tspan font-size="18" x="64.2652" y="274">𝑵</tspan><tspan font-size="24" x="25" y="394">𝑫𝒂𝒕𝒂</tspan></text></g></svg>