<svg width="710" height="572" xmlns="http://www.w3.org/2000/svg" xmlns:xlink="http://www.w3.org/1999/xlink" overflow="hidden"><defs><clipPath id="clip0"><rect x="285" y="74" width="710" height="572"/></clipPath><clipPath id="clip1"><rect x="285" y="75" width="709" height="569"/></clipPath><clipPath id="clip2"><rect x="285" y="75" width="709" height="569"/></clipPath><clipPath id="clip3"><rect x="373" y="93" width="607" height="427"/></clipPath><clipPath id="clip4"><rect x="285" y="75" width="709" height="569"/></clipPath><clipPath id="clip5"><rect x="373" y="93" width="607" height="427"/></clipPath><clipPath id="clip6"><rect x="285" y="75" width="709" height="569"/></clipPath><clipPath id="clip7"><rect x="373" y="93" width="607" height="427"/></clipPath><clipPath id="clip8"><rect x="285" y="75" width="709" height="569"/></clipPath><clipPath id="clip9"><rect x="373" y="93" width="607" height="427"/></clipPath><clipPath id="clip10"><rect x="285" y="75" width="709" height="569"/></clipPath><clipPath id="clip11"><rect x="285" y="75" width="709" height="569"/></clipPath><clipPath id="clip12"><rect x="285" y="75" width="709" height="569"/></clipPath><clipPath id="clip13"><rect x="285" y="75" width="709" height="569"/></clipPath><clipPath id="clip14"><rect x="285" y="75" width="709" height="569"/></clipPath><clipPath id="clip15"><rect x="285" y="75" width="709" height="569"/></clipPath><clipPath id="clip16"><rect x="285" y="75" width="709" height="569"/></clipPath><clipPath id="clip17"><rect x="285" y="75" width="709" height="569"/></clipPath><clipPath id="clip18"><rect x="285" y="75" width="709" height="569"/></clipPath><clipPath id="clip19"><rect x="285" y="75" width="709" height="569"/></clipPath><clipPath id="clip20"><rect x="285" y="75" width="709" height="569"/></clipPath><clipPath id="clip21"><rect x="285" y="75" width="709" height="569"/></clipPath><clipPath id="clip22"><rect x="285" y="75" width="709" height="569"/></clipPath><clipPath id="clip23"><rect x="285" y="75" width="709" height="569"/></clipPath><clipPath id="clip24"><rect x="285" y="75" width="709" height="569"/></clipPath><clipPath id="clip25"><rect x="285" y="75" width="709" height="569"/></clipPath><clipPath id="clip26"><rect x="285" y="75" width="709" height="569"/></clipPath><clipPath id="clip27"><rect x="285" y="75" width="709" height="569"/></clipPath><clipPath id="clip28"><rect x="285" y="75" width="709" height="569"/></clipPath><clipPath id="clip29"><rect x="285" y="75" width="709" height="569"/></clipPath><clipPath id="clip30"><rect x="285" y="75" width="709" height="569"/></clipPath><clipPath id="clip31"><rect x="285" y="75" width="709" height="569"/></clipPath><clipPath id="clip32"><rect x="285" y="75" width="709" height="569"/></clipPath><clipPath id="clip33"><rect x="285" y="75" width="709" height="569"/></clipPath><clipPath id="clip34"><rect x="285" y="75" width="709" height="569"/></clipPath><clipPath id="clip35"><rect x="285" y="75" width="709" height="569"/></clipPath></defs><g clip-path="url(#clip0)" transform="translate(-285 -74)"><rect x="286" y="75" width="708" height="570" fill="#FFFFFF"/><g clip-path="url(#clip1)"><path d="M373.5 458.5 979.5 458.5M373.5 397.5 979.5 397.5M373.5 336.5 979.5 336.5M373.5 275.5 979.5 275.5M373.5 215.5 979.5 215.5M373.5 154.5 979.5 154.5M373.5 93.5001 979.5 93.5001" stroke="#D9D9D9" stroke-linejoin="round" stroke-miterlimit="10" fill="none"/></g><g clip-path="url(#clip2)"><path d="M373.5 519.5 979.5 519.5" stroke="#D9D9D9" stroke-linejoin="round" stroke-miterlimit="10" fill="none" fill-rule="evenodd"/></g><g clip-path="url(#clip3)"><path d="M474.5 436.5 676.5 306.5 878.5 281.5" stroke="#ED7D31" stroke-width="3" stroke-linecap="round" stroke-linejoin="round" stroke-miterlimit="10" stroke-opacity="0.941176" fill="none"/></g><g clip-path="url(#clip4)"><path d="M474.871 432.678 478.204 436.011 474.871 439.345 471.538 436.011Z" stroke="#ED7D31" stroke-linejoin="round" stroke-miterlimit="10" fill="#ED7D31"/><path d="M676.705 302.678 680.038 306.011 676.705 309.345 673.371 306.011Z" stroke="#ED7D31" stroke-linejoin="round" stroke-miterlimit="10" fill="#ED7D31"/><path d="M878.705 277.845 882.038 281.178 878.705 284.511 875.371 281.178Z" stroke="#ED7D31" stroke-linejoin="round" stroke-miterlimit="10" fill="#ED7D31"/></g><g clip-path="url(#clip5)"><path d="M474.5 464.5 676.5 294.5 878.5 260.5" stroke="#4472C4" stroke-width="3" stroke-linecap="round" stroke-linejoin="round" stroke-miterlimit="10" fill="none"/></g><g clip-path="url(#clip6)"><path d="M474.871 460.845 478.204 467.511 471.538 467.511Z" stroke="#4472C4" stroke-linejoin="round" stroke-miterlimit="10" fill="#4472C4"/><path d="M676.705 291.178 680.038 297.845 673.371 297.845Z" stroke="#4472C4" stroke-linejoin="round" stroke-miterlimit="10" fill="#4472C4"/><path d="M878.705 257.178 882.038 263.845 875.371 263.845Z" stroke="#4472C4" stroke-linejoin="round" stroke-miterlimit="10" fill="#4472C4"/></g><g clip-path="url(#clip7)"><path d="M474.5 393.5 676.5 193.5 878.5 142.5" stroke="#FF0000" stroke-width="3" stroke-linecap="round" stroke-linejoin="round" stroke-miterlimit="10" fill="none"/></g><g clip-path="url(#clip8)"><path d="M478.204 393.678C478.204 395.519 476.712 397.011 474.871 397.011 473.03 397.011 471.538 395.519 471.538 393.678 471.538 391.837 473.03 390.345 474.871 390.345 476.712 390.345 478.204 391.837 478.204 393.678Z" stroke="#FF0000" stroke-linejoin="round" stroke-miterlimit="10" fill="#FF0000"/><path d="M680.038 193.511C680.038 195.352 678.545 196.845 676.705 196.845 674.864 196.845 673.371 195.352 673.371 193.511 673.371 191.67 674.864 190.178 676.705 190.178 678.545 190.178 680.038 191.67 680.038 193.511Z" stroke="#FF0000" stroke-linejoin="round" stroke-miterlimit="10" fill="#FF0000"/><path d="M882.038 142.678C882.038 144.519 880.545 146.011 878.705 146.011 876.864 146.011 875.371 144.519 875.371 142.678 875.371 140.837 876.864 139.345 878.705 139.345 880.545 139.345 882.038 140.837 882.038 142.678Z" stroke="#FF0000" stroke-linejoin="round" stroke-miterlimit="10" fill="#FF0000"/></g><g clip-path="url(#clip9)"><path d="M474.5 308.5 676.5 141.5 878.5 94.5001" stroke="#7F7F7F" stroke-width="3" stroke-linecap="round" stroke-linejoin="round" stroke-miterlimit="10" fill="none"/></g><g clip-path="url(#clip10)"><path d="M471.538 305.345 478.204 305.345 478.204 312.011 471.538 312.011Z" stroke="#7F7F7F" stroke-linejoin="round" stroke-miterlimit="10" fill="#7F7F7F"/><path d="M673.371 138.511 680.038 138.511 680.038 145.178 673.371 145.178Z" stroke="#7F7F7F" stroke-linejoin="round" stroke-miterlimit="10" fill="#7F7F7F"/><path d="M875.371 91.0114 882.038 91.0114 882.038 97.6781 875.371 97.6781Z" stroke="#7F7F7F" stroke-linejoin="round" stroke-miterlimit="10" fill="#7F7F7F"/></g><g clip-path="url(#clip11)"><text fill="#595959" font-family="Calibri,Calibri_MSFontService,sans-serif" font-weight="700" font-size="19" transform="translate(337.611 525)">18</text></g><g clip-path="url(#clip12)"><text fill="#595959" font-family="Calibri,Calibri_MSFontService,sans-serif" font-weight="700" font-size="19" transform="translate(337.611 464)">19</text></g><g clip-path="url(#clip13)"><text fill="#595959" font-family="Calibri,Calibri_MSFontService,sans-serif" font-weight="700" font-size="19" transform="translate(337.611 404)">20</text></g><g clip-path="url(#clip14)"><text fill="#595959" font-family="Calibri,Calibri_MSFontService,sans-serif" font-weight="700" font-size="19" transform="translate(337.611 343)">21</text></g><g clip-path="url(#clip15)"><text fill="#595959" font-family="Calibri,Calibri_MSFontService,sans-serif" font-weight="700" font-size="19" transform="translate(337.611 282)">22</text></g><g clip-path="url(#clip16)"><text fill="#595959" font-family="Calibri,Calibri_MSFontService,sans-serif" font-weight="700" font-size="19" transform="translate(337.611 221)">23</text></g><g clip-path="url(#clip17)"><text fill="#595959" font-family="Calibri,Calibri_MSFontService,sans-serif" font-weight="700" font-size="19" transform="translate(337.611 160)">24</text></g><g clip-path="url(#clip18)"><text fill="#595959" font-family="Calibri,Calibri_MSFontService,sans-serif" font-weight="700" font-size="19" transform="translate(337.611 99)">25</text></g><g clip-path="url(#clip19)"><text fill="#595959" font-family="Calibri,Calibri_MSFontService,sans-serif" font-weight="700" font-size="19" transform="translate(465.352 550)">10</text></g><g clip-path="url(#clip20)"><text fill="#595959" font-family="Calibri,Calibri_MSFontService,sans-serif" font-weight="700" font-size="19" transform="translate(667.279 550)">20</text></g><g clip-path="url(#clip21)"><text fill="#595959" font-family="Calibri,Calibri_MSFontService,sans-serif" font-weight="700" font-size="19" transform="translate(869.205 550)">30</text></g><g clip-path="url(#clip22)"><text fill="#595959" font-family="Yu Gothic,Yu Gothic_MSFontService,sans-serif" font-weight="700" font-size="19" transform="matrix(6.12323e-17 -1 1 6.12323e-17 324.371 372)">オーバーヘッド</text></g><g clip-path="url(#clip23)"><text fill="#595959" font-family="Yu Gothic,Yu Gothic_MSFontService,sans-serif" font-weight="700" font-size="19" transform="translate(564.739 581)">シャドウイングパラメータ</text></g><g clip-path="url(#clip24)"><path d="M432.5 621.5 457.5 621.5" stroke="#ED7D31" stroke-width="3" stroke-linecap="round" stroke-linejoin="round" stroke-miterlimit="10" stroke-opacity="0.941176" fill="none" fill-rule="evenodd"/></g><g clip-path="url(#clip25)"><path d="M444.833 618.333 448.167 621.667 444.833 625 441.5 621.667Z" stroke="#ED7D31" stroke-linejoin="round" stroke-miterlimit="10" fill="#ED7D31"/></g><g clip-path="url(#clip26)"><text fill="#595959" font-family="Calibri,Calibri_MSFontService,sans-serif" font-weight="700" font-size="19" transform="translate(460.394 627)">SIGO</text></g><g clip-path="url(#clip27)"><path d="M517.5 621.5 543.5 621.5" stroke="#4472C4" stroke-width="3" stroke-linecap="round" stroke-linejoin="round" stroke-miterlimit="10" fill="none" fill-rule="evenodd"/></g><g clip-path="url(#clip28)"><path d="M530.333 618.333 533.667 625 527 625Z" stroke="#4472C4" stroke-linejoin="round" stroke-miterlimit="10" fill="#4472C4"/></g><g clip-path="url(#clip29)"><text fill="#595959" font-family="Calibri,Calibri_MSFontService,sans-serif" font-weight="700" font-size="19" transform="translate(545.858 627)">LSGO</text></g><g clip-path="url(#clip30)"><path d="M605.5 621.5 631.5 621.5" stroke="#FF0000" stroke-width="3" stroke-linecap="round" stroke-linejoin="round" stroke-miterlimit="10" fill="none" fill-rule="evenodd"/></g><g clip-path="url(#clip31)"><path d="M622.5 622C622.5 623.933 620.933 625.5 619 625.5 617.067 625.5 615.5 623.933 615.5 622 615.5 620.067 617.067 618.5 619 618.5 620.933 618.5 622.5 620.067 622.5 622Z" stroke="#FF0000" stroke-linejoin="round" stroke-miterlimit="10" fill="#FF0000"/></g><g clip-path="url(#clip32)"><text fill="#595959" font-family="Calibri,Calibri_MSFontService,sans-serif" font-weight="700" font-size="19" transform="translate(634.241 627)">SIGO + ORS</text></g><g clip-path="url(#clip33)"><path d="M741.5 621.5 766.5 621.5" stroke="#7F7F7F" stroke-width="3" stroke-linecap="round" stroke-linejoin="round" stroke-miterlimit="10" fill="none" fill-rule="evenodd"/></g><g clip-path="url(#clip34)"><path d="M750.5 618.5 757.5 618.5 757.5 625.5 750.5 625.5Z" stroke="#7F7F7F" stroke-linejoin="round" stroke-miterlimit="10" fill="#7F7F7F"/></g><g clip-path="url(#clip35)"><text fill="#595959" font-family="Calibri,Calibri_MSFontService,sans-serif" font-weight="700" font-size="19" transform="translate(769.398 627)">SIGO + JBR</text></g></g></svg>