<svg width="609" height="530" xmlns="http://www.w3.org/2000/svg" xmlns:xlink="http://www.w3.org/1999/xlink" overflow="hidden"><defs><clipPath id="clip0"><rect x="276" y="64" width="609" height="530"/></clipPath></defs><g clip-path="url(#clip0)" transform="translate(-276 -64)"><rect x="533.5" y="141.5" width="350" height="190" stroke="#787878" stroke-width="1.33333" stroke-miterlimit="8" fill="#A5A5A5"/><rect x="277.5" y="141.5" width="163" height="186" stroke="#787878" stroke-width="1.33333" stroke-miterlimit="8" fill="#A5A5A5"/><rect x="533.5" y="425.5" width="346" height="63" stroke="#787878" stroke-width="1.33333" stroke-miterlimit="8" fill="#A5A5A5"/><rect x="279.5" y="421.5" width="161" height="67" stroke="#787878" stroke-width="1.33333" stroke-miterlimit="8" fill="#A5A5A5"/><path d="M279 378 882.794 378" stroke="#A6A6A6" stroke-width="2.33333" stroke-miterlimit="8" stroke-dasharray="18.6667 7" fill="none" fill-rule="evenodd"/><path d="M0 0 603.794 2.36525" stroke="#A6A6A6" stroke-width="2.33333" stroke-miterlimit="8" stroke-dasharray="18.6667 7" fill="none" fill-rule="evenodd" transform="matrix(1 0 0 -1 279 93.3652)"/><path d="M0 0 1.86551 425.913" stroke="#A6A6A6" stroke-width="2.33333" stroke-miterlimit="8" stroke-dasharray="18.6667 7" fill="none" fill-rule="evenodd" transform="matrix(-1 0 0 1 484.866 65)"/><path d="M492.5 380.5C492.5 370.559 500.335 362.5 510 362.5 519.665 362.5 527.5 370.559 527.5 380.5 527.5 390.441 519.665 398.5 510 398.5 500.335 398.5 492.5 390.441 492.5 380.5Z" fill="#FFFFFF" fill-rule="evenodd"/><path d="M510 362.5 510 398.5M492.5 380.5 527.5 380.5" stroke="#000000" stroke-width="2.66667" stroke-miterlimit="8" fill="none" fill-rule="evenodd"/><path d="M492.5 380.5C492.5 370.559 500.335 362.5 510 362.5 519.665 362.5 527.5 370.559 527.5 380.5 527.5 390.441 519.665 398.5 510 398.5 500.335 398.5 492.5 390.441 492.5 380.5Z" stroke="#000000" stroke-width="2.66667" stroke-miterlimit="8" fill="none" fill-rule="evenodd"/><path d="M348.5 359.5C348.5 349.559 356.559 341.5 366.5 341.5 376.441 341.5 384.5 349.559 384.5 359.5 384.5 369.441 376.441 377.5 366.5 377.5 356.559 377.5 348.5 369.441 348.5 359.5Z" stroke="#000000" stroke-width="2.66667" stroke-miterlimit="8" fill="#FFFFFF" fill-rule="evenodd"/><path d="M357.5 359.5C357.5 353.977 361.753 349.5 367 349.5 372.247 349.5 376.5 353.977 376.5 359.5 376.5 365.023 372.247 369.5 367 369.5 361.753 369.5 357.5 365.023 357.5 359.5Z" stroke="#000000" stroke-width="2.66667" stroke-miterlimit="8" fill-rule="evenodd"/><path d="M440.5 180.5C440.5 170.559 448.559 162.5 458.5 162.5 468.441 162.5 476.5 170.559 476.5 180.5 476.5 190.441 468.441 198.5 458.5 198.5 448.559 198.5 440.5 190.441 440.5 180.5Z" stroke="#000000" stroke-width="2.66667" stroke-miterlimit="8" fill="#FFFFFF" fill-rule="evenodd"/><path d="M594.5 123.5C594.5 113.559 602.335 105.5 612 105.5 621.665 105.5 629.5 113.559 629.5 123.5 629.5 133.441 621.665 141.5 612 141.5 602.335 141.5 594.5 133.441 594.5 123.5Z" stroke="#000000" stroke-width="2.66667" stroke-miterlimit="8" fill-rule="evenodd"/><path d="M596.5 123.5C596.5 114.663 603.216 107.5 611.5 107.5 619.784 107.5 626.5 114.663 626.5 123.5 626.5 132.337 619.784 139.5 611.5 139.5 603.216 139.5 596.5 132.337 596.5 123.5Z" stroke="#000000" stroke-width="2.66667" stroke-miterlimit="8" fill="#FFFFFF" fill-rule="evenodd"/><text font-family="Yu Gothic,Yu Gothic_MSFontService,sans-serif" font-weight="700" font-size="24" transform="translate(634.28 137)">D</text><path d="M494.5 260C494.5 249.783 502.559 241.5 512.5 241.5 522.441 241.5 530.5 249.783 530.5 260 530.5 270.217 522.441 278.5 512.5 278.5 502.559 278.5 494.5 270.217 494.5 260Z" stroke="#000000" stroke-width="2.66667" stroke-miterlimit="8" fill="#FFFFFF" fill-rule="evenodd"/><path d="M582.5 354.5C582.5 344.559 590.335 336.5 600 336.5 609.665 336.5 617.5 344.559 617.5 354.5 617.5 364.441 609.665 372.5 600 372.5 590.335 372.5 582.5 364.441 582.5 354.5Z" stroke="#000000" stroke-width="2.66667" stroke-miterlimit="8" fill="#FFFFFF" fill-rule="evenodd"/><path d="M720.5 404.5C720.5 394.559 728.559 386.5 738.5 386.5 748.441 386.5 756.5 394.559 756.5 404.5 756.5 414.441 748.441 422.5 738.5 422.5 728.559 422.5 720.5 414.441 720.5 404.5Z" stroke="#000000" stroke-width="2.66667" stroke-miterlimit="8" fill="#FFFFFF" fill-rule="evenodd"/><path d="M284.5 516.5C284.5 506.559 292.335 498.5 302 498.5 311.665 498.5 319.5 506.559 319.5 516.5 319.5 526.441 311.665 534.5 302 534.5 292.335 534.5 284.5 526.441 284.5 516.5Z" stroke="#000000" stroke-width="2.66667" stroke-miterlimit="8" fill="#FFFFFF" fill-rule="evenodd"/><path d="M291.5 516.5C291.5 510.977 295.753 506.5 301 506.5 306.247 506.5 310.5 510.977 310.5 516.5 310.5 522.023 306.247 526.5 301 526.5 295.753 526.5 291.5 522.023 291.5 516.5Z" stroke="#000000" stroke-width="2.66667" stroke-miterlimit="8" fill-rule="evenodd"/><text font-family="Yu Gothic,Yu Gothic_MSFontService,sans-serif" font-weight="700" font-size="19" transform="translate(329.681 525)">送信ノード</text><path d="M581.5 518C581.5 507.783 589.559 499.5 599.5 499.5 609.441 499.5 617.5 507.783 617.5 518 617.5 528.217 609.441 536.5 599.5 536.5 589.559 536.5 581.5 528.217 581.5 518Z" stroke="#000000" stroke-width="2.66667" stroke-miterlimit="8" fill-rule="evenodd"/><path d="M583.5 518C583.5 509.44 590.44 502.5 599 502.5 607.56 502.5 614.5 509.44 614.5 518 614.5 526.56 607.56 533.5 599 533.5 590.44 533.5 583.5 526.56 583.5 518Z" stroke="#000000" stroke-width="2.66667" stroke-miterlimit="8" fill="#FFFFFF" fill-rule="evenodd"/><path d="M285.5 568C285.5 558.335 293.335 550.5 303 550.5 312.665 550.5 320.5 558.335 320.5 568 320.5 577.665 312.665 585.5 303 585.5 293.335 585.5 285.5 577.665 285.5 568Z" fill="#FFFFFF" fill-rule="evenodd"/><path d="M303 550.5 303 585.5M285.5 568 320.5 568" stroke="#000000" stroke-width="2.66667" stroke-miterlimit="8" fill="none" fill-rule="evenodd"/><path d="M285.5 568C285.5 558.335 293.335 550.5 303 550.5 312.665 550.5 320.5 558.335 320.5 568 320.5 577.665 312.665 585.5 303 585.5 293.335 585.5 285.5 577.665 285.5 568Z" stroke="#000000" stroke-width="2.66667" stroke-miterlimit="8" fill="none" fill-rule="evenodd"/><text font-family="Yu Gothic,Yu Gothic_MSFontService,sans-serif" font-weight="700" font-size="19" transform="translate(329.881 573)">交差点<tspan font-size="19" x="56" y="0">ノード</tspan><tspan font-size="19" x="293.886" y="-49">宛先ノード</tspan></text><rect x="567" y="552" width="64" height="35" stroke="#262626" stroke-width="4" stroke-miterlimit="8" stroke-dasharray="32 12" fill="none"/><text font-family="Yu Gothic,Yu Gothic_MSFontService,sans-serif" font-weight="700" font-size="19" transform="translate(655.575 577)">Intersection area</text><path d="M0.960643-0.924631 217.214 223.751 215.292 225.6-0.960643 0.924631ZM219.135 221.902C220.667 223.493 220.618 226.026 219.027 227.557 217.435 229.089 214.903 229.041 213.371 227.449 211.839 225.858 211.887 223.326 213.479 221.794 215.071 220.262 217.603 220.31 219.135 221.902Z" transform="matrix(1 0 0 -1 384.5 359.176)"/><path d="M384.755 358.191 492.429 379.15 491.92 381.768 384.245 360.809ZM492.939 376.533C495.107 376.955 496.523 379.055 496.101 381.223 495.679 383.392 493.579 384.808 491.41 384.386 489.242 383.963 487.826 381.863 488.248 379.695 488.67 377.527 490.77 376.111 492.939 376.533Z"/><path d="M422.054 318.998C438.026 324.05 446.88 341.093 441.828 357.066 440.825 360.237 439.307 363.221 437.336 365.9" stroke="#000000" stroke-width="3.66667" stroke-miterlimit="8" fill="none" fill-rule="evenodd"/><text font-family="Cambria Math,Cambria Math_MSFontService,sans-serif" font-weight="400" font-size="32" transform="translate(399.742 389)">𝜽<tspan font-size="23" x="20" y="6">𝒊</tspan><tspan fill="#5B9BD5" font-family="Yu Gothic,Yu Gothic_MSFontService,sans-serif" font-weight="700" font-size="24" x="218.08" y="-40">1</tspan></text><path d="M660.5 355.5C660.5 346.111 668.335 338.5 678 338.5 687.665 338.5 695.5 346.111 695.5 355.5 695.5 364.889 687.665 372.5 678 372.5 668.335 372.5 660.5 364.889 660.5 355.5Z" stroke="#000000" stroke-width="2.66667" stroke-miterlimit="8" fill="#FFFFFF" fill-rule="evenodd"/><text fill="#5B9BD5" font-family="Yu Gothic,Yu Gothic_MSFontService,sans-serif" font-weight="700" font-size="24" transform="translate(697.436 353)">2<tspan fill="#FF0000" font-family="Cambria Math,Cambria Math_MSFontService,sans-serif" font-weight="400" font-size="24" x="-79.4598" y="26">𝑿</tspan><tspan fill="#FF0000" font-family="Cambria Math,Cambria Math_MSFontService,sans-serif" font-weight="400" font-size="24" x="1.71741" y="30">𝒀</tspan><tspan font-size="24" x="-165.417" y="17">3</tspan><tspan fill="#FF0000" font-family="Cambria Math,Cambria Math_MSFontService,sans-serif" font-weight="400" font-size="24" x="-166.641" y="52">𝒁</tspan></text></g></svg>