<svg width="609" height="530" xmlns="http://www.w3.org/2000/svg" xmlns:xlink="http://www.w3.org/1999/xlink" overflow="hidden"><defs><clipPath id="clip0"><rect x="276" y="64" width="609" height="530"/></clipPath></defs><g clip-path="url(#clip0)" transform="translate(-276 -64)"><rect x="551.5" y="141.5" width="332" height="181" stroke="#787878" stroke-width="1.33333" stroke-miterlimit="8" fill="#A5A5A5"/><rect x="277.5" y="141.5" width="148" height="181" stroke="#787878" stroke-width="1.33333" stroke-miterlimit="8" fill="#A5A5A5"/><rect x="551.5" y="425.5" width="328" height="63" stroke="#787878" stroke-width="1.33333" stroke-miterlimit="8" fill="#A5A5A5"/><rect x="279.5" y="425.5" width="146" height="63" stroke="#787878" stroke-width="1.33333" stroke-miterlimit="8" fill="#A5A5A5"/><path d="M279 378 882.794 378" stroke="#A6A6A6" stroke-width="2.33333" stroke-miterlimit="8" stroke-dasharray="18.6667 7" fill="none" fill-rule="evenodd"/><path d="M0 0 603.794 2.36525" stroke="#A6A6A6" stroke-width="2.33333" stroke-miterlimit="8" stroke-dasharray="18.6667 7" fill="none" fill-rule="evenodd" transform="matrix(1 0 0 -1 279 93.3652)"/><path d="M0 0 1.86551 425.913" stroke="#A6A6A6" stroke-width="2.33333" stroke-miterlimit="8" stroke-dasharray="18.6667 7" fill="none" fill-rule="evenodd" transform="matrix(-1 0 0 1 484.866 65)"/><path d="M500.5 349.5C500.5 339.559 508.335 331.5 518 331.5 527.665 331.5 535.5 339.559 535.5 349.5 535.5 359.441 527.665 367.5 518 367.5 508.335 367.5 500.5 359.441 500.5 349.5Z" fill="#FFFFFF" fill-rule="evenodd"/><path d="M518 331.5 518 367.5M500.5 349.5 535.5 349.5" stroke="#000000" stroke-width="2.66667" stroke-miterlimit="8" fill="none" fill-rule="evenodd"/><path d="M500.5 349.5C500.5 339.559 508.335 331.5 518 331.5 527.665 331.5 535.5 339.559 535.5 349.5 535.5 359.441 527.665 367.5 518 367.5 508.335 367.5 500.5 359.441 500.5 349.5Z" stroke="#000000" stroke-width="2.66667" stroke-miterlimit="8" fill="none" fill-rule="evenodd"/><path d="M360.5 350.5C360.5 340.559 368.559 332.5 378.5 332.5 388.441 332.5 396.5 340.559 396.5 350.5 396.5 360.441 388.441 368.5 378.5 368.5 368.559 368.5 360.5 360.441 360.5 350.5Z" stroke="#000000" stroke-width="2.66667" stroke-miterlimit="8" fill="#FFFFFF" fill-rule="evenodd"/><path d="M368.5 350.5C368.5 344.977 372.753 340.5 378 340.5 383.247 340.5 387.5 344.977 387.5 350.5 387.5 356.023 383.247 360.5 378 360.5 372.753 360.5 368.5 356.023 368.5 350.5Z" stroke="#000000" stroke-width="2.66667" stroke-miterlimit="8" fill-rule="evenodd"/><path d="M440.5 180.5C440.5 170.559 448.559 162.5 458.5 162.5 468.441 162.5 476.5 170.559 476.5 180.5 476.5 190.441 468.441 198.5 458.5 198.5 448.559 198.5 440.5 190.441 440.5 180.5Z" stroke="#000000" stroke-width="2.66667" stroke-miterlimit="8" fill="#FFFFFF" fill-rule="evenodd"/><path d="M654.5 116.5C654.5 106.559 662.335 98.5001 672 98.5001 681.665 98.5001 689.5 106.559 689.5 116.5 689.5 126.441 681.665 134.5 672 134.5 662.335 134.5 654.5 126.441 654.5 116.5Z" stroke="#000000" stroke-width="2.66667" stroke-miterlimit="8" fill-rule="evenodd"/><path d="M656.5 116.5C656.5 107.663 663.216 100.5 671.5 100.5 679.784 100.5 686.5 107.663 686.5 116.5 686.5 125.337 679.784 132.5 671.5 132.5 663.216 132.5 656.5 125.337 656.5 116.5Z" stroke="#000000" stroke-width="2.66667" stroke-miterlimit="8" fill="#FFFFFF" fill-rule="evenodd"/><text font-family="Yu Gothic,Yu Gothic_MSFontService,sans-serif" font-weight="700" font-size="24" transform="translate(694.834 117)">D</text><path d="M506.5 271C506.5 260.783 514.559 252.5 524.5 252.5 534.441 252.5 542.5 260.783 542.5 271 542.5 281.217 534.441 289.5 524.5 289.5 514.559 289.5 506.5 281.217 506.5 271Z" stroke="#000000" stroke-width="2.66667" stroke-miterlimit="8" fill="#FFFFFF" fill-rule="evenodd"/><path d="M652.5 347C652.5 336.783 660.335 328.5 670 328.5 679.665 328.5 687.5 336.783 687.5 347 687.5 357.217 679.665 365.5 670 365.5 660.335 365.5 652.5 357.217 652.5 347Z" stroke="#000000" stroke-width="2.66667" stroke-miterlimit="8" fill="#FFFFFF" fill-rule="evenodd"/><path d="M734.5 400.5C734.5 390.559 742.559 382.5 752.5 382.5 762.441 382.5 770.5 390.559 770.5 400.5 770.5 410.441 762.441 418.5 752.5 418.5 742.559 418.5 734.5 410.441 734.5 400.5Z" stroke="#000000" stroke-width="2.66667" stroke-miterlimit="8" fill="#FFFFFF" fill-rule="evenodd"/><path d="M284.5 516.5C284.5 506.559 292.335 498.5 302 498.5 311.665 498.5 319.5 506.559 319.5 516.5 319.5 526.441 311.665 534.5 302 534.5 292.335 534.5 284.5 526.441 284.5 516.5Z" stroke="#000000" stroke-width="2.66667" stroke-miterlimit="8" fill="#FFFFFF" fill-rule="evenodd"/><path d="M291.5 516.5C291.5 510.977 295.753 506.5 301 506.5 306.247 506.5 310.5 510.977 310.5 516.5 310.5 522.023 306.247 526.5 301 526.5 295.753 526.5 291.5 522.023 291.5 516.5Z" stroke="#000000" stroke-width="2.66667" stroke-miterlimit="8" fill-rule="evenodd"/><text font-family="Yu Gothic,Yu Gothic_MSFontService,sans-serif" font-weight="700" font-size="19" transform="translate(329.68 525)">é€ä¿¡ãƒãƒ¼ãƒ‰</text><path d="M581.5 518C581.5 507.783 589.559 499.5 599.5 499.5 609.441 499.5 617.5 507.783 617.5 518 617.5 528.217 609.441 536.5 599.5 536.5 589.559 536.5 581.5 528.217 581.5 518Z" stroke="#000000" stroke-width="2.66667" stroke-miterlimit="8" fill-rule="evenodd"/><path d="M583.5 518C583.5 509.44 590.44 502.5 599 502.5 607.56 502.5 614.5 509.44 614.5 518 614.5 526.56 607.56 533.5 599 533.5 590.44 533.5 583.5 526.56 583.5 518Z" stroke="#000000" stroke-width="2.66667" stroke-miterlimit="8" fill="#FFFFFF" fill-rule="evenodd"/><path d="M285.5 568C285.5 558.335 293.335 550.5 303 550.5 312.665 550.5 320.5 558.335 320.5 568 320.5 577.665 312.665 585.5 303 585.5 293.335 585.5 285.5 577.665 285.5 568Z" fill="#FFFFFF" fill-rule="evenodd"/><path d="M303 550.5 303 585.5M285.5 568 320.5 568" stroke="#000000" stroke-width="2.66667" stroke-miterlimit="8" fill="none" fill-rule="evenodd"/><path d="M285.5 568C285.5 558.335 293.335 550.5 303 550.5 312.665 550.5 320.5 558.335 320.5 568 320.5 577.665 312.665 585.5 303 585.5 293.335 585.5 285.5 577.665 285.5 568Z" stroke="#000000" stroke-width="2.66667" stroke-miterlimit="8" fill="none" fill-rule="evenodd"/><text font-family="Yu Gothic,Yu Gothic_MSFontService,sans-serif" font-weight="700" font-size="19" transform="translate(329.881 573)">äº¤å·®ç‚¹<tspan font-size="19" x="56" y="0">ãƒãƒ¼ãƒ‰</tspan><tspan font-size="19" x="293.886" y="-49">å®›å…ˆãƒãƒ¼ãƒ‰</tspan></text><rect x="567" y="552" width="64" height="35" stroke="#262626" stroke-width="4" stroke-miterlimit="8" stroke-dasharray="32 12" fill="none"/><text font-family="Yu Gothic,Yu Gothic_MSFontService,sans-serif" font-weight="700" font-size="19" transform="translate(655.575 577)">Intersection area</text><rect x="410" y="311" width="157" height="125" stroke="#262626" stroke-width="4" stroke-miterlimit="8" stroke-dasharray="32 12" fill="none"/><path d="M0.857817-1.02075 261.081 217.665 259.365 219.707-0.857817 1.02075ZM262.797 215.624C264.488 217.045 264.707 219.568 263.285 221.26 261.864 222.951 259.341 223.17 257.65 221.748 255.958 220.327 255.74 217.804 257.161 216.113 258.582 214.422 261.105 214.203 262.797 215.624Z" transform="matrix(1 0 0 -1 396.5 351.186)"/><path d="M0.0110212-1.33329 104.107-0.472815 104.085 2.19376-0.0110212 1.33329ZM104.129-3.13939C106.338-3.12113 108.114-1.31553 108.095 0.893536 108.077 3.1026 106.272 4.8786 104.062 4.86034 101.853 4.84208 100.077 3.03647 100.096 0.827409 100.114-1.38165 101.92-3.15765 104.129-3.13939Z" transform="matrix(1 0 0 -1 396.5 350.361)"/><path d="M437.355 318.235C448.733 319.769 456.713 330.235 455.179 341.613 454.875 343.872 454.201 346.065 453.184 348.105" stroke="#000000" stroke-width="3.66667" stroke-miterlimit="8" fill="none" fill-rule="evenodd"/><text font-family="Cambria Math,Cambria Math_MSFontService,sans-serif" font-weight="400" font-size="32" transform="translate(423.686 375)">ğœ½<tspan font-size="23" x="20" y="6">ğ’Š</tspan></text></g></svg>