<svg width="459" height="426" xmlns="http://www.w3.org/2000/svg" xmlns:xlink="http://www.w3.org/1999/xlink" overflow="hidden"><defs><clipPath id="clip0"><rect x="83" y="97" width="459" height="426"/></clipPath></defs><g clip-path="url(#clip0)" transform="translate(-83 -97)"><path d="M84.5001 252.5C84.5001 233.722 100.618 218.5 120.5 218.5 140.382 218.5 156.5 233.722 156.5 252.5 156.5 271.278 140.382 286.5 120.5 286.5 100.618 286.5 84.5001 271.278 84.5001 252.5Z" stroke="#000000" stroke-width="1.33333" stroke-miterlimit="8" fill="#FFFFFF" fill-rule="evenodd"/><text font-family="Cambria Math,Cambria Math_MSFontService,sans-serif" font-weight="400" font-size="37" transform="translate(93.1471 265)">𝑵<tspan font-size="27" x="28.3333" y="7">𝒔</tspan></text><path d="M296.5 250.5C296.5 231.722 312.394 216.5 332 216.5 351.606 216.5 367.5 231.722 367.5 250.5 367.5 269.278 351.606 284.5 332 284.5 312.394 284.5 296.5 269.278 296.5 250.5Z" stroke="#000000" stroke-width="1.33333" stroke-miterlimit="8" fill="#FFFFFF" fill-rule="evenodd"/><text font-family="Cambria Math,Cambria Math_MSFontService,sans-serif" font-weight="400" font-size="37" transform="translate(303.272 262)">𝑵<tspan font-size="27" x="28.3333" y="8">𝟏</tspan></text><path d="M260.5 133.5C260.5 114.722 276.618 99.5001 296.5 99.5001 316.382 99.5001 332.5 114.722 332.5 133.5 332.5 152.278 316.382 167.5 296.5 167.5 276.618 167.5 260.5 152.278 260.5 133.5Z" stroke="#000000" stroke-width="1.33333" stroke-miterlimit="8" fill="#FFFFFF" fill-rule="evenodd"/><text font-family="Cambria Math,Cambria Math_MSFontService,sans-serif" font-weight="400" font-size="37" transform="translate(267.435 145)">𝑵<tspan font-size="27" x="28.3333" y="8">𝟐</tspan></text><path d="M469.5 252.5C469.5 233.722 485.618 218.5 505.5 218.5 525.382 218.5 541.5 233.722 541.5 252.5 541.5 271.278 525.382 286.5 505.5 286.5 485.618 286.5 469.5 271.278 469.5 252.5Z" stroke="#000000" stroke-width="1.33333" stroke-miterlimit="8" fill="#FFFFFF" fill-rule="evenodd"/><text font-family="Cambria Math,Cambria Math_MSFontService,sans-serif" font-weight="400" font-size="37" transform="translate(475.947 264)">𝑵<tspan font-size="27" x="28.3333" y="8">𝒅</tspan></text><text font-family="Yu Gothic,Yu Gothic_MSFontService,sans-serif" font-weight="700" font-size="24" writing-mode="tb-rl" transform="matrix(-1 1.22465e-16 -1.22465e-16 -1 322.42 392)" x="-8.27344" y="-2.88281">・・・</text><path d="M264.5 419.5C264.5 400.722 280.394 385.5 300 385.5 319.606 385.5 335.5 400.722 335.5 419.5 335.5 438.278 319.606 453.5 300 453.5 280.394 453.5 264.5 438.278 264.5 419.5Z" stroke="#000000" stroke-width="1.33333" stroke-miterlimit="8" fill="#FFFFFF" fill-rule="evenodd"/><text font-family="Cambria Math,Cambria Math_MSFontService,sans-serif" font-weight="400" font-size="37" transform="translate(270.523 431)">𝑵<tspan font-size="27" x="28.3333" y="8">𝒏</tspan></text><path d="M0.549271-0.835644 95.8171 61.7842 94.7186 63.4555-0.549271 0.835644ZM96.3508 58.5449 100.839 66.2817 91.9566 65.2301Z" transform="matrix(1 0 0 -1 156 218.282)"/><path d="M0.0052038-0.999986 122.336-0.363392 122.326 1.63658-0.0052038 0.999986ZM121.019-3.37029 128.998 0.671286 120.977 4.6296Z" transform="matrix(1 0 0 -1 162 252.671)"/><path d="M150.651 290.241 260.15 384.199 258.847 385.716 149.349 291.759ZM261.091 381.053 264.558 389.299 255.882 387.125Z"/><text font-family="Yu Gothic,Yu Gothic_MSFontService,sans-serif" font-weight="700" font-size="24" transform="translate(271.3 318)">中継タイマー<tspan fill="#FF0000" font-size="27" x="144" y="0">: 0s </tspan><tspan font-size="24" x="16.5034" y="-129">中継タイマー</tspan><tspan fill="#FF0000" font-size="27" x="160.503" y="-129">: 0.04s </tspan><tspan font-size="24" x="-15.4832" y="163">中継タイマー</tspan><tspan fill="#FF0000" font-size="27" x="128.517" y="163">: 0.12s </tspan></text></g></svg>