<svg width="388" height="272" xmlns="http://www.w3.org/2000/svg" xmlns:xlink="http://www.w3.org/1999/xlink" overflow="hidden"><defs><clipPath id="clip0"><rect x="839" y="66" width="388" height="272"/></clipPath></defs><g clip-path="url(#clip0)" transform="translate(-839 -66)"><path d="M1016 292.5C1016 285.044 1021.82 279 1029 279 1036.18 279 1042 285.044 1042 292.5 1042 299.956 1036.18 306 1029 306 1021.82 306 1016 299.956 1016 292.5Z" stroke="#000000" stroke-width="2" stroke-miterlimit="8" fill="#FFC000" fill-rule="evenodd"/><path d="M1158 177.5C1158 170.044 1163.82 164 1171 164 1178.18 164 1184 170.044 1184 177.5 1184 184.956 1178.18 191 1171 191 1163.82 191 1158 184.956 1158 177.5Z" stroke="#000000" stroke-width="2" stroke-miterlimit="8" fill="#FFC000" fill-rule="evenodd"/><path d="M1004 105.5C1004 98.0442 1009.82 92 1017 92 1024.18 92 1030 98.0442 1030 105.5 1030 112.956 1024.18 119 1017 119 1009.82 119 1004 112.956 1004 105.5Z" stroke="#000000" stroke-width="2" stroke-miterlimit="8" fill="#FFC000" fill-rule="evenodd"/><path d="M874 144.5C874 137.044 879.82 131 887 131 894.18 131 900 137.044 900 144.5 900 151.956 894.18 158 887 158 879.82 158 874 151.956 874 144.5Z" stroke="#000000" stroke-width="2" stroke-miterlimit="8" fill="#FFC000" fill-rule="evenodd"/><path d="M900 259C900 251.82 905.82 246 913 246 920.18 246 926 251.82 926 259 926 266.18 920.18 272 913 272 905.82 272 900 266.18 900 259Z" stroke="#000000" stroke-width="2" stroke-miterlimit="8" fill="#FFC000" fill-rule="evenodd"/><path d="M1030 106 1161.81 168.668" stroke="#000000" stroke-width="2.33333" stroke-miterlimit="8" fill="none" fill-rule="evenodd"/><path d="M0 0 85.3431 134.354" stroke="#000000" stroke-width="2.33333" stroke-miterlimit="8" fill="none" fill-rule="evenodd" transform="matrix(-1 0 0 1 1007.34 115)"/><path d="M1015.84 292.385 926 259" stroke="#000000" stroke-width="2.33333" stroke-miterlimit="8" fill="none" fill-rule="evenodd"/><path d="M912.91 245.93 887 158" stroke="#000000" stroke-width="2.33333" stroke-miterlimit="8" fill="none" fill-rule="evenodd"/><path d="M0 0 107.458 29.2264" stroke="#000000" stroke-width="2.33333" stroke-miterlimit="8" fill="none" fill-rule="evenodd" transform="matrix(1 0 0 -1 897 135.226)"/><path d="M897 154 1020.34 283.107" stroke="#000000" stroke-width="2.33333" stroke-miterlimit="8" fill="none" fill-rule="evenodd"/><text font-family="Yu Gothic,Yu Gothic_MSFontService,sans-serif" font-weight="700" font-size="24" transform="translate(1050.67 316)">x<tspan font-size="24" x="-174.469" y="-32">w</tspan><tspan font-size="24" x="-196.438" y="-172">u</tspan><tspan font-size="24" x="-69.9012" y="-220">z</tspan><tspan font-size="24" x="142.763" y="-118">D</tspan></text><path d="M0 0 123.512 95.6659" stroke="#7F7F7F" stroke-width="2.33333" stroke-miterlimit="8" stroke-dasharray="7 2.33333" fill="none" fill-rule="evenodd" transform="matrix(-1 0 0 1 1161.51 187)"/><path d="M1016.01 273.346 1009.95 266.697 1012.16 264.675 1018.23 271.324ZM1007.92 264.48 1001.86 257.831 1004.07 255.809 1010.14 262.458ZM999.836 255.615 993.77 248.966 995.987 246.944 1002.05 253.593ZM991.749 246.75 985.683 240.101 987.899 238.079 993.965 244.728ZM983.661 237.884 977.595 231.236 979.812 229.214 985.877 235.863ZM975.574 229.019 969.508 222.37 971.724 220.348 977.79 226.997ZM967.486 220.154 961.421 213.505 963.637 211.483 969.702 218.132ZM959.399 211.289 953.333 204.64 955.549 202.618 961.615 209.267ZM951.311 202.423 945.246 195.775 947.462 193.753 953.527 200.402ZM943.224 193.558 937.158 186.909 939.374 184.887 945.44 191.536ZM935.136 184.693 929.071 178.044 931.287 176.022 937.353 182.671ZM927.049 175.828 920.983 169.179 923.199 167.157 929.265 173.806ZM918.961 166.962 912.896 160.313 915.112 158.292 921.178 164.941ZM910.874 158.097 904.808 151.448 907.025 149.426 913.09 156.075ZM903.241 154.182 900.5 144.5 909.89 148.116Z" fill="#4472C4"/><path d="M0.40575-1.44408 9.07023 0.990423 8.25873 3.87858-0.40575 1.44408ZM11.9584 1.80192 20.6229 4.23643 19.8114 7.12459 11.1469 4.69008ZM23.511 5.04793 32.1755 7.48243 31.364 10.3706 22.6995 7.93609ZM35.0637 8.29393 43.7281 10.7284 42.9166 13.6166 34.2522 11.1821ZM46.6163 11.5399 55.2808 13.9744 54.4693 16.8626 45.8048 14.4281ZM58.1689 14.7859 66.8334 17.2204 66.0219 20.1086 57.3574 17.6741ZM69.7216 18.0319 78.3861 20.4664 77.5746 23.3546 68.9101 20.9201ZM78.0817 17.2648 85.5289 24.0315 75.6472 25.9292Z" fill="#4472C4" transform="matrix(1 0 0 -1 908.5 140.532)"/><path d="M1.2622-0.810458 6.12495 6.76276 3.60055 8.38368-1.2622 0.810458ZM7.74587 9.28717 12.6086 16.8604 10.0842 18.4813 5.22146 10.9081ZM14.2295 19.3848 19.0923 26.958 16.5679 28.5789 11.7051 21.0057ZM20.7132 29.4824 25.576 37.0556 23.0515 38.6766 18.1888 31.1033ZM27.1969 39.58 32.0596 47.1533 29.5352 48.7742 24.6725 41.201ZM33.6805 49.6777 38.5433 57.2509 36.0189 58.8718 31.1561 51.2986ZM40.1642 59.7753 45.0269 67.3485 42.5025 68.9694 37.6398 61.3962ZM46.6479 69.8729 51.5106 77.4462 48.9862 79.0671 44.1235 71.4939ZM53.1315 79.9706 57.9943 87.5438 55.4699 89.1647 50.6071 81.5915ZM59.6152 90.0682 64.4779 97.6414 61.9535 99.2623 57.0908 91.6891ZM66.0989 100.166 70.9616 107.739 68.4372 109.36 63.5745 101.787ZM72.5825 110.263 72.7433 110.514 70.2189 112.135 70.0581 111.884ZM74.4573 107.631 75.5334 117.635 66.8841 112.494Z" fill="#4472C4" transform="matrix(-1 0 0 1 995.034 122.5)"/><path d="M899.535 239.92 896.971 231.293 899.847 230.438 902.411 239.066ZM896.117 228.417 893.553 219.79 896.429 218.936 898.993 227.563ZM892.699 216.914 890.135 208.287 893.011 207.433 895.575 216.06ZM889.281 205.411 886.717 196.784 889.593 195.93 892.156 204.557ZM885.863 193.909 883.299 185.281 886.175 184.427 888.738 193.054ZM882.445 182.406 879.881 173.779 882.757 172.924 885.32 181.551ZM879.026 170.903 878.198 168.117 881.074 167.262 881.902 170.048ZM875.75 170.409 877.5 160.5 884.377 167.845Z" fill="#4472C4"/><path d="M898.586 164.465 904.797 170.978 902.626 173.048 896.415 166.535ZM906.867 173.149 913.079 179.662 910.908 181.732 904.696 175.219ZM915.149 181.833 921.36 188.346 919.189 190.417 912.978 183.903ZM923.431 190.517 929.642 197.03 927.471 199.101 921.26 192.588ZM931.712 199.201 937.924 205.714 935.753 207.785 929.541 201.272ZM939.994 207.885 946.205 214.398 944.034 216.469 937.823 209.956ZM948.276 216.569 954.487 223.082 952.316 225.153 946.105 218.64ZM956.557 225.253 962.769 231.767 960.598 233.837 954.386 227.324ZM964.839 233.938 971.05 240.451 968.879 242.521 962.668 236.008ZM973.121 242.622 979.332 249.135 977.161 251.205 970.95 244.692ZM981.403 251.306 987.614 257.819 985.443 259.889 979.232 253.376ZM989.684 259.99 995.896 266.503 993.724 268.573 987.513 262.06ZM997.966 268.674 1004.18 275.187 1002.01 277.257 995.795 270.744ZM1005.78 272.522 1008.74 282.141 999.268 278.733Z" fill="#4472C4"/></g></svg>