<svg xmlns="http://www.w3.org/2000/svg" xmlns:xlink="http://www.w3.org/1999/xlink" xmlns:lucid="lucid" width="2280" height="1000"><g transform="translate(-120 -360)" lucid:page-tab-id="0_0"><path d="M0 0h2500v1500H0z" fill="#fff"/><path d="M780 386c0-3.3 2.7-6 6-6h328c3.3 0 6 2.7 6 6v108c0 3.3-2.7 6-6 6H786c-3.3 0-6-2.7-6-6z" stroke="#5e5e5e" stroke-width="3" fill="#fff"/><use xlink:href="#a" transform="matrix(1,0,0,1,792,392) translate(75.65333333333335 57.93333333333333)"/><use xlink:href="#b" transform="matrix(1,0,0,1,792,392) translate(160.34666666666666 57.93333333333333)"/><use xlink:href="#c" transform="matrix(1,0,0,1,792,392) translate(187.01333333333332 57.93333333333333)"/><use xlink:href="#d" transform="matrix(1,0,0,1,792,392) translate(213.68 57.93333333333333)"/><path d="M944.57 542.55c3-1.4 7.86-1.4 10.86 0l159.14 74.9c3 1.4 3 3.7 0 5.1l-159.14 74.9c-3 1.4-7.86 1.4-10.86 0l-159.14-74.9c-3-1.4-3-3.7 0-5.1z" stroke="#5e5e5e" stroke-width="3" fill="#fff"/><use xlink:href="#e" transform="matrix(1,0,0,1,785,545) translate(115.27833333333335 54.37083333333333)"/><use xlink:href="#f" transform="matrix(1,0,0,1,785,545) translate(55.085000000000015 93.83749999999999)"/><use xlink:href="#g" transform="matrix(1,0,0,1,785,545) translate(141.5916666666667 93.83749999999999)"/><use xlink:href="#h" transform="matrix(1,0,0,1,785,545) translate(168.25833333333335 93.83749999999999)"/><use xlink:href="#i" transform="matrix(1,0,0,1,785,545) translate(194.925 93.83749999999999)"/><use xlink:href="#j" transform="matrix(1,0,0,1,785,545) translate(221.59166666666667 93.83749999999999)"/><use xlink:href="#k" transform="matrix(1,0,0,1,785,545) translate(248.25833333333333 93.83749999999999)"/><path d="M950 502.5v19.1" stroke="#5e5e5e" stroke-width="2" fill="none"/><path d="M951 502.53h-2v-1.03h2" fill="#5e5e5e"/><path d="M950 536.88l-4.64-14.27h9.28z" stroke="#5e5e5e" stroke-width="2" fill="#5e5e5e"/><path d="M514.3 661.9c3.15-1.05 8.25-1.05 11.4 0l228.6 76.2c3.15 1.05 3.15 2.75 0 3.8l-228.6 76.2c-3.15 1.05-8.25 1.05-11.4 0l-228.6-76.2c-3.15-1.05-3.15-2.75 0-3.8z" stroke="#5e5e5e" stroke-width="3" fill="#fff"/><use xlink:href="#l" transform="matrix(1,0,0,1,285,665) translate(168.33833333333334 49.68333333333333)"/><use xlink:href="#m" transform="matrix(1,0,0,1,285,665) translate(195.005 49.68333333333333)"/><use xlink:href="#n" transform="matrix(1,0,0,1,285,665) translate(221.67166666666665 49.68333333333333)"/><use xlink:href="#o" transform="matrix(1,0,0,1,285,665) translate(248.3383333333333 49.68333333333333)"/><use xlink:href="#p" transform="matrix(1,0,0,1,285,665) translate(275.005 49.68333333333333)"/><use xlink:href="#q" transform="matrix(1,0,0,1,285,665) translate(61.67166666666663 89.14999999999999)"/><use xlink:href="#r" transform="matrix(1,0,0,1,285,665) translate(88.3383333333333 89.14999999999999)"/><use xlink:href="#s" transform="matrix(1,0,0,1,285,665) translate(115.00499999999997 89.14999999999999)"/><use xlink:href="#b" transform="matrix(1,0,0,1,285,665) translate(141.67166666666662 89.14999999999999)"/><use xlink:href="#t" transform="matrix(1,0,0,1,285,665) translate(168.33833333333328 89.14999999999999)"/><use xlink:href="#u" transform="matrix(1,0,0,1,285,665) translate(195.00499999999994 89.14999999999999)"/><use xlink:href="#v" transform="matrix(1,0,0,1,285,665) translate(221.6716666666666 89.14999999999999)"/><use xlink:href="#c" transform="matrix(1,0,0,1,285,665) translate(248.33833333333325 89.14999999999999)"/><use xlink:href="#w" transform="matrix(1,0,0,1,285,665) translate(275.00499999999994 89.14999999999999)"/><use xlink:href="#x" transform="matrix(1,0,0,1,285,665) translate(301.6716666666666 89.14999999999999)"/><use xlink:href="#y" transform="matrix(1,0,0,1,285,665) translate(328.3383333333333 89.14999999999999)"/><use xlink:href="#o" transform="matrix(1,0,0,1,285,665) translate(355.005 89.14999999999999)"/><use xlink:href="#z" transform="matrix(1,0,0,1,285,665) translate(381.6716666666667 89.14999999999999)"/><use xlink:href="#A" transform="matrix(1,0,0,1,285,665) translate(181.67166666666665 128.61666666666665)"/><use xlink:href="#B" transform="matrix(1,0,0,1,285,665) translate(208.3383333333333 128.61666666666665)"/><use xlink:href="#C" transform="matrix(1,0,0,1,285,665) translate(235.00499999999997 128.61666666666665)"/><use xlink:href="#D" transform="matrix(1,0,0,1,285,665) translate(261.6716666666666 128.61666666666665)"/><path d="M608.86 621h-82.73l-2.64.7-1.8 1.8-.7 2.63v15.1h-2v-15.36l.92-3.42 2.53-2.53 3.42-.92h83m172.03 2H653.3v-2h127.6" fill="#5e5e5e"/><path d="M781.6 621h-.73v-2h1.32M520 656.5l-4.64-14.26h9.28z" fill="#5e5e5e"/><path d="M520 659.74l-6-18.5h12m-9.26 2l3.26 10.03 3.26-10.03" fill="#5e5e5e"/><use xlink:href="#E" transform="matrix(1,0,0,1,608.8564887838331,603.5555555555555) translate(0 25.777777777777775)"/><use xlink:href="#F" transform="matrix(1,0,0,1,608.8564887838331,603.5555555555555) translate(22.22222222222222 25.777777777777775)"/><path d="M1524.35 702.03c3.12-1.12 8.18-1.12 11.3 0l238.7 85.94c3.12 1.12 3.12 2.94 0 4.06l-238.7 85.94c-3.12 1.12-8.18 1.12-11.3 0l-238.7-85.94c-3.12-1.12-3.12-2.94 0-4.06z" stroke="#5e5e5e" stroke-width="3" fill="#fff"/><use xlink:href="#G" transform="matrix(1,0,0,1,1285,705) translate(165.27166666666668 57.49583333333333)"/><use xlink:href="#H" transform="matrix(1,0,0,1,1285,705) translate(191.93833333333333 57.49583333333333)"/><use xlink:href="#I" transform="matrix(1,0,0,1,1285,705) translate(218.605 57.49583333333333)"/><use xlink:href="#J" transform="matrix(1,0,0,1,1285,705) translate(245.27166666666665 57.49583333333333)"/><use xlink:href="#K" transform="matrix(1,0,0,1,1285,705) translate(271.9383333333333 57.49583333333333)"/><use xlink:href="#B" transform="matrix(1,0,0,1,1285,705) translate(58.60499999999997 96.9625)"/><use xlink:href="#L" transform="matrix(1,0,0,1,1285,705) translate(85.27166666666663 96.9625)"/><use xlink:href="#M" transform="matrix(1,0,0,1,1285,705) translate(111.9383333333333 96.9625)"/><use xlink:href="#N" transform="matrix(1,0,0,1,1285,705) translate(138.60499999999996 96.9625)"/><use xlink:href="#O" transform="matrix(1,0,0,1,1285,705) translate(165.27166666666662 96.9625)"/><use xlink:href="#H" transform="matrix(1,0,0,1,1285,705) translate(191.93833333333328 96.9625)"/><use xlink:href="#I" transform="matrix(1,0,0,1,1285,705) translate(218.60499999999993 96.9625)"/><use xlink:href="#P" transform="matrix(1,0,0,1,1285,705) translate(245.2716666666666 96.9625)"/><use xlink:href="#A" transform="matrix(1,0,0,1,1285,705) translate(298.0716666666666 96.9625)"/><use xlink:href="#n" transform="matrix(1,0,0,1,1285,705) translate(324.7383333333333 96.9625)"/><use xlink:href="#Q" transform="matrix(1,0,0,1,1285,705) translate(351.405 96.9625)"/><use xlink:href="#R" transform="matrix(1,0,0,1,1285,705) translate(378.07166666666666 96.9625)"/><use xlink:href="#S" transform="matrix(1,0,0,1,1285,705) translate(404.73833333333334 96.9625)"/><use xlink:href="#T" transform="matrix(1,0,0,1,1285,705) translate(178.33833333333334 136.42916666666667)"/><use xlink:href="#U" transform="matrix(1,0,0,1,1285,705) translate(205.005 136.42916666666667)"/><use xlink:href="#Q" transform="matrix(1,0,0,1,1285,705) translate(231.67166666666665 136.42916666666667)"/><use xlink:href="#V" transform="matrix(1,0,0,1,1285,705) translate(258.3383333333333 136.42916666666667)"/><use xlink:href="#D" transform="matrix(1,0,0,1,1285,705) translate(285.005 136.42916666666667)"/><path d="M1527.55 619.92l2.53 2.53.92 3.42v55.47h-2v-55.2l-.7-2.65-1.8-1.8-2.63-.7H1397.3v-2h126.83m-405.03 2v-2h211.54v2" fill="#5e5e5e"/><path d="M1119.13 621h-1.32l.6-2h.73M1530 696.6l-4.64-14.26h9.28z" fill="#5e5e5e"/><path d="M1530 699.84l-6-18.5h12m-9.26 2l3.26 10.03 3.26-10.03" fill="#5e5e5e"/><g><use xlink:href="#W" transform="matrix(1,0,0,1,1330.638212234434,603.5555555555555) translate(0 25.777777777777775)"/><use xlink:href="#X" transform="matrix(1,0,0,1,1330.638212234434,603.5555555555555) translate(22.22222222222222 25.777777777777775)"/><use xlink:href="#Y" transform="matrix(1,0,0,1,1330.638212234434,603.5555555555555) translate(44.44444444444444 25.777777777777775)"/></g><path d="M140 955.67c0-3.32 2.7-6 6-6h208c3.3 0 6 2.68 6 6v108c0 3.3-2.7 6-6 6H146c-3.3 0-6-2.7-6-6z" stroke="#5e5e5e" stroke-width="3" fill="#fff"/><g><use xlink:href="#Z" transform="matrix(1,0,0,1,152,961.6666666666666) translate(4.666666666666686 57.93333333333333)"/><use xlink:href="#q" transform="matrix(1,0,0,1,152,961.6666666666666) translate(31.33333333333335 57.93333333333333)"/><use xlink:href="#r" transform="matrix(1,0,0,1,152,961.6666666666666) translate(58.000000000000014 57.93333333333333)"/><use xlink:href="#s" transform="matrix(1,0,0,1,152,961.6666666666666) translate(84.66666666666669 57.93333333333333)"/><use xlink:href="#b" transform="matrix(1,0,0,1,152,961.6666666666666) translate(111.33333333333334 57.93333333333333)"/><use xlink:href="#aa" transform="matrix(1,0,0,1,152,961.6666666666666) translate(138 57.93333333333333)"/><use xlink:href="#ab" transform="matrix(1,0,0,1,152,961.6666666666666) translate(164.66666666666666 57.93333333333333)"/></g><path d="M600 986c0-3.3 2.7-6 6-6h308c3.3 0 6 2.7 6 6v108c0 3.3-2.7 6-6 6H606c-3.3 0-6-2.7-6-6z" stroke="#5e5e5e" stroke-width="3" fill="#fff"/><g><use xlink:href="#ac" transform="matrix(1,0,0,1,612,992) translate(28.00000000000003 30.93333333333333)"/><use xlink:href="#ad" transform="matrix(1,0,0,1,612,992) translate(54.66666666666669 30.93333333333333)"/><use xlink:href="#ae" transform="matrix(1,0,0,1,612,992) translate(81.33333333333336 30.93333333333333)"/><use xlink:href="#af" transform="matrix(1,0,0,1,612,992) translate(108.00000000000003 30.93333333333333)"/><use xlink:href="#ag" transform="matrix(1,0,0,1,612,992) translate(134.66666666666669 30.93333333333333)"/><use xlink:href="#ah" transform="matrix(1,0,0,1,612,992) translate(161.33333333333334 30.93333333333333)"/><use xlink:href="#ai" transform="matrix(1,0,0,1,612,992) translate(188 30.93333333333333)"/><use xlink:href="#aj" transform="matrix(1,0,0,1,612,992) translate(214.66666666666666 30.93333333333333)"/><use xlink:href="#ak" transform="matrix(1,0,0,1,612,992) translate(241.33333333333331 30.93333333333333)"/><use xlink:href="#al" transform="matrix(1,0,0,1,612,992) translate(45.653333333333364 70.39999999999999)"/><use xlink:href="#am" transform="matrix(1,0,0,1,612,992) translate(54.6666666666667 70.39999999999999)"/><use xlink:href="#an" transform="matrix(1,0,0,1,612,992) translate(81.33333333333336 70.39999999999999)"/><use xlink:href="#ao" transform="matrix(1,0,0,1,612,992) translate(108.00000000000003 70.39999999999999)"/><use xlink:href="#ap" transform="matrix(1,0,0,1,612,992) translate(134.66666666666669 70.39999999999999)"/><use xlink:href="#aq" transform="matrix(1,0,0,1,612,992) translate(161.33333333333334 70.39999999999999)"/><use xlink:href="#ar" transform="matrix(1,0,0,1,612,992) translate(188 70.39999999999999)"/><use xlink:href="#as" transform="matrix(1,0,0,1,612,992) translate(214.66666666666666 70.39999999999999)"/></g><path d="M251 929.66h-2v-84.6h2M279.94 741h-23.8l-2.65.7-1.8 1.8-.7 2.63v66.04h-2v-66.3l.92-3.42 2.53-2.53 3.42-.92h24.07" fill="#5e5e5e"/><path d="M280.94 740l1.24 1h-2.26v-2h2.26M250 944.93l-4.64-14.27h9.28z" fill="#5e5e5e"/><path d="M250 948.17l-6-18.5h12m-9.26 2l3.26 10.02 3.26-10.04" fill="#5e5e5e"/><g><use xlink:href="#E" transform="matrix(1,0,0,1,227.77777777777777,812.1679920257951) translate(0 25.777777777777775)"/><use xlink:href="#F" transform="matrix(1,0,0,1,227.77777777777777,812.1679920257951) translate(22.22222222222222 25.777777777777775)"/></g><path d="M761 960h-2v-84.78h2m0-32.9h-2V740.07h2" fill="#5e5e5e"/><path d="M760.08 741h-2.26l1.24-1-1.24-1h2.26M760 975.26L755.36 961h9.28z" fill="#5e5e5e"/><path d="M760 978.5l-6-18.5h12m-9.26 2l3.26 10.03 3.26-10.03" fill="#5e5e5e"/><g><use xlink:href="#W" transform="matrix(1,0,0,1,726.6666666666666,842.3346586924617) translate(0 25.777777777777775)"/><use xlink:href="#X" transform="matrix(1,0,0,1,726.6666666666666,842.3346586924617) translate(22.22222222222222 25.777777777777775)"/><use xlink:href="#Y" transform="matrix(1,0,0,1,726.6666666666666,842.3346586924617) translate(44.44444444444444 25.777777777777775)"/></g><path d="M1154.43 791h-28.3l-2.64.7-1.8 1.8-.7 2.63v23.2h-2v-23.46l.92-3.42 2.53-2.53 3.42-.92h28.56m125.7 2h-81.26v-2h81.26" fill="#5e5e5e"/><path d="M1281.05 790.08l1.08.92h-2.03v-2h2.12M1120 834.6l-4.64-14.27h9.28z" fill="#5e5e5e"/><path d="M1120 837.83l-6-18.5h12m-9.26 2l3.26 10.03 3.26-10.03" fill="#5e5e5e"/><g><use xlink:href="#E" transform="matrix(1,0,0,1,1154.425420906376,773.5555555555555) translate(0 25.777777777777775)"/><use xlink:href="#F" transform="matrix(1,0,0,1,1154.425420906376,773.5555555555555) translate(22.22222222222222 25.777777777777775)"/></g><path d="M1864.6 942.6c2.98-1.43 7.82-1.43 10.8 0l259.2 124.8c2.98 1.43 2.98 3.77 0 5.2l-259.2 124.8c-2.98 1.43-7.82 1.43-10.8 0l-259.2-124.8c-2.98-1.43-2.98-3.77 0-5.2z" stroke="#5e5e5e" stroke-width="3" fill="#fff"/><g><use xlink:href="#at" transform="matrix(1,0,0,1,1605,945) translate(131.67166666666662 93.43333333333334)"/><use xlink:href="#au" transform="matrix(1,0,0,1,1605,945) translate(158.3383333333333 93.43333333333334)"/><use xlink:href="#av" transform="matrix(1,0,0,1,1605,945) translate(185.00499999999997 93.43333333333334)"/><use xlink:href="#aw" transform="matrix(1,0,0,1,1605,945) translate(211.67166666666662 93.43333333333334)"/><use xlink:href="#ax" transform="matrix(1,0,0,1,1605,945) translate(238.33833333333328 93.43333333333334)"/><use xlink:href="#ay" transform="matrix(1,0,0,1,1605,945) translate(265.00499999999994 93.43333333333334)"/><use xlink:href="#ao" transform="matrix(1,0,0,1,1605,945) translate(291.6716666666666 93.43333333333334)"/><use xlink:href="#az" transform="matrix(1,0,0,1,1605,945) translate(318.3383333333333 93.43333333333334)"/><use xlink:href="#aA" transform="matrix(1,0,0,1,1605,945) translate(345.005 93.43333333333334)"/><use xlink:href="#aB" transform="matrix(1,0,0,1,1605,945) translate(371.6716666666667 93.43333333333334)"/><use xlink:href="#au" transform="matrix(1,0,0,1,1605,945) translate(60.99166666666668 132.9)"/><use xlink:href="#av" transform="matrix(1,0,0,1,1605,945) translate(87.65833333333335 132.9)"/><use xlink:href="#aw" transform="matrix(1,0,0,1,1605,945) translate(114.32500000000002 132.9)"/><use xlink:href="#aC" transform="matrix(1,0,0,1,1605,945) translate(140.99166666666667 132.9)"/><use xlink:href="#af" transform="matrix(1,0,0,1,1605,945) translate(167.65833333333333 132.9)"/><use xlink:href="#ag" transform="matrix(1,0,0,1,1605,945) translate(194.325 132.9)"/><use xlink:href="#aD" transform="matrix(1,0,0,1,1605,945) translate(220.99166666666665 132.9)"/><use xlink:href="#f" transform="matrix(1,0,0,1,1605,945) translate(355.84499999999997 132.9)"/><use xlink:href="#aE" transform="matrix(1,0,0,1,1605,945) translate(442.35166666666663 132.9)"/><use xlink:href="#aF" transform="matrix(1,0,0,1,1605,945) translate(211.67166666666668 172.36666666666667)"/><use xlink:href="#i" transform="matrix(1,0,0,1,1605,945) translate(238.33833333333337 172.36666666666667)"/><use xlink:href="#j" transform="matrix(1,0,0,1,1605,945) translate(265.005 172.36666666666667)"/><use xlink:href="#k" transform="matrix(1,0,0,1,1605,945) translate(291.6716666666667 172.36666666666667)"/></g><path d="M1871 921.63h-2v-85.7h2m-3.45-46l2.53 2.52.92 3.42v7.2h-2v-6.94l-.7-2.64-1.8-1.8-2.63-.7h-84v-2h84.26" fill="#5e5e5e"/><path d="M1779.9 791h-2.12l1.17-1.08-1.08-.92h2.03M1870 936.9l-4.64-14.27h9.28z" fill="#5e5e5e"/><path d="M1870 940.13l-6-18.5h12m-9.26 2l3.26 10.03 3.26-10.03" fill="#5e5e5e"/><g><use xlink:href="#W" transform="matrix(1,0,0,1,1836.6666666666667,803.0558987893547) translate(0 25.777777777777775)"/><use xlink:href="#X" transform="matrix(1,0,0,1,1836.6666666666667,803.0558987893547) translate(22.22222222222222 25.777777777777775)"/><use xlink:href="#Y" transform="matrix(1,0,0,1,1836.6666666666667,803.0558987893547) translate(44.44444444444444 25.777777777777775)"/></g><path d="M940 845.33c0-3.3 2.7-6 6-6h348c3.3 0 6 2.7 6 6V1174c0 3.3-2.7 6-6 6H946c-3.3 0-6-2.7-6-6z" stroke="#5e5e5e" stroke-width="3" fill="#fff"/><g><use xlink:href="#aG" transform="matrix(1,0,0,1,952,851.3333333333334) translate(41.666666666666686 90.37083333333334)"/><use xlink:href="#aH" transform="matrix(1,0,0,1,952,851.3333333333334) translate(68.33333333333334 90.37083333333334)"/><use xlink:href="#aI" transform="matrix(1,0,0,1,952,851.3333333333334) translate(95.00000000000001 90.37083333333334)"/><use xlink:href="#aJ" transform="matrix(1,0,0,1,952,851.3333333333334) translate(2.306666666666672 129.8375)"/><use xlink:href="#aK" transform="matrix(1,0,0,1,952,851.3333333333334) translate(93.69333333333334 129.8375)"/><use xlink:href="#aL" transform="matrix(1,0,0,1,952,851.3333333333334) translate(120.36000000000001 129.8375)"/><use xlink:href="#aM" transform="matrix(1,0,0,1,952,851.3333333333334) translate(147.02666666666667 129.8375)"/><use xlink:href="#aN" transform="matrix(1,0,0,1,952,851.3333333333334) translate(173.69333333333333 129.8375)"/><use xlink:href="#aO" transform="matrix(1,0,0,1,952,851.3333333333334) translate(200.35999999999999 129.8375)"/><use xlink:href="#aP" transform="matrix(1,0,0,1,952,851.3333333333334) translate(227.02666666666664 129.8375)"/><use xlink:href="#aQ" transform="matrix(1,0,0,1,952,851.3333333333334) translate(253.6933333333333 129.8375)"/><use xlink:href="#aj" transform="matrix(1,0,0,1,952,851.3333333333334) translate(280.35999999999996 129.8375)"/><use xlink:href="#aR" transform="matrix(1,0,0,1,952,851.3333333333334) translate(307.02666666666664 129.8375)"/><use xlink:href="#aS" transform="matrix(1,0,0,1,952,851.3333333333334) translate(8 169.30416666666667)"/><use xlink:href="#aT" transform="matrix(1,0,0,1,952,851.3333333333334) translate(34.666666666666664 169.30416666666667)"/><use xlink:href="#af" transform="matrix(1,0,0,1,952,851.3333333333334) translate(61.33333333333333 169.30416666666667)"/><use xlink:href="#aU" transform="matrix(1,0,0,1,952,851.3333333333334) translate(88 169.30416666666667)"/><use xlink:href="#ar" transform="matrix(1,0,0,1,952,851.3333333333334) translate(114.66666666666666 169.30416666666667)"/><use xlink:href="#aV" transform="matrix(1,0,0,1,952,851.3333333333334) translate(141.33333333333331 169.30416666666667)"/><use xlink:href="#aW" transform="matrix(1,0,0,1,952,851.3333333333334) translate(167.99999999999997 169.30416666666667)"/><use xlink:href="#aX" transform="matrix(1,0,0,1,952,851.3333333333334) translate(194.66666666666663 169.30416666666667)"/><use xlink:href="#aY" transform="matrix(1,0,0,1,952,851.3333333333334) translate(221.3333333333333 169.30416666666667)"/><use xlink:href="#aU" transform="matrix(1,0,0,1,952,851.3333333333334) translate(247.99999999999994 169.30416666666667)"/><use xlink:href="#aZ" transform="matrix(1,0,0,1,952,851.3333333333334) translate(274.66666666666663 169.30416666666667)"/><use xlink:href="#ba" transform="matrix(1,0,0,1,952,851.3333333333334) translate(301.3333333333333 169.30416666666667)"/><use xlink:href="#g" transform="matrix(1,0,0,1,952,851.3333333333334) translate(1.7866666666666617 208.77083333333334)"/><use xlink:href="#bb" transform="matrix(1,0,0,1,952,851.3333333333334) translate(28.453333333333326 208.77083333333334)"/><use xlink:href="#bc" transform="matrix(1,0,0,1,952,851.3333333333334) translate(55.11999999999999 208.77083333333334)"/><use xlink:href="#aA" transform="matrix(1,0,0,1,952,851.3333333333334) translate(174.2133333333333 208.77083333333334)"/><use xlink:href="#bd" transform="matrix(1,0,0,1,952,851.3333333333334) translate(200.87999999999997 208.77083333333334)"/><use xlink:href="#ad" transform="matrix(1,0,0,1,952,851.3333333333334) translate(227.54666666666662 208.77083333333334)"/><use xlink:href="#ae" transform="matrix(1,0,0,1,952,851.3333333333334) translate(254.21333333333328 208.77083333333334)"/><use xlink:href="#af" transform="matrix(1,0,0,1,952,851.3333333333334) translate(280.88 208.77083333333334)"/><use xlink:href="#be" transform="matrix(1,0,0,1,952,851.3333333333334) translate(307.5466666666666 208.77083333333334)"/><use xlink:href="#ah" transform="matrix(1,0,0,1,952,851.3333333333334) translate(27.01333333333335 248.2375)"/><use xlink:href="#ai" transform="matrix(1,0,0,1,952,851.3333333333334) translate(53.680000000000014 248.2375)"/><use xlink:href="#aj" transform="matrix(1,0,0,1,952,851.3333333333334) translate(80.34666666666668 248.2375)"/><use xlink:href="#bf" transform="matrix(1,0,0,1,952,851.3333333333334) translate(107.01333333333335 248.2375)"/><use xlink:href="#bg" transform="matrix(1,0,0,1,952,851.3333333333334) translate(141.41333333333336 248.2375)"/><use xlink:href="#ah" transform="matrix(1,0,0,1,952,851.3333333333334) translate(175.65333333333336 248.2375)"/><use xlink:href="#ai" transform="matrix(1,0,0,1,952,851.3333333333334) translate(202.32000000000002 248.2375)"/><use xlink:href="#ar" transform="matrix(1,0,0,1,952,851.3333333333334) translate(228.98666666666668 248.2375)"/><use xlink:href="#bh" transform="matrix(1,0,0,1,952,851.3333333333334) translate(255.65333333333334 248.2375)"/><use xlink:href="#bi" transform="matrix(1,0,0,1,952,851.3333333333334) translate(282.32 248.2375)"/></g><path d="M2100 1266c0-3.3 2.7-6 6-6h268c3.3 0 6 2.7 6 6v68c0 3.3-2.7 6-6 6h-268c-3.3 0-6-2.7-6-6z" stroke="#5e5e5e" stroke-width="3" fill="#fff"/><g><use xlink:href="#bj" transform="matrix(1,0,0,1,2105,1265) translate(52.65333333333335 46.24583333333333)"/><use xlink:href="#aA" transform="matrix(1,0,0,1,2105,1265) translate(137.34666666666666 46.24583333333333)"/><use xlink:href="#bk" transform="matrix(1,0,0,1,2105,1265) translate(164.01333333333332 46.24583333333333)"/><use xlink:href="#bl" transform="matrix(1,0,0,1,2105,1265) translate(190.68 46.24583333333333)"/></g><path d="M1340 1192.07c0-3.32 2.7-6 6-6h248c3.3 0 6 2.68 6 6V1334c0 3.3-2.7 6-6 6h-248c-3.3 0-6-2.7-6-6z" stroke="#5e5e5e" stroke-width="3" fill="#fff"/><g><use xlink:href="#ac" transform="matrix(1,0,0,1,1345,1191.0666666666666) translate(5.000000000000028 62.43333333333333)"/><use xlink:href="#ad" transform="matrix(1,0,0,1,1345,1191.0666666666666) translate(31.666666666666693 62.43333333333333)"/><use xlink:href="#ae" transform="matrix(1,0,0,1,1345,1191.0666666666666) translate(58.33333333333336 62.43333333333333)"/><use xlink:href="#af" transform="matrix(1,0,0,1,1345,1191.0666666666666) translate(85.00000000000003 62.43333333333333)"/><use xlink:href="#ag" transform="matrix(1,0,0,1,1345,1191.0666666666666) translate(111.66666666666669 62.43333333333333)"/><use xlink:href="#ah" transform="matrix(1,0,0,1,1345,1191.0666666666666) translate(138.33333333333334 62.43333333333333)"/><use xlink:href="#ai" transform="matrix(1,0,0,1,1345,1191.0666666666666) translate(165 62.43333333333333)"/><use xlink:href="#aj" transform="matrix(1,0,0,1,1345,1191.0666666666666) translate(191.66666666666666 62.43333333333333)"/><use xlink:href="#ak" transform="matrix(1,0,0,1,1345,1191.0666666666666) translate(218.33333333333331 62.43333333333333)"/><use xlink:href="#al" transform="matrix(1,0,0,1,1345,1191.0666666666666) translate(22.653333333333364 101.9)"/><use xlink:href="#am" transform="matrix(1,0,0,1,1345,1191.0666666666666) translate(31.666666666666696 101.9)"/><use xlink:href="#an" transform="matrix(1,0,0,1,1345,1191.0666666666666) translate(58.33333333333336 101.9)"/><use xlink:href="#ao" transform="matrix(1,0,0,1,1345,1191.0666666666666) translate(85.00000000000003 101.9)"/><use xlink:href="#ap" transform="matrix(1,0,0,1,1345,1191.0666666666666) translate(111.66666666666669 101.9)"/><use xlink:href="#aq" transform="matrix(1,0,0,1,1345,1191.0666666666666) translate(138.33333333333334 101.9)"/><use xlink:href="#ar" transform="matrix(1,0,0,1,1345,1191.0666666666666) translate(165 101.9)"/><use xlink:href="#as" transform="matrix(1,0,0,1,1345,1191.0666666666666) translate(191.66666666666666 101.9)"/></g><path d="M1471 1166.06h-2v-79.62h2m129.9-15.44h-100v-2h100" fill="#5e5e5e"/><path d="M1601.66 1071h-.78v-2h1.27M1470 1181.33l-4.64-14.27h9.28z" fill="#5e5e5e"/><path d="M1470 1184.57l-6-18.5h12m-9.26 2l3.26 10.02 3.26-10.04" fill="#5e5e5e"/><g><use xlink:href="#E" transform="matrix(1,0,0,1,1456.445709058041,1053.5555555555557) translate(0 25.777777777777775)"/><use xlink:href="#F" transform="matrix(1,0,0,1,1456.445709058041,1053.5555555555557) translate(22.22222222222222 25.777777777777775)"/></g><path d="M2241 1240h-2v-110.26h2m-3.45-59.82l2.53 2.53.92 3.42v20.98h-2v-20.72l-.7-2.64-1.8-1.8-2.63-.7h-94.77v-2h95.03" fill="#5e5e5e"/><path d="M2139.12 1071h-1.27l.5-2h.77M2240 1255.26l-4.64-14.26h9.28z" fill="#5e5e5e"/><path d="M2240 1258.5l-6-18.5h12m-9.26 2l3.26 10.03 3.26-10.03" fill="#5e5e5e"/><g><use xlink:href="#W" transform="matrix(1,0,0,1,2206.6666666666665,1096.854290941959) translate(0 25.777777777777775)"/><use xlink:href="#X" transform="matrix(1,0,0,1,2206.6666666666665,1096.854290941959) translate(22.22222222222222 25.777777777777775)"/><use xlink:href="#Y" transform="matrix(1,0,0,1,2206.6666666666665,1096.854290941959) translate(44.44444444444444 25.777777777777775)"/></g><defs><path fill="#333" d="M92 229v-772h75l8 62h3c49-40 110-76 173-76 140 0 216 110 216 277C567-22 349 94 181-50c3 91 2 185 2 279H92zm91-349C317-1 471-73 472-279c0-120-40-201-143-201-46 0-93 26-146 75v285" id="bm"/><path fill="#333" d="M217 13C126 13 58-43 58-141c0-118 103-177 334-203 0-70-23-137-112-137-63 0-120 29-163 58l-36-63c50-32 127-71 214-71 132 0 188 89 188 223V0h-75l-8-65h-3c-52 43-113 78-180 78zm26-73c53 0 96-25 149-72v-152c-183 22-245 67-245 137 0 62 42 87 96 87" id="bn"/><path fill="#333" d="M306 13C162 13 51-91 51-271c0-181 123-286 262-286 71 0 120 30 159 64l-47 61c-32-29-65-49-109-49-98 0-170 85-170 210S214-63 314-63c50 0 94-23 128-54l39 61c-48 44-110 69-175 69" id="bo"/><path fill="#333" d="M92 0v-796h90c1 179-3 364 2 540l233-287h101L336-325 542 0h-99L284-262 182-143V0H92" id="bp"/><path fill="#333" d="M311 13C167 13 51-92 51-271c0-176 119-286 245-286 154-3 234 132 212 307H142c6 116 77 190 180 190 53 0 96-16 136-43l33 60c-48 31-106 56-180 56zM141-315h291c0-110-50-169-135-169-77 0-145 62-156 169" id="bq"/><path fill="#333" d="M263 13c-116 0-155-72-155-181v-301H27v-69l85-5 11-152h76v152h147v74H199v303c0 67 21 105 84 105 19 0 44-7 62-14l18 68c-31 10-67 20-100 20" id="br"/><g id="a"><use transform="matrix(0.026666666666666665,0,0,0.026666666666666665,0,0)" xlink:href="#bm"/><use transform="matrix(0.026666666666666665,0,0,0.026666666666666665,16.53333333333333,0)" xlink:href="#bn"/><use transform="matrix(0.026666666666666665,0,0,0.026666666666666665,31.57333333333333,0)" xlink:href="#bo"/><use transform="matrix(0.026666666666666665,0,0,0.026666666666666665,45.14666666666666,0)" xlink:href="#bp"/><use transform="matrix(0.026666666666666665,0,0,0.026666666666666665,59.86666666666666,0)" xlink:href="#bq"/><use transform="matrix(0.026666666666666665,0,0,0.026666666666666665,74.63999999999999,0)" xlink:href="#br"/></g><path fill="#333" d="M878-441c-104 35-177 66-289 117 1 57 2 141 3 189h-77c3-38 4-102 4-154-92 50-156 101-156 166 0 78 77 89 179 89 77 0 183-9 270-24l-2 81C627 35 282 94 283-112c0-117 118-191 233-251-10-41-46-61-89-61-128 6-195 93-261 177l-68-51c126-122 191-224 228-302-66 0-130-1-204-6v-75c82 8 153 12 232 9 14-44 23-89 25-123l82 7c-7 28-16 69-30 114 101-5 209-14 303-30l-1 74c-98 15-220 24-328 28-22 51-53 106-89 152 87-54 243-58 268 53 102-48 174-74 262-119" id="bs"/><use transform="matrix(0.026666666666666665,0,0,0.026666666666666665,0,0)" xlink:href="#bs" id="b"/><path fill="#333" d="M818-840l52 60c-200 42-509 67-768 77-1-19-10-46-17-63 256-11 562-37 733-74zM552-573l-70 17c-6-39-27-101-50-147l67-15c24 46 46 107 53 145zm-407 89v137H75v-203h159c-12-36-40-91-66-132l64-18c29 41 59 95 71 131l-59 19h435c33-50 71-119 93-170l75 23c-27 49-62 103-92 147h171v203h-73v-137H145zm548 182H307c48 69 115 126 196 172 78-45 144-101 190-172zm62-72l49 31C752-237 673-155 575-92 681-44 806-12 945 5c-16 16-36 49-45 69C749 53 615 12 501-50 381 12 242 51 98 74 90 56 69 23 54 8 190-11 320-42 430-92c-82-56-151-125-202-206l10-4h-43v-69h545" id="bt"/><use transform="matrix(0.026666666666666665,0,0,0.026666666666666665,0,0)" xlink:href="#bt" id="c"/><path fill="#333" d="M864-789v61H406v-61h458zm-585-45l69 21c-28 70-63 141-102 206V73h-70v-573c-36 50-73 94-111 132-7-16-29-56-42-72 101-95 198-243 256-394zm538 655H455v147h362v-147zM383 76v-315h508V73h-74V29H455v47h-72zm11-392v-60h486v60H394zm488-198v61H394v-61h488zM312-652h646v62H312v-62" id="bu"/><use transform="matrix(0.026666666666666665,0,0,0.026666666666666665,0,0)" xlink:href="#bu" id="d"/><path fill="#333" d="M388 13C195 13 58-128 58-366c0-237 142-381 336-381 102 0 169 46 211 91l-50 60c-37-39-84-70-159-70-147 0-243 114-243 297 0 185 87 301 244 301 53 0 104-16 133-43v-192H375v-77h240v308c-47 49-128 85-227 85" id="bv"/><path fill="#333" d="M303 13C170 13 51-91 51-271c0-181 119-286 252-286s252 105 252 286C555-91 436 13 303 13zm0-76c94 0 158-83 158-208s-64-210-158-210-157 85-157 210S209-63 303-63" id="bw"/><path fill="#333" d="M234 13C157 13 83-19 31-62l45-60c47 38 96 64 161 64 72 0 107-38 107-85 0-55-64-80-124-103-76-28-162-65-162-157 0-86 69-154 187-154 67 0 126 28 169 61l-44 59c-38-28-76-48-125-48-68 0-99 36-99 78 0 52 59 71 120 94 79 30 166 62 166 165 0 88-70 161-198 161" id="bx"/><g id="e"><use transform="matrix(0.026666666666666665,0,0,0.026666666666666665,0,0)" xlink:href="#bv"/><use transform="matrix(0.026666666666666665,0,0,0.026666666666666665,18.37333333333333,0)" xlink:href="#bq"/><use transform="matrix(0.026666666666666665,0,0,0.026666666666666665,33.14666666666666,0)" xlink:href="#bw"/><use transform="matrix(0.026666666666666665,0,0,0.026666666666666665,49.30666666666666,0)" xlink:href="#bo"/><use transform="matrix(0.026666666666666665,0,0,0.026666666666666665,62.87999999999998,0)" xlink:href="#bn"/><use transform="matrix(0.026666666666666665,0,0,0.026666666666666665,77.91999999999999,0)" xlink:href="#bx"/><use transform="matrix(0.026666666666666665,0,0,0.026666666666666665,90.39999999999999,0)" xlink:href="#br"/></g><path fill="#333" d="M193-658v272h123c115 0 178-46 178-141 0-97-63-131-178-131H193zM608 0H503L325-311H193V0h-93v-733h230c149 0 256 53 256 206 0 114-66 182-166 206" id="by"/><path fill="#333" d="M275 250c-133 0-225-52-225-146 0-46 30-90 81-123v-4c-29-17-50-46-50-89 0-45 33-81 61-101v-4c-36-29-71-81-71-146-2-145 144-228 280-180h189v70H429c26 25 44 65 44 112 4 144-147 228-279 170-52 42-57 131 60 124h106c126 0 189 40 189 129 0 101-106 188-274 188zm0-484c62 0 115-50 115-129s-51-127-115-127-116 47-116 127c0 79 53 129 116 129zm13 422c104 0 173-55 173-112 0-103-183-49-275-76-106 75-57 194 102 188" id="bz"/><path fill="#333" d="M92 0v-543h91V0H92zm46-655c-36 0-63-25-63-59 0-37 27-59 63-59s63 22 63 59c0 34-27 59-63 59" id="bA"/><path fill="#333" d="M92 0v-543h75l8 78h3c52-51 108-92 182-92 114 0 166 74 166 213V0h-91v-332c0-102-31-145-103-145-56 0-94 28-149 83V0H92" id="bB"/><g id="f"><use transform="matrix(0.026666666666666665,0,0,0.026666666666666665,0,0)" xlink:href="#by"/><use transform="matrix(0.026666666666666665,0,0,0.026666666666666665,16.933333333333334,0)" xlink:href="#bq"/><use transform="matrix(0.026666666666666665,0,0,0.026666666666666665,31.706666666666663,0)" xlink:href="#bz"/><use transform="matrix(0.026666666666666665,0,0,0.026666666666666665,46.72,0)" xlink:href="#bA"/><use transform="matrix(0.026666666666666665,0,0,0.026666666666666665,54.053333333333335,0)" xlink:href="#bw"/><use transform="matrix(0.026666666666666665,0,0,0.026666666666666665,70.21333333333334,0)" xlink:href="#bB"/></g><path fill="#333" d="M128-290c1-190 41-336 51-467l90 7c-43 152-83 388-59 582 17-45 39-103 55-142l43 32c-32 110-83 193-72 301l-72 5c-20-70-36-184-36-318zm295 13l72 7c-9 36-13 64-13 91 0 45 30 89 166 89 89 0 165-8 245-26l1 84c-61 12-144 20-247 20-227-2-270-93-224-265zm34-315l-1-82c108 18 308 14 407 0v82c-106 11-298 11-406 0" id="bC"/><use transform="matrix(0.026666666666666665,0,0,0.026666666666666665,0,0)" xlink:href="#bC" id="g"/><path fill="#333" d="M329-641h259v-184h75v184h273v70H329v-70zm230 538l-73 16c-7-100-38-273-74-405l66-12c38 132 72 302 81 401zM279-834l69 22c-28 70-63 140-102 206V73h-70v-572c-35 48-72 93-110 130-8-17-30-55-43-73 101-94 198-241 256-392zM722-40h239v70H305v-70h345c46-126 98-328 124-473l80 14c-34 148-86 335-132 459" id="bD"/><use transform="matrix(0.026666666666666665,0,0,0.026666666666666665,0,0)" xlink:href="#bD" id="h"/><path fill="#333" d="M416-741v89h163v-89H416zm-69 89v-89H188v89h159zm301-89v89h168v-89H648zm128 415v-54H371v54h405zm0 99v-55H371v55h405zm0 101v-56H371v56h405zM302-426h149c3-18 7-38 10-58H72v-59h398c2-18 4-37 6-54H118v-198h771v198H551c-3 17-5 36-8 54h387v59H533c-3 21-7 40-10 58h324v345H302v-345zM955-25v60H201v42h-74v-488h74v386h754" id="bE"/><use transform="matrix(0.026666666666666665,0,0,0.026666666666666665,0,0)" xlink:href="#bE" id="i"/><path fill="#333" d="M480-234c58 0 96-47 87-141-35-101-190-70-188 43 0 62 46 98 101 98zm63-428c0-52-3-88-8-127h91c-4 45-6 72-6 126 117 0 257 1 305 1l-1 75c-54-3-163-5-304-5 0 56 1 117 2 162 21 34 32 78 32 127 0 134-65 283-295 352l-69-67c130-30 222-84 263-172-106 64-250-1-249-141 0-120 119-204 241-162 0-29 0-64-1-98-150 1-318 8-442 17l-2-78c110-2 296-8 443-10" id="bF"/><use transform="matrix(0.026666666666666665,0,0,0.026666666666666665,0,0)" xlink:href="#bF" id="j"/><path fill="#333" d="M368-110c-5 72 127 88 210 71-9-78-56-132-131-132-45 0-79 27-79 61zM241-735c111 6 360 0 462-17l46 58c-91 57-203 166-313 256 45-15 90-21 134-21 165 0 284 100 284 234C854-65 721 39 512 39c-135 0-218-60-218-142 0-68 61-130 153-130 124 0 191 83 204 175 78-30 123-87 123-168 0-97-98-168-223-168-163 0-253 69-379 197l-58-59c184-153 327-270 494-416-91 5-285 10-365 20" id="bG"/><use transform="matrix(0.026666666666666665,0,0,0.026666666666666665,0,0)" xlink:href="#bG" id="k"/><use transform="matrix(0.026666666666666665,0,0,0.026666666666666665,0,0)" xlink:href="#bt" id="l"/><use transform="matrix(0.026666666666666665,0,0,0.026666666666666665,0,0)" xlink:href="#bu" id="m"/><path fill="#333" d="M342-776c-19 157-18 390-22 593 0 109 70 147 162 147 182 0 285-102 356-205l55 69C826-78 698 46 480 46c-142 0-240-60-240-221-4-205 23-449 1-602" id="bH"/><use transform="matrix(0.026666666666666665,0,0,0.026666666666666665,0,0)" xlink:href="#bH" id="n"/><path fill="#333" d="M537-408v-75c105-10 244-12 352 0l-2 76c-108-15-237-15-350-1zm64-260v79c-65 15-136 26-205 34-40 192-116 433-186 585L122 1c75-137 152-365 191-548-68 5-143 3-205-1l-3-78c86 10 139 7 225 3 12-64 21-106 18-169l97 8c-14 52-22 100-33 152 64-8 129-20 189-36zM487-249l75 7C540-123 518-71 711-61c64 0 133-8 193-19l-3 81c-53 7-119 13-191 13-156 0-238-48-238-146 0-38 6-75 15-117" id="bI"/><use transform="matrix(0.026666666666666665,0,0,0.026666666666666665,0,0)" xlink:href="#bI" id="o"/><path fill="#333" d="M783-697c0 36 29 66 65 66 37 0 67-30 67-66s-30-67-67-67c-36 0-65 31-65 67zm-46 0c0-62 50-113 111-113 62 0 113 51 113 113s-51 112-113 112c-61 0-111-50-111-112zM64-29c133-179 215-386 252-642l89 18c-30 115-51 238-109 385-37 92-91 195-147 275zM823 5c-56-217-160-484-258-660l81-27c93 170 206 449 266 658" id="bJ"/><use transform="matrix(0.026666666666666665,0,0,0.026666666666666665,0,0)" xlink:href="#bJ" id="p"/><path fill="#333" d="M349-602c189-2 385 5 566-5v86c-91-5-171-2-263-3C636-238 524-71 352 39l-85-58c28-11 59-28 81-46 98-74 206-205 220-459H312c-41 75-108 166-167 214l-79-47c132-115 221-243 250-435l96 19c-24 62-36 107-63 171" id="bK"/><use transform="matrix(0.026666666666666665,0,0,0.026666666666666665,0,0)" xlink:href="#bK" id="q"/><path fill="#333" d="M483-576c17 40 66 172 79 216l-74 26c-11-45-57-172-78-217zM296 7c234-64 436-272 463-554l86 27c-36 132-72 252-157 357C596-46 474 32 362 75zm-45-533c20 43 72 174 91 226l-76 28c-15-52-69-190-89-225" id="bL"/><use transform="matrix(0.026666666666666665,0,0,0.026666666666666665,0,0)" xlink:href="#bL" id="r"/><path fill="#333" d="M847-342l-34 85c-109-59-282-126-393-161 3 151-4 305 7 448h-96c13-222 2-468 6-700 0-28-2-73-8-104h98c-11 84-6 175-7 267 132 40 321 112 427 165" id="bM"/><use transform="matrix(0.026666666666666665,0,0,0.026666666666666665,0,0)" xlink:href="#bM" id="s"/><path fill="#333" d="M590-474l-70 38c-27-69-91-171-154-244l66-33c66 73 130 171 158 239zM448-280l17 71C327-146 176-80 66-32l-27-77c39-15 86-34 138-56l-17-618 76-3 15 590c64-27 131-56 197-84zM967 16l-62 57C859 4 766-101 681-191 603-73 494 14 338 79c-10-15-41-49-59-64 343-126 449-368 493-800l81 8c-24 214-62 384-132 518 89 90 195 201 246 275" id="bN"/><use transform="matrix(0.026666666666666665,0,0,0.026666666666666665,0,0)" xlink:href="#bN" id="t"/><path fill="#333" d="M190-202h221v-100H190v100zm221-256H190v98h221v-98zm72-64V-9c-4 92-66 78-175 81-4-19-14-46-24-65 50 2 95 2 108 1 15-1 19-5 19-18v-133H190V72h-71v-594h364zM805-17v-525h73v525c0 45-10 65-40 77-32 12-82 14-158 13-4-20-16-51-27-71 61 2 115 2 130 1 17-1 22-5 22-20zM673-512v406h-69v-406h69zm38-167h234v68H57v-68h245c-18-39-57-93-91-133l68-26c39 42 81 101 100 140l-49 19h298c34-48 72-114 94-162l78 26c-27 46-60 95-89 136" id="bO"/><use transform="matrix(0.026666666666666665,0,0,0.026666666666666665,0,0)" xlink:href="#bO" id="u"/><use transform="matrix(0.026666666666666665,0,0,0.026666666666666665,0,0)" xlink:href="#bC" id="v"/><path fill="#333" d="M123-310c0-203 34-328 42-461l94 9c-45 156-84 396-46 585 14-42 34-101 52-150l44 27c-30 107-75 191-66 296l-68 8c-20-60-52-189-52-314zm558-255c-4-101-1-148-15-212h93c-5 68-3 105-2 207 58-5 114-12 161-23v82c-45 8-101 14-160 18 0 249 10 416-210 547L475-4c31-13 72-37 97-62 112-94 111-222 111-423-95 5-195 4-286-4v-80c83 13 190 13 284 8" id="bP"/><use transform="matrix(0.026666666666666665,0,0,0.026666666666666665,0,0)" xlink:href="#bP" id="w"/><path fill="#333" d="M394-572v-133H199v133h195zM199-299v151c61-8 128-18 195-28v-123H199zm195-68v-139H199v139h195zm142-338h-70V74h-72v-181C268-86 140-67 45-51l-13-75c28-3 61-7 97-12v-567H51v-69h485v69zm332 5c22-7 41 8 62 11-26 214-82 380-162 507C823-102 891-38 974 4c-17 14-41 42-53 61-79-45-145-106-199-181C663-41 594 18 518 62c-11-19-33-46-49-60 79-41 150-103 210-185-69-118-116-263-149-427l71-13c26 138 66 264 123 370 58-102 101-227 124-374H511v-73h357" id="bQ"/><use transform="matrix(0.026666666666666665,0,0,0.026666666666666665,0,0)" xlink:href="#bQ" id="x"/><path fill="#333" d="M164-401c128-25 269-105 442-105 140 0 242 84 242 219C848-96 664 2 397 18l-32-77c214-7 402-67 402-229 0-84-66-145-167-145-123 0-339 90-403 115" id="bR"/><use transform="matrix(0.026666666666666665,0,0,0.026666666666666665,0,0)" xlink:href="#bR" id="y"/><path fill="#333" d="M237-619v-82c142 19 386 15 529-1v82c-146 13-382 17-529 1zm-41 310l82 8c-54 157-7 234 214 239 137 0 264-15 339-38l1 86C761 5 635 20 494 20c-201 0-318-66-318-190 0-52 11-98 20-139" id="bS"/><use transform="matrix(0.026666666666666665,0,0,0.026666666666666665,0,0)" xlink:href="#bS" id="z"/><path fill="#333" d="M423-482c134-82 232-116 325-186l43 73c-109 65-238 115-377 205-92 60-147 125-147 200 0 82 78 133 234 133 108 0 240-14 317-34v90c-75 13-189 24-313 24-186 0-321-56-321-204 0-102 65-183 171-257-46-81-98-197-144-305l79-32c40 108 90 215 133 293" id="bT"/><use transform="matrix(0.026666666666666665,0,0,0.026666666666666665,0,0)" xlink:href="#bT" id="A"/><path fill="#333" d="M974-710l-54 24c-22-43-55-100-83-138l53-22c26 36 65 99 84 136zm-112 41l-55 24c-20-40-54-101-81-139l53-22c25 35 62 97 83 137zM291-495c-97 10-133 12-214 25l-8-87c91 3 136-3 238-11 14-71 26-148 25-215l94 9c-15 67-21 113-38 199 156-16 272-22 272 162 0 118-18 273-57 357-47 102-155 87-262 68l-13-85c90 20 165 53 208-29 34-65 47-195 47-302-2-137-97-105-211-99-36 142-104 365-208 531L83-5c101-135 174-358 208-490zm402-132l73-34c62 80 148 260 181 352l-77 38c-30-102-108-275-177-356" id="bU"/><use transform="matrix(0.026666666666666665,0,0,0.026666666666666665,0,0)" xlink:href="#bU" id="B"/><path fill="#333" d="M611-440c-71-2-133 12-184 31-2 79 5 150 17 219 65-61 124-141 167-250zM380-137c-15-77-24-159-23-241-96 55-169 153-169 233 0 40 19 60 56 60 38 0 86-17 136-52zm252-367c6-17 11-46 13-66l80 20c-6 15-15 42-21 59 124 33 198 125 198 234 0 142-94 266-324 302l-43-67c178-19 288-111 288-239 0-75-49-143-142-168-55 140-135 249-219 320 8 28 16 55 24 80L413-7c-5-17-11-35-16-55-102 68-284 98-284-71 0-127 111-258 247-320 2-50 7-100 11-146-68 3-154-2-220-5l-2-75c62 8 158 15 229 11 4-47 10-80 11-123l84 2c-13 39-17 70-24 119 125-6 245-19 347-42l1 75c-104 17-236 30-357 36-4 38-7 80-10 122 70-20 131-29 202-25" id="bV"/><use transform="matrix(0.026666666666666665,0,0,0.026666666666666665,0,0)" xlink:href="#bV" id="C"/><use transform="matrix(0.026666666666666665,0,0,0.026666666666666665,0,0)" xlink:href="#bG" id="D"/><path fill="#333" d="M98-271c2-215 40-359 50-510l138 12c-38 107-63 313-71 471 0 20 1 44 4 64 13-35 29-68 44-101l61 49c-36 124-81 200-75 323l-112 8c-20-69-39-182-39-316zM566-76c67 1 85-40 82-107-61-22-178-14-174 49 0 40 40 58 92 58zm395-50L894-22c-41-39-81-72-120-99-6 94-60 162-194 162-136 0-222-58-222-162 0-120 131-190 285-166-3-61-6-133-7-203-84 2-161 0-244-5v-118c79 8 159 11 243 8-2-88 1-107-8-175h142c-7 59-8 90-9 167 54-6 106-13 153-23v123c-48 7-100 13-154 17 2 96 7 175 11 242 83 34 145 85 191 128" id="bW"/><use transform="matrix(0.022222222222222223,0,0,0.022222222222222223,0,0)" xlink:href="#bW" id="E"/><path fill="#333" d="M250-592c-5 147 10 450 112 450 47 0 86-116 105-194l100 120C501-44 439 17 359 17c-108 0-203-98-231-364-16-146-4-249-18-367l152 2c-7 35-12 93-12 120zm507-99c94 115 170 354 181 506l-131 50c-15-159-68-392-176-514" id="bX"/><use transform="matrix(0.022222222222222223,0,0,0.022222222222222223,0,0)" xlink:href="#bX" id="F"/><path fill="#333" d="M240-48h533v-148H240v148zm533-363H240v145h533v-145zm0-219H240v149h533v-149zm-282-71h359V73h-77V22H240v56h-74v-779h251c15-44 31-98 39-137l85 11c-15 43-33 88-50 126" id="bY"/><use transform="matrix(0.026666666666666665,0,0,0.026666666666666665,0,0)" xlink:href="#bY" id="G"/><path fill="#333" d="M802-719c-57 155-107 308-215 451C496-153 353-43 210 17l-70-73c149-52 287-152 378-265 93-116 160-280 188-424" id="bZ"/><use transform="matrix(0.026666666666666665,0,0,0.026666666666666665,0,0)" xlink:href="#bZ" id="H"/><path fill="#333" d="M102-335v-98c214 10 463 3 687 5 50 0 86-3 108-5v98c-206-10-441-3-656-5-55 0-108 2-139 5" id="ca"/><use transform="matrix(0.026666666666666665,0,0,0.026666666666666665,0,0)" xlink:href="#ca" id="I"/><path fill="#333" d="M871-622l-56 28c-27-52-59-105-93-150l55-26c26 35 70 102 94 148zm-124 53l-57 26c-25-52-56-107-89-152l55-25c26 37 68 104 91 151zM395-761c-9 85-5 176-6 268 132 40 321 111 427 164l-35 85c-108-59-281-125-392-160 2 150-6 305 6 447h-96c13-222 2-468 6-700 0-28-2-73-8-104h98" id="cb"/><use transform="matrix(0.026666666666666665,0,0,0.026666666666666665,0,0)" xlink:href="#cb" id="J"/><path fill="#333" d="M271-140c44 0 99-66 150-233 25-82 44-176 55-267-190 24-306 187-306 320 0 125 58 180 101 180zm215 91c184-13 336-101 336-305 0-150-95-273-263-287-13 92-32 192-59 285C439-153 360-48 268-48 180-48 91-150 91-313c0-215 192-403 434-403 232 0 380 164 380 364C905-144 768-5 532 26" id="cc"/><path fill="#333" d="M100 0v-733h93V0h-93" id="cd"/><path fill="#333" d="M100 0v-733h184c225 0 346 131 346 364C630-137 509 0 288 0H100zm93-76h83c173 0 258-108 258-293 0-186-85-289-258-289h-83v582" id="ce"/><g id="K"><use transform="matrix(0.026666666666666665,0,0,0.026666666666666665,0,0)" xlink:href="#cc"/><use transform="matrix(0.026666666666666665,0,0,0.026666666666666665,26.666666666666664,0)" xlink:href="#cd"/><use transform="matrix(0.026666666666666665,0,0,0.026666666666666665,34.48,0)" xlink:href="#ce"/></g><path fill="#333" d="M536-321h287v-265H536v265zm-363 0h286v-265H173v265zm363-338h363v468h-76v-57H536V76h-77v-324H173v62h-73v-473h359v-178h77v178" id="cf"/><use transform="matrix(0.026666666666666665,0,0,0.026666666666666665,0,0)" xlink:href="#cf" id="L"/><path fill="#333" d="M862-753l65 23c-29 71-66 158-97 211l-52-19c29-57 65-150 84-215zM648-549l-59 22c-10-54-38-136-68-197l54-20c33 62 63 141 73 195zm40 490v-292c-43 95-101 191-159 246-6-21-23-51-35-69 63-57 131-163 169-260H512v-67h176v-315h67v315h185v67H755v32c44 40 158 157 184 187l-45 58c-25-38-90-115-139-171v269h-67zM92-270l61 11C139-165 117-70 85-6c-11-8-40-21-54-26 31-61 50-151 61-238zm193 13l52-16c25 57 44 132 50 181l-56 16c-3-49-23-124-46-181zm-18-242l52-20c38 66 73 153 85 209l-57 24c-3-18-9-40-17-64l-74 5V76h-65v-417c-55 4-106 7-151 10l-7-67c22-1 47-2 73-3 19-25 39-53 59-84-29-45-79-103-125-146l40-46c10 9 21 20 31 30 32-57 68-134 88-189l64 24c-34 69-76 151-112 206 20 22 38 44 52 63 39-62 75-127 101-180l61 27c-54 93-128 207-192 291l134-7c-12-30-26-60-40-87zM959-40v67H484v48h-69v-872h69v757h475" id="cg"/><use transform="matrix(0.026666666666666665,0,0,0.026666666666666665,0,0)" xlink:href="#cg" id="M"/><path fill="#333" d="M235-831l69 19c-22 65-48 130-77 191V76h-72v-562c-31 51-63 97-97 137-7-18-26-58-39-76 87-99 167-251 216-406zm74 745v-636h66v636h-66zm654-101H721c26 75 86 162 250 204-16 15-35 43-44 61C785 37 717-44 680-122 646-49 573 23 426 79c-9-16-30-41-47-55 173-56 231-137 249-211H406v-65h231v-126H530c-22 40-46 77-72 105-13-10-41-29-58-38 53-56 96-138 122-222H404v-64h362v-128H473v-63h361v191h105v64H549l42 10c-8 28-19 55-30 82h368v63H710v126h253v65" id="ch"/><use transform="matrix(0.026666666666666665,0,0,0.026666666666666665,0,0)" xlink:href="#ch" id="N"/><path fill="#333" d="M936-739l-41 45c-30-28-91-68-141-93l39-40c51 22 113 60 143 88zM370-467l46 34c-26 37-55 78-79 108 26 32 50 62 59 75l-44 50c-19-31-61-89-96-136V77h-69v-368c-38 46-77 87-115 119-7-18-27-52-38-63 97-77 199-211 256-346H56v-68h128v-184h69v184c27-1 60 3 83-3l40 25c-26 77-64 153-107 222 11 11 23 26 37 42 22-32 49-73 64-104zm492-1H714v107h148v-107zM714-191h148v-110H714v110zm-216 0h145v-110H498v110zm145-277H498v107h145v-107zm310-157H714v94h217V-2c1 81-50 78-138 79-4-18-15-48-24-65 37 1 68 1 79 0 11 0 14-3 14-14v-128H714V72h-71v-202H498V76h-69v-607h214v-94H397v-67h246v-144h71v144h239v67" id="ci"/><use transform="matrix(0.026666666666666665,0,0,0.026666666666666665,0,0)" xlink:href="#ci" id="O"/><g id="P"><use transform="matrix(0.026666666666666665,0,0,0.026666666666666665,0,0)" xlink:href="#cb"/><use transform="matrix(0.026666666666666665,0,0,0.026666666666666665,26.666666666666664,0)" xlink:href="#cd"/><use transform="matrix(0.026666666666666665,0,0,0.026666666666666665,34.48,0)" xlink:href="#ce"/></g><path fill="#333" d="M89-664c160-7 562-56 789-62v80c-56 0-143 1-194 16-141 45-226 195-226 312 0 194 180 255 341 261l-29 83C587 19 378-79 378-300c0-155 93-280 184-334-87 10-357 36-464 58" id="cj"/><use transform="matrix(0.026666666666666665,0,0,0.026666666666666665,0,0)" xlink:href="#cj" id="Q"/><path fill="#333" d="M382-409l9 69-132 41v288c-5 96-57 84-168 87-3-19-13-49-23-68 45 1 87 1 99 0 14 0 19-4 19-19v-266c-47 14-91 27-130 39l-21-72c42-11 94-25 151-41v-215H47v-69h139v-201h73v201h117v69H259v193c40-11 82-23 123-36zm454 113H512v99h324v-99zM512-31h324v-105H512v105zM441 76v-436h468V72h-73V30H512v46h-71zm149-587h224c55 0 64-17 70-125 17 13 48 24 68 29-11 130-34 164-133 164H586c-114 0-145-22-145-108v-282h73v149c118-25 245-60 320-93l57 55c-101 40-247 74-377 99v72c0 34 12 40 76 40" id="ck"/><use transform="matrix(0.026666666666666665,0,0,0.026666666666666665,0,0)" xlink:href="#ck" id="R"/><path fill="#333" d="M158-652v146H85v-216h375v-114h77v114h378v216h-76v-146H158zm379 425v204c116 21 272 9 418 11-12 18-25 53-28 75H695c-207 0-356-36-447-205C213-50 164 24 99 81 87 68 56 42 38 31c111-86 165-228 187-407l76 7c-6 47-14 91-24 133C315-131 379-74 461-43v-419H213v-70h579v70H537v166h296v69H537" id="cl"/><use transform="matrix(0.026666666666666665,0,0,0.026666666666666665,0,0)" xlink:href="#cl" id="S"/><path fill="#333" d="M206-312l81 7C229-156 250-38 466-41c131 0 190-12 260-27l-1 83c-62 11-129 23-260 23-184 0-286-74-286-198 0-43 11-98 27-152zm625-369l15 79c-61 16-126 31-187 41 36 79 90 194 133 277l-46 48c-43-9-141-23-205-29l8-65c38 3 107 11 140 14-28-61-78-164-108-233-128 15-270 15-421 2l-3-80c144 19 279 18 393 6-23-50-50-114-75-156l89-17c24 66 42 110 64 163 68-12 135-28 203-50" id="cm"/><use transform="matrix(0.026666666666666665,0,0,0.026666666666666665,0,0)" xlink:href="#cm" id="T"/><path fill="#333" d="M344-382c-5 144-6 278 6 415h-87c7-121 2-215 7-351-48 73-113 168-161 234l-50-69c55-69 169-223 219-301 2-32 4-64 6-95-45 5-131 17-193 25l-8-83c75 2 123-6 206-17 5-90 9-96 1-167l95 3c-5 24-13 80-20 149l5-2 29 35c-12 18-29 45-44 69-2 18-3 37-5 56 77-71 204-166 303-166 93 0 140 52 140 133 0 99-37 270-37 370 0 34 16 60 51 60 50 0 103-32 149-82l13 86C917-27 855 3 787 3c-65 0-110-44-110-126 0-110 37-273 37-369 0-57-29-81-79-81-80 0-200 93-291 191" id="cn"/><use transform="matrix(0.026666666666666665,0,0,0.026666666666666665,0,0)" xlink:href="#cn" id="U"/><path fill="#333" d="M226-696c-26 179-4 611 133 605 51 0 97-102 123-202l63 72C486-53 425 4 357 4c-93 0-183-93-210-350-16-135-4-244-17-352zm516 27c89 115 160 318 174 485l-81 32c-17-178-77-374-171-490" id="co"/><use transform="matrix(0.026666666666666665,0,0,0.026666666666666665,0,0)" xlink:href="#co" id="V"/><use transform="matrix(0.022222222222222223,0,0,0.022222222222222223,0,0)" xlink:href="#bX" id="W"/><use transform="matrix(0.022222222222222223,0,0,0.022222222222222223,0,0)" xlink:href="#bX" id="X"/><path fill="#333" d="M314-808c111 21 301 42 404 48l-16 117c-104-9-289-30-407-50zM175-546c126 6 368-1 505-30l73 83c-71 48-177 151-226 199 53 5 79 25 98 75 23 56 16 140 97 136 76 0 144-7 194-17l-8 130c-41 8-143 14-194 14-94 0-145-20-169-85-21-51-25-148-82-148-20 0-41 16-64 40-35 35-109 115-177 202L104-29c104-87 276-272 413-410-111 7-241 14-330 30" id="cp"/><use transform="matrix(0.022222222222222223,0,0,0.022222222222222223,0,0)" xlink:href="#cp" id="Y"/><use transform="matrix(0.026666666666666665,0,0,0.026666666666666665,0,0)" xlink:href="#bJ" id="Z"/><path fill="#333" d="M299-411H186v295h113v-295zm65 362H186v80h-65v-363c-17 30-35 58-55 83-5-17-22-60-34-79 71-94 118-235 146-387H55v-69h333v69H249c-16 83-37 164-63 238h178v428zm279-567H505v167h138v-167zm181 233H566c31 84 76 160 132 224 54-63 97-138 126-224zm27-66c21-7 37 10 56 14-32 131-89 239-162 324 61 55 132 98 211 127-16 12-36 40-46 59C830 43 759-3 698-61 638-2 570 43 497 74c-9-17-26-44-41-57 70-27 137-70 197-127-63-73-113-161-149-259-4 141-26 319-107 443-12-10-40-29-56-36 127-223 92-436 98-720h204v-154h68v154c60-2 128 4 183-3l47 12c-16 68-39 147-59 196l-58-16c12-32 25-78 36-123H711v167h140" id="cq"/><use transform="matrix(0.026666666666666665,0,0,0.026666666666666665,0,0)" xlink:href="#cq" id="aa"/><path fill="#333" d="M644-698H415c-24 30-49 61-74 87 115-2 242-4 369-7-35-18-70-35-103-49zM102-546l-3-63c47 0 101 0 160-1 23-26 48-58 68-88H62v-61h400v-78h75v78h406v61H673c87 37 187 94 242 134l-48 44c-18-14-42-30-68-47-252 9-518 17-697 21zm179 143v76h181v-76H281zm437 0H532v76h186v-76zm223 255H608C698-80 837-24 961 3c-17 13-38 41-48 59C780 26 629-48 535-136V75h-74v-212C368-48 217 27 87 66 78 49 57 22 41 8c120-29 256-87 345-156H60v-61h401v-62H213v-132H60v-58h153v-62h68v62h181v-70h70v70h186v-62h71v62h152v58H789v132H535v62h406v61" id="cr"/><use transform="matrix(0.026666666666666665,0,0,0.026666666666666665,0,0)" xlink:href="#cr" id="ab"/><path fill="#333" d="M533-233h232v-123H533v123zM234-356v123h225v-123H234zm225-186H234v121h225v-121zm306 0H533v121h232v-121zm194 309v69H838c-9 82 27 209-43 229-33 12-88 13-174 13-4-20-16-52-27-71 66 2 130 1 147 0 18 0 24-5 24-21v-150H234V79h-73v-243H43v-69h118v-377h298v-96H80v-70h842v70H533v96h305v377h121" id="cs"/><use transform="matrix(0.026666666666666665,0,0,0.026666666666666665,0,0)" xlink:href="#cs" id="ac"/><path fill="#333" d="M835-699l-38 17 49 31c-7 14-11 30-15 50-22 105-70 266-149 369C590-115 471-22 288 35l-68-75c194-48 306-133 390-240 71-91 117-230 131-326-202 1-414-3-611 3v-88c189 13 402 3 601 6 13 0 27 0 43-3-21-38-51-88-73-120l54-23c24 34 60 94 80 132zm-6-135l55-23c25 34 61 94 82 132l-55 24c-22-41-55-98-82-133" id="ct"/><use transform="matrix(0.026666666666666665,0,0,0.026666666666666665,0,0)" xlink:href="#ct" id="ad"/><path fill="#333" d="M776-604H229v475h547v-475zm84-81c-4 226-3 464 0 691h-86c0-7 1-30 1-57H229c1 26 1 50 2 57h-86c5-220 4-468 1-691 236 4 478 3 714 0" id="cu"/><use transform="matrix(0.026666666666666665,0,0,0.026666666666666665,0,0)" xlink:href="#cu" id="ae"/><use transform="matrix(0.026666666666666665,0,0,0.026666666666666665,0,0)" xlink:href="#ca" id="af"/><use transform="matrix(0.026666666666666665,0,0,0.026666666666666665,0,0)" xlink:href="#cb" id="ag"/><path fill="#333" d="M547-338c151-26 231-35 334-62l17 84c-110 14-192 31-336 52 35 166 34 184 65 292l-91 17c-17-119-23-127-54-296-167 29-246 39-357 64l-18-87c125-10 190-26 361-51l-40-201c-147 24-203 30-301 53l-17-90c108-6 158-17 303-39-20-96-18-108-40-173l90-16c9 75 10 78 30 177 143-25 211-31 302-56l17 84c-99 13-166 26-305 47" id="cv"/><use transform="matrix(0.026666666666666665,0,0,0.026666666666666665,0,0)" xlink:href="#cv" id="ah"/><path fill="#333" d="M431-430c177-36 316-56 384-80l50 35c-42 85-145 225-213 292l-71-35c62-54 138-146 172-206-23 4-165 32-303 60 57 200 88 327 124 432l-85 22c-22-118-63-237-115-438-94 19-176 35-203 41l-20-76c86-9 95-14 205-33-26-88-29-117-56-175l85-21c11 59 31 125 46 182" id="cw"/><use transform="matrix(0.026666666666666665,0,0,0.026666666666666665,0,0)" xlink:href="#cw" id="ai"/><path fill="#333" d="M749-708l51 39c-6 8-19 30-25 44-34 86-97 203-168 293 105 90 227 220 292 298l-70 61c-67-88-173-206-275-297C447-155 312-45 164 22l-64-67c262-111 480-315 578-575-161 2-340-5-491 5v-91c148 14 328 4 487 7 33 0 59-4 75-9" id="cx"/><use transform="matrix(0.026666666666666665,0,0,0.026666666666666665,0,0)" xlink:href="#cx" id="aj"/><use transform="matrix(0.026666666666666665,0,0,0.026666666666666665,0,0)" xlink:href="#bM" id="ak"/><path fill="#333" d="M239 197C147 47 92-114 92-311c0-196 55-358 147-507l57 26c-171 284-171 678 0 962" id="cy"/><use transform="matrix(0.026666666666666665,0,0,0.026666666666666665,0,0)" xlink:href="#cy" id="al"/><path fill="#333" d="M800-704l61 39c-7 14-11 31-15 50-22 105-70 266-149 369C606-129 487-36 303 22l-68-75c194-49 306-134 390-241 71-91 118-230 131-326-202 1-414-3-611 3v-88c190 13 403 3 602 6 15 0 34 0 53-5" id="cz"/><use transform="matrix(0.026666666666666665,0,0,0.026666666666666665,0,0)" xlink:href="#cz" id="am"/><path fill="#333" d="M821-517l57 36c-5 9-11 22-13 29-27 99-72 203-146 284C614-53 488 6 361 41l-62-71c230-44 420-190 471-404-210 2-423-3-628 3v-84c199 13 416 3 624 6 23 0 44-2 55-8zM231-662v-83c151 11 323 2 483 5 32 0 67-1 91-5v83c-183-5-389-4-574 0" id="cA"/><use transform="matrix(0.026666666666666665,0,0,0.026666666666666665,0,0)" xlink:href="#cA" id="an"/><use transform="matrix(0.026666666666666665,0,0,0.026666666666666665,0,0)" xlink:href="#bL" id="ao"/><path fill="#333" d="M867-675l-54 24c-20-41-54-101-81-138l53-23c25 36 61 96 82 137zm-134 27c-171-5-358-5-530 0v-83c136 12 292 3 437 6 28 0 64-2 93-6v83zM85-479c239 9 495 2 741 4 21 0 54-1 78-4v82c-113-4-234-1-350-2-3 241-88 364-256 456L224 2c154-62 251-193 247-401-128 1-262-2-386 2v-82zm757-351l53-22c26 36 65 99 84 136l-54 24c-22-44-54-100-83-138" id="cB"/><use transform="matrix(0.026666666666666665,0,0,0.026666666666666665,0,0)" xlink:href="#cB" id="ap"/><path fill="#333" d="M116-260c257-60 468-191 605-343l62 59c-47 51-136 124-227 181 3 145-6 304 5 440h-92c8-120 2-265 4-392-85 45-205 97-314 128" id="cC"/><use transform="matrix(0.026666666666666665,0,0,0.026666666666666665,0,0)" xlink:href="#cC" id="aq"/><path fill="#333" d="M227-733c71 47 199 151 255 207l-63 63c-50-52-175-159-249-209zM141-63c175-26 305-87 400-146 154-97 276-245 334-368l48 85C783-252 545-47 194 19" id="cD"/><use transform="matrix(0.026666666666666665,0,0,0.026666666666666665,0,0)" xlink:href="#cD" id="ar"/><path fill="#333" d="M429-632h271c27 0 49-3 65-9l66 40c-8 14-18 37-23 53-27 101-88 236-177 345C540-92 420-1 233 69L160 3c184-54 309-144 400-251 78-91 139-221 159-312H382c-61 85-144 174-254 246l-69-51c172-103 270-249 314-338 10-18 25-54 31-80l92 31c-28 46-43 79-67 120zm283-145l53-23c25 36 61 96 82 137l-54 24c-20-40-54-101-81-138zm110-40l53-23c26 37 65 99 83 136l-53 24c-22-43-55-100-83-137" id="cE"/><path fill="#333" d="M99 197l-56-27c171-284 171-678 0-962l56-26c93 149 148 311 148 507 0 197-55 358-148 508" id="cF"/><g id="as"><use transform="matrix(0.026666666666666665,0,0,0.026666666666666665,0,0)" xlink:href="#cE"/><use transform="matrix(0.026666666666666665,0,0,0.026666666666666665,26.666666666666664,0)" xlink:href="#cF"/></g><use transform="matrix(0.026666666666666665,0,0,0.026666666666666665,0,0)" xlink:href="#bt" id="at"/><use transform="matrix(0.026666666666666665,0,0,0.026666666666666665,0,0)" xlink:href="#bu" id="au"/><use transform="matrix(0.026666666666666665,0,0,0.026666666666666665,0,0)" xlink:href="#bH" id="av"/><use transform="matrix(0.026666666666666665,0,0,0.026666666666666665,0,0)" xlink:href="#bI" id="aw"/><use transform="matrix(0.026666666666666665,0,0,0.026666666666666665,0,0)" xlink:href="#bJ" id="ax"/><use transform="matrix(0.026666666666666665,0,0,0.026666666666666665,0,0)" xlink:href="#bK" id="ay"/><use transform="matrix(0.026666666666666665,0,0,0.026666666666666665,0,0)" xlink:href="#bM" id="az"/><use transform="matrix(0.026666666666666665,0,0,0.026666666666666665,0,0)" xlink:href="#bs" id="aA"/><path fill="#333" d="M786-837l76 25c-35 57-75 123-108 165l-61-22c32-46 73-118 93-168zm160 462H687c42 125 127 210 261 248-17 15-37 43-47 62-130-45-214-130-263-257-31 90-102 182-261 253-10-15-33-41-49-55 173-70 231-165 249-251H320v-67h265c2-45 0-93 1-139H352v-66h125c-12-45-49-112-86-161l63-25c39 48 77 114 91 159l-60 27h431v66H660c-1 46 1 94-1 139h287v67zM292-658l-59 49c-31-48-105-114-170-158l55-45c64 42 140 106 174 154zm-28 213v319C311-53 398-19 513-14c109 4 331 1 448-7-8 18-21 53-24 76-109 4-314 6-424 2-130-5-219-41-283-118-48 42-98 85-151 128L39-8c46-30 102-72 152-114v-253H52v-70h212" id="cG"/><use transform="matrix(0.026666666666666665,0,0,0.026666666666666665,0,0)" xlink:href="#cG" id="aB"/><use transform="matrix(0.026666666666666665,0,0,0.026666666666666665,0,0)" xlink:href="#bZ" id="aC"/><g id="aD"><use transform="matrix(0.026666666666666665,0,0,0.026666666666666665,0,0)" xlink:href="#bU"/><use transform="matrix(0.026666666666666665,0,0,0.026666666666666665,26.666666666666664,0)" xlink:href="#bv"/><use transform="matrix(0.026666666666666665,0,0,0.026666666666666665,45.03999999999999,0)" xlink:href="#bq"/><use transform="matrix(0.026666666666666665,0,0,0.026666666666666665,59.81333333333333,0)" xlink:href="#bw"/><use transform="matrix(0.026666666666666665,0,0,0.026666666666666665,75.97333333333333,0)" xlink:href="#bo"/><use transform="matrix(0.026666666666666665,0,0,0.026666666666666665,89.54666666666667,0)" xlink:href="#bn"/><use transform="matrix(0.026666666666666665,0,0,0.026666666666666665,104.58666666666667,0)" xlink:href="#bx"/><use transform="matrix(0.026666666666666665,0,0,0.026666666666666665,117.06666666666668,0)" xlink:href="#br"/></g><use transform="matrix(0.026666666666666665,0,0,0.026666666666666665,0,0)" xlink:href="#bC" id="aE"/><use transform="matrix(0.026666666666666665,0,0,0.026666666666666665,0,0)" xlink:href="#bD" id="aF"/><path fill="#333" d="M602-530H434v88h168v-88zm241 88v-88H669v88h174zM669-296h174v-91H669v91zm-235 0h168v-91H434v91zm0 57v166h-70v-514h285c-59-29-130-61-190-83l47-42c43 15 92 35 139 55 48-21 97-50 137-79H365v-59h488l14-4 46 35c-53 50-128 100-202 137 29 14 55 28 77 40h126v440c-4 89-63 71-169 76-3-18-12-44-21-61 47 2 90 1 102 1 13 0 17-4 17-17v-91H669v162h-67v-162H434zM283-653l-55 51c-31-49-103-119-166-166l52-46c63 45 137 112 169 161zm-22 208v321C309-49 395-16 512-12c109 5 337 2 456-6-8 17-19 51-23 73-111 5-323 7-433 2-131-5-221-40-282-119C179-18 126 25 69 67L33-5c48-30 105-72 156-113v-257H45v-70h216" id="cH"/><use transform="matrix(0.026666666666666665,0,0,0.026666666666666665,0,0)" xlink:href="#cH" id="aG"/><path fill="#333" d="M314-490v98h377v-98H314zm543 236v209c0 39-8 59-39 70-31 12-81 12-158 12-4-21-16-48-26-68 60 2 113 2 128 1s20-4 20-16v-140H550V77h-75v-263H228V32h-74v-286h321v-82H243v-210h522v210H550v82h307zm-97-575l77 27c-33 44-71 90-100 120l-60-25c28-33 64-86 83-122zm158 147v214h-73v-149H160v149H89v-214h160c-15-33-49-82-78-118l66-27c33 35 68 84 85 117l-62 28h209v-155h75v155h374" id="cI"/><use transform="matrix(0.026666666666666665,0,0,0.026666666666666665,0,0)" xlink:href="#cI" id="aH"/><path fill="#333" d="M371 13C187 13 58-134 58-369s129-378 313-378 313 143 313 378S555 13 371 13zm0-81c131 0 218-118 218-301 0-184-87-297-218-297-132 0-218 113-218 297 0 183 86 301 218 301" id="cJ"/><path fill="#333" d="M92 0v-543h75l8 99h3c50-86 117-137 212-101l-17 80c-18-7-31-9-53-9-45 0-101 32-137 125V0H92" id="cK"/><path fill="#333" d="M250 13C136 13 85-61 85-199v-344h91v333c0 101 30 144 102 144 56 0 95-27 147-92v-385h91V0h-76l-7-85h-3c-51 59-105 98-180 98" id="cL"/><g id="aI"><use transform="matrix(0.026666666666666665,0,0,0.026666666666666665,0,0)" xlink:href="#cc"/><use transform="matrix(0.026666666666666665,0,0,0.026666666666666665,26.666666666666664,0)" xlink:href="#cJ"/><use transform="matrix(0.026666666666666665,0,0,0.026666666666666665,46.45333333333333,0)" xlink:href="#bm"/><use transform="matrix(0.026666666666666665,0,0,0.026666666666666665,62.986666666666665,0)" xlink:href="#bm"/><use transform="matrix(0.026666666666666665,0,0,0.026666666666666665,79.52,0)" xlink:href="#bw"/><use transform="matrix(0.026666666666666665,0,0,0.026666666666666665,95.67999999999999,0)" xlink:href="#cK"/><use transform="matrix(0.026666666666666665,0,0,0.026666666666666665,106.02666666666666,0)" xlink:href="#br"/><use transform="matrix(0.026666666666666665,0,0,0.026666666666666665,116.08,0)" xlink:href="#cL"/><use transform="matrix(0.026666666666666665,0,0,0.026666666666666665,132.26666666666665,0)" xlink:href="#bB"/><use transform="matrix(0.026666666666666665,0,0,0.026666666666666665,148.55999999999997,0)" xlink:href="#bA"/><use transform="matrix(0.026666666666666665,0,0,0.026666666666666665,155.89333333333332,0)" xlink:href="#bx"/><use transform="matrix(0.026666666666666665,0,0,0.026666666666666665,168.3733333333333,0)" xlink:href="#br"/><use transform="matrix(0.026666666666666665,0,0,0.026666666666666665,178.42666666666665,0)" xlink:href="#bA"/><use transform="matrix(0.026666666666666665,0,0,0.026666666666666665,185.76,0)" xlink:href="#bo"/></g><g id="aJ"><use transform="matrix(0.026666666666666665,0,0,0.026666666666666665,0,0)" xlink:href="#cK"/><use transform="matrix(0.026666666666666665,0,0,0.026666666666666665,10.346666666666666,0)" xlink:href="#bw"/><use transform="matrix(0.026666666666666665,0,0,0.026666666666666665,26.506666666666668,0)" xlink:href="#cL"/><use transform="matrix(0.026666666666666665,0,0,0.026666666666666665,42.69333333333333,0)" xlink:href="#br"/><use transform="matrix(0.026666666666666665,0,0,0.026666666666666665,52.74666666666666,0)" xlink:href="#bA"/><use transform="matrix(0.026666666666666665,0,0,0.026666666666666665,60.08,0)" xlink:href="#bB"/><use transform="matrix(0.026666666666666665,0,0,0.026666666666666665,76.37333333333333,0)" xlink:href="#bz"/></g><use transform="matrix(0.026666666666666665,0,0,0.026666666666666665,0,0)" xlink:href="#bT" id="aK"/><path fill="#333" d="M631-378H369v189h262v-189zm70 253H369v72h-69v-388h401v316zm53-485v65H250v-65h504zm157-175v768c0 46-11 68-41 81-31 12-81 14-167 14-3-21-15-53-27-73 63 2 121 2 138 1 18-1 24-7 24-23v-697H163V79H91v-864h820" id="cM"/><use transform="matrix(0.026666666666666665,0,0,0.026666666666666665,0,0)" xlink:href="#cM" id="aL"/><path fill="#333" d="M383-312l-41 55c-14-32-49-94-79-144V75h-68v-467c-33 109-76 214-122 279-8-19-26-47-38-64 62-83 123-239 152-375H55v-69h140v-216h68v216h114v69H263v63c28 37 103 150 120 177zm202 138l20 61C525-66 440-17 372 21l-35-62c63-32 157-83 248-133zM409-308l51-33c39 39 83 93 103 129l-54 38c-19-37-62-93-100-134zm395 139l-32-24c50 75 117 134 198 167-15 14-37 41-48 60-94-47-168-131-222-234V-7c0 95-64 81-167 85-3-19-11-50-21-68 44 1 87 1 100 0 13 0 16-4 16-17v-374H376v-63h252v-77H426v-58h202v-71H397v-61h125c-11-31-32-71-50-103l58-19c24 35 50 84 60 115l-18 7h174l-9-3c20-34 45-88 58-124l73 21c-21 37-43 76-62 106h132v61H700v71h216v58H700v77h252v63H700v40c15 47 36 90 60 130 40-36 93-93 123-134l57 40c-41 49-95 100-136 136" id="cN"/><use transform="matrix(0.026666666666666665,0,0,0.026666666666666665,0,0)" xlink:href="#cN" id="aM"/><use transform="matrix(0.026666666666666665,0,0,0.026666666666666665,0,0)" xlink:href="#cc" id="aN"/><path fill="#333" d="M793-598v-42H460v42h333zM460-433h333v-43H460v43zm333-83v-43H460v43h333zM392-683h174c4-17 8-35 12-52H322v-57h617v57H657c-7 18-14 36-21 52h227v250h93v134h-67v-86H636c26 17 50 36 65 53l-45 32c-21-25-65-59-102-79l8-6H359v86h-65v-134h98v-250zm379 351l47-27c44 33 93 81 116 115l-50 29c-21-34-69-83-113-117zM363-216l-46-38c43-23 82-66 106-101l49 27c-26 38-63 84-109 112zM235-831l69 19c-22 66-48 132-78 195V76h-71v-560c-30 50-61 95-94 134-7-18-27-57-39-75 86-100 165-252 213-406zm523 693H497c33 31 77 57 127 79 56-23 101-50 134-79zm47-48c25-7 40 16 60 23-36 52-91 96-162 133 79 24 170 40 264 48-14 15-32 44-41 62C815 67 710 43 621 6c-86 32-190 56-310 72-7-16-24-40-36-56C378 11 469-7 546-31c-40-22-75-48-105-78-35 20-74 39-117 57-10-15-30-36-45-46 106-36 187-87 238-135-46-7-35-72-36-125h62c8 40-25 84 39 84h124c23 0 28-5 31-44 12 7 35 14 51 17-6 58-22 73-74 73H595c-13 14-28 28-44 42h254" id="cO"/><use transform="matrix(0.026666666666666665,0,0,0.026666666666666665,0,0)" xlink:href="#cO" id="aO"/><path fill="#333" d="M709-10h127c36 0 42-21 46-150 17 13 48 26 69 31-8 151-30 190-109 190H700c-88 0-110-25-110-106v-293H401C381-143 325 3 98 82c-8-19-30-49-47-63 211-65 256-193 273-357H65v-72h398v-200H257c-24 57-54 110-87 152-17-12-46-27-65-35 69-84 119-216 143-320l75 15c-10 38-23 77-37 117h177v-155h74v155h328v71H537v200h400v72H664v293c0 30 7 35 45 35" id="cP"/><use transform="matrix(0.026666666666666665,0,0,0.026666666666666665,0,0)" xlink:href="#cP" id="aP"/><path fill="#333" d="M411-597h283v-84H411v84zm0 64v104h283v-104H411zM27 20c60-138 80-269 80-474v-292h376v-87h80v87h370v65H772v84h160v64H772v163H334v-163H182c7 244-16 458-98 613zm155-617h152v-84H182v84zm127 390l65-36c49 55 111 102 184 139 77-39 144-88 201-149H234v-64h617v64c-51 71-123 132-214 183 83 32 184 58 305 79l-23 64C778 48 658 14 559-31 461 13 340 48 197 73L175 9c118-19 220-45 306-79-72-41-129-86-172-137" id="cQ"/><use transform="matrix(0.026666666666666665,0,0,0.026666666666666665,0,0)" xlink:href="#cQ" id="aQ"/><use transform="matrix(0.026666666666666665,0,0,0.026666666666666665,0,0)" xlink:href="#bK" id="aR"/><path fill="#333" d="M716-746c25 36 70 108 93 155l-57 26c-25-53-58-112-91-157zm131-48c27 35 71 107 96 153l-57 26c-27-53-62-110-95-155zm-558 33c59 33 174 110 217 141l-47 69c-48-37-157-109-215-143zM139-46c315-49 589-259 714-483l48 83C767-233 483-22 185 35zm-1-490c59 32 176 104 220 135l-46 70c-50-36-158-106-219-137" id="cR"/><use transform="matrix(0.026666666666666665,0,0,0.026666666666666665,0,0)" xlink:href="#cR" id="aS"/><path fill="#333" d="M679-87c60 0 120 2 177-3v81c-231-3-477-4-707 1v-83c140 8 298 2 445 4 15-84 44-279 47-336-132 1-271-3-398 3v-84c118 12 256 3 383 6 16 0 41-3 50-7l61 29c-16 82-39 278-58 389" id="cS"/><use transform="matrix(0.026666666666666665,0,0,0.026666666666666665,0,0)" xlink:href="#cS" id="aT"/><path fill="#333" d="M221-751h92c-5 154-4 327 0 482h-92c7-150 6-329 0-482zm463-7h92c-7 73-3 168-4 248 0 240-32 319-104 405C603-27 503 16 430 41l-65-69c92-23 178-63 240-133 72-83 84-164 84-353-1-80 3-173-5-244" id="cT"/><use transform="matrix(0.026666666666666665,0,0,0.026666666666666665,0,0)" xlink:href="#cT" id="aU"/><use transform="matrix(0.026666666666666665,0,0,0.026666666666666665,0,0)" xlink:href="#cE" id="aV"/><path fill="#333" d="M442-544h90c0 271-24 454-279 581l-73-60c27-9 61-25 89-44 174-110 184-270 173-477zm440-179l49 47c-7 10-20 25-27 36-40 68-135 197-249 276l-66-53c92-54 186-162 218-224-227 3-465-7-683 6v-90c215 17 460 4 688 8 19 0 55-3 70-6" id="cU"/><use transform="matrix(0.026666666666666665,0,0,0.026666666666666665,0,0)" xlink:href="#cU" id="aW"/><path fill="#333" d="M141 24L66-26c84-60 144-149 174-246 29-92 30-291 30-402 0-30-3-52-7-73h92c-10 135-2 368-36 497-30 107-94 205-178 274zm436-1l-53-44c4-16 7-36 7-56v-599c0-38-5-66-6-74h92c-9 207-2 437-4 651 92-42 215-133 291-246l48 68C866-160 727-58 611 0c-15 8-24 15-34 23" id="cV"/><use transform="matrix(0.026666666666666665,0,0,0.026666666666666665,0,0)" xlink:href="#cV" id="aX"/><path fill="#333" d="M815-692l-55 25c-20-42-55-100-80-135l55-23c23 34 60 95 80 133zm13 40c-3 225-5 469 2 691h-90c0-11 1-32 2-56-199 2-411-4-602 4v-91c187 13 405 3 602 6v-472c-194 1-400-3-589 3v-89c215 12 452 4 675 4zm-22-179l55-23c24 34 61 94 82 132l-56 25c-22-41-54-99-81-134" id="cW"/><use transform="matrix(0.026666666666666665,0,0,0.026666666666666665,0,0)" xlink:href="#cW" id="aY"/><path fill="#333" d="M838-677l-54 24c-20-40-53-99-80-138l53-23c25 37 62 98 81 137zm-109-13l51 39c-6 8-19 30-25 43-34 87-97 204-168 294C692-224 814-94 879-16l-70 61c-67-89-173-206-275-298C427-137 292-28 144 39L80-27c262-111 480-315 578-576-161 2-340-5-491 5v-90c149 12 328 3 487 6 33 0 59-3 75-8zm89-136l52-23c27 37 65 99 84 136l-54 24c-22-43-55-100-82-137" id="cX"/><use transform="matrix(0.026666666666666665,0,0,0.026666666666666665,0,0)" xlink:href="#cX" id="aZ"/><path fill="#333" d="M795-97C598-70 258-38 89-17l-15-93c50 1 96-1 143-4 71-195 177-486 206-652l99 20c-55 143-140 438-212 624 147-14 339-36 448-50-40-79-84-157-121-205l75-34C783-308 892-107 933-4l-83 38c-13-36-33-82-55-131" id="cY"/><use transform="matrix(0.026666666666666665,0,0,0.026666666666666665,0,0)" xlink:href="#cY" id="ba"/><path fill="#333" d="M246-836l68 25c-59 85-152 177-236 237-10-15-29-41-42-54 78-52 166-138 210-208zm24 202l66 23c-25 44-54 88-87 131V79h-69v-478c-37 40-75 77-113 107-7-15-30-50-42-66 91-67 186-171 245-276zm420 362v254c71 11 184 5 274 6-11 17-22 50-24 70-244 3-406 15-497-182-25 81-61 149-113 204-11-14-41-39-57-51 98-95 131-248 143-439l74 6c-5 63-12 122-22 177 33 104 84 160 151 189v-499H370v-72h155c-21-55-63-135-99-196l61-24c40 62 85 143 105 196l-50 24h236l-56-22c33-55 74-143 96-206l71 26c-30 70-70 148-101 202h152v72H690v196h223v69H690" id="cZ"/><use transform="matrix(0.026666666666666665,0,0,0.026666666666666665,0,0)" xlink:href="#cZ" id="bb"/><g id="bc"><use transform="matrix(0.026666666666666665,0,0,0.026666666666666665,0,0)" xlink:href="#co"/><use transform="matrix(0.026666666666666665,0,0,0.026666666666666665,26.666666666666664,0)" xlink:href="#bm"/><use transform="matrix(0.026666666666666665,0,0,0.026666666666666665,43.199999999999996,0)" xlink:href="#bn"/><use transform="matrix(0.026666666666666665,0,0,0.026666666666666665,58.239999999999995,0)" xlink:href="#bo"/><use transform="matrix(0.026666666666666665,0,0,0.026666666666666665,71.81333333333333,0)" xlink:href="#bp"/><use transform="matrix(0.026666666666666665,0,0,0.026666666666666665,86.53333333333333,0)" xlink:href="#bq"/><use transform="matrix(0.026666666666666665,0,0,0.026666666666666665,101.30666666666666,0)" xlink:href="#br"/></g><use transform="matrix(0.026666666666666665,0,0,0.026666666666666665,0,0)" xlink:href="#cs" id="bd"/><use transform="matrix(0.026666666666666665,0,0,0.026666666666666665,0,0)" xlink:href="#cb" id="be"/><use transform="matrix(0.026666666666666665,0,0,0.026666666666666665,0,0)" xlink:href="#bM" id="bf"/><g id="bg"><use transform="matrix(0.026666666666666665,0,0,0.026666666666666665,0,0)" xlink:href="#bw"/><use transform="matrix(0.026666666666666665,0,0,0.026666666666666665,16.16,0)" xlink:href="#cK"/></g><path fill="#333" d="M886-575c-61 101-134 232-229 331l-70-42c75-68 148-178 178-238-17 4-201 41-378 77v297c0 69 25 91 145 91 116 0 212-10 312-29l-4 86c-89 12-189 20-314 20-186 0-220-48-220-147v-302c-101 20-190 39-230 48l-16-84c45-6 140-23 246-43-2-89 5-183-7-263h95c-12 76-5 163-7 248 219-47 349-61 440-96" id="da"/><use transform="matrix(0.026666666666666665,0,0,0.026666666666666665,0,0)" xlink:href="#da" id="bh"/><use transform="matrix(0.026666666666666665,0,0,0.026666666666666665,0,0)" xlink:href="#cV" id="bi"/><g id="bj"><use transform="matrix(0.026666666666666665,0,0,0.026666666666666665,0,0)" xlink:href="#bm"/><use transform="matrix(0.026666666666666665,0,0,0.026666666666666665,16.53333333333333,0)" xlink:href="#bn"/><use transform="matrix(0.026666666666666665,0,0,0.026666666666666665,31.57333333333333,0)" xlink:href="#bo"/><use transform="matrix(0.026666666666666665,0,0,0.026666666666666665,45.14666666666666,0)" xlink:href="#bp"/><use transform="matrix(0.026666666666666665,0,0,0.026666666666666665,59.86666666666666,0)" xlink:href="#bq"/><use transform="matrix(0.026666666666666665,0,0,0.026666666666666665,74.63999999999999,0)" xlink:href="#br"/></g><use transform="matrix(0.026666666666666665,0,0,0.026666666666666665,0,0)" xlink:href="#cq" id="bk"/><use transform="matrix(0.026666666666666665,0,0,0.026666666666666665,0,0)" xlink:href="#cr" id="bl"/></defs></g></svg>