<svg width="1194" height="638" xmlns="http://www.w3.org/2000/svg" xmlns:xlink="http://www.w3.org/1999/xlink" overflow="hidden"><defs><clipPath id="clip0"><rect x="72" y="79" width="1194" height="638"/></clipPath></defs><g clip-path="url(#clip0)" transform="translate(-72 -79)"><path d="M73.5001 319C73.5001 303.26 86.2599 290.5 102 290.5 117.74 290.5 130.5 303.26 130.5 319 130.5 334.74 117.74 347.5 102 347.5 86.2599 347.5 73.5001 334.74 73.5001 319Z" stroke="#000000" stroke-width="1.33333" stroke-miterlimit="8" fill="#FFFFFF" fill-rule="evenodd"/><text font-family="Cambria Math,Cambria Math_MSFontService,sans-serif" font-weight="400" font-size="27" transform="translate(81.9447 327)">ğ‘µ<tspan font-size="20" x="20.3333" y="6">ğ’”</tspan></text><path d="M136.5 312.167 265.017 312.167 265.017 314.833 136.5 314.833ZM263.684 309.5 271.684 313.5 263.684 317.5Z" fill="#2E75B6"/><path d="M277.5 165.5C277.5 150.036 290.26 137.5 306 137.5 321.74 137.5 334.5 150.036 334.5 165.5 334.5 180.964 321.74 193.5 306 193.5 290.26 193.5 277.5 180.964 277.5 165.5Z" stroke="#000000" stroke-width="1.33333" stroke-miterlimit="8" fill="#FFFFFF" fill-rule="evenodd"/><path d="M277.5 319C277.5 303.26 290.26 290.5 306 290.5 321.74 290.5 334.5 303.26 334.5 319 334.5 334.74 321.74 347.5 306 347.5 290.26 347.5 277.5 334.74 277.5 319Z" stroke="#000000" stroke-width="1.33333" stroke-miterlimit="8" fill="#FFFFFF" fill-rule="evenodd"/><path d="M277.5 490C277.5 474.26 290.26 461.5 306 461.5 321.74 461.5 334.5 474.26 334.5 490 334.5 505.74 321.74 518.5 306 518.5 290.26 518.5 277.5 505.74 277.5 490Z" stroke="#000000" stroke-width="1.33333" stroke-miterlimit="8" fill="#FFFFFF" fill-rule="evenodd"/><path d="M130.5 318.5 277.903 318.5" stroke="#767171" stroke-width="3" stroke-miterlimit="8" stroke-dasharray="3 3" fill="none" fill-rule="evenodd"/><path d="M1012.5 341.5C1012.5 326.036 1025.26 313.5 1041 313.5 1056.74 313.5 1069.5 326.036 1069.5 341.5 1069.5 356.964 1056.74 369.5 1041 369.5 1025.26 369.5 1012.5 356.964 1012.5 341.5Z" stroke="#000000" stroke-width="1.33333" stroke-miterlimit="8" fill="#FFFFFF" fill-rule="evenodd"/><text font-family="Cambria Math,Cambria Math_MSFontService,sans-serif" font-weight="400" font-size="27" transform="translate(1019.81 350)">ğ‘µ<tspan font-size="20" x="20.3334" y="5">ğ’…</tspan></text><path d="M731.5 194C731.5 178.26 744.036 165.5 759.5 165.5 774.964 165.5 787.5 178.26 787.5 194 787.5 209.74 774.964 222.5 759.5 222.5 744.036 222.5 731.5 209.74 731.5 194Z" stroke="#000000" stroke-width="1.33333" stroke-miterlimit="8" fill="#FFFFFF" fill-rule="evenodd"/><path d="M957.5 182.5C957.5 167.036 970.26 154.5 986 154.5 1001.74 154.5 1014.5 167.036 1014.5 182.5 1014.5 197.964 1001.74 210.5 986 210.5 970.26 210.5 957.5 197.964 957.5 182.5Z" stroke="#000000" stroke-width="1.33333" stroke-miterlimit="8" fill="#FFFFFF" fill-rule="evenodd"/><path d="M799.5 518.5C799.5 503.036 812.036 490.5 827.5 490.5 842.964 490.5 855.5 503.036 855.5 518.5 855.5 533.964 842.964 546.5 827.5 546.5 812.036 546.5 799.5 533.964 799.5 518.5Z" stroke="#000000" stroke-width="1.33333" stroke-miterlimit="8" fill="#FFFFFF" fill-rule="evenodd"/><path d="M837.5 341.5C837.5 326.036 850.26 313.5 866 313.5 881.74 313.5 894.5 326.036 894.5 341.5 894.5 356.964 881.74 369.5 866 369.5 850.26 369.5 837.5 356.964 837.5 341.5Z" stroke="#000000" stroke-width="1.33333" stroke-miterlimit="8" fill="#FFFFFF" fill-rule="evenodd"/><path d="M133.5 318.5 286.221 469.756" stroke="#767171" stroke-width="3" stroke-miterlimit="8" stroke-dasharray="3 3" fill="none" fill-rule="evenodd"/><path d="M0 0 152.721 133.028" stroke="#767171" stroke-width="3" stroke-miterlimit="8" stroke-dasharray="3 3" fill="none" fill-rule="evenodd" transform="matrix(1 0 0 -1 133.5 318.528)"/><path d="M0 0 187.612 46.4698" stroke="#767171" stroke-width="3" stroke-miterlimit="8" stroke-dasharray="3 3" fill="none" fill-rule="evenodd" transform="matrix(1 0 0 -1 326.5 298.97)"/><path d="M581.5 109C581.5 93.2599 594.036 80.5001 609.5 80.5001 624.964 80.5001 637.5 93.2599 637.5 109 637.5 124.74 624.964 137.5 609.5 137.5 594.036 137.5 581.5 124.74 581.5 109Z" stroke="#000000" stroke-width="1.33333" stroke-miterlimit="8" fill="#FFFFFF" fill-rule="evenodd"/><path d="M513.5 252C513.5 236.26 526.26 223.5 542 223.5 557.74 223.5 570.5 236.26 570.5 252 570.5 267.74 557.74 280.5 542 280.5 526.26 280.5 513.5 267.74 513.5 252Z" stroke="#000000" stroke-width="1.33333" stroke-miterlimit="8" fill="#FFFFFF" fill-rule="evenodd"/><path d="M577.5 409.5C577.5 394.036 590.26 381.5 606 381.5 621.74 381.5 634.5 394.036 634.5 409.5 634.5 424.964 621.74 437.5 606 437.5 590.26 437.5 577.5 424.964 577.5 409.5Z" stroke="#000000" stroke-width="1.33333" stroke-miterlimit="8" fill="#FFFFFF" fill-rule="evenodd"/><path d="M505.5 547C505.5 531.26 518.26 518.5 534 518.5 549.74 518.5 562.5 531.26 562.5 547 562.5 562.74 549.74 575.5 534 575.5 518.26 575.5 505.5 562.74 505.5 547Z" stroke="#000000" stroke-width="1.33333" stroke-miterlimit="8" fill="#FFFFFF" fill-rule="evenodd"/><path d="M338.5 318.5 577.661 409.209" stroke="#767171" stroke-width="3" stroke-miterlimit="8" stroke-dasharray="3 3" fill="none" fill-rule="evenodd"/><path d="M326.5 338.5 514.112 526.843" stroke="#767171" stroke-width="3" stroke-miterlimit="8" stroke-dasharray="3 3" fill="none" fill-rule="evenodd"/><path d="M0 0 39.107 96.2473" stroke="#767171" stroke-width="3" stroke-miterlimit="8" stroke-dasharray="3 3" fill="none" fill-rule="evenodd" transform="matrix(1 0 0 -1 562.5 231.747)"/><path d="M0 0 160.85 58.2114" stroke="#767171" stroke-width="3" stroke-miterlimit="8" stroke-dasharray="3 3" fill="none" fill-rule="evenodd" transform="matrix(1 0 0 -1 570.5 251.712)"/><path d="M637.5 113.5 739.019 173.866" stroke="#767171" stroke-width="3" stroke-miterlimit="8" stroke-dasharray="3 3" fill="none" fill-rule="evenodd"/><path d="M334.5 490.5 505.507 547.631" stroke="#767171" stroke-width="3" stroke-miterlimit="8" stroke-dasharray="3 3" fill="none" fill-rule="evenodd"/><path d="M306.5 193.5 306.5 289.879" stroke="#767171" stroke-width="3" stroke-miterlimit="8" stroke-dasharray="3 3" fill="none" fill-rule="evenodd"/><path d="M306.5 347.5 306.5 461.235" stroke="#767171" stroke-width="3" stroke-miterlimit="8" stroke-dasharray="3 3" fill="none" fill-rule="evenodd"/><path d="M334.5 165.5 522.112 232.014" stroke="#767171" stroke-width="3" stroke-miterlimit="8" stroke-dasharray="3 3" fill="none" fill-rule="evenodd"/><path d="M0 0 246.943 56.6929" stroke="#767171" stroke-width="3" stroke-miterlimit="8" stroke-dasharray="3 3" fill="none" fill-rule="evenodd" transform="matrix(1 0 0 -1 334.5 165.193)"/><path d="M562.5 272.5 606.622 381.332" stroke="#767171" stroke-width="3" stroke-miterlimit="8" stroke-dasharray="3 3" fill="none" fill-rule="evenodd"/><path d="M0 0 52.4246 89.3319" stroke="#767171" stroke-width="3" stroke-miterlimit="8" stroke-dasharray="3 3" fill="none" fill-rule="evenodd" transform="matrix(-1 0 0 1 605.925 437.5)"/><path d="M0 0 237.184 28.785" stroke="#767171" stroke-width="3" stroke-miterlimit="8" stroke-dasharray="3 3" fill="none" fill-rule="evenodd" transform="matrix(-1 0 0 1 799.684 518.5)"/><path d="M0 0 36.4153 122.501" stroke="#767171" stroke-width="3" stroke-miterlimit="8" stroke-dasharray="3 3" fill="none" fill-rule="evenodd" transform="matrix(-1 0 0 1 863.915 367.5)"/><path d="M637.5 424.5 807.051 498.611" stroke="#767171" stroke-width="3" stroke-miterlimit="8" stroke-dasharray="3 3" fill="none" fill-rule="evenodd"/><path d="M0 0 203.398 68.0318" stroke="#767171" stroke-width="3" stroke-miterlimit="8" stroke-dasharray="3 3" fill="none" fill-rule="evenodd" transform="matrix(1 0 0 -1 634.5 409.532)"/><path d="M0 0 113.289 175.346" stroke="#767171" stroke-width="3" stroke-miterlimit="8" stroke-dasharray="3 3" fill="none" fill-rule="evenodd" transform="matrix(1 0 0 -1 626.5 389.846)"/><path d="M846.126 321.815 779.5 214.5" stroke="#767171" stroke-width="3" stroke-miterlimit="8" stroke-dasharray="3 3" fill="none" fill-rule="evenodd"/><path d="M0 0 170.08 11.3384" stroke="#767171" stroke-width="3" stroke-miterlimit="8" stroke-dasharray="3 3" fill="none" fill-rule="evenodd" transform="matrix(-1 0 0 1 957.58 182.5)"/><path d="M0 0 79.9709 118.653" stroke="#767171" stroke-width="3" stroke-miterlimit="8" stroke-dasharray="3 3" fill="none" fill-rule="evenodd" transform="matrix(-1 0 0 1 966.471 202.5)"/><path d="M0 0 118.149 0.000104987" stroke="#767171" stroke-width="3" stroke-miterlimit="8" stroke-dasharray="3 3" fill="none" fill-rule="evenodd" transform="matrix(-1 0 0 1 1012.65 341.5)"/><path d="M0 0 165.133 156.925" stroke="#767171" stroke-width="3" stroke-miterlimit="8" stroke-dasharray="3 3" fill="none" fill-rule="evenodd" transform="matrix(-1 0 0 1 1020.63 361.5)"/><path d="M1006.5 202.5 1041.24 312.85" stroke="#767171" stroke-width="3" stroke-miterlimit="8" stroke-dasharray="3 3" fill="none" fill-rule="evenodd"/><path d="M338.962 311.249 564.397 394.55 563.472 397.051 338.038 313.751ZM564.07 391.587 570.188 398.111 561.297 399.091Z" fill="#2E75B6"/><path d="M0.421824-1.26485 193.542 63.1401 192.698 65.6698-0.421824 1.26485ZM193.12 60.1885 199.444 66.514 190.589 67.7776Z" fill="#2E75B6" transform="matrix(1 0 0 -1 635.5 401.014)"/><path d="M894.51 334.167 1007.19 334.982 1007.17 337.648 894.49 336.833ZM1005.88 332.306 1013.85 336.363 1005.82 340.305Z" fill="#2E75B6"/><text font-family="Yu Gothic,Yu Gothic_MSFontService,sans-serif" font-weight="700" font-size="19" transform="translate(1033.28 541)">Opportunisti<tspan font-size="19" x="113.667" y="0">c</tspan><tspan font-size="19" x="129.333" y="0">Route</tspan></text><path d="M0.000462112-1.33333 48.768-1.31643 48.7671 1.35024-0.000462112 1.33333ZM47.4356-3.98356 55.4342 0.0192126 47.4328 4.01644Z" fill="#70AD47" transform="matrix(1 0 0 -1 969.5 536.519)"/><rect x="975.5" y="560.5" width="36" height="34" stroke="#FF0000" stroke-width="2.66667" stroke-linejoin="round" stroke-miterlimit="10" fill="none"/><text font-family="Yu Gothic,Yu Gothic_MSFontService,sans-serif" font-weight="700" font-size="19" transform="translate(1033.28 585)">Opportunisti<tspan font-size="19" x="113.667" y="0">c</tspan><tspan font-size="19" x="129.333" y="0">Relay</tspan></text><path d="M0 0 50.6862 0.000104987" stroke="#767171" stroke-width="3" stroke-miterlimit="8" stroke-dasharray="3 3" fill="none" fill-rule="evenodd" transform="matrix(-1 0 0 1 1019.19 621.5)"/><text font-family="Yu Gothic,Yu Gothic_MSFontService,sans-serif" font-weight="700" font-size="19" transform="translate(1034.13 628)">Wireless<tspan font-size="19" x="82.3333" y="0">Lin</tspan>k<tspan font-size="19" x="0" y="-127">Gegraphic</tspan><tspan font-size="19" x="98.3333" y="-127">Route</tspan></text><path d="M0.000462112-1.33333 48.768-1.31643 48.7671 1.35024-0.000462112 1.33333ZM47.4356-3.98356 55.4342 0.0192126 47.4328 4.01644Z" fill="#2E75B6" transform="matrix(1 0 0 -1 970.5 496.519)"/><text font-family="Yu Gothic,Yu Gothic_MSFontService,sans-serif" font-weight="700" font-size="19" transform="translate(1034.13 663)">Source<tspan font-size="19" x="68.8333" y="0">Node</tspan><tspan font-size="19" x="0.843384" y="37">Destination</tspan><tspan font-size="19" x="111.343" y="37">Nod</tspan>e</text><path d="M981.5 654.5C981.5 645.111 989.111 637.5 998.5 637.5 1007.89 637.5 1015.5 645.111 1015.5 654.5 1015.5 663.889 1007.89 671.5 998.5 671.5 989.111 671.5 981.5 663.889 981.5 654.5Z" stroke="#000000" stroke-width="1.33333" stroke-miterlimit="8" fill="#FFFFFF" fill-rule="evenodd"/><text font-family="Cambria Math,Cambria Math_MSFontService,sans-serif" font-weight="400" font-size="19" transform="translate(984.099 660)">ğ‘µ<tspan font-size="14" x="14.1667" y="4">ğ’”</tspan></text><path d="M981.5 694.5C981.5 685.111 989.111 677.5 998.5 677.5 1007.89 677.5 1015.5 685.111 1015.5 694.5 1015.5 703.889 1007.89 711.5 998.5 711.5 989.111 711.5 981.5 703.889 981.5 694.5Z" stroke="#000000" stroke-width="1.33333" stroke-miterlimit="8" fill="#FFFFFF" fill-rule="evenodd"/><text font-family="Cambria Math,Cambria Math_MSFontService,sans-serif" font-weight="400" font-size="19" transform="translate(983.31 700)">ğ‘µ<tspan font-size="14" x="14.1667" y="4">ğ’…</tspan></text></g></svg>