<svg width="477" height="313" xmlns="http://www.w3.org/2000/svg" xmlns:xlink="http://www.w3.org/1999/xlink" overflow="hidden"><defs><clipPath id="clip0"><rect x="617" y="56" width="477" height="313"/></clipPath><clipPath id="clip1"><rect x="617" y="56" width="476" height="311"/></clipPath><clipPath id="clip2"><rect x="617" y="56" width="476" height="311"/></clipPath><clipPath id="clip3"><rect x="692" y="73" width="388" height="205"/></clipPath><clipPath id="clip4"><rect x="617" y="56" width="476" height="311"/></clipPath><clipPath id="clip5"><rect x="692" y="73" width="388" height="205"/></clipPath><clipPath id="clip6"><rect x="617" y="56" width="476" height="311"/></clipPath><clipPath id="clip7"><rect x="617" y="56" width="476" height="311"/></clipPath><clipPath id="clip8"><rect x="617" y="56" width="476" height="311"/></clipPath><clipPath id="clip9"><rect x="617" y="56" width="476" height="311"/></clipPath><clipPath id="clip10"><rect x="617" y="56" width="476" height="311"/></clipPath><clipPath id="clip11"><rect x="617" y="56" width="476" height="311"/></clipPath><clipPath id="clip12"><rect x="617" y="56" width="476" height="311"/></clipPath><clipPath id="clip13"><rect x="617" y="56" width="476" height="311"/></clipPath><clipPath id="clip14"><rect x="617" y="56" width="476" height="311"/></clipPath><clipPath id="clip15"><rect x="617" y="56" width="476" height="311"/></clipPath><clipPath id="clip16"><rect x="617" y="56" width="476" height="311"/></clipPath><clipPath id="clip17"><rect x="617" y="56" width="476" height="311"/></clipPath><clipPath id="clip18"><rect x="617" y="56" width="476" height="311"/></clipPath><clipPath id="clip19"><rect x="617" y="56" width="476" height="311"/></clipPath><clipPath id="clip20"><rect x="617" y="56" width="476" height="311"/></clipPath><clipPath id="clip21"><rect x="617" y="56" width="476" height="311"/></clipPath><clipPath id="clip22"><rect x="617" y="56" width="476" height="311"/></clipPath><clipPath id="clip23"><rect x="617" y="56" width="476" height="311"/></clipPath><clipPath id="clip24"><rect x="617" y="56" width="476" height="311"/></clipPath><clipPath id="clip25"><rect x="617" y="56" width="476" height="311"/></clipPath></defs><g clip-path="url(#clip0)" transform="translate(-617 -56)"><rect x="617" y="56" width="477" height="312" fill="#FFFFFF"/><g clip-path="url(#clip1)"><path d="M692.5 250.5 1079.5 250.5M692.5 223.5 1079.5 223.5M692.5 196.5 1079.5 196.5M692.5 168.5 1079.5 168.5M692.5 141.5 1079.5 141.5M692.5 114.5 1079.5 114.5M692.5 86.5001 1079.5 86.5001" stroke="#D9D9D9" stroke-linejoin="round" stroke-miterlimit="10" fill="none"/></g><g clip-path="url(#clip2)"><path d="M692.5 277.5 1079.5 277.5" stroke="#D9D9D9" stroke-linejoin="round" stroke-miterlimit="10" fill="none" fill-rule="evenodd"/></g><g clip-path="url(#clip3)"><path d="M756.5 93.5001 885.5 204.5 1014.5 227.5" stroke="#ED7D31" stroke-width="3" stroke-linecap="round" stroke-linejoin="round" stroke-miterlimit="10" stroke-opacity="0.941176" fill="none"/></g><g clip-path="url(#clip4)"><path d="M756.656 90.2915 759.989 93.6249 756.656 96.9582 753.323 93.6249Z" stroke="#ED7D31" stroke-linejoin="round" stroke-miterlimit="10" fill="#ED7D31"/><path d="M885.656 201.125 888.989 204.458 885.656 207.792 882.323 204.458Z" stroke="#ED7D31" stroke-linejoin="round" stroke-miterlimit="10" fill="#ED7D31"/><path d="M1014.66 224.125 1017.99 227.458 1014.66 230.792 1011.32 227.458Z" stroke="#ED7D31" stroke-linejoin="round" stroke-miterlimit="10" fill="#ED7D31"/></g><g clip-path="url(#clip5)"><path d="M756.5 115.5 885.5 207.5 1014.5 228.5" stroke="#4472C4" stroke-width="3" stroke-linecap="round" stroke-linejoin="round" stroke-miterlimit="10" fill="none"/></g><g clip-path="url(#clip6)"><path d="M756.656 111.791 759.989 118.458 753.323 118.458Z" stroke="#4472C4" stroke-linejoin="round" stroke-miterlimit="10" fill="#4472C4"/><path d="M885.656 204.458 888.989 211.125 882.323 211.125Z" stroke="#4472C4" stroke-linejoin="round" stroke-miterlimit="10" fill="#4472C4"/><path d="M1014.66 225.125 1017.99 231.792 1011.32 231.792Z" stroke="#4472C4" stroke-linejoin="round" stroke-miterlimit="10" fill="#4472C4"/></g><g clip-path="url(#clip7)"><text fill="#595959" font-family="Calibri,Calibri_MSFontService,sans-serif" font-weight="700" font-size="15" transform="translate(671.093 282)">2</text></g><g clip-path="url(#clip8)"><text fill="#595959" font-family="Calibri,Calibri_MSFontService,sans-serif" font-weight="700" font-size="15" transform="translate(659.739 255)">2.2</text></g><g clip-path="url(#clip9)"><text fill="#595959" font-family="Calibri,Calibri_MSFontService,sans-serif" font-weight="700" font-size="15" transform="translate(659.739 228)">2.4</text></g><g clip-path="url(#clip10)"><text fill="#595959" font-family="Calibri,Calibri_MSFontService,sans-serif" font-weight="700" font-size="15" transform="translate(659.739 200)">2.6</text></g><g clip-path="url(#clip11)"><text fill="#595959" font-family="Calibri,Calibri_MSFontService,sans-serif" font-weight="700" font-size="15" transform="translate(659.739 173)">2.8</text></g><g clip-path="url(#clip12)"><text fill="#595959" font-family="Calibri,Calibri_MSFontService,sans-serif" font-weight="700" font-size="15" transform="translate(671.093 146)">3</text></g><g clip-path="url(#clip13)"><text fill="#595959" font-family="Calibri,Calibri_MSFontService,sans-serif" font-weight="700" font-size="15" transform="translate(659.739 119)">3.2</text></g><g clip-path="url(#clip14)"><text fill="#595959" font-family="Calibri,Calibri_MSFontService,sans-serif" font-weight="700" font-size="15" transform="translate(659.739 91)">3.4</text></g><g clip-path="url(#clip15)"><text fill="#595959" font-family="Calibri,Calibri_MSFontService,sans-serif" font-weight="700" font-size="15" transform="translate(745.492 301)">200</text></g><g clip-path="url(#clip16)"><text fill="#595959" font-family="Calibri,Calibri_MSFontService,sans-serif" font-weight="700" font-size="15" transform="translate(874.506 301)">300</text></g><g clip-path="url(#clip17)"><text fill="#595959" font-family="Calibri,Calibri_MSFontService,sans-serif" font-weight="700" font-size="15" transform="translate(1003.52 301)">400</text></g><g clip-path="url(#clip18)"><text fill="#595959" font-family="Yu Gothic,Yu Gothic_MSFontService,sans-serif" font-weight="700" font-size="13" transform="matrix(6.12323e-17 -1 1 6.12323e-17 649.426 222)">オーバーヘッド</text></g><g clip-path="url(#clip19)"><text fill="#595959" font-family="Yu Gothic,Yu Gothic_MSFontService,sans-serif" font-weight="700" font-size="16" transform="translate(847.308 318)">ノード数</text></g><g clip-path="url(#clip20)"><path d="M782.5 346.5 807.5 346.5" stroke="#ED7D31" stroke-width="3" stroke-linecap="round" stroke-linejoin="round" stroke-miterlimit="10" stroke-opacity="0.941176" fill="none" fill-rule="evenodd"/></g><g clip-path="url(#clip21)"><path d="M795 343.5 798.333 346.833 795 350.167 791.667 346.833Z" stroke="#ED7D31" stroke-linejoin="round" stroke-miterlimit="10" fill="#ED7D31"/></g><g clip-path="url(#clip22)"><text fill="#595959" font-family="Calibri,Calibri_MSFontService,sans-serif" font-weight="700" font-size="15" transform="translate(810.585 351)">GSIGO</text></g><g clip-path="url(#clip23)"><path d="M863.5 346.5 889.5 346.5" stroke="#4472C4" stroke-width="3" stroke-linecap="round" stroke-linejoin="round" stroke-miterlimit="10" fill="none" fill-rule="evenodd"/></g><g clip-path="url(#clip24)"><path d="M876.167 343.5 879.5 350.167 872.833 350.167Z" stroke="#4472C4" stroke-linejoin="round" stroke-miterlimit="10" fill="#4472C4"/></g><g clip-path="url(#clip25)"><text fill="#595959" font-family="Calibri,Calibri_MSFontService,sans-serif" font-weight="700" font-size="15" transform="translate(891.725 351)">GLSGO</text></g></g></svg>