<svg width="483" height="309" xmlns="http://www.w3.org/2000/svg" xmlns:xlink="http://www.w3.org/1999/xlink" overflow="hidden"><defs><clipPath id="clip0"><rect x="59" y="367" width="483" height="309"/></clipPath><clipPath id="clip1"><rect x="59" y="367" width="482" height="307"/></clipPath><clipPath id="clip2"><rect x="59" y="367" width="482" height="307"/></clipPath><clipPath id="clip3"><rect x="131" y="384" width="396" height="199"/></clipPath><clipPath id="clip4"><rect x="59" y="367" width="482" height="307"/></clipPath><clipPath id="clip5"><rect x="131" y="384" width="396" height="199"/></clipPath><clipPath id="clip6"><rect x="59" y="367" width="482" height="307"/></clipPath><clipPath id="clip7"><rect x="59" y="367" width="482" height="307"/></clipPath><clipPath id="clip8"><rect x="59" y="367" width="482" height="307"/></clipPath><clipPath id="clip9"><rect x="59" y="367" width="482" height="307"/></clipPath><clipPath id="clip10"><rect x="59" y="367" width="482" height="307"/></clipPath><clipPath id="clip11"><rect x="59" y="367" width="482" height="307"/></clipPath><clipPath id="clip12"><rect x="59" y="367" width="482" height="307"/></clipPath><clipPath id="clip13"><rect x="59" y="367" width="482" height="307"/></clipPath><clipPath id="clip14"><rect x="59" y="367" width="482" height="307"/></clipPath><clipPath id="clip15"><rect x="59" y="367" width="482" height="307"/></clipPath><clipPath id="clip16"><rect x="59" y="367" width="482" height="307"/></clipPath><clipPath id="clip17"><rect x="59" y="367" width="482" height="307"/></clipPath><clipPath id="clip18"><rect x="59" y="367" width="482" height="307"/></clipPath><clipPath id="clip19"><rect x="59" y="367" width="482" height="307"/></clipPath><clipPath id="clip20"><rect x="59" y="367" width="482" height="307"/></clipPath><clipPath id="clip21"><rect x="59" y="367" width="482" height="307"/></clipPath><clipPath id="clip22"><rect x="59" y="367" width="482" height="307"/></clipPath><clipPath id="clip23"><rect x="59" y="367" width="482" height="307"/></clipPath><clipPath id="clip24"><rect x="59" y="367" width="482" height="307"/></clipPath><clipPath id="clip25"><rect x="59" y="367" width="482" height="307"/></clipPath><clipPath id="clip26"><rect x="59" y="367" width="482" height="307"/></clipPath><clipPath id="clip27"><rect x="59" y="367" width="482" height="307"/></clipPath></defs><g clip-path="url(#clip0)" transform="translate(-59 -367)"><rect x="60" y="368" width="481" height="307" fill="#FFFFFF"/><g clip-path="url(#clip1)"><path d="M131.5 557.5 526.5 557.5M131.5 532.5 526.5 532.5M131.5 507.5 526.5 507.5M131.5 483.5 526.5 483.5M131.5 458.5 526.5 458.5M131.5 433.5 526.5 433.5M131.5 409.5 526.5 409.5M131.5 384.5 526.5 384.5" stroke="#D9D9D9" stroke-linejoin="round" stroke-miterlimit="10" fill="none"/></g><g clip-path="url(#clip2)"><path d="M131.5 582.5 526.5 582.5" stroke="#D9D9D9" stroke-linejoin="round" stroke-miterlimit="10" fill="none" fill-rule="evenodd"/></g><g clip-path="url(#clip3)"><path d="M197.5 457.5 328.5 537.5 460.5 529.5" stroke="#ED7D31" stroke-width="3" stroke-linecap="round" stroke-linejoin="round" stroke-miterlimit="10" stroke-opacity="0.941176" fill="none"/></g><g clip-path="url(#clip4)"><path d="M197.394 454.091 200.727 457.424 197.394 460.757 194.061 457.424Z" stroke="#ED7D31" stroke-linejoin="round" stroke-miterlimit="10" fill="#ED7D31"/><path d="M329.061 534.258 332.394 537.591 329.061 540.924 325.727 537.591Z" stroke="#ED7D31" stroke-linejoin="round" stroke-miterlimit="10" fill="#ED7D31"/><path d="M460.727 526.091 464.061 529.424 460.727 532.758 457.394 529.424Z" stroke="#ED7D31" stroke-linejoin="round" stroke-miterlimit="10" fill="#ED7D31"/></g><g clip-path="url(#clip5)"><path d="M197.5 405.5 328.5 495.5 460.5 493.5" stroke="#4472C4" stroke-width="3" stroke-linecap="round" stroke-linejoin="round" stroke-miterlimit="10" fill="none"/></g><g clip-path="url(#clip6)"><path d="M197.394 402.091 200.727 408.757 194.061 408.757Z" stroke="#4472C4" stroke-linejoin="round" stroke-miterlimit="10" fill="#4472C4"/><path d="M329.061 492.258 332.394 498.924 325.727 498.924Z" stroke="#4472C4" stroke-linejoin="round" stroke-miterlimit="10" fill="#4472C4"/><path d="M460.727 490.091 464.061 496.757 457.394 496.757Z" stroke="#4472C4" stroke-linejoin="round" stroke-miterlimit="10" fill="#4472C4"/></g><g clip-path="url(#clip7)"><text fill="#595959" font-family="Calibri,Calibri_MSFontService,sans-serif" font-weight="700" font-size="15" transform="translate(102.929 586)">45</text></g><g clip-path="url(#clip8)"><text fill="#595959" font-family="Calibri,Calibri_MSFontService,sans-serif" font-weight="700" font-size="15" transform="translate(102.929 562)">50</text></g><g clip-path="url(#clip9)"><text fill="#595959" font-family="Calibri,Calibri_MSFontService,sans-serif" font-weight="700" font-size="15" transform="translate(102.929 537)">55</text></g><g clip-path="url(#clip10)"><text fill="#595959" font-family="Calibri,Calibri_MSFontService,sans-serif" font-weight="700" font-size="15" transform="translate(102.929 512)">60</text></g><g clip-path="url(#clip11)"><text fill="#595959" font-family="Calibri,Calibri_MSFontService,sans-serif" font-weight="700" font-size="15" transform="translate(102.929 488)">65</text></g><g clip-path="url(#clip12)"><text fill="#595959" font-family="Calibri,Calibri_MSFontService,sans-serif" font-weight="700" font-size="15" transform="translate(102.929 463)">70</text></g><g clip-path="url(#clip13)"><text fill="#595959" font-family="Calibri,Calibri_MSFontService,sans-serif" font-weight="700" font-size="15" transform="translate(102.929 438)">75</text></g><g clip-path="url(#clip14)"><text fill="#595959" font-family="Calibri,Calibri_MSFontService,sans-serif" font-weight="700" font-size="15" transform="translate(102.929 413)">80</text></g><g clip-path="url(#clip15)"><text fill="#595959" font-family="Calibri,Calibri_MSFontService,sans-serif" font-weight="700" font-size="15" transform="translate(102.929 389)">85</text></g><g clip-path="url(#clip16)"><text fill="#595959" font-family="Calibri,Calibri_MSFontService,sans-serif" font-weight="700" font-size="15" transform="translate(189.822 605)">10</text></g><g clip-path="url(#clip17)"><text fill="#595959" font-family="Calibri,Calibri_MSFontService,sans-serif" font-weight="700" font-size="15" transform="translate(321.522 605)">20</text></g><g clip-path="url(#clip18)"><text fill="#595959" font-family="Calibri,Calibri_MSFontService,sans-serif" font-weight="700" font-size="15" transform="translate(453.222 605)">30</text></g><g clip-path="url(#clip19)"><text fill="#595959" font-family="Yu Gothic,Yu Gothic_MSFontService,sans-serif" font-weight="700" font-size="13" transform="matrix(6.12323e-17 -1 1 6.12323e-17 92.6161 539)">パケット到達率</text></g><g clip-path="url(#clip20)"><text fill="#595959" font-family="Calibri,Calibri_MSFontService,sans-serif" font-weight="700" font-size="13" transform="matrix(6.12323e-17 -1 1 6.12323e-17 92.6161 446)">(%)</text></g><g clip-path="url(#clip21)"><text fill="#595959" font-family="Yu Gothic,Yu Gothic_MSFontService,sans-serif" font-weight="700" font-size="16" transform="translate(232.955 632)">シャドウイングパラメータ</text></g><g clip-path="url(#clip22)"><path d="M227.5 654.5 252.5 654.5" stroke="#ED7D31" stroke-width="3" stroke-linecap="round" stroke-linejoin="round" stroke-miterlimit="10" stroke-opacity="0.941176" fill="none" fill-rule="evenodd"/></g><g clip-path="url(#clip23)"><path d="M240 650.667 243.333 654 240 657.333 236.667 654Z" stroke="#ED7D31" stroke-linejoin="round" stroke-miterlimit="10" fill="#ED7D31"/></g><g clip-path="url(#clip24)"><text fill="#595959" font-family="Calibri,Calibri_MSFontService,sans-serif" font-weight="700" font-size="15" transform="translate(255.529 658)">GSIGO</text></g><g clip-path="url(#clip25)"><path d="M308.5 654.5 333.5 654.5" stroke="#4472C4" stroke-width="3" stroke-linecap="round" stroke-linejoin="round" stroke-miterlimit="10" fill="none" fill-rule="evenodd"/></g><g clip-path="url(#clip26)"><path d="M321.167 650.667 324.5 657.333 317.833 657.333Z" stroke="#4472C4" stroke-linejoin="round" stroke-miterlimit="10" fill="#4472C4"/></g><g clip-path="url(#clip27)"><text fill="#595959" font-family="Calibri,Calibri_MSFontService,sans-serif" font-weight="700" font-size="15" transform="translate(336.67 658)">GLSGO</text></g></g></svg>