<svg width="932" height="467" xmlns="http://www.w3.org/2000/svg" xmlns:xlink="http://www.w3.org/1999/xlink" overflow="hidden"><defs><clipPath id="clip0"><rect x="178" y="110" width="932" height="467"/></clipPath></defs><g clip-path="url(#clip0)" transform="translate(-178 -110)"><rect x="619.5" y="164.5" width="331" height="132" stroke="#787878" stroke-width="1.33333" stroke-miterlimit="8" fill="#A5A5A5"/><rect x="272.5" y="164.5" width="258" height="132" stroke="#787878" stroke-width="1.33333" stroke-miterlimit="8" fill="#A5A5A5"/><rect x="618.5" y="372.5" width="332" height="46" stroke="#787878" stroke-width="1.33333" stroke-miterlimit="8" fill="#A5A5A5"/><rect x="271.5" y="369.5" width="256" height="46" stroke="#787878" stroke-width="1.33333" stroke-miterlimit="8" fill="#A5A5A5"/><path d="M0 0 752.167 1.35549" stroke="#A6A6A6" stroke-width="2.33333" stroke-miterlimit="8" stroke-dasharray="18.6667 7" fill="none" fill-rule="evenodd" transform="matrix(1 0 0 -1 198 338.355)"/><path d="M0 0 759.44 0.105407" stroke="#A6A6A6" stroke-width="2.33333" stroke-miterlimit="8" stroke-dasharray="18.6667 7" fill="none" fill-rule="evenodd" transform="matrix(1 0 0 -1 191 129.105)"/><path d="M0 0 1.36556 311.773" stroke="#A6A6A6" stroke-width="2.33333" stroke-miterlimit="8" stroke-dasharray="18.6667 7" fill="none" fill-rule="evenodd" transform="matrix(-1 0 0 1 575.366 111)"/><text font-family="Yu Gothic,Yu Gothic_MSFontService,sans-serif" font-weight="700" font-size="24" transform="translate(832.636 159)">D</text><path d="M800 148C800 140.82 806.044 135 813.5 135 820.956 135 827 140.82 827 148 827 155.18 820.956 161 813.5 161 806.044 161 800 155.18 800 148Z" stroke="#000000" stroke-width="2" stroke-miterlimit="8" fill="#FF0000" fill-rule="evenodd"/><text font-family="Yu Gothic,Yu Gothic_MSFontService,sans-serif" font-weight="700" font-size="24" transform="translate(819.66 354)">S</text><path d="M799 319.5C799 312.044 804.82 306 812 306 819.18 306 825 312.044 825 319.5 825 326.956 819.18 333 812 333 804.82 333 799 326.956 799 319.5Z" stroke="#000000" stroke-width="2" stroke-miterlimit="8" fill="#FF0000" fill-rule="evenodd"/><path d="M539 203C539 195.82 544.82 190 552 190 559.18 190 565 195.82 565 203 565 210.18 559.18 216 552 216 544.82 216 539 210.18 539 203Z" stroke="#000000" stroke-width="2" stroke-miterlimit="8" fill="#FFFFFF" fill-rule="evenodd"/><path d="M590 196C590 188.82 595.82 183 603 183 610.18 183 616 188.82 616 196 616 203.18 610.18 209 603 209 595.82 209 590 203.18 590 196Z" stroke="#000000" stroke-width="2" stroke-miterlimit="8" fill="#FF0000" fill-rule="evenodd"/><path d="M907 319.5C907 312.044 912.82 306 920 306 927.18 306 933 312.044 933 319.5 933 326.956 927.18 333 920 333 912.82 333 907 326.956 907 319.5Z" stroke="#000000" stroke-width="2" stroke-miterlimit="8" fill="#FFFFFF" fill-rule="evenodd"/><path d="M688 320.5C688 313.044 694.044 307 701.5 307 708.956 307 715 313.044 715 320.5 715 327.956 708.956 334 701.5 334 694.044 334 688 327.956 688 320.5Z" stroke="#000000" stroke-width="2" stroke-miterlimit="8" fill="#FF0000" fill-rule="evenodd"/><path d="M0.00683583-1.16665 7.00672-1.12563 6.99304 1.20766-0.00683583 1.16665ZM9.34001-1.11196 16.3399-1.07094 16.3262 1.26235 9.32634 1.22133ZM18.6732-1.05727 25.6731-1.01626 25.6594 1.31703 18.6595 1.27602ZM28.0064-1.00259 35.0062-0.961572 34.9926 1.37172 27.9927 1.33071ZM37.3395-0.9479 44.3394-0.906885 44.3257 1.42641 37.3259 1.38539ZM46.6727-0.893214 53.6726-0.852199 53.6589 1.48109 46.659 1.44008ZM56.0059-0.838527 63.0058-0.797512 62.9921 1.53578 55.9922 1.49477ZM65.3391-0.78384 72.3389-0.742825 72.3253 1.59047 65.3254 1.54945ZM74.6722-0.729154 74.9018-0.727808 74.8882 1.60548 74.6585 1.60414ZM73.5852-3.56891 81.5616 0.4779 73.5383 4.43096Z" transform="matrix(-1 0 0 1 906.562 319)"/><path d="M343.5 397.5 439.167 397.5 575.268 359.55 480.167 397.5 507.5 397.5 507.5 408.333 507.5 408.333 507.5 424.583 507.5 462.5 480.167 462.5 439.167 462.5 439.167 462.5 343.5 462.5 343.5 424.583 343.5 408.333 343.5 408.333Z" stroke="#000000" stroke-width="1.33333" stroke-miterlimit="8" fill="#C00000" fill-rule="evenodd"/><text fill="#FFFFFF" font-family="Yu Gothic,Yu Gothic_MSFontService,sans-serif" font-weight="700" font-size="15" transform="translate(359.146 426)">最小角度法を用いて<tspan font-size="15" x="7.33331" y="17">中継ノードを決定</tspan></text><path d="M534 259.5C534 252.044 540.044 246 547.5 246 554.956 246 561 252.044 561 259.5 561 266.956 554.956 273 547.5 273 540.044 273 534 266.956 534 259.5Z" stroke="#000000" stroke-width="2" stroke-miterlimit="8" fill="#FF0000" fill-rule="evenodd"/><path d="M579 354.5C579 347.044 584.82 341 592 341 599.18 341 605 347.044 605 354.5 605 361.956 599.18 368 592 368 584.82 368 579 361.956 579 354.5Z" stroke="#000000" stroke-width="2" stroke-miterlimit="8" fill="#FF0000" fill-rule="evenodd"/><text font-family="Cambria Math,Cambria Math_MSFontService,sans-serif" font-weight="400" font-size="24" transform="translate(562.534 389)">𝑪<tspan font-size="18" x="15" y="5">𝟏</tspan></text><path d="M825.5 476.167 868.349 476.167 868.349 478.833 825.5 478.833ZM867.016 473.5 875.016 477.5 867.016 481.5Z" fill="#ED7D31"/><text font-family="Yu Gothic,Yu Gothic_MSFontService,sans-serif" font-weight="700" font-size="19" transform="translate(885.892 471)">交差点ノードが存在する<tspan font-size="19" x="0" y="23">場合のルート</tspan></text><path d="M747 354.5C747 347.044 752.82 341 760 341 767.18 341 773 347.044 773 354.5 773 361.956 767.18 368 760 368 752.82 368 747 361.956 747 354.5Z" stroke="#000000" stroke-width="2" stroke-miterlimit="8" fill="#FFFFFF" fill-rule="evenodd"/><path d="M644 355C644 347.82 649.82 342 657 342 664.18 342 670 347.82 670 355 670 362.18 664.18 368 657 368 649.82 368 644 362.18 644 355Z" stroke="#000000" stroke-width="2" stroke-miterlimit="8" fill="#FFFFFF" fill-rule="evenodd"/><path d="M490 319.5C490 312.044 495.82 306 503 306 510.18 306 516 312.044 516 319.5 516 326.956 510.18 333 503 333 495.82 333 490 326.956 490 319.5Z" stroke="#000000" stroke-width="2" stroke-miterlimit="8" fill="#FFFFFF" fill-rule="evenodd"/><path d="M586.5 408.5 689.75 408.5 751.99 324.135 734 408.5 763.5 408.5 763.5 419 763.5 419 763.5 434.75 763.5 471.5 734 471.5 689.75 471.5 689.75 471.5 586.5 471.5 586.5 434.75 586.5 419 586.5 419Z" stroke="#000000" stroke-width="1.33333" stroke-miterlimit="8" fill="#C00000" fill-rule="evenodd"/><text fill="#FFFFFF" font-family="Yu Gothic,Yu Gothic_MSFontService,sans-serif" font-weight="700" font-size="15" transform="translate(615.558 436)">同一<tspan font-size="15" x="29.3333" y="0">の道路内では</tspan><tspan font-size="15" x="-4.75336" y="17">Greedy </tspan><tspan font-size="15" x="50.58" y="17">fowarding</tspan></text><path d="M0 0 1.48168 145.13" stroke="#000000" stroke-width="2.33333" stroke-miterlimit="8" stroke-dasharray="18.6667 7" fill="none" fill-rule="evenodd" transform="matrix(-1 0 0 1 813.482 161)"/><text font-family="Yu Gothic,Yu Gothic_MSFontService,sans-serif" font-weight="700" font-size="24" transform="translate(551.674 295)">A<tspan font-size="24" x="21.2054" y="-64">B</tspan></text><path d="M5.41594e-05-1.33333 76.0418-1.33024 76.0417 1.33642-5.41594e-05 1.33333ZM74.7086-3.99697 82.7085 0.00335958 74.7083 4.00303Z" fill="#ED7D31" transform="matrix(-1 0 0 1 798.208 320.5)"/><path d="M0.484004-1.24238 78.9638 29.3315 77.9958 31.8163-0.484004 1.24238ZM78.6895 26.3627 84.6918 32.9939 75.7854 33.817Z" fill="#ED7D31" transform="matrix(-1 0 0 1 690.192 321.5)"/><text font-family="Yu Gothic,Yu Gothic_MSFontService,sans-serif" font-weight="700" font-size="19" transform="translate(885.892 538)">交差点ノードが存在しな<tspan font-size="19" x="0" y="23">い場合のルート</tspan></text><path d="M825.5 543.167 868.349 543.167 868.349 545.833 825.5 545.833ZM867.016 540.5 875.016 544.5 867.016 548.5Z" fill="#4472C4"/><path d="M814.647 226.183C862.594 229.302 898.935 270.699 895.817 318.647 895.758 319.543 895.686 320.438 895.6 321.332" stroke="#000000" stroke-width="2.33333" stroke-miterlimit="8" fill="none" fill-rule="evenodd"/><path d="M0 0 1.36556 311.773" stroke="#A6A6A6" stroke-width="2.33333" stroke-miterlimit="8" stroke-dasharray="18.6667 7" fill="none" fill-rule="evenodd" transform="matrix(-1 0 0 1 231.366 123)"/><path d="M0.00766613-1.33331 155.158-0.441248 155.142 2.22537-0.00766613 1.33331ZM153.839-3.11554 161.816 0.930394 153.793 4.88433Z" fill="#4472C4" transform="matrix(-1 0 0 1 678.316 319.5)"/><path d="M406 356C406 348.82 411.82 343 419 343 426.18 343 432 348.82 432 356 432 363.18 426.18 369 419 369 411.82 369 406 363.18 406 356Z" stroke="#000000" stroke-width="2" stroke-miterlimit="8" fill="#FFFFFF" fill-rule="evenodd"/><path d="M333 319.5C333 312.044 338.596 306 345.5 306 352.404 306 358 312.044 358 319.5 358 326.956 352.404 333 345.5 333 338.596 333 333 326.956 333 319.5Z" stroke="#000000" stroke-width="2" stroke-miterlimit="8" fill="#FFFFFF" fill-rule="evenodd"/><path d="M487.019 323.993 365.143 321.945 365.188 319.279 487.064 321.327ZM366.432 324.634 358.5 320.5 366.566 316.635Z" fill="#4472C4"/><path d="M330.979 321.935 193.156 320.884 193.177 318.218 331 319.269ZM194.469 323.561 186.5 319.5 194.53 315.561Z" fill="#4472C4"/><path d="M798.763 320.208 561 269" stroke="#000000" stroke-width="2" stroke-miterlimit="8" fill="none" fill-rule="evenodd"/><path d="M801.999 309.87 616 200" stroke="#000000" stroke-width="2" stroke-miterlimit="8" fill="none" fill-rule="evenodd"/><path d="M737.738 301.328 737.292 297.364 737.229 291.716 737.736 286.259 738.751 280.868 740.273 275.668 742.24 270.655 744.716 265.893 747.636 261.386 750.999 257.198 754.74 253.331 758.801 249.841 763.244 246.731 768 244.068 773.076 241.783 778.409 240.069 783.998 238.862 791.542 238.165 799.026 238.482 806.45 239.751 808.559 240.436 808.045 242.021 805.993 241.355 806.11 241.384 798.797 240.134 798.902 240.145 791.527 239.833 791.639 239.83 784.202 240.517 784.301 240.502 778.801 241.69 778.88 241.668 773.63 243.356 773.717 243.322 768.717 245.572 768.782 245.54 764.095 248.165 764.165 248.12 759.79 251.183 759.856 251.132 755.856 254.57 755.911 254.517 752.224 258.329 752.275 258.272 748.962 262.397 749.012 262.328 746.137 266.766 746.177 266.697 743.739 271.384 743.776 271.304 741.838 276.242 741.862 276.172 740.362 281.297 740.381 281.217 739.381 286.529 739.392 286.452 738.892 291.827 738.896 291.741 738.958 297.303 738.953 297.219 739.394 301.142ZM743.072 293.101 738.75 302.879 732.367 294.304C732.092 293.935 732.168 293.413 732.537 293.138 732.907 292.863 733.429 292.94 733.703 293.309L739.234 300.738 737.804 300.898 741.548 292.427C741.734 292.006 742.226 291.816 742.647 292.002 743.068 292.188 743.258 292.68 743.072 293.101ZM808.302 241.229 807.001 236.601 813.375 242.875 804.531 244.21Z"/><path d="M707.235 253.772 707.653 248.791 708.894 242.261 710.719 236.041 713.128 230.132 716.071 224.457 719.586 219.153 723.532 214.264 727.928 209.719 732.733 205.709 737.908 202.098 743.432 199.007 749.241 196.425 755.328 194.413 761.671 193.035 768.227 192.216 774.966 192.141 783.806 193.071 792.436 195.12 800.632 198.374 803.705 200.084 802.894 201.54 799.869 199.856 799.967 199.903 791.877 196.691 791.992 196.728 783.473 194.705 783.579 194.723 774.839 193.804 774.936 193.808 768.292 193.882 768.386 193.875 761.914 194.684 761.988 194.672 755.725 196.032 755.809 196.009 749.803 197.995 749.88 197.965 744.144 200.514 744.212 200.48 738.758 203.532 738.828 203.488 733.716 207.055 733.773 207.012 729.03 210.971 729.095 210.91 724.756 215.396 724.805 215.34 720.907 220.17 720.953 220.107 717.485 225.34 717.53 225.264 714.625 230.865 714.657 230.796 712.279 236.631 712.307 236.551 710.505 242.692 710.524 242.613 709.298 249.06 709.31 248.974 708.896 253.912ZM714.066 246.738 707.927 255.49 703.331 245.839C703.133 245.423 703.309 244.926 703.725 244.728 704.14 244.53 704.638 244.706 704.836 245.122L708.818 253.484 707.383 253.364 712.702 245.781C712.966 245.404 713.486 245.313 713.863 245.578 714.239 245.842 714.331 246.362 714.066 246.738ZM803.3 200.812 802.915 196.02 807.96 203.406 799.024 203.01Z"/><path d="M1.32907-0.106587 11.4005 125.478 8.7424 125.691-1.32907 0.106587ZM13.9521 123.935 10.6044 132.229 5.97769 124.575Z" fill="#ED7D31" transform="matrix(1 0 0 -1 591.5 342.73)"/><text font-family="Yu Gothic,Yu Gothic_MSFontService,sans-serif" font-weight="700" font-size="21" transform="translate(651.565 200)">minanleB<tspan font-size="21" x="-13.7409" y="86">minanleA</tspan></text></g></svg>