<svg width="614" height="314" xmlns="http://www.w3.org/2000/svg" xmlns:xlink="http://www.w3.org/1999/xlink" overflow="hidden"><defs><clipPath id="clip0"><rect x="430" y="178" width="614" height="314"/></clipPath></defs><g clip-path="url(#clip0)" transform="translate(-430 -178)"><rect x="799.5" y="234.5" width="243" height="133" stroke="#787878" stroke-width="1.33333" stroke-miterlimit="8" fill="#A5A5A5"/><rect x="458.5" y="234.5" width="249" height="133" stroke="#787878" stroke-width="1.33333" stroke-miterlimit="8" fill="#A5A5A5"/><rect x="799.5" y="442.5" width="240" height="46" stroke="#787878" stroke-width="1.33333" stroke-miterlimit="8" fill="#A5A5A5"/><rect x="461.5" y="442.5" width="245" height="46" stroke="#787878" stroke-width="1.33333" stroke-miterlimit="8" fill="#A5A5A5"/><path d="M461 408 1042.03 408" stroke="#A6A6A6" stroke-width="2.33333" stroke-miterlimit="8" stroke-dasharray="18.6667 7" fill="none" fill-rule="evenodd"/><path d="M461 196 1042.03 197.752" stroke="#A6A6A6" stroke-width="2.33333" stroke-miterlimit="8" stroke-dasharray="18.6667 7" fill="none" fill-rule="evenodd"/><path d="M0 0 1.36556 311.773" stroke="#A6A6A6" stroke-width="2.33333" stroke-miterlimit="8" stroke-dasharray="18.6667 7" fill="none" fill-rule="evenodd" transform="matrix(-1 0 0 1 750.366 179)"/><text font-family="Yu Gothic,Yu Gothic_MSFontService,sans-serif" font-weight="700" font-size="24" transform="translate(906.742 224)">D</text><path d="M872 213.5C872 206.044 877.82 200 885 200 892.18 200 898 206.044 898 213.5 898 220.956 892.18 227 885 227 877.82 227 872 220.956 872 213.5Z" stroke="#000000" stroke-width="2" stroke-miterlimit="8" fill="#4472C4" fill-rule="evenodd"/><path d="M498 386.833 574.335 386.833 574.335 389.167 498 389.167ZM573.002 384 581.002 388 573.002 392Z"/><path d="M467 387.5C467 380.044 472.82 374 480 374 487.18 374 493 380.044 493 387.5 493 394.956 487.18 401 480 401 472.82 401 467 394.956 467 387.5Z" stroke="#000000" stroke-width="2" stroke-miterlimit="8" fill="#FF0000" fill-rule="evenodd"/><text font-family="Yu Gothic,Yu Gothic_MSFontService,sans-serif" font-weight="700" font-size="24" transform="translate(445.505 396)">S</text><path d="M590 388.5C590 381.044 595.82 375 603 375 610.18 375 616 381.044 616 388.5 616 395.956 610.18 402 603 402 595.82 402 590 395.956 590 388.5Z" stroke="#000000" stroke-width="2" stroke-miterlimit="8" fill="#FF0000" fill-rule="evenodd"/><path d="M557 426.5C557 419.044 562.82 413 570 413 577.18 413 583 419.044 583 426.5 583 433.956 577.18 440 570 440 562.82 440 557 433.956 557 426.5Z" stroke="#000000" stroke-width="2" stroke-miterlimit="8" fill="#FFFFFF" fill-rule="evenodd"/><path d="M678 389.5C678 382.044 683.82 376 691 376 698.18 376 704 382.044 704 389.5 704 396.956 698.18 403 691 403 683.82 403 678 396.956 678 389.5Z" stroke="#000000" stroke-width="2" stroke-miterlimit="8" fill="#FF0000" fill-rule="evenodd"/><path d="M647 427C647 419.82 652.82 414 660 414 667.18 414 673 419.82 673 427 673 434.18 667.18 440 660 440 652.82 440 647 434.18 647 427Z" stroke="#000000" stroke-width="2" stroke-miterlimit="8" fill="#FFFFFF" fill-rule="evenodd"/><path d="M773 425.5C773 418.044 778.82 412 786 412 793.18 412 799 418.044 799 425.5 799 432.956 793.18 439 786 439 778.82 439 773 432.956 773 425.5Z" stroke="#000000" stroke-width="2" stroke-miterlimit="8" fill="#FFFFFF" fill-rule="evenodd"/><path d="M884 388.5C884 381.044 889.82 375 897 375 904.18 375 910 381.044 910 388.5 910 395.956 904.18 402 897 402 889.82 402 884 395.956 884 388.5Z" stroke="#000000" stroke-width="2" stroke-miterlimit="8" fill="#FF0000" fill-rule="evenodd"/><path d="M718 300.5C718 293.044 723.82 287 731 287 738.18 287 744 293.044 744 300.5 744 307.956 738.18 314 731 314 723.82 314 718 307.956 718 300.5Z" stroke="#000000" stroke-width="2" stroke-miterlimit="8" fill="#FFFFFF" fill-rule="evenodd"/><path d="M762 247.5C762 240.044 767.82 234 775 234 782.18 234 788 240.044 788 247.5 788 254.956 782.18 261 775 261 767.82 261 762 254.956 762 247.5Z" stroke="#000000" stroke-width="2" stroke-miterlimit="8" fill="#FFFFFF" fill-rule="evenodd"/><path d="M979 387.5C979 380.044 984.82 374 992 374 999.18 374 1005 380.044 1005 387.5 1005 394.956 999.18 401 992 401 984.82 401 979 394.956 979 387.5Z" stroke="#000000" stroke-width="2" stroke-miterlimit="8" fill="#FFFFFF" fill-rule="evenodd"/><path d="M812 389C812 381.82 817.82 376 825 376 832.18 376 838 381.82 838 389 838 396.18 832.18 402 825 402 817.82 402 812 396.18 812 389Z" stroke="#000000" stroke-width="2" stroke-miterlimit="8" fill="#FF0000" fill-rule="evenodd"/><path d="M618 388.833 671.579 388.833 671.579 391.167 618 391.167ZM670.246 386 678.246 390 670.246 394Z"/><path d="M0.00691907-1.16665 101.182-0.566604 101.168 1.76669-0.00691907 1.16665ZM99.8654-3.4078 107.842 0.63958 99.818 4.59207Z" transform="matrix(1 0 0 -1 704 389.64)"/><path d="M838.013 387.833 879.298 388.275 879.273 390.609 837.987 390.167ZM877.995 385.428 885.952 389.513 877.909 393.427Z"/><path d="M900.5 420.5 921.833 420.5 909.093 401.593 953.833 420.5 1028.5 420.5 1028.5 428.833 1028.5 428.833 1028.5 441.333 1028.5 470.5 953.833 470.5 921.833 470.5 921.833 470.5 900.5 470.5 900.5 441.333 900.5 428.833 900.5 428.833Z" stroke="#000000" stroke-width="1.33333" stroke-miterlimit="8" fill="#C00000" fill-rule="evenodd"/><text fill="#FFFFFF" font-family="Yu Gothic,Yu Gothic_MSFontService,sans-serif" font-weight="700" font-size="15" transform="translate(911.437 441)">Local optimum <tspan font-size="15" x="6.83337" y="17">problem </tspan><tspan font-size="15" x="69.6667" y="17">発生</tspan></text></g></svg>