<svg width="1009" height="464" xmlns="http://www.w3.org/2000/svg" xmlns:xlink="http://www.w3.org/1999/xlink" overflow="hidden"><defs><clipPath id="clip0"><rect x="67" y="23" width="1009" height="464"/></clipPath></defs><g clip-path="url(#clip0)" transform="translate(-67 -23)"><path d="M830.514 376.167 872.982 376.61 872.954 379.277 830.486 378.833ZM871.676 373.93 879.634 378.013 871.593 381.93Z" fill="#4472C4"/><text font-family="Yu Gothic,Yu Gothic_MSFontService,sans-serif" font-weight="700" font-size="19" transform="translate(889.084 383)">Reachable Route</text><path d="M828.5 413.167 871.349 413.167 871.349 415.833 828.5 415.833ZM870.016 410.5 878.016 414.5 870.016 418.5Z" fill="#ED7D31"/><text font-family="Yu Gothic,Yu Gothic_MSFontService,sans-serif" font-weight="700" font-size="19" transform="translate(889.112 422)">Unreachable Route<tspan font-size="24" x="-42.1135" y="43">D</tspan><tspan font-size="19" x="2.90741" y="42">Destination Node</tspan></text><path d="M0 0 1.36556 311.773" stroke="#A6A6A6" stroke-width="2.33333" stroke-miterlimit="8" stroke-dasharray="18.6667 7" fill="none" fill-rule="evenodd" transform="matrix(-1 0 0 1 490.366 26)"/><rect x="267.5" y="80.5001" width="186" height="132" stroke="#787878" stroke-width="1.33333" stroke-miterlimit="8" fill="#A5A5A5"/><rect x="69.5001" y="80.5001" width="123" height="132" stroke="#787878" stroke-width="1.33333" stroke-miterlimit="8" fill="#A5A5A5"/><rect x="277.5" y="287.5" width="172" height="47" stroke="#787878" stroke-width="1.33333" stroke-miterlimit="8" fill="#A5A5A5"/><rect x="69.5001" y="287.5" width="123" height="47" stroke="#787878" stroke-width="1.33333" stroke-miterlimit="8" fill="#A5A5A5"/><path d="M0 0 438.733 3.17774" stroke="#A6A6A6" stroke-width="2.33333" stroke-miterlimit="8" stroke-dasharray="18.6667 7" fill="none" fill-rule="evenodd" transform="matrix(1 0 0 -1 69 256.178)"/><path d="M69 41 507.733 41.671" stroke="#A6A6A6" stroke-width="2.33333" stroke-miterlimit="8" stroke-dasharray="18.6667 7" fill="none" fill-rule="evenodd"/><path d="M0 0 1.36556 311.773" stroke="#A6A6A6" stroke-width="2.33333" stroke-miterlimit="8" stroke-dasharray="18.6667 7" fill="none" fill-rule="evenodd" transform="matrix(-1 0 0 1 228.366 24)"/><path d="M348 62C348 54.8203 353.82 49 361 49 368.18 49 374 54.8203 374 62 374 69.1797 368.18 75 361 75 353.82 75 348 69.1797 348 62Z" stroke="#000000" stroke-width="2" stroke-miterlimit="8" fill="#FF0000" fill-rule="evenodd"/><text font-family="Cambria Math,Cambria Math_MSFontService,sans-serif" font-weight="400" font-size="24" transform="translate(117.866 250)">洧놐</text><path d="M136 233C136 225.82 142.044 220 149.5 220 156.956 220 163 225.82 163 233 163 240.18 156.956 246 149.5 246 142.044 246 136 240.18 136 233Z" stroke="#000000" stroke-width="2" stroke-miterlimit="8" fill="#FF0000" fill-rule="evenodd"/><path d="M196 125.5C196 118.044 202.044 112 209.5 112 216.956 112 223 118.044 223 125.5 223 132.956 216.956 139 209.5 139 202.044 139 196 132.956 196 125.5Z" stroke="#000000" stroke-width="2" stroke-miterlimit="8" fill="#FFFFFF" fill-rule="evenodd"/><path d="M237 63C237 55.8203 243.044 50 250.5 50 257.956 50 264 55.8203 264 63 264 70.1797 257.956 76 250.5 76 243.044 76 237 70.1797 237 63Z" stroke="#000000" stroke-width="2" stroke-miterlimit="8" fill="#FF0000" fill-rule="evenodd"/><path d="M324 233.5C324 226.044 329.82 220 337 220 344.18 220 350 226.044 350 233.5 350 240.956 344.18 247 337 247 329.82 247 324 240.956 324 233.5Z" stroke="#000000" stroke-width="2" stroke-miterlimit="8" fill="#FF0000" fill-rule="evenodd"/><path d="M119.5 295.5 242 295.5 328.717 245.397 294.5 295.5 329.5 295.5 329.5 305.167 329.5 305.167 329.5 319.667 329.5 353.5 294.5 353.5 242 353.5 242 353.5 119.5 353.5 119.5 319.667 119.5 305.167 119.5 305.167Z" stroke="#000000" stroke-width="1.33333" stroke-miterlimit="8" fill="#C00000" fill-rule="evenodd"/><text fill="#FFFFFF" font-family="Yu Gothic,Yu Gothic_MSFontService,sans-serif" font-weight="700" font-size="15" transform="translate(139.53 312)">Local optimum problem <tspan font-size="15" x="77.08" y="17">or </tspan><tspan font-size="15" x="-7" y="35">Local</tspan><tspan font-size="15" x="35.8333" y="35">shadowing</tspan><tspan font-size="15" x="117" y="35">proble</tspan>m</text><path d="M236 148.5C236 141.044 241.82 135 249 135 256.18 135 262 141.044 262 148.5 262 155.956 256.18 162 249 162 241.82 162 236 155.956 236 148.5Z" stroke="#000000" stroke-width="2" stroke-miterlimit="8" fill="#FF0000" fill-rule="evenodd"/><path d="M228 232.5C228 225.044 233.82 219 241 219 248.18 219 254 225.044 254 232.5 254 239.956 248.18 246 241 246 233.82 246 228 239.956 228 232.5Z" stroke="#000000" stroke-width="2" stroke-miterlimit="8" fill="#FF0000" fill-rule="evenodd"/><text font-family="Cambria Math,Cambria Math_MSFontService,sans-serif" font-weight="400" font-size="24" transform="translate(258.356 252)">洧놓</text><path d="M428 270.5C428 263.044 433.82 257 441 257 448.18 257 454 263.044 454 270.5 454 277.956 448.18 284 441 284 433.82 284 428 277.956 428 270.5Z" stroke="#000000" stroke-width="2" stroke-miterlimit="8" fill="#FFFFFF" fill-rule="evenodd"/><path d="M335 274C335 266.82 340.82 261 348 261 355.18 261 361 266.82 361 274 361 281.18 355.18 287 348 287 340.82 287 335 281.18 335 274Z" stroke="#000000" stroke-width="2" stroke-miterlimit="8" fill="#FFFFFF" fill-rule="evenodd"/><path d="M164 268C164 260.82 169.82 255 177 255 184.18 255 190 260.82 190 268 190 275.18 184.18 281 177 281 169.82 281 164 275.18 164 268Z" stroke="#000000" stroke-width="2" stroke-miterlimit="8" fill="#FFFFFF" fill-rule="evenodd"/><path d="M497 65C497 57.8203 503.044 52 510.5 52 517.956 52 524 57.8203 524 65 524 72.1797 517.956 78 510.5 78 503.044 78 497 72.1797 497 65Z" stroke="#000000" stroke-width="2" stroke-miterlimit="8" fill="#FFFFFF" fill-rule="evenodd"/><text font-family="Cambria Math,Cambria Math_MSFontService,sans-serif" font-weight="400" font-size="24" transform="translate(358.694 249)">洧</text><path d="M459 156.5C459 149.044 465.044 143 472.5 143 479.956 143 486 149.044 486 156.5 486 163.956 479.956 170 472.5 170 465.044 170 459 163.956 459 156.5Z" stroke="#000000" stroke-width="2" stroke-miterlimit="8" fill="#FF0000" fill-rule="evenodd"/><path d="M498 229.5C498 222.044 503.82 216 511 216 518.18 216 524 222.044 524 229.5 524 236.956 518.18 243 511 243 503.82 243 498 236.956 498 229.5Z" stroke="#000000" stroke-width="2" stroke-miterlimit="8" fill="#FFFFFF" fill-rule="evenodd"/><text font-family="Cambria Math,Cambria Math_MSFontService,sans-serif" font-weight="400" font-size="24" transform="translate(378.782 77)">洧놂<tspan font-size="24" x="96.7527" y="114">洧</tspan><tspan font-size="24" x="-127.654" y="104">洧</tspan><tspan font-size="24" x="-110.202" y="-16">洧누</tspan></text><path d="M160.51 231.167 317.479 232.373 317.459 235.039 160.49 233.833ZM316.166 229.696 324.135 233.757 316.105 237.696Z" fill="#ED7D31"/><path d="M0.724452-1.11935 103.794 65.5878 102.345 67.8265-0.724452 1.11935ZM104.123 62.6246 108.666 70.3293 99.7765 69.3407Z" fill="#ED7D31" transform="matrix(1 0 0 -1 350.5 228.829)"/><path d="M326.83 226.078 263.215 161.194 265.119 159.327 328.734 224.211ZM262.245 164.013 259.5 155.5 267.957 158.412Z" fill="#ED7D31"/><text fill="#FF0000" font-family="Yu Gothic,Yu Gothic_MSFontService,sans-serif" font-weight="700" font-size="48" transform="matrix(0.950377 0.311099 -0.311099 0.950377 273.658 205)">칑</text><text fill="#FF0000" font-family="Yu Gothic,Yu Gothic_MSFontService,sans-serif" font-weight="700" font-size="48" transform="matrix(0.933118 -0.359569 0.359569 0.933118 390.208 221)">칑</text><path d="M0 0 1.36556 311.773" stroke="#A6A6A6" stroke-width="2.33333" stroke-miterlimit="8" stroke-dasharray="18.6667 7" fill="none" fill-rule="evenodd" transform="matrix(-1 0 0 1 1021.37 26)"/><rect x="798.5" y="80.5001" width="186" height="132" stroke="#787878" stroke-width="1.33333" stroke-miterlimit="8" fill="#A5A5A5"/><rect x="600.5" y="80.5001" width="124" height="132" stroke="#787878" stroke-width="1.33333" stroke-miterlimit="8" fill="#A5A5A5"/><rect x="809.5" y="287.5" width="171" height="47" stroke="#787878" stroke-width="1.33333" stroke-miterlimit="8" fill="#A5A5A5"/><rect x="600.5" y="287.5" width="124" height="47" stroke="#787878" stroke-width="1.33333" stroke-miterlimit="8" fill="#A5A5A5"/><path d="M0 0 438.733 3.17774" stroke="#A6A6A6" stroke-width="2.33333" stroke-miterlimit="8" stroke-dasharray="18.6667 7" fill="none" fill-rule="evenodd" transform="matrix(1 0 0 -1 600 256.178)"/><path d="M600 41 1038.73 41.671" stroke="#A6A6A6" stroke-width="2.33333" stroke-miterlimit="8" stroke-dasharray="18.6667 7" fill="none" fill-rule="evenodd"/><path d="M0 0 1.36556 311.773" stroke="#A6A6A6" stroke-width="2.33333" stroke-miterlimit="8" stroke-dasharray="18.6667 7" fill="none" fill-rule="evenodd" transform="matrix(-1 0 0 1 760.366 24)"/><path d="M880 62C880 54.8203 885.82 49 893 49 900.18 49 906 54.8203 906 62 906 69.1797 900.18 75 893 75 885.82 75 880 69.1797 880 62Z" stroke="#000000" stroke-width="2" stroke-miterlimit="8" fill="#FF0000" fill-rule="evenodd"/><text font-family="Cambria Math,Cambria Math_MSFontService,sans-serif" font-weight="400" font-size="24" transform="translate(649.509 250)">洧놐</text><path d="M668 233C668 225.82 673.82 220 681 220 688.18 220 694 225.82 694 233 694 240.18 688.18 246 681 246 673.82 246 668 240.18 668 233Z" stroke="#000000" stroke-width="2" stroke-miterlimit="8" fill="#FF0000" fill-rule="evenodd"/><path d="M728 125.5C728 118.044 734.044 112 741.5 112 748.956 112 755 118.044 755 125.5 755 132.956 748.956 139 741.5 139 734.044 139 728 132.956 728 125.5Z" stroke="#000000" stroke-width="2" stroke-miterlimit="8" fill="#FFFFFF" fill-rule="evenodd"/><path d="M769 63C769 55.8203 774.82 50 782 50 789.18 50 795 55.8203 795 63 795 70.1797 789.18 76 782 76 774.82 76 769 70.1797 769 63Z" stroke="#000000" stroke-width="2" stroke-miterlimit="8" fill="#FF0000" fill-rule="evenodd"/><path d="M855 233.5C855 226.044 861.044 220 868.5 220 875.956 220 882 226.044 882 233.5 882 240.956 875.956 247 868.5 247 861.044 247 855 240.956 855 233.5Z" stroke="#000000" stroke-width="2" stroke-miterlimit="8" fill="#FF0000" fill-rule="evenodd"/><path d="M767 148.5C767 141.044 773.044 135 780.5 135 787.956 135 794 141.044 794 148.5 794 155.956 787.956 162 780.5 162 773.044 162 767 155.956 767 148.5Z" stroke="#000000" stroke-width="2" stroke-miterlimit="8" fill="#FF0000" fill-rule="evenodd"/><path d="M760 232.5C760 225.044 765.82 219 773 219 780.18 219 786 225.044 786 232.5 786 239.956 780.18 246 773 246 765.82 246 760 239.956 760 232.5Z" stroke="#000000" stroke-width="2" stroke-miterlimit="8" fill="#FF0000" fill-rule="evenodd"/><text font-family="Cambria Math,Cambria Math_MSFontService,sans-serif" font-weight="400" font-size="24" transform="translate(789.999 252)">洧놓</text><path d="M960 270.5C960 263.044 965.82 257 973 257 980.18 257 986 263.044 986 270.5 986 277.956 980.18 284 973 284 965.82 284 960 277.956 960 270.5Z" stroke="#000000" stroke-width="2" stroke-miterlimit="8" fill="#FFFFFF" fill-rule="evenodd"/><path d="M867 274C867 266.82 872.82 261 880 261 887.18 261 893 266.82 893 274 893 281.18 887.18 287 880 287 872.82 287 867 281.18 867 274Z" stroke="#000000" stroke-width="2" stroke-miterlimit="8" fill="#FFFFFF" fill-rule="evenodd"/><path d="M696 268C696 260.82 701.82 255 709 255 716.18 255 722 260.82 722 268 722 275.18 716.18 281 709 281 701.82 281 696 275.18 696 268Z" stroke="#000000" stroke-width="2" stroke-miterlimit="8" fill="#FFFFFF" fill-rule="evenodd"/><path d="M1029 65C1029 57.8203 1034.82 52 1042 52 1049.18 52 1055 57.8203 1055 65 1055 72.1797 1049.18 78 1042 78 1034.82 78 1029 72.1797 1029 65Z" stroke="#000000" stroke-width="2" stroke-miterlimit="8" fill="#FFFFFF" fill-rule="evenodd"/><text font-family="Cambria Math,Cambria Math_MSFontService,sans-serif" font-weight="400" font-size="24" transform="translate(890.338 249)">洧</text><path d="M991 156.5C991 149.044 996.82 143 1004 143 1011.18 143 1017 149.044 1017 156.5 1017 163.956 1011.18 170 1004 170 996.82 170 991 163.956 991 156.5Z" stroke="#000000" stroke-width="2" stroke-miterlimit="8" fill="#FF0000" fill-rule="evenodd"/><path d="M1030 229.5C1030 222.044 1035.6 216 1042.5 216 1049.4 216 1055 222.044 1055 229.5 1055 236.956 1049.4 243 1042.5 243 1035.6 243 1030 236.956 1030 229.5Z" stroke="#000000" stroke-width="2" stroke-miterlimit="8" fill="#FFFFFF" fill-rule="evenodd"/><text font-family="Cambria Math,Cambria Math_MSFontService,sans-serif" font-weight="400" font-size="24" transform="translate(910.425 77)">洧놂<tspan font-size="24" x="96.7527" y="114">洧</tspan><tspan font-size="24" x="-127.654" y="104">洧</tspan><tspan font-size="24" x="-113.889" y="-16">洧누</tspan></text><path d="M692.5 231.167 753.612 231.167 753.612 233.833 692.5 233.833ZM752.279 228.5 760.279 232.5 752.279 236.5Z" fill="#4472C4"/><path d="M1.32639-0.135869 6.5344 50.7062 3.88161 50.9779-1.32639 0.135869ZM9.05131 49.1081 5.88735 57.474 1.09296 49.9233Z" fill="#4472C4" transform="matrix(1 0 0 -1 773.5 219.974)"/><path d="M1.33329-0.0109039 1.74323 50.1151-0.923347 50.1369-1.33329 0.0109039ZM4.3989 48.76 0.464462 56.7924-3.60083 48.8254Z" fill="#4472C4" transform="matrix(1 0 0 -1 781.5 133.292)"/><path d="M0.0180506-1.33321 77.7654-0.280576 77.7293 2.38585-0.0180506 1.33321ZM76.4683-2.96505 84.4134 1.14289 76.36 5.03422Z" fill="#4472C4" transform="matrix(1 0 0 -1 795.5 63.6429)"/><text font-family="Yu Gothic,Yu Gothic_MSFontService,sans-serif" font-weight="700" font-size="24" transform="translate(238 397)">(a<tspan font-size="24" x="23.6667" y="0">)</tspan><tspan font-size="24" x="530.96" y="-7">(b)</tspan></text></g></svg>