<svg width="571" height="365" xmlns="http://www.w3.org/2000/svg" xmlns:xlink="http://www.w3.org/1999/xlink" overflow="hidden"><defs><clipPath id="clip0"><rect x="639" y="42" width="571" height="365"/></clipPath><clipPath id="clip1"><rect x="640" y="42" width="569" height="364"/></clipPath><clipPath id="clip2"><rect x="640" y="42" width="569" height="364"/></clipPath><clipPath id="clip3"><rect x="719" y="57" width="476" height="266"/></clipPath><clipPath id="clip4"><rect x="640" y="42" width="569" height="364"/></clipPath><clipPath id="clip5"><rect x="719" y="57" width="476" height="266"/></clipPath><clipPath id="clip6"><rect x="640" y="42" width="569" height="364"/></clipPath><clipPath id="clip7"><rect x="640" y="42" width="569" height="364"/></clipPath><clipPath id="clip8"><rect x="640" y="42" width="569" height="364"/></clipPath><clipPath id="clip9"><rect x="640" y="42" width="569" height="364"/></clipPath><clipPath id="clip10"><rect x="640" y="42" width="569" height="364"/></clipPath><clipPath id="clip11"><rect x="640" y="42" width="569" height="364"/></clipPath><clipPath id="clip12"><rect x="640" y="42" width="569" height="364"/></clipPath><clipPath id="clip13"><rect x="640" y="42" width="569" height="364"/></clipPath><clipPath id="clip14"><rect x="640" y="42" width="569" height="364"/></clipPath><clipPath id="clip15"><rect x="640" y="42" width="569" height="364"/></clipPath><clipPath id="clip16"><rect x="640" y="42" width="569" height="364"/></clipPath><clipPath id="clip17"><rect x="640" y="42" width="569" height="364"/></clipPath><clipPath id="clip18"><rect x="640" y="42" width="569" height="364"/></clipPath><clipPath id="clip19"><rect x="640" y="42" width="569" height="364"/></clipPath><clipPath id="clip20"><rect x="640" y="42" width="569" height="364"/></clipPath><clipPath id="clip21"><rect x="640" y="42" width="569" height="364"/></clipPath><clipPath id="clip22"><rect x="640" y="42" width="569" height="364"/></clipPath><clipPath id="clip23"><rect x="640" y="42" width="569" height="364"/></clipPath><clipPath id="clip24"><rect x="640" y="42" width="569" height="364"/></clipPath><clipPath id="clip25"><rect x="640" y="42" width="569" height="364"/></clipPath><clipPath id="clip26"><rect x="640" y="42" width="569" height="364"/></clipPath><clipPath id="clip27"><rect x="640" y="42" width="569" height="364"/></clipPath><clipPath id="clip28"><rect x="640" y="42" width="569" height="364"/></clipPath><clipPath id="clip29"><rect x="640" y="42" width="569" height="364"/></clipPath></defs><g clip-path="url(#clip0)" transform="translate(-639 -42)"><g clip-path="url(#clip1)"><path d="M719.5 278.5 1194.5 278.5M719.5 234.5 1194.5 234.5M719.5 189.5 1194.5 189.5M719.5 145.5 1194.5 145.5M719.5 101.5 1194.5 101.5M719.5 57.5001 1194.5 57.5001" stroke="#D9D9D9" stroke-linejoin="round" stroke-miterlimit="10" fill="none"/></g><g clip-path="url(#clip2)"><path d="M719.5 322.5 1194.5 322.5" stroke="#D9D9D9" stroke-linejoin="round" stroke-miterlimit="10" fill="none" fill-rule="evenodd"/></g><g clip-path="url(#clip3)"><path d="M799.5 199.5 957.5 128.5 1115.5 110.5" stroke="#5B9BD5" stroke-width="3" stroke-linecap="round" stroke-linejoin="round" stroke-miterlimit="10" fill="none"/></g><g clip-path="url(#clip4)"><path d="M802.333 199.185C802.333 201.026 800.841 202.518 799 202.518 797.159 202.518 795.667 201.026 795.667 199.185 795.667 197.344 797.159 195.851 799 195.851 800.841 195.851 802.333 197.344 802.333 199.185Z" stroke="#5B9BD5" stroke-linejoin="round" stroke-miterlimit="10" fill="#5B9BD5"/><path d="M960.5 128.518C960.5 130.359 959.008 131.851 957.167 131.851 955.326 131.851 953.833 130.359 953.833 128.518 953.833 126.677 955.326 125.185 957.167 125.185 959.008 125.185 960.5 126.677 960.5 128.518Z" stroke="#5B9BD5" stroke-linejoin="round" stroke-miterlimit="10" fill="#5B9BD5"/><path d="M1118.67 110.851C1118.67 112.692 1117.17 114.185 1115.33 114.185 1113.49 114.185 1112 112.692 1112 110.851 1112 109.01 1113.49 107.518 1115.33 107.518 1117.17 107.518 1118.67 109.01 1118.67 110.851Z" stroke="#5B9BD5" stroke-linejoin="round" stroke-miterlimit="10" fill="#5B9BD5"/></g><g clip-path="url(#clip5)"><path d="M799.5 309.5 957.5 221.5 1115.5 177.5" stroke="#ED7D31" stroke-width="3" stroke-linecap="round" stroke-linejoin="round" stroke-miterlimit="10" fill="none"/></g><g clip-path="url(#clip6)"><path d="M802.333 309.685C802.333 311.526 800.841 313.018 799 313.018 797.159 313.018 795.667 311.526 795.667 309.685 795.667 307.844 797.159 306.352 799 306.352 800.841 306.352 802.333 307.844 802.333 309.685Z" stroke="#ED7D31" stroke-linejoin="round" stroke-miterlimit="10" fill="#ED7D31"/><path d="M960.5 221.351C960.5 223.192 959.008 224.685 957.167 224.685 955.326 224.685 953.833 223.192 953.833 221.351 953.833 219.511 955.326 218.018 957.167 218.018 959.008 218.018 960.5 219.511 960.5 221.351Z" stroke="#ED7D31" stroke-linejoin="round" stroke-miterlimit="10" fill="#ED7D31"/><path d="M1118.67 177.185C1118.67 179.026 1117.17 180.518 1115.33 180.518 1113.49 180.518 1112 179.026 1112 177.185 1112 175.344 1113.49 173.851 1115.33 173.851 1117.17 173.851 1118.67 175.344 1118.67 177.185Z" stroke="#ED7D31" stroke-linejoin="round" stroke-miterlimit="10" fill="#ED7D31"/></g><g clip-path="url(#clip7)"><text fill="#595959" font-family="Calibri,Calibri_MSFontService,sans-serif" font-weight="700" font-size="13" transform="translate(683.733 327)">0.02</text></g><g clip-path="url(#clip8)"><text fill="#595959" font-family="Calibri,Calibri_MSFontService,sans-serif" font-weight="700" font-size="13" transform="translate(676.973 282)">0.022</text></g><g clip-path="url(#clip9)"><text fill="#595959" font-family="Calibri,Calibri_MSFontService,sans-serif" font-weight="700" font-size="13" transform="translate(676.973 238)">0.024</text></g><g clip-path="url(#clip10)"><text fill="#595959" font-family="Calibri,Calibri_MSFontService,sans-serif" font-weight="700" font-size="13" transform="translate(676.973 194)">0.026</text></g><g clip-path="url(#clip11)"><text fill="#595959" font-family="Calibri,Calibri_MSFontService,sans-serif" font-weight="700" font-size="13" transform="translate(676.973 150)">0.028</text></g><g clip-path="url(#clip12)"><text fill="#595959" font-family="Calibri,Calibri_MSFontService,sans-serif" font-weight="700" font-size="13" transform="translate(683.733 106)">0.03</text></g><g clip-path="url(#clip13)"><text fill="#595959" font-family="Calibri,Calibri_MSFontService,sans-serif" font-weight="700" font-size="13" transform="translate(676.973 61)">0.032</text></g><g clip-path="url(#clip14)"><text fill="#595959" font-family="Calibri,Calibri_MSFontService,sans-serif" font-weight="700" font-size="13" transform="translate(788.87 344)">200</text></g><g clip-path="url(#clip15)"><text fill="#595959" font-family="Calibri,Calibri_MSFontService,sans-serif" font-weight="700" font-size="13" transform="translate(947.01 344)">300</text></g><g clip-path="url(#clip16)"><text fill="#595959" font-family="Calibri,Calibri_MSFontService,sans-serif" font-weight="700" font-size="13" transform="translate(1105.15 344)">400</text></g><g clip-path="url(#clip17)"><text fill="#595959" font-family="Yu Gothic,Yu Gothic_MSFontService,sans-serif" font-weight="700" font-size="16" transform="matrix(6.12323e-17 -1 1 6.12323e-17 665.206 283)">エンドツーエンド遅延</text></g><g clip-path="url(#clip18)"><text fill="#595959" font-family="Calibri,Calibri_MSFontService,sans-serif" font-weight="700" font-size="16" transform="matrix(6.12323e-17 -1 1 6.12323e-17 665.206 123)">(</text></g><g clip-path="url(#clip19)"><text fill="#595959" font-family="Yu Gothic,Yu Gothic_MSFontService,sans-serif" font-weight="700" font-size="16" transform="matrix(6.12323e-17 -1 1 6.12323e-17 665.206 118)">秒</text></g><g clip-path="url(#clip20)"><text fill="#595959" font-family="Calibri,Calibri_MSFontService,sans-serif" font-weight="700" font-size="16" transform="matrix(6.12323e-17 -1 1 6.12323e-17 665.206 102)">)</text></g><g clip-path="url(#clip21)"><text fill="#595959" font-family="Yu Gothic,Yu Gothic_MSFontService,sans-serif" font-weight="700" font-size="16" transform="translate(925.15 370)">ノード数</text></g><g clip-path="url(#clip22)"><path d="M802.5 386.5 827.5 386.5" stroke="#5B9BD5" stroke-width="3" stroke-linecap="round" stroke-linejoin="round" stroke-miterlimit="10" fill="none" fill-rule="evenodd"/></g><g clip-path="url(#clip23)"><path d="M818.5 386.5C818.5 388.157 816.933 389.5 815 389.5 813.067 389.5 811.5 388.157 811.5 386.5 811.5 384.843 813.067 383.5 815 383.5 816.933 383.5 818.5 384.843 818.5 386.5Z" stroke="#5B9BD5" stroke-linejoin="round" stroke-miterlimit="10" fill="#5B9BD5"/></g><g clip-path="url(#clip24)"><text fill="#595959" font-family="Calibri,Calibri_MSFontService,sans-serif" font-weight="700" font-size="13" transform="translate(830.365 391)">shadowing</text></g><g clip-path="url(#clip25)"><text fill="#595959" font-family="Yu Gothic,Yu Gothic_MSFontService,sans-serif" font-weight="700" font-size="13" transform="translate(890.419 391)">あり</text></g><g clip-path="url(#clip26)"><path d="M936.5 386.5 962.5 386.5" stroke="#ED7D31" stroke-width="3" stroke-linecap="round" stroke-linejoin="round" stroke-miterlimit="10" fill="none" fill-rule="evenodd"/></g><g clip-path="url(#clip27)"><path d="M952.5 386.5C952.5 388.157 951.157 389.5 949.5 389.5 947.843 389.5 946.5 388.157 946.5 386.5 946.5 384.843 947.843 383.5 949.5 383.5 951.157 383.5 952.5 384.843 952.5 386.5Z" stroke="#ED7D31" stroke-linejoin="round" stroke-miterlimit="10" fill="#ED7D31"/></g><g clip-path="url(#clip28)"><text fill="#595959" font-family="Calibri,Calibri_MSFontService,sans-serif" font-weight="700" font-size="13" transform="translate(964.915 391)">shadowing</text></g><g clip-path="url(#clip29)"><text fill="#595959" font-family="Yu Gothic,Yu Gothic_MSFontService,sans-serif" font-weight="700" font-size="13" transform="translate(1024.97 391)">なし</text></g></g></svg>