<svg width="570" height="365" xmlns="http://www.w3.org/2000/svg" xmlns:xlink="http://www.w3.org/1999/xlink" overflow="hidden"><defs><clipPath id="clip0"><rect x="345" y="346" width="570" height="365"/></clipPath><clipPath id="clip1"><rect x="345" y="346" width="569" height="364"/></clipPath><clipPath id="clip2"><rect x="345" y="346" width="569" height="364"/></clipPath><clipPath id="clip3"><rect x="425" y="361" width="475" height="266"/></clipPath><clipPath id="clip4"><rect x="345" y="346" width="569" height="364"/></clipPath><clipPath id="clip5"><rect x="425" y="361" width="475" height="266"/></clipPath><clipPath id="clip6"><rect x="345" y="346" width="569" height="364"/></clipPath><clipPath id="clip7"><rect x="345" y="346" width="569" height="364"/></clipPath><clipPath id="clip8"><rect x="345" y="346" width="569" height="364"/></clipPath><clipPath id="clip9"><rect x="345" y="346" width="569" height="364"/></clipPath><clipPath id="clip10"><rect x="345" y="346" width="569" height="364"/></clipPath><clipPath id="clip11"><rect x="345" y="346" width="569" height="364"/></clipPath><clipPath id="clip12"><rect x="345" y="346" width="569" height="364"/></clipPath><clipPath id="clip13"><rect x="345" y="346" width="569" height="364"/></clipPath><clipPath id="clip14"><rect x="345" y="346" width="569" height="364"/></clipPath><clipPath id="clip15"><rect x="345" y="346" width="569" height="364"/></clipPath><clipPath id="clip16"><rect x="345" y="346" width="569" height="364"/></clipPath><clipPath id="clip17"><rect x="345" y="346" width="569" height="364"/></clipPath><clipPath id="clip18"><rect x="345" y="346" width="569" height="364"/></clipPath><clipPath id="clip19"><rect x="345" y="346" width="569" height="364"/></clipPath><clipPath id="clip20"><rect x="345" y="346" width="569" height="364"/></clipPath><clipPath id="clip21"><rect x="345" y="346" width="569" height="364"/></clipPath><clipPath id="clip22"><rect x="345" y="346" width="569" height="364"/></clipPath><clipPath id="clip23"><rect x="345" y="346" width="569" height="364"/></clipPath><clipPath id="clip24"><rect x="345" y="346" width="569" height="364"/></clipPath><clipPath id="clip25"><rect x="345" y="346" width="569" height="364"/></clipPath><clipPath id="clip26"><rect x="345" y="346" width="569" height="364"/></clipPath><clipPath id="clip27"><rect x="345" y="346" width="569" height="364"/></clipPath></defs><g clip-path="url(#clip0)" transform="translate(-345 -346)"><g clip-path="url(#clip1)"><path d="M425.5 588.5 899.5 588.5M425.5 550.5 899.5 550.5M425.5 512.5 899.5 512.5M425.5 474.5 899.5 474.5M425.5 436.5 899.5 436.5M425.5 399.5 899.5 399.5M425.5 361.5 899.5 361.5" stroke="#D9D9D9" stroke-linejoin="round" stroke-miterlimit="10" fill="none"/></g><g clip-path="url(#clip2)"><path d="M425.5 626.5 899.5 626.5" stroke="#D9D9D9" stroke-linejoin="round" stroke-miterlimit="10" fill="none" fill-rule="evenodd"/></g><g clip-path="url(#clip3)"><path d="M504.5 415.5 662.5 476.5 820.5 518.5" stroke="#5B9BD5" stroke-width="3" stroke-linecap="round" stroke-linejoin="round" stroke-miterlimit="10" fill="none"/></g><g clip-path="url(#clip4)"><path d="M507.529 415.59C507.529 417.431 506.036 418.923 504.195 418.923 502.354 418.923 500.862 417.431 500.862 415.59 500.862 413.749 502.354 412.256 504.195 412.256 506.036 412.256 507.529 413.749 507.529 415.59Z" stroke="#5B9BD5" stroke-linejoin="round" stroke-miterlimit="10" fill="#5B9BD5"/><path d="M665.695 476.09C665.695 477.931 664.203 479.423 662.362 479.423 660.521 479.423 659.029 477.931 659.029 476.09 659.029 474.249 660.521 472.756 662.362 472.756 664.203 472.756 665.695 474.249 665.695 476.09Z" stroke="#5B9BD5" stroke-linejoin="round" stroke-miterlimit="10" fill="#5B9BD5"/><path d="M823.862 518.59C823.862 520.431 822.37 521.923 820.529 521.923 818.688 521.923 817.195 520.431 817.195 518.59 817.195 516.749 818.688 515.256 820.529 515.256 822.37 515.256 823.862 516.749 823.862 518.59Z" stroke="#5B9BD5" stroke-linejoin="round" stroke-miterlimit="10" fill="#5B9BD5"/></g><g clip-path="url(#clip5)"><path d="M504.5 595.5 662.5 595.5 820.5 594.5" stroke="#ED7D31" stroke-width="3" stroke-linecap="round" stroke-linejoin="round" stroke-miterlimit="10" fill="none"/></g><g clip-path="url(#clip6)"><path d="M507.529 595.756C507.529 597.597 506.036 599.09 504.195 599.09 502.354 599.09 500.862 597.597 500.862 595.756 500.862 593.915 502.354 592.423 504.195 592.423 506.036 592.423 507.529 593.915 507.529 595.756Z" stroke="#ED7D31" stroke-linejoin="round" stroke-miterlimit="10" fill="#ED7D31"/><path d="M665.695 595.09C665.695 596.931 664.203 598.423 662.362 598.423 660.521 598.423 659.029 596.931 659.029 595.09 659.029 593.249 660.521 591.756 662.362 591.756 664.203 591.756 665.695 593.249 665.695 595.09Z" stroke="#ED7D31" stroke-linejoin="round" stroke-miterlimit="10" fill="#ED7D31"/><path d="M823.862 594.256C823.862 596.097 822.37 597.59 820.529 597.59 818.688 597.59 817.195 596.097 817.195 594.256 817.195 592.415 818.688 590.923 820.529 590.923 822.37 590.923 823.862 592.415 823.862 594.256Z" stroke="#ED7D31" stroke-linejoin="round" stroke-miterlimit="10" fill="#ED7D31"/></g><g clip-path="url(#clip7)"><text fill="#595959" font-family="Calibri,Calibri_MSFontService,sans-serif" font-weight="700" font-size="13" transform="translate(406.008 631)">5</text></g><g clip-path="url(#clip8)"><text fill="#595959" font-family="Calibri,Calibri_MSFontService,sans-serif" font-weight="700" font-size="13" transform="translate(399.248 593)">10</text></g><g clip-path="url(#clip9)"><text fill="#595959" font-family="Calibri,Calibri_MSFontService,sans-serif" font-weight="700" font-size="13" transform="translate(399.248 555)">15</text></g><g clip-path="url(#clip10)"><text fill="#595959" font-family="Calibri,Calibri_MSFontService,sans-serif" font-weight="700" font-size="13" transform="translate(399.248 517)">20</text></g><g clip-path="url(#clip11)"><text fill="#595959" font-family="Calibri,Calibri_MSFontService,sans-serif" font-weight="700" font-size="13" transform="translate(399.248 479)">25</text></g><g clip-path="url(#clip12)"><text fill="#595959" font-family="Calibri,Calibri_MSFontService,sans-serif" font-weight="700" font-size="13" transform="translate(399.248 441)">30</text></g><g clip-path="url(#clip13)"><text fill="#595959" font-family="Calibri,Calibri_MSFontService,sans-serif" font-weight="700" font-size="13" transform="translate(399.248 403)">35</text></g><g clip-path="url(#clip14)"><text fill="#595959" font-family="Calibri,Calibri_MSFontService,sans-serif" font-weight="700" font-size="13" transform="translate(399.248 365)">40</text></g><g clip-path="url(#clip15)"><text fill="#595959" font-family="Calibri,Calibri_MSFontService,sans-serif" font-weight="700" font-size="13" transform="translate(494.066 648)">200</text></g><g clip-path="url(#clip16)"><text fill="#595959" font-family="Calibri,Calibri_MSFontService,sans-serif" font-weight="700" font-size="13" transform="translate(652.205 648)">300</text></g><g clip-path="url(#clip17)"><text fill="#595959" font-family="Calibri,Calibri_MSFontService,sans-serif" font-weight="700" font-size="13" transform="translate(810.345 648)">400</text></g><g clip-path="url(#clip18)"><text fill="#595959" font-family="Yu Gothic,Yu Gothic_MSFontService,sans-serif" font-weight="700" font-size="16" transform="matrix(6.12323e-17 -1 1 6.12323e-17 387.482 550)">オーバーヘッド</text></g><g clip-path="url(#clip19)"><text fill="#595959" font-family="Yu Gothic,Yu Gothic_MSFontService,sans-serif" font-weight="700" font-size="16" transform="translate(630.345 674)">ノード数</text></g><g clip-path="url(#clip20)"><path d="M507.5 690.5 532.5 690.5" stroke="#5B9BD5" stroke-width="3" stroke-linecap="round" stroke-linejoin="round" stroke-miterlimit="10" fill="none" fill-rule="evenodd"/></g><g clip-path="url(#clip21)"><path d="M523.5 690.5C523.5 692.157 521.933 693.5 520 693.5 518.067 693.5 516.5 692.157 516.5 690.5 516.5 688.843 518.067 687.5 520 687.5 521.933 687.5 523.5 688.843 523.5 690.5Z" stroke="#5B9BD5" stroke-linejoin="round" stroke-miterlimit="10" fill="#5B9BD5"/></g><g clip-path="url(#clip22)"><text fill="#595959" font-family="Calibri,Calibri_MSFontService,sans-serif" font-weight="700" font-size="13" transform="translate(535.561 694)">shadowing</text></g><g clip-path="url(#clip23)"><text fill="#595959" font-family="Yu Gothic,Yu Gothic_MSFontService,sans-serif" font-weight="700" font-size="13" transform="translate(595.614 694)">あり</text></g><g clip-path="url(#clip24)"><path d="M641.5 690.5 667.5 690.5" stroke="#ED7D31" stroke-width="3" stroke-linecap="round" stroke-linejoin="round" stroke-miterlimit="10" fill="none" fill-rule="evenodd"/></g><g clip-path="url(#clip25)"><path d="M657.5 690.5C657.5 692.157 656.157 693.5 654.5 693.5 652.843 693.5 651.5 692.157 651.5 690.5 651.5 688.843 652.843 687.5 654.5 687.5 656.157 687.5 657.5 688.843 657.5 690.5Z" stroke="#ED7D31" stroke-linejoin="round" stroke-miterlimit="10" fill="#ED7D31"/></g><g clip-path="url(#clip26)"><text fill="#595959" font-family="Calibri,Calibri_MSFontService,sans-serif" font-weight="700" font-size="13" transform="translate(670.11 694)">shadowing</text></g><g clip-path="url(#clip27)"><text fill="#595959" font-family="Yu Gothic,Yu Gothic_MSFontService,sans-serif" font-weight="700" font-size="13" transform="translate(730.163 694)">なし</text></g></g></svg>