<svg width="541" height="440" xmlns="http://www.w3.org/2000/svg" xmlns:xlink="http://www.w3.org/1999/xlink" overflow="hidden"><defs><clipPath id="clip0"><rect x="370" y="110" width="541" height="440"/></clipPath></defs><g clip-path="url(#clip0)" transform="translate(-370 -110)"><rect x="533.5" y="164.5" width="373" height="132" stroke="#787878" stroke-width="1.33333" stroke-miterlimit="8" fill="#A5A5A5"/><rect x="372.5" y="164.5" width="69" height="132" stroke="#787878" stroke-width="1.33333" stroke-miterlimit="8" fill="#A5A5A5"/><rect x="533.5" y="371.5" width="373" height="46" stroke="#787878" stroke-width="1.33333" stroke-miterlimit="8" fill="#A5A5A5"/><rect x="371.5" y="371.5" width="70" height="46" stroke="#787878" stroke-width="1.33333" stroke-miterlimit="8" fill="#A5A5A5"/><path d="M371 337 905.348 337" stroke="#A6A6A6" stroke-width="2.33333" stroke-miterlimit="8" stroke-dasharray="18.6667 7" fill="none" fill-rule="evenodd"/><path d="M374 126 908.348 126" stroke="#A6A6A6" stroke-width="2.33333" stroke-miterlimit="8" stroke-dasharray="18.6667 7" fill="none" fill-rule="evenodd"/><path d="M0 0 0.888189 309.163" stroke="#A6A6A6" stroke-width="2.33333" stroke-miterlimit="8" stroke-dasharray="18.6667 7" fill="none" fill-rule="evenodd" transform="matrix(-1 0 0 1 483.888 111)"/><path d="M495.5 248C495.5 240.544 501.32 234.5 508.5 234.5 515.68 234.5 521.5 240.544 521.5 248 521.5 255.456 515.68 261.5 508.5 261.5 501.32 261.5 495.5 255.456 495.5 248Z" stroke="#000000" stroke-width="2.66667" stroke-miterlimit="8" fill="#FFFFFF" fill-rule="evenodd"/><path d="M815.5 316.5C815.5 309.32 821.32 303.5 828.5 303.5 835.68 303.5 841.5 309.32 841.5 316.5 841.5 323.68 835.68 329.5 828.5 329.5 821.32 329.5 815.5 323.68 815.5 316.5Z" fill="#FFFFFF" fill-rule="evenodd"/><path d="M819.308 307.308 837.692 325.692M837.692 307.308 819.308 325.692" stroke="#000000" stroke-width="2.66667" stroke-miterlimit="8" fill="none" fill-rule="evenodd"/><path d="M815.5 316.5C815.5 309.32 821.32 303.5 828.5 303.5 835.68 303.5 841.5 309.32 841.5 316.5 841.5 323.68 835.68 329.5 828.5 329.5 821.32 329.5 815.5 323.68 815.5 316.5Z" stroke="#000000" stroke-width="2.66667" stroke-miterlimit="8" fill="none" fill-rule="evenodd"/><path d="M691.5 144.5C691.5 137.32 697.32 131.5 704.5 131.5 711.68 131.5 717.5 137.32 717.5 144.5 717.5 151.68 711.68 157.5 704.5 157.5 697.32 157.5 691.5 151.68 691.5 144.5Z" stroke="#000000" stroke-width="2.66667" stroke-miterlimit="8" fill-rule="evenodd"/><path d="M693.5 145C693.5 138.649 698.425 133.5 704.5 133.5 710.575 133.5 715.5 138.649 715.5 145 715.5 151.351 710.575 156.5 704.5 156.5 698.425 156.5 693.5 151.351 693.5 145Z" stroke="#000000" stroke-width="2.66667" stroke-miterlimit="8" fill="#FFFFFF" fill-rule="evenodd"/><path d="M493.5 159C493.5 151.544 499.32 145.5 506.5 145.5 513.68 145.5 519.5 151.544 519.5 159 519.5 166.456 513.68 172.5 506.5 172.5 499.32 172.5 493.5 166.456 493.5 159Z" stroke="#000000" stroke-width="2.66667" stroke-miterlimit="8" fill="#FFFFFF" fill-rule="evenodd"/><path d="M694.5 316.5C694.5 309.32 700.096 303.5 707 303.5 713.904 303.5 719.5 309.32 719.5 316.5 719.5 323.68 713.904 329.5 707 329.5 700.096 329.5 694.5 323.68 694.5 316.5Z" stroke="#000000" stroke-width="2.66667" stroke-miterlimit="8" fill="#FFFFFF" fill-rule="evenodd"/><path d="M699.5 316.5C699.5 312.634 702.634 309.5 706.5 309.5 710.366 309.5 713.5 312.634 713.5 316.5 713.5 320.366 710.366 323.5 706.5 323.5 702.634 323.5 699.5 320.366 699.5 316.5Z" stroke="#000000" stroke-width="2.66667" stroke-miterlimit="8" fill-rule="evenodd"/><text font-family="Yu Gothic,Yu Gothic_MSFontService,sans-serif" font-weight="700" font-size="24" transform="translate(723.054 151)">D</text><path d="M0.00354833-1.33333 8.00352-1.31204 7.99642 1.35462-0.00354833 1.33333ZM10.6702-1.30494 18.6701-1.28365 18.6631 1.38301 10.6631 1.36172ZM21.3368-1.27656 29.3368-1.25527 29.3297 1.41139 21.3297 1.3901ZM32.0034-1.24817 40.0034-1.22688 39.9963 1.43978 31.9963 1.41849ZM42.6701-1.21978 50.67-1.19849 50.6629 1.46817 42.663 1.44688ZM53.3367-1.1914 61.3367-1.17011 61.3296 1.49655 53.3296 1.47526ZM64.0033-1.16301 72.0033-1.14172 71.9962 1.52494 63.9962 1.50365ZM74.67-1.13462 82.6699-1.11333 82.6628 1.55332 74.6628 1.53203ZM85.3366-1.10624 86.597-1.10288 86.5899 1.56378 85.3295 1.56042ZM85.2708-3.77309 93.2602 0.248189 85.2495 4.22689Z" transform="matrix(-1 0 0 1 815.76 316.5)"/><path d="M393.5 443C393.5 435.544 399.32 429.5 406.5 429.5 413.68 429.5 419.5 435.544 419.5 443 419.5 450.456 413.68 456.5 406.5 456.5 399.32 456.5 393.5 450.456 393.5 443Z" stroke="#000000" stroke-width="2.66667" stroke-miterlimit="8" fill="#FFFFFF" fill-rule="evenodd"/><path d="M398.5 442.5C398.5 438.634 401.634 435.5 405.5 435.5 409.366 435.5 412.5 438.634 412.5 442.5 412.5 446.366 409.366 449.5 405.5 449.5 401.634 449.5 398.5 446.366 398.5 442.5Z" stroke="#000000" stroke-width="2.66667" stroke-miterlimit="8" fill-rule="evenodd"/><text font-family="Yu Gothic,Yu Gothic_MSFontService,sans-serif" font-weight="700" font-size="19" transform="translate(429.514 447)">LSN</text><path d="M631.5 443C631.5 435.544 637.32 429.5 644.5 429.5 651.68 429.5 657.5 435.544 657.5 443 657.5 450.456 651.68 456.5 644.5 456.5 637.32 456.5 631.5 450.456 631.5 443Z" stroke="#000000" stroke-width="2.66667" stroke-miterlimit="8" fill-rule="evenodd"/><path d="M633.5 443C633.5 436.649 638.425 431.5 644.5 431.5 650.575 431.5 655.5 436.649 655.5 443 655.5 449.351 650.575 454.5 644.5 454.5 638.425 454.5 633.5 449.351 633.5 443Z" stroke="#000000" stroke-width="2.66667" stroke-miterlimit="8" fill="#FFFFFF" fill-rule="evenodd"/><text font-family="Yu Gothic,Yu Gothic_MSFontService,sans-serif" font-weight="700" font-size="19" transform="translate(666.113 447)">Destination</text><path d="M392.5 482C392.5 474.544 398.32 468.5 405.5 468.5 412.68 468.5 418.5 474.544 418.5 482 418.5 489.456 412.68 495.5 405.5 495.5 398.32 495.5 392.5 489.456 392.5 482Z" fill="#FFFFFF" fill-rule="evenodd"/><path d="M396.308 472.454 414.692 491.546M414.692 472.454 396.308 491.546" stroke="#000000" stroke-width="2.66667" stroke-miterlimit="8" fill="none" fill-rule="evenodd"/><path d="M392.5 482C392.5 474.544 398.32 468.5 405.5 468.5 412.68 468.5 418.5 474.544 418.5 482 418.5 489.456 412.68 495.5 405.5 495.5 398.32 495.5 392.5 489.456 392.5 482Z" stroke="#000000" stroke-width="2.66667" stroke-miterlimit="8" fill="none" fill-rule="evenodd"/><text font-family="Yu Gothic,Yu Gothic_MSFontService,sans-serif" font-weight="700" font-size="19" transform="translate(429.514 486)">PLSN</text><path d="M392.5 524.5C392.5 517.32 398.32 511.5 405.5 511.5 412.68 511.5 418.5 517.32 418.5 524.5 418.5 531.68 412.68 537.5 405.5 537.5 398.32 537.5 392.5 531.68 392.5 524.5Z" stroke="#000000" stroke-width="2.66667" stroke-miterlimit="8" fill="#FFFFFF" fill-rule="evenodd"/><text font-family="Yu Gothic,Yu Gothic_MSFontService,sans-serif" font-weight="700" font-size="19" transform="translate(429.514 533)">RCS<tspan font-size="19" x="38.6667" y="0">の条件を満たすノード</tspan></text><path d="M0 0 3.79444 9.40556" stroke="#4472C4" stroke-width="0.666667" stroke-miterlimit="8" fill="none" fill-rule="evenodd" transform="matrix(-1 0 0 1 698.294 307.5)"/><path d="M693.538 310.069 521 248" stroke="#000000" stroke-width="2" stroke-miterlimit="8" fill="none" fill-rule="evenodd"/><path d="M697.729 306.838 516 168" stroke="#000000" stroke-width="2" stroke-miterlimit="8" fill="none" fill-rule="evenodd"/><path d="M707.064 303.509 704.5 156.5" stroke="#000000" stroke-width="2.66667" stroke-miterlimit="8" fill="none" fill-rule="evenodd"/><text font-family="Yu Gothic,Yu Gothic_MSFontService,sans-serif" font-weight="700" font-size="24" transform="translate(471.277 267)">R<tspan font-size="19" x="16.8333" y="0">1</tspan><tspan font-size="24" x="24.8024" y="-67">R</tspan><tspan font-size="19" x="41.6358" y="-67">2</tspan></text><path d="M657.735 268.836 661.357 264.22 665.689 259.846 670.434 256.006 675.474 252.624 680.802 249.828 686.298 247.484 692.028 245.718 697.919 244.532 703.841 243.919 709.869 243.818 715.871 244.349 721.908 245.453 727.792 247.185 733.643 249.548 739.283 252.54 746.952 257.899 753.634 264.233 759.262 271.404 763.784 279.225 767.071 287.686 769.134 296.531 769.915 305.699 769.295 314.994 767.632 314.883 768.247 305.652 768.248 305.778 767.479 296.732 767.497 296.851 765.461 288.122 765.496 288.235 762.254 279.889 762.309 280.004 757.849 272.289 757.914 272.387 752.361 265.31 752.443 265.4 745.85 259.151 745.946 259.229 738.37 253.936 738.457 253.989 732.9 251.041 732.978 251.078 727.205 248.746 727.282 248.772 721.48 247.065 721.565 247.085 715.609 245.996 715.685 246.006 709.766 245.482 709.853 245.485 703.905 245.585 703.977 245.581 698.13 246.186 698.209 246.174 692.398 247.344 692.479 247.323 686.83 249.064 686.912 249.034 681.486 251.348 681.547 251.319 676.288 254.079 676.365 254.033 671.393 257.369 671.453 257.325 666.773 261.113 666.841 261.051 662.575 265.359 662.638 265.287 659.046 269.865ZM662.433 270.548 654.573 274.815 655.875 265.966Z"/><path d="M661.554 292.971 662.353 290.722 666.874 283.071 672.635 276.54 679.511 271.285 683.3 269.177 687.246 267.443 691.371 266.069 695.677 265.122 700.031 264.554 704.452 264.427 708.998 264.797 713.55 265.62 721.454 268.241 728.583 272.19 734.826 277.219 740.049 283.282 744.092 290.141 746.874 297.677 748.297 305.629 748.454 309.801 748.234 313.965 746.57 313.877 746.788 309.751 746.787 309.827 746.633 305.75 746.646 305.865 745.247 298.043 745.285 298.185 742.555 290.788 742.619 290.923 738.652 284.192 738.738 284.313 733.612 278.364 733.721 278.469 727.593 273.533 727.712 273.613 720.714 269.736 720.855 269.798 713.081 267.22 713.195 267.25 708.741 266.444 708.822 266.455 704.362 266.092 704.454 266.094 700.121 266.218 700.205 266.212 695.929 266.77 696 266.757 691.772 267.687 691.856 267.664 687.809 269.012 687.881 268.984 684.007 270.688 684.076 270.653 680.374 272.712 680.475 272.646 673.712 277.815 673.831 277.704 668.176 284.115 668.269 283.987 663.829 291.5 663.897 291.355 663.125 293.529ZM666.556 293.237 660.25 299.581 658.959 290.73Z"/><path d="M703.997 188.244C767.651 192.384 815.897 247.342 811.756 310.997 811.679 312.186 811.583 313.375 811.469 314.561" stroke="#000000" stroke-width="2.33333" stroke-miterlimit="8" fill="none" fill-rule="evenodd"/><text font-family="Yu Gothic,Yu Gothic_MSFontService,sans-serif" font-weight="700" font-size="21" transform="translate(713.262 183)">sdangle<tspan font-size="21" x="-150.516" y="136">snangle1</tspan><tspan font-size="21" x="1.83014" y="64">snangle2</tspan><tspan font-size="21" x="-140.384" y="1">minanle2</tspan><tspan font-size="21" x="-198.72" y="57">minanle1</tspan></text><path d="M594.086 231.624 597.855 226.41 603.046 220.34 608.781 214.867 614.868 209.965 621.314 205.63 628.104 201.926 635.127 198.771 642.426 196.297 649.94 194.436 657.554 193.164 665.249 192.607 673.029 192.703 680.889 193.515 688.625 195.074 696.321 197.265 698.894 198.263 698.291 199.817 695.755 198.833 695.828 198.858 688.2 196.686 688.264 196.702 680.599 195.157 680.678 195.169 672.895 194.365 672.97 194.37 665.263 194.274 665.334 194.272 657.713 194.823 657.79 194.814 650.246 196.074 650.309 196.061 642.861 197.906 642.928 197.886 635.699 200.336 635.773 200.307 628.816 203.433 628.874 203.405 622.146 207.074 622.212 207.034 615.827 211.328 615.885 211.286 609.853 216.143 609.906 216.097 604.227 221.517 604.285 221.455 599.144 227.468 599.186 227.414 595.437 232.601ZM603.567 229.126 593.792 233.453 594.837 222.814C594.882 222.356 595.29 222.021 595.748 222.066 596.206 222.111 596.541 222.519 596.496 222.977L595.591 232.194 594.424 231.351 602.893 227.602C603.314 227.415 603.806 227.605 603.992 228.026 604.178 228.447 603.988 228.939 603.567 229.126ZM698.592 199.04 697.552 194.346 703.565 200.968 694.66 201.805Z"/><path d="M595.251 273.466 596.486 268.558 598.763 262.315 601.61 256.353 604.962 250.848 608.863 245.684 613.182 241.021 617.91 236.712 623.039 232.958 628.47 229.657 634.222 226.947 640.252 224.75 646.462 223.16 652.847 222.178 659.354 221.78 665.993 222.109 672.729 223.083 681.39 225.39 689.673 228.906 697.352 233.48 700.161 235.694 699.129 237.003 696.363 234.822 696.453 234.884 688.869 230.367 688.97 230.418 680.793 226.947 680.905 226.985 672.347 224.706 672.442 224.726 665.793 223.765 665.871 223.772 659.317 223.447 659.409 223.447 652.986 223.839 653.062 223.831 646.756 224.801 646.836 224.784 640.705 226.354 640.784 226.33 634.828 228.5 634.898 228.471 629.221 231.145 629.298 231.104 623.935 234.364 623.994 234.324 618.931 238.031 619 237.974 614.331 242.229 614.381 242.18 610.114 246.786 610.168 246.722 606.317 251.819 606.364 251.75 603.055 257.184 603.096 257.109 600.284 262.997 600.315 262.923 598.066 269.089 598.092 269.007 596.867 273.872ZM603.132 267.632 595.656 275.273 592.685 265.004C592.557 264.561 592.812 264.099 593.254 263.971 593.696 263.844 594.158 264.098 594.286 264.54L596.86 273.437 595.464 273.086 601.941 266.467C602.263 266.138 602.791 266.132 603.12 266.454 603.449 266.776 603.454 267.303 603.132 267.632ZM699.645 236.348 700.027 231.556 703.833 239.65 695.075 237.839Z"/><path d="M631.5 479C631.5 471.544 637.32 465.5 644.5 465.5 651.68 465.5 657.5 471.544 657.5 479 657.5 486.456 651.68 492.5 644.5 492.5 637.32 492.5 631.5 486.456 631.5 479Z" stroke="#000000" stroke-width="2.66667" stroke-miterlimit="8" fill="#AFABAB" fill-rule="evenodd"/><text font-family="Yu Gothic,Yu Gothic_MSFontService,sans-serif" font-weight="700" font-size="19" transform="translate(669.237 485)">送信ノード</text><path d="M520.5 325C520.5 317.544 526.32 311.5 533.5 311.5 540.68 311.5 546.5 317.544 546.5 325 546.5 332.456 540.68 338.5 533.5 338.5 526.32 338.5 520.5 332.456 520.5 325Z" stroke="#000000" stroke-width="2.66667" stroke-miterlimit="8" fill="#AFABAB" fill-rule="evenodd"/><path d="M509.5 131C522.479 131 533 162.788 533 202 533 241.212 522.479 273 509.5 273 496.521 273 486 241.212 486 202 486 162.788 496.521 131 509.5 131Z" stroke="#3B3838" stroke-width="2.33333" stroke-linejoin="round" stroke-miterlimit="10" stroke-dasharray="7 2.33333" fill="none" fill-rule="evenodd"/><path d="M531.862 311.238 530.515 304.369 532.805 303.92 534.152 310.789ZM530.066 302.079 528.718 295.21 531.008 294.761 532.355 301.63ZM528.269 292.921 526.922 286.052 529.211 285.602 530.559 292.471ZM526.472 283.762 525.125 276.893 527.415 276.444 528.762 283.313ZM524.676 274.603 523.328 267.734 525.618 267.285 526.965 274.154ZM520.615 268.62 523 260 528.465 267.08Z"/></g></svg>