<svg width="541" height="440" xmlns="http://www.w3.org/2000/svg" xmlns:xlink="http://www.w3.org/1999/xlink" overflow="hidden"><defs><clipPath id="clip0"><rect x="370" y="132" width="541" height="440"/></clipPath></defs><g clip-path="url(#clip0)" transform="translate(-370 -132)"><rect x="533.5" y="186.5" width="373" height="133" stroke="#787878" stroke-width="1.33333" stroke-miterlimit="8" fill="#A5A5A5"/><rect x="372.5" y="186.5" width="69" height="133" stroke="#787878" stroke-width="1.33333" stroke-miterlimit="8" fill="#A5A5A5"/><rect x="533.5" y="394.5" width="373" height="46" stroke="#787878" stroke-width="1.33333" stroke-miterlimit="8" fill="#A5A5A5"/><rect x="371.5" y="394.5" width="70" height="46" stroke="#787878" stroke-width="1.33333" stroke-miterlimit="8" fill="#A5A5A5"/><path d="M371 360 905.348 360" stroke="#A6A6A6" stroke-width="2.33333" stroke-miterlimit="8" stroke-dasharray="18.6667 7" fill="none" fill-rule="evenodd"/><path d="M374 149 908.348 149" stroke="#A6A6A6" stroke-width="2.33333" stroke-miterlimit="8" stroke-dasharray="18.6667 7" fill="none" fill-rule="evenodd"/><path d="M0 0 0.888189 309.163" stroke="#A6A6A6" stroke-width="2.33333" stroke-miterlimit="8" stroke-dasharray="18.6667 7" fill="none" fill-rule="evenodd" transform="matrix(-1 0 0 1 483.888 133)"/><path d="M495.5 271C495.5 263.544 501.32 257.5 508.5 257.5 515.68 257.5 521.5 263.544 521.5 271 521.5 278.456 515.68 284.5 508.5 284.5 501.32 284.5 495.5 278.456 495.5 271Z" stroke="#000000" stroke-width="2.66667" stroke-miterlimit="8" fill="#4472C4" fill-rule="evenodd"/><path d="M815.5 339.5C815.5 332.32 821.32 326.5 828.5 326.5 835.68 326.5 841.5 332.32 841.5 339.5 841.5 346.68 835.68 352.5 828.5 352.5 821.32 352.5 815.5 346.68 815.5 339.5Z" fill="#FFFFFF" fill-rule="evenodd"/><path d="M819.308 330.308 837.692 348.692M837.692 330.308 819.308 348.692" stroke="#000000" stroke-width="2.66667" stroke-miterlimit="8" fill="none" fill-rule="evenodd"/><path d="M815.5 339.5C815.5 332.32 821.32 326.5 828.5 326.5 835.68 326.5 841.5 332.32 841.5 339.5 841.5 346.68 835.68 352.5 828.5 352.5 821.32 352.5 815.5 346.68 815.5 339.5Z" stroke="#000000" stroke-width="2.66667" stroke-miterlimit="8" fill="none" fill-rule="evenodd"/><path d="M691.5 167C691.5 159.544 697.32 153.5 704.5 153.5 711.68 153.5 717.5 159.544 717.5 167 717.5 174.456 711.68 180.5 704.5 180.5 697.32 180.5 691.5 174.456 691.5 167Z" stroke="#000000" stroke-width="2.66667" stroke-miterlimit="8" fill-rule="evenodd"/><path d="M693.5 167.5C693.5 160.873 698.425 155.5 704.5 155.5 710.575 155.5 715.5 160.873 715.5 167.5 715.5 174.127 710.575 179.5 704.5 179.5 698.425 179.5 693.5 174.127 693.5 167.5Z" stroke="#000000" stroke-width="2.66667" stroke-miterlimit="8" fill="#FFFFFF" fill-rule="evenodd"/><path d="M493.5 181.5C493.5 174.32 499.32 168.5 506.5 168.5 513.68 168.5 519.5 174.32 519.5 181.5 519.5 188.68 513.68 194.5 506.5 194.5 499.32 194.5 493.5 188.68 493.5 181.5Z" stroke="#000000" stroke-width="2.66667" stroke-miterlimit="8" fill="#ED7D31" fill-rule="evenodd"/><path d="M694.5 339.5C694.5 332.32 700.096 326.5 707 326.5 713.904 326.5 719.5 332.32 719.5 339.5 719.5 346.68 713.904 352.5 707 352.5 700.096 352.5 694.5 346.68 694.5 339.5Z" stroke="#000000" stroke-width="2.66667" stroke-miterlimit="8" fill="#FFFFFF" fill-rule="evenodd"/><path d="M699.5 339C699.5 334.858 702.634 331.5 706.5 331.5 710.366 331.5 713.5 334.858 713.5 339 713.5 343.142 710.366 346.5 706.5 346.5 702.634 346.5 699.5 343.142 699.5 339Z" stroke="#000000" stroke-width="2.66667" stroke-miterlimit="8" fill-rule="evenodd"/><text font-family="Yu Gothic,Yu Gothic_MSFontService,sans-serif" font-weight="700" font-size="24" transform="translate(723.054 174)">D</text><path d="M0.00354833-1.33333 8.00352-1.31204 7.99642 1.35462-0.00354833 1.33333ZM10.6702-1.30494 18.6701-1.28365 18.6631 1.38301 10.6631 1.36172ZM21.3368-1.27656 29.3368-1.25527 29.3297 1.41139 21.3297 1.3901ZM32.0034-1.24817 40.0034-1.22688 39.9963 1.43978 31.9963 1.41849ZM42.6701-1.21978 50.67-1.19849 50.6629 1.46817 42.663 1.44688ZM53.3367-1.1914 61.3367-1.17011 61.3296 1.49655 53.3296 1.47526ZM64.0033-1.16301 72.0033-1.14172 71.9962 1.52494 63.9962 1.50365ZM74.67-1.13462 82.6699-1.11333 82.6628 1.55332 74.6628 1.53203ZM85.3366-1.10624 86.597-1.10288 86.5899 1.56378 85.3295 1.56042ZM85.2708-3.77309 93.2602 0.248189 85.2495 4.22689Z" transform="matrix(-1 0 0 1 815.76 339.5)"/><path d="M393.5 465.5C393.5 458.32 399.32 452.5 406.5 452.5 413.68 452.5 419.5 458.32 419.5 465.5 419.5 472.68 413.68 478.5 406.5 478.5 399.32 478.5 393.5 472.68 393.5 465.5Z" stroke="#000000" stroke-width="2.66667" stroke-miterlimit="8" fill="#FFFFFF" fill-rule="evenodd"/><path d="M398.5 465.5C398.5 461.634 401.634 458.5 405.5 458.5 409.366 458.5 412.5 461.634 412.5 465.5 412.5 469.366 409.366 472.5 405.5 472.5 401.634 472.5 398.5 469.366 398.5 465.5Z" stroke="#000000" stroke-width="2.66667" stroke-miterlimit="8" fill-rule="evenodd"/><text font-family="Yu Gothic,Yu Gothic_MSFontService,sans-serif" font-weight="700" font-size="19" transform="translate(429.514 469)">LSN</text><path d="M631.5 465.5C631.5 458.32 637.32 452.5 644.5 452.5 651.68 452.5 657.5 458.32 657.5 465.5 657.5 472.68 651.68 478.5 644.5 478.5 637.32 478.5 631.5 472.68 631.5 465.5Z" stroke="#000000" stroke-width="2.66667" stroke-miterlimit="8" fill-rule="evenodd"/><path d="M633.5 465C633.5 458.649 638.425 453.5 644.5 453.5 650.575 453.5 655.5 458.649 655.5 465 655.5 471.351 650.575 476.5 644.5 476.5 638.425 476.5 633.5 471.351 633.5 465Z" stroke="#000000" stroke-width="2.66667" stroke-miterlimit="8" fill="#FFFFFF" fill-rule="evenodd"/><text font-family="Yu Gothic,Yu Gothic_MSFontService,sans-serif" font-weight="700" font-size="19" transform="translate(666.113 470)">Destination</text><path d="M392.5 504.5C392.5 497.32 398.32 491.5 405.5 491.5 412.68 491.5 418.5 497.32 418.5 504.5 418.5 511.68 412.68 517.5 405.5 517.5 398.32 517.5 392.5 511.68 392.5 504.5Z" fill="#FFFFFF" fill-rule="evenodd"/><path d="M396.308 495.308 414.692 513.692M414.692 495.308 396.308 513.692" stroke="#000000" stroke-width="2.66667" stroke-miterlimit="8" fill="none" fill-rule="evenodd"/><path d="M392.5 504.5C392.5 497.32 398.32 491.5 405.5 491.5 412.68 491.5 418.5 497.32 418.5 504.5 418.5 511.68 412.68 517.5 405.5 517.5 398.32 517.5 392.5 511.68 392.5 504.5Z" stroke="#000000" stroke-width="2.66667" stroke-miterlimit="8" fill="none" fill-rule="evenodd"/><text font-family="Yu Gothic,Yu Gothic_MSFontService,sans-serif" font-weight="700" font-size="19" transform="translate(429.514 509)">PLSN</text><path d="M392.5 547C392.5 539.544 398.32 533.5 405.5 533.5 412.68 533.5 418.5 539.544 418.5 547 418.5 554.456 412.68 560.5 405.5 560.5 398.32 560.5 392.5 554.456 392.5 547Z" stroke="#000000" stroke-width="2.66667" stroke-miterlimit="8" fill="#ED7D31" fill-rule="evenodd"/><text font-family="Yu Gothic,Yu Gothic_MSFontService,sans-serif" font-weight="700" font-size="19" transform="translate(461.254 555)">RCS<tspan font-size="19" x="38.6667" y="0">の条件を満たすノード</tspan></text><path d="M0 0 3.79444 9.40556" stroke="#4472C4" stroke-width="0.666667" stroke-miterlimit="8" fill="none" fill-rule="evenodd" transform="matrix(-1 0 0 1 698.294 329.5)"/><path d="M693.538 332.069 521 270" stroke="#000000" stroke-width="2" stroke-miterlimit="8" fill="none" fill-rule="evenodd"/><path d="M697.729 329.838 516 191" stroke="#000000" stroke-width="2" stroke-miterlimit="8" fill="none" fill-rule="evenodd"/><path d="M707.064 326.509 704.5 179.5" stroke="#000000" stroke-width="2.66667" stroke-miterlimit="8" fill="none" fill-rule="evenodd"/><text font-family="Yu Gothic,Yu Gothic_MSFontService,sans-serif" font-weight="700" font-size="24" transform="translate(465.956 296)">R<tspan font-size="19" x="16.8333" y="0">1</tspan><tspan font-size="24" x="30.123" y="-73">R</tspan><tspan font-size="19" x="46.9564" y="-73">2</tspan></text><path d="M657.735 291.513 661.357 286.897 665.689 282.523 670.434 278.683 675.474 275.302 680.802 272.505 686.298 270.161 692.028 268.396 697.919 267.209 703.841 266.596 709.869 266.495 715.871 267.027 721.908 268.131 727.792 269.862 733.643 272.226 739.283 275.218 746.952 280.576 753.634 286.91 759.262 294.081 763.784 301.902 767.071 310.364 769.134 319.208 769.915 328.377 769.295 337.671 767.632 337.56 768.247 328.329 768.248 328.455 767.479 319.41 767.497 319.528 765.461 310.8 765.496 310.912 762.254 302.566 762.309 302.681 757.849 294.967 757.914 295.064 752.361 287.987 752.443 288.077 745.85 281.828 745.946 281.907 738.37 276.613 738.457 276.666 732.9 273.718 732.978 273.755 727.205 271.423 727.282 271.45 721.48 269.742 721.565 269.762 715.609 268.673 715.685 268.683 709.766 268.159 709.853 268.162 703.905 268.262 703.977 268.258 698.13 268.863 698.209 268.851 692.398 270.021 692.479 270.001 686.83 271.741 686.912 271.711 681.486 274.025 681.547 273.997 676.288 276.756 676.365 276.711 671.393 280.047 671.453 280.002 666.773 283.79 666.841 283.729 662.575 288.036 662.638 287.964 659.046 292.542ZM662.433 293.225 654.573 297.493 655.875 288.644Z" fill="#ED7D31"/><path d="M661.554 315.648 662.353 313.399 666.874 305.749 672.635 299.217 679.511 293.962 683.3 291.855 687.246 290.12 691.371 288.746 695.677 287.799 700.031 287.231 704.452 287.104 708.998 287.474 713.55 288.297 721.454 290.918 728.583 294.867 734.826 299.896 740.049 305.959 744.092 312.818 746.874 320.354 748.297 328.306 748.454 332.479 748.234 336.642 746.57 336.554 746.788 332.428 746.787 332.504 746.633 328.427 746.646 328.542 745.247 320.72 745.285 320.862 742.555 313.466 742.619 313.6 738.652 306.87 738.738 306.99 733.612 301.041 733.721 301.146 727.593 296.211 727.712 296.29 720.714 292.414 720.855 292.476 713.081 289.898 713.195 289.927 708.741 289.122 708.822 289.132 704.362 288.769 704.454 288.771 700.121 288.896 700.205 288.889 695.929 289.447 696 289.435 691.772 290.365 691.856 290.342 687.809 291.689 687.881 291.661 684.007 293.365 684.076 293.33 680.374 295.389 680.475 295.323 673.712 300.492 673.831 300.381 668.176 306.792 668.269 306.665 663.829 314.178 663.897 314.032 663.125 316.206ZM666.556 315.914 660.25 322.258 658.959 313.407Z" fill="#4472C4"/><path d="M703.997 211.244C767.651 215.384 815.897 270.342 811.756 333.997 811.679 335.186 811.583 336.375 811.469 337.561" stroke="#000000" stroke-width="2.33333" stroke-miterlimit="8" fill="none" fill-rule="evenodd"/><text font-family="Yu Gothic,Yu Gothic_MSFontService,sans-serif" font-weight="700" font-size="21" transform="translate(713.262 205)">sdangle<tspan fill="#4472C4" font-size="21" x="-150.516" y="137">snangle1</tspan><tspan fill="#ED7D31" font-size="21" x="1.83014" y="65">snangle2</tspan><tspan fill="#ED7D31" font-size="21" x="-140.384" y="1">minanle2</tspan><tspan fill="#4472C4" font-size="21" x="-193.333" y="62">minanle1</tspan></text><path d="M594.086 254.302 597.855 249.088 603.046 243.017 608.781 237.544 614.868 232.643 621.314 228.307 628.104 224.604 635.127 221.448 642.426 218.974 649.94 217.113 657.554 215.841 665.249 215.284 673.029 215.381 680.889 216.193 688.625 217.751 696.321 219.942 698.894 220.94 698.291 222.494 695.755 221.51 695.828 221.535 688.2 219.363 688.264 219.379 680.599 217.834 680.678 217.846 672.895 217.042 672.97 217.047 665.263 216.951 665.334 216.949 657.713 217.501 657.79 217.492 650.246 218.751 650.309 218.738 642.861 220.583 642.928 220.564 635.699 223.014 635.773 222.984 628.816 226.111 628.874 226.082 622.146 229.752 622.212 229.712 615.827 234.006 615.885 233.963 609.853 238.82 609.906 238.774 604.227 244.194 604.285 244.133 599.144 250.145 599.186 250.092 595.437 255.278ZM603.567 251.803 593.792 256.13 594.837 245.491C594.882 245.033 595.29 244.698 595.748 244.743 596.206 244.788 596.541 245.196 596.496 245.654L595.591 254.871 594.424 254.028 602.893 250.279C603.314 250.093 603.806 250.283 603.992 250.704 604.178 251.124 603.988 251.617 603.567 251.803ZM698.592 221.717 697.552 217.023 703.565 223.645 694.66 224.482Z" fill="#ED7D31"/><path d="M595.251 296.143 596.486 291.235 598.763 284.992 601.61 279.03 604.962 273.525 608.863 268.362 613.182 263.698 617.91 259.389 623.039 255.635 628.47 252.334 634.222 249.624 640.252 247.427 646.462 245.837 652.847 244.855 659.354 244.458 665.993 244.787 672.729 245.761 681.39 248.067 689.673 251.583 697.352 256.157 700.161 258.371 699.129 259.68 696.363 257.5 696.453 257.561 688.869 253.044 688.97 253.095 680.793 249.624 680.905 249.663 672.347 247.384 672.442 247.403 665.793 246.442 665.871 246.449 659.317 246.125 659.409 246.124 652.986 246.516 653.062 246.508 646.756 247.478 646.836 247.462 640.705 249.032 640.784 249.007 634.828 251.177 634.898 251.148 629.221 253.823 629.298 253.781 623.935 257.041 623.994 257.001 618.931 260.708 619 260.651 614.331 264.907 614.381 264.857 610.114 269.463 610.168 269.399 606.317 274.496 606.364 274.427 603.055 279.861 603.096 279.787 600.284 285.674 600.315 285.6 598.066 291.766 598.092 291.684 596.867 296.55ZM603.132 290.31 595.656 297.95 592.685 287.681C592.557 287.239 592.812 286.777 593.254 286.649 593.696 286.521 594.158 286.776 594.286 287.218L596.86 296.115 595.464 295.763 601.941 289.144C602.263 288.815 602.791 288.809 603.12 289.131 603.449 289.453 603.454 289.981 603.132 290.31ZM699.645 259.026 700.027 254.233 703.833 262.327 695.075 260.516Z" fill="#4472C4"/><path d="M631.5 501.5C631.5 494.32 637.32 488.5 644.5 488.5 651.68 488.5 657.5 494.32 657.5 501.5 657.5 508.68 651.68 514.5 644.5 514.5 637.32 514.5 631.5 508.68 631.5 501.5Z" stroke="#000000" stroke-width="2.66667" stroke-miterlimit="8" fill="#AFABAB" fill-rule="evenodd"/><text font-family="Yu Gothic,Yu Gothic_MSFontService,sans-serif" font-weight="700" font-size="19" transform="translate(669.237 508)">送信ノード</text><path d="M520.5 347.5C520.5 340.32 526.32 334.5 533.5 334.5 540.68 334.5 546.5 340.32 546.5 347.5 546.5 354.68 540.68 360.5 533.5 360.5 526.32 360.5 520.5 354.68 520.5 347.5Z" stroke="#000000" stroke-width="2.66667" stroke-miterlimit="8" fill="#AFABAB" fill-rule="evenodd"/><path d="M509.5 154C522.479 154 533 185.788 533 225 533 264.212 522.479 296 509.5 296 496.521 296 486 264.212 486 225 486 185.788 496.521 154 509.5 154Z" stroke="#3B3838" stroke-width="2.33333" stroke-linejoin="round" stroke-miterlimit="10" stroke-dasharray="7 2.33333" fill="none" fill-rule="evenodd"/><path d="M532.224 334.307 529.964 327.682 532.172 326.929 534.432 333.554ZM529.21 325.474 526.95 318.849 529.158 318.095 531.419 324.72ZM526.197 316.64 523.937 310.015 526.145 309.262 528.405 315.887ZM523.183 307.807 520.923 301.182 523.131 300.428 525.392 307.053ZM520.17 298.973 519.048 295.686 521.257 294.933 522.378 298.22ZM516.797 297.863 518 289 524.369 295.28Z"/><path d="M428.5 548.5C428.5 541.32 434.32 535.5 441.5 535.5 448.68 535.5 454.5 541.32 454.5 548.5 454.5 555.68 448.68 561.5 441.5 561.5 434.32 561.5 428.5 555.68 428.5 548.5Z" stroke="#000000" stroke-width="2.66667" stroke-miterlimit="8" fill="#4472C4" fill-rule="evenodd"/></g></svg>