<svg width="366" height="705" xmlns="http://www.w3.org/2000/svg" xmlns:xlink="http://www.w3.org/1999/xlink" overflow="hidden"><defs><clipPath id="clip0"><rect x="477" y="16" width="366" height="705"/></clipPath></defs><g clip-path="url(#clip0)" transform="translate(-477 -16)"><path d="M477.167 55.8131 841.337 55.8131" stroke="#000000" stroke-width="1.33333" stroke-linejoin="round" stroke-miterlimit="10" fill="none" fill-rule="evenodd"/><path d="M477.167 94.2131 841.337 94.2131" stroke="#000000" stroke-width="1.33333" stroke-linejoin="round" stroke-miterlimit="10" fill="none" fill-rule="evenodd"/><path d="M477.167 132.613 841.337 132.613" stroke="#000000" stroke-width="1.33333" stroke-linejoin="round" stroke-miterlimit="10" fill="none" fill-rule="evenodd"/><path d="M477.167 173.66 841.337 173.66" stroke="#000000" stroke-width="1.33333" stroke-linejoin="round" stroke-miterlimit="10" fill="none" fill-rule="evenodd"/><path d="M477.167 212.06 841.337 212.06" stroke="#000000" stroke-width="1.33333" stroke-linejoin="round" stroke-miterlimit="10" fill="none" fill-rule="evenodd"/><path d="M477.167 250.46 841.337 250.46" stroke="#000000" stroke-width="1.33333" stroke-linejoin="round" stroke-miterlimit="10" fill="none" fill-rule="evenodd"/><path d="M477.167 288.86 841.337 288.86" stroke="#000000" stroke-width="1.33333" stroke-linejoin="round" stroke-miterlimit="10" fill="none" fill-rule="evenodd"/><path d="M477.167 327.26 841.337 327.26" stroke="#000000" stroke-width="1.33333" stroke-linejoin="round" stroke-miterlimit="10" fill="none" fill-rule="evenodd"/><path d="M477.167 365.66 841.337 365.66" stroke="#000000" stroke-width="1.33333" stroke-linejoin="round" stroke-miterlimit="10" fill="none" fill-rule="evenodd"/><path d="M477.167 406.707 841.337 406.707" stroke="#000000" stroke-width="1.33333" stroke-linejoin="round" stroke-miterlimit="10" fill="none" fill-rule="evenodd"/><path d="M477.167 445.107 841.337 445.107" stroke="#000000" stroke-width="1.33333" stroke-linejoin="round" stroke-miterlimit="10" fill="none" fill-rule="evenodd"/><path d="M477.167 486.153 841.337 486.153" stroke="#000000" stroke-width="1.33333" stroke-linejoin="round" stroke-miterlimit="10" fill="none" fill-rule="evenodd"/><path d="M477.167 524.553 841.337 524.553" stroke="#000000" stroke-width="1.33333" stroke-linejoin="round" stroke-miterlimit="10" fill="none" fill-rule="evenodd"/><path d="M477.167 565.6 841.337 565.6" stroke="#000000" stroke-width="1.33333" stroke-linejoin="round" stroke-miterlimit="10" fill="none" fill-rule="evenodd"/><path d="M477.834 16.7465 477.834 719.867" stroke="#000000" stroke-width="1.33333" stroke-linejoin="round" stroke-miterlimit="10" fill="none" fill-rule="evenodd"/><path d="M840.67 16.7465 840.67 719.867" stroke="#000000" stroke-width="1.33333" stroke-linejoin="round" stroke-miterlimit="10" fill="none" fill-rule="evenodd"/><path d="M477.167 17.4131 841.337 17.4131" stroke="#000000" stroke-width="1.33333" stroke-linejoin="round" stroke-miterlimit="10" fill="none" fill-rule="evenodd"/><path d="M477.167 719.2 841.337 719.2" stroke="#000000" stroke-width="1.33333" stroke-linejoin="round" stroke-miterlimit="10" fill="none" fill-rule="evenodd"/><text font-family="Cambria Math,Cambria Math_MSFontService,sans-serif" font-weight="400" font-size="24" transform="translate(602.002 46)">𝑺𝒐𝒖𝒓𝒄𝒆𝑰𝒅<tspan font-size="24" x="24.1785" y="37">𝑫𝒔𝒕𝑰𝒅</tspan><tspan font-size="24" x="11.2652" y="75">𝑫𝒔</tspan>𝒕<tspan font-size="18" x="51.2652" y="80">𝒙</tspan><tspan font-size="24" x="62.4252" y="75">𝒑𝒐𝒔</tspan><tspan font-size="24" x="11.0986" y="114">𝑫𝒔</tspan>𝒕<tspan font-size="18" x="51.0986" y="119">𝒚</tspan><tspan font-size="24" x="62.5919" y="114">𝒑𝒐𝒔</tspan><tspan font-size="24" x="33.8367" y="154">𝑰</tspan>𝑫<tspan font-size="18" x="62.3367" y="159">𝟏</tspan><tspan font-size="24" x="37.1852" y="193">𝑰</tspan>𝑫<tspan font-size="18" x="65.6852" y="198">𝟐</tspan><tspan font-family="Yu Gothic,Yu Gothic_MSFontService,sans-serif" font-style="oblique" font-weight="700" font-size="24" x="47.1785" y="231">...</tspan><tspan font-size="24" x="35.7652" y="270">𝑰</tspan>𝑫<tspan font-size="18" x="64.2652" y="275">𝑵</tspan><tspan font-size="24" x="-0.996643" y="308">𝑺𝒆𝒏𝒅</tspan><tspan font-size="18" x="56.8367" y="313">𝒙</tspan><tspan font-size="24" x="67.9967" y="308">𝒑𝒐𝒔</tspan><tspan font-size="24" x="-1.16333" y="347">𝑺𝒆𝒏𝒅</tspan><tspan font-size="18" x="56.67" y="352">𝒚</tspan><tspan font-size="24" x="68.1633" y="347">𝒑𝒐𝒔</tspan><tspan font-size="24" x="7.42004" y="388">𝑳𝒔</tspan>𝒏<tspan font-size="18" x="48.42" y="392">𝒙</tspan><tspan font-size="24" x="59.58" y="388">𝒑𝒐𝒔</tspan><tspan font-size="24" x="7.25336" y="427">𝑳𝒔</tspan>𝒏<tspan font-size="18" x="48.2534" y="432">𝒚</tspan><tspan font-size="24" x="59.7467" y="427">𝒑𝒐𝒔</tspan><tspan font-size="24" x="-0.830017" y="467">𝑷𝑳𝒔</tspan>𝒏<tspan font-size="18" x="56.67" y="472">𝒙</tspan><tspan font-size="24" x="67.83" y="467">𝒑𝒐𝒔</tspan><tspan font-size="24" x="-0.996643" y="506">𝑷𝑳𝒔</tspan>𝒏<tspan font-size="18" x="56.5034" y="511">𝒚</tspan><tspan font-size="24" x="67.9967" y="506">𝒑𝒐𝒔</tspan><tspan font-size="24" x="25" y="604">𝑫𝒂𝒕𝒂</tspan></text></g></svg>