<svg width="575" height="365" xmlns="http://www.w3.org/2000/svg" xmlns:xlink="http://www.w3.org/1999/xlink" overflow="hidden"><defs><clipPath id="clip0"><rect x="254" y="343" width="575" height="365"/></clipPath><clipPath id="clip1"><rect x="254" y="343" width="574" height="364"/></clipPath><clipPath id="clip2"><rect x="327" y="358" width="487" height="278"/></clipPath><clipPath id="clip3"><rect x="254" y="343" width="574" height="364"/></clipPath><clipPath id="clip4"><rect x="254" y="343" width="574" height="364"/></clipPath><clipPath id="clip5"><rect x="254" y="343" width="574" height="364"/></clipPath><clipPath id="clip6"><rect x="254" y="343" width="574" height="364"/></clipPath><clipPath id="clip7"><rect x="254" y="343" width="574" height="364"/></clipPath><clipPath id="clip8"><rect x="254" y="343" width="574" height="364"/></clipPath><clipPath id="clip9"><rect x="254" y="343" width="574" height="364"/></clipPath><clipPath id="clip10"><rect x="254" y="343" width="574" height="364"/></clipPath><clipPath id="clip11"><rect x="254" y="343" width="574" height="364"/></clipPath><clipPath id="clip12"><rect x="254" y="343" width="574" height="364"/></clipPath><clipPath id="clip13"><rect x="254" y="343" width="574" height="364"/></clipPath><clipPath id="clip14"><rect x="254" y="343" width="574" height="364"/></clipPath><clipPath id="clip15"><rect x="254" y="343" width="574" height="364"/></clipPath><clipPath id="clip16"><rect x="254" y="343" width="574" height="364"/></clipPath><clipPath id="clip17"><rect x="254" y="343" width="574" height="364"/></clipPath><clipPath id="clip18"><rect x="254" y="343" width="574" height="364"/></clipPath><clipPath id="clip19"><rect x="254" y="343" width="574" height="364"/></clipPath><clipPath id="clip20"><rect x="254" y="343" width="574" height="364"/></clipPath><clipPath id="clip21"><rect x="254" y="343" width="574" height="364"/></clipPath><clipPath id="clip22"><rect x="254" y="343" width="574" height="364"/></clipPath></defs><g clip-path="url(#clip0)" transform="translate(-254 -343)"><g clip-path="url(#clip1)"><path d="M327.5 600.5 813.5 600.5M327.5 566.5 813.5 566.5M327.5 531.5 813.5 531.5M327.5 496.5 813.5 496.5M327.5 462.5 813.5 462.5M327.5 427.5 813.5 427.5M327.5 392.5 813.5 392.5M327.5 358.5 813.5 358.5" stroke="#D9D9D9" stroke-linejoin="round" stroke-miterlimit="10" fill="none"/></g><g clip-path="url(#clip2)"><path d="M352 469 373 469 373 635 352 635ZM421 550 443 550 443 635 421 635ZM491 413 512 413 512 635 491 635ZM560 491 582 491 582 635 560 635ZM629 500 651 500 651 635 629 635ZM699 502 721 502 721 635 699 635ZM768 495 790 495 790 635 768 635Z" fill="#5B9BD5"/></g><g clip-path="url(#clip3)"><path d="M327.5 635.5 813.5 635.5" stroke="#D9D9D9" stroke-linejoin="round" stroke-miterlimit="10" fill="none" fill-rule="evenodd"/></g><g clip-path="url(#clip4)"><text fill="#595959" font-family="Calibri,Calibri_MSFontService,sans-serif" font-weight="700" font-size="13" transform="translate(308.68 639)">0</text></g><g clip-path="url(#clip5)"><text fill="#595959" font-family="Calibri,Calibri_MSFontService,sans-serif" font-weight="700" font-size="13" transform="translate(308.68 605)">5</text></g><g clip-path="url(#clip6)"><text fill="#595959" font-family="Calibri,Calibri_MSFontService,sans-serif" font-weight="700" font-size="13" transform="translate(301.92 570)">10</text></g><g clip-path="url(#clip7)"><text fill="#595959" font-family="Calibri,Calibri_MSFontService,sans-serif" font-weight="700" font-size="13" transform="translate(301.92 536)">15</text></g><g clip-path="url(#clip8)"><text fill="#595959" font-family="Calibri,Calibri_MSFontService,sans-serif" font-weight="700" font-size="13" transform="translate(301.92 501)">20</text></g><g clip-path="url(#clip9)"><text fill="#595959" font-family="Calibri,Calibri_MSFontService,sans-serif" font-weight="700" font-size="13" transform="translate(301.92 466)">25</text></g><g clip-path="url(#clip10)"><text fill="#595959" font-family="Calibri,Calibri_MSFontService,sans-serif" font-weight="700" font-size="13" transform="translate(301.92 432)">30</text></g><g clip-path="url(#clip11)"><text fill="#595959" font-family="Calibri,Calibri_MSFontService,sans-serif" font-weight="700" font-size="13" transform="translate(301.92 397)">35</text></g><g clip-path="url(#clip12)"><text fill="#595959" font-family="Calibri,Calibri_MSFontService,sans-serif" font-weight="700" font-size="13" transform="translate(301.92 362)">40</text></g><g clip-path="url(#clip13)"><text fill="#595959" font-family="Calibri,Calibri_MSFontService,sans-serif" font-weight="700" font-size="13" transform="translate(334.043 657)">RCS_LSGO</text></g><g clip-path="url(#clip14)"><text fill="#595959" font-family="Calibri,Calibri_MSFontService,sans-serif" font-weight="700" font-size="13" transform="translate(414.82 657)">RCS_1</text></g><g clip-path="url(#clip15)"><text fill="#595959" font-family="Calibri,Calibri_MSFontService,sans-serif" font-weight="700" font-size="13" transform="translate(484.25 657)">RCS_2</text></g><g clip-path="url(#clip16)"><text fill="#595959" font-family="Calibri,Calibri_MSFontService,sans-serif" font-weight="700" font-size="13" transform="translate(553.68 657)">RCS_3</text></g><g clip-path="url(#clip17)"><text fill="#595959" font-family="Calibri,Calibri_MSFontService,sans-serif" font-weight="700" font-size="13" transform="translate(623.111 657)">RCS_4</text></g><g clip-path="url(#clip18)"><text fill="#595959" font-family="Calibri,Calibri_MSFontService,sans-serif" font-weight="700" font-size="13" transform="translate(692.541 657)">RCS_5</text></g><g clip-path="url(#clip19)"><text fill="#595959" font-family="Calibri,Calibri_MSFontService,sans-serif" font-weight="700" font-size="13" transform="translate(761.971 657)">RCS_6</text></g><g clip-path="url(#clip20)"><text fill="#595959" font-family="Yu Gothic,Yu Gothic_MSFontService,sans-serif" font-weight="700" font-size="16" transform="matrix(6.12323e-17 -1 1 6.12323e-17 290.153 553)">オーバーヘッド</text></g><g clip-path="url(#clip21)"><text fill="#595959" font-family="Calibri,Calibri_MSFontService,sans-serif" font-weight="700" font-size="16" transform="translate(550.357 683)">RCS</text></g><g clip-path="url(#clip22)"><text fill="#595959" font-family="Yu Gothic,Yu Gothic_MSFontService,sans-serif" font-weight="700" font-size="16" transform="translate(575.27 683)">数</text></g></g></svg>