<svg width="572" height="368" xmlns="http://www.w3.org/2000/svg" xmlns:xlink="http://www.w3.org/1999/xlink" overflow="hidden"><defs><clipPath id="clip0"><rect x="637" y="337" width="572" height="368"/></clipPath><clipPath id="clip1"><rect x="637" y="337" width="571" height="367"/></clipPath><clipPath id="clip2"><rect x="710" y="352" width="484" height="281"/></clipPath><clipPath id="clip3"><rect x="637" y="337" width="571" height="367"/></clipPath><clipPath id="clip4"><rect x="637" y="337" width="571" height="367"/></clipPath><clipPath id="clip5"><rect x="637" y="337" width="571" height="367"/></clipPath><clipPath id="clip6"><rect x="637" y="337" width="571" height="367"/></clipPath><clipPath id="clip7"><rect x="637" y="337" width="571" height="367"/></clipPath><clipPath id="clip8"><rect x="637" y="337" width="571" height="367"/></clipPath><clipPath id="clip9"><rect x="637" y="337" width="571" height="367"/></clipPath><clipPath id="clip10"><rect x="637" y="337" width="571" height="367"/></clipPath><clipPath id="clip11"><rect x="637" y="337" width="571" height="367"/></clipPath><clipPath id="clip12"><rect x="637" y="337" width="571" height="367"/></clipPath><clipPath id="clip13"><rect x="637" y="337" width="571" height="367"/></clipPath><clipPath id="clip14"><rect x="637" y="337" width="571" height="367"/></clipPath><clipPath id="clip15"><rect x="637" y="337" width="571" height="367"/></clipPath><clipPath id="clip16"><rect x="637" y="337" width="571" height="367"/></clipPath><clipPath id="clip17"><rect x="637" y="337" width="571" height="367"/></clipPath><clipPath id="clip18"><rect x="637" y="337" width="571" height="367"/></clipPath><clipPath id="clip19"><rect x="637" y="337" width="571" height="367"/></clipPath><clipPath id="clip20"><rect x="637" y="337" width="571" height="367"/></clipPath><clipPath id="clip21"><rect x="637" y="337" width="571" height="367"/></clipPath></defs><g clip-path="url(#clip0)" transform="translate(-637 -337)"><g clip-path="url(#clip1)"><path d="M710.5 592.5 1193.5 592.5M710.5 552.5 1193.5 552.5M710.5 512.5 1193.5 512.5M710.5 472.5 1193.5 472.5M710.5 432.5 1193.5 432.5M710.5 392.5 1193.5 392.5M710.5 352.5 1193.5 352.5" stroke="#D9D9D9" stroke-linejoin="round" stroke-miterlimit="10" fill="none"/></g><g clip-path="url(#clip2)"><path d="M734 555 756 555 756 632 734 632ZM803 626 825 626 825 632 803 632ZM872 452 894 452 894 632 872 632ZM941 415 963 415 963 632 941 632ZM1010 414 1032 414 1032 632 1010 632ZM1079 413 1101 413 1101 632 1079 632ZM1148 413 1170 413 1170 632 1148 632Z" fill="#5B9BD5"/></g><g clip-path="url(#clip3)"><path d="M710.5 632.5 1193.5 632.5" stroke="#D9D9D9" stroke-linejoin="round" stroke-miterlimit="10" fill="none" fill-rule="evenodd"/></g><g clip-path="url(#clip4)"><text fill="#595959" font-family="Calibri,Calibri_MSFontService,sans-serif" font-weight="700" font-size="13" transform="translate(691.659 636)">0</text></g><g clip-path="url(#clip5)"><text fill="#595959" font-family="Calibri,Calibri_MSFontService,sans-serif" font-weight="700" font-size="13" transform="translate(691.659 596)">2</text></g><g clip-path="url(#clip6)"><text fill="#595959" font-family="Calibri,Calibri_MSFontService,sans-serif" font-weight="700" font-size="13" transform="translate(691.659 556)">4</text></g><g clip-path="url(#clip7)"><text fill="#595959" font-family="Calibri,Calibri_MSFontService,sans-serif" font-weight="700" font-size="13" transform="translate(691.659 516)">6</text></g><g clip-path="url(#clip8)"><text fill="#595959" font-family="Calibri,Calibri_MSFontService,sans-serif" font-weight="700" font-size="13" transform="translate(691.659 476)">8</text></g><g clip-path="url(#clip9)"><text fill="#595959" font-family="Calibri,Calibri_MSFontService,sans-serif" font-weight="700" font-size="13" transform="translate(684.899 436)">10</text></g><g clip-path="url(#clip10)"><text fill="#595959" font-family="Calibri,Calibri_MSFontService,sans-serif" font-weight="700" font-size="13" transform="translate(684.899 396)">12</text></g><g clip-path="url(#clip11)"><text fill="#595959" font-family="Calibri,Calibri_MSFontService,sans-serif" font-weight="700" font-size="13" transform="translate(684.899 356)">14</text></g><g clip-path="url(#clip12)"><text fill="#595959" font-family="Calibri,Calibri_MSFontService,sans-serif" font-weight="700" font-size="13" transform="translate(716.808 654)">RCS_LSGO</text></g><g clip-path="url(#clip13)"><text fill="#595959" font-family="Calibri,Calibri_MSFontService,sans-serif" font-weight="700" font-size="13" transform="translate(797.156 654)">RCS_1</text></g><g clip-path="url(#clip14)"><text fill="#595959" font-family="Calibri,Calibri_MSFontService,sans-serif" font-weight="700" font-size="13" transform="translate(866.158 654)">RCS_2</text></g><g clip-path="url(#clip15)"><text fill="#595959" font-family="Calibri,Calibri_MSFontService,sans-serif" font-weight="700" font-size="13" transform="translate(935.16 654)">RCS_3</text></g><g clip-path="url(#clip16)"><text fill="#595959" font-family="Calibri,Calibri_MSFontService,sans-serif" font-weight="700" font-size="13" transform="translate(1004.16 654)">RCS_4</text></g><g clip-path="url(#clip17)"><text fill="#595959" font-family="Calibri,Calibri_MSFontService,sans-serif" font-weight="700" font-size="13" transform="translate(1073.16 654)">RCS_5</text></g><g clip-path="url(#clip18)"><text fill="#595959" font-family="Calibri,Calibri_MSFontService,sans-serif" font-weight="700" font-size="13" transform="translate(1142.17 654)">RCS_6</text></g><g clip-path="url(#clip19)"><text fill="#595959" font-family="Yu Gothic,Yu Gothic_MSFontService,sans-serif" font-weight="700" font-size="16" transform="matrix(6.12323e-17 -1 1 6.12323e-17 673.133 524)">ホップ数</text></g><g clip-path="url(#clip20)"><text fill="#595959" font-family="Calibri,Calibri_MSFontService,sans-serif" font-weight="700" font-size="16" transform="translate(931.837 680)">RCS</text></g><g clip-path="url(#clip21)"><text fill="#595959" font-family="Yu Gothic,Yu Gothic_MSFontService,sans-serif" font-weight="700" font-size="16" transform="translate(956.75 680)">数</text></g></g></svg>