<svg width="574" height="365" xmlns="http://www.w3.org/2000/svg" xmlns:xlink="http://www.w3.org/1999/xlink" overflow="hidden"><defs><clipPath id="clip0"><rect x="617" y="42" width="574" height="365"/></clipPath><clipPath id="clip1"><rect x="617" y="42" width="573" height="364"/></clipPath><clipPath id="clip2"><rect x="707" y="57" width="469" height="278"/></clipPath><clipPath id="clip3"><rect x="617" y="42" width="573" height="364"/></clipPath><clipPath id="clip4"><rect x="617" y="42" width="573" height="364"/></clipPath><clipPath id="clip5"><rect x="617" y="42" width="573" height="364"/></clipPath><clipPath id="clip6"><rect x="617" y="42" width="573" height="364"/></clipPath><clipPath id="clip7"><rect x="617" y="42" width="573" height="364"/></clipPath><clipPath id="clip8"><rect x="617" y="42" width="573" height="364"/></clipPath><clipPath id="clip9"><rect x="617" y="42" width="573" height="364"/></clipPath><clipPath id="clip10"><rect x="617" y="42" width="573" height="364"/></clipPath><clipPath id="clip11"><rect x="617" y="42" width="573" height="364"/></clipPath><clipPath id="clip12"><rect x="617" y="42" width="573" height="364"/></clipPath><clipPath id="clip13"><rect x="617" y="42" width="573" height="364"/></clipPath><clipPath id="clip14"><rect x="617" y="42" width="573" height="364"/></clipPath><clipPath id="clip15"><rect x="617" y="42" width="573" height="364"/></clipPath><clipPath id="clip16"><rect x="617" y="42" width="573" height="364"/></clipPath><clipPath id="clip17"><rect x="617" y="42" width="573" height="364"/></clipPath><clipPath id="clip18"><rect x="617" y="42" width="573" height="364"/></clipPath><clipPath id="clip19"><rect x="617" y="42" width="573" height="364"/></clipPath><clipPath id="clip20"><rect x="617" y="42" width="573" height="364"/></clipPath><clipPath id="clip21"><rect x="617" y="42" width="573" height="364"/></clipPath><clipPath id="clip22"><rect x="617" y="42" width="573" height="364"/></clipPath><clipPath id="clip23"><rect x="617" y="42" width="573" height="364"/></clipPath></defs><g clip-path="url(#clip0)" transform="translate(-617 -42)"><g clip-path="url(#clip1)"><path d="M707.5 288.5 1175.5 288.5M707.5 242.5 1175.5 242.5M707.5 195.5 1175.5 195.5M707.5 149.5 1175.5 149.5M707.5 103.5 1175.5 103.5M707.5 57.5001 1175.5 57.5001" stroke="#D9D9D9" stroke-linejoin="round" stroke-miterlimit="10" fill="none"/></g><g clip-path="url(#clip2)"><path d="M731 283 752 283 752 334 731 334ZM798 334 818 334 818 334 798 334ZM864 205 885 205 885 334 864 334ZM931 115 952 115 952 334 931 334ZM998 66 1019 66 1019 334 998 334ZM1065 61 1086 61 1086 334 1065 334ZM1132 61 1153 61 1153 334 1132 334Z" fill="#5B9BD5"/></g><g clip-path="url(#clip3)"><path d="M707.5 334.5 1175.5 334.5" stroke="#D9D9D9" stroke-linejoin="round" stroke-miterlimit="10" fill="none" fill-rule="evenodd"/></g><g clip-path="url(#clip4)"><text fill="#595959" font-family="Calibri,Calibri_MSFontService,sans-serif" font-weight="700" font-size="13" transform="translate(688.596 338)">0</text></g><g clip-path="url(#clip5)"><text fill="#595959" font-family="Calibri,Calibri_MSFontService,sans-serif" font-weight="700" font-size="13" transform="translate(664.756 292)">0.005</text></g><g clip-path="url(#clip6)"><text fill="#595959" font-family="Calibri,Calibri_MSFontService,sans-serif" font-weight="700" font-size="13" transform="translate(671.516 246)">0.01</text></g><g clip-path="url(#clip7)"><text fill="#595959" font-family="Calibri,Calibri_MSFontService,sans-serif" font-weight="700" font-size="13" transform="translate(664.756 200)">0.015</text></g><g clip-path="url(#clip8)"><text fill="#595959" font-family="Calibri,Calibri_MSFontService,sans-serif" font-weight="700" font-size="13" transform="translate(671.516 154)">0.02</text></g><g clip-path="url(#clip9)"><text fill="#595959" font-family="Calibri,Calibri_MSFontService,sans-serif" font-weight="700" font-size="13" transform="translate(664.756 108)">0.025</text></g><g clip-path="url(#clip10)"><text fill="#595959" font-family="Calibri,Calibri_MSFontService,sans-serif" font-weight="700" font-size="13" transform="translate(671.516 61)">0.03</text></g><g clip-path="url(#clip11)"><text fill="#595959" font-family="Calibri,Calibri_MSFontService,sans-serif" font-weight="700" font-size="13" transform="translate(712.667 356)">RCS_LSGO</text></g><g clip-path="url(#clip12)"><text fill="#595959" font-family="Calibri,Calibri_MSFontService,sans-serif" font-weight="700" font-size="13" transform="translate(790.862 356)">RCS_1</text></g><g clip-path="url(#clip13)"><text fill="#595959" font-family="Calibri,Calibri_MSFontService,sans-serif" font-weight="700" font-size="13" transform="translate(857.709 356)">RCS_2</text></g><g clip-path="url(#clip14)"><text fill="#595959" font-family="Calibri,Calibri_MSFontService,sans-serif" font-weight="700" font-size="13" transform="translate(924.557 356)">RCS_3</text></g><g clip-path="url(#clip15)"><text fill="#595959" font-family="Calibri,Calibri_MSFontService,sans-serif" font-weight="700" font-size="13" transform="translate(991.404 356)">RCS_4</text></g><g clip-path="url(#clip16)"><text fill="#595959" font-family="Calibri,Calibri_MSFontService,sans-serif" font-weight="700" font-size="13" transform="translate(1058.25 356)">RCS_5</text></g><g clip-path="url(#clip17)"><text fill="#595959" font-family="Calibri,Calibri_MSFontService,sans-serif" font-weight="700" font-size="13" transform="translate(1125.1 356)">RCS_6</text></g><g clip-path="url(#clip18)"><text fill="#595959" font-family="Yu Gothic,Yu Gothic_MSFontService,sans-serif" font-weight="700" font-size="16" transform="matrix(6.12323e-17 -1 1 6.12323e-17 652.989 289)">エンドツーエンド遅延</text></g><g clip-path="url(#clip19)"><text fill="#595959" font-family="Calibri,Calibri_MSFontService,sans-serif" font-weight="700" font-size="16" transform="matrix(6.12323e-17 -1 1 6.12323e-17 652.989 129)">(</text></g><g clip-path="url(#clip20)"><text fill="#595959" font-family="Yu Gothic,Yu Gothic_MSFontService,sans-serif" font-weight="700" font-size="16" transform="matrix(6.12323e-17 -1 1 6.12323e-17 652.989 124)">秒</text></g><g clip-path="url(#clip21)"><text fill="#595959" font-family="Calibri,Calibri_MSFontService,sans-serif" font-weight="700" font-size="16" transform="matrix(6.12323e-17 -1 1 6.12323e-17 652.989 108)">)</text></g><g clip-path="url(#clip22)"><text fill="#595959" font-family="Calibri,Calibri_MSFontService,sans-serif" font-weight="700" font-size="16" transform="translate(921.233 382)">RCS</text></g><g clip-path="url(#clip23)"><text fill="#595959" font-family="Yu Gothic,Yu Gothic_MSFontService,sans-serif" font-weight="700" font-size="16" transform="translate(946.147 382)">数</text></g></g></svg>