<svg width="251" height="239" xmlns="http://www.w3.org/2000/svg" xmlns:xlink="http://www.w3.org/1999/xlink" overflow="hidden"><defs><clipPath id="clip0"><rect x="926" y="48" width="251" height="239"/></clipPath></defs><g clip-path="url(#clip0)" transform="translate(-926 -48)"><rect x="928.5" y="50.5001" width="247" height="233" stroke="#000000" stroke-width="2.66667" stroke-miterlimit="8" fill="#FFFFFF"/><rect x="946.5" y="68.5001" width="28" height="29" stroke="#787878" stroke-width="1.33333" stroke-miterlimit="8" fill="#A5A5A5"/><rect x="992.5" y="68.5001" width="28" height="29" stroke="#787878" stroke-width="1.33333" stroke-miterlimit="8" fill="#A5A5A5"/><rect x="1038.5" y="68.5001" width="29" height="29" stroke="#787878" stroke-width="1.33333" stroke-miterlimit="8" fill="#A5A5A5"/><rect x="1085.5" y="68.5001" width="28" height="29" stroke="#787878" stroke-width="1.33333" stroke-miterlimit="8" fill="#A5A5A5"/><rect x="1131.5" y="68.5001" width="28" height="29" stroke="#787878" stroke-width="1.33333" stroke-miterlimit="8" fill="#A5A5A5"/><rect x="945.5" y="111.5" width="28" height="29" stroke="#787878" stroke-width="1.33333" stroke-miterlimit="8" fill="#A5A5A5"/><rect x="991.5" y="111.5" width="29" height="29" stroke="#787878" stroke-width="1.33333" stroke-miterlimit="8" fill="#A5A5A5"/><rect x="1038.5" y="111.5" width="28" height="29" stroke="#787878" stroke-width="1.33333" stroke-miterlimit="8" fill="#A5A5A5"/><rect x="1084.5" y="111.5" width="28" height="29" stroke="#787878" stroke-width="1.33333" stroke-miterlimit="8" fill="#A5A5A5"/><rect x="1130.5" y="111.5" width="29" height="29" stroke="#787878" stroke-width="1.33333" stroke-miterlimit="8" fill="#A5A5A5"/><rect x="946.5" y="154.5" width="28" height="29" stroke="#787878" stroke-width="1.33333" stroke-miterlimit="8" fill="#A5A5A5"/><rect x="992.5" y="154.5" width="28" height="29" stroke="#787878" stroke-width="1.33333" stroke-miterlimit="8" fill="#A5A5A5"/><rect x="1038.5" y="154.5" width="29" height="29" stroke="#787878" stroke-width="1.33333" stroke-miterlimit="8" fill="#A5A5A5"/><rect x="1085.5" y="154.5" width="28" height="29" stroke="#787878" stroke-width="1.33333" stroke-miterlimit="8" fill="#A5A5A5"/><rect x="1131.5" y="154.5" width="28" height="29" stroke="#787878" stroke-width="1.33333" stroke-miterlimit="8" fill="#A5A5A5"/><rect x="946.5" y="197.5" width="28" height="29" stroke="#787878" stroke-width="1.33333" stroke-miterlimit="8" fill="#A5A5A5"/><rect x="992.5" y="197.5" width="28" height="29" stroke="#787878" stroke-width="1.33333" stroke-miterlimit="8" fill="#A5A5A5"/><rect x="1038.5" y="197.5" width="29" height="29" stroke="#787878" stroke-width="1.33333" stroke-miterlimit="8" fill="#A5A5A5"/><rect x="1085.5" y="197.5" width="28" height="29" stroke="#787878" stroke-width="1.33333" stroke-miterlimit="8" fill="#A5A5A5"/><rect x="1131.5" y="197.5" width="28" height="29" stroke="#787878" stroke-width="1.33333" stroke-miterlimit="8" fill="#A5A5A5"/><rect x="946.5" y="240.5" width="28" height="28" stroke="#787878" stroke-width="1.33333" stroke-miterlimit="8" fill="#A5A5A5"/><rect x="992.5" y="240.5" width="28" height="28" stroke="#787878" stroke-width="1.33333" stroke-miterlimit="8" fill="#A5A5A5"/><rect x="1038.5" y="240.5" width="29" height="28" stroke="#787878" stroke-width="1.33333" stroke-miterlimit="8" fill="#A5A5A5"/><rect x="1085.5" y="240.5" width="28" height="28" stroke="#787878" stroke-width="1.33333" stroke-miterlimit="8" fill="#A5A5A5"/><rect x="1131.5" y="240.5" width="28" height="28" stroke="#787878" stroke-width="1.33333" stroke-miterlimit="8" fill="#A5A5A5"/><path d="M935 59 1168.02 59.9434" stroke="#A6A6A6" stroke-width="2.33333" stroke-miterlimit="8" stroke-dasharray="18.6667 7" fill="none" fill-rule="evenodd"/><path d="M0 0 212.873 0.484829" stroke="#A6A6A6" stroke-width="2.33333" stroke-miterlimit="8" stroke-dasharray="18.6667 7" fill="none" fill-rule="evenodd" transform="matrix(1 0 0 -1 946 103.485)"/><path d="M945 147 1158.56 147.087" stroke="#A6A6A6" stroke-width="2.33333" stroke-miterlimit="8" stroke-dasharray="18.6667 7" fill="none" fill-rule="evenodd"/><path d="M945 190 1158.56 190.087" stroke="#A6A6A6" stroke-width="2.33333" stroke-miterlimit="8" stroke-dasharray="18.6667 7" fill="none" fill-rule="evenodd"/><path d="M945 233 1158.56 233.087" stroke="#A6A6A6" stroke-width="2.33333" stroke-miterlimit="8" stroke-dasharray="18.6667 7" fill="none" fill-rule="evenodd"/><path d="M936 275 1167.38 275" stroke="#A6A6A6" stroke-width="2.33333" stroke-miterlimit="8" stroke-dasharray="18.6667 7" fill="none" fill-rule="evenodd"/><path d="M936 59 936 274.656" stroke="#A6A6A6" stroke-width="2.33333" stroke-miterlimit="8" stroke-dasharray="18.6667 7" fill="none" fill-rule="evenodd"/><path d="M983 50 983 283.023" stroke="#A6A6A6" stroke-width="2.33333" stroke-miterlimit="8" stroke-dasharray="18.6667 7" fill="none" fill-rule="evenodd"/><path d="M1029 50 1029 283.023" stroke="#A6A6A6" stroke-width="2.33333" stroke-miterlimit="8" stroke-dasharray="18.6667 7" fill="none" fill-rule="evenodd"/><path d="M1076 51 1076 284.023" stroke="#A6A6A6" stroke-width="2.33333" stroke-miterlimit="8" stroke-dasharray="18.6667 7" fill="none" fill-rule="evenodd"/><path d="M1124 52 1124 285.023" stroke="#A6A6A6" stroke-width="2.33333" stroke-miterlimit="8" stroke-dasharray="18.6667 7" fill="none" fill-rule="evenodd"/><path d="M1168 59 1168 274.656" stroke="#A6A6A6" stroke-width="2.33333" stroke-miterlimit="8" stroke-dasharray="18.6667 7" fill="none" fill-rule="evenodd"/></g></svg>