<svg width="819" height="529" xmlns="http://www.w3.org/2000/svg" xmlns:xlink="http://www.w3.org/1999/xlink" overflow="hidden"><defs><clipPath id="clip0"><rect x="185" y="87" width="819" height="529"/></clipPath></defs><g clip-path="url(#clip0)" transform="translate(-185 -87)"><path d="M186.5 175.335C186.5 127.377 225.377 88.5001 273.335 88.5001L916.665 88.5001C964.623 88.5001 1003.5 127.377 1003.5 175.335L1003.5 522.665C1003.5 570.623 964.623 609.5 916.665 609.5L273.335 609.5C225.377 609.5 186.5 570.623 186.5 522.665Z" stroke="#000000" stroke-width="1.33333" stroke-miterlimit="8" fill="#FFFFFF" fill-rule="evenodd"/><rect x="593.5" y="157.5" width="227" height="136" stroke="#000000" stroke-width="1.33333" stroke-miterlimit="8" fill="#B4C7E7"/><text font-family="Yu Gothic,Yu Gothic_MSFontService,sans-serif" font-weight="700" font-size="19" transform="translate(665.556 180)">Geocast<tspan font-size="19" x="80" y="0">Region</tspan></text><path d="M0.742952-0.899518 56.3077 44.9939 54.8218 46.7929-0.742952 0.899518ZM57.0839 41.9602 60.7048 50.1388 51.9894 48.1283Z" transform="matrix(1 0 0 -1 303 492.139)"/><text font-family="Cambria Math,Cambria Math_MSFontService,sans-serif" font-weight="400" font-size="24" transform="translate(270.759 522)">ğ‘º</text><path d="M290.5 497.5C290.5 493.082 294.082 489.5 298.5 489.5 302.918 489.5 306.5 493.082 306.5 497.5 306.5 501.918 302.918 505.5 298.5 505.5 294.082 505.5 290.5 501.918 290.5 497.5Z" stroke="#000000" stroke-width="1.33333" stroke-miterlimit="8" fill-rule="evenodd"/><path d="M357.5 434.5C357.5 430.082 360.858 426.5 365 426.5 369.142 426.5 372.5 430.082 372.5 434.5 372.5 438.918 369.142 442.5 365 442.5 360.858 442.5 357.5 438.918 357.5 434.5Z" stroke="#000000" stroke-width="1.33333" stroke-miterlimit="8" fill-rule="evenodd"/><path d="M256.5 414C256.5 409.858 259.858 406.5 264 406.5 268.142 406.5 271.5 409.858 271.5 414 271.5 418.142 268.142 421.5 264 421.5 259.858 421.5 256.5 418.142 256.5 414Z" stroke="#000000" stroke-width="1.33333" stroke-miterlimit="8" fill-rule="evenodd"/><path d="M297.209 489.753 266.872 427.504 268.969 426.482 299.306 488.731ZM264.909 429.944 265 421 272.1 426.439Z"/><path d="M1.08428-0.430625 16.5528 38.518 14.3842 39.3793-1.08428 0.430625ZM18.6939 36.233 17.9292 45.1446 11.2588 39.1859Z" transform="matrix(1 0 0 -1 264 406.145)"/><path d="M411.5 492C411.5 487.858 414.858 484.5 419 484.5 423.142 484.5 426.5 487.858 426.5 492 426.5 496.142 423.142 499.5 419 499.5 414.858 499.5 411.5 496.142 411.5 492Z" stroke="#000000" stroke-width="1.33333" stroke-miterlimit="8" fill-rule="evenodd"/><path d="M274.5 356C274.5 351.858 277.858 348.5 282 348.5 286.142 348.5 289.5 351.858 289.5 356 289.5 360.142 286.142 363.5 282 363.5 277.858 363.5 274.5 360.142 274.5 356Z" stroke="#000000" stroke-width="1.33333" stroke-miterlimit="8" fill-rule="evenodd"/><path d="M369.913 438.273 407.371 485.292 405.546 486.746 368.087 439.727ZM408.756 482.484 410.613 491.233 402.499 487.468Z"/><path d="M0.382525-1.10217 6.99556 1.19298 6.23052 3.39732-0.382525 1.10217ZM9.19991 1.95803 15.813 4.25317 15.0479 6.45752 8.43486 4.16237ZM18.0173 5.01822 24.6303 7.31337 23.8653 9.51772 17.2522 7.22257ZM26.8347 8.07842 33.4477 10.3736 32.6827 12.5779 26.0696 10.2828ZM35.6521 11.1386 42.2651 13.4338 41.5001 15.6381 34.887 13.343ZM44.4695 14.1988 51.0825 16.494 50.3174 18.6983 43.7044 16.4032ZM53.2868 17.259 55.6836 18.0909 54.9186 20.2952 52.5218 19.4634ZM55.353 14.977 61.5993 21.3789 52.73 22.5347Z" transform="matrix(1 0 0 -1 428 492.379)"/><text font-family="Cambria Math,Cambria Math_MSFontService,sans-serif" font-weight="400" font-size="24" transform="translate(228.155 423)">ğ‘¾<tspan font-size="24" x="105.629" y="25">ğ‘¿</tspan><tspan font-size="24" x="190.407" y="104">ğ’€</tspan><tspan font-family="Yu Gothic,Yu Gothic_MSFontService,sans-serif" font-weight="700" font-size="19" x="504.04" y="176">Network Space</tspan></text><text font-family="Yu Gothic,Yu Gothic_MSFontService,sans-serif" font-weight="700" font-size="32" transform="matrix(0.956112 -0.293002 0.293002 0.956112 439.932 503)">Ã—</text><path d="M491.5 467C491.5 462.858 495.082 459.5 499.5 459.5 503.918 459.5 507.5 462.858 507.5 467 507.5 471.142 503.918 474.5 499.5 474.5 495.082 474.5 491.5 471.142 491.5 467Z" stroke="#000000" stroke-width="1.33333" stroke-miterlimit="8" fill-rule="evenodd"/><path d="M0 0 334.12 204.457" stroke="#767171" stroke-width="0.666667" stroke-miterlimit="8" fill="none" fill-rule="evenodd" transform="matrix(-1 0 0 1 703.62 224.5)"/><path d="M0 0 284.127 265.259" stroke="#767171" stroke-width="0.666667" stroke-miterlimit="8" fill="none" fill-rule="evenodd" transform="matrix(-1 0 0 1 705.627 225.5)"/><path d="M0 0 433.956 187.989" stroke="#767171" stroke-width="0.666667" stroke-miterlimit="8" fill="none" fill-rule="evenodd" transform="matrix(-1 0 0 1 705.456 226.5)"/><path d="M0 0 402.662 272.83" stroke="#767171" stroke-width="0.666667" stroke-miterlimit="8" fill="none" fill-rule="evenodd" transform="matrix(-1 0 0 1 704.162 226.5)"/><path d="M696.5 231.5C696.5 227.082 699.858 223.5 704 223.5 708.142 223.5 711.5 227.082 711.5 231.5 711.5 235.918 708.142 239.5 704 239.5 699.858 239.5 696.5 235.918 696.5 231.5Z" stroke="#000000" stroke-width="1.33333" stroke-miterlimit="8" fill-rule="evenodd"/><text font-family="Yu Gothic,Yu Gothic_MSFontService,sans-serif" font-weight="700" font-size="19" transform="translate(711.076 257)">Center Coordinates<tspan font-family="Cambria Math,Cambria Math_MSFontService,sans-serif" font-weight="400" font-size="24" x="-164.976" y="126">ğ‘«ğ’Šğ’”</tspan><tspan font-family="Cambria Math,Cambria Math_MSFontService,sans-serif" font-weight="400" font-size="24" x="-126.142" y="126">ğ’•</tspan><tspan font-family="Cambria Math,Cambria Math_MSFontService,sans-serif" font-weight="400" font-size="18" x="-116.142" y="131">ğ’š</tspan><tspan font-family="Cambria Math,Cambria Math_MSFontService,sans-serif" font-weight="400" font-size="24" x="-289.358" y="173">ğ‘«ğ’Šğ’”</tspan><tspan font-family="Cambria Math,Cambria Math_MSFontService,sans-serif" font-weight="400" font-size="24" x="-250.524" y="173">ğ’•</tspan><tspan font-family="Cambria Math,Cambria Math_MSFontService,sans-serif" font-weight="400" font-size="18" x="-240.524" y="178">ğ’”</tspan><tspan font-family="Cambria Math,Cambria Math_MSFontService,sans-serif" font-weight="400" font-size="24" x="-330.399" y="134">ğ‘«ğ’Šğ’”</tspan><tspan font-family="Cambria Math,Cambria Math_MSFontService,sans-serif" font-weight="400" font-size="24" x="-291.565" y="134">ğ’•</tspan><tspan font-family="Cambria Math,Cambria Math_MSFontService,sans-serif" font-weight="400" font-size="18" x="-281.565" y="139">ğ’™</tspan><tspan font-family="Cambria Math,Cambria Math_MSFontService,sans-serif" font-weight="400" font-size="24" x="-295.942" y="66">ğ‘«ğ’Šğ’”</tspan><tspan font-family="Cambria Math,Cambria Math_MSFontService,sans-serif" font-weight="400" font-size="24" x="-257.109" y="66">ğ’•</tspan><tspan font-family="Cambria Math,Cambria Math_MSFontService,sans-serif" font-weight="400" font-size="18" x="-247.109" y="70">ğ’˜</tspan></text></g></svg>