<svg width="819" height="529" xmlns="http://www.w3.org/2000/svg" xmlns:xlink="http://www.w3.org/1999/xlink" overflow="hidden"><defs><clipPath id="clip0"><rect x="185" y="87" width="819" height="529"/></clipPath></defs><g clip-path="url(#clip0)" transform="translate(-185 -87)"><path d="M186.5 175.335C186.5 127.377 225.377 88.5001 273.335 88.5001L916.665 88.5001C964.623 88.5001 1003.5 127.377 1003.5 175.335L1003.5 522.665C1003.5 570.623 964.623 609.5 916.665 609.5L273.335 609.5C225.377 609.5 186.5 570.623 186.5 522.665Z" stroke="#000000" stroke-width="1.33333" stroke-miterlimit="8" fill="#FFFFFF" fill-rule="evenodd"/><rect x="300.5" y="157.5" width="521" height="340" stroke="#000000" stroke-width="2.66667" stroke-miterlimit="8" fill="#FFFFFF"/><rect x="593.5" y="157.5" width="227" height="136" stroke="#000000" stroke-width="1.33333" stroke-miterlimit="8" fill="#B4C7E7"/><text font-family="Yu Gothic,Yu Gothic_MSFontService,sans-serif" font-weight="700" font-size="19" transform="translate(665.556 180)">Geocast<tspan font-size="19" x="80" y="0">Region</tspan></text><path d="M1.0634-0.479881 29.4477 62.419 27.3209 63.3788-1.0634 0.479881ZM31.4819 60.0383 31.1265 68.9755 24.1899 63.3289Z" transform="matrix(1 0 0 -1 301 489.976)"/><text font-family="Cambria Math,Cambria Math_MSFontService,sans-serif" font-weight="400" font-size="24" transform="translate(584.558 152)">ğ‘¶<tspan font-size="24" x="248.113" y="0">ğ‘©</tspan><tspan font-size="24" x="250.867" y="148">ğ‘¸</tspan><tspan font-size="24" x="0.5" y="161">ğ‘·</tspan><tspan font-size="24" x="249.28" y="372">ğ‘ª</tspan><tspan font-size="24" x="-313.799" y="370">ğ‘º</tspan><tspan font-size="24" x="-315.389" y="0">ğ‘¨</tspan><tspan font-family="Yu Gothic,Yu Gothic_MSFontService,sans-serif" font-weight="700" font-size="19" x="44.4057" y="331">Forwarding Region</tspan></text><path d="M290.5 497.5C290.5 493.082 294.082 489.5 298.5 489.5 302.918 489.5 306.5 493.082 306.5 497.5 306.5 501.918 302.918 505.5 298.5 505.5 294.082 505.5 290.5 501.918 290.5 497.5Z" stroke="#000000" stroke-width="1.33333" stroke-miterlimit="8" fill-rule="evenodd"/><path d="M325.5 414C325.5 409.858 328.858 406.5 333 406.5 337.142 406.5 340.5 409.858 340.5 414 340.5 418.142 337.142 421.5 333 421.5 328.858 421.5 325.5 418.142 325.5 414Z" stroke="#000000" stroke-width="1.33333" stroke-miterlimit="8" fill-rule="evenodd"/><path d="M256.5 414C256.5 409.858 259.858 406.5 264 406.5 268.142 406.5 271.5 409.858 271.5 414 271.5 418.142 268.142 421.5 264 421.5 259.858 421.5 256.5 418.142 256.5 414Z" stroke="#000000" stroke-width="1.33333" stroke-miterlimit="8" fill-rule="evenodd"/><path d="M297.209 489.753 266.872 427.504 268.969 426.482 299.306 488.731ZM264.909 429.944 265 421 272.1 426.439Z"/><path d="M1.08428-0.430625 3.66804 6.07508 1.49947 6.93633-1.08428 0.430625ZM4.52929 8.24365 7.11304 14.7494 4.94447 15.6106 2.36072 9.1049ZM7.97429 16.9179 10.558 23.4236 8.38947 24.2849 5.80572 17.7792ZM11.4193 25.5922 14.003 32.0979 11.8345 32.9592 9.25072 26.4535ZM14.8643 34.2665 16.5528 38.518 14.3842 39.3793 12.6957 35.1277ZM18.6939 36.233 17.9292 45.1446 11.2588 39.1859Z" transform="matrix(1 0 0 -1 264 406.145)"/><text font-family="Yu Gothic,Yu Gothic_MSFontService,sans-serif" font-weight="700" font-size="32" transform="matrix(0.950377 0.311099 -0.311099 0.950377 254.931 391)">Ã—</text><path d="M395.5 454C395.5 449.858 398.858 446.5 403 446.5 407.142 446.5 410.5 449.858 410.5 454 410.5 458.142 407.142 461.5 403 461.5 398.858 461.5 395.5 458.142 395.5 454Z" stroke="#000000" stroke-width="1.33333" stroke-miterlimit="8" fill-rule="evenodd"/><path d="M459.5 389C459.5 384.858 462.858 381.5 467 381.5 471.142 381.5 474.5 384.858 474.5 389 474.5 393.142 471.142 396.5 467 396.5 462.858 396.5 459.5 393.142 459.5 389Z" stroke="#000000" stroke-width="1.33333" stroke-miterlimit="8" fill-rule="evenodd"/><path d="M338.607 418.004 389.513 449.042 388.298 451.035 337.393 419.996ZM389.849 445.929 394.597 453.509 385.684 452.76Z"/><path d="M0.832773-0.817068 48.1144 47.3733 46.4488 49.0075-0.832773 0.817068ZM49.203 44.4373 51.9506 52.9491 43.4926 50.04Z" transform="matrix(1 0 0 -1 409 446.949)"/><text font-family="Cambria Math,Cambria Math_MSFontService,sans-serif" font-weight="400" font-size="24" transform="translate(228.155 423)">ğ‘¾<tspan font-size="24" x="116.455" y="-13">ğ‘¿</tspan><tspan font-size="24" x="182.917" y="53">ğ’€</tspan><tspan font-size="24" x="253.851" y="-16">ğ’</tspan><tspan font-family="Yu Gothic,Yu Gothic_MSFontService,sans-serif" font-weight="700" font-size="19" x="504.04" y="176">Network Space</tspan></text></g></svg>