<svg width="704" height="586" xmlns="http://www.w3.org/2000/svg" xmlns:xlink="http://www.w3.org/1999/xlink" overflow="hidden"><defs><clipPath id="clip0"><rect x="288" y="67" width="704" height="586"/></clipPath><clipPath id="clip1"><rect x="288" y="67" width="703" height="585"/></clipPath><clipPath id="clip2"><rect x="288" y="67" width="703" height="585"/></clipPath><clipPath id="clip3"><rect x="400" y="85" width="577" height="443"/></clipPath><clipPath id="clip4"><rect x="288" y="67" width="703" height="585"/></clipPath><clipPath id="clip5"><rect x="400" y="85" width="577" height="443"/></clipPath><clipPath id="clip6"><rect x="288" y="67" width="703" height="585"/></clipPath><clipPath id="clip7"><rect x="400" y="85" width="577" height="443"/></clipPath><clipPath id="clip8"><rect x="288" y="67" width="703" height="585"/></clipPath><clipPath id="clip9"><rect x="400" y="85" width="577" height="443"/></clipPath><clipPath id="clip10"><rect x="288" y="67" width="703" height="585"/></clipPath><clipPath id="clip11"><rect x="288" y="67" width="703" height="585"/></clipPath><clipPath id="clip12"><rect x="288" y="67" width="703" height="585"/></clipPath><clipPath id="clip13"><rect x="288" y="67" width="703" height="585"/></clipPath><clipPath id="clip14"><rect x="288" y="67" width="703" height="585"/></clipPath><clipPath id="clip15"><rect x="288" y="67" width="703" height="585"/></clipPath><clipPath id="clip16"><rect x="288" y="67" width="703" height="585"/></clipPath><clipPath id="clip17"><rect x="288" y="67" width="703" height="585"/></clipPath><clipPath id="clip18"><rect x="288" y="67" width="703" height="585"/></clipPath><clipPath id="clip19"><rect x="288" y="67" width="703" height="585"/></clipPath><clipPath id="clip20"><rect x="288" y="67" width="703" height="585"/></clipPath><clipPath id="clip21"><rect x="288" y="67" width="703" height="585"/></clipPath><clipPath id="clip22"><rect x="288" y="67" width="703" height="585"/></clipPath><clipPath id="clip23"><rect x="288" y="67" width="703" height="585"/></clipPath><clipPath id="clip24"><rect x="288" y="67" width="703" height="585"/></clipPath><clipPath id="clip25"><rect x="288" y="67" width="703" height="585"/></clipPath><clipPath id="clip26"><rect x="288" y="67" width="703" height="585"/></clipPath><clipPath id="clip27"><rect x="288" y="67" width="703" height="585"/></clipPath><clipPath id="clip28"><rect x="288" y="67" width="703" height="585"/></clipPath><clipPath id="clip29"><rect x="288" y="67" width="703" height="585"/></clipPath><clipPath id="clip30"><rect x="288" y="67" width="703" height="585"/></clipPath><clipPath id="clip31"><rect x="288" y="67" width="703" height="585"/></clipPath><clipPath id="clip32"><rect x="288" y="67" width="703" height="585"/></clipPath><clipPath id="clip33"><rect x="288" y="67" width="703" height="585"/></clipPath><clipPath id="clip34"><rect x="288" y="67" width="703" height="585"/></clipPath><clipPath id="clip35"><rect x="288" y="67" width="703" height="585"/></clipPath><clipPath id="clip36"><rect x="288" y="67" width="703" height="585"/></clipPath></defs><g clip-path="url(#clip0)" transform="translate(-288 -67)"><rect x="289" y="67" width="702" height="586" fill="#FFFFFF"/><g clip-path="url(#clip1)"><path d="M400.5 439.5 976.5 439.5M400.5 350.5 976.5 350.5M400.5 262.5 976.5 262.5M400.5 173.5 976.5 173.5M400.5 85.5001 976.5 85.5001" stroke="#D9D9D9" stroke-linejoin="round" stroke-miterlimit="10" fill="none"/></g><g clip-path="url(#clip2)"><path d="M400.5 527.5 976.5 527.5" stroke="#D9D9D9" stroke-linejoin="round" stroke-miterlimit="10" fill="none" fill-rule="evenodd"/></g><g clip-path="url(#clip3)"><path d="M496.5 473.5 688.5 286.5 880.5 147.5" stroke="#ED7D31" stroke-width="3" stroke-linecap="round" stroke-linejoin="round" stroke-miterlimit="10" stroke-opacity="0.941176" fill="none"/></g><g clip-path="url(#clip4)"><path d="M496.713 470.197 500.046 473.53 496.713 476.863 493.38 473.53Z" stroke="#ED7D31" stroke-linejoin="round" stroke-miterlimit="10" fill="#ED7D31"/><path d="M688.713 282.697 692.046 286.03 688.713 289.364 685.38 286.03Z" stroke="#ED7D31" stroke-linejoin="round" stroke-miterlimit="10" fill="#ED7D31"/><path d="M880.713 144.53 884.046 147.864 880.713 151.197 877.38 147.864Z" stroke="#ED7D31" stroke-linejoin="round" stroke-miterlimit="10" fill="#ED7D31"/></g><g clip-path="url(#clip5)"><path d="M496.5 418.5 688.5 252.5 880.5 184.5" stroke="#4472C4" stroke-width="3" stroke-linecap="round" stroke-linejoin="round" stroke-miterlimit="10" fill="none"/></g><g clip-path="url(#clip6)"><path d="M496.713 415.53 500.046 422.197 493.38 422.197Z" stroke="#4472C4" stroke-linejoin="round" stroke-miterlimit="10" fill="#4472C4"/><path d="M688.713 249.697 692.046 256.364 685.38 256.364Z" stroke="#4472C4" stroke-linejoin="round" stroke-miterlimit="10" fill="#4472C4"/><path d="M880.713 180.864 884.046 187.53 877.38 187.53Z" stroke="#4472C4" stroke-linejoin="round" stroke-miterlimit="10" fill="#4472C4"/></g><g clip-path="url(#clip7)"><path d="M496.5 444.5 688.5 297.5 880.5 160.5" stroke="#FF0000" stroke-width="3" stroke-linecap="round" stroke-linejoin="round" stroke-miterlimit="10" fill="none"/></g><g clip-path="url(#clip8)"><path d="M500.046 444.697C500.046 446.538 498.554 448.03 496.713 448.03 494.872 448.03 493.38 446.538 493.38 444.697 493.38 442.856 494.872 441.364 496.713 441.364 498.554 441.364 500.046 442.856 500.046 444.697Z" stroke="#FF0000" stroke-linejoin="round" stroke-miterlimit="10" fill="#FF0000"/><path d="M692.046 297.53C692.046 299.371 690.554 300.863 688.713 300.863 686.872 300.863 685.38 299.371 685.38 297.53 685.38 295.689 686.872 294.197 688.713 294.197 690.554 294.197 692.046 295.689 692.046 297.53Z" stroke="#FF0000" stroke-linejoin="round" stroke-miterlimit="10" fill="#FF0000"/><path d="M884.046 160.197C884.046 162.038 882.554 163.53 880.713 163.53 878.872 163.53 877.38 162.038 877.38 160.197 877.38 158.356 878.872 156.864 880.713 156.864 882.554 156.864 884.046 158.356 884.046 160.197Z" stroke="#FF0000" stroke-linejoin="round" stroke-miterlimit="10" fill="#FF0000"/></g><g clip-path="url(#clip9)"><path d="M496.5 506.5 688.5 302.5 880.5 187.5" stroke="#7F7F7F" stroke-width="3" stroke-linecap="round" stroke-linejoin="round" stroke-miterlimit="10" fill="none"/></g><g clip-path="url(#clip10)"><path d="M493.38 503.53 500.046 503.53 500.046 510.197 493.38 510.197Z" stroke="#7F7F7F" stroke-linejoin="round" stroke-miterlimit="10" fill="#7F7F7F"/><path d="M685.38 299.197 692.046 299.197 692.046 305.863 685.38 305.863Z" stroke="#7F7F7F" stroke-linejoin="round" stroke-miterlimit="10" fill="#7F7F7F"/><path d="M877.38 183.864 884.046 183.864 884.046 190.53 877.38 190.53Z" stroke="#7F7F7F" stroke-linejoin="round" stroke-miterlimit="10" fill="#7F7F7F"/></g><g clip-path="url(#clip11)"><text fill="#595959" font-family="Calibri,Calibri_MSFontService,sans-serif" font-weight="700" font-size="19" transform="translate(340.62 533)">0.022</text></g><g clip-path="url(#clip12)"><text fill="#595959" font-family="Calibri,Calibri_MSFontService,sans-serif" font-weight="700" font-size="19" transform="translate(340.62 445)">0.024</text></g><g clip-path="url(#clip13)"><text fill="#595959" font-family="Calibri,Calibri_MSFontService,sans-serif" font-weight="700" font-size="19" transform="translate(340.62 356)">0.026</text></g><g clip-path="url(#clip14)"><text fill="#595959" font-family="Calibri,Calibri_MSFontService,sans-serif" font-weight="700" font-size="19" transform="translate(340.62 268)">0.028</text></g><g clip-path="url(#clip15)"><text fill="#595959" font-family="Calibri,Calibri_MSFontService,sans-serif" font-weight="700" font-size="19" transform="translate(350.08 179)">0.03</text></g><g clip-path="url(#clip16)"><text fill="#595959" font-family="Calibri,Calibri_MSFontService,sans-serif" font-weight="700" font-size="19" transform="translate(340.62 91)">0.032</text></g><g clip-path="url(#clip17)"><text fill="#595959" font-family="Calibri,Calibri_MSFontService,sans-serif" font-weight="700" font-size="19" transform="translate(482.55 557)">200</text></g><g clip-path="url(#clip18)"><text fill="#595959" font-family="Calibri,Calibri_MSFontService,sans-serif" font-weight="700" font-size="19" transform="translate(674.502 557)">300</text></g><g clip-path="url(#clip19)"><text fill="#595959" font-family="Calibri,Calibri_MSFontService,sans-serif" font-weight="700" font-size="19" transform="translate(866.454 557)">400</text></g><g clip-path="url(#clip20)"><text fill="#595959" font-family="Yu Gothic,Yu Gothic_MSFontService,sans-serif" font-weight="700" font-size="19" transform="matrix(6.12323e-17 -1 1 6.12323e-17 327.38 415)">エンドツーエンド遅延</text></g><g clip-path="url(#clip21)"><text fill="#595959" font-family="Calibri,Calibri_MSFontService,sans-serif" font-weight="700" font-size="19" transform="matrix(6.12323e-17 -1 1 6.12323e-17 327.38 228)">(</text></g><g clip-path="url(#clip22)"><text fill="#595959" font-family="Yu Gothic,Yu Gothic_MSFontService,sans-serif" font-weight="700" font-size="19" transform="matrix(6.12323e-17 -1 1 6.12323e-17 327.38 222)">秒</text></g><g clip-path="url(#clip23)"><text fill="#595959" font-family="Calibri,Calibri_MSFontService,sans-serif" font-weight="700" font-size="19" transform="matrix(6.12323e-17 -1 1 6.12323e-17 327.38 204)">)</text></g><g clip-path="url(#clip24)"><text fill="#595959" font-family="Yu Gothic,Yu Gothic_MSFontService,sans-serif" font-weight="700" font-size="19" transform="translate(651.359 588)">ノード数</text></g><g clip-path="url(#clip25)"><path d="M433.5 629.5 458.5 629.5" stroke="#ED7D31" stroke-width="3" stroke-linecap="round" stroke-linejoin="round" stroke-miterlimit="10" stroke-opacity="0.941176" fill="none" fill-rule="evenodd"/></g><g clip-path="url(#clip26)"><path d="M446 626.167 449.333 629.5 446 632.833 442.667 629.5Z" stroke="#ED7D31" stroke-linejoin="round" stroke-miterlimit="10" fill="#ED7D31"/></g><g clip-path="url(#clip27)"><text fill="#595959" font-family="Calibri,Calibri_MSFontService,sans-serif" font-weight="700" font-size="19" transform="translate(461.588 635)">SIGO</text></g><g clip-path="url(#clip28)"><path d="M518.5 629.5 544.5 629.5" stroke="#4472C4" stroke-width="3" stroke-linecap="round" stroke-linejoin="round" stroke-miterlimit="10" fill="none" fill-rule="evenodd"/></g><g clip-path="url(#clip29)"><path d="M531.333 626.167 534.667 632.833 528 632.833Z" stroke="#4472C4" stroke-linejoin="round" stroke-miterlimit="10" fill="#4472C4"/></g><g clip-path="url(#clip30)"><text fill="#595959" font-family="Calibri,Calibri_MSFontService,sans-serif" font-weight="700" font-size="19" transform="translate(546.922 635)">LSGO</text></g><g clip-path="url(#clip31)"><path d="M606.5 629.5 632.5 629.5" stroke="#FF0000" stroke-width="3" stroke-linecap="round" stroke-linejoin="round" stroke-miterlimit="10" fill="none" fill-rule="evenodd"/></g><g clip-path="url(#clip32)"><path d="M623.5 629.5C623.5 631.157 621.933 632.5 620 632.5 618.067 632.5 616.5 631.157 616.5 629.5 616.5 627.843 618.067 626.5 620 626.5 621.933 626.5 623.5 627.843 623.5 629.5Z" stroke="#FF0000" stroke-linejoin="round" stroke-miterlimit="10" fill="#FF0000"/></g><g clip-path="url(#clip33)"><text fill="#595959" font-family="Calibri,Calibri_MSFontService,sans-serif" font-weight="700" font-size="19" transform="translate(635.177 635)">SIGO + ORS</text></g><g clip-path="url(#clip34)"><path d="M741.5 629.5 767.5 629.5" stroke="#7F7F7F" stroke-width="3" stroke-linecap="round" stroke-linejoin="round" stroke-miterlimit="10" fill="none" fill-rule="evenodd"/></g><g clip-path="url(#clip35)"><path d="M751.5 626.5 758.5 626.5 758.5 632.5 751.5 632.5Z" stroke="#7F7F7F" stroke-linejoin="round" stroke-miterlimit="10" fill="#7F7F7F"/></g><g clip-path="url(#clip36)"><text fill="#595959" font-family="Calibri,Calibri_MSFontService,sans-serif" font-weight="700" font-size="19" transform="translate(770.205 635)">SIGO + JBR</text></g></g></svg>