<svg width="819" height="656" xmlns="http://www.w3.org/2000/svg" xmlns:xlink="http://www.w3.org/1999/xlink" overflow="hidden"><defs><clipPath id="clip0"><rect x="231" y="32" width="819" height="656"/></clipPath><clipPath id="clip1"><rect x="231" y="33" width="817" height="653"/></clipPath><clipPath id="clip2"><rect x="231" y="33" width="817" height="653"/></clipPath><clipPath id="clip3"><rect x="317" y="52" width="718" height="525"/></clipPath><clipPath id="clip4"><rect x="231" y="33" width="817" height="653"/></clipPath><clipPath id="clip5"><rect x="317" y="52" width="718" height="525"/></clipPath><clipPath id="clip6"><rect x="231" y="33" width="817" height="653"/></clipPath><clipPath id="clip7"><rect x="317" y="52" width="718" height="525"/></clipPath><clipPath id="clip8"><rect x="231" y="33" width="817" height="653"/></clipPath><clipPath id="clip9"><rect x="317" y="52" width="718" height="525"/></clipPath><clipPath id="clip10"><rect x="231" y="33" width="817" height="653"/></clipPath><clipPath id="clip11"><rect x="317" y="52" width="718" height="525"/></clipPath><clipPath id="clip12"><rect x="231" y="33" width="817" height="653"/></clipPath><clipPath id="clip13"><rect x="317" y="52" width="718" height="525"/></clipPath><clipPath id="clip14"><rect x="231" y="33" width="817" height="653"/></clipPath><clipPath id="clip15"><rect x="231" y="33" width="817" height="653"/></clipPath><clipPath id="clip16"><rect x="231" y="33" width="817" height="653"/></clipPath><clipPath id="clip17"><rect x="231" y="33" width="817" height="653"/></clipPath><clipPath id="clip18"><rect x="231" y="33" width="817" height="653"/></clipPath><clipPath id="clip19"><rect x="231" y="33" width="817" height="653"/></clipPath><clipPath id="clip20"><rect x="231" y="33" width="817" height="653"/></clipPath><clipPath id="clip21"><rect x="231" y="33" width="817" height="653"/></clipPath><clipPath id="clip22"><rect x="231" y="33" width="817" height="653"/></clipPath><clipPath id="clip23"><rect x="231" y="33" width="817" height="653"/></clipPath><clipPath id="clip24"><rect x="231" y="33" width="817" height="653"/></clipPath><clipPath id="clip25"><rect x="231" y="33" width="817" height="653"/></clipPath><clipPath id="clip26"><rect x="231" y="33" width="817" height="653"/></clipPath><clipPath id="clip27"><rect x="231" y="33" width="817" height="653"/></clipPath><clipPath id="clip28"><rect x="231" y="33" width="817" height="653"/></clipPath><clipPath id="clip29"><rect x="231" y="33" width="817" height="653"/></clipPath><clipPath id="clip30"><rect x="231" y="33" width="817" height="653"/></clipPath><clipPath id="clip31"><rect x="231" y="33" width="817" height="653"/></clipPath><clipPath id="clip32"><rect x="231" y="33" width="817" height="653"/></clipPath><clipPath id="clip33"><rect x="231" y="33" width="817" height="653"/></clipPath><clipPath id="clip34"><rect x="231" y="33" width="817" height="653"/></clipPath><clipPath id="clip35"><rect x="231" y="33" width="817" height="653"/></clipPath><clipPath id="clip36"><rect x="231" y="33" width="817" height="653"/></clipPath><clipPath id="clip37"><rect x="231" y="33" width="817" height="653"/></clipPath><clipPath id="clip38"><rect x="231" y="33" width="817" height="653"/></clipPath><clipPath id="clip39"><rect x="231" y="33" width="817" height="653"/></clipPath><clipPath id="clip40"><rect x="231" y="33" width="817" height="653"/></clipPath><clipPath id="clip41"><rect x="231" y="33" width="817" height="653"/></clipPath><clipPath id="clip42"><rect x="231" y="33" width="817" height="653"/></clipPath><clipPath id="clip43"><rect x="231" y="33" width="817" height="653"/></clipPath></defs><g clip-path="url(#clip0)" transform="translate(-231 -32)"><rect x="231" y="33" width="818" height="654" fill="#FFFFFF"/><g clip-path="url(#clip1)"><path d="M317.5 471.5 1034.5 471.5M317.5 366.5 1034.5 366.5M317.5 262.5 1034.5 262.5M317.5 157.5 1034.5 157.5M317.5 52.5001 1034.5 52.5001" stroke="#D9D9D9" stroke-linejoin="round" stroke-miterlimit="10" fill="none"/></g><g clip-path="url(#clip2)"><path d="M317.5 576.5 1034.5 576.5" stroke="#D9D9D9" stroke-linejoin="round" stroke-miterlimit="10" fill="none" fill-rule="evenodd"/></g><g clip-path="url(#clip3)"><path d="M436.5 240.5 675.5 432.5 914.5 540.5" stroke="#5B9BD5" stroke-width="3" stroke-linecap="round" stroke-linejoin="round" stroke-miterlimit="10" fill="none"/></g><g clip-path="url(#clip4)"><path d="M442.911 240.237C442.911 243.551 440.224 246.237 436.911 246.237 433.597 246.237 430.911 243.551 430.911 240.237 430.911 236.924 433.597 234.237 436.911 234.237 440.224 234.237 442.911 236.924 442.911 240.237Z" stroke="#5B9BD5" stroke-linejoin="round" stroke-miterlimit="10" fill="#5B9BD5"/><path d="M681.911 432.571C681.911 435.885 679.224 438.571 675.911 438.571 672.597 438.571 669.911 435.885 669.911 432.571 669.911 429.257 672.597 426.571 675.911 426.571 679.224 426.571 681.911 429.257 681.911 432.571Z" stroke="#5B9BD5" stroke-linejoin="round" stroke-miterlimit="10" fill="#5B9BD5"/><path d="M920.744 540.904C920.744 544.218 918.058 546.904 914.744 546.904 911.43 546.904 908.744 544.218 908.744 540.904 908.744 537.59 911.43 534.904 914.744 534.904 918.058 534.904 920.744 537.59 920.744 540.904Z" stroke="#5B9BD5" stroke-linejoin="round" stroke-miterlimit="10" fill="#5B9BD5"/></g><g clip-path="url(#clip5)"><path d="M436.5 272.5 675.5 434.5 914.5 550.5" stroke="#5B9BD5" stroke-width="3" stroke-linecap="round" stroke-linejoin="round" stroke-miterlimit="10" stroke-dasharray="9 12" fill="none"/></g><g clip-path="url(#clip6)"><path d="M436.911 266.404 442.911 278.404 430.911 278.404Z" stroke="#5B9BD5" stroke-linejoin="round" stroke-miterlimit="10" stroke-dasharray="4 3" fill="#5B9BD5"/><path d="M675.911 428.404 681.911 440.404 669.911 440.404Z" stroke="#5B9BD5" stroke-linejoin="round" stroke-miterlimit="10" stroke-dasharray="4 3" fill="#5B9BD5"/><path d="M914.744 544.904 920.744 556.904 908.744 556.904Z" stroke="#5B9BD5" stroke-linejoin="round" stroke-miterlimit="10" stroke-dasharray="4 3" fill="#5B9BD5"/></g><g clip-path="url(#clip7)"><path d="M436.5 145.5 675.5 371.5 914.5 507.5" stroke="#ED7D31" stroke-width="3" stroke-linecap="round" stroke-linejoin="round" stroke-miterlimit="10" fill="none"/></g><g clip-path="url(#clip8)"><path d="M442.911 145.237C442.911 148.551 440.224 151.237 436.911 151.237 433.597 151.237 430.911 148.551 430.911 145.237 430.911 141.924 433.597 139.237 436.911 139.237 440.224 139.237 442.911 141.924 442.911 145.237Z" stroke="#ED7D31" stroke-linejoin="round" stroke-miterlimit="10" fill="#ED7D31"/><path d="M681.911 371.071C681.911 374.385 679.224 377.071 675.911 377.071 672.597 377.071 669.911 374.385 669.911 371.071 669.911 367.757 672.597 365.071 675.911 365.071 679.224 365.071 681.911 367.757 681.911 371.071Z" stroke="#ED7D31" stroke-linejoin="round" stroke-miterlimit="10" fill="#ED7D31"/><path d="M920.744 507.237C920.744 510.551 918.058 513.237 914.744 513.237 911.43 513.237 908.744 510.551 908.744 507.237 908.744 503.924 911.43 501.237 914.744 501.237 918.058 501.237 920.744 503.924 920.744 507.237Z" stroke="#ED7D31" stroke-linejoin="round" stroke-miterlimit="10" fill="#ED7D31"/></g><g clip-path="url(#clip9)"><path d="M436.5 109.5 675.5 322.5 914.5 501.5" stroke="#ED7D31" stroke-width="3" stroke-linecap="round" stroke-linejoin="round" stroke-miterlimit="10" stroke-dasharray="9 12 0 12" fill="none"/></g><g clip-path="url(#clip10)"><path d="M436.911 103.237 442.911 115.237 430.911 115.237Z" stroke="#ED7D31" stroke-linejoin="round" stroke-miterlimit="10" fill="#ED7D31"/><path d="M675.911 316.904 681.911 328.904 669.911 328.904Z" stroke="#ED7D31" stroke-linejoin="round" stroke-miterlimit="10" fill="#ED7D31"/><path d="M914.744 496.071 920.744 508.071 908.744 508.071Z" stroke="#ED7D31" stroke-linejoin="round" stroke-miterlimit="10" fill="#ED7D31"/></g><g clip-path="url(#clip11)"><path d="M436.5 129.5 675.5 365.5 914.5 509.5" stroke="#70AD47" stroke-width="3" stroke-linecap="round" stroke-linejoin="round" stroke-miterlimit="10" fill="none"/></g><g clip-path="url(#clip12)"><path d="M442.911 129.571C442.911 132.885 440.224 135.571 436.911 135.571 433.597 135.571 430.911 132.885 430.911 129.571 430.911 126.257 433.597 123.571 436.911 123.571 440.224 123.571 442.911 126.257 442.911 129.571Z" stroke="#70AD47" stroke-linejoin="round" stroke-miterlimit="10" fill="#70AD47"/><path d="M681.911 365.904C681.911 369.218 679.224 371.904 675.911 371.904 672.597 371.904 669.911 369.218 669.911 365.904 669.911 362.59 672.597 359.904 675.911 359.904 679.224 359.904 681.911 362.59 681.911 365.904Z" stroke="#70AD47" stroke-linejoin="round" stroke-miterlimit="10" fill="#70AD47"/><path d="M920.744 509.904C920.744 513.218 918.058 515.904 914.744 515.904 911.43 515.904 908.744 513.218 908.744 509.904 908.744 506.59 911.43 503.904 914.744 503.904 918.058 503.904 920.744 506.59 920.744 509.904Z" stroke="#70AD47" stroke-linejoin="round" stroke-miterlimit="10" fill="#70AD47"/></g><g clip-path="url(#clip13)"><path d="M436.5 75.5001 675.5 295.5 914.5 490.5" stroke="#70AD47" stroke-width="3" stroke-linecap="round" stroke-linejoin="round" stroke-miterlimit="10" stroke-dasharray="21 12 0 12" fill="none"/></g><g clip-path="url(#clip14)"><path d="M436.911 69.9041 442.244 80.5708 431.577 80.5708Z" stroke="#70AD47" stroke-linejoin="round" stroke-miterlimit="10" fill="#70AD47"/><path d="M675.911 290.571 681.244 301.237 670.577 301.237Z" stroke="#70AD47" stroke-linejoin="round" stroke-miterlimit="10" fill="#70AD47"/><path d="M914.744 485.071 920.077 495.738 909.411 495.738Z" stroke="#70AD47" stroke-linejoin="round" stroke-miterlimit="10" fill="#70AD47"/></g><g clip-path="url(#clip15)"><text fill="#595959" font-family="Calibri,Calibri_MSFontService,sans-serif" font-weight="700" font-size="19" transform="translate(281.136 582)">18</text></g><g clip-path="url(#clip16)"><text fill="#595959" font-family="Calibri,Calibri_MSFontService,sans-serif" font-weight="700" font-size="19" transform="translate(281.136 477)">23</text></g><g clip-path="url(#clip17)"><text fill="#595959" font-family="Calibri,Calibri_MSFontService,sans-serif" font-weight="700" font-size="19" transform="translate(281.136 372)">28</text></g><g clip-path="url(#clip18)"><text fill="#595959" font-family="Calibri,Calibri_MSFontService,sans-serif" font-weight="700" font-size="19" transform="translate(281.136 268)">33</text></g><g clip-path="url(#clip19)"><text fill="#595959" font-family="Calibri,Calibri_MSFontService,sans-serif" font-weight="700" font-size="19" transform="translate(281.136 163)">38</text></g><g clip-path="url(#clip20)"><text fill="#595959" font-family="Calibri,Calibri_MSFontService,sans-serif" font-weight="700" font-size="19" transform="translate(281.136 58)">43</text></g><g clip-path="url(#clip21)"><text fill="#595959" font-family="Calibri,Calibri_MSFontService,sans-serif" font-weight="700" font-size="19" transform="translate(422.643 606)">200</text></g><g clip-path="url(#clip22)"><text fill="#595959" font-family="Calibri,Calibri_MSFontService,sans-serif" font-weight="700" font-size="19" transform="translate(661.561 606)">300</text></g><g clip-path="url(#clip23)"><text fill="#595959" font-family="Calibri,Calibri_MSFontService,sans-serif" font-weight="700" font-size="19" transform="translate(900.479 606)">400</text></g><g clip-path="url(#clip24)"><text fill="#595959" font-family="Yu Gothic,Yu Gothic_MSFontService,sans-serif" font-weight="700" font-size="24" transform="matrix(6.12323e-17 -1 1 6.12323e-17 263.906 437)">オーバーヘッド</text></g><g clip-path="url(#clip25)"><text fill="#595959" font-family="Yu Gothic,Yu Gothic_MSFontService,sans-serif" font-weight="700" font-size="24" transform="translate(627.751 643)">ノード数</text></g><g clip-path="url(#clip26)"><path d="M277.5 662.5 311.5 662.5" stroke="#5B9BD5" stroke-width="3" stroke-linecap="round" stroke-linejoin="round" stroke-miterlimit="10" fill="none" fill-rule="evenodd"/></g><g clip-path="url(#clip27)"><path d="M300.5 662.5C300.5 665.814 297.814 668.5 294.5 668.5 291.186 668.5 288.5 665.814 288.5 662.5 288.5 659.186 291.186 656.5 294.5 656.5 297.814 656.5 300.5 659.186 300.5 662.5Z" stroke="#5B9BD5" stroke-linejoin="round" stroke-miterlimit="10" fill="#5B9BD5"/></g><g clip-path="url(#clip28)"><text fill="#595959" font-family="Calibri,Calibri_MSFontService,sans-serif" font-weight="700" font-size="21" transform="translate(314.831 668)">SIGO(10)</text></g><g clip-path="url(#clip29)"><path d="M398.5 662.5 432.5 662.5" stroke="#5B9BD5" stroke-width="3" stroke-linecap="round" stroke-linejoin="round" stroke-miterlimit="10" stroke-dasharray="9 12" fill="none" fill-rule="evenodd"/></g><g clip-path="url(#clip30)"><path d="M415.167 656 421.167 668 409.167 668Z" stroke="#5B9BD5" stroke-linejoin="round" stroke-miterlimit="10" stroke-dasharray="4 3" fill="#5B9BD5"/></g><g clip-path="url(#clip31)"><text fill="#595959" font-family="Calibri,Calibri_MSFontService,sans-serif" font-weight="700" font-size="21" transform="translate(435.756 668)">LSGO(10)</text></g><g clip-path="url(#clip32)"><path d="M522.5 662.5 556.5 662.5" stroke="#ED7D31" stroke-width="3" stroke-linecap="round" stroke-linejoin="round" stroke-miterlimit="10" fill="none" fill-rule="evenodd"/></g><g clip-path="url(#clip33)"><path d="M545.5 662.5C545.5 665.814 542.814 668.5 539.5 668.5 536.186 668.5 533.5 665.814 533.5 662.5 533.5 659.186 536.186 656.5 539.5 656.5 542.814 656.5 545.5 659.186 545.5 662.5Z" stroke="#ED7D31" stroke-linejoin="round" stroke-miterlimit="10" fill="#ED7D31"/></g><g clip-path="url(#clip34)"><text fill="#595959" font-family="Calibri,Calibri_MSFontService,sans-serif" font-weight="700" font-size="21" transform="translate(560.014 668)">SIGO(20)</text></g><g clip-path="url(#clip35)"><path d="M643.5 662.5 677.5 662.5" stroke="#ED7D31" stroke-width="3" stroke-linecap="round" stroke-linejoin="round" stroke-miterlimit="10" stroke-dasharray="9 12 0 12" fill="none" fill-rule="evenodd"/></g><g clip-path="url(#clip36)"><path d="M660.333 656 666.333 668 654.333 668Z" stroke="#ED7D31" stroke-linejoin="round" stroke-miterlimit="10" fill="#ED7D31"/></g><g clip-path="url(#clip37)"><text fill="#595959" font-family="Calibri,Calibri_MSFontService,sans-serif" font-weight="700" font-size="21" transform="translate(680.939 668)">LSGO(20)</text></g><g clip-path="url(#clip38)"><path d="M767.5 662.5 801.5 662.5" stroke="#70AD47" stroke-width="3" stroke-linecap="round" stroke-linejoin="round" stroke-miterlimit="10" fill="none" fill-rule="evenodd"/></g><g clip-path="url(#clip39)"><path d="M790.5 662.5C790.5 665.814 787.814 668.5 784.5 668.5 781.186 668.5 778.5 665.814 778.5 662.5 778.5 659.186 781.186 656.5 784.5 656.5 787.814 656.5 790.5 659.186 790.5 662.5Z" stroke="#70AD47" stroke-linejoin="round" stroke-miterlimit="10" fill="#70AD47"/></g><g clip-path="url(#clip40)"><text fill="#595959" font-family="Calibri,Calibri_MSFontService,sans-serif" font-weight="700" font-size="21" transform="translate(805.197 668)">SIGO(30)</text></g><g clip-path="url(#clip41)"><path d="M888.5 662.5 922.5 662.5" stroke="#70AD47" stroke-width="3" stroke-linecap="round" stroke-linejoin="round" stroke-miterlimit="10" stroke-dasharray="21 12 0 12" fill="none" fill-rule="evenodd"/></g><g clip-path="url(#clip42)"><path d="M905.5 656.667 910.833 667.333 900.167 667.333Z" stroke="#70AD47" stroke-linejoin="round" stroke-miterlimit="10" fill="#70AD47"/></g><g clip-path="url(#clip43)"><text fill="#595959" font-family="Calibri,Calibri_MSFontService,sans-serif" font-weight="700" font-size="21" transform="translate(926.122 668)">LSGO(30)</text></g></g></svg>