<svg width="692" height="586" xmlns="http://www.w3.org/2000/svg" xmlns:xlink="http://www.w3.org/1999/xlink" overflow="hidden"><defs><clipPath id="clip0"><rect x="299" y="67" width="692" height="586"/></clipPath><clipPath id="clip1"><rect x="299" y="68" width="691" height="583"/></clipPath><clipPath id="clip2"><rect x="299" y="68" width="691" height="583"/></clipPath><clipPath id="clip3"><rect x="387" y="86" width="590" height="441"/></clipPath><clipPath id="clip4"><rect x="299" y="68" width="691" height="583"/></clipPath><clipPath id="clip5"><rect x="387" y="86" width="590" height="441"/></clipPath><clipPath id="clip6"><rect x="299" y="68" width="691" height="583"/></clipPath><clipPath id="clip7"><rect x="387" y="86" width="590" height="441"/></clipPath><clipPath id="clip8"><rect x="299" y="68" width="691" height="583"/></clipPath><clipPath id="clip9"><rect x="387" y="86" width="590" height="441"/></clipPath><clipPath id="clip10"><rect x="299" y="68" width="691" height="583"/></clipPath><clipPath id="clip11"><rect x="299" y="68" width="691" height="583"/></clipPath><clipPath id="clip12"><rect x="299" y="68" width="691" height="583"/></clipPath><clipPath id="clip13"><rect x="299" y="68" width="691" height="583"/></clipPath><clipPath id="clip14"><rect x="299" y="68" width="691" height="583"/></clipPath><clipPath id="clip15"><rect x="299" y="68" width="691" height="583"/></clipPath><clipPath id="clip16"><rect x="299" y="68" width="691" height="583"/></clipPath><clipPath id="clip17"><rect x="299" y="68" width="691" height="583"/></clipPath><clipPath id="clip18"><rect x="299" y="68" width="691" height="583"/></clipPath><clipPath id="clip19"><rect x="299" y="68" width="691" height="583"/></clipPath><clipPath id="clip20"><rect x="299" y="68" width="691" height="583"/></clipPath><clipPath id="clip21"><rect x="299" y="68" width="691" height="583"/></clipPath><clipPath id="clip22"><rect x="299" y="68" width="691" height="583"/></clipPath><clipPath id="clip23"><rect x="299" y="68" width="691" height="583"/></clipPath><clipPath id="clip24"><rect x="299" y="68" width="691" height="583"/></clipPath><clipPath id="clip25"><rect x="299" y="68" width="691" height="583"/></clipPath><clipPath id="clip26"><rect x="299" y="68" width="691" height="583"/></clipPath><clipPath id="clip27"><rect x="299" y="68" width="691" height="583"/></clipPath><clipPath id="clip28"><rect x="299" y="68" width="691" height="583"/></clipPath><clipPath id="clip29"><rect x="299" y="68" width="691" height="583"/></clipPath><clipPath id="clip30"><rect x="299" y="68" width="691" height="583"/></clipPath><clipPath id="clip31"><rect x="299" y="68" width="691" height="583"/></clipPath><clipPath id="clip32"><rect x="299" y="68" width="691" height="583"/></clipPath><clipPath id="clip33"><rect x="299" y="68" width="691" height="583"/></clipPath><clipPath id="clip34"><rect x="299" y="68" width="691" height="583"/></clipPath></defs><g clip-path="url(#clip0)" transform="translate(-299 -67)"><rect x="300" y="68" width="691" height="584" fill="#FFFFFF"/><g clip-path="url(#clip1)"><path d="M387.5 446.5 976.5 446.5M387.5 366.5 976.5 366.5M387.5 286.5 976.5 286.5M387.5 206.5 976.5 206.5M387.5 126.5 976.5 126.5" stroke="#D9D9D9" stroke-linejoin="round" stroke-miterlimit="10" fill="none"/></g><g clip-path="url(#clip2)"><path d="M387.5 526.5 976.5 526.5" stroke="#D9D9D9" stroke-linejoin="round" stroke-miterlimit="10" fill="none" fill-rule="evenodd"/></g><g clip-path="url(#clip3)"><path d="M486.5 502.5 682.5 328.5 878.5 124.5" stroke="#ED7D31" stroke-width="3" stroke-linecap="round" stroke-linejoin="round" stroke-miterlimit="10" stroke-opacity="0.941176" fill="none"/></g><g clip-path="url(#clip4)"><path d="M486.008 499.038 489.341 502.371 486.008 505.704 482.674 502.371Z" stroke="#ED7D31" stroke-linejoin="round" stroke-miterlimit="10" fill="#ED7D31"/><path d="M682.008 325.704 685.341 329.038 682.008 332.371 678.674 329.038Z" stroke="#ED7D31" stroke-linejoin="round" stroke-miterlimit="10" fill="#ED7D31"/><path d="M878.008 121.204 881.341 124.538 878.008 127.871 874.674 124.538Z" stroke="#ED7D31" stroke-linejoin="round" stroke-miterlimit="10" fill="#ED7D31"/></g><g clip-path="url(#clip5)"><path d="M486.5 510.5 682.5 348.5 878.5 158.5" stroke="#4472C4" stroke-width="3" stroke-linecap="round" stroke-linejoin="round" stroke-miterlimit="10" fill="none"/></g><g clip-path="url(#clip6)"><path d="M486.008 507.204 489.341 513.871 482.674 513.871Z" stroke="#4472C4" stroke-linejoin="round" stroke-miterlimit="10" fill="#4472C4"/><path d="M682.008 345.371 685.341 352.038 678.674 352.038Z" stroke="#4472C4" stroke-linejoin="round" stroke-miterlimit="10" fill="#4472C4"/><path d="M878.008 154.704 881.341 161.371 874.674 161.371Z" stroke="#4472C4" stroke-linejoin="round" stroke-miterlimit="10" fill="#4472C4"/></g><g clip-path="url(#clip7)"><path d="M486.5 477.5 682.5 312.5 878.5 109.5" stroke="#FF0000" stroke-width="3" stroke-linecap="round" stroke-linejoin="round" stroke-miterlimit="10" fill="none"/></g><g clip-path="url(#clip8)"><path d="M489.341 477.871C489.341 479.712 487.849 481.204 486.008 481.204 484.167 481.204 482.674 479.712 482.674 477.871 482.674 476.03 484.167 474.538 486.008 474.538 487.849 474.538 489.341 476.03 489.341 477.871Z" stroke="#FF0000" stroke-linejoin="round" stroke-miterlimit="10" fill="#FF0000"/><path d="M685.341 312.704C685.341 314.545 683.849 316.038 682.008 316.038 680.167 316.038 678.674 314.545 678.674 312.704 678.674 310.863 680.167 309.371 682.008 309.371 683.849 309.371 685.341 310.863 685.341 312.704Z" stroke="#FF0000" stroke-linejoin="round" stroke-miterlimit="10" fill="#FF0000"/><path d="M881.341 109.871C881.341 111.712 879.849 113.204 878.008 113.204 876.167 113.204 874.674 111.712 874.674 109.871 874.674 108.03 876.167 106.538 878.008 106.538 879.849 106.538 881.341 108.03 881.341 109.871Z" stroke="#FF0000" stroke-linejoin="round" stroke-miterlimit="10" fill="#FF0000"/></g><g clip-path="url(#clip9)"><path d="M486.5 498.5 682.5 324.5 878.5 120.5" stroke="#7F7F7F" stroke-width="3" stroke-linecap="round" stroke-linejoin="round" stroke-miterlimit="10" fill="none"/></g><g clip-path="url(#clip10)"><path d="M482.674 495.038 489.341 495.038 489.341 501.704 482.674 501.704Z" stroke="#7F7F7F" stroke-linejoin="round" stroke-miterlimit="10" fill="#7F7F7F"/><path d="M678.674 321.704 685.341 321.704 685.341 328.371 678.674 328.371Z" stroke="#7F7F7F" stroke-linejoin="round" stroke-miterlimit="10" fill="#7F7F7F"/><path d="M874.674 117.204 881.341 117.204 881.341 123.871 874.674 123.871Z" stroke="#7F7F7F" stroke-linejoin="round" stroke-miterlimit="10" fill="#7F7F7F"/></g><g clip-path="url(#clip11)"><text fill="#595959" font-family="Calibri,Calibri_MSFontService,sans-serif" font-weight="700" font-size="19" transform="translate(351.748 532)">20</text></g><g clip-path="url(#clip12)"><text fill="#595959" font-family="Calibri,Calibri_MSFontService,sans-serif" font-weight="700" font-size="19" transform="translate(351.748 452)">30</text></g><g clip-path="url(#clip13)"><text fill="#595959" font-family="Calibri,Calibri_MSFontService,sans-serif" font-weight="700" font-size="19" transform="translate(351.748 372)">40</text></g><g clip-path="url(#clip14)"><text fill="#595959" font-family="Calibri,Calibri_MSFontService,sans-serif" font-weight="700" font-size="19" transform="translate(351.748 292)">50</text></g><g clip-path="url(#clip15)"><text fill="#595959" font-family="Calibri,Calibri_MSFontService,sans-serif" font-weight="700" font-size="19" transform="translate(351.748 212)">60</text></g><g clip-path="url(#clip16)"><text fill="#595959" font-family="Calibri,Calibri_MSFontService,sans-serif" font-weight="700" font-size="19" transform="translate(351.748 132)">70</text></g><g clip-path="url(#clip17)"><text fill="#595959" font-family="Calibri,Calibri_MSFontService,sans-serif" font-weight="700" font-size="19" transform="translate(471.812 557)">200</text></g><g clip-path="url(#clip18)"><text fill="#595959" font-family="Calibri,Calibri_MSFontService,sans-serif" font-weight="700" font-size="19" transform="translate(667.844 557)">300</text></g><g clip-path="url(#clip19)"><text fill="#595959" font-family="Calibri,Calibri_MSFontService,sans-serif" font-weight="700" font-size="19" transform="translate(863.877 557)">400</text></g><g clip-path="url(#clip20)"><text fill="#595959" font-family="Yu Gothic,Yu Gothic_MSFontService,sans-serif" font-weight="700" font-size="19" transform="matrix(6.12323e-17 -1 1 6.12323e-17 338.508 384)">パケット到達率</text></g><g clip-path="url(#clip21)"><text fill="#595959" font-family="Calibri,Calibri_MSFontService,sans-serif" font-weight="700" font-size="19" transform="matrix(6.12323e-17 -1 1 6.12323e-17 338.508 254)">(%)</text></g><g clip-path="url(#clip22)"><text fill="#595959" font-family="Yu Gothic,Yu Gothic_MSFontService,sans-serif" font-weight="700" font-size="19" transform="translate(644.701 587)">ノード数</text></g><g clip-path="url(#clip23)"><path d="M437.5 628.5 462.5 628.5" stroke="#ED7D31" stroke-width="3" stroke-linecap="round" stroke-linejoin="round" stroke-miterlimit="10" stroke-opacity="0.941176" fill="none" fill-rule="evenodd"/></g><g clip-path="url(#clip24)"><path d="M450.167 625.333 453.5 628.667 450.167 632 446.833 628.667Z" stroke="#ED7D31" stroke-linejoin="round" stroke-miterlimit="10" fill="#ED7D31"/></g><g clip-path="url(#clip25)"><text fill="#595959" font-family="Calibri,Calibri_MSFontService,sans-serif" font-weight="700" font-size="19" transform="translate(465.689 634)">SIGO</text></g><g clip-path="url(#clip26)"><path d="M522.5 628.5 548.5 628.5" stroke="#4472C4" stroke-width="3" stroke-linecap="round" stroke-linejoin="round" stroke-miterlimit="10" fill="none" fill-rule="evenodd"/></g><g clip-path="url(#clip27)"><path d="M535.5 625.333 538.833 632 532.167 632Z" stroke="#4472C4" stroke-linejoin="round" stroke-miterlimit="10" fill="#4472C4"/></g><g clip-path="url(#clip28)"><text fill="#595959" font-family="Calibri,Calibri_MSFontService,sans-serif" font-weight="700" font-size="19" transform="translate(551.153 634)">LSGO</text></g><g clip-path="url(#clip29)"><path d="M611.5 628.5 636.5 628.5" stroke="#FF0000" stroke-width="3" stroke-linecap="round" stroke-linejoin="round" stroke-miterlimit="10" fill="none" fill-rule="evenodd"/></g><g clip-path="url(#clip30)"><path d="M627.5 629C627.5 630.933 625.933 632.5 624 632.5 622.067 632.5 620.5 630.933 620.5 629 620.5 627.067 622.067 625.5 624 625.5 625.933 625.5 627.5 627.067 627.5 629Z" stroke="#FF0000" stroke-linejoin="round" stroke-miterlimit="10" fill="#FF0000"/></g><g clip-path="url(#clip31)"><text fill="#595959" font-family="Calibri,Calibri_MSFontService,sans-serif" font-weight="700" font-size="19" transform="translate(639.537 634)">SIGO + ORS</text></g><g clip-path="url(#clip32)"><path d="M746.5 628.5 771.5 628.5" stroke="#7F7F7F" stroke-width="3" stroke-linecap="round" stroke-linejoin="round" stroke-miterlimit="10" fill="none" fill-rule="evenodd"/></g><g clip-path="url(#clip33)"><path d="M755.5 625.5 762.5 625.5 762.5 632.5 755.5 632.5Z" stroke="#7F7F7F" stroke-linejoin="round" stroke-miterlimit="10" fill="#7F7F7F"/></g><g clip-path="url(#clip34)"><text fill="#595959" font-family="Calibri,Calibri_MSFontService,sans-serif" font-weight="700" font-size="19" transform="translate(774.694 634)">SIGO + JBR</text></g></g></svg>