<svg width="698" height="590" xmlns="http://www.w3.org/2000/svg" xmlns:xlink="http://www.w3.org/1999/xlink" overflow="hidden"><defs><clipPath id="clip0"><rect x="291" y="65" width="698" height="590"/></clipPath><clipPath id="clip1"><rect x="292" y="65" width="695" height="589"/></clipPath><clipPath id="clip2"><rect x="292" y="65" width="695" height="589"/></clipPath><clipPath id="clip3"><rect x="413" y="83" width="561" height="446"/></clipPath><clipPath id="clip4"><rect x="292" y="65" width="695" height="589"/></clipPath><clipPath id="clip5"><rect x="413" y="83" width="561" height="446"/></clipPath><clipPath id="clip6"><rect x="292" y="65" width="695" height="589"/></clipPath><clipPath id="clip7"><rect x="413" y="83" width="561" height="446"/></clipPath><clipPath id="clip8"><rect x="292" y="65" width="695" height="589"/></clipPath><clipPath id="clip9"><rect x="413" y="83" width="561" height="446"/></clipPath><clipPath id="clip10"><rect x="292" y="65" width="695" height="589"/></clipPath><clipPath id="clip11"><rect x="292" y="65" width="695" height="589"/></clipPath><clipPath id="clip12"><rect x="292" y="65" width="695" height="589"/></clipPath><clipPath id="clip13"><rect x="292" y="65" width="695" height="589"/></clipPath><clipPath id="clip14"><rect x="292" y="65" width="695" height="589"/></clipPath><clipPath id="clip15"><rect x="292" y="65" width="695" height="589"/></clipPath><clipPath id="clip16"><rect x="292" y="65" width="695" height="589"/></clipPath><clipPath id="clip17"><rect x="292" y="65" width="695" height="589"/></clipPath><clipPath id="clip18"><rect x="292" y="65" width="695" height="589"/></clipPath><clipPath id="clip19"><rect x="292" y="65" width="695" height="589"/></clipPath><clipPath id="clip20"><rect x="292" y="65" width="695" height="589"/></clipPath><clipPath id="clip21"><rect x="292" y="65" width="695" height="589"/></clipPath><clipPath id="clip22"><rect x="292" y="65" width="695" height="589"/></clipPath><clipPath id="clip23"><rect x="292" y="65" width="695" height="589"/></clipPath><clipPath id="clip24"><rect x="292" y="65" width="695" height="589"/></clipPath><clipPath id="clip25"><rect x="292" y="65" width="695" height="589"/></clipPath><clipPath id="clip26"><rect x="292" y="65" width="695" height="589"/></clipPath><clipPath id="clip27"><rect x="292" y="65" width="695" height="589"/></clipPath><clipPath id="clip28"><rect x="292" y="65" width="695" height="589"/></clipPath><clipPath id="clip29"><rect x="292" y="65" width="695" height="589"/></clipPath><clipPath id="clip30"><rect x="292" y="65" width="695" height="589"/></clipPath><clipPath id="clip31"><rect x="292" y="65" width="695" height="589"/></clipPath><clipPath id="clip32"><rect x="292" y="65" width="695" height="589"/></clipPath><clipPath id="clip33"><rect x="292" y="65" width="695" height="589"/></clipPath><clipPath id="clip34"><rect x="292" y="65" width="695" height="589"/></clipPath><clipPath id="clip35"><rect x="292" y="65" width="695" height="589"/></clipPath><clipPath id="clip36"><rect x="292" y="65" width="695" height="589"/></clipPath><clipPath id="clip37"><rect x="292" y="65" width="695" height="589"/></clipPath><clipPath id="clip38"><rect x="292" y="65" width="695" height="589"/></clipPath><clipPath id="clip39"><rect x="292" y="65" width="695" height="589"/></clipPath></defs><g clip-path="url(#clip0)" transform="translate(-291 -65)"><rect x="292" y="66" width="696" height="588" fill="#FFFFFF"/><g clip-path="url(#clip1)"><path d="M413.5 473.5 973.5 473.5M413.5 417.5 973.5 417.5M413.5 362.5 973.5 362.5M413.5 306.5 973.5 306.5M413.5 250.5 973.5 250.5M413.5 195.5 973.5 195.5M413.5 139.5 973.5 139.5M413.5 83.5001 973.5 83.5001" stroke="#D9D9D9" stroke-linejoin="round" stroke-miterlimit="10" fill="none"/></g><g clip-path="url(#clip2)"><path d="M413.5 528.5 973.5 528.5" stroke="#D9D9D9" stroke-linejoin="round" stroke-miterlimit="10" fill="none" fill-rule="evenodd"/></g><g clip-path="url(#clip3)"><path d="M506.5 312.5 693.5 274.5 879.5 241.5" stroke="#ED7D31" stroke-width="3" stroke-linecap="round" stroke-linejoin="round" stroke-miterlimit="10" stroke-opacity="0.941176" fill="none"/></g><g clip-path="url(#clip4)"><path d="M506.901 309.069 510.235 312.402 506.901 315.735 503.568 312.402Z" stroke="#ED7D31" stroke-linejoin="round" stroke-miterlimit="10" fill="#ED7D31"/><path d="M693.568 271.235 696.901 274.569 693.568 277.902 690.235 274.569Z" stroke="#ED7D31" stroke-linejoin="round" stroke-miterlimit="10" fill="#ED7D31"/><path d="M880.068 237.902 883.401 241.235 880.068 244.569 876.735 241.235Z" stroke="#ED7D31" stroke-linejoin="round" stroke-miterlimit="10" fill="#ED7D31"/></g><g clip-path="url(#clip5)"><path d="M506.5 366.5 693.5 350.5 879.5 332.5" stroke="#4472C4" stroke-width="3" stroke-linecap="round" stroke-linejoin="round" stroke-miterlimit="10" fill="none"/></g><g clip-path="url(#clip6)"><path d="M506.901 363.569 510.235 370.235 503.568 370.235Z" stroke="#4472C4" stroke-linejoin="round" stroke-miterlimit="10" fill="#4472C4"/><path d="M693.568 347.235 696.901 353.902 690.235 353.902Z" stroke="#4472C4" stroke-linejoin="round" stroke-miterlimit="10" fill="#4472C4"/><path d="M880.068 329.402 883.401 336.069 876.735 336.069Z" stroke="#4472C4" stroke-linejoin="round" stroke-miterlimit="10" fill="#4472C4"/></g><g clip-path="url(#clip7)"><path d="M506.5 291.5 693.5 298.5 879.5 271.5" stroke="#FF0000" stroke-width="3" stroke-linecap="round" stroke-linejoin="round" stroke-miterlimit="10" fill="none"/></g><g clip-path="url(#clip8)"><path d="M510.235 291.402C510.235 293.243 508.742 294.735 506.901 294.735 505.06 294.735 503.568 293.243 503.568 291.402 503.568 289.561 505.06 288.069 506.901 288.069 508.742 288.069 510.235 289.561 510.235 291.402Z" stroke="#FF0000" stroke-linejoin="round" stroke-miterlimit="10" fill="#FF0000"/><path d="M696.901 298.902C696.901 300.743 695.409 302.235 693.568 302.235 691.727 302.235 690.235 300.743 690.235 298.902 690.235 297.061 691.727 295.569 693.568 295.569 695.409 295.569 696.901 297.061 696.901 298.902Z" stroke="#FF0000" stroke-linejoin="round" stroke-miterlimit="10" fill="#FF0000"/><path d="M883.401 272.069C883.401 273.91 881.909 275.402 880.068 275.402 878.227 275.402 876.735 273.91 876.735 272.069 876.735 270.228 878.227 268.735 880.068 268.735 881.909 268.735 883.401 270.228 883.401 272.069Z" stroke="#FF0000" stroke-linejoin="round" stroke-miterlimit="10" fill="#FF0000"/></g><g clip-path="url(#clip9)"><path d="M506.5 359.5 693.5 348.5 879.5 339.5" stroke="#7F7F7F" stroke-width="3" stroke-linecap="round" stroke-linejoin="round" stroke-miterlimit="10" fill="none"/></g><g clip-path="url(#clip10)"><path d="M503.568 356.402 510.235 356.402 510.235 363.069 503.568 363.069Z" stroke="#7F7F7F" stroke-linejoin="round" stroke-miterlimit="10" fill="#7F7F7F"/><path d="M690.235 345.402 696.901 345.402 696.901 352.069 690.235 352.069Z" stroke="#7F7F7F" stroke-linejoin="round" stroke-miterlimit="10" fill="#7F7F7F"/><path d="M876.735 336.569 883.401 336.569 883.401 343.235 876.735 343.235Z" stroke="#7F7F7F" stroke-linejoin="round" stroke-miterlimit="10" fill="#7F7F7F"/></g><g clip-path="url(#clip11)"><text fill="#595959" font-family="Calibri,Calibri_MSFontService,sans-serif" font-weight="700" font-size="19" transform="translate(353.435 535)">0.028</text></g><g clip-path="url(#clip12)"><text fill="#595959" font-family="Calibri,Calibri_MSFontService,sans-serif" font-weight="700" font-size="19" transform="translate(343.975 479)">0.0285</text></g><g clip-path="url(#clip13)"><text fill="#595959" font-family="Calibri,Calibri_MSFontService,sans-serif" font-weight="700" font-size="19" transform="translate(353.435 423)">0.029</text></g><g clip-path="url(#clip14)"><text fill="#595959" font-family="Calibri,Calibri_MSFontService,sans-serif" font-weight="700" font-size="19" transform="translate(343.975 368)">0.0295</text></g><g clip-path="url(#clip15)"><text fill="#595959" font-family="Calibri,Calibri_MSFontService,sans-serif" font-weight="700" font-size="19" transform="translate(362.895 312)">0.03</text></g><g clip-path="url(#clip16)"><text fill="#595959" font-family="Calibri,Calibri_MSFontService,sans-serif" font-weight="700" font-size="19" transform="translate(343.975 256)">0.0305</text></g><g clip-path="url(#clip17)"><text fill="#595959" font-family="Calibri,Calibri_MSFontService,sans-serif" font-weight="700" font-size="19" transform="translate(353.435 201)">0.031</text></g><g clip-path="url(#clip18)"><text fill="#595959" font-family="Calibri,Calibri_MSFontService,sans-serif" font-weight="700" font-size="19" transform="translate(343.975 145)">0.0315</text></g><g clip-path="url(#clip19)"><text fill="#595959" font-family="Calibri,Calibri_MSFontService,sans-serif" font-weight="700" font-size="19" transform="translate(353.435 90)">0.032</text></g><g clip-path="url(#clip20)"><text fill="#595959" font-family="Calibri,Calibri_MSFontService,sans-serif" font-weight="700" font-size="19" transform="translate(497.4 559)">10</text></g><g clip-path="url(#clip21)"><text fill="#595959" font-family="Calibri,Calibri_MSFontService,sans-serif" font-weight="700" font-size="19" transform="translate(683.962 559)">20</text></g><g clip-path="url(#clip22)"><text fill="#595959" font-family="Calibri,Calibri_MSFontService,sans-serif" font-weight="700" font-size="19" transform="translate(870.524 559)">30</text></g><g clip-path="url(#clip23)"><text fill="#595959" font-family="Yu Gothic,Yu Gothic_MSFontService,sans-serif" font-weight="700" font-size="19" transform="matrix(6.12323e-17 -1 1 6.12323e-17 330.735 415)">エンドツーエンド遅延</text></g><g clip-path="url(#clip24)"><text fill="#595959" font-family="Calibri,Calibri_MSFontService,sans-serif" font-weight="700" font-size="19" transform="matrix(6.12323e-17 -1 1 6.12323e-17 330.735 228)">(</text></g><g clip-path="url(#clip25)"><text fill="#595959" font-family="Yu Gothic,Yu Gothic_MSFontService,sans-serif" font-weight="700" font-size="19" transform="matrix(6.12323e-17 -1 1 6.12323e-17 330.735 222)">秒</text></g><g clip-path="url(#clip26)"><text fill="#595959" font-family="Calibri,Calibri_MSFontService,sans-serif" font-weight="700" font-size="19" transform="matrix(6.12323e-17 -1 1 6.12323e-17 330.735 204)">)</text></g><g clip-path="url(#clip27)"><text fill="#595959" font-family="Yu Gothic,Yu Gothic_MSFontService,sans-serif" font-weight="700" font-size="19" transform="translate(581.422 590)">シャドウイングパラメータ</text></g><g clip-path="url(#clip28)"><path d="M432.5 630.5 457.5 630.5" stroke="#ED7D31" stroke-width="3" stroke-linecap="round" stroke-linejoin="round" stroke-miterlimit="10" stroke-opacity="0.941176" fill="none" fill-rule="evenodd"/></g><g clip-path="url(#clip29)"><path d="M444.833 627.333 448.167 630.667 444.833 634 441.5 630.667Z" stroke="#ED7D31" stroke-linejoin="round" stroke-miterlimit="10" fill="#ED7D31"/></g><g clip-path="url(#clip30)"><text fill="#595959" font-family="Calibri,Calibri_MSFontService,sans-serif" font-weight="700" font-size="19" transform="translate(460.394 636)">SIGO</text></g><g clip-path="url(#clip31)"><path d="M517.5 630.5 543.5 630.5" stroke="#4472C4" stroke-width="3" stroke-linecap="round" stroke-linejoin="round" stroke-miterlimit="10" fill="none" fill-rule="evenodd"/></g><g clip-path="url(#clip32)"><path d="M530.333 627.333 533.667 634 527 634Z" stroke="#4472C4" stroke-linejoin="round" stroke-miterlimit="10" fill="#4472C4"/></g><g clip-path="url(#clip33)"><text fill="#595959" font-family="Calibri,Calibri_MSFontService,sans-serif" font-weight="700" font-size="19" transform="translate(545.858 636)">LSGO</text></g><g clip-path="url(#clip34)"><path d="M605.5 630.5 631.5 630.5" stroke="#FF0000" stroke-width="3" stroke-linecap="round" stroke-linejoin="round" stroke-miterlimit="10" fill="none" fill-rule="evenodd"/></g><g clip-path="url(#clip35)"><path d="M622.5 631C622.5 632.933 620.933 634.5 619 634.5 617.067 634.5 615.5 632.933 615.5 631 615.5 629.067 617.067 627.5 619 627.5 620.933 627.5 622.5 629.067 622.5 631Z" stroke="#FF0000" stroke-linejoin="round" stroke-miterlimit="10" fill="#FF0000"/></g><g clip-path="url(#clip36)"><text fill="#595959" font-family="Calibri,Calibri_MSFontService,sans-serif" font-weight="700" font-size="19" transform="translate(634.241 636)">SIGO + ORS</text></g><g clip-path="url(#clip37)"><path d="M741.5 630.5 766.5 630.5" stroke="#7F7F7F" stroke-width="3" stroke-linecap="round" stroke-linejoin="round" stroke-miterlimit="10" fill="none" fill-rule="evenodd"/></g><g clip-path="url(#clip38)"><path d="M750.5 627.5 757.5 627.5 757.5 634.5 750.5 634.5Z" stroke="#7F7F7F" stroke-linejoin="round" stroke-miterlimit="10" fill="#7F7F7F"/></g><g clip-path="url(#clip39)"><text fill="#595959" font-family="Calibri,Calibri_MSFontService,sans-serif" font-weight="700" font-size="19" transform="translate(769.398 636)">SIGO + JBR</text></g></g></svg>