<svg width="810" height="517" xmlns="http://www.w3.org/2000/svg" xmlns:xlink="http://www.w3.org/1999/xlink" overflow="hidden"><defs><clipPath id="clip0"><path d="M208 110 1018 110 1018 627 208 627Z" fill-rule="evenodd" clip-rule="evenodd"/></clipPath><clipPath id="clip1"><path d="M209 110 1017 110 1017 625 209 625Z" fill-rule="evenodd" clip-rule="evenodd"/></clipPath><clipPath id="clip2"><path d="M296 137 1002 137 1002 515 296 515Z" fill-rule="evenodd" clip-rule="evenodd"/></clipPath><clipPath id="clip3"><path d="M296 137 1002 137 1002 515 296 515Z" fill-rule="evenodd" clip-rule="evenodd"/></clipPath><clipPath id="clip4"><path d="M296 137 1002 137 1002 514 296 514Z" fill-rule="evenodd" clip-rule="evenodd"/></clipPath><clipPath id="clip5"><path d="M296 137 1002 137 1002 514 296 514Z" fill-rule="evenodd" clip-rule="evenodd"/></clipPath><clipPath id="clip6"><path d="M296 137 1002 137 1002 514 296 514Z" fill-rule="evenodd" clip-rule="evenodd"/></clipPath><clipPath id="clip7"><path d="M296 137 1002 137 1002 514 296 514Z" fill-rule="evenodd" clip-rule="evenodd"/></clipPath><clipPath id="clip8"><path d="M296 137 1002 137 1002 514 296 514Z" fill-rule="evenodd" clip-rule="evenodd"/></clipPath><clipPath id="clip9"><path d="M296 137 1002 137 1002 514 296 514Z" fill-rule="evenodd" clip-rule="evenodd"/></clipPath><clipPath id="clip10"><path d="M296 137 1002 137 1002 514 296 514Z" fill-rule="evenodd" clip-rule="evenodd"/></clipPath><clipPath id="clip11"><path d="M296 137 1002 137 1002 514 296 514Z" fill-rule="evenodd" clip-rule="evenodd"/></clipPath><clipPath id="clip12"><path d="M296 137 1002 137 1002 514 296 514Z" fill-rule="evenodd" clip-rule="evenodd"/></clipPath><clipPath id="clip13"><path d="M296 137 1002 137 1002 514 296 514Z" fill-rule="evenodd" clip-rule="evenodd"/></clipPath><clipPath id="clip14"><path d="M209 110 1017 110 1017 625 209 625Z" fill-rule="evenodd" clip-rule="evenodd"/></clipPath><clipPath id="clip15"><path d="M209 110 1017 110 1017 625 209 625Z" fill-rule="evenodd" clip-rule="evenodd"/></clipPath><clipPath id="clip16"><path d="M209 110 1017 110 1017 625 209 625Z" fill-rule="evenodd" clip-rule="evenodd"/></clipPath><clipPath id="clip17"><path d="M209 110 1017 110 1017 625 209 625Z" fill-rule="evenodd" clip-rule="evenodd"/></clipPath><clipPath id="clip18"><path d="M209 110 1017 110 1017 625 209 625Z" fill-rule="evenodd" clip-rule="evenodd"/></clipPath><clipPath id="clip19"><path d="M209 110 1017 110 1017 625 209 625Z" fill-rule="evenodd" clip-rule="evenodd"/></clipPath><clipPath id="clip20"><path d="M209 110 1017 110 1017 625 209 625Z" fill-rule="evenodd" clip-rule="evenodd"/></clipPath><clipPath id="clip21"><path d="M209 110 1017 110 1017 625 209 625Z" fill-rule="evenodd" clip-rule="evenodd"/></clipPath><clipPath id="clip22"><path d="M209 110 1017 110 1017 625 209 625Z" fill-rule="evenodd" clip-rule="evenodd"/></clipPath><clipPath id="clip23"><path d="M209 110 1017 110 1017 625 209 625Z" fill-rule="evenodd" clip-rule="evenodd"/></clipPath><clipPath id="clip24"><path d="M209 110 1017 110 1017 625 209 625Z" fill-rule="evenodd" clip-rule="evenodd"/></clipPath><clipPath id="clip25"><path d="M209 110 1017 110 1017 625 209 625Z" fill-rule="evenodd" clip-rule="evenodd"/></clipPath><clipPath id="clip26"><path d="M209 110 1017 110 1017 625 209 625Z" fill-rule="evenodd" clip-rule="evenodd"/></clipPath><clipPath id="clip27"><path d="M209 110 1017 110 1017 625 209 625Z" fill-rule="evenodd" clip-rule="evenodd"/></clipPath><clipPath id="clip28"><path d="M209 110 1017 110 1017 625 209 625Z" fill-rule="evenodd" clip-rule="evenodd"/></clipPath><clipPath id="clip29"><path d="M209 110 1017 110 1017 625 209 625Z" fill-rule="evenodd" clip-rule="evenodd"/></clipPath><clipPath id="clip30"><path d="M209 110 1017 110 1017 625 209 625Z" fill-rule="evenodd" clip-rule="evenodd"/></clipPath><clipPath id="clip31"><path d="M209 110 1017 110 1017 625 209 625Z" fill-rule="evenodd" clip-rule="evenodd"/></clipPath><clipPath id="clip32"><path d="M209 110 1017 110 1017 625 209 625Z" fill-rule="evenodd" clip-rule="evenodd"/></clipPath><clipPath id="clip33"><path d="M209 110 1017 110 1017 625 209 625Z" fill-rule="evenodd" clip-rule="evenodd"/></clipPath><clipPath id="clip34"><path d="M209 110 1017 110 1017 625 209 625Z" fill-rule="evenodd" clip-rule="evenodd"/></clipPath><clipPath id="clip35"><path d="M209 110 1017 110 1017 625 209 625Z" fill-rule="evenodd" clip-rule="evenodd"/></clipPath></defs><g clip-path="url(#clip0)" transform="translate(-208 -110)"><g clip-path="url(#clip1)"><path d="M296.5 467.5 1001.5 467.5M296.5 420.5 1001.5 420.5M296.5 372.5 1001.5 372.5M296.5 325.5 1001.5 325.5M296.5 278.5 1001.5 278.5M296.5 231.5 1001.5 231.5M296.5 184.5 1001.5 184.5M296.5 137.5 1001.5 137.5" stroke="#D9D9D9" stroke-linejoin="round" stroke-miterlimit="10" fill="none"/></g><g clip-path="url(#clip2)"><path d="M327 358 367 358 367 514 327 514ZM468 349 508 349 508 514 468 514ZM609 300 649 300 649 514 609 514ZM749 300 790 300 790 514 749 514ZM890 224 931 224 931 514 890 514Z" fill="#4472C4"/></g><g clip-path="url(#clip3)"><path d="M367 364 407 364 407 514 367 514ZM508 278 548 278 548 514 508 514ZM649 333 689 333 689 514 649 514ZM790 305 830 305 830 514 790 514ZM931 210 971 210 971 514 931 514Z" fill="#ED7D31"/></g><g clip-path="url(#clip4)"><path d="M346.5 357.5 346.5 423.5M346.5 357.5 346.5 292.5M343.5 423.5 349.5 423.5M343.5 292.5 349.5 292.5" stroke="#595959" stroke-linejoin="round" stroke-miterlimit="10" fill="none"/></g><g clip-path="url(#clip5)"><path d="M487.5 348.5 487.5 380.5M487.5 348.5 487.5 317.5M484.5 380.5 490.5 380.5M484.5 317.5 490.5 317.5" stroke="#595959" stroke-linejoin="round" stroke-miterlimit="10" fill="none"/></g><g clip-path="url(#clip6)"><path d="M628.5 300.5 628.5 365.5M628.5 300.5 628.5 235.5M625.5 365.5 631.5 365.5M625.5 235.5 631.5 235.5" stroke="#595959" stroke-linejoin="round" stroke-miterlimit="10" fill="none"/></g><g clip-path="url(#clip7)"><path d="M769.5 300.5 769.5 358.5M769.5 300.5 769.5 242.5M766.5 358.5 772.5 358.5M766.5 242.5 772.5 242.5" stroke="#595959" stroke-linejoin="round" stroke-miterlimit="10" fill="none"/></g><g clip-path="url(#clip8)"><path d="M910.5 224.5 910.5 271.5M910.5 224.5 910.5 177.5M907.5 271.5 913.5 271.5M907.5 177.5 913.5 177.5" stroke="#595959" stroke-linejoin="round" stroke-miterlimit="10" fill="none"/></g><g clip-path="url(#clip9)"><path d="M387.5 364.5 387.5 429.5M387.5 364.5 387.5 299.5M384.5 429.5 390.5 429.5M384.5 299.5 390.5 299.5" stroke="#595959" stroke-linejoin="round" stroke-miterlimit="10" fill="none"/></g><g clip-path="url(#clip10)"><path d="M527.5 277.5 527.5 311.5M527.5 277.5 527.5 243.5M524.5 311.5 530.5 311.5M524.5 243.5 530.5 243.5" stroke="#595959" stroke-linejoin="round" stroke-miterlimit="10" fill="none"/></g><g clip-path="url(#clip11)"><path d="M668.5 332.5 668.5 396.5M668.5 332.5 668.5 269.5M665.5 396.5 671.5 396.5M665.5 269.5 671.5 269.5" stroke="#595959" stroke-linejoin="round" stroke-miterlimit="10" fill="none"/></g><g clip-path="url(#clip12)"><path d="M809.5 305.5 809.5 363.5M809.5 305.5 809.5 247.5M806.5 363.5 812.5 363.5M806.5 247.5 812.5 247.5" stroke="#595959" stroke-linejoin="round" stroke-miterlimit="10" fill="none"/></g><g clip-path="url(#clip13)"><path d="M950.5 209.5 950.5 264.5M950.5 209.5 950.5 155.5M947.5 264.5 953.5 264.5M947.5 155.5 953.5 155.5" stroke="#595959" stroke-linejoin="round" stroke-miterlimit="10" fill="none"/></g><g clip-path="url(#clip14)"><path d="M296.5 514.5 1001.5 514.5" stroke="#D9D9D9" stroke-linejoin="round" stroke-miterlimit="10" fill="none" fill-rule="evenodd"/></g><g clip-path="url(#clip15)"><text fill="#595959" font-family="Yu Gothic,Yu Gothic_MSFontService,sans-serif" font-weight="400" transform="translate(261.65 518)">0.27</text></g><g clip-path="url(#clip16)"><text fill="#595959" font-family="Yu Gothic,Yu Gothic_MSFontService,sans-serif" font-weight="400" transform="translate(261.65 471)">0.28</text></g><g clip-path="url(#clip17)"><text fill="#595959" font-family="Yu Gothic,Yu Gothic_MSFontService,sans-serif" font-weight="400" transform="translate(261.65 423)">0.29</text></g><g clip-path="url(#clip18)"><text fill="#595959" font-family="Yu Gothic,Yu Gothic_MSFontService,sans-serif" font-weight="400" transform="translate(268.323 376)">0.3</text></g><g clip-path="url(#clip19)"><text fill="#595959" font-family="Yu Gothic,Yu Gothic_MSFontService,sans-serif" font-weight="400" transform="translate(261.65 329)">0.31</text></g><g clip-path="url(#clip20)"><text fill="#595959" font-family="Yu Gothic,Yu Gothic_MSFontService,sans-serif" font-weight="400" transform="translate(261.65 282)">0.32</text></g><g clip-path="url(#clip21)"><text fill="#595959" font-family="Yu Gothic,Yu Gothic_MSFontService,sans-serif" font-weight="400" transform="translate(261.65 235)">0.33</text></g><g clip-path="url(#clip22)"><text fill="#595959" font-family="Yu Gothic,Yu Gothic_MSFontService,sans-serif" font-weight="400" transform="translate(261.65 188)">0.34</text></g><g clip-path="url(#clip23)"><text fill="#595959" font-family="Yu Gothic,Yu Gothic_MSFontService,sans-serif" font-weight="400" transform="translate(261.65 141)">0.35</text></g><g clip-path="url(#clip24)"><text fill="#595959" font-family="Yu Gothic,Yu Gothic_MSFontService,sans-serif" font-weight="400" transform="translate(356.885 534)">600</text></g><g clip-path="url(#clip25)"><text fill="#595959" font-family="Yu Gothic,Yu Gothic_MSFontService,sans-serif" font-weight="400" transform="translate(497.823 534)">700</text></g><g clip-path="url(#clip26)"><text fill="#595959" font-family="Yu Gothic,Yu Gothic_MSFontService,sans-serif" font-weight="400" transform="translate(638.76 534)">800</text></g><g clip-path="url(#clip27)"><text fill="#595959" font-family="Yu Gothic,Yu Gothic_MSFontService,sans-serif" font-weight="400" transform="translate(779.698 534)">900</text></g><g clip-path="url(#clip28)"><text fill="#595959" font-family="Yu Gothic,Yu Gothic_MSFontService,sans-serif" font-weight="400" transform="translate(917.298 534)">1000</text></g><g clip-path="url(#clip29)"><text fill="#595959" font-family="Yu Gothic,Yu Gothic_MSFontService,sans-serif" font-weight="400" font-size="27" transform="matrix(6.12323e-17 -1 1 6.12323e-17 244.036 429)">End</text></g><g clip-path="url(#clip30)"><text fill="#595959" font-family="Yu Gothic,Yu Gothic_MSFontService,sans-serif" font-weight="400" font-size="27" transform="matrix(6.12323e-17 -1 1 6.12323e-17 244.036 374)">to End delay</text></g><g clip-path="url(#clip31)"><text fill="#595959" font-family="Yu Gothic,Yu Gothic_MSFontService,sans-serif" font-weight="400" font-size="27" transform="translate(553.384 567)">number of nodes</text></g><g clip-path="url(#clip32)"><rect x="542" y="587" width="15" height="16" fill="#4472C4"/></g><g clip-path="url(#clip33)"><text fill="#595959" font-family="Yu Gothic,Yu Gothic_MSFontService,sans-serif" font-weight="400" font-size="27" transform="translate(564.338 602)">SIGO</text></g><g clip-path="url(#clip34)"><rect x="641" y="587" width="15" height="16" fill="#ED7D31"/></g><g clip-path="url(#clip35)"><text fill="#595959" font-family="Yu Gothic,Yu Gothic_MSFontService,sans-serif" font-weight="400" font-size="27" transform="translate(663.479 602)">LSGO</text></g></g></svg>