<svg width="814" height="520" xmlns="http://www.w3.org/2000/svg" xmlns:xlink="http://www.w3.org/1999/xlink" overflow="hidden"><defs><clipPath id="clip0"><path d="M233 100 1047 100 1047 620 233 620Z" fill-rule="evenodd" clip-rule="evenodd"/></clipPath><clipPath id="clip1"><path d="M233 101 1046 101 1046 618 233 618Z" fill-rule="evenodd" clip-rule="evenodd"/></clipPath><clipPath id="clip2"><path d="M310 126 1025 126 1025 511 310 511Z" fill-rule="evenodd" clip-rule="evenodd"/></clipPath><clipPath id="clip3"><path d="M310 126 1025 126 1025 511 310 511Z" fill-rule="evenodd" clip-rule="evenodd"/></clipPath><clipPath id="clip4"><path d="M310 126 1025 126 1025 510 310 510Z" fill-rule="evenodd" clip-rule="evenodd"/></clipPath><clipPath id="clip5"><path d="M310 126 1025 126 1025 510 310 510Z" fill-rule="evenodd" clip-rule="evenodd"/></clipPath><clipPath id="clip6"><path d="M310 126 1025 126 1025 510 310 510Z" fill-rule="evenodd" clip-rule="evenodd"/></clipPath><clipPath id="clip7"><path d="M310 126 1025 126 1025 510 310 510Z" fill-rule="evenodd" clip-rule="evenodd"/></clipPath><clipPath id="clip8"><path d="M310 126 1025 126 1025 510 310 510Z" fill-rule="evenodd" clip-rule="evenodd"/></clipPath><clipPath id="clip9"><path d="M310 126 1025 126 1025 510 310 510Z" fill-rule="evenodd" clip-rule="evenodd"/></clipPath><clipPath id="clip10"><path d="M310 126 1025 126 1025 510 310 510Z" fill-rule="evenodd" clip-rule="evenodd"/></clipPath><clipPath id="clip11"><path d="M310 126 1025 126 1025 510 310 510Z" fill-rule="evenodd" clip-rule="evenodd"/></clipPath><clipPath id="clip12"><path d="M310 126 1025 126 1025 510 310 510Z" fill-rule="evenodd" clip-rule="evenodd"/></clipPath><clipPath id="clip13"><path d="M310 126 1025 126 1025 510 310 510Z" fill-rule="evenodd" clip-rule="evenodd"/></clipPath><clipPath id="clip14"><path d="M233 101 1046 101 1046 618 233 618Z" fill-rule="evenodd" clip-rule="evenodd"/></clipPath><clipPath id="clip15"><path d="M233 101 1046 101 1046 618 233 618Z" fill-rule="evenodd" clip-rule="evenodd"/></clipPath><clipPath id="clip16"><path d="M233 101 1046 101 1046 618 233 618Z" fill-rule="evenodd" clip-rule="evenodd"/></clipPath><clipPath id="clip17"><path d="M233 101 1046 101 1046 618 233 618Z" fill-rule="evenodd" clip-rule="evenodd"/></clipPath><clipPath id="clip18"><path d="M233 101 1046 101 1046 618 233 618Z" fill-rule="evenodd" clip-rule="evenodd"/></clipPath><clipPath id="clip19"><path d="M233 101 1046 101 1046 618 233 618Z" fill-rule="evenodd" clip-rule="evenodd"/></clipPath><clipPath id="clip20"><path d="M233 101 1046 101 1046 618 233 618Z" fill-rule="evenodd" clip-rule="evenodd"/></clipPath><clipPath id="clip21"><path d="M233 101 1046 101 1046 618 233 618Z" fill-rule="evenodd" clip-rule="evenodd"/></clipPath><clipPath id="clip22"><path d="M233 101 1046 101 1046 618 233 618Z" fill-rule="evenodd" clip-rule="evenodd"/></clipPath><clipPath id="clip23"><path d="M233 101 1046 101 1046 618 233 618Z" fill-rule="evenodd" clip-rule="evenodd"/></clipPath><clipPath id="clip24"><path d="M233 101 1046 101 1046 618 233 618Z" fill-rule="evenodd" clip-rule="evenodd"/></clipPath><clipPath id="clip25"><path d="M233 101 1046 101 1046 618 233 618Z" fill-rule="evenodd" clip-rule="evenodd"/></clipPath><clipPath id="clip26"><path d="M233 101 1046 101 1046 618 233 618Z" fill-rule="evenodd" clip-rule="evenodd"/></clipPath><clipPath id="clip27"><path d="M233 101 1046 101 1046 618 233 618Z" fill-rule="evenodd" clip-rule="evenodd"/></clipPath><clipPath id="clip28"><path d="M233 101 1046 101 1046 618 233 618Z" fill-rule="evenodd" clip-rule="evenodd"/></clipPath><clipPath id="clip29"><path d="M233 101 1046 101 1046 618 233 618Z" fill-rule="evenodd" clip-rule="evenodd"/></clipPath><clipPath id="clip30"><path d="M233 101 1046 101 1046 618 233 618Z" fill-rule="evenodd" clip-rule="evenodd"/></clipPath><clipPath id="clip31"><path d="M233 101 1046 101 1046 618 233 618Z" fill-rule="evenodd" clip-rule="evenodd"/></clipPath><clipPath id="clip32"><path d="M233 101 1046 101 1046 618 233 618Z" fill-rule="evenodd" clip-rule="evenodd"/></clipPath><clipPath id="clip33"><path d="M233 101 1046 101 1046 618 233 618Z" fill-rule="evenodd" clip-rule="evenodd"/></clipPath><clipPath id="clip34"><path d="M233 101 1046 101 1046 618 233 618Z" fill-rule="evenodd" clip-rule="evenodd"/></clipPath><clipPath id="clip35"><path d="M233 101 1046 101 1046 618 233 618Z" fill-rule="evenodd" clip-rule="evenodd"/></clipPath><clipPath id="clip36"><path d="M233 101 1046 101 1046 618 233 618Z" fill-rule="evenodd" clip-rule="evenodd"/></clipPath></defs><g clip-path="url(#clip0)" transform="translate(-233 -100)"><g clip-path="url(#clip1)"><path d="M310.5 472.5 1024.5 472.5M310.5 433.5 1024.5 433.5M310.5 395.5 1024.5 395.5M310.5 356.5 1024.5 356.5M310.5 318.5 1024.5 318.5M310.5 280.5 1024.5 280.5M310.5 241.5 1024.5 241.5M310.5 203.5 1024.5 203.5M310.5 164.5 1024.5 164.5M310.5 126.5 1024.5 126.5" stroke="#D9D9D9" stroke-linejoin="round" stroke-miterlimit="10" fill="none"/></g><g clip-path="url(#clip2)"><path d="M341 455 382 455 382 511 341 511ZM484 321 525 321 525 511 484 511ZM627 283 668 283 668 511 627 511ZM770 282 811 282 811 511 770 511ZM913 194 954 194 954 511 913 511Z" fill="#4472C4"/></g><g clip-path="url(#clip3)"><path d="M382 493 423 493 423 511 382 511ZM525 340 566 340 566 511 525 511ZM668 273 709 273 709 511 668 511ZM811 233 852 233 852 511 811 511ZM954 184 994 184 994 511 954 511Z" fill="#ED7D31"/></g><g clip-path="url(#clip4)"><path d="M361.5 455.5 361.5 481.5M361.5 455.5 361.5 428.5M358.5 481.5 364.5 481.5M358.5 428.5 364.5 428.5" stroke="#595959" stroke-linejoin="round" stroke-miterlimit="10" fill="none"/></g><g clip-path="url(#clip5)"><path d="M504.5 320.5 504.5 344.5M504.5 320.5 504.5 296.5M501.5 344.5 507.5 344.5M501.5 296.5 507.5 296.5" stroke="#595959" stroke-linejoin="round" stroke-miterlimit="10" fill="none"/></g><g clip-path="url(#clip6)"><path d="M647.5 282.5 647.5 316.5M647.5 282.5 647.5 248.5M644.5 316.5 650.5 316.5M644.5 248.5 650.5 248.5" stroke="#595959" stroke-linejoin="round" stroke-miterlimit="10" fill="none"/></g><g clip-path="url(#clip7)"><path d="M790.5 281.5 790.5 313.5M790.5 281.5 790.5 249.5M787.5 313.5 793.5 313.5M787.5 249.5 793.5 249.5" stroke="#595959" stroke-linejoin="round" stroke-miterlimit="10" fill="none"/></g><g clip-path="url(#clip8)"><path d="M933.5 194.5 933.5 227.5M933.5 194.5 933.5 160.5M930.5 227.5 936.5 227.5M930.5 160.5 936.5 160.5" stroke="#595959" stroke-linejoin="round" stroke-miterlimit="10" fill="none"/></g><g clip-path="url(#clip9)"><path d="M402.5 493.5 402.5 521.5M402.5 493.5 402.5 465.5M399.5 521.5 405.5 521.5M399.5 465.5 405.5 465.5" stroke="#595959" stroke-linejoin="round" stroke-miterlimit="10" fill="none"/></g><g clip-path="url(#clip10)"><path d="M545.5 340.5 545.5 367.5M545.5 340.5 545.5 313.5M542.5 367.5 548.5 367.5M542.5 313.5 548.5 313.5" stroke="#595959" stroke-linejoin="round" stroke-miterlimit="10" fill="none"/></g><g clip-path="url(#clip11)"><path d="M688.5 272.5 688.5 305.5M688.5 272.5 688.5 240.5M685.5 305.5 691.5 305.5M685.5 240.5 691.5 240.5" stroke="#595959" stroke-linejoin="round" stroke-miterlimit="10" fill="none"/></g><g clip-path="url(#clip12)"><path d="M831.5 232.5 831.5 263.5M831.5 232.5 831.5 201.5M828.5 263.5 834.5 263.5M828.5 201.5 834.5 201.5" stroke="#595959" stroke-linejoin="round" stroke-miterlimit="10" fill="none"/></g><g clip-path="url(#clip13)"><path d="M973.5 183.5 973.5 218.5M973.5 183.5 973.5 149.5M970.5 218.5 976.5 218.5M970.5 149.5 976.5 149.5" stroke="#595959" stroke-linejoin="round" stroke-miterlimit="10" fill="none"/></g><g clip-path="url(#clip14)"><path d="M310.5 510.5 1024.5 510.5" stroke="#D9D9D9" stroke-linejoin="round" stroke-miterlimit="10" fill="none" fill-rule="evenodd"/></g><g clip-path="url(#clip15)"><text fill="#595959" font-family="Yu Gothic,Yu Gothic_MSFontService,sans-serif" font-weight="400" transform="translate(282.722 514)">0.3</text></g><g clip-path="url(#clip16)"><text fill="#595959" font-family="Yu Gothic,Yu Gothic_MSFontService,sans-serif" font-weight="400" transform="translate(276.049 476)">0.32</text></g><g clip-path="url(#clip17)"><text fill="#595959" font-family="Yu Gothic,Yu Gothic_MSFontService,sans-serif" font-weight="400" transform="translate(276.049 437)">0.34</text></g><g clip-path="url(#clip18)"><text fill="#595959" font-family="Yu Gothic,Yu Gothic_MSFontService,sans-serif" font-weight="400" transform="translate(276.049 399)">0.36</text></g><g clip-path="url(#clip19)"><text fill="#595959" font-family="Yu Gothic,Yu Gothic_MSFontService,sans-serif" font-weight="400" transform="translate(276.049 360)">0.38</text></g><g clip-path="url(#clip20)"><text fill="#595959" font-family="Yu Gothic,Yu Gothic_MSFontService,sans-serif" font-weight="400" transform="translate(282.722 322)">0.4</text></g><g clip-path="url(#clip21)"><text fill="#595959" font-family="Yu Gothic,Yu Gothic_MSFontService,sans-serif" font-weight="400" transform="translate(276.049 283)">0.42</text></g><g clip-path="url(#clip22)"><text fill="#595959" font-family="Yu Gothic,Yu Gothic_MSFontService,sans-serif" font-weight="400" transform="translate(276.049 245)">0.44</text></g><g clip-path="url(#clip23)"><text fill="#595959" font-family="Yu Gothic,Yu Gothic_MSFontService,sans-serif" font-weight="400" transform="translate(276.049 207)">0.46</text></g><g clip-path="url(#clip24)"><text fill="#595959" font-family="Yu Gothic,Yu Gothic_MSFontService,sans-serif" font-weight="400" transform="translate(276.049 168)">0.48</text></g><g clip-path="url(#clip25)"><text fill="#595959" font-family="Yu Gothic,Yu Gothic_MSFontService,sans-serif" font-weight="400" transform="translate(282.722 130)">0.5</text></g><g clip-path="url(#clip26)"><text fill="#595959" font-family="Yu Gothic,Yu Gothic_MSFontService,sans-serif" font-weight="400" transform="translate(372.228 531)">600</text></g><g clip-path="url(#clip27)"><text fill="#595959" font-family="Yu Gothic,Yu Gothic_MSFontService,sans-serif" font-weight="400" transform="translate(515.052 531)">700</text></g><g clip-path="url(#clip28)"><text fill="#595959" font-family="Yu Gothic,Yu Gothic_MSFontService,sans-serif" font-weight="400" transform="translate(657.877 531)">800</text></g><g clip-path="url(#clip29)"><text fill="#595959" font-family="Yu Gothic,Yu Gothic_MSFontService,sans-serif" font-weight="400" transform="translate(800.701 531)">900</text></g><g clip-path="url(#clip30)"><text fill="#595959" font-family="Yu Gothic,Yu Gothic_MSFontService,sans-serif" font-weight="400" transform="translate(940.189 531)">1000</text></g><g clip-path="url(#clip31)"><text fill="#595959" font-family="Yu Gothic,Yu Gothic_MSFontService,sans-serif" font-weight="400" font-size="27" transform="matrix(6.12323e-17 -1 1 6.12323e-17 266.741 314)">PDR</text></g><g clip-path="url(#clip32)"><text fill="#595959" font-family="Yu Gothic,Yu Gothic_MSFontService,sans-serif" font-weight="400" font-size="27" transform="translate(564.07 569)">number of nodes</text></g><g clip-path="url(#clip33)"><rect x="578" y="583" width="16" height="15" fill="#4472C4"/></g><g clip-path="url(#clip34)"><text fill="#595959" font-family="Yu Gothic,Yu Gothic_MSFontService,sans-serif" font-weight="400" font-size="27" transform="translate(600.838 598)">SIGO</text></g><g clip-path="url(#clip35)"><rect x="679" y="583" width="15" height="15" fill="#ED7D31"/></g><g clip-path="url(#clip36)"><text fill="#595959" font-family="Yu Gothic,Yu Gothic_MSFontService,sans-serif" font-weight="400" font-size="27" transform="translate(701.511 598)">LSGO</text></g></g></svg>