<svg width="1146" height="586" xmlns="http://www.w3.org/2000/svg" xmlns:xlink="http://www.w3.org/1999/xlink" overflow="hidden"><defs><clipPath id="clip0"><path d="M67 67 1213 67 1213 653 67 653Z" fill-rule="evenodd" clip-rule="evenodd"/></clipPath><clipPath id="clip1"><path d="M67 67 1212 67 1212 652 67 652Z" fill-rule="evenodd" clip-rule="evenodd"/></clipPath><clipPath id="clip2"><path d="M231 88 1135 88 1135 516 231 516Z" fill-rule="evenodd" clip-rule="evenodd"/></clipPath><clipPath id="clip3"><path d="M231 88 1135 88 1135 516 231 516Z" fill-rule="evenodd" clip-rule="evenodd"/></clipPath><clipPath id="clip4"><path d="M231 88 1135 88 1135 515 231 515Z" fill-rule="evenodd" clip-rule="evenodd"/></clipPath><clipPath id="clip5"><path d="M231 88 1135 88 1135 515 231 515Z" fill-rule="evenodd" clip-rule="evenodd"/></clipPath><clipPath id="clip6"><path d="M231 88 1135 88 1135 515 231 515Z" fill-rule="evenodd" clip-rule="evenodd"/></clipPath><clipPath id="clip7"><path d="M231 88 1135 88 1135 515 231 515Z" fill-rule="evenodd" clip-rule="evenodd"/></clipPath><clipPath id="clip8"><path d="M231 88 1135 88 1135 515 231 515Z" fill-rule="evenodd" clip-rule="evenodd"/></clipPath><clipPath id="clip9"><path d="M231 88 1135 88 1135 515 231 515Z" fill-rule="evenodd" clip-rule="evenodd"/></clipPath><clipPath id="clip10"><path d="M231 88 1135 88 1135 515 231 515Z" fill-rule="evenodd" clip-rule="evenodd"/></clipPath><clipPath id="clip11"><path d="M231 88 1135 88 1135 515 231 515Z" fill-rule="evenodd" clip-rule="evenodd"/></clipPath><clipPath id="clip12"><path d="M231 88 1135 88 1135 515 231 515Z" fill-rule="evenodd" clip-rule="evenodd"/></clipPath><clipPath id="clip13"><path d="M231 88 1135 88 1135 515 231 515Z" fill-rule="evenodd" clip-rule="evenodd"/></clipPath><clipPath id="clip14"><path d="M231 88 1135 88 1135 515 231 515Z" fill-rule="evenodd" clip-rule="evenodd"/></clipPath><clipPath id="clip15"><path d="M231 88 1135 88 1135 515 231 515Z" fill-rule="evenodd" clip-rule="evenodd"/></clipPath><clipPath id="clip16"><path d="M231 88 1135 88 1135 515 231 515Z" fill-rule="evenodd" clip-rule="evenodd"/></clipPath><clipPath id="clip17"><path d="M231 88 1135 88 1135 515 231 515Z" fill-rule="evenodd" clip-rule="evenodd"/></clipPath><clipPath id="clip18"><path d="M231 88 1135 88 1135 515 231 515Z" fill-rule="evenodd" clip-rule="evenodd"/></clipPath><clipPath id="clip19"><path d="M231 88 1135 88 1135 515 231 515Z" fill-rule="evenodd" clip-rule="evenodd"/></clipPath><clipPath id="clip20"><path d="M67 67 1212 67 1212 652 67 652Z" fill-rule="evenodd" clip-rule="evenodd"/></clipPath><clipPath id="clip21"><path d="M67 67 1212 67 1212 652 67 652Z" fill-rule="evenodd" clip-rule="evenodd"/></clipPath><clipPath id="clip22"><path d="M67 67 1212 67 1212 652 67 652Z" fill-rule="evenodd" clip-rule="evenodd"/></clipPath><clipPath id="clip23"><path d="M67 67 1212 67 1212 652 67 652Z" fill-rule="evenodd" clip-rule="evenodd"/></clipPath><clipPath id="clip24"><path d="M67 67 1212 67 1212 652 67 652Z" fill-rule="evenodd" clip-rule="evenodd"/></clipPath><clipPath id="clip25"><path d="M67 67 1212 67 1212 652 67 652Z" fill-rule="evenodd" clip-rule="evenodd"/></clipPath><clipPath id="clip26"><path d="M67 67 1212 67 1212 652 67 652Z" fill-rule="evenodd" clip-rule="evenodd"/></clipPath><clipPath id="clip27"><path d="M67 67 1212 67 1212 652 67 652Z" fill-rule="evenodd" clip-rule="evenodd"/></clipPath><clipPath id="clip28"><path d="M67 67 1212 67 1212 652 67 652Z" fill-rule="evenodd" clip-rule="evenodd"/></clipPath><clipPath id="clip29"><path d="M67 67 1212 67 1212 652 67 652Z" fill-rule="evenodd" clip-rule="evenodd"/></clipPath><clipPath id="clip30"><path d="M67 67 1212 67 1212 652 67 652Z" fill-rule="evenodd" clip-rule="evenodd"/></clipPath><clipPath id="clip31"><path d="M67 67 1212 67 1212 652 67 652Z" fill-rule="evenodd" clip-rule="evenodd"/></clipPath><clipPath id="clip32"><path d="M67 67 1212 67 1212 652 67 652Z" fill-rule="evenodd" clip-rule="evenodd"/></clipPath><clipPath id="clip33"><path d="M67 67 1212 67 1212 652 67 652Z" fill-rule="evenodd" clip-rule="evenodd"/></clipPath><clipPath id="clip34"><path d="M67 67 1212 67 1212 652 67 652Z" fill-rule="evenodd" clip-rule="evenodd"/></clipPath><clipPath id="clip35"><path d="M67 67 1212 67 1212 652 67 652Z" fill-rule="evenodd" clip-rule="evenodd"/></clipPath><clipPath id="clip36"><path d="M67 67 1212 67 1212 652 67 652Z" fill-rule="evenodd" clip-rule="evenodd"/></clipPath><clipPath id="clip37"><path d="M67 67 1212 67 1212 652 67 652Z" fill-rule="evenodd" clip-rule="evenodd"/></clipPath><clipPath id="clip38"><path d="M67 67 1212 67 1212 652 67 652Z" fill-rule="evenodd" clip-rule="evenodd"/></clipPath><clipPath id="clip39"><path d="M67 67 1212 67 1212 652 67 652Z" fill-rule="evenodd" clip-rule="evenodd"/></clipPath><clipPath id="clip40"><path d="M67 67 1212 67 1212 652 67 652Z" fill-rule="evenodd" clip-rule="evenodd"/></clipPath><clipPath id="clip41"><path d="M67 67 1212 67 1212 652 67 652Z" fill-rule="evenodd" clip-rule="evenodd"/></clipPath><clipPath id="clip42"><path d="M67 67 1212 67 1212 652 67 652Z" fill-rule="evenodd" clip-rule="evenodd"/></clipPath><clipPath id="clip43"><path d="M67 67 1212 67 1212 652 67 652Z" fill-rule="evenodd" clip-rule="evenodd"/></clipPath><clipPath id="clip44"><path d="M67 67 1212 67 1212 652 67 652Z" fill-rule="evenodd" clip-rule="evenodd"/></clipPath><clipPath id="clip45"><path d="M67 67 1212 67 1212 652 67 652Z" fill-rule="evenodd" clip-rule="evenodd"/></clipPath><clipPath id="clip46"><path d="M67 67 1212 67 1212 652 67 652Z" fill-rule="evenodd" clip-rule="evenodd"/></clipPath><clipPath id="clip47"><path d="M67 67 1212 67 1212 652 67 652Z" fill-rule="evenodd" clip-rule="evenodd"/></clipPath><clipPath id="clip48"><path d="M67 67 1212 67 1212 652 67 652Z" fill-rule="evenodd" clip-rule="evenodd"/></clipPath></defs><g clip-path="url(#clip0)" transform="translate(-67 -67)"><g clip-path="url(#clip1)"><path d="M231.5 472.5 1134.5 472.5M231.5 430.5 1134.5 430.5M231.5 387.5 1134.5 387.5M231.5 344.5 1134.5 344.5M231.5 302.5 1134.5 302.5M231.5 259.5 1134.5 259.5M231.5 216.5 1134.5 216.5M231.5 174.5 1134.5 174.5M231.5 131.5 1134.5 131.5M231.5 88.5001 1134.5 88.5001" stroke="#D9D9D9" stroke-linejoin="round" stroke-miterlimit="10" fill="none"/></g><g clip-path="url(#clip2)"><path d="M256 410 288 410 288 515 256 515ZM369 380 401 380 401 515 369 515ZM482 271 514 271 514 515 482 515ZM595 264 627 264 627 515 595 515ZM707 240 740 240 740 515 707 515ZM820 253 852 253 852 515 820 515ZM933 252 965 252 965 515 933 515ZM1046 255 1078 255 1078 515 1046 515Z" fill="#4472C4"/></g><g clip-path="url(#clip3)"><path d="M288 390 320 390 320 515 288 515ZM401 314 433 314 433 515 401 515ZM514 196 546 196 546 515 514 515ZM627 184 659 184 659 515 627 515ZM740 190 772 190 772 515 740 515ZM852 208 885 208 885 515 852 515ZM965 205 998 205 998 515 965 515ZM1078 196 1110 196 1110 515 1078 515Z" fill="#ED7D31"/></g><g clip-path="url(#clip4)"><path d="M272.5 409.5 272.5 478.5M272.5 409.5 272.5 340.5M269.5 478.5 275.5 478.5M269.5 340.5 275.5 340.5" stroke="#595959" stroke-linejoin="round" stroke-miterlimit="10" fill="none"/></g><g clip-path="url(#clip5)"><path d="M384.5 380.5 384.5 401.5M384.5 380.5 384.5 358.5M381.5 401.5 387.5 401.5M381.5 358.5 387.5 358.5" stroke="#595959" stroke-linejoin="round" stroke-miterlimit="10" fill="none"/></g><g clip-path="url(#clip6)"><path d="M497.5 271.5 497.5 291.5M497.5 271.5 497.5 250.5M494.5 291.5 500.5 291.5M494.5 250.5 500.5 250.5" stroke="#595959" stroke-linejoin="round" stroke-miterlimit="10" fill="none"/></g><g clip-path="url(#clip7)"><path d="M610.5 264.5 610.5 290.5M610.5 264.5 610.5 237.5M607.5 290.5 613.5 290.5M607.5 237.5 613.5 237.5" stroke="#595959" stroke-linejoin="round" stroke-miterlimit="10" fill="none"/></g><g clip-path="url(#clip8)"><path d="M723.5 239.5 723.5 263.5M723.5 239.5 723.5 216.5M720.5 263.5 726.5 263.5M720.5 216.5 726.5 216.5" stroke="#595959" stroke-linejoin="round" stroke-miterlimit="10" fill="none"/></g><g clip-path="url(#clip9)"><path d="M836.5 252.5 836.5 271.5M836.5 252.5 836.5 233.5M833.5 271.5 839.5 271.5M833.5 233.5 839.5 233.5" stroke="#595959" stroke-linejoin="round" stroke-miterlimit="10" fill="none"/></g><g clip-path="url(#clip10)"><path d="M949.5 251.5 949.5 271.5M949.5 251.5 949.5 231.5M946.5 271.5 952.5 271.5M946.5 231.5 952.5 231.5" stroke="#595959" stroke-linejoin="round" stroke-miterlimit="10" fill="none"/></g><g clip-path="url(#clip11)"><path d="M1062.5 254.5 1062.5 270.5M1062.5 254.5 1062.5 238.5M1059.5 270.5 1065.5 270.5M1059.5 238.5 1065.5 238.5" stroke="#595959" stroke-linejoin="round" stroke-miterlimit="10" fill="none"/></g><g clip-path="url(#clip12)"><path d="M304.5 390.5 304.5 469.5M304.5 390.5 304.5 310.5M301.5 469.5 307.5 469.5M301.5 310.5 307.5 310.5" stroke="#595959" stroke-linejoin="round" stroke-miterlimit="10" fill="none"/></g><g clip-path="url(#clip13)"><path d="M417.5 314.5 417.5 360.5M417.5 314.5 417.5 267.5M414.5 360.5 420.5 360.5M414.5 267.5 420.5 267.5" stroke="#595959" stroke-linejoin="round" stroke-miterlimit="10" fill="none"/></g><g clip-path="url(#clip14)"><path d="M530.5 196.5 530.5 230.5M530.5 196.5 530.5 162.5M527.5 230.5 533.5 230.5M527.5 162.5 533.5 162.5" stroke="#595959" stroke-linejoin="round" stroke-miterlimit="10" fill="none"/></g><g clip-path="url(#clip15)"><path d="M642.5 184.5 642.5 251.5M642.5 184.5 642.5 117.5M639.5 251.5 645.5 251.5M639.5 117.5 645.5 117.5" stroke="#595959" stroke-linejoin="round" stroke-miterlimit="10" fill="none"/></g><g clip-path="url(#clip16)"><path d="M755.5 189.5 755.5 220.5M755.5 189.5 755.5 158.5M752.5 220.5 758.5 220.5M752.5 158.5 758.5 158.5" stroke="#595959" stroke-linejoin="round" stroke-miterlimit="10" fill="none"/></g><g clip-path="url(#clip17)"><path d="M868.5 207.5 868.5 229.5M868.5 207.5 868.5 186.5M865.5 229.5 871.5 229.5M865.5 186.5 871.5 186.5" stroke="#595959" stroke-linejoin="round" stroke-miterlimit="10" fill="none"/></g><g clip-path="url(#clip18)"><path d="M981.5 204.5 981.5 239.5M981.5 204.5 981.5 169.5M978.5 239.5 984.5 239.5M978.5 169.5 984.5 169.5" stroke="#595959" stroke-linejoin="round" stroke-miterlimit="10" fill="none"/></g><g clip-path="url(#clip19)"><path d="M1094.5 195.5 1094.5 211.5M1094.5 195.5 1094.5 180.5M1091.5 211.5 1097.5 211.5M1091.5 180.5 1097.5 180.5" stroke="#595959" stroke-linejoin="round" stroke-miterlimit="10" fill="none"/></g><g clip-path="url(#clip20)"><path d="M231.5 515.5 1134.5 515.5" stroke="#D9D9D9" stroke-linejoin="round" stroke-miterlimit="10" fill="none" fill-rule="evenodd"/></g><g clip-path="url(#clip21)"><text fill="#595959" font-family="Yu Gothic,Yu Gothic_MSFontService,sans-serif" font-weight="400" font-size="24" transform="translate(175.562 522)">0.1</text></g><g clip-path="url(#clip22)"><text fill="#595959" font-family="Yu Gothic,Yu Gothic_MSFontService,sans-serif" font-weight="400" font-size="24" transform="translate(162.215 479)">0.12</text></g><g clip-path="url(#clip23)"><text fill="#595959" font-family="Yu Gothic,Yu Gothic_MSFontService,sans-serif" font-weight="400" font-size="24" transform="translate(162.215 437)">0.14</text></g><g clip-path="url(#clip24)"><text fill="#595959" font-family="Yu Gothic,Yu Gothic_MSFontService,sans-serif" font-weight="400" font-size="24" transform="translate(162.215 394)">0.16</text></g><g clip-path="url(#clip25)"><text fill="#595959" font-family="Yu Gothic,Yu Gothic_MSFontService,sans-serif" font-weight="400" font-size="24" transform="translate(162.215 352)">0.18</text></g><g clip-path="url(#clip26)"><text fill="#595959" font-family="Yu Gothic,Yu Gothic_MSFontService,sans-serif" font-weight="400" font-size="24" transform="translate(175.562 309)">0.2</text></g><g clip-path="url(#clip27)"><text fill="#595959" font-family="Yu Gothic,Yu Gothic_MSFontService,sans-serif" font-weight="400" font-size="24" transform="translate(162.215 266)">0.22</text></g><g clip-path="url(#clip28)"><text fill="#595959" font-family="Yu Gothic,Yu Gothic_MSFontService,sans-serif" font-weight="400" font-size="24" transform="translate(162.215 224)">0.24</text></g><g clip-path="url(#clip29)"><text fill="#595959" font-family="Yu Gothic,Yu Gothic_MSFontService,sans-serif" font-weight="400" font-size="24" transform="translate(162.215 181)">0.26</text></g><g clip-path="url(#clip30)"><text fill="#595959" font-family="Yu Gothic,Yu Gothic_MSFontService,sans-serif" font-weight="400" font-size="24" transform="translate(162.215 138)">0.28</text></g><g clip-path="url(#clip31)"><text fill="#595959" font-family="Yu Gothic,Yu Gothic_MSFontService,sans-serif" font-weight="400" font-size="24" transform="translate(175.562 96)">0.3</text></g><g clip-path="url(#clip32)"><text fill="#595959" font-family="Yu Gothic,Yu Gothic_MSFontService,sans-serif" font-weight="400" font-size="24" transform="translate(268.177 555)">300</text></g><g clip-path="url(#clip33)"><text fill="#595959" font-family="Yu Gothic,Yu Gothic_MSFontService,sans-serif" font-weight="400" font-size="24" transform="translate(381.034 555)">400</text></g><g clip-path="url(#clip34)"><text fill="#595959" font-family="Yu Gothic,Yu Gothic_MSFontService,sans-serif" font-weight="400" font-size="24" transform="translate(493.892 555)">500</text></g><g clip-path="url(#clip35)"><text fill="#595959" font-family="Yu Gothic,Yu Gothic_MSFontService,sans-serif" font-weight="400" font-size="24" transform="translate(606.749 555)">600</text></g><g clip-path="url(#clip36)"><text fill="#595959" font-family="Yu Gothic,Yu Gothic_MSFontService,sans-serif" font-weight="400" font-size="24" transform="translate(719.606 555)">700</text></g><g clip-path="url(#clip37)"><text fill="#595959" font-family="Yu Gothic,Yu Gothic_MSFontService,sans-serif" font-weight="400" font-size="24" transform="translate(832.464 555)">800</text></g><g clip-path="url(#clip38)"><text fill="#595959" font-family="Yu Gothic,Yu Gothic_MSFontService,sans-serif" font-weight="400" font-size="24" transform="translate(945.321 555)">900</text></g><g clip-path="url(#clip39)"><text fill="#595959" font-family="Yu Gothic,Yu Gothic_MSFontService,sans-serif" font-weight="400" font-size="24" transform="translate(1051.5 555)">1000</text></g><g clip-path="url(#clip40)"><text fill="#595959" font-family="Yu Gothic,Yu Gothic_MSFontService,sans-serif" font-weight="400" font-size="27" transform="matrix(6.12323e-17 -1 1 6.12323e-17 121.217 454)">End to End </text></g><g clip-path="url(#clip41)"><text fill="#595959" font-family="Yu Gothic,Yu Gothic_MSFontService,sans-serif" font-weight="400" font-size="27" transform="matrix(6.12323e-17 -1 1 6.12323e-17 121.217 312)">delay(s)</text></g><g clip-path="url(#clip42)"><text fill="#595959" font-family="Yu Gothic,Yu Gothic_MSFontService,sans-serif" font-weight="400" font-size="27" transform="translate(530.512 598)">Number of Nodes</text></g><g clip-path="url(#clip43)"><rect x="422" y="618" width="14" height="14" fill="#4472C4"/></g><g clip-path="url(#clip44)"><text fill="#595959" font-family="Yu Gothic,Yu Gothic_MSFontService,sans-serif" font-weight="400" font-size="24" transform="translate(442.419 631)">shadowing   </text></g><g clip-path="url(#clip45)"><text fill="#595959" font-family="Yu Gothic,Yu Gothic_MSFontService,sans-serif" font-weight="400" font-size="24" transform="translate(581.805 631)">なし</text></g><g clip-path="url(#clip46)"><rect x="665" y="618" width="14" height="14" fill="#ED7D31"/></g><g clip-path="url(#clip47)"><text fill="#595959" font-family="Yu Gothic,Yu Gothic_MSFontService,sans-serif" font-weight="400" font-size="24" transform="translate(685.845 631)">shadowing  </text></g><g clip-path="url(#clip48)"><text fill="#595959" font-family="Yu Gothic,Yu Gothic_MSFontService,sans-serif" font-weight="400" font-size="24" transform="translate(818.385 631)">あり</text></g></g></svg>