<svg width="1146" height="586" xmlns="http://www.w3.org/2000/svg" xmlns:xlink="http://www.w3.org/1999/xlink" overflow="hidden"><defs><clipPath id="clip0"><path d="M67 67 1213 67 1213 653 67 653Z" fill-rule="evenodd" clip-rule="evenodd"/></clipPath><clipPath id="clip1"><path d="M67 67 1212 67 1212 652 67 652Z" fill-rule="evenodd" clip-rule="evenodd"/></clipPath><clipPath id="clip2"><path d="M199 83 1193 83 1193 561 199 561Z" fill-rule="evenodd" clip-rule="evenodd"/></clipPath><clipPath id="clip3"><path d="M199 83 1193 83 1193 561 199 561Z" fill-rule="evenodd" clip-rule="evenodd"/></clipPath><clipPath id="clip4"><path d="M199 83 1193 83 1193 561 199 561Z" fill-rule="evenodd" clip-rule="evenodd"/></clipPath><clipPath id="clip5"><path d="M199 83 1193 83 1193 561 199 561Z" fill-rule="evenodd" clip-rule="evenodd"/></clipPath><clipPath id="clip6"><path d="M199 83 1193 83 1193 560 199 560Z" fill-rule="evenodd" clip-rule="evenodd"/></clipPath><clipPath id="clip7"><path d="M199 83 1193 83 1193 560 199 560Z" fill-rule="evenodd" clip-rule="evenodd"/></clipPath><clipPath id="clip8"><path d="M199 83 1193 83 1193 560 199 560Z" fill-rule="evenodd" clip-rule="evenodd"/></clipPath><clipPath id="clip9"><path d="M199 83 1193 83 1193 560 199 560Z" fill-rule="evenodd" clip-rule="evenodd"/></clipPath><clipPath id="clip10"><path d="M199 83 1193 83 1193 560 199 560Z" fill-rule="evenodd" clip-rule="evenodd"/></clipPath><clipPath id="clip11"><path d="M199 83 1193 83 1193 560 199 560Z" fill-rule="evenodd" clip-rule="evenodd"/></clipPath><clipPath id="clip12"><path d="M199 83 1193 83 1193 560 199 560Z" fill-rule="evenodd" clip-rule="evenodd"/></clipPath><clipPath id="clip13"><path d="M199 83 1193 83 1193 560 199 560Z" fill-rule="evenodd" clip-rule="evenodd"/></clipPath><clipPath id="clip14"><path d="M199 83 1193 83 1193 560 199 560Z" fill-rule="evenodd" clip-rule="evenodd"/></clipPath><clipPath id="clip15"><path d="M199 83 1193 83 1193 560 199 560Z" fill-rule="evenodd" clip-rule="evenodd"/></clipPath><clipPath id="clip16"><path d="M199 83 1193 83 1193 560 199 560Z" fill-rule="evenodd" clip-rule="evenodd"/></clipPath><clipPath id="clip17"><path d="M199 83 1193 83 1193 560 199 560Z" fill-rule="evenodd" clip-rule="evenodd"/></clipPath><clipPath id="clip18"><path d="M199 83 1193 83 1193 560 199 560Z" fill-rule="evenodd" clip-rule="evenodd"/></clipPath><clipPath id="clip19"><path d="M199 83 1193 83 1193 560 199 560Z" fill-rule="evenodd" clip-rule="evenodd"/></clipPath><clipPath id="clip20"><path d="M199 83 1193 83 1193 560 199 560Z" fill-rule="evenodd" clip-rule="evenodd"/></clipPath><clipPath id="clip21"><path d="M199 83 1193 83 1193 560 199 560Z" fill-rule="evenodd" clip-rule="evenodd"/></clipPath><clipPath id="clip22"><path d="M199 83 1193 83 1193 560 199 560Z" fill-rule="evenodd" clip-rule="evenodd"/></clipPath><clipPath id="clip23"><path d="M199 83 1193 83 1193 560 199 560Z" fill-rule="evenodd" clip-rule="evenodd"/></clipPath><clipPath id="clip24"><path d="M199 83 1193 83 1193 560 199 560Z" fill-rule="evenodd" clip-rule="evenodd"/></clipPath><clipPath id="clip25"><path d="M199 83 1193 83 1193 560 199 560Z" fill-rule="evenodd" clip-rule="evenodd"/></clipPath><clipPath id="clip26"><path d="M199 83 1193 83 1193 560 199 560Z" fill-rule="evenodd" clip-rule="evenodd"/></clipPath><clipPath id="clip27"><path d="M199 83 1193 83 1193 560 199 560Z" fill-rule="evenodd" clip-rule="evenodd"/></clipPath><clipPath id="clip28"><path d="M199 83 1193 83 1193 560 199 560Z" fill-rule="evenodd" clip-rule="evenodd"/></clipPath><clipPath id="clip29"><path d="M199 83 1193 83 1193 560 199 560Z" fill-rule="evenodd" clip-rule="evenodd"/></clipPath><clipPath id="clip30"><path d="M199 83 1193 83 1193 560 199 560Z" fill-rule="evenodd" clip-rule="evenodd"/></clipPath><clipPath id="clip31"><path d="M199 83 1193 83 1193 560 199 560Z" fill-rule="evenodd" clip-rule="evenodd"/></clipPath><clipPath id="clip32"><path d="M199 83 1193 83 1193 560 199 560Z" fill-rule="evenodd" clip-rule="evenodd"/></clipPath><clipPath id="clip33"><path d="M199 83 1193 83 1193 560 199 560Z" fill-rule="evenodd" clip-rule="evenodd"/></clipPath><clipPath id="clip34"><path d="M67 67 1212 67 1212 652 67 652Z" fill-rule="evenodd" clip-rule="evenodd"/></clipPath><clipPath id="clip35"><path d="M67 67 1212 67 1212 652 67 652Z" fill-rule="evenodd" clip-rule="evenodd"/></clipPath><clipPath id="clip36"><path d="M67 67 1212 67 1212 652 67 652Z" fill-rule="evenodd" clip-rule="evenodd"/></clipPath><clipPath id="clip37"><path d="M67 67 1212 67 1212 652 67 652Z" fill-rule="evenodd" clip-rule="evenodd"/></clipPath><clipPath id="clip38"><path d="M67 67 1212 67 1212 652 67 652Z" fill-rule="evenodd" clip-rule="evenodd"/></clipPath><clipPath id="clip39"><path d="M67 67 1212 67 1212 652 67 652Z" fill-rule="evenodd" clip-rule="evenodd"/></clipPath><clipPath id="clip40"><path d="M67 67 1212 67 1212 652 67 652Z" fill-rule="evenodd" clip-rule="evenodd"/></clipPath><clipPath id="clip41"><path d="M67 67 1212 67 1212 652 67 652Z" fill-rule="evenodd" clip-rule="evenodd"/></clipPath><clipPath id="clip42"><path d="M67 67 1212 67 1212 652 67 652Z" fill-rule="evenodd" clip-rule="evenodd"/></clipPath><clipPath id="clip43"><path d="M67 67 1212 67 1212 652 67 652Z" fill-rule="evenodd" clip-rule="evenodd"/></clipPath><clipPath id="clip44"><path d="M67 67 1212 67 1212 652 67 652Z" fill-rule="evenodd" clip-rule="evenodd"/></clipPath><clipPath id="clip45"><path d="M67 67 1212 67 1212 652 67 652Z" fill-rule="evenodd" clip-rule="evenodd"/></clipPath><clipPath id="clip46"><path d="M67 67 1212 67 1212 652 67 652Z" fill-rule="evenodd" clip-rule="evenodd"/></clipPath><clipPath id="clip47"><path d="M67 67 1212 67 1212 652 67 652Z" fill-rule="evenodd" clip-rule="evenodd"/></clipPath><clipPath id="clip48"><path d="M67 67 1212 67 1212 652 67 652Z" fill-rule="evenodd" clip-rule="evenodd"/></clipPath><clipPath id="clip49"><path d="M67 67 1212 67 1212 652 67 652Z" fill-rule="evenodd" clip-rule="evenodd"/></clipPath><clipPath id="clip50"><path d="M67 67 1212 67 1212 652 67 652Z" fill-rule="evenodd" clip-rule="evenodd"/></clipPath><clipPath id="clip51"><path d="M67 67 1212 67 1212 652 67 652Z" fill-rule="evenodd" clip-rule="evenodd"/></clipPath><clipPath id="clip52"><path d="M67 67 1212 67 1212 652 67 652Z" fill-rule="evenodd" clip-rule="evenodd"/></clipPath><clipPath id="clip53"><path d="M67 67 1212 67 1212 652 67 652Z" fill-rule="evenodd" clip-rule="evenodd"/></clipPath><clipPath id="clip54"><path d="M115 628 779 628 779 657 115 657Z" fill-rule="evenodd" clip-rule="evenodd"/></clipPath><clipPath id="clip55"><path d="M67 67 1212 67 1212 652 67 652Z" fill-rule="evenodd" clip-rule="evenodd"/></clipPath><clipPath id="clip56"><path d="M115 628 779 628 779 657 115 657Z" fill-rule="evenodd" clip-rule="evenodd"/></clipPath><clipPath id="clip57"><path d="M67 67 1212 67 1212 652 67 652Z" fill-rule="evenodd" clip-rule="evenodd"/></clipPath><clipPath id="clip58"><path d="M67 67 1212 67 1212 652 67 652Z" fill-rule="evenodd" clip-rule="evenodd"/></clipPath><clipPath id="clip59"><path d="M224 628 987 628 987 657 224 657Z" fill-rule="evenodd" clip-rule="evenodd"/></clipPath><clipPath id="clip60"><path d="M67 67 1212 67 1212 652 67 652Z" fill-rule="evenodd" clip-rule="evenodd"/></clipPath><clipPath id="clip61"><path d="M224 628 987 628 987 657 224 657Z" fill-rule="evenodd" clip-rule="evenodd"/></clipPath><clipPath id="clip62"><path d="M67 67 1212 67 1212 652 67 652Z" fill-rule="evenodd" clip-rule="evenodd"/></clipPath><clipPath id="clip63"><path d="M67 67 1212 67 1212 652 67 652Z" fill-rule="evenodd" clip-rule="evenodd"/></clipPath><clipPath id="clip64"><path d="M411 628 1123 628 1123 657 411 657Z" fill-rule="evenodd" clip-rule="evenodd"/></clipPath><clipPath id="clip65"><path d="M67 67 1212 67 1212 652 67 652Z" fill-rule="evenodd" clip-rule="evenodd"/></clipPath><clipPath id="clip66"><path d="M411 628 1123 628 1123 657 411 657Z" fill-rule="evenodd" clip-rule="evenodd"/></clipPath><clipPath id="clip67"><path d="M67 67 1212 67 1212 652 67 652Z" fill-rule="evenodd" clip-rule="evenodd"/></clipPath><clipPath id="clip68"><path d="M67 67 1212 67 1212 652 67 652Z" fill-rule="evenodd" clip-rule="evenodd"/></clipPath><clipPath id="clip69"><path d="M567 628 1283 628 1283 657 567 657Z" fill-rule="evenodd" clip-rule="evenodd"/></clipPath><clipPath id="clip70"><path d="M67 67 1212 67 1212 652 67 652Z" fill-rule="evenodd" clip-rule="evenodd"/></clipPath><clipPath id="clip71"><path d="M567 628 1283 628 1283 657 567 657Z" fill-rule="evenodd" clip-rule="evenodd"/></clipPath></defs><g clip-path="url(#clip0)" transform="translate(-67 -67)"><g clip-path="url(#clip1)"><path d="M199.5 480.5 1192.5 480.5M199.5 401.5 1192.5 401.5M199.5 321.5 1192.5 321.5M199.5 242.5 1192.5 242.5M199.5 162.5 1192.5 162.5M199.5 83.5001 1192.5 83.5001" stroke="#D9D9D9" stroke-linejoin="round" stroke-miterlimit="10" fill="none"/></g><g clip-path="url(#clip2)"><path d="M222 251 242 251 242 560 222 560ZM364 168 384 168 384 560 364 560ZM506 175 526 175 526 560 506 560ZM648 169 668 169 668 560 648 560ZM789 182 810 182 810 560 789 560ZM931 203 952 203 952 560 931 560ZM1073 187 1093 187 1093 560 1073 560Z" fill="#4472C4"/></g><g clip-path="url(#clip3)"><path d="M248 251 268 251 268 560 248 560ZM390 163 410 163 410 560 390 560ZM532 154 552 154 552 560 532 560ZM673 158 694 158 694 560 673 560ZM815 172 835 172 835 560 815 560ZM957 169 977 169 977 560 957 560ZM1099 163 1119 163 1119 560 1099 560Z" fill="#ED7D31"/></g><g clip-path="url(#clip4)"><path d="M274 251 294 251 294 560 274 560ZM415 163 436 163 436 560 415 560ZM557 170 578 170 578 560 557 560ZM699 158 719 158 719 560 699 560ZM841 172 861 172 861 560 841 560ZM983 173 1003 173 1003 560 983 560ZM1125 163 1145 163 1145 560 1125 560Z" fill="#A5A5A5"/></g><g clip-path="url(#clip5)"><path d="M299 287 320 287 320 560 299 560ZM441 220 461 220 461 560 441 560ZM583 232 603 232 603 560 583 560ZM725 181 745 181 745 560 725 560ZM867 191 887 191 887 560 867 560ZM1008 187 1029 187 1029 560 1008 560ZM1150 206 1171 206 1171 560 1150 560Z" fill="#FFC000"/></g><g clip-path="url(#clip6)"><path d="M232.5 251.5 232.5 285.5M232.5 251.5 232.5 216.5M229.5 285.5 235.5 285.5M229.5 216.5 235.5 216.5" stroke="#595959" stroke-linejoin="round" stroke-miterlimit="10" fill="none"/></g><g clip-path="url(#clip7)"><path d="M374.5 167.5 374.5 192.5M374.5 167.5 374.5 142.5M371.5 192.5 377.5 192.5M371.5 142.5 377.5 142.5" stroke="#595959" stroke-linejoin="round" stroke-miterlimit="10" fill="none"/></g><g clip-path="url(#clip8)"><path d="M515.5 174.5 515.5 207.5M515.5 174.5 515.5 142.5M512.5 207.5 518.5 207.5M512.5 142.5 518.5 142.5" stroke="#595959" stroke-linejoin="round" stroke-miterlimit="10" fill="none"/></g><g clip-path="url(#clip9)"><path d="M657.5 168.5 657.5 191.5M657.5 168.5 657.5 146.5M654.5 191.5 660.5 191.5M654.5 146.5 660.5 146.5" stroke="#595959" stroke-linejoin="round" stroke-miterlimit="10" fill="none"/></g><g clip-path="url(#clip10)"><path d="M799.5 181.5 799.5 202.5M799.5 181.5 799.5 160.5M796.5 202.5 802.5 202.5M796.5 160.5 802.5 160.5" stroke="#595959" stroke-linejoin="round" stroke-miterlimit="10" fill="none"/></g><g clip-path="url(#clip11)"><path d="M941.5 203.5 941.5 224.5M941.5 203.5 941.5 182.5M938.5 224.5 944.5 224.5M938.5 182.5 944.5 182.5" stroke="#595959" stroke-linejoin="round" stroke-miterlimit="10" fill="none"/></g><g clip-path="url(#clip12)"><path d="M1083.5 187.5 1083.5 200.5M1083.5 187.5 1083.5 174.5M1080.5 200.5 1086.5 200.5M1080.5 174.5 1086.5 174.5" stroke="#595959" stroke-linejoin="round" stroke-miterlimit="10" fill="none"/></g><g clip-path="url(#clip13)"><path d="M257.5 251.5 257.5 285.5M257.5 251.5 257.5 216.5M254.5 285.5 260.5 285.5M254.5 216.5 260.5 216.5" stroke="#595959" stroke-linejoin="round" stroke-miterlimit="10" fill="none"/></g><g clip-path="url(#clip14)"><path d="M399.5 163.5 399.5 187.5M399.5 163.5 399.5 139.5M396.5 187.5 402.5 187.5M396.5 139.5 402.5 139.5" stroke="#595959" stroke-linejoin="round" stroke-miterlimit="10" fill="none"/></g><g clip-path="url(#clip15)"><path d="M541.5 154.5 541.5 193.5M541.5 154.5 541.5 115.5M538.5 193.5 544.5 193.5M538.5 115.5 544.5 115.5" stroke="#595959" stroke-linejoin="round" stroke-miterlimit="10" fill="none"/></g><g clip-path="url(#clip16)"><path d="M683.5 158.5 683.5 182.5M683.5 158.5 683.5 134.5M680.5 182.5 686.5 182.5M680.5 134.5 686.5 134.5" stroke="#595959" stroke-linejoin="round" stroke-miterlimit="10" fill="none"/></g><g clip-path="url(#clip17)"><path d="M825.5 171.5 825.5 195.5M825.5 171.5 825.5 148.5M822.5 195.5 828.5 195.5M822.5 148.5 828.5 148.5" stroke="#595959" stroke-linejoin="round" stroke-miterlimit="10" fill="none"/></g><g clip-path="url(#clip18)"><path d="M967.5 169.5 967.5 194.5M967.5 169.5 967.5 144.5M964.5 194.5 970.5 194.5M964.5 144.5 970.5 144.5" stroke="#595959" stroke-linejoin="round" stroke-miterlimit="10" fill="none"/></g><g clip-path="url(#clip19)"><path d="M1108.5 162.5 1108.5 174.5M1108.5 162.5 1108.5 151.5M1105.5 174.5 1111.5 174.5M1105.5 151.5 1111.5 151.5" stroke="#595959" stroke-linejoin="round" stroke-miterlimit="10" fill="none"/></g><g clip-path="url(#clip20)"><path d="M283.5 251.5 283.5 274.5M283.5 251.5 283.5 227.5M280.5 274.5 286.5 274.5M280.5 227.5 286.5 227.5" stroke="#595959" stroke-linejoin="round" stroke-miterlimit="10" fill="none"/></g><g clip-path="url(#clip21)"><path d="M425.5 163.5 425.5 187.5M425.5 163.5 425.5 139.5M422.5 187.5 428.5 187.5M422.5 139.5 428.5 139.5" stroke="#595959" stroke-linejoin="round" stroke-miterlimit="10" fill="none"/></g><g clip-path="url(#clip22)"><path d="M567.5 169.5 567.5 189.5M567.5 169.5 567.5 150.5M564.5 189.5 570.5 189.5M564.5 150.5 570.5 150.5" stroke="#595959" stroke-linejoin="round" stroke-miterlimit="10" fill="none"/></g><g clip-path="url(#clip23)"><path d="M709.5 158.5 709.5 181.5M709.5 158.5 709.5 134.5M706.5 181.5 712.5 181.5M706.5 134.5 712.5 134.5" stroke="#595959" stroke-linejoin="round" stroke-miterlimit="10" fill="none"/></g><g clip-path="url(#clip24)"><path d="M851.5 171.5 851.5 192.5M851.5 171.5 851.5 150.5M848.5 192.5 854.5 192.5M848.5 150.5 854.5 150.5" stroke="#595959" stroke-linejoin="round" stroke-miterlimit="10" fill="none"/></g><g clip-path="url(#clip25)"><path d="M992.5 172.5 992.5 198.5M992.5 172.5 992.5 146.5M989.5 198.5 995.5 198.5M989.5 146.5 995.5 146.5" stroke="#595959" stroke-linejoin="round" stroke-miterlimit="10" fill="none"/></g><g clip-path="url(#clip26)"><path d="M1134.5 162.5 1134.5 178.5M1134.5 162.5 1134.5 147.5M1131.5 178.5 1137.5 178.5M1131.5 147.5 1137.5 147.5" stroke="#595959" stroke-linejoin="round" stroke-miterlimit="10" fill="none"/></g><g clip-path="url(#clip27)"><path d="M309.5 287.5 309.5 309.5M309.5 287.5 309.5 264.5M306.5 309.5 312.5 309.5M306.5 264.5 312.5 264.5" stroke="#595959" stroke-linejoin="round" stroke-miterlimit="10" fill="none"/></g><g clip-path="url(#clip28)"><path d="M451.5 219.5 451.5 243.5M451.5 219.5 451.5 195.5M448.5 243.5 454.5 243.5M448.5 195.5 454.5 195.5" stroke="#595959" stroke-linejoin="round" stroke-miterlimit="10" fill="none"/></g><g clip-path="url(#clip29)"><path d="M593.5 232.5 593.5 249.5M593.5 232.5 593.5 215.5M590.5 249.5 596.5 249.5M590.5 215.5 596.5 215.5" stroke="#595959" stroke-linejoin="round" stroke-miterlimit="10" fill="none"/></g><g clip-path="url(#clip30)"><path d="M734.5 180.5 734.5 204.5M734.5 180.5 734.5 157.5M731.5 204.5 737.5 204.5M731.5 157.5 737.5 157.5" stroke="#595959" stroke-linejoin="round" stroke-miterlimit="10" fill="none"/></g><g clip-path="url(#clip31)"><path d="M876.5 191.5 876.5 210.5M876.5 191.5 876.5 172.5M873.5 210.5 879.5 210.5M873.5 172.5 879.5 172.5" stroke="#595959" stroke-linejoin="round" stroke-miterlimit="10" fill="none"/></g><g clip-path="url(#clip32)"><path d="M1018.5 187.5 1018.5 210.5M1018.5 187.5 1018.5 163.5M1015.5 210.5 1021.5 210.5M1015.5 163.5 1021.5 163.5" stroke="#595959" stroke-linejoin="round" stroke-miterlimit="10" fill="none"/></g><g clip-path="url(#clip33)"><path d="M1160.5 205.5 1160.5 220.5M1160.5 205.5 1160.5 190.5M1157.5 220.5 1163.5 220.5M1157.5 190.5 1163.5 190.5" stroke="#595959" stroke-linejoin="round" stroke-miterlimit="10" fill="none"/></g><g clip-path="url(#clip34)"><path d="M199.5 560.5 1192.5 560.5" stroke="#D9D9D9" stroke-linejoin="round" stroke-miterlimit="10" fill="none" fill-rule="evenodd"/></g><g clip-path="url(#clip35)"><text fill="#595959" font-family="Yu Gothic,Yu Gothic_MSFontService,sans-serif" font-weight="400" font-size="24" transform="translate(163.271 567)">0</text></g><g clip-path="url(#clip36)"><text fill="#595959" font-family="Yu Gothic,Yu Gothic_MSFontService,sans-serif" font-weight="400" font-size="24" transform="translate(130.391 488)">0.05</text></g><g clip-path="url(#clip37)"><text fill="#595959" font-family="Yu Gothic,Yu Gothic_MSFontService,sans-serif" font-weight="400" font-size="24" transform="translate(143.738 408)">0.1</text></g><g clip-path="url(#clip38)"><text fill="#595959" font-family="Yu Gothic,Yu Gothic_MSFontService,sans-serif" font-weight="400" font-size="24" transform="translate(130.391 329)">0.15</text></g><g clip-path="url(#clip39)"><text fill="#595959" font-family="Yu Gothic,Yu Gothic_MSFontService,sans-serif" font-weight="400" font-size="24" transform="translate(143.738 249)">0.2</text></g><g clip-path="url(#clip40)"><text fill="#595959" font-family="Yu Gothic,Yu Gothic_MSFontService,sans-serif" font-weight="400" font-size="24" transform="translate(130.391 169)">0.25</text></g><g clip-path="url(#clip41)"><text fill="#595959" font-family="Yu Gothic,Yu Gothic_MSFontService,sans-serif" font-weight="400" font-size="24" transform="translate(143.738 90)">0.3</text></g><g clip-path="url(#clip42)"><text fill="#595959" font-family="Yu Gothic,Yu Gothic_MSFontService,sans-serif" font-weight="400" font-size="24" transform="translate(250.841 600)">400</text></g><g clip-path="url(#clip43)"><text fill="#595959" font-family="Yu Gothic,Yu Gothic_MSFontService,sans-serif" font-weight="400" font-size="24" transform="translate(392.672 600)">500</text></g><g clip-path="url(#clip44)"><text fill="#595959" font-family="Yu Gothic,Yu Gothic_MSFontService,sans-serif" font-weight="400" font-size="24" transform="translate(534.504 600)">600</text></g><g clip-path="url(#clip45)"><text fill="#595959" font-family="Yu Gothic,Yu Gothic_MSFontService,sans-serif" font-weight="400" font-size="24" transform="translate(676.336 600)">700</text></g><g clip-path="url(#clip46)"><text fill="#595959" font-family="Yu Gothic,Yu Gothic_MSFontService,sans-serif" font-weight="400" font-size="24" transform="translate(818.167 600)">800</text></g><g clip-path="url(#clip47)"><text fill="#595959" font-family="Yu Gothic,Yu Gothic_MSFontService,sans-serif" font-weight="400" font-size="24" transform="translate(959.999 600)">900</text></g><g clip-path="url(#clip48)"><text fill="#595959" font-family="Yu Gothic,Yu Gothic_MSFontService,sans-serif" font-weight="400" font-size="24" transform="translate(1095.16 600)">1000</text></g><g clip-path="url(#clip49)"><text fill="#595959" font-family="Yu Gothic,Yu Gothic_MSFontService,sans-serif" font-weight="400" font-size="27" transform="matrix(6.12323e-17 -1 1 6.12323e-17 112.778 442)">End to End </text></g><g clip-path="url(#clip50)"><text fill="#595959" font-family="Yu Gothic,Yu Gothic_MSFontService,sans-serif" font-weight="400" font-size="27" transform="matrix(6.12323e-17 -1 1 6.12323e-17 112.778 300)">delay(s)</text></g><g clip-path="url(#clip51)"><text fill="#595959" font-family="Yu Gothic,Yu Gothic_MSFontService,sans-serif" font-weight="400" font-size="27" transform="translate(577.224 628)">Number of Nodes</text></g><g clip-path="url(#clip52)"><rect x="380" y="631" width="13" height="14" fill="#4472C4"/></g><g clip-path="url(#clip53)"><g clip-path="url(#clip54)"><text fill="#595959" font-family="Yu Gothic,Yu Gothic_MSFontService,sans-serif" font-weight="400" font-size="24" transform="translate(399.92 651)">SIGO  </text></g></g><g clip-path="url(#clip55)"><g clip-path="url(#clip56)"><text fill="#595959" font-family="Yu Gothic,Yu Gothic_MSFontService,sans-serif" font-weight="400" font-size="24" transform="translate(470.687 651)">多</text></g></g><g clip-path="url(#clip57)"><rect x="531" y="631" width="14" height="14" fill="#ED7D31"/></g><g clip-path="url(#clip58)"><g clip-path="url(#clip59)"><text fill="#595959" font-family="Yu Gothic,Yu Gothic_MSFontService,sans-serif" font-weight="400" font-size="24" transform="translate(551.027 651)">LSGO   </text></g></g><g clip-path="url(#clip60)"><g clip-path="url(#clip61)"><text fill="#595959" font-family="Yu Gothic,Yu Gothic_MSFontService,sans-serif" font-weight="400" font-size="24" transform="translate(635.967 651)">多</text></g></g><g clip-path="url(#clip62)"><rect x="696" y="631" width="14" height="14" fill="#A5A5A5"/></g><g clip-path="url(#clip63)"><g clip-path="url(#clip64)"><text fill="#595959" font-family="Yu Gothic,Yu Gothic_MSFontService,sans-serif" font-weight="400" font-size="24" transform="translate(716.306 651)">SIGO   </text></g></g><g clip-path="url(#clip65)"><g clip-path="url(#clip66)"><text fill="#595959" font-family="Yu Gothic,Yu Gothic_MSFontService,sans-serif" font-weight="400" font-size="24" transform="translate(793.919 651)">少</text></g></g><g clip-path="url(#clip67)"><rect x="854" y="631" width="14" height="14" fill="#FFC000"/></g><g clip-path="url(#clip68)"><g clip-path="url(#clip69)"><text fill="#595959" font-family="Yu Gothic,Yu Gothic_MSFontService,sans-serif" font-weight="400" font-size="24" transform="translate(874.259 651)">LSGO  </text></g></g><g clip-path="url(#clip70)"><g clip-path="url(#clip71)"><text fill="#595959" font-family="Yu Gothic,Yu Gothic_MSFontService,sans-serif" font-weight="400" font-size="24" transform="translate(952.352 651)">少</text></g></g></g></svg>