<svg width="1146" height="586" xmlns="http://www.w3.org/2000/svg" xmlns:xlink="http://www.w3.org/1999/xlink" overflow="hidden"><defs><clipPath id="clip0"><path d="M67 67 1213 67 1213 653 67 653Z" fill-rule="evenodd" clip-rule="evenodd"/></clipPath><clipPath id="clip1"><path d="M67 67 1212 67 1212 652 67 652Z" fill-rule="evenodd" clip-rule="evenodd"/></clipPath><clipPath id="clip2"><path d="M211 109 1204 109 1204 544 211 544Z" fill-rule="evenodd" clip-rule="evenodd"/></clipPath><clipPath id="clip3"><path d="M211 109 1204 109 1204 544 211 544Z" fill-rule="evenodd" clip-rule="evenodd"/></clipPath><clipPath id="clip4"><path d="M211 109 1204 109 1204 543 211 543Z" fill-rule="evenodd" clip-rule="evenodd"/></clipPath><clipPath id="clip5"><path d="M211 109 1204 109 1204 543 211 543Z" fill-rule="evenodd" clip-rule="evenodd"/></clipPath><clipPath id="clip6"><path d="M211 109 1204 109 1204 543 211 543Z" fill-rule="evenodd" clip-rule="evenodd"/></clipPath><clipPath id="clip7"><path d="M211 109 1204 109 1204 543 211 543Z" fill-rule="evenodd" clip-rule="evenodd"/></clipPath><clipPath id="clip8"><path d="M211 109 1204 109 1204 543 211 543Z" fill-rule="evenodd" clip-rule="evenodd"/></clipPath><clipPath id="clip9"><path d="M211 109 1204 109 1204 543 211 543Z" fill-rule="evenodd" clip-rule="evenodd"/></clipPath><clipPath id="clip10"><path d="M211 109 1204 109 1204 543 211 543Z" fill-rule="evenodd" clip-rule="evenodd"/></clipPath><clipPath id="clip11"><path d="M211 109 1204 109 1204 543 211 543Z" fill-rule="evenodd" clip-rule="evenodd"/></clipPath><clipPath id="clip12"><path d="M211 109 1204 109 1204 543 211 543Z" fill-rule="evenodd" clip-rule="evenodd"/></clipPath><clipPath id="clip13"><path d="M211 109 1204 109 1204 543 211 543Z" fill-rule="evenodd" clip-rule="evenodd"/></clipPath><clipPath id="clip14"><path d="M211 109 1204 109 1204 543 211 543Z" fill-rule="evenodd" clip-rule="evenodd"/></clipPath><clipPath id="clip15"><path d="M211 109 1204 109 1204 543 211 543Z" fill-rule="evenodd" clip-rule="evenodd"/></clipPath><clipPath id="clip16"><path d="M211 109 1204 109 1204 543 211 543Z" fill-rule="evenodd" clip-rule="evenodd"/></clipPath><clipPath id="clip17"><path d="M211 109 1204 109 1204 543 211 543Z" fill-rule="evenodd" clip-rule="evenodd"/></clipPath><clipPath id="clip18"><path d="M211 109 1204 109 1204 543 211 543Z" fill-rule="evenodd" clip-rule="evenodd"/></clipPath><clipPath id="clip19"><path d="M211 109 1204 109 1204 543 211 543Z" fill-rule="evenodd" clip-rule="evenodd"/></clipPath><clipPath id="clip20"><path d="M67 67 1212 67 1212 652 67 652Z" fill-rule="evenodd" clip-rule="evenodd"/></clipPath><clipPath id="clip21"><path d="M67 67 1212 67 1212 652 67 652Z" fill-rule="evenodd" clip-rule="evenodd"/></clipPath><clipPath id="clip22"><path d="M67 67 1212 67 1212 652 67 652Z" fill-rule="evenodd" clip-rule="evenodd"/></clipPath><clipPath id="clip23"><path d="M67 67 1212 67 1212 652 67 652Z" fill-rule="evenodd" clip-rule="evenodd"/></clipPath><clipPath id="clip24"><path d="M67 67 1212 67 1212 652 67 652Z" fill-rule="evenodd" clip-rule="evenodd"/></clipPath><clipPath id="clip25"><path d="M67 67 1212 67 1212 652 67 652Z" fill-rule="evenodd" clip-rule="evenodd"/></clipPath><clipPath id="clip26"><path d="M67 67 1212 67 1212 652 67 652Z" fill-rule="evenodd" clip-rule="evenodd"/></clipPath><clipPath id="clip27"><path d="M67 67 1212 67 1212 652 67 652Z" fill-rule="evenodd" clip-rule="evenodd"/></clipPath><clipPath id="clip28"><path d="M67 67 1212 67 1212 652 67 652Z" fill-rule="evenodd" clip-rule="evenodd"/></clipPath><clipPath id="clip29"><path d="M67 67 1212 67 1212 652 67 652Z" fill-rule="evenodd" clip-rule="evenodd"/></clipPath><clipPath id="clip30"><path d="M67 67 1212 67 1212 652 67 652Z" fill-rule="evenodd" clip-rule="evenodd"/></clipPath><clipPath id="clip31"><path d="M67 67 1212 67 1212 652 67 652Z" fill-rule="evenodd" clip-rule="evenodd"/></clipPath><clipPath id="clip32"><path d="M67 67 1212 67 1212 652 67 652Z" fill-rule="evenodd" clip-rule="evenodd"/></clipPath><clipPath id="clip33"><path d="M67 67 1212 67 1212 652 67 652Z" fill-rule="evenodd" clip-rule="evenodd"/></clipPath><clipPath id="clip34"><path d="M67 67 1212 67 1212 652 67 652Z" fill-rule="evenodd" clip-rule="evenodd"/></clipPath><clipPath id="clip35"><path d="M67 67 1212 67 1212 652 67 652Z" fill-rule="evenodd" clip-rule="evenodd"/></clipPath><clipPath id="clip36"><path d="M67 67 1212 67 1212 652 67 652Z" fill-rule="evenodd" clip-rule="evenodd"/></clipPath><clipPath id="clip37"><path d="M67 67 1212 67 1212 652 67 652Z" fill-rule="evenodd" clip-rule="evenodd"/></clipPath><clipPath id="clip38"><path d="M67 67 1212 67 1212 652 67 652Z" fill-rule="evenodd" clip-rule="evenodd"/></clipPath><clipPath id="clip39"><path d="M67 67 1212 67 1212 652 67 652Z" fill-rule="evenodd" clip-rule="evenodd"/></clipPath><clipPath id="clip40"><path d="M67 67 1212 67 1212 652 67 652Z" fill-rule="evenodd" clip-rule="evenodd"/></clipPath><clipPath id="clip41"><path d="M67 67 1212 67 1212 652 67 652Z" fill-rule="evenodd" clip-rule="evenodd"/></clipPath><clipPath id="clip42"><path d="M67 67 1212 67 1212 652 67 652Z" fill-rule="evenodd" clip-rule="evenodd"/></clipPath><clipPath id="clip43"><path d="M67 67 1212 67 1212 652 67 652Z" fill-rule="evenodd" clip-rule="evenodd"/></clipPath><clipPath id="clip44"><path d="M67 67 1212 67 1212 652 67 652Z" fill-rule="evenodd" clip-rule="evenodd"/></clipPath></defs><g clip-path="url(#clip0)" transform="translate(-67 -67)"><g clip-path="url(#clip1)"><path d="M211.5 481.5 1203.5 481.5M211.5 419.5 1203.5 419.5M211.5 357.5 1203.5 357.5M211.5 295.5 1203.5 295.5M211.5 233.5 1203.5 233.5M211.5 171.5 1203.5 171.5M211.5 109.5 1203.5 109.5" stroke="#D9D9D9" stroke-linejoin="round" stroke-miterlimit="10" fill="none"/></g><g clip-path="url(#clip2)"><path d="M238 242 274 242 274 544 238 544ZM362 363 398 363 398 544 362 544ZM486 432 522 432 522 544 486 544ZM610 455 646 455 646 544 610 544ZM734 496 770 496 770 544 734 544ZM858 489 894 489 894 544 858 544ZM982 497 1018 497 1018 544 982 544ZM1106 500 1142 500 1142 544 1106 544Z" fill="#4472C4"/></g><g clip-path="url(#clip3)"><path d="M274 174 309 174 309 544 274 544ZM398 365 433 365 433 544 398 544ZM522 319 557 319 557 544 522 544ZM646 394 681 394 681 544 646 544ZM770 395 805 395 805 544 770 544ZM894 396 929 396 929 544 894 544ZM1018 364 1053 364 1053 544 1018 544ZM1142 425 1177 425 1177 544 1142 544Z" fill="#ED7D31"/></g><g clip-path="url(#clip4)"><path d="M256.5 241.5 256.5 294.5M256.5 241.5 256.5 189.5M253.5 294.5 259.5 294.5M253.5 189.5 259.5 189.5" stroke="#595959" stroke-linejoin="round" stroke-miterlimit="10" fill="none"/></g><g clip-path="url(#clip5)"><path d="M380.5 362.5 380.5 395.5M380.5 362.5 380.5 330.5M377.5 395.5 383.5 395.5M377.5 330.5 383.5 330.5" stroke="#595959" stroke-linejoin="round" stroke-miterlimit="10" fill="none"/></g><g clip-path="url(#clip6)"><path d="M504.5 432.5 504.5 448.5M504.5 432.5 504.5 415.5M501.5 448.5 507.5 448.5M501.5 415.5 507.5 415.5" stroke="#595959" stroke-linejoin="round" stroke-miterlimit="10" fill="none"/></g><g clip-path="url(#clip7)"><path d="M628.5 454.5 628.5 478.5M628.5 454.5 628.5 430.5M625.5 478.5 631.5 478.5M625.5 430.5 631.5 430.5" stroke="#595959" stroke-linejoin="round" stroke-miterlimit="10" fill="none"/></g><g clip-path="url(#clip8)"><path d="M752.5 495.5 752.5 505.5M752.5 495.5 752.5 485.5M749.5 505.5 755.5 505.5M749.5 485.5 755.5 485.5" stroke="#595959" stroke-linejoin="round" stroke-miterlimit="10" fill="none"/></g><g clip-path="url(#clip9)"><path d="M876.5 489.5 876.5 499.5M876.5 489.5 876.5 478.5M873.5 499.5 879.5 499.5M873.5 478.5 879.5 478.5" stroke="#595959" stroke-linejoin="round" stroke-miterlimit="10" fill="none"/></g><g clip-path="url(#clip10)"><path d="M1000.5 497.5 1000.5 508.5M1000.5 497.5 1000.5 486.5M997.5 508.5 1003.5 508.5M997.5 486.5 1003.5 486.5" stroke="#595959" stroke-linejoin="round" stroke-miterlimit="10" fill="none"/></g><g clip-path="url(#clip11)"><path d="M1124.5 500.5 1124.5 510.5M1124.5 500.5 1124.5 490.5M1121.5 510.5 1127.5 510.5M1121.5 490.5 1127.5 490.5" stroke="#595959" stroke-linejoin="round" stroke-miterlimit="10" fill="none"/></g><g clip-path="url(#clip12)"><path d="M291.5 173.5 291.5 235.5M291.5 173.5 291.5 112.5M288.5 235.5 294.5 235.5M288.5 112.5 294.5 112.5" stroke="#595959" stroke-linejoin="round" stroke-miterlimit="10" fill="none"/></g><g clip-path="url(#clip13)"><path d="M415.5 364.5 415.5 392.5M415.5 364.5 415.5 336.5M412.5 392.5 418.5 392.5M412.5 336.5 418.5 336.5" stroke="#595959" stroke-linejoin="round" stroke-miterlimit="10" fill="none"/></g><g clip-path="url(#clip14)"><path d="M539.5 318.5 539.5 349.5M539.5 318.5 539.5 287.5M536.5 349.5 542.5 349.5M536.5 287.5 542.5 287.5" stroke="#595959" stroke-linejoin="round" stroke-miterlimit="10" fill="none"/></g><g clip-path="url(#clip15)"><path d="M663.5 393.5 663.5 433.5M663.5 393.5 663.5 354.5M660.5 433.5 666.5 433.5M660.5 354.5 666.5 354.5" stroke="#595959" stroke-linejoin="round" stroke-miterlimit="10" fill="none"/></g><g clip-path="url(#clip16)"><path d="M787.5 394.5 787.5 424.5M787.5 394.5 787.5 364.5M784.5 424.5 790.5 424.5M784.5 364.5 790.5 364.5" stroke="#595959" stroke-linejoin="round" stroke-miterlimit="10" fill="none"/></g><g clip-path="url(#clip17)"><path d="M911.5 395.5 911.5 434.5M911.5 395.5 911.5 356.5M908.5 434.5 914.5 434.5M908.5 356.5 914.5 356.5" stroke="#595959" stroke-linejoin="round" stroke-miterlimit="10" fill="none"/></g><g clip-path="url(#clip18)"><path d="M1035.5 364.5 1035.5 394.5M1035.5 364.5 1035.5 334.5M1032.5 394.5 1038.5 394.5M1032.5 334.5 1038.5 334.5" stroke="#595959" stroke-linejoin="round" stroke-miterlimit="10" fill="none"/></g><g clip-path="url(#clip19)"><path d="M1159.5 425.5 1159.5 453.5M1159.5 425.5 1159.5 396.5M1156.5 453.5 1162.5 453.5M1156.5 396.5 1162.5 396.5" stroke="#595959" stroke-linejoin="round" stroke-miterlimit="10" fill="none"/></g><g clip-path="url(#clip20)"><path d="M211.5 543.5 1203.5 543.5" stroke="#D9D9D9" stroke-linejoin="round" stroke-miterlimit="10" fill="none" fill-rule="evenodd"/></g><g clip-path="url(#clip21)"><text fill="#595959" font-family="Yu Gothic,Yu Gothic_MSFontService,sans-serif" font-weight="400" font-size="24" transform="translate(161.702 550)">15</text></g><g clip-path="url(#clip22)"><text fill="#595959" font-family="Yu Gothic,Yu Gothic_MSFontService,sans-serif" font-weight="400" font-size="24" transform="translate(161.702 488)">25</text></g><g clip-path="url(#clip23)"><text fill="#595959" font-family="Yu Gothic,Yu Gothic_MSFontService,sans-serif" font-weight="400" font-size="24" transform="translate(161.702 427)">35</text></g><g clip-path="url(#clip24)"><text fill="#595959" font-family="Yu Gothic,Yu Gothic_MSFontService,sans-serif" font-weight="400" font-size="24" transform="translate(161.702 365)">45</text></g><g clip-path="url(#clip25)"><text fill="#595959" font-family="Yu Gothic,Yu Gothic_MSFontService,sans-serif" font-weight="400" font-size="24" transform="translate(161.702 303)">55</text></g><g clip-path="url(#clip26)"><text fill="#595959" font-family="Yu Gothic,Yu Gothic_MSFontService,sans-serif" font-weight="400" font-size="24" transform="translate(161.702 241)">65</text></g><g clip-path="url(#clip27)"><text fill="#595959" font-family="Yu Gothic,Yu Gothic_MSFontService,sans-serif" font-weight="400" font-size="24" transform="translate(161.702 179)">75</text></g><g clip-path="url(#clip28)"><text fill="#595959" font-family="Yu Gothic,Yu Gothic_MSFontService,sans-serif" font-weight="400" font-size="24" transform="translate(161.702 117)">85</text></g><g clip-path="url(#clip29)"><text fill="#595959" font-family="Yu Gothic,Yu Gothic_MSFontService,sans-serif" font-weight="400" font-size="24" transform="translate(253.715 583)">300</text></g><g clip-path="url(#clip30)"><text fill="#595959" font-family="Yu Gothic,Yu Gothic_MSFontService,sans-serif" font-weight="400" font-size="24" transform="translate(377.742 583)">400</text></g><g clip-path="url(#clip31)"><text fill="#595959" font-family="Yu Gothic,Yu Gothic_MSFontService,sans-serif" font-weight="400" font-size="24" transform="translate(501.769 583)">500</text></g><g clip-path="url(#clip32)"><text fill="#595959" font-family="Yu Gothic,Yu Gothic_MSFontService,sans-serif" font-weight="400" font-size="24" transform="translate(625.795 583)">600</text></g><g clip-path="url(#clip33)"><text fill="#595959" font-family="Yu Gothic,Yu Gothic_MSFontService,sans-serif" font-weight="400" font-size="24" transform="translate(749.822 583)">700</text></g><g clip-path="url(#clip34)"><text fill="#595959" font-family="Yu Gothic,Yu Gothic_MSFontService,sans-serif" font-weight="400" font-size="24" transform="translate(873.849 583)">800</text></g><g clip-path="url(#clip35)"><text fill="#595959" font-family="Yu Gothic,Yu Gothic_MSFontService,sans-serif" font-weight="400" font-size="24" transform="translate(997.875 583)">900</text></g><g clip-path="url(#clip36)"><text fill="#595959" font-family="Yu Gothic,Yu Gothic_MSFontService,sans-serif" font-weight="400" font-size="24" transform="translate(1115.23 583)">1000</text></g><g clip-path="url(#clip37)"><text fill="#595959" font-family="Yu Gothic,Yu Gothic_MSFontService,sans-serif" font-weight="400" font-size="27" transform="matrix(6.12323e-17 -1 1 6.12323e-17 117.574 517)">Routing protocol overhead</text></g><g clip-path="url(#clip38)"><text fill="#595959" font-family="Yu Gothic,Yu Gothic_MSFontService,sans-serif" font-weight="400" font-size="27" transform="translate(544.55 611)">Number of Nodes</text></g><g clip-path="url(#clip39)"><rect x="422" y="618" width="14" height="14" fill="#4472C4"/></g><g clip-path="url(#clip40)"><text fill="#595959" font-family="Yu Gothic,Yu Gothic_MSFontService,sans-serif" font-weight="400" font-size="24" transform="translate(442.419 631)">shadowing   </text></g><g clip-path="url(#clip41)"><text fill="#595959" font-family="Yu Gothic,Yu Gothic_MSFontService,sans-serif" font-weight="400" font-size="24" transform="translate(581.805 631)">なし</text></g><g clip-path="url(#clip42)"><rect x="665" y="618" width="14" height="14" fill="#ED7D31"/></g><g clip-path="url(#clip43)"><text fill="#595959" font-family="Yu Gothic,Yu Gothic_MSFontService,sans-serif" font-weight="400" font-size="24" transform="translate(685.845 631)">shadowing  </text></g><g clip-path="url(#clip44)"><text fill="#595959" font-family="Yu Gothic,Yu Gothic_MSFontService,sans-serif" font-weight="400" font-size="24" transform="translate(818.385 631)">あり</text></g></g></svg>