<svg width="1146" height="611" xmlns="http://www.w3.org/2000/svg" xmlns:xlink="http://www.w3.org/1999/xlink" overflow="hidden"><defs><clipPath id="clip0"><path d="M67 67 1213 67 1213 678 67 678Z" fill-rule="evenodd" clip-rule="evenodd"/></clipPath><clipPath id="clip1"><path d="M67 67 1212 67 1212 677 67 677Z" fill-rule="evenodd" clip-rule="evenodd"/></clipPath><clipPath id="clip2"><path d="M180 83 1194 83 1194 542 180 542Z" fill-rule="evenodd" clip-rule="evenodd"/></clipPath><clipPath id="clip3"><path d="M180 83 1194 83 1194 542 180 542Z" fill-rule="evenodd" clip-rule="evenodd"/></clipPath><clipPath id="clip4"><path d="M180 83 1194 83 1194 542 180 542Z" fill-rule="evenodd" clip-rule="evenodd"/></clipPath><clipPath id="clip5"><path d="M180 83 1194 83 1194 542 180 542Z" fill-rule="evenodd" clip-rule="evenodd"/></clipPath><clipPath id="clip6"><path d="M180 83 1194 83 1194 541 180 541Z" fill-rule="evenodd" clip-rule="evenodd"/></clipPath><clipPath id="clip7"><path d="M180 83 1194 83 1194 541 180 541Z" fill-rule="evenodd" clip-rule="evenodd"/></clipPath><clipPath id="clip8"><path d="M180 83 1194 83 1194 541 180 541Z" fill-rule="evenodd" clip-rule="evenodd"/></clipPath><clipPath id="clip9"><path d="M180 83 1194 83 1194 541 180 541Z" fill-rule="evenodd" clip-rule="evenodd"/></clipPath><clipPath id="clip10"><path d="M180 83 1194 83 1194 541 180 541Z" fill-rule="evenodd" clip-rule="evenodd"/></clipPath><clipPath id="clip11"><path d="M180 83 1194 83 1194 541 180 541Z" fill-rule="evenodd" clip-rule="evenodd"/></clipPath><clipPath id="clip12"><path d="M180 83 1194 83 1194 541 180 541Z" fill-rule="evenodd" clip-rule="evenodd"/></clipPath><clipPath id="clip13"><path d="M180 83 1194 83 1194 541 180 541Z" fill-rule="evenodd" clip-rule="evenodd"/></clipPath><clipPath id="clip14"><path d="M180 83 1194 83 1194 541 180 541Z" fill-rule="evenodd" clip-rule="evenodd"/></clipPath><clipPath id="clip15"><path d="M180 83 1194 83 1194 541 180 541Z" fill-rule="evenodd" clip-rule="evenodd"/></clipPath><clipPath id="clip16"><path d="M180 83 1194 83 1194 541 180 541Z" fill-rule="evenodd" clip-rule="evenodd"/></clipPath><clipPath id="clip17"><path d="M180 83 1194 83 1194 541 180 541Z" fill-rule="evenodd" clip-rule="evenodd"/></clipPath><clipPath id="clip18"><path d="M180 83 1194 83 1194 541 180 541Z" fill-rule="evenodd" clip-rule="evenodd"/></clipPath><clipPath id="clip19"><path d="M180 83 1194 83 1194 541 180 541Z" fill-rule="evenodd" clip-rule="evenodd"/></clipPath><clipPath id="clip20"><path d="M180 83 1194 83 1194 541 180 541Z" fill-rule="evenodd" clip-rule="evenodd"/></clipPath><clipPath id="clip21"><path d="M180 83 1194 83 1194 541 180 541Z" fill-rule="evenodd" clip-rule="evenodd"/></clipPath><clipPath id="clip22"><path d="M180 83 1194 83 1194 541 180 541Z" fill-rule="evenodd" clip-rule="evenodd"/></clipPath><clipPath id="clip23"><path d="M180 83 1194 83 1194 541 180 541Z" fill-rule="evenodd" clip-rule="evenodd"/></clipPath><clipPath id="clip24"><path d="M180 83 1194 83 1194 541 180 541Z" fill-rule="evenodd" clip-rule="evenodd"/></clipPath><clipPath id="clip25"><path d="M180 83 1194 83 1194 541 180 541Z" fill-rule="evenodd" clip-rule="evenodd"/></clipPath><clipPath id="clip26"><path d="M180 83 1194 83 1194 541 180 541Z" fill-rule="evenodd" clip-rule="evenodd"/></clipPath><clipPath id="clip27"><path d="M180 83 1194 83 1194 541 180 541Z" fill-rule="evenodd" clip-rule="evenodd"/></clipPath><clipPath id="clip28"><path d="M180 83 1194 83 1194 541 180 541Z" fill-rule="evenodd" clip-rule="evenodd"/></clipPath><clipPath id="clip29"><path d="M180 83 1194 83 1194 541 180 541Z" fill-rule="evenodd" clip-rule="evenodd"/></clipPath><clipPath id="clip30"><path d="M180 83 1194 83 1194 541 180 541Z" fill-rule="evenodd" clip-rule="evenodd"/></clipPath><clipPath id="clip31"><path d="M180 83 1194 83 1194 541 180 541Z" fill-rule="evenodd" clip-rule="evenodd"/></clipPath><clipPath id="clip32"><path d="M180 83 1194 83 1194 541 180 541Z" fill-rule="evenodd" clip-rule="evenodd"/></clipPath><clipPath id="clip33"><path d="M180 83 1194 83 1194 541 180 541Z" fill-rule="evenodd" clip-rule="evenodd"/></clipPath><clipPath id="clip34"><path d="M67 67 1212 67 1212 677 67 677Z" fill-rule="evenodd" clip-rule="evenodd"/></clipPath><clipPath id="clip35"><path d="M67 67 1212 67 1212 677 67 677Z" fill-rule="evenodd" clip-rule="evenodd"/></clipPath><clipPath id="clip36"><path d="M67 67 1212 67 1212 677 67 677Z" fill-rule="evenodd" clip-rule="evenodd"/></clipPath><clipPath id="clip37"><path d="M67 67 1212 67 1212 677 67 677Z" fill-rule="evenodd" clip-rule="evenodd"/></clipPath><clipPath id="clip38"><path d="M67 67 1212 67 1212 677 67 677Z" fill-rule="evenodd" clip-rule="evenodd"/></clipPath><clipPath id="clip39"><path d="M67 67 1212 67 1212 677 67 677Z" fill-rule="evenodd" clip-rule="evenodd"/></clipPath><clipPath id="clip40"><path d="M67 67 1212 67 1212 677 67 677Z" fill-rule="evenodd" clip-rule="evenodd"/></clipPath><clipPath id="clip41"><path d="M67 67 1212 67 1212 677 67 677Z" fill-rule="evenodd" clip-rule="evenodd"/></clipPath><clipPath id="clip42"><path d="M67 67 1212 67 1212 677 67 677Z" fill-rule="evenodd" clip-rule="evenodd"/></clipPath><clipPath id="clip43"><path d="M67 67 1212 67 1212 677 67 677Z" fill-rule="evenodd" clip-rule="evenodd"/></clipPath><clipPath id="clip44"><path d="M67 67 1212 67 1212 677 67 677Z" fill-rule="evenodd" clip-rule="evenodd"/></clipPath><clipPath id="clip45"><path d="M67 67 1212 67 1212 677 67 677Z" fill-rule="evenodd" clip-rule="evenodd"/></clipPath><clipPath id="clip46"><path d="M67 67 1212 67 1212 677 67 677Z" fill-rule="evenodd" clip-rule="evenodd"/></clipPath><clipPath id="clip47"><path d="M67 67 1212 67 1212 677 67 677Z" fill-rule="evenodd" clip-rule="evenodd"/></clipPath><clipPath id="clip48"><path d="M67 67 1212 67 1212 677 67 677Z" fill-rule="evenodd" clip-rule="evenodd"/></clipPath><clipPath id="clip49"><path d="M67 67 1212 67 1212 677 67 677Z" fill-rule="evenodd" clip-rule="evenodd"/></clipPath><clipPath id="clip50"><path d="M67 67 1212 67 1212 677 67 677Z" fill-rule="evenodd" clip-rule="evenodd"/></clipPath><clipPath id="clip51"><path d="M67 67 1212 67 1212 677 67 677Z" fill-rule="evenodd" clip-rule="evenodd"/></clipPath><clipPath id="clip52"><path d="M67 67 1212 67 1212 677 67 677Z" fill-rule="evenodd" clip-rule="evenodd"/></clipPath><clipPath id="clip53"><path d="M89 629 753 629 753 669 89 669Z" fill-rule="evenodd" clip-rule="evenodd"/></clipPath><clipPath id="clip54"><path d="M67 67 1212 67 1212 677 67 677Z" fill-rule="evenodd" clip-rule="evenodd"/></clipPath><clipPath id="clip55"><path d="M89 629 753 629 753 669 89 669Z" fill-rule="evenodd" clip-rule="evenodd"/></clipPath><clipPath id="clip56"><path d="M67 67 1212 67 1212 677 67 677Z" fill-rule="evenodd" clip-rule="evenodd"/></clipPath><clipPath id="clip57"><path d="M67 67 1212 67 1212 677 67 677Z" fill-rule="evenodd" clip-rule="evenodd"/></clipPath><clipPath id="clip58"><path d="M190 629 953 629 953 669 190 669Z" fill-rule="evenodd" clip-rule="evenodd"/></clipPath><clipPath id="clip59"><path d="M67 67 1212 67 1212 677 67 677Z" fill-rule="evenodd" clip-rule="evenodd"/></clipPath><clipPath id="clip60"><path d="M190 629 953 629 953 669 190 669Z" fill-rule="evenodd" clip-rule="evenodd"/></clipPath><clipPath id="clip61"><path d="M67 67 1212 67 1212 677 67 677Z" fill-rule="evenodd" clip-rule="evenodd"/></clipPath><clipPath id="clip62"><path d="M67 67 1212 67 1212 677 67 677Z" fill-rule="evenodd" clip-rule="evenodd"/></clipPath><clipPath id="clip63"><path d="M369 629 1081 629 1081 669 369 669Z" fill-rule="evenodd" clip-rule="evenodd"/></clipPath><clipPath id="clip64"><path d="M67 67 1212 67 1212 677 67 677Z" fill-rule="evenodd" clip-rule="evenodd"/></clipPath><clipPath id="clip65"><path d="M369 629 1081 629 1081 669 369 669Z" fill-rule="evenodd" clip-rule="evenodd"/></clipPath><clipPath id="clip66"><path d="M67 67 1212 67 1212 677 67 677Z" fill-rule="evenodd" clip-rule="evenodd"/></clipPath><clipPath id="clip67"><path d="M67 67 1212 67 1212 677 67 677Z" fill-rule="evenodd" clip-rule="evenodd"/></clipPath><clipPath id="clip68"><path d="M518 629 1233 629 1233 669 518 669Z" fill-rule="evenodd" clip-rule="evenodd"/></clipPath><clipPath id="clip69"><path d="M67 67 1212 67 1212 677 67 677Z" fill-rule="evenodd" clip-rule="evenodd"/></clipPath><clipPath id="clip70"><path d="M518 629 1233 629 1233 669 518 669Z" fill-rule="evenodd" clip-rule="evenodd"/></clipPath></defs><g clip-path="url(#clip0)" transform="translate(-67 -67)"><g clip-path="url(#clip1)"><path d="M180.5 465.5 1193.5 465.5M180.5 388.5 1193.5 388.5M180.5 312.5 1193.5 312.5M180.5 235.5 1193.5 235.5M180.5 159.5 1193.5 159.5M180.5 83.5001 1193.5 83.5001" stroke="#D9D9D9" stroke-linejoin="round" stroke-miterlimit="10" fill="none"/></g><g clip-path="url(#clip2)"><path d="M203 183 224 183 224 541 203 541ZM348 168 368 168 368 541 348 541ZM492 258 513 258 513 541 492 541ZM637 203 658 203 658 541 637 541ZM782 260 803 260 803 541 782 541ZM927 233 947 233 947 541 927 541ZM1071 292 1092 292 1092 541 1071 541Z" fill="#4472C4"/></g><g clip-path="url(#clip3)"><path d="M229 191 250 191 250 541 229 541ZM374 150 395 150 395 541 374 541ZM519 242 539 242 539 541 519 541ZM663 243 684 243 684 541 663 541ZM808 244 829 244 829 541 808 541ZM953 206 974 206 974 541 953 541ZM1098 281 1118 281 1118 541 1098 541Z" fill="#ED7D31"/></g><g clip-path="url(#clip4)"><path d="M256 206 276 206 276 541 256 541ZM400 150 421 150 421 541 400 541ZM545 250 566 250 566 541 545 541ZM690 243 710 243 710 541 690 541ZM834 244 855 244 855 541 834 541ZM979 206 1000 206 1000 541 979 541ZM1124 281 1144 281 1144 541 1124 541Z" fill="#A5A5A5"/></g><g clip-path="url(#clip5)"><path d="M282 206 302 206 302 541 282 541ZM427 304 447 304 447 541 427 541ZM571 348 592 348 592 541 571 541ZM716 309 737 309 737 541 716 541ZM861 361 881 361 881 541 861 541ZM1005 375 1026 375 1026 541 1005 541ZM1150 350 1171 350 1171 541 1150 541Z" fill="#FFC000"/></g><g clip-path="url(#clip6)"><path d="M213.5 183.5 213.5 217.5M213.5 183.5 213.5 148.5M210.5 217.5 216.5 217.5M210.5 148.5 216.5 148.5" stroke="#595959" stroke-linejoin="round" stroke-miterlimit="10" fill="none"/></g><g clip-path="url(#clip7)"><path d="M358.5 168.5 358.5 201.5M358.5 168.5 358.5 134.5M355.5 201.5 361.5 201.5M355.5 134.5 361.5 134.5" stroke="#595959" stroke-linejoin="round" stroke-miterlimit="10" fill="none"/></g><g clip-path="url(#clip8)"><path d="M502.5 258.5 502.5 294.5M502.5 258.5 502.5 222.5M499.5 294.5 505.5 294.5M499.5 222.5 505.5 222.5" stroke="#595959" stroke-linejoin="round" stroke-miterlimit="10" fill="none"/></g><g clip-path="url(#clip9)"><path d="M647.5 202.5 647.5 242.5M647.5 202.5 647.5 162.5M644.5 242.5 650.5 242.5M644.5 162.5 650.5 162.5" stroke="#595959" stroke-linejoin="round" stroke-miterlimit="10" fill="none"/></g><g clip-path="url(#clip10)"><path d="M792.5 260.5 792.5 289.5M792.5 260.5 792.5 231.5M789.5 289.5 795.5 289.5M789.5 231.5 795.5 231.5" stroke="#595959" stroke-linejoin="round" stroke-miterlimit="10" fill="none"/></g><g clip-path="url(#clip11)"><path d="M936.5 233.5 936.5 263.5M936.5 233.5 936.5 203.5M933.5 263.5 939.5 263.5M933.5 203.5 939.5 203.5" stroke="#595959" stroke-linejoin="round" stroke-miterlimit="10" fill="none"/></g><g clip-path="url(#clip12)"><path d="M1081.5 291.5 1081.5 325.5M1081.5 291.5 1081.5 257.5M1078.5 325.5 1084.5 325.5M1078.5 257.5 1084.5 257.5" stroke="#595959" stroke-linejoin="round" stroke-miterlimit="10" fill="none"/></g><g clip-path="url(#clip13)"><path d="M239.5 190.5 239.5 225.5M239.5 190.5 239.5 156.5M236.5 225.5 242.5 225.5M236.5 156.5 242.5 156.5" stroke="#595959" stroke-linejoin="round" stroke-miterlimit="10" fill="none"/></g><g clip-path="url(#clip14)"><path d="M384.5 149.5 384.5 188.5M384.5 149.5 384.5 110.5M381.5 188.5 387.5 188.5M381.5 110.5 387.5 110.5" stroke="#595959" stroke-linejoin="round" stroke-miterlimit="10" fill="none"/></g><g clip-path="url(#clip15)"><path d="M529.5 241.5 529.5 287.5M529.5 241.5 529.5 196.5M526.5 287.5 532.5 287.5M526.5 196.5 532.5 196.5" stroke="#595959" stroke-linejoin="round" stroke-miterlimit="10" fill="none"/></g><g clip-path="url(#clip16)"><path d="M673.5 243.5 673.5 281.5M673.5 243.5 673.5 204.5M670.5 281.5 676.5 281.5M670.5 204.5 676.5 204.5" stroke="#595959" stroke-linejoin="round" stroke-miterlimit="10" fill="none"/></g><g clip-path="url(#clip17)"><path d="M818.5 244.5 818.5 290.5M818.5 244.5 818.5 197.5M815.5 290.5 821.5 290.5M815.5 197.5 821.5 197.5" stroke="#595959" stroke-linejoin="round" stroke-miterlimit="10" fill="none"/></g><g clip-path="url(#clip18)"><path d="M963.5 205.5 963.5 241.5M963.5 205.5 963.5 170.5M960.5 241.5 966.5 241.5M960.5 170.5 966.5 170.5" stroke="#595959" stroke-linejoin="round" stroke-miterlimit="10" fill="none"/></g><g clip-path="url(#clip19)"><path d="M1107.5 280.5 1107.5 313.5M1107.5 280.5 1107.5 247.5M1104.5 313.5 1110.5 313.5M1104.5 247.5 1110.5 247.5" stroke="#595959" stroke-linejoin="round" stroke-miterlimit="10" fill="none"/></g><g clip-path="url(#clip20)"><path d="M265.5 206.5 265.5 244.5M265.5 206.5 265.5 167.5M262.5 244.5 268.5 244.5M262.5 167.5 268.5 167.5" stroke="#595959" stroke-linejoin="round" stroke-miterlimit="10" fill="none"/></g><g clip-path="url(#clip21)"><path d="M410.5 149.5 410.5 162.5M410.5 149.5 410.5 137.5M407.5 162.5 413.5 162.5M407.5 137.5 413.5 137.5" stroke="#595959" stroke-linejoin="round" stroke-miterlimit="10" fill="none"/></g><g clip-path="url(#clip22)"><path d="M555.5 249.5 555.5 258.5M555.5 249.5 555.5 241.5M552.5 258.5 558.5 258.5M552.5 241.5 558.5 241.5" stroke="#595959" stroke-linejoin="round" stroke-miterlimit="10" fill="none"/></g><g clip-path="url(#clip23)"><path d="M700.5 243.5 700.5 257.5M700.5 243.5 700.5 228.5M697.5 257.5 703.5 257.5M697.5 228.5 703.5 228.5" stroke="#595959" stroke-linejoin="round" stroke-miterlimit="10" fill="none"/></g><g clip-path="url(#clip24)"><path d="M844.5 244.5 844.5 255.5M844.5 244.5 844.5 233.5M841.5 255.5 847.5 255.5M841.5 233.5 847.5 233.5" stroke="#595959" stroke-linejoin="round" stroke-miterlimit="10" fill="none"/></g><g clip-path="url(#clip25)"><path d="M989.5 205.5 989.5 216.5M989.5 205.5 989.5 195.5M986.5 216.5 992.5 216.5M986.5 195.5 992.5 195.5" stroke="#595959" stroke-linejoin="round" stroke-miterlimit="10" fill="none"/></g><g clip-path="url(#clip26)"><path d="M1134.5 280.5 1134.5 293.5M1134.5 280.5 1134.5 268.5M1131.5 293.5 1137.5 293.5M1131.5 268.5 1137.5 268.5" stroke="#595959" stroke-linejoin="round" stroke-miterlimit="10" fill="none"/></g><g clip-path="url(#clip27)"><path d="M292.5 206.5 292.5 242.5M292.5 206.5 292.5 169.5M289.5 242.5 295.5 242.5M289.5 169.5 295.5 169.5" stroke="#595959" stroke-linejoin="round" stroke-miterlimit="10" fill="none"/></g><g clip-path="url(#clip28)"><path d="M436.5 304.5 436.5 317.5M436.5 304.5 436.5 290.5M433.5 317.5 439.5 317.5M433.5 290.5 439.5 290.5" stroke="#595959" stroke-linejoin="round" stroke-miterlimit="10" fill="none"/></g><g clip-path="url(#clip29)"><path d="M581.5 348.5 581.5 361.5M581.5 348.5 581.5 335.5M578.5 361.5 584.5 361.5M578.5 335.5 584.5 335.5" stroke="#595959" stroke-linejoin="round" stroke-miterlimit="10" fill="none"/></g><g clip-path="url(#clip30)"><path d="M726.5 308.5 726.5 327.5M726.5 308.5 726.5 289.5M723.5 327.5 729.5 327.5M723.5 289.5 729.5 289.5" stroke="#595959" stroke-linejoin="round" stroke-miterlimit="10" fill="none"/></g><g clip-path="url(#clip31)"><path d="M870.5 360.5 870.5 373.5M870.5 360.5 870.5 347.5M867.5 373.5 873.5 373.5M867.5 347.5 873.5 347.5" stroke="#595959" stroke-linejoin="round" stroke-miterlimit="10" fill="none"/></g><g clip-path="url(#clip32)"><path d="M1015.5 375.5 1015.5 384.5M1015.5 375.5 1015.5 365.5M1012.5 384.5 1018.5 384.5M1012.5 365.5 1018.5 365.5" stroke="#595959" stroke-linejoin="round" stroke-miterlimit="10" fill="none"/></g><g clip-path="url(#clip33)"><path d="M1160.5 349.5 1160.5 362.5M1160.5 349.5 1160.5 336.5M1157.5 362.5 1163.5 362.5M1157.5 336.5 1163.5 336.5" stroke="#595959" stroke-linejoin="round" stroke-miterlimit="10" fill="none"/></g><g clip-path="url(#clip34)"><path d="M180.5 541.5 1193.5 541.5" stroke="#D9D9D9" stroke-linejoin="round" stroke-miterlimit="10" fill="none" fill-rule="evenodd"/></g><g clip-path="url(#clip35)"><text fill="#595959" font-family="Yu Gothic,Yu Gothic_MSFontService,sans-serif" font-weight="400" font-size="24" transform="translate(143.757 548)">0</text></g><g clip-path="url(#clip36)"><text fill="#595959" font-family="Yu Gothic,Yu Gothic_MSFontService,sans-serif" font-weight="400" font-size="24" transform="translate(130.411 472)">10</text></g><g clip-path="url(#clip37)"><text fill="#595959" font-family="Yu Gothic,Yu Gothic_MSFontService,sans-serif" font-weight="400" font-size="24" transform="translate(130.411 395)">20</text></g><g clip-path="url(#clip38)"><text fill="#595959" font-family="Yu Gothic,Yu Gothic_MSFontService,sans-serif" font-weight="400" font-size="24" transform="translate(130.411 319)">30</text></g><g clip-path="url(#clip39)"><text fill="#595959" font-family="Yu Gothic,Yu Gothic_MSFontService,sans-serif" font-weight="400" font-size="24" transform="translate(130.411 243)">40</text></g><g clip-path="url(#clip40)"><text fill="#595959" font-family="Yu Gothic,Yu Gothic_MSFontService,sans-serif" font-weight="400" font-size="24" transform="translate(130.411 166)">50</text></g><g clip-path="url(#clip41)"><text fill="#595959" font-family="Yu Gothic,Yu Gothic_MSFontService,sans-serif" font-weight="400" font-size="24" transform="translate(130.411 90)">60</text></g><g clip-path="url(#clip42)"><text fill="#595959" font-family="Yu Gothic,Yu Gothic_MSFontService,sans-serif" font-weight="400" font-size="24" transform="translate(232.762 581)">400</text></g><g clip-path="url(#clip43)"><text fill="#595959" font-family="Yu Gothic,Yu Gothic_MSFontService,sans-serif" font-weight="400" font-size="24" transform="translate(377.464 581)">500</text></g><g clip-path="url(#clip44)"><text fill="#595959" font-family="Yu Gothic,Yu Gothic_MSFontService,sans-serif" font-weight="400" font-size="24" transform="translate(522.166 581)">600</text></g><g clip-path="url(#clip45)"><text fill="#595959" font-family="Yu Gothic,Yu Gothic_MSFontService,sans-serif" font-weight="400" font-size="24" transform="translate(666.868 581)">700</text></g><g clip-path="url(#clip46)"><text fill="#595959" font-family="Yu Gothic,Yu Gothic_MSFontService,sans-serif" font-weight="400" font-size="24" transform="translate(811.569 581)">800</text></g><g clip-path="url(#clip47)"><text fill="#595959" font-family="Yu Gothic,Yu Gothic_MSFontService,sans-serif" font-weight="400" font-size="24" transform="translate(956.271 581)">900</text></g><g clip-path="url(#clip48)"><text fill="#595959" font-family="Yu Gothic,Yu Gothic_MSFontService,sans-serif" font-weight="400" font-size="24" transform="translate(1094.3 581)">1000</text></g><g clip-path="url(#clip49)"><text fill="#595959" font-family="Yu Gothic,Yu Gothic_MSFontService,sans-serif" font-weight="400" font-size="27" transform="matrix(6.12323e-17 -1 1 6.12323e-17 111.354 479)">Routing protocol overhead</text></g><g clip-path="url(#clip50)"><text fill="#595959" font-family="Yu Gothic,Yu Gothic_MSFontService,sans-serif" font-weight="400" font-size="27" transform="translate(576.151 621)">Number of Nodes</text></g><g clip-path="url(#clip51)"><rect x="353" y="643" width="14" height="14" fill="#4472C4"/></g><g clip-path="url(#clip52)"><g clip-path="url(#clip53)"><text fill="#595959" font-family="Yu Gothic,Yu Gothic_MSFontService,sans-serif" font-weight="400" font-size="24" transform="translate(373.538 657)">SIGO  </text></g></g><g clip-path="url(#clip54)"><g clip-path="url(#clip55)"><text fill="#595959" font-family="Yu Gothic,Yu Gothic_MSFontService,sans-serif" font-weight="400" font-size="24" transform="translate(444.305 657)">多</text></g></g><g clip-path="url(#clip56)"><rect x="497" y="643" width="13" height="14" fill="#ED7D31"/></g><g clip-path="url(#clip57)"><g clip-path="url(#clip58)"><text fill="#595959" font-family="Yu Gothic,Yu Gothic_MSFontService,sans-serif" font-weight="400" font-size="24" transform="translate(516.854 657)">LSGO   </text></g></g><g clip-path="url(#clip59)"><g clip-path="url(#clip60)"><text fill="#595959" font-family="Yu Gothic,Yu Gothic_MSFontService,sans-serif" font-weight="400" font-size="24" transform="translate(601.794 657)">多</text></g></g><g clip-path="url(#clip61)"><rect x="654" y="643" width="14" height="14" fill="#A5A5A5"/></g><g clip-path="url(#clip62)"><g clip-path="url(#clip63)"><text fill="#595959" font-family="Yu Gothic,Yu Gothic_MSFontService,sans-serif" font-weight="400" font-size="24" transform="translate(674.343 657)">SIGO   </text></g></g><g clip-path="url(#clip64)"><g clip-path="url(#clip65)"><text fill="#595959" font-family="Yu Gothic,Yu Gothic_MSFontService,sans-serif" font-weight="400" font-size="24" transform="translate(751.956 657)">少</text></g></g><g clip-path="url(#clip66)"><rect x="804" y="643" width="14" height="14" fill="#FFC000"/></g><g clip-path="url(#clip67)"><g clip-path="url(#clip68)"><text fill="#595959" font-family="Yu Gothic,Yu Gothic_MSFontService,sans-serif" font-weight="400" font-size="24" transform="translate(824.505 657)">LSGO  </text></g></g><g clip-path="url(#clip69)"><g clip-path="url(#clip70)"><text fill="#595959" font-family="Yu Gothic,Yu Gothic_MSFontService,sans-serif" font-weight="400" font-size="24" transform="translate(902.598 657)">少</text></g></g></g></svg>