<svg width="1146" height="586" xmlns="http://www.w3.org/2000/svg" xmlns:xlink="http://www.w3.org/1999/xlink" overflow="hidden"><defs><clipPath id="clip0"><path d="M67 67 1213 67 1213 653 67 653Z" fill-rule="evenodd" clip-rule="evenodd"/></clipPath><clipPath id="clip1"><path d="M67 67 1212 67 1212 652 67 652Z" fill-rule="evenodd" clip-rule="evenodd"/></clipPath><clipPath id="clip2"><path d="M194 100 1205 100 1205 528 194 528Z" fill-rule="evenodd" clip-rule="evenodd"/></clipPath><clipPath id="clip3"><path d="M194 100 1205 100 1205 528 194 528Z" fill-rule="evenodd" clip-rule="evenodd"/></clipPath><clipPath id="clip4"><path d="M194 100 1205 100 1205 527 194 527Z" fill-rule="evenodd" clip-rule="evenodd"/></clipPath><clipPath id="clip5"><path d="M194 100 1205 100 1205 527 194 527Z" fill-rule="evenodd" clip-rule="evenodd"/></clipPath><clipPath id="clip6"><path d="M194 100 1205 100 1205 527 194 527Z" fill-rule="evenodd" clip-rule="evenodd"/></clipPath><clipPath id="clip7"><path d="M194 100 1205 100 1205 527 194 527Z" fill-rule="evenodd" clip-rule="evenodd"/></clipPath><clipPath id="clip8"><path d="M194 100 1205 100 1205 527 194 527Z" fill-rule="evenodd" clip-rule="evenodd"/></clipPath><clipPath id="clip9"><path d="M194 100 1205 100 1205 527 194 527Z" fill-rule="evenodd" clip-rule="evenodd"/></clipPath><clipPath id="clip10"><path d="M194 100 1205 100 1205 527 194 527Z" fill-rule="evenodd" clip-rule="evenodd"/></clipPath><clipPath id="clip11"><path d="M194 100 1205 100 1205 527 194 527Z" fill-rule="evenodd" clip-rule="evenodd"/></clipPath><clipPath id="clip12"><path d="M194 100 1205 100 1205 527 194 527Z" fill-rule="evenodd" clip-rule="evenodd"/></clipPath><clipPath id="clip13"><path d="M194 100 1205 100 1205 527 194 527Z" fill-rule="evenodd" clip-rule="evenodd"/></clipPath><clipPath id="clip14"><path d="M194 100 1205 100 1205 527 194 527Z" fill-rule="evenodd" clip-rule="evenodd"/></clipPath><clipPath id="clip15"><path d="M194 100 1205 100 1205 527 194 527Z" fill-rule="evenodd" clip-rule="evenodd"/></clipPath><clipPath id="clip16"><path d="M194 100 1205 100 1205 527 194 527Z" fill-rule="evenodd" clip-rule="evenodd"/></clipPath><clipPath id="clip17"><path d="M194 100 1205 100 1205 527 194 527Z" fill-rule="evenodd" clip-rule="evenodd"/></clipPath><clipPath id="clip18"><path d="M194 100 1205 100 1205 527 194 527Z" fill-rule="evenodd" clip-rule="evenodd"/></clipPath><clipPath id="clip19"><path d="M194 100 1205 100 1205 527 194 527Z" fill-rule="evenodd" clip-rule="evenodd"/></clipPath><clipPath id="clip20"><path d="M67 67 1212 67 1212 652 67 652Z" fill-rule="evenodd" clip-rule="evenodd"/></clipPath><clipPath id="clip21"><path d="M67 67 1212 67 1212 652 67 652Z" fill-rule="evenodd" clip-rule="evenodd"/></clipPath><clipPath id="clip22"><path d="M67 67 1212 67 1212 652 67 652Z" fill-rule="evenodd" clip-rule="evenodd"/></clipPath><clipPath id="clip23"><path d="M67 67 1212 67 1212 652 67 652Z" fill-rule="evenodd" clip-rule="evenodd"/></clipPath><clipPath id="clip24"><path d="M67 67 1212 67 1212 652 67 652Z" fill-rule="evenodd" clip-rule="evenodd"/></clipPath><clipPath id="clip25"><path d="M67 67 1212 67 1212 652 67 652Z" fill-rule="evenodd" clip-rule="evenodd"/></clipPath><clipPath id="clip26"><path d="M67 67 1212 67 1212 652 67 652Z" fill-rule="evenodd" clip-rule="evenodd"/></clipPath><clipPath id="clip27"><path d="M67 67 1212 67 1212 652 67 652Z" fill-rule="evenodd" clip-rule="evenodd"/></clipPath><clipPath id="clip28"><path d="M67 67 1212 67 1212 652 67 652Z" fill-rule="evenodd" clip-rule="evenodd"/></clipPath><clipPath id="clip29"><path d="M67 67 1212 67 1212 652 67 652Z" fill-rule="evenodd" clip-rule="evenodd"/></clipPath><clipPath id="clip30"><path d="M67 67 1212 67 1212 652 67 652Z" fill-rule="evenodd" clip-rule="evenodd"/></clipPath><clipPath id="clip31"><path d="M67 67 1212 67 1212 652 67 652Z" fill-rule="evenodd" clip-rule="evenodd"/></clipPath><clipPath id="clip32"><path d="M67 67 1212 67 1212 652 67 652Z" fill-rule="evenodd" clip-rule="evenodd"/></clipPath><clipPath id="clip33"><path d="M67 67 1212 67 1212 652 67 652Z" fill-rule="evenodd" clip-rule="evenodd"/></clipPath><clipPath id="clip34"><path d="M67 67 1212 67 1212 652 67 652Z" fill-rule="evenodd" clip-rule="evenodd"/></clipPath><clipPath id="clip35"><path d="M67 67 1212 67 1212 652 67 652Z" fill-rule="evenodd" clip-rule="evenodd"/></clipPath><clipPath id="clip36"><path d="M67 67 1212 67 1212 652 67 652Z" fill-rule="evenodd" clip-rule="evenodd"/></clipPath><clipPath id="clip37"><path d="M67 67 1212 67 1212 652 67 652Z" fill-rule="evenodd" clip-rule="evenodd"/></clipPath><clipPath id="clip38"><path d="M67 67 1212 67 1212 652 67 652Z" fill-rule="evenodd" clip-rule="evenodd"/></clipPath><clipPath id="clip39"><path d="M67 67 1212 67 1212 652 67 652Z" fill-rule="evenodd" clip-rule="evenodd"/></clipPath><clipPath id="clip40"><path d="M67 67 1212 67 1212 652 67 652Z" fill-rule="evenodd" clip-rule="evenodd"/></clipPath><clipPath id="clip41"><path d="M-100 593 1212 593 1212 640-100 640Z" fill-rule="evenodd" clip-rule="evenodd"/></clipPath><clipPath id="clip42"><path d="M67 67 1212 67 1212 652 67 652Z" fill-rule="evenodd" clip-rule="evenodd"/></clipPath><clipPath id="clip43"><path d="M-100 593 1212 593 1212 640-100 640Z" fill-rule="evenodd" clip-rule="evenodd"/></clipPath><clipPath id="clip44"><path d="M67 67 1212 67 1212 652 67 652Z" fill-rule="evenodd" clip-rule="evenodd"/></clipPath><clipPath id="clip45"><path d="M67 67 1212 67 1212 652 67 652Z" fill-rule="evenodd" clip-rule="evenodd"/></clipPath><clipPath id="clip46"><path d="M256 593 1521 593 1521 640 256 640Z" fill-rule="evenodd" clip-rule="evenodd"/></clipPath><clipPath id="clip47"><path d="M67 67 1212 67 1212 652 67 652Z" fill-rule="evenodd" clip-rule="evenodd"/></clipPath><clipPath id="clip48"><path d="M256 593 1521 593 1521 640 256 640Z" fill-rule="evenodd" clip-rule="evenodd"/></clipPath></defs><g clip-path="url(#clip0)" transform="translate(-67 -67)"><g clip-path="url(#clip1)"><path d="M194.5 466.5 1204.5 466.5M194.5 405.5 1204.5 405.5M194.5 344.5 1204.5 344.5M194.5 283.5 1204.5 283.5M194.5 222.5 1204.5 222.5M194.5 161.5 1204.5 161.5M194.5 100.5 1204.5 100.5" stroke="#D9D9D9" stroke-linejoin="round" stroke-miterlimit="10" fill="none"/></g><g clip-path="url(#clip2)"><path d="M222 413 258 413 258 527 222 527ZM348 307 384 307 384 527 348 527ZM474 194 510 194 510 527 474 527ZM600 179 636 179 636 527 600 527ZM727 152 763 152 763 527 727 527ZM853 188 889 188 889 527 853 527ZM979 176 1015 176 1015 527 979 527ZM1105 155 1141 155 1141 527 1105 527Z" fill="#4472C4"/></g><g clip-path="url(#clip3)"><path d="M258 482 294 482 294 527 258 527ZM384 357 420 357 420 527 384 527ZM510 309 546 309 546 527 510 527ZM636 195 672 195 672 527 636 527ZM763 183 799 183 799 527 763 527ZM889 173 925 173 925 527 889 527ZM1015 199 1051 199 1051 527 1015 527ZM1141 167 1177 167 1177 527 1141 527Z" fill="#ED7D31"/></g><g clip-path="url(#clip4)"><path d="M239.5 412.5 239.5 425.5M239.5 412.5 239.5 400.5M236.5 425.5 242.5 425.5M236.5 400.5 242.5 400.5" stroke="#595959" stroke-linejoin="round" stroke-miterlimit="10" fill="none"/></g><g clip-path="url(#clip5)"><path d="M365.5 307.5 365.5 329.5M365.5 307.5 365.5 285.5M362.5 329.5 368.5 329.5M362.5 285.5 368.5 285.5" stroke="#595959" stroke-linejoin="round" stroke-miterlimit="10" fill="none"/></g><g clip-path="url(#clip6)"><path d="M492.5 194.5 492.5 212.5M492.5 194.5 492.5 176.5M489.5 212.5 495.5 212.5M489.5 176.5 495.5 176.5" stroke="#595959" stroke-linejoin="round" stroke-miterlimit="10" fill="none"/></g><g clip-path="url(#clip7)"><path d="M618.5 179.5 618.5 195.5M618.5 179.5 618.5 162.5M615.5 195.5 621.5 195.5M615.5 162.5 621.5 162.5" stroke="#595959" stroke-linejoin="round" stroke-miterlimit="10" fill="none"/></g><g clip-path="url(#clip8)"><path d="M744.5 151.5 744.5 176.5M744.5 151.5 744.5 127.5M741.5 176.5 747.5 176.5M741.5 127.5 747.5 127.5" stroke="#595959" stroke-linejoin="round" stroke-miterlimit="10" fill="none"/></g><g clip-path="url(#clip9)"><path d="M870.5 187.5 870.5 205.5M870.5 187.5 870.5 170.5M867.5 205.5 873.5 205.5M867.5 170.5 873.5 170.5" stroke="#595959" stroke-linejoin="round" stroke-miterlimit="10" fill="none"/></g><g clip-path="url(#clip10)"><path d="M996.5 175.5 996.5 196.5M996.5 175.5 996.5 154.5M993.5 196.5 999.5 196.5M993.5 154.5 999.5 154.5" stroke="#595959" stroke-linejoin="round" stroke-miterlimit="10" fill="none"/></g><g clip-path="url(#clip11)"><path d="M1123.5 154.5 1123.5 179.5M1123.5 154.5 1123.5 130.5M1120.5 179.5 1126.5 179.5M1120.5 130.5 1126.5 130.5" stroke="#595959" stroke-linejoin="round" stroke-miterlimit="10" fill="none"/></g><g clip-path="url(#clip12)"><path d="M275.5 482.5 275.5 498.5M275.5 482.5 275.5 465.5M272.5 498.5 278.5 498.5M272.5 465.5 278.5 465.5" stroke="#595959" stroke-linejoin="round" stroke-miterlimit="10" fill="none"/></g><g clip-path="url(#clip13)"><path d="M402.5 357.5 402.5 374.5M402.5 357.5 402.5 340.5M399.5 374.5 405.5 374.5M399.5 340.5 405.5 340.5" stroke="#595959" stroke-linejoin="round" stroke-miterlimit="10" fill="none"/></g><g clip-path="url(#clip14)"><path d="M528.5 309.5 528.5 319.5M528.5 309.5 528.5 298.5M525.5 319.5 531.5 319.5M525.5 298.5 531.5 298.5" stroke="#595959" stroke-linejoin="round" stroke-miterlimit="10" fill="none"/></g><g clip-path="url(#clip15)"><path d="M654.5 195.5 654.5 211.5M654.5 195.5 654.5 178.5M651.5 211.5 657.5 211.5M651.5 178.5 657.5 178.5" stroke="#595959" stroke-linejoin="round" stroke-miterlimit="10" fill="none"/></g><g clip-path="url(#clip16)"><path d="M780.5 182.5 780.5 199.5M780.5 182.5 780.5 165.5M777.5 199.5 783.5 199.5M777.5 165.5 783.5 165.5" stroke="#595959" stroke-linejoin="round" stroke-miterlimit="10" fill="none"/></g><g clip-path="url(#clip17)"><path d="M906.5 173.5 906.5 195.5M906.5 173.5 906.5 150.5M903.5 195.5 909.5 195.5M903.5 150.5 909.5 150.5" stroke="#595959" stroke-linejoin="round" stroke-miterlimit="10" fill="none"/></g><g clip-path="url(#clip18)"><path d="M1033.5 198.5 1033.5 216.5M1033.5 198.5 1033.5 180.5M1030.5 216.5 1036.5 216.5M1030.5 180.5 1036.5 180.5" stroke="#595959" stroke-linejoin="round" stroke-miterlimit="10" fill="none"/></g><g clip-path="url(#clip19)"><path d="M1159.5 166.5 1159.5 182.5M1159.5 166.5 1159.5 151.5M1156.5 182.5 1162.5 182.5M1156.5 151.5 1162.5 151.5" stroke="#595959" stroke-linejoin="round" stroke-miterlimit="10" fill="none"/></g><g clip-path="url(#clip20)"><path d="M194.5 527.5 1204.5 527.5" stroke="#D9D9D9" stroke-linejoin="round" stroke-miterlimit="10" fill="none" fill-rule="evenodd"/></g><g clip-path="url(#clip21)"><text fill="#595959" font-family="Yu Gothic,Yu Gothic_MSFontService,sans-serif" font-weight="400" font-size="24" transform="translate(157.996 534)">0</text></g><g clip-path="url(#clip22)"><text fill="#595959" font-family="Yu Gothic,Yu Gothic_MSFontService,sans-serif" font-weight="400" font-size="24" transform="translate(138.462 473)">0.1</text></g><g clip-path="url(#clip23)"><text fill="#595959" font-family="Yu Gothic,Yu Gothic_MSFontService,sans-serif" font-weight="400" font-size="24" transform="translate(138.462 412)">0.2</text></g><g clip-path="url(#clip24)"><text fill="#595959" font-family="Yu Gothic,Yu Gothic_MSFontService,sans-serif" font-weight="400" font-size="24" transform="translate(138.462 351)">0.3</text></g><g clip-path="url(#clip25)"><text fill="#595959" font-family="Yu Gothic,Yu Gothic_MSFontService,sans-serif" font-weight="400" font-size="24" transform="translate(138.462 290)">0.4</text></g><g clip-path="url(#clip26)"><text fill="#595959" font-family="Yu Gothic,Yu Gothic_MSFontService,sans-serif" font-weight="400" font-size="24" transform="translate(138.462 229)">0.5</text></g><g clip-path="url(#clip27)"><text fill="#595959" font-family="Yu Gothic,Yu Gothic_MSFontService,sans-serif" font-weight="400" font-size="24" transform="translate(138.462 168)">0.6</text></g><g clip-path="url(#clip28)"><text fill="#595959" font-family="Yu Gothic,Yu Gothic_MSFontService,sans-serif" font-weight="400" font-size="24" transform="translate(138.462 107)">0.7</text></g><g clip-path="url(#clip29)"><text fill="#595959" font-family="Yu Gothic,Yu Gothic_MSFontService,sans-serif" font-weight="400" font-size="24" transform="translate(237.752 567)">300</text></g><g clip-path="url(#clip30)"><text fill="#595959" font-family="Yu Gothic,Yu Gothic_MSFontService,sans-serif" font-weight="400" font-size="24" transform="translate(363.957 567)">400</text></g><g clip-path="url(#clip31)"><text fill="#595959" font-family="Yu Gothic,Yu Gothic_MSFontService,sans-serif" font-weight="400" font-size="24" transform="translate(490.163 567)">500</text></g><g clip-path="url(#clip32)"><text fill="#595959" font-family="Yu Gothic,Yu Gothic_MSFontService,sans-serif" font-weight="400" font-size="24" transform="translate(616.368 567)">600</text></g><g clip-path="url(#clip33)"><text fill="#595959" font-family="Yu Gothic,Yu Gothic_MSFontService,sans-serif" font-weight="400" font-size="24" transform="translate(742.574 567)">700</text></g><g clip-path="url(#clip34)"><text fill="#595959" font-family="Yu Gothic,Yu Gothic_MSFontService,sans-serif" font-weight="400" font-size="24" transform="translate(868.779 567)">800</text></g><g clip-path="url(#clip35)"><text fill="#595959" font-family="Yu Gothic,Yu Gothic_MSFontService,sans-serif" font-weight="400" font-size="24" transform="translate(994.985 567)">900</text></g><g clip-path="url(#clip36)"><text fill="#595959" font-family="Yu Gothic,Yu Gothic_MSFontService,sans-serif" font-weight="400" font-size="24" transform="translate(1114.52 567)">1000</text></g><g clip-path="url(#clip37)"><text fill="#595959" font-family="Yu Gothic,Yu Gothic_MSFontService,sans-serif" font-weight="400" font-size="27" transform="matrix(6.12323e-17 -1 1 6.12323e-17 116.233 483)">Packet delivery ratio</text></g><g clip-path="url(#clip38)"><text fill="#595959" font-family="Yu Gothic,Yu Gothic_MSFontService,sans-serif" font-weight="400" font-size="27" transform="translate(565.001 601)">Number of Nodes</text></g><g clip-path="url(#clip39)"><rect x="442" y="612" width="14" height="14" fill="#4472C4"/></g><g clip-path="url(#clip40)"><g clip-path="url(#clip41)"><text fill="#595959" font-family="Yu Gothic,Yu Gothic_MSFontService,sans-serif" font-weight="400" font-size="24" transform="translate(462.266 625)">shadowing   </text></g></g><g clip-path="url(#clip42)"><g clip-path="url(#clip43)"><text fill="#595959" font-family="Yu Gothic,Yu Gothic_MSFontService,sans-serif" font-weight="400" font-size="24" transform="translate(601.653 625)">なし</text></g></g><g clip-path="url(#clip44)"><rect x="778" y="612" width="14" height="14" fill="#ED7D31"/></g><g clip-path="url(#clip45)"><g clip-path="url(#clip46)"><text fill="#595959" font-family="Yu Gothic,Yu Gothic_MSFontService,sans-serif" font-weight="400" font-size="24" transform="translate(798.142 625)">shadowing  </text></g></g><g clip-path="url(#clip47)"><g clip-path="url(#clip48)"><text fill="#595959" font-family="Yu Gothic,Yu Gothic_MSFontService,sans-serif" font-weight="400" font-size="24" transform="translate(930.682 625)">あり</text></g></g></g></svg>