<svg width="1146" height="586" xmlns="http://www.w3.org/2000/svg" xmlns:xlink="http://www.w3.org/1999/xlink" overflow="hidden"><defs><clipPath id="clip0"><path d="M67 67 1213 67 1213 653 67 653Z" fill-rule="evenodd" clip-rule="evenodd"/></clipPath><clipPath id="clip1"><path d="M67 67 1212 67 1212 652 67 652Z" fill-rule="evenodd" clip-rule="evenodd"/></clipPath><clipPath id="clip2"><path d="M198 83 1196 83 1196 564 198 564Z" fill-rule="evenodd" clip-rule="evenodd"/></clipPath><clipPath id="clip3"><path d="M198 83 1196 83 1196 564 198 564Z" fill-rule="evenodd" clip-rule="evenodd"/></clipPath><clipPath id="clip4"><path d="M198 83 1196 83 1196 564 198 564Z" fill-rule="evenodd" clip-rule="evenodd"/></clipPath><clipPath id="clip5"><path d="M198 83 1196 83 1196 564 198 564Z" fill-rule="evenodd" clip-rule="evenodd"/></clipPath><clipPath id="clip6"><path d="M198 83 1196 83 1196 563 198 563Z" fill-rule="evenodd" clip-rule="evenodd"/></clipPath><clipPath id="clip7"><path d="M198 83 1196 83 1196 563 198 563Z" fill-rule="evenodd" clip-rule="evenodd"/></clipPath><clipPath id="clip8"><path d="M198 83 1196 83 1196 563 198 563Z" fill-rule="evenodd" clip-rule="evenodd"/></clipPath><clipPath id="clip9"><path d="M198 83 1196 83 1196 563 198 563Z" fill-rule="evenodd" clip-rule="evenodd"/></clipPath><clipPath id="clip10"><path d="M198 83 1196 83 1196 563 198 563Z" fill-rule="evenodd" clip-rule="evenodd"/></clipPath><clipPath id="clip11"><path d="M198 83 1196 83 1196 563 198 563Z" fill-rule="evenodd" clip-rule="evenodd"/></clipPath><clipPath id="clip12"><path d="M198 83 1196 83 1196 563 198 563Z" fill-rule="evenodd" clip-rule="evenodd"/></clipPath><clipPath id="clip13"><path d="M198 83 1196 83 1196 563 198 563Z" fill-rule="evenodd" clip-rule="evenodd"/></clipPath><clipPath id="clip14"><path d="M198 83 1196 83 1196 563 198 563Z" fill-rule="evenodd" clip-rule="evenodd"/></clipPath><clipPath id="clip15"><path d="M198 83 1196 83 1196 563 198 563Z" fill-rule="evenodd" clip-rule="evenodd"/></clipPath><clipPath id="clip16"><path d="M198 83 1196 83 1196 563 198 563Z" fill-rule="evenodd" clip-rule="evenodd"/></clipPath><clipPath id="clip17"><path d="M198 83 1196 83 1196 563 198 563Z" fill-rule="evenodd" clip-rule="evenodd"/></clipPath><clipPath id="clip18"><path d="M198 83 1196 83 1196 563 198 563Z" fill-rule="evenodd" clip-rule="evenodd"/></clipPath><clipPath id="clip19"><path d="M198 83 1196 83 1196 563 198 563Z" fill-rule="evenodd" clip-rule="evenodd"/></clipPath><clipPath id="clip20"><path d="M198 83 1196 83 1196 563 198 563Z" fill-rule="evenodd" clip-rule="evenodd"/></clipPath><clipPath id="clip21"><path d="M198 83 1196 83 1196 563 198 563Z" fill-rule="evenodd" clip-rule="evenodd"/></clipPath><clipPath id="clip22"><path d="M198 83 1196 83 1196 563 198 563Z" fill-rule="evenodd" clip-rule="evenodd"/></clipPath><clipPath id="clip23"><path d="M198 83 1196 83 1196 563 198 563Z" fill-rule="evenodd" clip-rule="evenodd"/></clipPath><clipPath id="clip24"><path d="M198 83 1196 83 1196 563 198 563Z" fill-rule="evenodd" clip-rule="evenodd"/></clipPath><clipPath id="clip25"><path d="M198 83 1196 83 1196 563 198 563Z" fill-rule="evenodd" clip-rule="evenodd"/></clipPath><clipPath id="clip26"><path d="M198 83 1196 83 1196 563 198 563Z" fill-rule="evenodd" clip-rule="evenodd"/></clipPath><clipPath id="clip27"><path d="M198 83 1196 83 1196 563 198 563Z" fill-rule="evenodd" clip-rule="evenodd"/></clipPath><clipPath id="clip28"><path d="M198 83 1196 83 1196 563 198 563Z" fill-rule="evenodd" clip-rule="evenodd"/></clipPath><clipPath id="clip29"><path d="M198 83 1196 83 1196 563 198 563Z" fill-rule="evenodd" clip-rule="evenodd"/></clipPath><clipPath id="clip30"><path d="M198 83 1196 83 1196 563 198 563Z" fill-rule="evenodd" clip-rule="evenodd"/></clipPath><clipPath id="clip31"><path d="M198 83 1196 83 1196 563 198 563Z" fill-rule="evenodd" clip-rule="evenodd"/></clipPath><clipPath id="clip32"><path d="M198 83 1196 83 1196 563 198 563Z" fill-rule="evenodd" clip-rule="evenodd"/></clipPath><clipPath id="clip33"><path d="M198 83 1196 83 1196 563 198 563Z" fill-rule="evenodd" clip-rule="evenodd"/></clipPath><clipPath id="clip34"><path d="M67 67 1212 67 1212 652 67 652Z" fill-rule="evenodd" clip-rule="evenodd"/></clipPath><clipPath id="clip35"><path d="M67 67 1212 67 1212 652 67 652Z" fill-rule="evenodd" clip-rule="evenodd"/></clipPath><clipPath id="clip36"><path d="M67 67 1212 67 1212 652 67 652Z" fill-rule="evenodd" clip-rule="evenodd"/></clipPath><clipPath id="clip37"><path d="M67 67 1212 67 1212 652 67 652Z" fill-rule="evenodd" clip-rule="evenodd"/></clipPath><clipPath id="clip38"><path d="M67 67 1212 67 1212 652 67 652Z" fill-rule="evenodd" clip-rule="evenodd"/></clipPath><clipPath id="clip39"><path d="M67 67 1212 67 1212 652 67 652Z" fill-rule="evenodd" clip-rule="evenodd"/></clipPath><clipPath id="clip40"><path d="M67 67 1212 67 1212 652 67 652Z" fill-rule="evenodd" clip-rule="evenodd"/></clipPath><clipPath id="clip41"><path d="M67 67 1212 67 1212 652 67 652Z" fill-rule="evenodd" clip-rule="evenodd"/></clipPath><clipPath id="clip42"><path d="M67 67 1212 67 1212 652 67 652Z" fill-rule="evenodd" clip-rule="evenodd"/></clipPath><clipPath id="clip43"><path d="M67 67 1212 67 1212 652 67 652Z" fill-rule="evenodd" clip-rule="evenodd"/></clipPath><clipPath id="clip44"><path d="M67 67 1212 67 1212 652 67 652Z" fill-rule="evenodd" clip-rule="evenodd"/></clipPath><clipPath id="clip45"><path d="M67 67 1212 67 1212 652 67 652Z" fill-rule="evenodd" clip-rule="evenodd"/></clipPath><clipPath id="clip46"><path d="M67 67 1212 67 1212 652 67 652Z" fill-rule="evenodd" clip-rule="evenodd"/></clipPath><clipPath id="clip47"><path d="M67 67 1212 67 1212 652 67 652Z" fill-rule="evenodd" clip-rule="evenodd"/></clipPath><clipPath id="clip48"><path d="M67 67 1212 67 1212 652 67 652Z" fill-rule="evenodd" clip-rule="evenodd"/></clipPath><clipPath id="clip49"><path d="M67 67 1212 67 1212 652 67 652Z" fill-rule="evenodd" clip-rule="evenodd"/></clipPath><clipPath id="clip50"><path d="M67 67 1212 67 1212 652 67 652Z" fill-rule="evenodd" clip-rule="evenodd"/></clipPath><clipPath id="clip51"><path d="M67 67 1212 67 1212 652 67 652Z" fill-rule="evenodd" clip-rule="evenodd"/></clipPath><clipPath id="clip52"><path d="M67 67 1212 67 1212 652 67 652Z" fill-rule="evenodd" clip-rule="evenodd"/></clipPath><clipPath id="clip53"><path d="M67 67 1212 67 1212 652 67 652Z" fill-rule="evenodd" clip-rule="evenodd"/></clipPath><clipPath id="clip54"><path d="M67 67 1212 67 1212 652 67 652Z" fill-rule="evenodd" clip-rule="evenodd"/></clipPath><clipPath id="clip55"><path d="M67 67 1212 67 1212 652 67 652Z" fill-rule="evenodd" clip-rule="evenodd"/></clipPath><clipPath id="clip56"><path d="M138 627 803 627 803 657 138 657Z" fill-rule="evenodd" clip-rule="evenodd"/></clipPath><clipPath id="clip57"><path d="M67 67 1212 67 1212 652 67 652Z" fill-rule="evenodd" clip-rule="evenodd"/></clipPath><clipPath id="clip58"><path d="M138 627 803 627 803 657 138 657Z" fill-rule="evenodd" clip-rule="evenodd"/></clipPath><clipPath id="clip59"><path d="M67 67 1212 67 1212 652 67 652Z" fill-rule="evenodd" clip-rule="evenodd"/></clipPath><clipPath id="clip60"><path d="M67 67 1212 67 1212 652 67 652Z" fill-rule="evenodd" clip-rule="evenodd"/></clipPath><clipPath id="clip61"><path d="M245 627 1009 627 1009 657 245 657Z" fill-rule="evenodd" clip-rule="evenodd"/></clipPath><clipPath id="clip62"><path d="M67 67 1212 67 1212 652 67 652Z" fill-rule="evenodd" clip-rule="evenodd"/></clipPath><clipPath id="clip63"><path d="M245 627 1009 627 1009 657 245 657Z" fill-rule="evenodd" clip-rule="evenodd"/></clipPath><clipPath id="clip64"><path d="M67 67 1212 67 1212 652 67 652Z" fill-rule="evenodd" clip-rule="evenodd"/></clipPath><clipPath id="clip65"><path d="M67 67 1212 67 1212 652 67 652Z" fill-rule="evenodd" clip-rule="evenodd"/></clipPath><clipPath id="clip66"><path d="M431 627 1143 627 1143 657 431 657Z" fill-rule="evenodd" clip-rule="evenodd"/></clipPath><clipPath id="clip67"><path d="M67 67 1212 67 1212 652 67 652Z" fill-rule="evenodd" clip-rule="evenodd"/></clipPath><clipPath id="clip68"><path d="M431 627 1143 627 1143 657 431 657Z" fill-rule="evenodd" clip-rule="evenodd"/></clipPath><clipPath id="clip69"><path d="M67 67 1212 67 1212 652 67 652Z" fill-rule="evenodd" clip-rule="evenodd"/></clipPath><clipPath id="clip70"><path d="M67 67 1212 67 1212 652 67 652Z" fill-rule="evenodd" clip-rule="evenodd"/></clipPath><clipPath id="clip71"><path d="M586 627 1301 627 1301 657 586 657Z" fill-rule="evenodd" clip-rule="evenodd"/></clipPath><clipPath id="clip72"><path d="M67 67 1212 67 1212 652 67 652Z" fill-rule="evenodd" clip-rule="evenodd"/></clipPath><clipPath id="clip73"><path d="M586 627 1301 627 1301 657 586 657Z" fill-rule="evenodd" clip-rule="evenodd"/></clipPath></defs><g clip-path="url(#clip0)" transform="translate(-67 -67)"><g clip-path="url(#clip1)"><path d="M198.5 509.5 1195.5 509.5M198.5 456.5 1195.5 456.5M198.5 403.5 1195.5 403.5M198.5 349.5 1195.5 349.5M198.5 296.5 1195.5 296.5M198.5 243.5 1195.5 243.5M198.5 189.5 1195.5 189.5M198.5 136.5 1195.5 136.5M198.5 83.5001 1195.5 83.5001" stroke="#D9D9D9" stroke-linejoin="round" stroke-miterlimit="10" fill="none"/></g><g clip-path="url(#clip2)"><path d="M221 532 242 532 242 563 221 563ZM364 443 384 443 384 563 364 563ZM506 275 526 275 526 563 506 563ZM648 222 668 222 668 563 648 563ZM790 194 811 194 811 563 790 563ZM933 244 953 244 953 563 933 563ZM1075 189 1095 189 1095 563 1075 563Z" fill="#4472C4"/></g><g clip-path="url(#clip3)"><path d="M247 532 267 532 267 563 247 563ZM389 448 410 448 410 563 389 563ZM532 286 552 286 552 563 532 563ZM674 227 694 227 694 563 674 563ZM816 210 837 210 837 563 816 563ZM959 255 979 255 979 563 959 563ZM1101 199 1121 199 1121 563 1101 563Z" fill="#ED7D31"/></g><g clip-path="url(#clip4)"><path d="M273 493 293 493 293 563 273 563ZM415 307 436 307 436 563 415 563ZM557 259 578 259 578 563 557 563ZM700 221 720 221 720 563 700 563ZM842 167 862 167 862 563 842 563ZM984 205 1005 205 1005 563 984 563ZM1127 177 1147 177 1147 563 1127 563Z" fill="#A5A5A5"/></g><g clip-path="url(#clip5)"><path d="M299 493 319 493 319 563 299 563ZM441 307 461 307 461 563 441 563ZM583 270 604 270 604 563 583 563ZM726 215 746 215 746 563 726 563ZM868 167 888 167 888 563 868 563ZM1010 231 1031 231 1031 563 1010 563ZM1153 188 1173 188 1173 563 1153 563Z" fill="#FFC000"/></g><g clip-path="url(#clip6)"><path d="M231.5 532.5 231.5 560.5M231.5 532.5 231.5 503.5M228.5 560.5 234.5 560.5M228.5 503.5 234.5 503.5" stroke="#595959" stroke-linejoin="round" stroke-miterlimit="10" fill="none"/></g><g clip-path="url(#clip7)"><path d="M373.5 442.5 373.5 462.5M373.5 442.5 373.5 422.5M370.5 462.5 376.5 462.5M370.5 422.5 376.5 422.5" stroke="#595959" stroke-linejoin="round" stroke-miterlimit="10" fill="none"/></g><g clip-path="url(#clip8)"><path d="M516.5 275.5 516.5 304.5M516.5 275.5 516.5 245.5M513.5 304.5 519.5 304.5M513.5 245.5 519.5 245.5" stroke="#595959" stroke-linejoin="round" stroke-miterlimit="10" fill="none"/></g><g clip-path="url(#clip9)"><path d="M658.5 221.5 658.5 250.5M658.5 221.5 658.5 192.5M655.5 250.5 661.5 250.5M655.5 192.5 661.5 192.5" stroke="#595959" stroke-linejoin="round" stroke-miterlimit="10" fill="none"/></g><g clip-path="url(#clip10)"><path d="M800.5 193.5 800.5 237.5M800.5 193.5 800.5 150.5M797.5 237.5 803.5 237.5M797.5 150.5 803.5 150.5" stroke="#595959" stroke-linejoin="round" stroke-miterlimit="10" fill="none"/></g><g clip-path="url(#clip11)"><path d="M942.5 244.5 942.5 273.5M942.5 244.5 942.5 214.5M939.5 273.5 945.5 273.5M939.5 214.5 945.5 214.5" stroke="#595959" stroke-linejoin="round" stroke-miterlimit="10" fill="none"/></g><g clip-path="url(#clip12)"><path d="M1085.5 188.5 1085.5 215.5M1085.5 188.5 1085.5 161.5M1082.5 215.5 1088.5 215.5M1082.5 161.5 1088.5 161.5" stroke="#595959" stroke-linejoin="round" stroke-miterlimit="10" fill="none"/></g><g clip-path="url(#clip13)"><path d="M257.5 532.5 257.5 560.5M257.5 532.5 257.5 503.5M254.5 560.5 260.5 560.5M254.5 503.5 260.5 503.5" stroke="#595959" stroke-linejoin="round" stroke-miterlimit="10" fill="none"/></g><g clip-path="url(#clip14)"><path d="M399.5 447.5 399.5 466.5M399.5 447.5 399.5 429.5M396.5 466.5 402.5 466.5M396.5 429.5 402.5 429.5" stroke="#595959" stroke-linejoin="round" stroke-miterlimit="10" fill="none"/></g><g clip-path="url(#clip15)"><path d="M541.5 285.5 541.5 313.5M541.5 285.5 541.5 258.5M538.5 313.5 544.5 313.5M538.5 258.5 544.5 258.5" stroke="#595959" stroke-linejoin="round" stroke-miterlimit="10" fill="none"/></g><g clip-path="url(#clip16)"><path d="M684.5 227.5 684.5 255.5M684.5 227.5 684.5 198.5M681.5 255.5 687.5 255.5M681.5 198.5 687.5 198.5" stroke="#595959" stroke-linejoin="round" stroke-miterlimit="10" fill="none"/></g><g clip-path="url(#clip17)"><path d="M826.5 209.5 826.5 250.5M826.5 209.5 826.5 169.5M823.5 250.5 829.5 250.5M823.5 169.5 829.5 169.5" stroke="#595959" stroke-linejoin="round" stroke-miterlimit="10" fill="none"/></g><g clip-path="url(#clip18)"><path d="M968.5 254.5 968.5 285.5M968.5 254.5 968.5 224.5M965.5 285.5 971.5 285.5M965.5 224.5 971.5 224.5" stroke="#595959" stroke-linejoin="round" stroke-miterlimit="10" fill="none"/></g><g clip-path="url(#clip19)"><path d="M1111.5 199.5 1111.5 229.5M1111.5 199.5 1111.5 169.5M1108.5 229.5 1114.5 229.5M1108.5 169.5 1114.5 169.5" stroke="#595959" stroke-linejoin="round" stroke-miterlimit="10" fill="none"/></g><g clip-path="url(#clip20)"><path d="M283.5 492.5 283.5 521.5M283.5 492.5 283.5 463.5M280.5 521.5 286.5 521.5M280.5 463.5 286.5 463.5" stroke="#595959" stroke-linejoin="round" stroke-miterlimit="10" fill="none"/></g><g clip-path="url(#clip21)"><path d="M425.5 307.5 425.5 326.5M425.5 307.5 425.5 287.5M422.5 326.5 428.5 326.5M422.5 287.5 428.5 287.5" stroke="#595959" stroke-linejoin="round" stroke-miterlimit="10" fill="none"/></g><g clip-path="url(#clip22)"><path d="M567.5 259.5 567.5 281.5M567.5 259.5 567.5 236.5M564.5 281.5 570.5 281.5M564.5 236.5 570.5 236.5" stroke="#595959" stroke-linejoin="round" stroke-miterlimit="10" fill="none"/></g><g clip-path="url(#clip23)"><path d="M709.5 220.5 709.5 259.5M709.5 220.5 709.5 181.5M706.5 259.5 712.5 259.5M706.5 181.5 712.5 181.5" stroke="#595959" stroke-linejoin="round" stroke-miterlimit="10" fill="none"/></g><g clip-path="url(#clip24)"><path d="M852.5 167.5 852.5 206.5M852.5 167.5 852.5 128.5M849.5 206.5 855.5 206.5M849.5 128.5 855.5 128.5" stroke="#595959" stroke-linejoin="round" stroke-miterlimit="10" fill="none"/></g><g clip-path="url(#clip25)"><path d="M994.5 204.5 994.5 233.5M994.5 204.5 994.5 176.5M991.5 233.5 997.5 233.5M991.5 176.5 997.5 176.5" stroke="#595959" stroke-linejoin="round" stroke-miterlimit="10" fill="none"/></g><g clip-path="url(#clip26)"><path d="M1136.5 176.5 1136.5 219.5M1136.5 176.5 1136.5 133.5M1133.5 219.5 1139.5 219.5M1133.5 133.5 1139.5 133.5" stroke="#595959" stroke-linejoin="round" stroke-miterlimit="10" fill="none"/></g><g clip-path="url(#clip27)"><path d="M308.5 492.5 308.5 521.5M308.5 492.5 308.5 466.5M305.5 521.5 311.5 521.5M305.5 466.5 311.5 466.5" stroke="#595959" stroke-linejoin="round" stroke-miterlimit="10" fill="none"/></g><g clip-path="url(#clip28)"><path d="M451.5 307.5 451.5 326.5M451.5 307.5 451.5 278.5M448.5 326.5 454.5 326.5M448.5 278.5 454.5 278.5" stroke="#595959" stroke-linejoin="round" stroke-miterlimit="10" fill="none"/></g><g clip-path="url(#clip29)"><path d="M593.5 269.5 593.5 291.5M593.5 269.5 593.5 250.5M590.5 291.5 596.5 291.5M590.5 250.5 596.5 250.5" stroke="#595959" stroke-linejoin="round" stroke-miterlimit="10" fill="none"/></g><g clip-path="url(#clip30)"><path d="M735.5 215.5 735.5 258.5M735.5 215.5 735.5 193.5M732.5 258.5 738.5 258.5M732.5 193.5 738.5 193.5" stroke="#595959" stroke-linejoin="round" stroke-miterlimit="10" fill="none"/></g><g clip-path="url(#clip31)"><path d="M878.5 167.5 878.5 209.5M878.5 167.5 878.5 123.5M875.5 209.5 881.5 209.5M875.5 123.5 881.5 123.5" stroke="#595959" stroke-linejoin="round" stroke-miterlimit="10" fill="none"/></g><g clip-path="url(#clip32)"><path d="M1020.5 231.5 1020.5 262.5M1020.5 231.5 1020.5 188.5M1017.5 262.5 1023.5 262.5M1017.5 188.5 1023.5 188.5" stroke="#595959" stroke-linejoin="round" stroke-miterlimit="10" fill="none"/></g><g clip-path="url(#clip33)"><path d="M1162.5 187.5 1162.5 230.5M1162.5 187.5 1162.5 156.5M1159.5 230.5 1165.5 230.5M1159.5 156.5 1165.5 156.5" stroke="#595959" stroke-linejoin="round" stroke-miterlimit="10" fill="none"/></g><g clip-path="url(#clip34)"><path d="M198.5 563.5 1195.5 563.5" stroke="#D9D9D9" stroke-linejoin="round" stroke-miterlimit="10" fill="none" fill-rule="evenodd"/></g><g clip-path="url(#clip35)"><text fill="#595959" font-family="Yu Gothic,Yu Gothic_MSFontService,sans-serif" font-weight="400" font-size="24" transform="translate(129.411 570)">0.25</text></g><g clip-path="url(#clip36)"><text fill="#595959" font-family="Yu Gothic,Yu Gothic_MSFontService,sans-serif" font-weight="400" font-size="24" transform="translate(142.757 517)">0.3</text></g><g clip-path="url(#clip37)"><text fill="#595959" font-family="Yu Gothic,Yu Gothic_MSFontService,sans-serif" font-weight="400" font-size="24" transform="translate(129.411 463)">0.35</text></g><g clip-path="url(#clip38)"><text fill="#595959" font-family="Yu Gothic,Yu Gothic_MSFontService,sans-serif" font-weight="400" font-size="24" transform="translate(142.757 410)">0.4</text></g><g clip-path="url(#clip39)"><text fill="#595959" font-family="Yu Gothic,Yu Gothic_MSFontService,sans-serif" font-weight="400" font-size="24" transform="translate(129.411 357)">0.45</text></g><g clip-path="url(#clip40)"><text fill="#595959" font-family="Yu Gothic,Yu Gothic_MSFontService,sans-serif" font-weight="400" font-size="24" transform="translate(142.757 303)">0.5</text></g><g clip-path="url(#clip41)"><text fill="#595959" font-family="Yu Gothic,Yu Gothic_MSFontService,sans-serif" font-weight="400" font-size="24" transform="translate(129.411 250)">0.55</text></g><g clip-path="url(#clip42)"><text fill="#595959" font-family="Yu Gothic,Yu Gothic_MSFontService,sans-serif" font-weight="400" font-size="24" transform="translate(142.757 197)">0.6</text></g><g clip-path="url(#clip43)"><text fill="#595959" font-family="Yu Gothic,Yu Gothic_MSFontService,sans-serif" font-weight="400" font-size="24" transform="translate(129.411 143)">0.65</text></g><g clip-path="url(#clip44)"><text fill="#595959" font-family="Yu Gothic,Yu Gothic_MSFontService,sans-serif" font-weight="400" font-size="24" transform="translate(142.757 90)">0.7</text></g><g clip-path="url(#clip45)"><text fill="#595959" font-family="Yu Gothic,Yu Gothic_MSFontService,sans-serif" font-weight="400" font-size="24" transform="translate(250.099 603)">400</text></g><g clip-path="url(#clip46)"><text fill="#595959" font-family="Yu Gothic,Yu Gothic_MSFontService,sans-serif" font-weight="400" font-size="24" transform="translate(392.409 603)">500</text></g><g clip-path="url(#clip47)"><text fill="#595959" font-family="Yu Gothic,Yu Gothic_MSFontService,sans-serif" font-weight="400" font-size="24" transform="translate(534.719 603)">600</text></g><g clip-path="url(#clip48)"><text fill="#595959" font-family="Yu Gothic,Yu Gothic_MSFontService,sans-serif" font-weight="400" font-size="24" transform="translate(677.029 603)">700</text></g><g clip-path="url(#clip49)"><text fill="#595959" font-family="Yu Gothic,Yu Gothic_MSFontService,sans-serif" font-weight="400" font-size="24" transform="translate(819.339 603)">800</text></g><g clip-path="url(#clip50)"><text fill="#595959" font-family="Yu Gothic,Yu Gothic_MSFontService,sans-serif" font-weight="400" font-size="24" transform="translate(961.649 603)">900</text></g><g clip-path="url(#clip51)"><text fill="#595959" font-family="Yu Gothic,Yu Gothic_MSFontService,sans-serif" font-weight="400" font-size="24" transform="translate(1097.29 603)">1000</text></g><g clip-path="url(#clip52)"><text fill="#595959" font-family="Yu Gothic,Yu Gothic_MSFontService,sans-serif" font-weight="400" font-size="27" transform="matrix(6.12323e-17 -1 1 6.12323e-17 111.798 449)">Packet delivery ratio</text></g><g clip-path="url(#clip53)"><text fill="#595959" font-family="Yu Gothic,Yu Gothic_MSFontService,sans-serif" font-weight="400" font-size="27" transform="translate(636.264 627)">Number of  Nodes</text></g><g clip-path="url(#clip54)"><rect x="403" y="631" width="14" height="14" fill="#4472C4"/></g><g clip-path="url(#clip55)"><g clip-path="url(#clip56)"><text fill="#595959" font-family="Yu Gothic,Yu Gothic_MSFontService,sans-serif" font-weight="400" font-size="24" transform="translate(423.026 650)">SIGO  </text></g></g><g clip-path="url(#clip57)"><g clip-path="url(#clip58)"><text fill="#595959" font-family="Yu Gothic,Yu Gothic_MSFontService,sans-serif" font-weight="400" font-size="24" transform="translate(493.792 650)">多</text></g></g><g clip-path="url(#clip59)"><rect x="552" y="631" width="14" height="14" fill="#ED7D31"/></g><g clip-path="url(#clip60)"><g clip-path="url(#clip61)"><text fill="#595959" font-family="Yu Gothic,Yu Gothic_MSFontService,sans-serif" font-weight="400" font-size="24" transform="translate(572.442 650)">LSGO   </text></g></g><g clip-path="url(#clip62)"><g clip-path="url(#clip63)"><text fill="#595959" font-family="Yu Gothic,Yu Gothic_MSFontService,sans-serif" font-weight="400" font-size="24" transform="translate(657.382 650)">多</text></g></g><g clip-path="url(#clip64)"><rect x="716" y="631" width="14" height="14" fill="#A5A5A5"/></g><g clip-path="url(#clip65)"><g clip-path="url(#clip66)"><text fill="#595959" font-family="Yu Gothic,Yu Gothic_MSFontService,sans-serif" font-weight="400" font-size="24" transform="translate(736.032 650)">SIGO   </text></g></g><g clip-path="url(#clip67)"><g clip-path="url(#clip68)"><text fill="#595959" font-family="Yu Gothic,Yu Gothic_MSFontService,sans-serif" font-weight="400" font-size="24" transform="translate(813.645 650)">少</text></g></g><g clip-path="url(#clip69)"><rect x="872" y="631" width="14" height="14" fill="#FFC000"/></g><g clip-path="url(#clip70)"><g clip-path="url(#clip71)"><text fill="#595959" font-family="Yu Gothic,Yu Gothic_MSFontService,sans-serif" font-weight="400" font-size="24" transform="translate(892.295 650)">LSGO  </text></g></g><g clip-path="url(#clip72)"><g clip-path="url(#clip73)"><text fill="#595959" font-family="Yu Gothic,Yu Gothic_MSFontService,sans-serif" font-weight="400" font-size="24" transform="translate(970.388 650)">少</text></g></g></g></svg>